<?xml version="1.0" encoding="utf-8" standalone="no"?>
<!DOCTYPE svg PUBLIC "-//W3C//DTD SVG 1.1//EN"
  "http://www.w3.org/Graphics/SVG/1.1/DTD/svg11.dtd">
<!-- Created with matplotlib (https://matplotlib.org/) -->
<svg height="524.16pt" version="1.1" viewBox="0 0 889.2 524.16" width="889.2pt" xmlns="http://www.w3.org/2000/svg" xmlns:xlink="http://www.w3.org/1999/xlink">
 <metadata>
  <rdf:RDF xmlns:cc="http://creativecommons.org/ns#" xmlns:dc="http://purl.org/dc/elements/1.1/" xmlns:rdf="http://www.w3.org/1999/02/22-rdf-syntax-ns#">
   <cc:Work>
    <dc:type rdf:resource="http://purl.org/dc/dcmitype/StillImage"/>
    <dc:date>2022-01-31T23:45:43.627249</dc:date>
    <dc:format>image/svg+xml</dc:format>
    <dc:creator>
     <cc:Agent>
      <dc:title>Matplotlib v3.3.4, https://matplotlib.org/</dc:title>
     </cc:Agent>
    </dc:creator>
   </cc:Work>
  </rdf:RDF>
 </metadata>
 <defs>
  <style type="text/css">*{stroke-linecap:butt;stroke-linejoin:round;}</style>
 </defs>
 <g id="figure_1">
  <g id="patch_1">
   <path d="M 0 524.16 
L 889.2 524.16 
L 889.2 0 
L 0 0 
z
" style="fill:#ffffff;"/>
  </g>
  <g id="axes_1">
   <g id="patch_2">
    <path d="M 111.15 466.5024 
L 800.28 466.5024 
L 800.28 62.8992 
L 111.15 62.8992 
z
" style="fill:#ffffff;"/>
   </g>
   <g id="matplotlib.axis_1">
    <g id="xtick_1">
     <g id="line2d_1">
      <defs>
       <path d="M 0 0 
L 0 3.5 
" id="m564a02ee3b" style="stroke:#000000;stroke-width:0.8;"/>
      </defs>
      <g>
       <use style="stroke:#000000;stroke-width:0.8;" x="142.474091" xlink:href="#m564a02ee3b" y="466.5024"/>
      </g>
     </g>
     <g id="text_1">
      <!-- $\mathdefault{10^{5}}$ -->
      <g transform="translate(133.674091 481.100838)scale(0.1 -0.1)">
       <defs>
        <path d="M 12.40625 8.296875 
L 28.515625 8.296875 
L 28.515625 63.921875 
L 10.984375 60.40625 
L 10.984375 69.390625 
L 28.421875 72.90625 
L 38.28125 72.90625 
L 38.28125 8.296875 
L 54.390625 8.296875 
L 54.390625 0 
L 12.40625 0 
z
" id="DejaVuSans-49"/>
        <path d="M 31.78125 66.40625 
Q 24.171875 66.40625 20.328125 58.90625 
Q 16.5 51.421875 16.5 36.375 
Q 16.5 21.390625 20.328125 13.890625 
Q 24.171875 6.390625 31.78125 6.390625 
Q 39.453125 6.390625 43.28125 13.890625 
Q 47.125 21.390625 47.125 36.375 
Q 47.125 51.421875 43.28125 58.90625 
Q 39.453125 66.40625 31.78125 66.40625 
z
M 31.78125 74.21875 
Q 44.046875 74.21875 50.515625 64.515625 
Q 56.984375 54.828125 56.984375 36.375 
Q 56.984375 17.96875 50.515625 8.265625 
Q 44.046875 -1.421875 31.78125 -1.421875 
Q 19.53125 -1.421875 13.0625 8.265625 
Q 6.59375 17.96875 6.59375 36.375 
Q 6.59375 54.828125 13.0625 64.515625 
Q 19.53125 74.21875 31.78125 74.21875 
z
" id="DejaVuSans-48"/>
        <path d="M 10.796875 72.90625 
L 49.515625 72.90625 
L 49.515625 64.59375 
L 19.828125 64.59375 
L 19.828125 46.734375 
Q 21.96875 47.46875 24.109375 47.828125 
Q 26.265625 48.1875 28.421875 48.1875 
Q 40.625 48.1875 47.75 41.5 
Q 54.890625 34.8125 54.890625 23.390625 
Q 54.890625 11.625 47.5625 5.09375 
Q 40.234375 -1.421875 26.90625 -1.421875 
Q 22.3125 -1.421875 17.546875 -0.640625 
Q 12.796875 0.140625 7.71875 1.703125 
L 7.71875 11.625 
Q 12.109375 9.234375 16.796875 8.0625 
Q 21.484375 6.890625 26.703125 6.890625 
Q 35.15625 6.890625 40.078125 11.328125 
Q 45.015625 15.765625 45.015625 23.390625 
Q 45.015625 31 40.078125 35.4375 
Q 35.15625 39.890625 26.703125 39.890625 
Q 22.75 39.890625 18.8125 39.015625 
Q 14.890625 38.140625 10.796875 36.28125 
z
" id="DejaVuSans-53"/>
       </defs>
       <use transform="translate(0 0.684375)" xlink:href="#DejaVuSans-49"/>
       <use transform="translate(63.623047 0.684375)" xlink:href="#DejaVuSans-48"/>
       <use transform="translate(128.203125 38.965625)scale(0.7)" xlink:href="#DejaVuSans-53"/>
      </g>
     </g>
    </g>
    <g id="xtick_2">
     <g id="line2d_2">
      <g>
       <use style="stroke:#000000;stroke-width:0.8;" x="267.770455" xlink:href="#m564a02ee3b" y="466.5024"/>
      </g>
     </g>
     <g id="text_2">
      <!-- $\mathdefault{10^{6}}$ -->
      <g transform="translate(258.970455 481.100838)scale(0.1 -0.1)">
       <defs>
        <path d="M 33.015625 40.375 
Q 26.375 40.375 22.484375 35.828125 
Q 18.609375 31.296875 18.609375 23.390625 
Q 18.609375 15.53125 22.484375 10.953125 
Q 26.375 6.390625 33.015625 6.390625 
Q 39.65625 6.390625 43.53125 10.953125 
Q 47.40625 15.53125 47.40625 23.390625 
Q 47.40625 31.296875 43.53125 35.828125 
Q 39.65625 40.375 33.015625 40.375 
z
M 52.59375 71.296875 
L 52.59375 62.3125 
Q 48.875 64.0625 45.09375 64.984375 
Q 41.3125 65.921875 37.59375 65.921875 
Q 27.828125 65.921875 22.671875 59.328125 
Q 17.53125 52.734375 16.796875 39.40625 
Q 19.671875 43.65625 24.015625 45.921875 
Q 28.375 48.1875 33.59375 48.1875 
Q 44.578125 48.1875 50.953125 41.515625 
Q 57.328125 34.859375 57.328125 23.390625 
Q 57.328125 12.15625 50.6875 5.359375 
Q 44.046875 -1.421875 33.015625 -1.421875 
Q 20.359375 -1.421875 13.671875 8.265625 
Q 6.984375 17.96875 6.984375 36.375 
Q 6.984375 53.65625 15.1875 63.9375 
Q 23.390625 74.21875 37.203125 74.21875 
Q 40.921875 74.21875 44.703125 73.484375 
Q 48.484375 72.75 52.59375 71.296875 
z
" id="DejaVuSans-54"/>
       </defs>
       <use transform="translate(0 0.765625)" xlink:href="#DejaVuSans-49"/>
       <use transform="translate(63.623047 0.765625)" xlink:href="#DejaVuSans-48"/>
       <use transform="translate(128.203125 39.046875)scale(0.7)" xlink:href="#DejaVuSans-54"/>
      </g>
     </g>
    </g>
    <g id="xtick_3">
     <g id="line2d_3">
      <g>
       <use style="stroke:#000000;stroke-width:0.8;" x="393.066818" xlink:href="#m564a02ee3b" y="466.5024"/>
      </g>
     </g>
     <g id="text_3">
      <!-- $\mathdefault{10^{7}}$ -->
      <g transform="translate(384.266818 481.100838)scale(0.1 -0.1)">
       <defs>
        <path d="M 8.203125 72.90625 
L 55.078125 72.90625 
L 55.078125 68.703125 
L 28.609375 0 
L 18.3125 0 
L 43.21875 64.59375 
L 8.203125 64.59375 
z
" id="DejaVuSans-55"/>
       </defs>
       <use transform="translate(0 0.684375)" xlink:href="#DejaVuSans-49"/>
       <use transform="translate(63.623047 0.684375)" xlink:href="#DejaVuSans-48"/>
       <use transform="translate(128.203125 38.965625)scale(0.7)" xlink:href="#DejaVuSans-55"/>
      </g>
     </g>
    </g>
    <g id="xtick_4">
     <g id="line2d_4">
      <g>
       <use style="stroke:#000000;stroke-width:0.8;" x="518.363182" xlink:href="#m564a02ee3b" y="466.5024"/>
      </g>
     </g>
     <g id="text_4">
      <!-- $\mathdefault{10^{8}}$ -->
      <g transform="translate(509.563182 481.100838)scale(0.1 -0.1)">
       <defs>
        <path d="M 31.78125 34.625 
Q 24.75 34.625 20.71875 30.859375 
Q 16.703125 27.09375 16.703125 20.515625 
Q 16.703125 13.921875 20.71875 10.15625 
Q 24.75 6.390625 31.78125 6.390625 
Q 38.8125 6.390625 42.859375 10.171875 
Q 46.921875 13.96875 46.921875 20.515625 
Q 46.921875 27.09375 42.890625 30.859375 
Q 38.875 34.625 31.78125 34.625 
z
M 21.921875 38.8125 
Q 15.578125 40.375 12.03125 44.71875 
Q 8.5 49.078125 8.5 55.328125 
Q 8.5 64.0625 14.71875 69.140625 
Q 20.953125 74.21875 31.78125 74.21875 
Q 42.671875 74.21875 48.875 69.140625 
Q 55.078125 64.0625 55.078125 55.328125 
Q 55.078125 49.078125 51.53125 44.71875 
Q 48 40.375 41.703125 38.8125 
Q 48.828125 37.15625 52.796875 32.3125 
Q 56.78125 27.484375 56.78125 20.515625 
Q 56.78125 9.90625 50.3125 4.234375 
Q 43.84375 -1.421875 31.78125 -1.421875 
Q 19.734375 -1.421875 13.25 4.234375 
Q 6.78125 9.90625 6.78125 20.515625 
Q 6.78125 27.484375 10.78125 32.3125 
Q 14.796875 37.15625 21.921875 38.8125 
z
M 18.3125 54.390625 
Q 18.3125 48.734375 21.84375 45.5625 
Q 25.390625 42.390625 31.78125 42.390625 
Q 38.140625 42.390625 41.71875 45.5625 
Q 45.3125 48.734375 45.3125 54.390625 
Q 45.3125 60.0625 41.71875 63.234375 
Q 38.140625 66.40625 31.78125 66.40625 
Q 25.390625 66.40625 21.84375 63.234375 
Q 18.3125 60.0625 18.3125 54.390625 
z
" id="DejaVuSans-56"/>
       </defs>
       <use transform="translate(0 0.765625)" xlink:href="#DejaVuSans-49"/>
       <use transform="translate(63.623047 0.765625)" xlink:href="#DejaVuSans-48"/>
       <use transform="translate(128.203125 39.046875)scale(0.7)" xlink:href="#DejaVuSans-56"/>
      </g>
     </g>
    </g>
    <g id="xtick_5">
     <g id="line2d_5">
      <g>
       <use style="stroke:#000000;stroke-width:0.8;" x="643.659545" xlink:href="#m564a02ee3b" y="466.5024"/>
      </g>
     </g>
     <g id="text_5">
      <!-- $\mathdefault{10^{9}}$ -->
      <g transform="translate(634.859545 481.100838)scale(0.1 -0.1)">
       <defs>
        <path d="M 10.984375 1.515625 
L 10.984375 10.5 
Q 14.703125 8.734375 18.5 7.8125 
Q 22.3125 6.890625 25.984375 6.890625 
Q 35.75 6.890625 40.890625 13.453125 
Q 46.046875 20.015625 46.78125 33.40625 
Q 43.953125 29.203125 39.59375 26.953125 
Q 35.25 24.703125 29.984375 24.703125 
Q 19.046875 24.703125 12.671875 31.3125 
Q 6.296875 37.9375 6.296875 49.421875 
Q 6.296875 60.640625 12.9375 67.421875 
Q 19.578125 74.21875 30.609375 74.21875 
Q 43.265625 74.21875 49.921875 64.515625 
Q 56.59375 54.828125 56.59375 36.375 
Q 56.59375 19.140625 48.40625 8.859375 
Q 40.234375 -1.421875 26.421875 -1.421875 
Q 22.703125 -1.421875 18.890625 -0.6875 
Q 15.09375 0.046875 10.984375 1.515625 
z
M 30.609375 32.421875 
Q 37.25 32.421875 41.125 36.953125 
Q 45.015625 41.5 45.015625 49.421875 
Q 45.015625 57.28125 41.125 61.84375 
Q 37.25 66.40625 30.609375 66.40625 
Q 23.96875 66.40625 20.09375 61.84375 
Q 16.21875 57.28125 16.21875 49.421875 
Q 16.21875 41.5 20.09375 36.953125 
Q 23.96875 32.421875 30.609375 32.421875 
z
" id="DejaVuSans-57"/>
       </defs>
       <use transform="translate(0 0.765625)" xlink:href="#DejaVuSans-49"/>
       <use transform="translate(63.623047 0.765625)" xlink:href="#DejaVuSans-48"/>
       <use transform="translate(128.203125 39.046875)scale(0.7)" xlink:href="#DejaVuSans-57"/>
      </g>
     </g>
    </g>
    <g id="xtick_6">
     <g id="line2d_6">
      <g>
       <use style="stroke:#000000;stroke-width:0.8;" x="768.955909" xlink:href="#m564a02ee3b" y="466.5024"/>
      </g>
     </g>
     <g id="text_6">
      <!-- $\mathdefault{10^{10}}$ -->
      <g transform="translate(757.905909 481.100838)scale(0.1 -0.1)">
       <use transform="translate(0 0.765625)" xlink:href="#DejaVuSans-49"/>
       <use transform="translate(63.623047 0.765625)" xlink:href="#DejaVuSans-48"/>
       <use transform="translate(128.203125 39.046875)scale(0.7)" xlink:href="#DejaVuSans-49"/>
       <use transform="translate(172.739258 39.046875)scale(0.7)" xlink:href="#DejaVuSans-48"/>
      </g>
     </g>
    </g>
    <g id="xtick_7">
     <g id="line2d_7">
      <defs>
       <path d="M 0 0 
L 0 2 
" id="me1060cc7bc" style="stroke:#000000;stroke-width:0.6;"/>
      </defs>
      <g>
       <use style="stroke:#000000;stroke-width:0.6;" x="114.677249" xlink:href="#me1060cc7bc" y="466.5024"/>
      </g>
     </g>
    </g>
    <g id="xtick_8">
     <g id="line2d_8">
      <g>
       <use style="stroke:#000000;stroke-width:0.6;" x="123.065439" xlink:href="#me1060cc7bc" y="466.5024"/>
      </g>
     </g>
    </g>
    <g id="xtick_9">
     <g id="line2d_9">
      <g>
       <use style="stroke:#000000;stroke-width:0.6;" x="130.331619" xlink:href="#me1060cc7bc" y="466.5024"/>
      </g>
     </g>
    </g>
    <g id="xtick_10">
     <g id="line2d_10">
      <g>
       <use style="stroke:#000000;stroke-width:0.6;" x="136.740844" xlink:href="#me1060cc7bc" y="466.5024"/>
      </g>
     </g>
    </g>
    <g id="xtick_11">
     <g id="line2d_11">
      <g>
       <use style="stroke:#000000;stroke-width:0.6;" x="180.192055" xlink:href="#me1060cc7bc" y="466.5024"/>
      </g>
     </g>
    </g>
    <g id="xtick_12">
     <g id="line2d_12">
      <g>
       <use style="stroke:#000000;stroke-width:0.6;" x="202.255649" xlink:href="#me1060cc7bc" y="466.5024"/>
      </g>
     </g>
    </g>
    <g id="xtick_13">
     <g id="line2d_13">
      <g>
       <use style="stroke:#000000;stroke-width:0.6;" x="217.910019" xlink:href="#me1060cc7bc" y="466.5024"/>
      </g>
     </g>
    </g>
    <g id="xtick_14">
     <g id="line2d_14">
      <g>
       <use style="stroke:#000000;stroke-width:0.6;" x="230.052491" xlink:href="#me1060cc7bc" y="466.5024"/>
      </g>
     </g>
    </g>
    <g id="xtick_15">
     <g id="line2d_15">
      <g>
       <use style="stroke:#000000;stroke-width:0.6;" x="239.973613" xlink:href="#me1060cc7bc" y="466.5024"/>
      </g>
     </g>
    </g>
    <g id="xtick_16">
     <g id="line2d_16">
      <g>
       <use style="stroke:#000000;stroke-width:0.6;" x="248.361802" xlink:href="#me1060cc7bc" y="466.5024"/>
      </g>
     </g>
    </g>
    <g id="xtick_17">
     <g id="line2d_17">
      <g>
       <use style="stroke:#000000;stroke-width:0.6;" x="255.627982" xlink:href="#me1060cc7bc" y="466.5024"/>
      </g>
     </g>
    </g>
    <g id="xtick_18">
     <g id="line2d_18">
      <g>
       <use style="stroke:#000000;stroke-width:0.6;" x="262.037207" xlink:href="#me1060cc7bc" y="466.5024"/>
      </g>
     </g>
    </g>
    <g id="xtick_19">
     <g id="line2d_19">
      <g>
       <use style="stroke:#000000;stroke-width:0.6;" x="305.488418" xlink:href="#me1060cc7bc" y="466.5024"/>
      </g>
     </g>
    </g>
    <g id="xtick_20">
     <g id="line2d_20">
      <g>
       <use style="stroke:#000000;stroke-width:0.6;" x="327.552013" xlink:href="#me1060cc7bc" y="466.5024"/>
      </g>
     </g>
    </g>
    <g id="xtick_21">
     <g id="line2d_21">
      <g>
       <use style="stroke:#000000;stroke-width:0.6;" x="343.206382" xlink:href="#me1060cc7bc" y="466.5024"/>
      </g>
     </g>
    </g>
    <g id="xtick_22">
     <g id="line2d_22">
      <g>
       <use style="stroke:#000000;stroke-width:0.6;" x="355.348854" xlink:href="#me1060cc7bc" y="466.5024"/>
      </g>
     </g>
    </g>
    <g id="xtick_23">
     <g id="line2d_23">
      <g>
       <use style="stroke:#000000;stroke-width:0.6;" x="365.269977" xlink:href="#me1060cc7bc" y="466.5024"/>
      </g>
     </g>
    </g>
    <g id="xtick_24">
     <g id="line2d_24">
      <g>
       <use style="stroke:#000000;stroke-width:0.6;" x="373.658166" xlink:href="#me1060cc7bc" y="466.5024"/>
      </g>
     </g>
    </g>
    <g id="xtick_25">
     <g id="line2d_25">
      <g>
       <use style="stroke:#000000;stroke-width:0.6;" x="380.924346" xlink:href="#me1060cc7bc" y="466.5024"/>
      </g>
     </g>
    </g>
    <g id="xtick_26">
     <g id="line2d_26">
      <g>
       <use style="stroke:#000000;stroke-width:0.6;" x="387.333571" xlink:href="#me1060cc7bc" y="466.5024"/>
      </g>
     </g>
    </g>
    <g id="xtick_27">
     <g id="line2d_27">
      <g>
       <use style="stroke:#000000;stroke-width:0.6;" x="430.784782" xlink:href="#me1060cc7bc" y="466.5024"/>
      </g>
     </g>
    </g>
    <g id="xtick_28">
     <g id="line2d_28">
      <g>
       <use style="stroke:#000000;stroke-width:0.6;" x="452.848376" xlink:href="#me1060cc7bc" y="466.5024"/>
      </g>
     </g>
    </g>
    <g id="xtick_29">
     <g id="line2d_29">
      <g>
       <use style="stroke:#000000;stroke-width:0.6;" x="468.502746" xlink:href="#me1060cc7bc" y="466.5024"/>
      </g>
     </g>
    </g>
    <g id="xtick_30">
     <g id="line2d_30">
      <g>
       <use style="stroke:#000000;stroke-width:0.6;" x="480.645218" xlink:href="#me1060cc7bc" y="466.5024"/>
      </g>
     </g>
    </g>
    <g id="xtick_31">
     <g id="line2d_31">
      <g>
       <use style="stroke:#000000;stroke-width:0.6;" x="490.56634" xlink:href="#me1060cc7bc" y="466.5024"/>
      </g>
     </g>
    </g>
    <g id="xtick_32">
     <g id="line2d_32">
      <g>
       <use style="stroke:#000000;stroke-width:0.6;" x="498.95453" xlink:href="#me1060cc7bc" y="466.5024"/>
      </g>
     </g>
    </g>
    <g id="xtick_33">
     <g id="line2d_33">
      <g>
       <use style="stroke:#000000;stroke-width:0.6;" x="506.22071" xlink:href="#me1060cc7bc" y="466.5024"/>
      </g>
     </g>
    </g>
    <g id="xtick_34">
     <g id="line2d_34">
      <g>
       <use style="stroke:#000000;stroke-width:0.6;" x="512.629935" xlink:href="#me1060cc7bc" y="466.5024"/>
      </g>
     </g>
    </g>
    <g id="xtick_35">
     <g id="line2d_35">
      <g>
       <use style="stroke:#000000;stroke-width:0.6;" x="556.081146" xlink:href="#me1060cc7bc" y="466.5024"/>
      </g>
     </g>
    </g>
    <g id="xtick_36">
     <g id="line2d_36">
      <g>
       <use style="stroke:#000000;stroke-width:0.6;" x="578.14474" xlink:href="#me1060cc7bc" y="466.5024"/>
      </g>
     </g>
    </g>
    <g id="xtick_37">
     <g id="line2d_37">
      <g>
       <use style="stroke:#000000;stroke-width:0.6;" x="593.799109" xlink:href="#me1060cc7bc" y="466.5024"/>
      </g>
     </g>
    </g>
    <g id="xtick_38">
     <g id="line2d_38">
      <g>
       <use style="stroke:#000000;stroke-width:0.6;" x="605.941582" xlink:href="#me1060cc7bc" y="466.5024"/>
      </g>
     </g>
    </g>
    <g id="xtick_39">
     <g id="line2d_39">
      <g>
       <use style="stroke:#000000;stroke-width:0.6;" x="615.862704" xlink:href="#me1060cc7bc" y="466.5024"/>
      </g>
     </g>
    </g>
    <g id="xtick_40">
     <g id="line2d_40">
      <g>
       <use style="stroke:#000000;stroke-width:0.6;" x="624.250893" xlink:href="#me1060cc7bc" y="466.5024"/>
      </g>
     </g>
    </g>
    <g id="xtick_41">
     <g id="line2d_41">
      <g>
       <use style="stroke:#000000;stroke-width:0.6;" x="631.517073" xlink:href="#me1060cc7bc" y="466.5024"/>
      </g>
     </g>
    </g>
    <g id="xtick_42">
     <g id="line2d_42">
      <g>
       <use style="stroke:#000000;stroke-width:0.6;" x="637.926298" xlink:href="#me1060cc7bc" y="466.5024"/>
      </g>
     </g>
    </g>
    <g id="xtick_43">
     <g id="line2d_43">
      <g>
       <use style="stroke:#000000;stroke-width:0.6;" x="681.377509" xlink:href="#me1060cc7bc" y="466.5024"/>
      </g>
     </g>
    </g>
    <g id="xtick_44">
     <g id="line2d_44">
      <g>
       <use style="stroke:#000000;stroke-width:0.6;" x="703.441104" xlink:href="#me1060cc7bc" y="466.5024"/>
      </g>
     </g>
    </g>
    <g id="xtick_45">
     <g id="line2d_45">
      <g>
       <use style="stroke:#000000;stroke-width:0.6;" x="719.095473" xlink:href="#me1060cc7bc" y="466.5024"/>
      </g>
     </g>
    </g>
    <g id="xtick_46">
     <g id="line2d_46">
      <g>
       <use style="stroke:#000000;stroke-width:0.6;" x="731.237945" xlink:href="#me1060cc7bc" y="466.5024"/>
      </g>
     </g>
    </g>
    <g id="xtick_47">
     <g id="line2d_47">
      <g>
       <use style="stroke:#000000;stroke-width:0.6;" x="741.159067" xlink:href="#me1060cc7bc" y="466.5024"/>
      </g>
     </g>
    </g>
    <g id="xtick_48">
     <g id="line2d_48">
      <g>
       <use style="stroke:#000000;stroke-width:0.6;" x="749.547257" xlink:href="#me1060cc7bc" y="466.5024"/>
      </g>
     </g>
    </g>
    <g id="xtick_49">
     <g id="line2d_49">
      <g>
       <use style="stroke:#000000;stroke-width:0.6;" x="756.813437" xlink:href="#me1060cc7bc" y="466.5024"/>
      </g>
     </g>
    </g>
    <g id="xtick_50">
     <g id="line2d_50">
      <g>
       <use style="stroke:#000000;stroke-width:0.6;" x="763.222662" xlink:href="#me1060cc7bc" y="466.5024"/>
      </g>
     </g>
    </g>
   </g>
   <g id="matplotlib.axis_2">
    <g id="ytick_1">
     <g id="line2d_51">
      <defs>
       <path d="M 0 0 
L -3.5 0 
" id="m239a6aa5b2" style="stroke:#000000;stroke-width:0.8;"/>
      </defs>
      <g>
       <use style="stroke:#000000;stroke-width:0.8;" x="111.15" xlink:href="#m239a6aa5b2" y="448.1568"/>
      </g>
     </g>
     <g id="text_7">
      <!-- 0.00 -->
      <g transform="translate(81.884375 451.956019)scale(0.1 -0.1)">
       <defs>
        <path d="M 10.6875 12.40625 
L 21 12.40625 
L 21 0 
L 10.6875 0 
z
" id="DejaVuSans-46"/>
       </defs>
       <use xlink:href="#DejaVuSans-48"/>
       <use x="63.623047" xlink:href="#DejaVuSans-46"/>
       <use x="95.410156" xlink:href="#DejaVuSans-48"/>
       <use x="159.033203" xlink:href="#DejaVuSans-48"/>
      </g>
     </g>
    </g>
    <g id="ytick_2">
     <g id="line2d_52">
      <g>
       <use style="stroke:#000000;stroke-width:0.8;" x="111.15" xlink:href="#m239a6aa5b2" y="399.840979"/>
      </g>
     </g>
     <g id="text_8">
      <!-- 0.02 -->
      <g transform="translate(81.884375 403.640198)scale(0.1 -0.1)">
       <defs>
        <path d="M 19.1875 8.296875 
L 53.609375 8.296875 
L 53.609375 0 
L 7.328125 0 
L 7.328125 8.296875 
Q 12.9375 14.109375 22.625 23.890625 
Q 32.328125 33.6875 34.8125 36.53125 
Q 39.546875 41.84375 41.421875 45.53125 
Q 43.3125 49.21875 43.3125 52.78125 
Q 43.3125 58.59375 39.234375 62.25 
Q 35.15625 65.921875 28.609375 65.921875 
Q 23.96875 65.921875 18.8125 64.3125 
Q 13.671875 62.703125 7.8125 59.421875 
L 7.8125 69.390625 
Q 13.765625 71.78125 18.9375 73 
Q 24.125 74.21875 28.421875 74.21875 
Q 39.75 74.21875 46.484375 68.546875 
Q 53.21875 62.890625 53.21875 53.421875 
Q 53.21875 48.921875 51.53125 44.890625 
Q 49.859375 40.875 45.40625 35.40625 
Q 44.1875 33.984375 37.640625 27.21875 
Q 31.109375 20.453125 19.1875 8.296875 
z
" id="DejaVuSans-50"/>
       </defs>
       <use xlink:href="#DejaVuSans-48"/>
       <use x="63.623047" xlink:href="#DejaVuSans-46"/>
       <use x="95.410156" xlink:href="#DejaVuSans-48"/>
       <use x="159.033203" xlink:href="#DejaVuSans-50"/>
      </g>
     </g>
    </g>
    <g id="ytick_3">
     <g id="line2d_53">
      <g>
       <use style="stroke:#000000;stroke-width:0.8;" x="111.15" xlink:href="#m239a6aa5b2" y="351.525159"/>
      </g>
     </g>
     <g id="text_9">
      <!-- 0.04 -->
      <g transform="translate(81.884375 355.324377)scale(0.1 -0.1)">
       <defs>
        <path d="M 37.796875 64.3125 
L 12.890625 25.390625 
L 37.796875 25.390625 
z
M 35.203125 72.90625 
L 47.609375 72.90625 
L 47.609375 25.390625 
L 58.015625 25.390625 
L 58.015625 17.1875 
L 47.609375 17.1875 
L 47.609375 0 
L 37.796875 0 
L 37.796875 17.1875 
L 4.890625 17.1875 
L 4.890625 26.703125 
z
" id="DejaVuSans-52"/>
       </defs>
       <use xlink:href="#DejaVuSans-48"/>
       <use x="63.623047" xlink:href="#DejaVuSans-46"/>
       <use x="95.410156" xlink:href="#DejaVuSans-48"/>
       <use x="159.033203" xlink:href="#DejaVuSans-52"/>
      </g>
     </g>
    </g>
    <g id="ytick_4">
     <g id="line2d_54">
      <g>
       <use style="stroke:#000000;stroke-width:0.8;" x="111.15" xlink:href="#m239a6aa5b2" y="303.209338"/>
      </g>
     </g>
     <g id="text_10">
      <!-- 0.06 -->
      <g transform="translate(81.884375 307.008557)scale(0.1 -0.1)">
       <use xlink:href="#DejaVuSans-48"/>
       <use x="63.623047" xlink:href="#DejaVuSans-46"/>
       <use x="95.410156" xlink:href="#DejaVuSans-48"/>
       <use x="159.033203" xlink:href="#DejaVuSans-54"/>
      </g>
     </g>
    </g>
    <g id="ytick_5">
     <g id="line2d_55">
      <g>
       <use style="stroke:#000000;stroke-width:0.8;" x="111.15" xlink:href="#m239a6aa5b2" y="254.893517"/>
      </g>
     </g>
     <g id="text_11">
      <!-- 0.08 -->
      <g transform="translate(81.884375 258.692736)scale(0.1 -0.1)">
       <use xlink:href="#DejaVuSans-48"/>
       <use x="63.623047" xlink:href="#DejaVuSans-46"/>
       <use x="95.410156" xlink:href="#DejaVuSans-48"/>
       <use x="159.033203" xlink:href="#DejaVuSans-56"/>
      </g>
     </g>
    </g>
    <g id="ytick_6">
     <g id="line2d_56">
      <g>
       <use style="stroke:#000000;stroke-width:0.8;" x="111.15" xlink:href="#m239a6aa5b2" y="206.577697"/>
      </g>
     </g>
     <g id="text_12">
      <!-- 0.10 -->
      <g transform="translate(81.884375 210.376915)scale(0.1 -0.1)">
       <use xlink:href="#DejaVuSans-48"/>
       <use x="63.623047" xlink:href="#DejaVuSans-46"/>
       <use x="95.410156" xlink:href="#DejaVuSans-49"/>
       <use x="159.033203" xlink:href="#DejaVuSans-48"/>
      </g>
     </g>
    </g>
    <g id="ytick_7">
     <g id="line2d_57">
      <g>
       <use style="stroke:#000000;stroke-width:0.8;" x="111.15" xlink:href="#m239a6aa5b2" y="158.261876"/>
      </g>
     </g>
     <g id="text_13">
      <!-- 0.12 -->
      <g transform="translate(81.884375 162.061095)scale(0.1 -0.1)">
       <use xlink:href="#DejaVuSans-48"/>
       <use x="63.623047" xlink:href="#DejaVuSans-46"/>
       <use x="95.410156" xlink:href="#DejaVuSans-49"/>
       <use x="159.033203" xlink:href="#DejaVuSans-50"/>
      </g>
     </g>
    </g>
    <g id="ytick_8">
     <g id="line2d_58">
      <g>
       <use style="stroke:#000000;stroke-width:0.8;" x="111.15" xlink:href="#m239a6aa5b2" y="109.946055"/>
      </g>
     </g>
     <g id="text_14">
      <!-- 0.14 -->
      <g transform="translate(81.884375 113.745274)scale(0.1 -0.1)">
       <use xlink:href="#DejaVuSans-48"/>
       <use x="63.623047" xlink:href="#DejaVuSans-46"/>
       <use x="95.410156" xlink:href="#DejaVuSans-49"/>
       <use x="159.033203" xlink:href="#DejaVuSans-52"/>
      </g>
     </g>
    </g>
   </g>
   <g id="line2d_59">
    <path clip-path="url(#p309f6da213)" d="M 142.474091 448.156797 
L 152.418247 448.156797 
L 162.362403 448.156797 
L 172.306558 448.156797 
L 182.250714 448.156796 
L 192.19487 448.156796 
L 202.139026 448.156795 
L 212.083182 448.156795 
L 222.027338 448.156794 
L 231.971494 448.156793 
L 241.915649 448.156791 
L 251.859805 448.15679 
L 261.803961 448.156788 
L 271.748117 448.156785 
L 281.692273 448.156781 
L 291.636429 448.156774 
L 301.580584 448.156764 
L 311.52474 448.156747 
L 321.468896 448.156717 
L 331.413052 448.156662 
L 341.357208 448.156553 
L 351.301364 448.156329 
L 361.245519 448.155836 
L 371.189675 448.154686 
L 381.133831 448.151792 
L 391.077987 448.143856 
L 401.022143 448.119825 
L 410.966299 448.039013 
L 420.910455 447.742012 
L 430.85461 446.609344 
L 440.798766 442.471959 
L 450.742922 429.308822 
L 460.687078 395.707282 
L 470.631234 331.351785 
L 480.57539 243.28907 
L 490.519545 160.055765 
L 500.463701 105.346251 
L 510.407857 86.066746 
L 520.352013 103.073789 
L 530.296169 158.121462 
L 540.240325 244.981135 
L 550.184481 334.703433 
L 560.128636 399.360419 
L 570.072792 432.025726 
L 580.016948 443.985894 
L 589.961104 447.263774 
L 599.90526 447.976125 
L 609.849416 448.114772 
L 619.793571 448.144139 
L 629.737727 448.151543 
L 639.681883 448.153394 
L 649.626039 448.155201 
L 659.570195 448.155827 
L 669.514351 448.155978 
L 679.458506 448.155933 
L 689.402662 448.155848 
L 699.346818 448.155105 
L 709.290974 448.156154 
L 719.23513 448.156125 
L 729.179286 448.156132 
L 739.123442 448.154175 
L 749.067597 448.156525 
L 759.011753 448.156465 
L 768.955909 448.156614 
" style="fill:none;stroke:#1f77b4;stroke-linecap:square;stroke-width:1.5;"/>
   </g>
   <g id="line2d_60">
    <path clip-path="url(#p309f6da213)" d="M 142.474091 448.156785 
L 152.418247 448.156784 
L 162.362403 448.156783 
L 172.306558 448.156781 
L 182.250714 448.156779 
L 192.19487 448.156777 
L 202.139026 448.156775 
L 212.083182 448.156771 
L 222.027338 448.156767 
L 231.971494 448.156762 
L 241.915649 448.156755 
L 251.859805 448.156746 
L 261.803961 448.156733 
L 271.748117 448.156716 
L 281.692273 448.15669 
L 291.636429 448.156654 
L 301.580584 448.156599 
L 311.52474 448.156514 
L 321.468896 448.156378 
L 331.413052 448.156152 
L 341.357208 448.155764 
L 351.301364 448.155068 
L 361.245519 448.153758 
L 371.189675 448.151155 
L 381.133831 448.145614 
L 391.077987 448.132644 
L 401.022143 448.098363 
L 410.966299 447.994084 
L 420.910455 447.638975 
L 430.85461 446.377122 
L 440.798766 442.105862 
L 450.742922 429.446981 
L 460.687078 398.745463 
L 470.631234 341.085469 
L 480.57539 260.702202 
L 490.519545 180.696734 
L 500.463701 123.220124 
L 510.407857 95.876112 
L 520.352013 100.527868 
L 530.296169 143.211089 
L 540.240325 223.602298 
L 550.184481 315.0249 
L 560.128636 386.869228 
L 570.072792 426.610274 
L 580.016948 442.616151 
L 589.961104 447.165372 
L 599.90526 447.998199 
L 609.849416 448.12499 
L 619.793571 448.146853 
L 629.737727 448.149853 
L 639.681883 448.153994 
L 649.626039 448.155469 
L 659.570195 448.155977 
L 669.514351 448.156095 
L 679.458506 448.156052 
L 689.402662 448.155982 
L 699.346818 448.155386 
L 709.290974 448.156221 
L 719.23513 448.156194 
L 729.179286 448.156204 
L 739.123442 448.154652 
L 749.067597 448.156548 
L 759.011753 448.156504 
L 768.955909 448.156624 
" style="fill:none;stroke:#ff7f0e;stroke-linecap:square;stroke-width:1.5;"/>
   </g>
   <g id="line2d_61">
    <path clip-path="url(#p309f6da213)" d="M 142.474091 448.1568 
L 152.418247 448.1568 
L 162.362403 448.1568 
L 172.306558 448.1568 
L 182.250714 448.1568 
L 192.19487 448.1568 
L 202.139026 448.1568 
L 212.083182 448.1568 
L 222.027338 448.1568 
L 231.971494 448.1568 
L 241.915649 448.1568 
L 251.859805 448.1568 
L 261.803961 448.1568 
L 271.748117 448.1568 
L 281.692273 448.156799 
L 291.636429 448.156799 
L 301.580584 448.156798 
L 311.52474 448.156797 
L 321.468896 448.156795 
L 331.413052 448.156791 
L 341.357208 448.156781 
L 351.301364 448.156756 
L 361.245519 448.156691 
L 371.189675 448.156505 
L 381.133831 448.155926 
L 391.077987 448.153977 
L 401.022143 448.146894 
L 410.966299 448.119241 
L 420.910455 448.005194 
L 430.85461 447.524536 
L 440.798766 445.571175 
L 450.742922 438.453563 
L 460.687078 416.87521 
L 470.631234 366.113482 
L 480.57539 279.892133 
L 490.519545 182.854143 
L 500.463701 116.834208 
L 510.407857 95.15925 
L 520.352013 100.741506 
L 530.296169 131.998358 
L 540.240325 203.026578 
L 550.184481 296.246119 
L 560.128636 375.111747 
L 570.072792 420.152644 
L 580.016948 439.706485 
L 589.961104 447.036003 
L 599.90526 447.991039 
L 609.849416 448.127242 
L 619.793571 448.147969 
L 629.737727 448.151925 
L 639.681883 448.154888 
L 649.626039 448.155867 
L 659.570195 448.156172 
L 669.514351 448.156221 
L 679.458506 448.156178 
L 689.402662 448.156148 
L 699.346818 448.155863 
L 709.290974 448.156159 
L 719.23513 448.156143 
L 729.179286 448.15616 
L 739.123442 448.155473 
L 749.067597 448.156527 
L 759.011753 448.156503 
L 768.955909 448.156606 
" style="fill:none;stroke:#2ca02c;stroke-linecap:square;stroke-width:1.5;"/>
   </g>
   <g id="line2d_62">
    <path clip-path="url(#p309f6da213)" d="M 142.474091 448.156797 
L 152.418247 448.156797 
L 162.362403 448.156796 
L 172.306558 448.156796 
L 182.250714 448.156795 
L 192.19487 448.156795 
L 202.139026 448.156794 
L 212.083182 448.156793 
L 222.027338 448.156792 
L 231.971494 448.15679 
L 241.915649 448.156788 
L 251.859805 448.156785 
L 261.803961 448.156781 
L 271.748117 448.156775 
L 281.692273 448.156765 
L 291.636429 448.156749 
L 301.580584 448.15672 
L 311.52474 448.156667 
L 321.468896 448.156564 
L 331.413052 448.156352 
L 341.357208 448.155889 
L 351.301364 448.154812 
L 361.245519 448.152116 
L 371.189675 448.14476 
L 381.133831 448.122634 
L 391.077987 448.048642 
L 401.022143 447.777332 
L 410.966299 446.738777 
L 420.910455 442.906584 
L 430.85461 430.511967 
L 440.798766 398.210634 
L 450.742922 334.928239 
L 460.687078 246.397592 
L 470.631234 160.949858 
L 480.57539 103.838031 
L 490.519545 82.842118 
L 500.463701 99.070826 
L 510.407857 154.558443 
L 520.352013 243.064065 
L 530.296169 334.74355 
L 540.240325 400.311308 
L 550.184481 432.819909 
L 560.128636 444.356668 
L 570.072792 447.381311 
L 580.016948 448.005042 
L 589.961104 448.121894 
L 599.90526 448.146256 
L 609.849416 448.152613 
L 619.793571 448.153878 
L 629.737727 448.15557 
L 639.681883 448.156133 
L 649.626039 448.156274 
L 659.570195 448.156239 
L 669.514351 448.156113 
L 679.458506 448.155962 
L 689.402662 448.155948 
L 699.346818 448.156119 
L 709.290974 448.156422 
L 719.23513 448.156438 
L 729.179286 448.156333 
L 739.123442 448.156126 
L 749.067597 448.156689 
L 759.011753 448.156491 
L 768.955909 448.156675 
" style="fill:none;stroke:#d62728;stroke-linecap:square;stroke-width:1.5;"/>
   </g>
   <g id="line2d_63">
    <path clip-path="url(#p309f6da213)" d="M 142.474091 448.156783 
L 152.418247 448.156781 
L 162.362403 448.156779 
L 172.306558 448.156777 
L 182.250714 448.156775 
L 192.19487 448.156772 
L 202.139026 448.156768 
L 212.083182 448.156762 
L 222.027338 448.156755 
L 231.971494 448.156746 
L 241.915649 448.156734 
L 251.859805 448.156717 
L 261.803961 448.156692 
L 271.748117 448.156657 
L 281.692273 448.156603 
L 291.636429 448.156521 
L 301.580584 448.156389 
L 311.52474 448.156172 
L 321.468896 448.155799 
L 331.413052 448.155133 
L 341.357208 448.153884 
L 351.301364 448.15141 
L 361.245519 448.146168 
L 371.189675 448.133999 
L 381.133831 448.102144 
L 391.077987 448.00607 
L 401.022143 447.680105 
L 410.966299 446.517425 
L 420.910455 442.541648 
L 430.85461 430.573948 
L 440.798766 400.996934 
L 450.742922 344.298538 
L 460.687078 263.64665 
L 470.631234 181.813845 
L 480.57539 122.055509 
L 490.519545 93.029608 
L 500.463701 96.725762 
L 510.407857 139.436294 
L 520.352013 221.317168 
L 530.296169 314.845496 
L 540.240325 387.881844 
L 550.184481 427.627891 
L 560.128636 443.149347 
L 570.072792 447.323298 
L 580.016948 448.028756 
L 589.961104 448.131118 
L 599.90526 448.148744 
L 609.849416 448.150543 
L 619.793571 448.154405 
L 629.737727 448.155779 
L 639.681883 448.156233 
L 649.626039 448.156341 
L 659.570195 448.156304 
L 669.514351 448.156189 
L 679.458506 448.156053 
L 689.402662 448.156041 
L 699.346818 448.156201 
L 709.290974 448.156452 
L 719.23513 448.156465 
L 729.179286 448.156375 
L 739.123442 448.156221 
L 749.067597 448.156679 
L 759.011753 448.156518 
L 768.955909 448.156649 
" style="fill:none;stroke:#9467bd;stroke-linecap:square;stroke-width:1.5;"/>
   </g>
   <g id="line2d_64">
    <path clip-path="url(#p309f6da213)" d="M 142.474091 448.1568 
L 152.418247 448.1568 
L 162.362403 448.1568 
L 172.306558 448.1568 
L 182.250714 448.1568 
L 192.19487 448.1568 
L 202.139026 448.1568 
L 212.083182 448.1568 
L 222.027338 448.1568 
L 231.971494 448.1568 
L 241.915649 448.1568 
L 251.859805 448.1568 
L 261.803961 448.156799 
L 271.748117 448.156799 
L 281.692273 448.156798 
L 291.636429 448.156797 
L 301.580584 448.156795 
L 311.52474 448.156791 
L 321.468896 448.156782 
L 331.413052 448.156759 
L 341.357208 448.156699 
L 351.301364 448.156528 
L 361.245519 448.155999 
L 371.189675 448.154224 
L 381.133831 448.147791 
L 391.077987 448.122738 
L 401.022143 448.019392 
L 410.966299 447.581805 
L 420.910455 445.786752 
L 430.85461 439.14949 
L 440.798766 418.642339 
L 450.742922 369.318494 
L 460.687078 283.610903 
L 470.631234 184.763086 
L 480.57539 115.820398 
L 490.519545 92.281336 
L 500.463701 96.949935 
L 510.407857 128.080297 
L 520.352013 200.356998 
L 530.296169 295.811272 
L 540.240325 376.114399 
L 550.184481 421.253149 
L 560.128636 440.485191 
L 570.072792 447.225385 
L 580.016948 448.027611 
L 589.961104 448.1336 
L 599.90526 448.149911 
L 609.849416 448.152556 
L 619.793571 448.155188 
L 629.737727 448.156064 
L 639.681883 448.156336 
L 649.626039 448.156377 
L 659.570195 448.156305 
L 669.514351 448.156167 
L 679.458506 448.156028 
L 689.402662 448.156021 
L 699.346818 448.156238 
L 709.290974 448.156422 
L 719.23513 448.156442 
L 729.179286 448.156338 
L 739.123442 448.156296 
L 749.067597 448.156654 
L 759.011753 448.156493 
L 768.955909 448.156599 
" style="fill:none;stroke:#8c564b;stroke-linecap:square;stroke-width:1.5;"/>
   </g>
   <g id="line2d_65">
    <path clip-path="url(#p309f6da213)" d="M 142.474091 448.156797 
L 152.418247 448.156796 
L 162.362403 448.156796 
L 172.306558 448.156795 
L 182.250714 448.156794 
L 192.19487 448.156794 
L 202.139026 448.156793 
L 212.083182 448.156791 
L 222.027338 448.15679 
L 231.971494 448.156788 
L 241.915649 448.156785 
L 251.859805 448.15678 
L 261.803961 448.156774 
L 271.748117 448.156763 
L 281.692273 448.156746 
L 291.636429 448.156715 
L 301.580584 448.156658 
L 311.52474 448.156546 
L 321.468896 448.156313 
L 331.413052 448.155801 
L 341.357208 448.154599 
L 351.301364 448.151561 
L 361.245519 448.143173 
L 371.189675 448.117587 
L 381.133831 448.030788 
L 391.077987 447.709258 
L 401.022143 446.475882 
L 410.966299 441.966417 
L 420.910455 427.680991 
L 430.85461 391.610347 
L 440.798766 323.691832 
L 450.742922 233.048676 
L 460.687078 149.795173 
L 470.631234 97.234744 
L 480.57539 81.2448 
L 490.519545 103.415902 
L 500.463701 165.351851 
L 510.407857 257.651743 
L 520.352013 347.619038 
L 530.296169 407.966496 
L 540.240325 436.003983 
L 550.184481 445.313796 
L 560.128636 447.600143 
L 570.072792 448.047251 
L 580.016948 448.130771 
L 589.961104 448.14849 
L 599.90526 448.150469 
L 609.849416 448.154354 
L 619.793571 448.155756 
L 629.737727 448.156229 
L 639.681883 448.156335 
L 649.626039 448.156283 
L 659.570195 448.156158 
L 669.514351 448.156006 
L 679.458506 448.155869 
L 689.402662 448.155843 
L 699.346818 448.156052 
L 709.290974 448.156588 
L 719.23513 448.156601 
L 729.179286 448.156547 
L 739.123442 448.156235 
L 749.067597 448.156678 
L 759.011753 448.1566 
L 768.955909 448.15646 
" style="fill:none;stroke:#e377c2;stroke-linecap:square;stroke-width:1.5;"/>
   </g>
   <g id="line2d_66">
    <path clip-path="url(#p309f6da213)" d="M 142.474091 448.156781 
L 152.418247 448.156779 
L 162.362403 448.156777 
L 172.306558 448.156774 
L 182.250714 448.156771 
L 192.19487 448.156767 
L 202.139026 448.156761 
L 212.083182 448.156754 
L 222.027338 448.156745 
L 231.971494 448.156732 
L 241.915649 448.156714 
L 251.859805 448.156688 
L 261.803961 448.156651 
L 271.748117 448.156595 
L 281.692273 448.156508 
L 291.636429 448.156368 
L 301.580584 448.156136 
L 311.52474 448.155736 
L 321.468896 448.155017 
L 331.413052 448.15366 
L 341.357208 448.150955 
L 351.301364 448.145164 
L 361.245519 448.131532 
L 371.189675 448.09521 
L 381.133831 447.983709 
L 391.077987 447.600795 
L 401.022143 446.233037 
L 410.966299 441.597549 
L 420.910455 427.91564 
L 430.85461 395.053554 
L 440.798766 334.184948 
L 450.742922 251.245572 
L 460.687078 170.701937 
L 470.631234 114.737334 
L 480.57539 89.870967 
L 490.519545 98.949137 
L 500.463701 148.528033 
L 510.407857 235.421995 
L 520.352013 328.629607 
L 530.296169 396.889912 
L 540.240325 431.790596 
L 550.184481 444.501526 
L 560.128636 447.593548 
L 570.072792 448.068632 
L 580.016948 448.137847 
L 589.961104 448.150464 
L 599.90526 448.151635 
L 609.849416 448.154796 
L 619.793571 448.155932 
L 629.737727 448.156312 
L 639.681883 448.156393 
L 649.626039 448.15634 
L 659.570195 448.156226 
L 669.514351 448.156089 
L 679.458506 448.155967 
L 689.402662 448.155944 
L 699.346818 448.156133 
L 709.290974 448.156591 
L 719.23513 448.1566 
L 729.179286 448.156557 
L 739.123442 448.1563 
L 749.067597 448.156641 
L 759.011753 448.156614 
L 768.955909 448.15618 
" style="fill:none;stroke:#7f7f7f;stroke-linecap:square;stroke-width:1.5;"/>
   </g>
   <g id="line2d_67">
    <path clip-path="url(#p309f6da213)" d="M 142.474091 448.1568 
L 152.418247 448.1568 
L 162.362403 448.1568 
L 172.306558 448.1568 
L 182.250714 448.1568 
L 192.19487 448.1568 
L 202.139026 448.1568 
L 212.083182 448.1568 
L 222.027338 448.1568 
L 231.971494 448.1568 
L 241.915649 448.1568 
L 251.859805 448.156799 
L 261.803961 448.156799 
L 271.748117 448.156798 
L 281.692273 448.156797 
L 291.636429 448.156795 
L 301.580584 448.15679 
L 311.52474 448.15678 
L 321.468896 448.156754 
L 331.413052 448.156687 
L 341.357208 448.156491 
L 351.301364 448.155879 
L 361.245519 448.153806 
L 371.189675 448.146216 
L 381.133831 448.116371 
L 391.077987 447.992334 
L 401.022143 447.466066 
L 410.966299 445.321054 
L 420.910455 437.518315 
L 430.85461 414.046939 
L 440.798766 359.607702 
L 450.742922 269.377662 
L 460.687078 171.575776 
L 470.631234 108.45217 
L 480.57539 89.938046 
L 490.519545 97.971647 
L 500.463701 134.925193 
L 510.407857 213.777935 
L 520.352013 310.571334 
L 530.296169 386.175078 
L 540.240325 426.116242 
L 550.184481 442.832199 
L 560.128636 447.536781 
L 570.072792 448.076145 
L 580.016948 448.139886 
L 589.961104 448.151411 
L 599.90526 448.153365 
L 609.849416 448.155461 
L 619.793571 448.156164 
L 629.737727 448.156378 
L 639.681883 448.156398 
L 649.626039 448.156324 
L 659.570195 448.156192 
L 669.514351 448.156036 
L 679.458506 448.155911 
L 689.402662 448.155887 
L 699.346818 448.156107 
L 709.290974 448.156568 
L 719.23513 448.15658 
L 729.179286 448.156539 
L 739.123442 448.156278 
L 749.067597 448.156575 
L 759.011753 448.156597 
L 768.955909 448.156332 
" style="fill:none;stroke:#bcbd22;stroke-linecap:square;stroke-width:1.5;"/>
   </g>
   <g id="patch_3">
    <path d="M 111.15 466.5024 
L 111.15 62.8992 
" style="fill:none;stroke:#000000;stroke-linecap:square;stroke-linejoin:miter;stroke-width:0.8;"/>
   </g>
   <g id="patch_4">
    <path d="M 800.28 466.5024 
L 800.28 62.8992 
" style="fill:none;stroke:#000000;stroke-linecap:square;stroke-linejoin:miter;stroke-width:0.8;"/>
   </g>
   <g id="patch_5">
    <path d="M 111.15 466.5024 
L 800.28 466.5024 
" style="fill:none;stroke:#000000;stroke-linecap:square;stroke-linejoin:miter;stroke-width:0.8;"/>
   </g>
   <g id="patch_6">
    <path d="M 111.15 62.8992 
L 800.28 62.8992 
" style="fill:none;stroke:#000000;stroke-linecap:square;stroke-linejoin:miter;stroke-width:0.8;"/>
   </g>
   <g id="legend_1">
    <g id="patch_7">
     <path d="M 617.533125 205.50545 
L 793.28 205.50545 
Q 795.28 205.50545 795.28 203.50545 
L 795.28 69.8992 
Q 795.28 67.8992 793.28 67.8992 
L 617.533125 67.8992 
Q 615.533125 67.8992 615.533125 69.8992 
L 615.533125 203.50545 
Q 615.533125 205.50545 617.533125 205.50545 
z
" style="fill:#ffffff;opacity:0.8;stroke:#cccccc;stroke-linejoin:miter;"/>
    </g>
    <g id="line2d_68">
     <path d="M 619.533125 75.997637 
L 639.533125 75.997637 
" style="fill:none;stroke:#1f77b4;stroke-linecap:square;stroke-width:1.5;"/>
    </g>
    <g id="line2d_69"/>
    <g id="text_15">
     <!-- SYNTH_EF_10_matern12.jld2 -->
     <g transform="translate(647.533125 79.497637)scale(0.1 -0.1)">
      <defs>
       <path d="M 53.515625 70.515625 
L 53.515625 60.890625 
Q 47.90625 63.578125 42.921875 64.890625 
Q 37.9375 66.21875 33.296875 66.21875 
Q 25.25 66.21875 20.875 63.09375 
Q 16.5 59.96875 16.5 54.203125 
Q 16.5 49.359375 19.40625 46.890625 
Q 22.3125 44.4375 30.421875 42.921875 
L 36.375 41.703125 
Q 47.40625 39.59375 52.65625 34.296875 
Q 57.90625 29 57.90625 20.125 
Q 57.90625 9.515625 50.796875 4.046875 
Q 43.703125 -1.421875 29.984375 -1.421875 
Q 24.8125 -1.421875 18.96875 -0.25 
Q 13.140625 0.921875 6.890625 3.21875 
L 6.890625 13.375 
Q 12.890625 10.015625 18.65625 8.296875 
Q 24.421875 6.59375 29.984375 6.59375 
Q 38.421875 6.59375 43.015625 9.90625 
Q 47.609375 13.234375 47.609375 19.390625 
Q 47.609375 24.75 44.3125 27.78125 
Q 41.015625 30.8125 33.5 32.328125 
L 27.484375 33.5 
Q 16.453125 35.6875 11.515625 40.375 
Q 6.59375 45.0625 6.59375 53.421875 
Q 6.59375 63.09375 13.40625 68.65625 
Q 20.21875 74.21875 32.171875 74.21875 
Q 37.3125 74.21875 42.625 73.28125 
Q 47.953125 72.359375 53.515625 70.515625 
z
" id="DejaVuSans-83"/>
       <path d="M -0.203125 72.90625 
L 10.40625 72.90625 
L 30.609375 42.921875 
L 50.6875 72.90625 
L 61.28125 72.90625 
L 35.5 34.71875 
L 35.5 0 
L 25.59375 0 
L 25.59375 34.71875 
z
" id="DejaVuSans-89"/>
       <path d="M 9.8125 72.90625 
L 23.09375 72.90625 
L 55.421875 11.921875 
L 55.421875 72.90625 
L 64.984375 72.90625 
L 64.984375 0 
L 51.703125 0 
L 19.390625 60.984375 
L 19.390625 0 
L 9.8125 0 
z
" id="DejaVuSans-78"/>
       <path d="M -0.296875 72.90625 
L 61.375 72.90625 
L 61.375 64.59375 
L 35.5 64.59375 
L 35.5 0 
L 25.59375 0 
L 25.59375 64.59375 
L -0.296875 64.59375 
z
" id="DejaVuSans-84"/>
       <path d="M 9.8125 72.90625 
L 19.671875 72.90625 
L 19.671875 43.015625 
L 55.515625 43.015625 
L 55.515625 72.90625 
L 65.375 72.90625 
L 65.375 0 
L 55.515625 0 
L 55.515625 34.71875 
L 19.671875 34.71875 
L 19.671875 0 
L 9.8125 0 
z
" id="DejaVuSans-72"/>
       <path d="M 50.984375 -16.609375 
L 50.984375 -23.578125 
L -0.984375 -23.578125 
L -0.984375 -16.609375 
z
" id="DejaVuSans-95"/>
       <path d="M 9.8125 72.90625 
L 55.90625 72.90625 
L 55.90625 64.59375 
L 19.671875 64.59375 
L 19.671875 43.015625 
L 54.390625 43.015625 
L 54.390625 34.71875 
L 19.671875 34.71875 
L 19.671875 8.296875 
L 56.78125 8.296875 
L 56.78125 0 
L 9.8125 0 
z
" id="DejaVuSans-69"/>
       <path d="M 9.8125 72.90625 
L 51.703125 72.90625 
L 51.703125 64.59375 
L 19.671875 64.59375 
L 19.671875 43.109375 
L 48.578125 43.109375 
L 48.578125 34.8125 
L 19.671875 34.8125 
L 19.671875 0 
L 9.8125 0 
z
" id="DejaVuSans-70"/>
       <path d="M 52 44.1875 
Q 55.375 50.25 60.0625 53.125 
Q 64.75 56 71.09375 56 
Q 79.640625 56 84.28125 50.015625 
Q 88.921875 44.046875 88.921875 33.015625 
L 88.921875 0 
L 79.890625 0 
L 79.890625 32.71875 
Q 79.890625 40.578125 77.09375 44.375 
Q 74.3125 48.1875 68.609375 48.1875 
Q 61.625 48.1875 57.5625 43.546875 
Q 53.515625 38.921875 53.515625 30.90625 
L 53.515625 0 
L 44.484375 0 
L 44.484375 32.71875 
Q 44.484375 40.625 41.703125 44.40625 
Q 38.921875 48.1875 33.109375 48.1875 
Q 26.21875 48.1875 22.15625 43.53125 
Q 18.109375 38.875 18.109375 30.90625 
L 18.109375 0 
L 9.078125 0 
L 9.078125 54.6875 
L 18.109375 54.6875 
L 18.109375 46.1875 
Q 21.1875 51.21875 25.484375 53.609375 
Q 29.78125 56 35.6875 56 
Q 41.65625 56 45.828125 52.96875 
Q 50 49.953125 52 44.1875 
z
" id="DejaVuSans-109"/>
       <path d="M 34.28125 27.484375 
Q 23.390625 27.484375 19.1875 25 
Q 14.984375 22.515625 14.984375 16.5 
Q 14.984375 11.71875 18.140625 8.90625 
Q 21.296875 6.109375 26.703125 6.109375 
Q 34.1875 6.109375 38.703125 11.40625 
Q 43.21875 16.703125 43.21875 25.484375 
L 43.21875 27.484375 
z
M 52.203125 31.203125 
L 52.203125 0 
L 43.21875 0 
L 43.21875 8.296875 
Q 40.140625 3.328125 35.546875 0.953125 
Q 30.953125 -1.421875 24.3125 -1.421875 
Q 15.921875 -1.421875 10.953125 3.296875 
Q 6 8.015625 6 15.921875 
Q 6 25.140625 12.171875 29.828125 
Q 18.359375 34.515625 30.609375 34.515625 
L 43.21875 34.515625 
L 43.21875 35.40625 
Q 43.21875 41.609375 39.140625 45 
Q 35.0625 48.390625 27.6875 48.390625 
Q 23 48.390625 18.546875 47.265625 
Q 14.109375 46.140625 10.015625 43.890625 
L 10.015625 52.203125 
Q 14.9375 54.109375 19.578125 55.046875 
Q 24.21875 56 28.609375 56 
Q 40.484375 56 46.34375 49.84375 
Q 52.203125 43.703125 52.203125 31.203125 
z
" id="DejaVuSans-97"/>
       <path d="M 18.3125 70.21875 
L 18.3125 54.6875 
L 36.8125 54.6875 
L 36.8125 47.703125 
L 18.3125 47.703125 
L 18.3125 18.015625 
Q 18.3125 11.328125 20.140625 9.421875 
Q 21.96875 7.515625 27.59375 7.515625 
L 36.8125 7.515625 
L 36.8125 0 
L 27.59375 0 
Q 17.1875 0 13.234375 3.875 
Q 9.28125 7.765625 9.28125 18.015625 
L 9.28125 47.703125 
L 2.6875 47.703125 
L 2.6875 54.6875 
L 9.28125 54.6875 
L 9.28125 70.21875 
z
" id="DejaVuSans-116"/>
       <path d="M 56.203125 29.59375 
L 56.203125 25.203125 
L 14.890625 25.203125 
Q 15.484375 15.921875 20.484375 11.0625 
Q 25.484375 6.203125 34.421875 6.203125 
Q 39.59375 6.203125 44.453125 7.46875 
Q 49.3125 8.734375 54.109375 11.28125 
L 54.109375 2.78125 
Q 49.265625 0.734375 44.1875 -0.34375 
Q 39.109375 -1.421875 33.890625 -1.421875 
Q 20.796875 -1.421875 13.15625 6.1875 
Q 5.515625 13.8125 5.515625 26.8125 
Q 5.515625 40.234375 12.765625 48.109375 
Q 20.015625 56 32.328125 56 
Q 43.359375 56 49.78125 48.890625 
Q 56.203125 41.796875 56.203125 29.59375 
z
M 47.21875 32.234375 
Q 47.125 39.59375 43.09375 43.984375 
Q 39.0625 48.390625 32.421875 48.390625 
Q 24.90625 48.390625 20.390625 44.140625 
Q 15.875 39.890625 15.1875 32.171875 
z
" id="DejaVuSans-101"/>
       <path d="M 41.109375 46.296875 
Q 39.59375 47.171875 37.8125 47.578125 
Q 36.03125 48 33.890625 48 
Q 26.265625 48 22.1875 43.046875 
Q 18.109375 38.09375 18.109375 28.8125 
L 18.109375 0 
L 9.078125 0 
L 9.078125 54.6875 
L 18.109375 54.6875 
L 18.109375 46.1875 
Q 20.953125 51.171875 25.484375 53.578125 
Q 30.03125 56 36.53125 56 
Q 37.453125 56 38.578125 55.875 
Q 39.703125 55.765625 41.0625 55.515625 
z
" id="DejaVuSans-114"/>
       <path d="M 54.890625 33.015625 
L 54.890625 0 
L 45.90625 0 
L 45.90625 32.71875 
Q 45.90625 40.484375 42.875 44.328125 
Q 39.84375 48.1875 33.796875 48.1875 
Q 26.515625 48.1875 22.3125 43.546875 
Q 18.109375 38.921875 18.109375 30.90625 
L 18.109375 0 
L 9.078125 0 
L 9.078125 54.6875 
L 18.109375 54.6875 
L 18.109375 46.1875 
Q 21.34375 51.125 25.703125 53.5625 
Q 30.078125 56 35.796875 56 
Q 45.21875 56 50.046875 50.171875 
Q 54.890625 44.34375 54.890625 33.015625 
z
" id="DejaVuSans-110"/>
       <path d="M 9.421875 54.6875 
L 18.40625 54.6875 
L 18.40625 -0.984375 
Q 18.40625 -11.421875 14.421875 -16.109375 
Q 10.453125 -20.796875 1.609375 -20.796875 
L -1.8125 -20.796875 
L -1.8125 -13.1875 
L 0.59375 -13.1875 
Q 5.71875 -13.1875 7.5625 -10.8125 
Q 9.421875 -8.453125 9.421875 -0.984375 
z
M 9.421875 75.984375 
L 18.40625 75.984375 
L 18.40625 64.59375 
L 9.421875 64.59375 
z
" id="DejaVuSans-106"/>
       <path d="M 9.421875 75.984375 
L 18.40625 75.984375 
L 18.40625 0 
L 9.421875 0 
z
" id="DejaVuSans-108"/>
       <path d="M 45.40625 46.390625 
L 45.40625 75.984375 
L 54.390625 75.984375 
L 54.390625 0 
L 45.40625 0 
L 45.40625 8.203125 
Q 42.578125 3.328125 38.25 0.953125 
Q 33.9375 -1.421875 27.875 -1.421875 
Q 17.96875 -1.421875 11.734375 6.484375 
Q 5.515625 14.40625 5.515625 27.296875 
Q 5.515625 40.1875 11.734375 48.09375 
Q 17.96875 56 27.875 56 
Q 33.9375 56 38.25 53.625 
Q 42.578125 51.265625 45.40625 46.390625 
z
M 14.796875 27.296875 
Q 14.796875 17.390625 18.875 11.75 
Q 22.953125 6.109375 30.078125 6.109375 
Q 37.203125 6.109375 41.296875 11.75 
Q 45.40625 17.390625 45.40625 27.296875 
Q 45.40625 37.203125 41.296875 42.84375 
Q 37.203125 48.484375 30.078125 48.484375 
Q 22.953125 48.484375 18.875 42.84375 
Q 14.796875 37.203125 14.796875 27.296875 
z
" id="DejaVuSans-100"/>
      </defs>
      <use xlink:href="#DejaVuSans-83"/>
      <use x="63.476562" xlink:href="#DejaVuSans-89"/>
      <use x="124.560547" xlink:href="#DejaVuSans-78"/>
      <use x="199.365234" xlink:href="#DejaVuSans-84"/>
      <use x="260.449219" xlink:href="#DejaVuSans-72"/>
      <use x="335.644531" xlink:href="#DejaVuSans-95"/>
      <use x="385.644531" xlink:href="#DejaVuSans-69"/>
      <use x="448.828125" xlink:href="#DejaVuSans-70"/>
      <use x="506.347656" xlink:href="#DejaVuSans-95"/>
      <use x="556.347656" xlink:href="#DejaVuSans-49"/>
      <use x="619.970703" xlink:href="#DejaVuSans-48"/>
      <use x="683.59375" xlink:href="#DejaVuSans-95"/>
      <use x="733.59375" xlink:href="#DejaVuSans-109"/>
      <use x="831.005859" xlink:href="#DejaVuSans-97"/>
      <use x="892.285156" xlink:href="#DejaVuSans-116"/>
      <use x="931.494141" xlink:href="#DejaVuSans-101"/>
      <use x="993.017578" xlink:href="#DejaVuSans-114"/>
      <use x="1032.380859" xlink:href="#DejaVuSans-110"/>
      <use x="1095.759766" xlink:href="#DejaVuSans-49"/>
      <use x="1159.382812" xlink:href="#DejaVuSans-50"/>
      <use x="1223.005859" xlink:href="#DejaVuSans-46"/>
      <use x="1254.792969" xlink:href="#DejaVuSans-106"/>
      <use x="1282.576172" xlink:href="#DejaVuSans-108"/>
      <use x="1310.359375" xlink:href="#DejaVuSans-100"/>
      <use x="1373.835938" xlink:href="#DejaVuSans-50"/>
     </g>
    </g>
    <g id="line2d_70">
     <path d="M 619.533125 90.953888 
L 639.533125 90.953888 
" style="fill:none;stroke:#ff7f0e;stroke-linecap:square;stroke-width:1.5;"/>
    </g>
    <g id="line2d_71"/>
    <g id="text_16">
     <!-- SYNTH_EF_10_matern32.jld2 -->
     <g transform="translate(647.533125 94.453888)scale(0.1 -0.1)">
      <defs>
       <path d="M 40.578125 39.3125 
Q 47.65625 37.796875 51.625 33 
Q 55.609375 28.21875 55.609375 21.1875 
Q 55.609375 10.40625 48.1875 4.484375 
Q 40.765625 -1.421875 27.09375 -1.421875 
Q 22.515625 -1.421875 17.65625 -0.515625 
Q 12.796875 0.390625 7.625 2.203125 
L 7.625 11.71875 
Q 11.71875 9.328125 16.59375 8.109375 
Q 21.484375 6.890625 26.8125 6.890625 
Q 36.078125 6.890625 40.9375 10.546875 
Q 45.796875 14.203125 45.796875 21.1875 
Q 45.796875 27.640625 41.28125 31.265625 
Q 36.765625 34.90625 28.71875 34.90625 
L 20.21875 34.90625 
L 20.21875 43.015625 
L 29.109375 43.015625 
Q 36.375 43.015625 40.234375 45.921875 
Q 44.09375 48.828125 44.09375 54.296875 
Q 44.09375 59.90625 40.109375 62.90625 
Q 36.140625 65.921875 28.71875 65.921875 
Q 24.65625 65.921875 20.015625 65.03125 
Q 15.375 64.15625 9.8125 62.3125 
L 9.8125 71.09375 
Q 15.4375 72.65625 20.34375 73.4375 
Q 25.25 74.21875 29.59375 74.21875 
Q 40.828125 74.21875 47.359375 69.109375 
Q 53.90625 64.015625 53.90625 55.328125 
Q 53.90625 49.265625 50.4375 45.09375 
Q 46.96875 40.921875 40.578125 39.3125 
z
" id="DejaVuSans-51"/>
      </defs>
      <use xlink:href="#DejaVuSans-83"/>
      <use x="63.476562" xlink:href="#DejaVuSans-89"/>
      <use x="124.560547" xlink:href="#DejaVuSans-78"/>
      <use x="199.365234" xlink:href="#DejaVuSans-84"/>
      <use x="260.449219" xlink:href="#DejaVuSans-72"/>
      <use x="335.644531" xlink:href="#DejaVuSans-95"/>
      <use x="385.644531" xlink:href="#DejaVuSans-69"/>
      <use x="448.828125" xlink:href="#DejaVuSans-70"/>
      <use x="506.347656" xlink:href="#DejaVuSans-95"/>
      <use x="556.347656" xlink:href="#DejaVuSans-49"/>
      <use x="619.970703" xlink:href="#DejaVuSans-48"/>
      <use x="683.59375" xlink:href="#DejaVuSans-95"/>
      <use x="733.59375" xlink:href="#DejaVuSans-109"/>
      <use x="831.005859" xlink:href="#DejaVuSans-97"/>
      <use x="892.285156" xlink:href="#DejaVuSans-116"/>
      <use x="931.494141" xlink:href="#DejaVuSans-101"/>
      <use x="993.017578" xlink:href="#DejaVuSans-114"/>
      <use x="1032.380859" xlink:href="#DejaVuSans-110"/>
      <use x="1095.759766" xlink:href="#DejaVuSans-51"/>
      <use x="1159.382812" xlink:href="#DejaVuSans-50"/>
      <use x="1223.005859" xlink:href="#DejaVuSans-46"/>
      <use x="1254.792969" xlink:href="#DejaVuSans-106"/>
      <use x="1282.576172" xlink:href="#DejaVuSans-108"/>
      <use x="1310.359375" xlink:href="#DejaVuSans-100"/>
      <use x="1373.835938" xlink:href="#DejaVuSans-50"/>
     </g>
    </g>
    <g id="line2d_72">
     <path d="M 619.533125 105.910138 
L 639.533125 105.910138 
" style="fill:none;stroke:#2ca02c;stroke-linecap:square;stroke-width:1.5;"/>
    </g>
    <g id="line2d_73"/>
    <g id="text_17">
     <!-- SYNTH_EF_10_rbf.jld2 -->
     <g transform="translate(647.533125 109.410138)scale(0.1 -0.1)">
      <defs>
       <path d="M 48.6875 27.296875 
Q 48.6875 37.203125 44.609375 42.84375 
Q 40.53125 48.484375 33.40625 48.484375 
Q 26.265625 48.484375 22.1875 42.84375 
Q 18.109375 37.203125 18.109375 27.296875 
Q 18.109375 17.390625 22.1875 11.75 
Q 26.265625 6.109375 33.40625 6.109375 
Q 40.53125 6.109375 44.609375 11.75 
Q 48.6875 17.390625 48.6875 27.296875 
z
M 18.109375 46.390625 
Q 20.953125 51.265625 25.265625 53.625 
Q 29.59375 56 35.59375 56 
Q 45.5625 56 51.78125 48.09375 
Q 58.015625 40.1875 58.015625 27.296875 
Q 58.015625 14.40625 51.78125 6.484375 
Q 45.5625 -1.421875 35.59375 -1.421875 
Q 29.59375 -1.421875 25.265625 0.953125 
Q 20.953125 3.328125 18.109375 8.203125 
L 18.109375 0 
L 9.078125 0 
L 9.078125 75.984375 
L 18.109375 75.984375 
z
" id="DejaVuSans-98"/>
       <path d="M 37.109375 75.984375 
L 37.109375 68.5 
L 28.515625 68.5 
Q 23.6875 68.5 21.796875 66.546875 
Q 19.921875 64.59375 19.921875 59.515625 
L 19.921875 54.6875 
L 34.71875 54.6875 
L 34.71875 47.703125 
L 19.921875 47.703125 
L 19.921875 0 
L 10.890625 0 
L 10.890625 47.703125 
L 2.296875 47.703125 
L 2.296875 54.6875 
L 10.890625 54.6875 
L 10.890625 58.5 
Q 10.890625 67.625 15.140625 71.796875 
Q 19.390625 75.984375 28.609375 75.984375 
z
" id="DejaVuSans-102"/>
      </defs>
      <use xlink:href="#DejaVuSans-83"/>
      <use x="63.476562" xlink:href="#DejaVuSans-89"/>
      <use x="124.560547" xlink:href="#DejaVuSans-78"/>
      <use x="199.365234" xlink:href="#DejaVuSans-84"/>
      <use x="260.449219" xlink:href="#DejaVuSans-72"/>
      <use x="335.644531" xlink:href="#DejaVuSans-95"/>
      <use x="385.644531" xlink:href="#DejaVuSans-69"/>
      <use x="448.828125" xlink:href="#DejaVuSans-70"/>
      <use x="506.347656" xlink:href="#DejaVuSans-95"/>
      <use x="556.347656" xlink:href="#DejaVuSans-49"/>
      <use x="619.970703" xlink:href="#DejaVuSans-48"/>
      <use x="683.59375" xlink:href="#DejaVuSans-95"/>
      <use x="733.59375" xlink:href="#DejaVuSans-114"/>
      <use x="774.707031" xlink:href="#DejaVuSans-98"/>
      <use x="838.183594" xlink:href="#DejaVuSans-102"/>
      <use x="866.138672" xlink:href="#DejaVuSans-46"/>
      <use x="897.925781" xlink:href="#DejaVuSans-106"/>
      <use x="925.708984" xlink:href="#DejaVuSans-108"/>
      <use x="953.492188" xlink:href="#DejaVuSans-100"/>
      <use x="1016.96875" xlink:href="#DejaVuSans-50"/>
     </g>
    </g>
    <g id="line2d_74">
     <path d="M 619.533125 120.866387 
L 639.533125 120.866387 
" style="fill:none;stroke:#d62728;stroke-linecap:square;stroke-width:1.5;"/>
    </g>
    <g id="line2d_75"/>
    <g id="text_18">
     <!-- SYNTH_EF_20_matern12.jld2 -->
     <g transform="translate(647.533125 124.366387)scale(0.1 -0.1)">
      <use xlink:href="#DejaVuSans-83"/>
      <use x="63.476562" xlink:href="#DejaVuSans-89"/>
      <use x="124.560547" xlink:href="#DejaVuSans-78"/>
      <use x="199.365234" xlink:href="#DejaVuSans-84"/>
      <use x="260.449219" xlink:href="#DejaVuSans-72"/>
      <use x="335.644531" xlink:href="#DejaVuSans-95"/>
      <use x="385.644531" xlink:href="#DejaVuSans-69"/>
      <use x="448.828125" xlink:href="#DejaVuSans-70"/>
      <use x="506.347656" xlink:href="#DejaVuSans-95"/>
      <use x="556.347656" xlink:href="#DejaVuSans-50"/>
      <use x="619.970703" xlink:href="#DejaVuSans-48"/>
      <use x="683.59375" xlink:href="#DejaVuSans-95"/>
      <use x="733.59375" xlink:href="#DejaVuSans-109"/>
      <use x="831.005859" xlink:href="#DejaVuSans-97"/>
      <use x="892.285156" xlink:href="#DejaVuSans-116"/>
      <use x="931.494141" xlink:href="#DejaVuSans-101"/>
      <use x="993.017578" xlink:href="#DejaVuSans-114"/>
      <use x="1032.380859" xlink:href="#DejaVuSans-110"/>
      <use x="1095.759766" xlink:href="#DejaVuSans-49"/>
      <use x="1159.382812" xlink:href="#DejaVuSans-50"/>
      <use x="1223.005859" xlink:href="#DejaVuSans-46"/>
      <use x="1254.792969" xlink:href="#DejaVuSans-106"/>
      <use x="1282.576172" xlink:href="#DejaVuSans-108"/>
      <use x="1310.359375" xlink:href="#DejaVuSans-100"/>
      <use x="1373.835938" xlink:href="#DejaVuSans-50"/>
     </g>
    </g>
    <g id="line2d_76">
     <path d="M 619.533125 135.822637 
L 639.533125 135.822637 
" style="fill:none;stroke:#9467bd;stroke-linecap:square;stroke-width:1.5;"/>
    </g>
    <g id="line2d_77"/>
    <g id="text_19">
     <!-- SYNTH_EF_20_matern32.jld2 -->
     <g transform="translate(647.533125 139.322637)scale(0.1 -0.1)">
      <use xlink:href="#DejaVuSans-83"/>
      <use x="63.476562" xlink:href="#DejaVuSans-89"/>
      <use x="124.560547" xlink:href="#DejaVuSans-78"/>
      <use x="199.365234" xlink:href="#DejaVuSans-84"/>
      <use x="260.449219" xlink:href="#DejaVuSans-72"/>
      <use x="335.644531" xlink:href="#DejaVuSans-95"/>
      <use x="385.644531" xlink:href="#DejaVuSans-69"/>
      <use x="448.828125" xlink:href="#DejaVuSans-70"/>
      <use x="506.347656" xlink:href="#DejaVuSans-95"/>
      <use x="556.347656" xlink:href="#DejaVuSans-50"/>
      <use x="619.970703" xlink:href="#DejaVuSans-48"/>
      <use x="683.59375" xlink:href="#DejaVuSans-95"/>
      <use x="733.59375" xlink:href="#DejaVuSans-109"/>
      <use x="831.005859" xlink:href="#DejaVuSans-97"/>
      <use x="892.285156" xlink:href="#DejaVuSans-116"/>
      <use x="931.494141" xlink:href="#DejaVuSans-101"/>
      <use x="993.017578" xlink:href="#DejaVuSans-114"/>
      <use x="1032.380859" xlink:href="#DejaVuSans-110"/>
      <use x="1095.759766" xlink:href="#DejaVuSans-51"/>
      <use x="1159.382812" xlink:href="#DejaVuSans-50"/>
      <use x="1223.005859" xlink:href="#DejaVuSans-46"/>
      <use x="1254.792969" xlink:href="#DejaVuSans-106"/>
      <use x="1282.576172" xlink:href="#DejaVuSans-108"/>
      <use x="1310.359375" xlink:href="#DejaVuSans-100"/>
      <use x="1373.835938" xlink:href="#DejaVuSans-50"/>
     </g>
    </g>
    <g id="line2d_78">
     <path d="M 619.533125 150.778887 
L 639.533125 150.778887 
" style="fill:none;stroke:#8c564b;stroke-linecap:square;stroke-width:1.5;"/>
    </g>
    <g id="line2d_79"/>
    <g id="text_20">
     <!-- SYNTH_EF_20_rbf.jld2 -->
     <g transform="translate(647.533125 154.278887)scale(0.1 -0.1)">
      <use xlink:href="#DejaVuSans-83"/>
      <use x="63.476562" xlink:href="#DejaVuSans-89"/>
      <use x="124.560547" xlink:href="#DejaVuSans-78"/>
      <use x="199.365234" xlink:href="#DejaVuSans-84"/>
      <use x="260.449219" xlink:href="#DejaVuSans-72"/>
      <use x="335.644531" xlink:href="#DejaVuSans-95"/>
      <use x="385.644531" xlink:href="#DejaVuSans-69"/>
      <use x="448.828125" xlink:href="#DejaVuSans-70"/>
      <use x="506.347656" xlink:href="#DejaVuSans-95"/>
      <use x="556.347656" xlink:href="#DejaVuSans-50"/>
      <use x="619.970703" xlink:href="#DejaVuSans-48"/>
      <use x="683.59375" xlink:href="#DejaVuSans-95"/>
      <use x="733.59375" xlink:href="#DejaVuSans-114"/>
      <use x="774.707031" xlink:href="#DejaVuSans-98"/>
      <use x="838.183594" xlink:href="#DejaVuSans-102"/>
      <use x="866.138672" xlink:href="#DejaVuSans-46"/>
      <use x="897.925781" xlink:href="#DejaVuSans-106"/>
      <use x="925.708984" xlink:href="#DejaVuSans-108"/>
      <use x="953.492188" xlink:href="#DejaVuSans-100"/>
      <use x="1016.96875" xlink:href="#DejaVuSans-50"/>
     </g>
    </g>
    <g id="line2d_80">
     <path d="M 619.533125 165.735138 
L 639.533125 165.735138 
" style="fill:none;stroke:#e377c2;stroke-linecap:square;stroke-width:1.5;"/>
    </g>
    <g id="line2d_81"/>
    <g id="text_21">
     <!-- SYNTH_EF_30_matern12.jld2 -->
     <g transform="translate(647.533125 169.235138)scale(0.1 -0.1)">
      <use xlink:href="#DejaVuSans-83"/>
      <use x="63.476562" xlink:href="#DejaVuSans-89"/>
      <use x="124.560547" xlink:href="#DejaVuSans-78"/>
      <use x="199.365234" xlink:href="#DejaVuSans-84"/>
      <use x="260.449219" xlink:href="#DejaVuSans-72"/>
      <use x="335.644531" xlink:href="#DejaVuSans-95"/>
      <use x="385.644531" xlink:href="#DejaVuSans-69"/>
      <use x="448.828125" xlink:href="#DejaVuSans-70"/>
      <use x="506.347656" xlink:href="#DejaVuSans-95"/>
      <use x="556.347656" xlink:href="#DejaVuSans-51"/>
      <use x="619.970703" xlink:href="#DejaVuSans-48"/>
      <use x="683.59375" xlink:href="#DejaVuSans-95"/>
      <use x="733.59375" xlink:href="#DejaVuSans-109"/>
      <use x="831.005859" xlink:href="#DejaVuSans-97"/>
      <use x="892.285156" xlink:href="#DejaVuSans-116"/>
      <use x="931.494141" xlink:href="#DejaVuSans-101"/>
      <use x="993.017578" xlink:href="#DejaVuSans-114"/>
      <use x="1032.380859" xlink:href="#DejaVuSans-110"/>
      <use x="1095.759766" xlink:href="#DejaVuSans-49"/>
      <use x="1159.382812" xlink:href="#DejaVuSans-50"/>
      <use x="1223.005859" xlink:href="#DejaVuSans-46"/>
      <use x="1254.792969" xlink:href="#DejaVuSans-106"/>
      <use x="1282.576172" xlink:href="#DejaVuSans-108"/>
      <use x="1310.359375" xlink:href="#DejaVuSans-100"/>
      <use x="1373.835938" xlink:href="#DejaVuSans-50"/>
     </g>
    </g>
    <g id="line2d_82">
     <path d="M 619.533125 180.691388 
L 639.533125 180.691388 
" style="fill:none;stroke:#7f7f7f;stroke-linecap:square;stroke-width:1.5;"/>
    </g>
    <g id="line2d_83"/>
    <g id="text_22">
     <!-- SYNTH_EF_30_matern32.jld2 -->
     <g transform="translate(647.533125 184.191388)scale(0.1 -0.1)">
      <use xlink:href="#DejaVuSans-83"/>
      <use x="63.476562" xlink:href="#DejaVuSans-89"/>
      <use x="124.560547" xlink:href="#DejaVuSans-78"/>
      <use x="199.365234" xlink:href="#DejaVuSans-84"/>
      <use x="260.449219" xlink:href="#DejaVuSans-72"/>
      <use x="335.644531" xlink:href="#DejaVuSans-95"/>
      <use x="385.644531" xlink:href="#DejaVuSans-69"/>
      <use x="448.828125" xlink:href="#DejaVuSans-70"/>
      <use x="506.347656" xlink:href="#DejaVuSans-95"/>
      <use x="556.347656" xlink:href="#DejaVuSans-51"/>
      <use x="619.970703" xlink:href="#DejaVuSans-48"/>
      <use x="683.59375" xlink:href="#DejaVuSans-95"/>
      <use x="733.59375" xlink:href="#DejaVuSans-109"/>
      <use x="831.005859" xlink:href="#DejaVuSans-97"/>
      <use x="892.285156" xlink:href="#DejaVuSans-116"/>
      <use x="931.494141" xlink:href="#DejaVuSans-101"/>
      <use x="993.017578" xlink:href="#DejaVuSans-114"/>
      <use x="1032.380859" xlink:href="#DejaVuSans-110"/>
      <use x="1095.759766" xlink:href="#DejaVuSans-51"/>
      <use x="1159.382812" xlink:href="#DejaVuSans-50"/>
      <use x="1223.005859" xlink:href="#DejaVuSans-46"/>
      <use x="1254.792969" xlink:href="#DejaVuSans-106"/>
      <use x="1282.576172" xlink:href="#DejaVuSans-108"/>
      <use x="1310.359375" xlink:href="#DejaVuSans-100"/>
      <use x="1373.835938" xlink:href="#DejaVuSans-50"/>
     </g>
    </g>
    <g id="line2d_84">
     <path d="M 619.533125 195.647637 
L 639.533125 195.647637 
" style="fill:none;stroke:#bcbd22;stroke-linecap:square;stroke-width:1.5;"/>
    </g>
    <g id="line2d_85"/>
    <g id="text_23">
     <!-- SYNTH_EF_30_rbf.jld2 -->
     <g transform="translate(647.533125 199.147637)scale(0.1 -0.1)">
      <use xlink:href="#DejaVuSans-83"/>
      <use x="63.476562" xlink:href="#DejaVuSans-89"/>
      <use x="124.560547" xlink:href="#DejaVuSans-78"/>
      <use x="199.365234" xlink:href="#DejaVuSans-84"/>
      <use x="260.449219" xlink:href="#DejaVuSans-72"/>
      <use x="335.644531" xlink:href="#DejaVuSans-95"/>
      <use x="385.644531" xlink:href="#DejaVuSans-69"/>
      <use x="448.828125" xlink:href="#DejaVuSans-70"/>
      <use x="506.347656" xlink:href="#DejaVuSans-95"/>
      <use x="556.347656" xlink:href="#DejaVuSans-51"/>
      <use x="619.970703" xlink:href="#DejaVuSans-48"/>
      <use x="683.59375" xlink:href="#DejaVuSans-95"/>
      <use x="733.59375" xlink:href="#DejaVuSans-114"/>
      <use x="774.707031" xlink:href="#DejaVuSans-98"/>
      <use x="838.183594" xlink:href="#DejaVuSans-102"/>
      <use x="866.138672" xlink:href="#DejaVuSans-46"/>
      <use x="897.925781" xlink:href="#DejaVuSans-106"/>
      <use x="925.708984" xlink:href="#DejaVuSans-108"/>
      <use x="953.492188" xlink:href="#DejaVuSans-100"/>
      <use x="1016.96875" xlink:href="#DejaVuSans-50"/>
     </g>
    </g>
   </g>
  </g>
 </g>
 <defs>
  <clipPath id="p309f6da213">
   <rect height="403.6032" width="689.13" x="111.15" y="62.8992"/>
  </clipPath>
 </defs>
</svg>
