<?xml version="1.0" encoding="utf-8" standalone="no"?>
<!DOCTYPE svg PUBLIC "-//W3C//DTD SVG 1.1//EN"
  "http://www.w3.org/Graphics/SVG/1.1/DTD/svg11.dtd">
<svg xmlns:xlink="http://www.w3.org/1999/xlink" width="460.8pt" height="345.6pt" viewBox="0 0 460.8 345.6" xmlns="http://www.w3.org/2000/svg" version="1.1">
 <metadata>
  <rdf:RDF xmlns:dc="http://purl.org/dc/elements/1.1/" xmlns:cc="http://creativecommons.org/ns#" xmlns:rdf="http://www.w3.org/1999/02/22-rdf-syntax-ns#">
   <cc:Work>
    <dc:type rdf:resource="http://purl.org/dc/dcmitype/StillImage"/>
    <dc:date>2022-02-26T01:50:38.048662</dc:date>
    <dc:format>image/svg+xml</dc:format>
    <dc:creator>
     <cc:Agent>
      <dc:title>Matplotlib v3.5.1, https://matplotlib.org/</dc:title>
     </cc:Agent>
    </dc:creator>
   </cc:Work>
  </rdf:RDF>
 </metadata>
 <defs>
  <style type="text/css">*{stroke-linejoin: round; stroke-linecap: butt}</style>
 </defs>
 <g id="figure_1">
  <g id="patch_1">
   <path d="M 0 345.6 
L 460.8 345.6 
L 460.8 0 
L 0 0 
z
" style="fill: #ffffff"/>
  </g>
  <g id="axes_1">
   <g id="patch_2">
    <path d="M 57.6 162.432 
L 414.72 162.432 
L 414.72 41.472 
L 57.6 41.472 
z
" style="fill: #ffffff"/>
   </g>
   <g id="matplotlib.axis_1">
    <g id="xtick_1">
     <g id="line2d_1">
      <defs>
       <path id="m2f94ae07f0" d="M 0 0 
L 0 3.5 
" style="stroke: #000000; stroke-width: 0.8"/>
      </defs>
      <g>
       <use xlink:href="#m2f94ae07f0" x="73.832727" y="162.432" style="stroke: #000000; stroke-width: 0.8"/>
      </g>
     </g>
     <g id="text_1">
      <!-- $\mathdefault{10^{5}}$ -->
      <g transform="translate(65.032727 177.030437)scale(0.1 -0.1)">
       <defs>
        <path id="DejaVuSans-31" d="M 794 531 
L 1825 531 
L 1825 4091 
L 703 3866 
L 703 4441 
L 1819 4666 
L 2450 4666 
L 2450 531 
L 3481 531 
L 3481 0 
L 794 0 
L 794 531 
z
" transform="scale(0.015625)"/>
        <path id="DejaVuSans-30" d="M 2034 4250 
Q 1547 4250 1301 3770 
Q 1056 3291 1056 2328 
Q 1056 1369 1301 889 
Q 1547 409 2034 409 
Q 2525 409 2770 889 
Q 3016 1369 3016 2328 
Q 3016 3291 2770 3770 
Q 2525 4250 2034 4250 
z
M 2034 4750 
Q 2819 4750 3233 4129 
Q 3647 3509 3647 2328 
Q 3647 1150 3233 529 
Q 2819 -91 2034 -91 
Q 1250 -91 836 529 
Q 422 1150 422 2328 
Q 422 3509 836 4129 
Q 1250 4750 2034 4750 
z
" transform="scale(0.015625)"/>
        <path id="DejaVuSans-35" d="M 691 4666 
L 3169 4666 
L 3169 4134 
L 1269 4134 
L 1269 2991 
Q 1406 3038 1543 3061 
Q 1681 3084 1819 3084 
Q 2600 3084 3056 2656 
Q 3513 2228 3513 1497 
Q 3513 744 3044 326 
Q 2575 -91 1722 -91 
Q 1428 -91 1123 -41 
Q 819 9 494 109 
L 494 744 
Q 775 591 1075 516 
Q 1375 441 1709 441 
Q 2250 441 2565 725 
Q 2881 1009 2881 1497 
Q 2881 1984 2565 2268 
Q 2250 2553 1709 2553 
Q 1456 2553 1204 2497 
Q 953 2441 691 2322 
L 691 4666 
z
" transform="scale(0.015625)"/>
       </defs>
       <use xlink:href="#DejaVuSans-31" transform="translate(0 0.684375)"/>
       <use xlink:href="#DejaVuSans-30" transform="translate(63.623047 0.684375)"/>
       <use xlink:href="#DejaVuSans-35" transform="translate(128.203125 38.965625)scale(0.7)"/>
      </g>
     </g>
    </g>
    <g id="xtick_2">
     <g id="line2d_2">
      <g>
       <use xlink:href="#m2f94ae07f0" x="138.763636" y="162.432" style="stroke: #000000; stroke-width: 0.8"/>
      </g>
     </g>
     <g id="text_2">
      <!-- $\mathdefault{10^{6}}$ -->
      <g transform="translate(129.963636 177.030437)scale(0.1 -0.1)">
       <defs>
        <path id="DejaVuSans-36" d="M 2113 2584 
Q 1688 2584 1439 2293 
Q 1191 2003 1191 1497 
Q 1191 994 1439 701 
Q 1688 409 2113 409 
Q 2538 409 2786 701 
Q 3034 994 3034 1497 
Q 3034 2003 2786 2293 
Q 2538 2584 2113 2584 
z
M 3366 4563 
L 3366 3988 
Q 3128 4100 2886 4159 
Q 2644 4219 2406 4219 
Q 1781 4219 1451 3797 
Q 1122 3375 1075 2522 
Q 1259 2794 1537 2939 
Q 1816 3084 2150 3084 
Q 2853 3084 3261 2657 
Q 3669 2231 3669 1497 
Q 3669 778 3244 343 
Q 2819 -91 2113 -91 
Q 1303 -91 875 529 
Q 447 1150 447 2328 
Q 447 3434 972 4092 
Q 1497 4750 2381 4750 
Q 2619 4750 2861 4703 
Q 3103 4656 3366 4563 
z
" transform="scale(0.015625)"/>
       </defs>
       <use xlink:href="#DejaVuSans-31" transform="translate(0 0.765625)"/>
       <use xlink:href="#DejaVuSans-30" transform="translate(63.623047 0.765625)"/>
       <use xlink:href="#DejaVuSans-36" transform="translate(128.203125 39.046875)scale(0.7)"/>
      </g>
     </g>
    </g>
    <g id="xtick_3">
     <g id="line2d_3">
      <g>
       <use xlink:href="#m2f94ae07f0" x="203.694545" y="162.432" style="stroke: #000000; stroke-width: 0.8"/>
      </g>
     </g>
     <g id="text_3">
      <!-- $\mathdefault{10^{7}}$ -->
      <g transform="translate(194.894545 177.030437)scale(0.1 -0.1)">
       <defs>
        <path id="DejaVuSans-37" d="M 525 4666 
L 3525 4666 
L 3525 4397 
L 1831 0 
L 1172 0 
L 2766 4134 
L 525 4134 
L 525 4666 
z
" transform="scale(0.015625)"/>
       </defs>
       <use xlink:href="#DejaVuSans-31" transform="translate(0 0.684375)"/>
       <use xlink:href="#DejaVuSans-30" transform="translate(63.623047 0.684375)"/>
       <use xlink:href="#DejaVuSans-37" transform="translate(128.203125 38.965625)scale(0.7)"/>
      </g>
     </g>
    </g>
    <g id="xtick_4">
     <g id="line2d_4">
      <g>
       <use xlink:href="#m2f94ae07f0" x="268.625455" y="162.432" style="stroke: #000000; stroke-width: 0.8"/>
      </g>
     </g>
     <g id="text_4">
      <!-- $\mathdefault{10^{8}}$ -->
      <g transform="translate(259.825455 177.030437)scale(0.1 -0.1)">
       <defs>
        <path id="DejaVuSans-38" d="M 2034 2216 
Q 1584 2216 1326 1975 
Q 1069 1734 1069 1313 
Q 1069 891 1326 650 
Q 1584 409 2034 409 
Q 2484 409 2743 651 
Q 3003 894 3003 1313 
Q 3003 1734 2745 1975 
Q 2488 2216 2034 2216 
z
M 1403 2484 
Q 997 2584 770 2862 
Q 544 3141 544 3541 
Q 544 4100 942 4425 
Q 1341 4750 2034 4750 
Q 2731 4750 3128 4425 
Q 3525 4100 3525 3541 
Q 3525 3141 3298 2862 
Q 3072 2584 2669 2484 
Q 3125 2378 3379 2068 
Q 3634 1759 3634 1313 
Q 3634 634 3220 271 
Q 2806 -91 2034 -91 
Q 1263 -91 848 271 
Q 434 634 434 1313 
Q 434 1759 690 2068 
Q 947 2378 1403 2484 
z
M 1172 3481 
Q 1172 3119 1398 2916 
Q 1625 2713 2034 2713 
Q 2441 2713 2670 2916 
Q 2900 3119 2900 3481 
Q 2900 3844 2670 4047 
Q 2441 4250 2034 4250 
Q 1625 4250 1398 4047 
Q 1172 3844 1172 3481 
z
" transform="scale(0.015625)"/>
       </defs>
       <use xlink:href="#DejaVuSans-31" transform="translate(0 0.765625)"/>
       <use xlink:href="#DejaVuSans-30" transform="translate(63.623047 0.765625)"/>
       <use xlink:href="#DejaVuSans-38" transform="translate(128.203125 39.046875)scale(0.7)"/>
      </g>
     </g>
    </g>
    <g id="xtick_5">
     <g id="line2d_5">
      <g>
       <use xlink:href="#m2f94ae07f0" x="333.556364" y="162.432" style="stroke: #000000; stroke-width: 0.8"/>
      </g>
     </g>
     <g id="text_5">
      <!-- $\mathdefault{10^{9}}$ -->
      <g transform="translate(324.756364 177.030437)scale(0.1 -0.1)">
       <defs>
        <path id="DejaVuSans-39" d="M 703 97 
L 703 672 
Q 941 559 1184 500 
Q 1428 441 1663 441 
Q 2288 441 2617 861 
Q 2947 1281 2994 2138 
Q 2813 1869 2534 1725 
Q 2256 1581 1919 1581 
Q 1219 1581 811 2004 
Q 403 2428 403 3163 
Q 403 3881 828 4315 
Q 1253 4750 1959 4750 
Q 2769 4750 3195 4129 
Q 3622 3509 3622 2328 
Q 3622 1225 3098 567 
Q 2575 -91 1691 -91 
Q 1453 -91 1209 -44 
Q 966 3 703 97 
z
M 1959 2075 
Q 2384 2075 2632 2365 
Q 2881 2656 2881 3163 
Q 2881 3666 2632 3958 
Q 2384 4250 1959 4250 
Q 1534 4250 1286 3958 
Q 1038 3666 1038 3163 
Q 1038 2656 1286 2365 
Q 1534 2075 1959 2075 
z
" transform="scale(0.015625)"/>
       </defs>
       <use xlink:href="#DejaVuSans-31" transform="translate(0 0.765625)"/>
       <use xlink:href="#DejaVuSans-30" transform="translate(63.623047 0.765625)"/>
       <use xlink:href="#DejaVuSans-39" transform="translate(128.203125 39.046875)scale(0.7)"/>
      </g>
     </g>
    </g>
    <g id="xtick_6">
     <g id="line2d_6">
      <g>
       <use xlink:href="#m2f94ae07f0" x="398.487273" y="162.432" style="stroke: #000000; stroke-width: 0.8"/>
      </g>
     </g>
     <g id="text_6">
      <!-- $\mathdefault{10^{10}}$ -->
      <g transform="translate(387.437273 177.030437)scale(0.1 -0.1)">
       <use xlink:href="#DejaVuSans-31" transform="translate(0 0.765625)"/>
       <use xlink:href="#DejaVuSans-30" transform="translate(63.623047 0.765625)"/>
       <use xlink:href="#DejaVuSans-31" transform="translate(128.203125 39.046875)scale(0.7)"/>
       <use xlink:href="#DejaVuSans-30" transform="translate(172.739258 39.046875)scale(0.7)"/>
      </g>
     </g>
    </g>
    <g id="xtick_7">
     <g id="line2d_7">
      <defs>
       <path id="m098ceb1982" d="M 0 0 
L 0 2 
" style="stroke: #000000; stroke-width: 0.6"/>
      </defs>
      <g>
       <use xlink:href="#m098ceb1982" x="59.427886" y="162.432" style="stroke: #000000; stroke-width: 0.6"/>
      </g>
     </g>
    </g>
    <g id="xtick_8">
     <g id="line2d_8">
      <g>
       <use xlink:href="#m098ceb1982" x="63.774802" y="162.432" style="stroke: #000000; stroke-width: 0.6"/>
      </g>
     </g>
    </g>
    <g id="xtick_9">
     <g id="line2d_9">
      <g>
       <use xlink:href="#m098ceb1982" x="67.540272" y="162.432" style="stroke: #000000; stroke-width: 0.6"/>
      </g>
     </g>
    </g>
    <g id="xtick_10">
     <g id="line2d_10">
      <g>
       <use xlink:href="#m098ceb1982" x="70.861652" y="162.432" style="stroke: #000000; stroke-width: 0.6"/>
      </g>
     </g>
    </g>
    <g id="xtick_11">
     <g id="line2d_11">
      <g>
       <use xlink:href="#m098ceb1982" x="93.378879" y="162.432" style="stroke: #000000; stroke-width: 0.6"/>
      </g>
     </g>
    </g>
    <g id="xtick_12">
     <g id="line2d_12">
      <g>
       <use xlink:href="#m098ceb1982" x="104.812644" y="162.432" style="stroke: #000000; stroke-width: 0.6"/>
      </g>
     </g>
    </g>
    <g id="xtick_13">
     <g id="line2d_13">
      <g>
       <use xlink:href="#m098ceb1982" x="112.92503" y="162.432" style="stroke: #000000; stroke-width: 0.6"/>
      </g>
     </g>
    </g>
    <g id="xtick_14">
     <g id="line2d_14">
      <g>
       <use xlink:href="#m098ceb1982" x="119.217485" y="162.432" style="stroke: #000000; stroke-width: 0.6"/>
      </g>
     </g>
    </g>
    <g id="xtick_15">
     <g id="line2d_15">
      <g>
       <use xlink:href="#m098ceb1982" x="124.358795" y="162.432" style="stroke: #000000; stroke-width: 0.6"/>
      </g>
     </g>
    </g>
    <g id="xtick_16">
     <g id="line2d_16">
      <g>
       <use xlink:href="#m098ceb1982" x="128.705711" y="162.432" style="stroke: #000000; stroke-width: 0.6"/>
      </g>
     </g>
    </g>
    <g id="xtick_17">
     <g id="line2d_17">
      <g>
       <use xlink:href="#m098ceb1982" x="132.471181" y="162.432" style="stroke: #000000; stroke-width: 0.6"/>
      </g>
     </g>
    </g>
    <g id="xtick_18">
     <g id="line2d_18">
      <g>
       <use xlink:href="#m098ceb1982" x="135.792561" y="162.432" style="stroke: #000000; stroke-width: 0.6"/>
      </g>
     </g>
    </g>
    <g id="xtick_19">
     <g id="line2d_19">
      <g>
       <use xlink:href="#m098ceb1982" x="158.309788" y="162.432" style="stroke: #000000; stroke-width: 0.6"/>
      </g>
     </g>
    </g>
    <g id="xtick_20">
     <g id="line2d_20">
      <g>
       <use xlink:href="#m098ceb1982" x="169.743553" y="162.432" style="stroke: #000000; stroke-width: 0.6"/>
      </g>
     </g>
    </g>
    <g id="xtick_21">
     <g id="line2d_21">
      <g>
       <use xlink:href="#m098ceb1982" x="177.855939" y="162.432" style="stroke: #000000; stroke-width: 0.6"/>
      </g>
     </g>
    </g>
    <g id="xtick_22">
     <g id="line2d_22">
      <g>
       <use xlink:href="#m098ceb1982" x="184.148394" y="162.432" style="stroke: #000000; stroke-width: 0.6"/>
      </g>
     </g>
    </g>
    <g id="xtick_23">
     <g id="line2d_23">
      <g>
       <use xlink:href="#m098ceb1982" x="189.289704" y="162.432" style="stroke: #000000; stroke-width: 0.6"/>
      </g>
     </g>
    </g>
    <g id="xtick_24">
     <g id="line2d_24">
      <g>
       <use xlink:href="#m098ceb1982" x="193.63662" y="162.432" style="stroke: #000000; stroke-width: 0.6"/>
      </g>
     </g>
    </g>
    <g id="xtick_25">
     <g id="line2d_25">
      <g>
       <use xlink:href="#m098ceb1982" x="197.40209" y="162.432" style="stroke: #000000; stroke-width: 0.6"/>
      </g>
     </g>
    </g>
    <g id="xtick_26">
     <g id="line2d_26">
      <g>
       <use xlink:href="#m098ceb1982" x="200.72347" y="162.432" style="stroke: #000000; stroke-width: 0.6"/>
      </g>
     </g>
    </g>
    <g id="xtick_27">
     <g id="line2d_27">
      <g>
       <use xlink:href="#m098ceb1982" x="223.240697" y="162.432" style="stroke: #000000; stroke-width: 0.6"/>
      </g>
     </g>
    </g>
    <g id="xtick_28">
     <g id="line2d_28">
      <g>
       <use xlink:href="#m098ceb1982" x="234.674462" y="162.432" style="stroke: #000000; stroke-width: 0.6"/>
      </g>
     </g>
    </g>
    <g id="xtick_29">
     <g id="line2d_29">
      <g>
       <use xlink:href="#m098ceb1982" x="242.786848" y="162.432" style="stroke: #000000; stroke-width: 0.6"/>
      </g>
     </g>
    </g>
    <g id="xtick_30">
     <g id="line2d_30">
      <g>
       <use xlink:href="#m098ceb1982" x="249.079303" y="162.432" style="stroke: #000000; stroke-width: 0.6"/>
      </g>
     </g>
    </g>
    <g id="xtick_31">
     <g id="line2d_31">
      <g>
       <use xlink:href="#m098ceb1982" x="254.220614" y="162.432" style="stroke: #000000; stroke-width: 0.6"/>
      </g>
     </g>
    </g>
    <g id="xtick_32">
     <g id="line2d_32">
      <g>
       <use xlink:href="#m098ceb1982" x="258.567529" y="162.432" style="stroke: #000000; stroke-width: 0.6"/>
      </g>
     </g>
    </g>
    <g id="xtick_33">
     <g id="line2d_33">
      <g>
       <use xlink:href="#m098ceb1982" x="262.332999" y="162.432" style="stroke: #000000; stroke-width: 0.6"/>
      </g>
     </g>
    </g>
    <g id="xtick_34">
     <g id="line2d_34">
      <g>
       <use xlink:href="#m098ceb1982" x="265.654379" y="162.432" style="stroke: #000000; stroke-width: 0.6"/>
      </g>
     </g>
    </g>
    <g id="xtick_35">
     <g id="line2d_35">
      <g>
       <use xlink:href="#m098ceb1982" x="288.171606" y="162.432" style="stroke: #000000; stroke-width: 0.6"/>
      </g>
     </g>
    </g>
    <g id="xtick_36">
     <g id="line2d_36">
      <g>
       <use xlink:href="#m098ceb1982" x="299.605371" y="162.432" style="stroke: #000000; stroke-width: 0.6"/>
      </g>
     </g>
    </g>
    <g id="xtick_37">
     <g id="line2d_37">
      <g>
       <use xlink:href="#m098ceb1982" x="307.717757" y="162.432" style="stroke: #000000; stroke-width: 0.6"/>
      </g>
     </g>
    </g>
    <g id="xtick_38">
     <g id="line2d_38">
      <g>
       <use xlink:href="#m098ceb1982" x="314.010212" y="162.432" style="stroke: #000000; stroke-width: 0.6"/>
      </g>
     </g>
    </g>
    <g id="xtick_39">
     <g id="line2d_39">
      <g>
       <use xlink:href="#m098ceb1982" x="319.151523" y="162.432" style="stroke: #000000; stroke-width: 0.6"/>
      </g>
     </g>
    </g>
    <g id="xtick_40">
     <g id="line2d_40">
      <g>
       <use xlink:href="#m098ceb1982" x="323.498439" y="162.432" style="stroke: #000000; stroke-width: 0.6"/>
      </g>
     </g>
    </g>
    <g id="xtick_41">
     <g id="line2d_41">
      <g>
       <use xlink:href="#m098ceb1982" x="327.263908" y="162.432" style="stroke: #000000; stroke-width: 0.6"/>
      </g>
     </g>
    </g>
    <g id="xtick_42">
     <g id="line2d_42">
      <g>
       <use xlink:href="#m098ceb1982" x="330.585288" y="162.432" style="stroke: #000000; stroke-width: 0.6"/>
      </g>
     </g>
    </g>
    <g id="xtick_43">
     <g id="line2d_43">
      <g>
       <use xlink:href="#m098ceb1982" x="353.102515" y="162.432" style="stroke: #000000; stroke-width: 0.6"/>
      </g>
     </g>
    </g>
    <g id="xtick_44">
     <g id="line2d_44">
      <g>
       <use xlink:href="#m098ceb1982" x="364.53628" y="162.432" style="stroke: #000000; stroke-width: 0.6"/>
      </g>
     </g>
    </g>
    <g id="xtick_45">
     <g id="line2d_45">
      <g>
       <use xlink:href="#m098ceb1982" x="372.648666" y="162.432" style="stroke: #000000; stroke-width: 0.6"/>
      </g>
     </g>
    </g>
    <g id="xtick_46">
     <g id="line2d_46">
      <g>
       <use xlink:href="#m098ceb1982" x="378.941121" y="162.432" style="stroke: #000000; stroke-width: 0.6"/>
      </g>
     </g>
    </g>
    <g id="xtick_47">
     <g id="line2d_47">
      <g>
       <use xlink:href="#m098ceb1982" x="384.082432" y="162.432" style="stroke: #000000; stroke-width: 0.6"/>
      </g>
     </g>
    </g>
    <g id="xtick_48">
     <g id="line2d_48">
      <g>
       <use xlink:href="#m098ceb1982" x="388.429348" y="162.432" style="stroke: #000000; stroke-width: 0.6"/>
      </g>
     </g>
    </g>
    <g id="xtick_49">
     <g id="line2d_49">
      <g>
       <use xlink:href="#m098ceb1982" x="392.194817" y="162.432" style="stroke: #000000; stroke-width: 0.6"/>
      </g>
     </g>
    </g>
    <g id="xtick_50">
     <g id="line2d_50">
      <g>
       <use xlink:href="#m098ceb1982" x="395.516197" y="162.432" style="stroke: #000000; stroke-width: 0.6"/>
      </g>
     </g>
    </g>
   </g>
   <g id="matplotlib.axis_2">
    <g id="ytick_1">
     <g id="line2d_51">
      <defs>
       <path id="m4e13695e22" d="M 0 0 
L -3.5 0 
" style="stroke: #000000; stroke-width: 0.8"/>
      </defs>
      <g>
       <use xlink:href="#m4e13695e22" x="57.6" y="135.634757" style="stroke: #000000; stroke-width: 0.8"/>
      </g>
     </g>
     <g id="text_7">
      <!-- 0.01 -->
      <g transform="translate(28.334375 139.433976)scale(0.1 -0.1)">
       <defs>
        <path id="DejaVuSans-2e" d="M 684 794 
L 1344 794 
L 1344 0 
L 684 0 
L 684 794 
z
" transform="scale(0.015625)"/>
       </defs>
       <use xlink:href="#DejaVuSans-30"/>
       <use xlink:href="#DejaVuSans-2e" x="63.623047"/>
       <use xlink:href="#DejaVuSans-30" x="95.410156"/>
       <use xlink:href="#DejaVuSans-31" x="159.033203"/>
      </g>
     </g>
    </g>
    <g id="ytick_2">
     <g id="line2d_52">
      <g>
       <use xlink:href="#m4e13695e22" x="57.6" y="97.296881" style="stroke: #000000; stroke-width: 0.8"/>
      </g>
     </g>
     <g id="text_8">
      <!-- 0.02 -->
      <g transform="translate(28.334375 101.0961)scale(0.1 -0.1)">
       <defs>
        <path id="DejaVuSans-32" d="M 1228 531 
L 3431 531 
L 3431 0 
L 469 0 
L 469 531 
Q 828 903 1448 1529 
Q 2069 2156 2228 2338 
Q 2531 2678 2651 2914 
Q 2772 3150 2772 3378 
Q 2772 3750 2511 3984 
Q 2250 4219 1831 4219 
Q 1534 4219 1204 4116 
Q 875 4013 500 3803 
L 500 4441 
Q 881 4594 1212 4672 
Q 1544 4750 1819 4750 
Q 2544 4750 2975 4387 
Q 3406 4025 3406 3419 
Q 3406 3131 3298 2873 
Q 3191 2616 2906 2266 
Q 2828 2175 2409 1742 
Q 1991 1309 1228 531 
z
" transform="scale(0.015625)"/>
       </defs>
       <use xlink:href="#DejaVuSans-30"/>
       <use xlink:href="#DejaVuSans-2e" x="63.623047"/>
       <use xlink:href="#DejaVuSans-30" x="95.410156"/>
       <use xlink:href="#DejaVuSans-32" x="159.033203"/>
      </g>
     </g>
    </g>
    <g id="ytick_3">
     <g id="line2d_53">
      <g>
       <use xlink:href="#m4e13695e22" x="57.6" y="58.959006" style="stroke: #000000; stroke-width: 0.8"/>
      </g>
     </g>
     <g id="text_9">
      <!-- 0.03 -->
      <g transform="translate(28.334375 62.758224)scale(0.1 -0.1)">
       <defs>
        <path id="DejaVuSans-33" d="M 2597 2516 
Q 3050 2419 3304 2112 
Q 3559 1806 3559 1356 
Q 3559 666 3084 287 
Q 2609 -91 1734 -91 
Q 1441 -91 1130 -33 
Q 819 25 488 141 
L 488 750 
Q 750 597 1062 519 
Q 1375 441 1716 441 
Q 2309 441 2620 675 
Q 2931 909 2931 1356 
Q 2931 1769 2642 2001 
Q 2353 2234 1838 2234 
L 1294 2234 
L 1294 2753 
L 1863 2753 
Q 2328 2753 2575 2939 
Q 2822 3125 2822 3475 
Q 2822 3834 2567 4026 
Q 2313 4219 1838 4219 
Q 1578 4219 1281 4162 
Q 984 4106 628 3988 
L 628 4550 
Q 988 4650 1302 4700 
Q 1616 4750 1894 4750 
Q 2613 4750 3031 4423 
Q 3450 4097 3450 3541 
Q 3450 3153 3228 2886 
Q 3006 2619 2597 2516 
z
" transform="scale(0.015625)"/>
       </defs>
       <use xlink:href="#DejaVuSans-30"/>
       <use xlink:href="#DejaVuSans-2e" x="63.623047"/>
       <use xlink:href="#DejaVuSans-30" x="95.410156"/>
       <use xlink:href="#DejaVuSans-33" x="159.033203"/>
      </g>
     </g>
    </g>
   </g>
   <g id="line2d_54">
    <path d="M 73.832727 46.970182 
L 78.985974 74.28191 
L 84.139221 101.632634 
L 89.292468 102.085783 
L 94.445714 75.42227 
L 99.598961 76.104588 
L 104.752208 103.678239 
L 109.905455 104.301508 
L 115.058701 104.979092 
L 120.211948 105.707609 
L 125.365195 106.492437 
L 130.518442 107.334737 
L 135.671688 108.226823 
L 140.824935 109.16623 
L 145.978182 110.150695 
L 151.131429 111.175112 
L 156.284675 112.231648 
L 161.437922 113.304923 
L 166.591169 114.385976 
L 171.744416 115.460803 
L 176.897662 116.519465 
L 182.050909 117.550549 
L 187.204156 118.542831 
L 192.357403 119.490335 
L 197.510649 120.393514 
L 202.663896 121.232866 
L 207.817143 121.992732 
L 212.97039 122.636059 
L 218.123636 123.098405 
L 223.276883 123.291314 
L 228.43013 123.115205 
L 233.583377 122.456993 
L 238.736623 121.350017 
L 243.88987 119.819143 
L 249.043117 118.058175 
L 254.196364 116.315153 
L 259.34961 115.057857 
L 264.502857 114.514015 
L 269.656104 115.041384 
L 274.809351 116.58995 
L 279.962597 119.19927 
L 285.115844 122.784139 
L 290.269091 127.207209 
L 295.422338 132.250546 
L 300.575584 137.440351 
L 305.728831 142.207086 
L 310.882078 145.507884 
L 316.035325 144.05212 
L 321.188571 139.142337 
L 326.341818 132.540779 
L 331.495065 118.664365 
L 336.648312 106.675605 
L 341.801558 99.485188 
L 346.954805 85.116436 
L 352.108052 88.012003 
L 357.261299 88.207992 
L 362.414545 92.376564 
L 367.567792 97.781492 
L 372.721039 104.799163 
L 377.874286 115.386542 
L 383.027532 126.620901 
L 388.180779 139.12736 
L 393.334026 148.782619 
L 398.487273 156.933818 
" clip-path="url(#p5ddd99586b)" style="fill: none; stroke: #1f77b4; stroke-width: 1.5; stroke-linecap: square"/>
    <defs>
     <path id="m1442eb0ea2" d="M 0 3 
C 0.795609 3 1.55874 2.683901 2.12132 2.12132 
C 2.683901 1.55874 3 0.795609 3 0 
C 3 -0.795609 2.683901 -1.55874 2.12132 -2.12132 
C 1.55874 -2.683901 0.795609 -3 0 -3 
C -0.795609 -3 -1.55874 -2.683901 -2.12132 -2.12132 
C -2.683901 -1.55874 -3 -0.795609 -3 0 
C -3 0.795609 -2.683901 1.55874 -2.12132 2.12132 
C -1.55874 2.683901 -0.795609 3 0 3 
z
" style="stroke: #1f77b4"/>
    </defs>
    <g clip-path="url(#p5ddd99586b)">
     <use xlink:href="#m1442eb0ea2" x="73.832727" y="46.970182" style="fill: #1f77b4; stroke: #1f77b4"/>
     <use xlink:href="#m1442eb0ea2" x="78.985974" y="74.28191" style="fill: #1f77b4; stroke: #1f77b4"/>
     <use xlink:href="#m1442eb0ea2" x="84.139221" y="101.632634" style="fill: #1f77b4; stroke: #1f77b4"/>
     <use xlink:href="#m1442eb0ea2" x="89.292468" y="102.085783" style="fill: #1f77b4; stroke: #1f77b4"/>
     <use xlink:href="#m1442eb0ea2" x="94.445714" y="75.42227" style="fill: #1f77b4; stroke: #1f77b4"/>
     <use xlink:href="#m1442eb0ea2" x="99.598961" y="76.104588" style="fill: #1f77b4; stroke: #1f77b4"/>
     <use xlink:href="#m1442eb0ea2" x="104.752208" y="103.678239" style="fill: #1f77b4; stroke: #1f77b4"/>
     <use xlink:href="#m1442eb0ea2" x="109.905455" y="104.301508" style="fill: #1f77b4; stroke: #1f77b4"/>
     <use xlink:href="#m1442eb0ea2" x="115.058701" y="104.979092" style="fill: #1f77b4; stroke: #1f77b4"/>
     <use xlink:href="#m1442eb0ea2" x="120.211948" y="105.707609" style="fill: #1f77b4; stroke: #1f77b4"/>
     <use xlink:href="#m1442eb0ea2" x="125.365195" y="106.492437" style="fill: #1f77b4; stroke: #1f77b4"/>
     <use xlink:href="#m1442eb0ea2" x="130.518442" y="107.334737" style="fill: #1f77b4; stroke: #1f77b4"/>
     <use xlink:href="#m1442eb0ea2" x="135.671688" y="108.226823" style="fill: #1f77b4; stroke: #1f77b4"/>
     <use xlink:href="#m1442eb0ea2" x="140.824935" y="109.16623" style="fill: #1f77b4; stroke: #1f77b4"/>
     <use xlink:href="#m1442eb0ea2" x="145.978182" y="110.150695" style="fill: #1f77b4; stroke: #1f77b4"/>
     <use xlink:href="#m1442eb0ea2" x="151.131429" y="111.175112" style="fill: #1f77b4; stroke: #1f77b4"/>
     <use xlink:href="#m1442eb0ea2" x="156.284675" y="112.231648" style="fill: #1f77b4; stroke: #1f77b4"/>
     <use xlink:href="#m1442eb0ea2" x="161.437922" y="113.304923" style="fill: #1f77b4; stroke: #1f77b4"/>
     <use xlink:href="#m1442eb0ea2" x="166.591169" y="114.385976" style="fill: #1f77b4; stroke: #1f77b4"/>
     <use xlink:href="#m1442eb0ea2" x="171.744416" y="115.460803" style="fill: #1f77b4; stroke: #1f77b4"/>
     <use xlink:href="#m1442eb0ea2" x="176.897662" y="116.519465" style="fill: #1f77b4; stroke: #1f77b4"/>
     <use xlink:href="#m1442eb0ea2" x="182.050909" y="117.550549" style="fill: #1f77b4; stroke: #1f77b4"/>
     <use xlink:href="#m1442eb0ea2" x="187.204156" y="118.542831" style="fill: #1f77b4; stroke: #1f77b4"/>
     <use xlink:href="#m1442eb0ea2" x="192.357403" y="119.490335" style="fill: #1f77b4; stroke: #1f77b4"/>
     <use xlink:href="#m1442eb0ea2" x="197.510649" y="120.393514" style="fill: #1f77b4; stroke: #1f77b4"/>
     <use xlink:href="#m1442eb0ea2" x="202.663896" y="121.232866" style="fill: #1f77b4; stroke: #1f77b4"/>
     <use xlink:href="#m1442eb0ea2" x="207.817143" y="121.992732" style="fill: #1f77b4; stroke: #1f77b4"/>
     <use xlink:href="#m1442eb0ea2" x="212.97039" y="122.636059" style="fill: #1f77b4; stroke: #1f77b4"/>
     <use xlink:href="#m1442eb0ea2" x="218.123636" y="123.098405" style="fill: #1f77b4; stroke: #1f77b4"/>
     <use xlink:href="#m1442eb0ea2" x="223.276883" y="123.291314" style="fill: #1f77b4; stroke: #1f77b4"/>
     <use xlink:href="#m1442eb0ea2" x="228.43013" y="123.115205" style="fill: #1f77b4; stroke: #1f77b4"/>
     <use xlink:href="#m1442eb0ea2" x="233.583377" y="122.456993" style="fill: #1f77b4; stroke: #1f77b4"/>
     <use xlink:href="#m1442eb0ea2" x="238.736623" y="121.350017" style="fill: #1f77b4; stroke: #1f77b4"/>
     <use xlink:href="#m1442eb0ea2" x="243.88987" y="119.819143" style="fill: #1f77b4; stroke: #1f77b4"/>
     <use xlink:href="#m1442eb0ea2" x="249.043117" y="118.058175" style="fill: #1f77b4; stroke: #1f77b4"/>
     <use xlink:href="#m1442eb0ea2" x="254.196364" y="116.315153" style="fill: #1f77b4; stroke: #1f77b4"/>
     <use xlink:href="#m1442eb0ea2" x="259.34961" y="115.057857" style="fill: #1f77b4; stroke: #1f77b4"/>
     <use xlink:href="#m1442eb0ea2" x="264.502857" y="114.514015" style="fill: #1f77b4; stroke: #1f77b4"/>
     <use xlink:href="#m1442eb0ea2" x="269.656104" y="115.041384" style="fill: #1f77b4; stroke: #1f77b4"/>
     <use xlink:href="#m1442eb0ea2" x="274.809351" y="116.58995" style="fill: #1f77b4; stroke: #1f77b4"/>
     <use xlink:href="#m1442eb0ea2" x="279.962597" y="119.19927" style="fill: #1f77b4; stroke: #1f77b4"/>
     <use xlink:href="#m1442eb0ea2" x="285.115844" y="122.784139" style="fill: #1f77b4; stroke: #1f77b4"/>
     <use xlink:href="#m1442eb0ea2" x="290.269091" y="127.207209" style="fill: #1f77b4; stroke: #1f77b4"/>
     <use xlink:href="#m1442eb0ea2" x="295.422338" y="132.250546" style="fill: #1f77b4; stroke: #1f77b4"/>
     <use xlink:href="#m1442eb0ea2" x="300.575584" y="137.440351" style="fill: #1f77b4; stroke: #1f77b4"/>
     <use xlink:href="#m1442eb0ea2" x="305.728831" y="142.207086" style="fill: #1f77b4; stroke: #1f77b4"/>
     <use xlink:href="#m1442eb0ea2" x="310.882078" y="145.507884" style="fill: #1f77b4; stroke: #1f77b4"/>
     <use xlink:href="#m1442eb0ea2" x="316.035325" y="144.05212" style="fill: #1f77b4; stroke: #1f77b4"/>
     <use xlink:href="#m1442eb0ea2" x="321.188571" y="139.142337" style="fill: #1f77b4; stroke: #1f77b4"/>
     <use xlink:href="#m1442eb0ea2" x="326.341818" y="132.540779" style="fill: #1f77b4; stroke: #1f77b4"/>
     <use xlink:href="#m1442eb0ea2" x="331.495065" y="118.664365" style="fill: #1f77b4; stroke: #1f77b4"/>
     <use xlink:href="#m1442eb0ea2" x="336.648312" y="106.675605" style="fill: #1f77b4; stroke: #1f77b4"/>
     <use xlink:href="#m1442eb0ea2" x="341.801558" y="99.485188" style="fill: #1f77b4; stroke: #1f77b4"/>
     <use xlink:href="#m1442eb0ea2" x="346.954805" y="85.116436" style="fill: #1f77b4; stroke: #1f77b4"/>
     <use xlink:href="#m1442eb0ea2" x="352.108052" y="88.012003" style="fill: #1f77b4; stroke: #1f77b4"/>
     <use xlink:href="#m1442eb0ea2" x="357.261299" y="88.207992" style="fill: #1f77b4; stroke: #1f77b4"/>
     <use xlink:href="#m1442eb0ea2" x="362.414545" y="92.376564" style="fill: #1f77b4; stroke: #1f77b4"/>
     <use xlink:href="#m1442eb0ea2" x="367.567792" y="97.781492" style="fill: #1f77b4; stroke: #1f77b4"/>
     <use xlink:href="#m1442eb0ea2" x="372.721039" y="104.799163" style="fill: #1f77b4; stroke: #1f77b4"/>
     <use xlink:href="#m1442eb0ea2" x="377.874286" y="115.386542" style="fill: #1f77b4; stroke: #1f77b4"/>
     <use xlink:href="#m1442eb0ea2" x="383.027532" y="126.620901" style="fill: #1f77b4; stroke: #1f77b4"/>
     <use xlink:href="#m1442eb0ea2" x="388.180779" y="139.12736" style="fill: #1f77b4; stroke: #1f77b4"/>
     <use xlink:href="#m1442eb0ea2" x="393.334026" y="148.782619" style="fill: #1f77b4; stroke: #1f77b4"/>
     <use xlink:href="#m1442eb0ea2" x="398.487273" y="156.933818" style="fill: #1f77b4; stroke: #1f77b4"/>
    </g>
   </g>
   <g id="patch_3">
    <path d="M 57.6 162.432 
L 57.6 41.472 
" style="fill: none; stroke: #000000; stroke-width: 0.8; stroke-linejoin: miter; stroke-linecap: square"/>
   </g>
   <g id="patch_4">
    <path d="M 414.72 162.432 
L 414.72 41.472 
" style="fill: none; stroke: #000000; stroke-width: 0.8; stroke-linejoin: miter; stroke-linecap: square"/>
   </g>
   <g id="patch_5">
    <path d="M 57.6 162.432 
L 414.72 162.432 
" style="fill: none; stroke: #000000; stroke-width: 0.8; stroke-linejoin: miter; stroke-linecap: square"/>
   </g>
   <g id="patch_6">
    <path d="M 57.6 41.472 
L 414.72 41.472 
" style="fill: none; stroke: #000000; stroke-width: 0.8; stroke-linejoin: miter; stroke-linecap: square"/>
   </g>
  </g>
  <g id="axes_2">
   <g id="patch_7">
    <path d="M 57.6 307.584 
L 414.72 307.584 
L 414.72 186.624 
L 57.6 186.624 
z
" style="fill: #ffffff"/>
   </g>
   <g id="matplotlib.axis_3">
    <g id="xtick_51">
     <g id="line2d_55">
      <g>
       <use xlink:href="#m2f94ae07f0" x="73.832727" y="307.584" style="stroke: #000000; stroke-width: 0.8"/>
      </g>
     </g>
     <g id="text_10">
      <!-- $\mathdefault{10^{0}}$ -->
      <g transform="translate(65.032727 322.182437)scale(0.1 -0.1)">
       <use xlink:href="#DejaVuSans-31" transform="translate(0 0.765625)"/>
       <use xlink:href="#DejaVuSans-30" transform="translate(63.623047 0.765625)"/>
       <use xlink:href="#DejaVuSans-30" transform="translate(128.203125 39.046875)scale(0.7)"/>
      </g>
     </g>
    </g>
    <g id="xtick_52">
     <g id="line2d_56">
      <g>
       <use xlink:href="#m2f94ae07f0" x="293.621417" y="307.584" style="stroke: #000000; stroke-width: 0.8"/>
      </g>
     </g>
     <g id="text_11">
      <!-- $\mathdefault{10^{1}}$ -->
      <g transform="translate(284.821417 322.182437)scale(0.1 -0.1)">
       <use xlink:href="#DejaVuSans-31" transform="translate(0 0.684375)"/>
       <use xlink:href="#DejaVuSans-30" transform="translate(63.623047 0.684375)"/>
       <use xlink:href="#DejaVuSans-31" transform="translate(128.203125 38.965625)scale(0.7)"/>
      </g>
     </g>
    </g>
    <g id="xtick_53">
     <g id="line2d_57">
      <g>
       <use xlink:href="#m098ceb1982" x="63.775748" y="307.584" style="stroke: #000000; stroke-width: 0.6"/>
      </g>
     </g>
    </g>
    <g id="xtick_54">
     <g id="line2d_58">
      <g>
       <use xlink:href="#m098ceb1982" x="139.995716" y="307.584" style="stroke: #000000; stroke-width: 0.6"/>
      </g>
     </g>
    </g>
    <g id="xtick_55">
     <g id="line2d_59">
      <g>
       <use xlink:href="#m098ceb1982" x="178.698583" y="307.584" style="stroke: #000000; stroke-width: 0.6"/>
      </g>
     </g>
    </g>
    <g id="xtick_56">
     <g id="line2d_60">
      <g>
       <use xlink:href="#m098ceb1982" x="206.158704" y="307.584" style="stroke: #000000; stroke-width: 0.6"/>
      </g>
     </g>
    </g>
    <g id="xtick_57">
     <g id="line2d_61">
      <g>
       <use xlink:href="#m098ceb1982" x="227.458429" y="307.584" style="stroke: #000000; stroke-width: 0.6"/>
      </g>
     </g>
    </g>
    <g id="xtick_58">
     <g id="line2d_62">
      <g>
       <use xlink:href="#m098ceb1982" x="244.861571" y="307.584" style="stroke: #000000; stroke-width: 0.6"/>
      </g>
     </g>
    </g>
    <g id="xtick_59">
     <g id="line2d_63">
      <g>
       <use xlink:href="#m098ceb1982" x="259.575718" y="307.584" style="stroke: #000000; stroke-width: 0.6"/>
      </g>
     </g>
    </g>
    <g id="xtick_60">
     <g id="line2d_64">
      <g>
       <use xlink:href="#m098ceb1982" x="272.321692" y="307.584" style="stroke: #000000; stroke-width: 0.6"/>
      </g>
     </g>
    </g>
    <g id="xtick_61">
     <g id="line2d_65">
      <g>
       <use xlink:href="#m098ceb1982" x="283.564438" y="307.584" style="stroke: #000000; stroke-width: 0.6"/>
      </g>
     </g>
    </g>
    <g id="xtick_62">
     <g id="line2d_66">
      <g>
       <use xlink:href="#m098ceb1982" x="359.784406" y="307.584" style="stroke: #000000; stroke-width: 0.6"/>
      </g>
     </g>
    </g>
    <g id="xtick_63">
     <g id="line2d_67">
      <g>
       <use xlink:href="#m098ceb1982" x="398.487273" y="307.584" style="stroke: #000000; stroke-width: 0.6"/>
      </g>
     </g>
    </g>
   </g>
   <g id="matplotlib.axis_4">
    <g id="ytick_4">
     <g id="line2d_68">
      <g>
       <use xlink:href="#m4e13695e22" x="57.6" y="301.429653" style="stroke: #000000; stroke-width: 0.8"/>
      </g>
     </g>
     <g id="text_12">
      <!-- 0.09 -->
      <g transform="translate(28.334375 305.228872)scale(0.1 -0.1)">
       <use xlink:href="#DejaVuSans-30"/>
       <use xlink:href="#DejaVuSans-2e" x="63.623047"/>
       <use xlink:href="#DejaVuSans-30" x="95.410156"/>
       <use xlink:href="#DejaVuSans-39" x="159.033203"/>
      </g>
     </g>
    </g>
    <g id="ytick_5">
     <g id="line2d_69">
      <g>
       <use xlink:href="#m4e13695e22" x="57.6" y="272.18558" style="stroke: #000000; stroke-width: 0.8"/>
      </g>
     </g>
     <g id="text_13">
      <!-- 0.10 -->
      <g transform="translate(28.334375 275.984799)scale(0.1 -0.1)">
       <use xlink:href="#DejaVuSans-30"/>
       <use xlink:href="#DejaVuSans-2e" x="63.623047"/>
       <use xlink:href="#DejaVuSans-31" x="95.410156"/>
       <use xlink:href="#DejaVuSans-30" x="159.033203"/>
      </g>
     </g>
    </g>
    <g id="ytick_6">
     <g id="line2d_70">
      <g>
       <use xlink:href="#m4e13695e22" x="57.6" y="242.941507" style="stroke: #000000; stroke-width: 0.8"/>
      </g>
     </g>
     <g id="text_14">
      <!-- 0.11 -->
      <g transform="translate(28.334375 246.740725)scale(0.1 -0.1)">
       <use xlink:href="#DejaVuSans-30"/>
       <use xlink:href="#DejaVuSans-2e" x="63.623047"/>
       <use xlink:href="#DejaVuSans-31" x="95.410156"/>
       <use xlink:href="#DejaVuSans-31" x="159.033203"/>
      </g>
     </g>
    </g>
    <g id="ytick_7">
     <g id="line2d_71">
      <g>
       <use xlink:href="#m4e13695e22" x="57.6" y="213.697433" style="stroke: #000000; stroke-width: 0.8"/>
      </g>
     </g>
     <g id="text_15">
      <!-- 0.12 -->
      <g transform="translate(28.334375 217.496652)scale(0.1 -0.1)">
       <use xlink:href="#DejaVuSans-30"/>
       <use xlink:href="#DejaVuSans-2e" x="63.623047"/>
       <use xlink:href="#DejaVuSans-31" x="95.410156"/>
       <use xlink:href="#DejaVuSans-32" x="159.033203"/>
      </g>
     </g>
    </g>
   </g>
   <g id="line2d_72">
    <path d="M 73.832727 192.122182 
L 109.905455 246.920564 
L 145.978182 270.120427 
L 182.050909 278.727271 
L 218.123636 261.56218 
L 254.196364 286.467882 
L 290.269091 289.636491 
L 326.341818 295.732521 
L 362.414545 298.480464 
L 398.487273 302.085818 
" clip-path="url(#peeb98451b7)" style="fill: none; stroke: #1f77b4; stroke-width: 1.5; stroke-linecap: square"/>
    <g clip-path="url(#peeb98451b7)">
     <use xlink:href="#m1442eb0ea2" x="73.832727" y="192.122182" style="fill: #1f77b4; stroke: #1f77b4"/>
     <use xlink:href="#m1442eb0ea2" x="109.905455" y="246.920564" style="fill: #1f77b4; stroke: #1f77b4"/>
     <use xlink:href="#m1442eb0ea2" x="145.978182" y="270.120427" style="fill: #1f77b4; stroke: #1f77b4"/>
     <use xlink:href="#m1442eb0ea2" x="182.050909" y="278.727271" style="fill: #1f77b4; stroke: #1f77b4"/>
     <use xlink:href="#m1442eb0ea2" x="218.123636" y="261.56218" style="fill: #1f77b4; stroke: #1f77b4"/>
     <use xlink:href="#m1442eb0ea2" x="254.196364" y="286.467882" style="fill: #1f77b4; stroke: #1f77b4"/>
     <use xlink:href="#m1442eb0ea2" x="290.269091" y="289.636491" style="fill: #1f77b4; stroke: #1f77b4"/>
     <use xlink:href="#m1442eb0ea2" x="326.341818" y="295.732521" style="fill: #1f77b4; stroke: #1f77b4"/>
     <use xlink:href="#m1442eb0ea2" x="362.414545" y="298.480464" style="fill: #1f77b4; stroke: #1f77b4"/>
     <use xlink:href="#m1442eb0ea2" x="398.487273" y="302.085818" style="fill: #1f77b4; stroke: #1f77b4"/>
    </g>
   </g>
   <g id="patch_8">
    <path d="M 57.6 307.584 
L 57.6 186.624 
" style="fill: none; stroke: #000000; stroke-width: 0.8; stroke-linejoin: miter; stroke-linecap: square"/>
   </g>
   <g id="patch_9">
    <path d="M 414.72 307.584 
L 414.72 186.624 
" style="fill: none; stroke: #000000; stroke-width: 0.8; stroke-linejoin: miter; stroke-linecap: square"/>
   </g>
   <g id="patch_10">
    <path d="M 57.6 307.584 
L 414.72 307.584 
" style="fill: none; stroke: #000000; stroke-width: 0.8; stroke-linejoin: miter; stroke-linecap: square"/>
   </g>
   <g id="patch_11">
    <path d="M 57.6 186.624 
L 414.72 186.624 
" style="fill: none; stroke: #000000; stroke-width: 0.8; stroke-linejoin: miter; stroke-linecap: square"/>
   </g>
  </g>
 </g>
 <defs>
  <clipPath id="p5ddd99586b">
   <rect x="57.6" y="41.472" width="357.12" height="120.96"/>
  </clipPath>
  <clipPath id="peeb98451b7">
   <rect x="57.6" y="186.624" width="357.12" height="120.96"/>
  </clipPath>
 </defs>
</svg>
