<?xml version="1.0" encoding="utf-8" standalone="no"?>
<!DOCTYPE svg PUBLIC "-//W3C//DTD SVG 1.1//EN"
  "http://www.w3.org/Graphics/SVG/1.1/DTD/svg11.dtd">
<!-- Created with matplotlib (https://matplotlib.org/) -->
<svg height="345.6pt" version="1.1" viewBox="0 0 460.8 345.6" width="460.8pt" xmlns="http://www.w3.org/2000/svg" xmlns:xlink="http://www.w3.org/1999/xlink">
 <metadata>
  <rdf:RDF xmlns:cc="http://creativecommons.org/ns#" xmlns:dc="http://purl.org/dc/elements/1.1/" xmlns:rdf="http://www.w3.org/1999/02/22-rdf-syntax-ns#">
   <cc:Work>
    <dc:type rdf:resource="http://purl.org/dc/dcmitype/StillImage"/>
    <dc:date>2022-02-01T12:59:53.704142</dc:date>
    <dc:format>image/svg+xml</dc:format>
    <dc:creator>
     <cc:Agent>
      <dc:title>Matplotlib v3.3.4, https://matplotlib.org/</dc:title>
     </cc:Agent>
    </dc:creator>
   </cc:Work>
  </rdf:RDF>
 </metadata>
 <defs>
  <style type="text/css">*{stroke-linecap:butt;stroke-linejoin:round;}</style>
 </defs>
 <g id="figure_1">
  <g id="patch_1">
   <path d="M 0 345.6 
L 460.8 345.6 
L 460.8 0 
L 0 0 
z
" style="fill:#ffffff;"/>
  </g>
  <g id="axes_1">
   <g id="patch_2">
    <path d="M 57.6 307.584 
L 414.72 307.584 
L 414.72 41.472 
L 57.6 41.472 
z
" style="fill:#ffffff;"/>
   </g>
   <g id="matplotlib.axis_1">
    <g id="xtick_1">
     <g id="line2d_1">
      <defs>
       <path d="M 0 0 
L 0 3.5 
" id="m0e3f0ad272" style="stroke:#000000;stroke-width:0.8;"/>
      </defs>
      <g>
       <use style="stroke:#000000;stroke-width:0.8;" x="73.832727" xlink:href="#m0e3f0ad272" y="307.584"/>
      </g>
     </g>
     <g id="text_1">
      <!-- $\mathdefault{10^{5}}$ -->
      <g transform="translate(65.032727 322.182437)scale(0.1 -0.1)">
       <defs>
        <path d="M 12.40625 8.296875 
L 28.515625 8.296875 
L 28.515625 63.921875 
L 10.984375 60.40625 
L 10.984375 69.390625 
L 28.421875 72.90625 
L 38.28125 72.90625 
L 38.28125 8.296875 
L 54.390625 8.296875 
L 54.390625 0 
L 12.40625 0 
z
" id="DejaVuSans-49"/>
        <path d="M 31.78125 66.40625 
Q 24.171875 66.40625 20.328125 58.90625 
Q 16.5 51.421875 16.5 36.375 
Q 16.5 21.390625 20.328125 13.890625 
Q 24.171875 6.390625 31.78125 6.390625 
Q 39.453125 6.390625 43.28125 13.890625 
Q 47.125 21.390625 47.125 36.375 
Q 47.125 51.421875 43.28125 58.90625 
Q 39.453125 66.40625 31.78125 66.40625 
z
M 31.78125 74.21875 
Q 44.046875 74.21875 50.515625 64.515625 
Q 56.984375 54.828125 56.984375 36.375 
Q 56.984375 17.96875 50.515625 8.265625 
Q 44.046875 -1.421875 31.78125 -1.421875 
Q 19.53125 -1.421875 13.0625 8.265625 
Q 6.59375 17.96875 6.59375 36.375 
Q 6.59375 54.828125 13.0625 64.515625 
Q 19.53125 74.21875 31.78125 74.21875 
z
" id="DejaVuSans-48"/>
        <path d="M 10.796875 72.90625 
L 49.515625 72.90625 
L 49.515625 64.59375 
L 19.828125 64.59375 
L 19.828125 46.734375 
Q 21.96875 47.46875 24.109375 47.828125 
Q 26.265625 48.1875 28.421875 48.1875 
Q 40.625 48.1875 47.75 41.5 
Q 54.890625 34.8125 54.890625 23.390625 
Q 54.890625 11.625 47.5625 5.09375 
Q 40.234375 -1.421875 26.90625 -1.421875 
Q 22.3125 -1.421875 17.546875 -0.640625 
Q 12.796875 0.140625 7.71875 1.703125 
L 7.71875 11.625 
Q 12.109375 9.234375 16.796875 8.0625 
Q 21.484375 6.890625 26.703125 6.890625 
Q 35.15625 6.890625 40.078125 11.328125 
Q 45.015625 15.765625 45.015625 23.390625 
Q 45.015625 31 40.078125 35.4375 
Q 35.15625 39.890625 26.703125 39.890625 
Q 22.75 39.890625 18.8125 39.015625 
Q 14.890625 38.140625 10.796875 36.28125 
z
" id="DejaVuSans-53"/>
       </defs>
       <use transform="translate(0 0.684375)" xlink:href="#DejaVuSans-49"/>
       <use transform="translate(63.623047 0.684375)" xlink:href="#DejaVuSans-48"/>
       <use transform="translate(128.203125 38.965625)scale(0.7)" xlink:href="#DejaVuSans-53"/>
      </g>
     </g>
    </g>
    <g id="xtick_2">
     <g id="line2d_2">
      <g>
       <use style="stroke:#000000;stroke-width:0.8;" x="138.763636" xlink:href="#m0e3f0ad272" y="307.584"/>
      </g>
     </g>
     <g id="text_2">
      <!-- $\mathdefault{10^{6}}$ -->
      <g transform="translate(129.963636 322.182437)scale(0.1 -0.1)">
       <defs>
        <path d="M 33.015625 40.375 
Q 26.375 40.375 22.484375 35.828125 
Q 18.609375 31.296875 18.609375 23.390625 
Q 18.609375 15.53125 22.484375 10.953125 
Q 26.375 6.390625 33.015625 6.390625 
Q 39.65625 6.390625 43.53125 10.953125 
Q 47.40625 15.53125 47.40625 23.390625 
Q 47.40625 31.296875 43.53125 35.828125 
Q 39.65625 40.375 33.015625 40.375 
z
M 52.59375 71.296875 
L 52.59375 62.3125 
Q 48.875 64.0625 45.09375 64.984375 
Q 41.3125 65.921875 37.59375 65.921875 
Q 27.828125 65.921875 22.671875 59.328125 
Q 17.53125 52.734375 16.796875 39.40625 
Q 19.671875 43.65625 24.015625 45.921875 
Q 28.375 48.1875 33.59375 48.1875 
Q 44.578125 48.1875 50.953125 41.515625 
Q 57.328125 34.859375 57.328125 23.390625 
Q 57.328125 12.15625 50.6875 5.359375 
Q 44.046875 -1.421875 33.015625 -1.421875 
Q 20.359375 -1.421875 13.671875 8.265625 
Q 6.984375 17.96875 6.984375 36.375 
Q 6.984375 53.65625 15.1875 63.9375 
Q 23.390625 74.21875 37.203125 74.21875 
Q 40.921875 74.21875 44.703125 73.484375 
Q 48.484375 72.75 52.59375 71.296875 
z
" id="DejaVuSans-54"/>
       </defs>
       <use transform="translate(0 0.765625)" xlink:href="#DejaVuSans-49"/>
       <use transform="translate(63.623047 0.765625)" xlink:href="#DejaVuSans-48"/>
       <use transform="translate(128.203125 39.046875)scale(0.7)" xlink:href="#DejaVuSans-54"/>
      </g>
     </g>
    </g>
    <g id="xtick_3">
     <g id="line2d_3">
      <g>
       <use style="stroke:#000000;stroke-width:0.8;" x="203.694545" xlink:href="#m0e3f0ad272" y="307.584"/>
      </g>
     </g>
     <g id="text_3">
      <!-- $\mathdefault{10^{7}}$ -->
      <g transform="translate(194.894545 322.182437)scale(0.1 -0.1)">
       <defs>
        <path d="M 8.203125 72.90625 
L 55.078125 72.90625 
L 55.078125 68.703125 
L 28.609375 0 
L 18.3125 0 
L 43.21875 64.59375 
L 8.203125 64.59375 
z
" id="DejaVuSans-55"/>
       </defs>
       <use transform="translate(0 0.684375)" xlink:href="#DejaVuSans-49"/>
       <use transform="translate(63.623047 0.684375)" xlink:href="#DejaVuSans-48"/>
       <use transform="translate(128.203125 38.965625)scale(0.7)" xlink:href="#DejaVuSans-55"/>
      </g>
     </g>
    </g>
    <g id="xtick_4">
     <g id="line2d_4">
      <g>
       <use style="stroke:#000000;stroke-width:0.8;" x="268.625455" xlink:href="#m0e3f0ad272" y="307.584"/>
      </g>
     </g>
     <g id="text_4">
      <!-- $\mathdefault{10^{8}}$ -->
      <g transform="translate(259.825455 322.182437)scale(0.1 -0.1)">
       <defs>
        <path d="M 31.78125 34.625 
Q 24.75 34.625 20.71875 30.859375 
Q 16.703125 27.09375 16.703125 20.515625 
Q 16.703125 13.921875 20.71875 10.15625 
Q 24.75 6.390625 31.78125 6.390625 
Q 38.8125 6.390625 42.859375 10.171875 
Q 46.921875 13.96875 46.921875 20.515625 
Q 46.921875 27.09375 42.890625 30.859375 
Q 38.875 34.625 31.78125 34.625 
z
M 21.921875 38.8125 
Q 15.578125 40.375 12.03125 44.71875 
Q 8.5 49.078125 8.5 55.328125 
Q 8.5 64.0625 14.71875 69.140625 
Q 20.953125 74.21875 31.78125 74.21875 
Q 42.671875 74.21875 48.875 69.140625 
Q 55.078125 64.0625 55.078125 55.328125 
Q 55.078125 49.078125 51.53125 44.71875 
Q 48 40.375 41.703125 38.8125 
Q 48.828125 37.15625 52.796875 32.3125 
Q 56.78125 27.484375 56.78125 20.515625 
Q 56.78125 9.90625 50.3125 4.234375 
Q 43.84375 -1.421875 31.78125 -1.421875 
Q 19.734375 -1.421875 13.25 4.234375 
Q 6.78125 9.90625 6.78125 20.515625 
Q 6.78125 27.484375 10.78125 32.3125 
Q 14.796875 37.15625 21.921875 38.8125 
z
M 18.3125 54.390625 
Q 18.3125 48.734375 21.84375 45.5625 
Q 25.390625 42.390625 31.78125 42.390625 
Q 38.140625 42.390625 41.71875 45.5625 
Q 45.3125 48.734375 45.3125 54.390625 
Q 45.3125 60.0625 41.71875 63.234375 
Q 38.140625 66.40625 31.78125 66.40625 
Q 25.390625 66.40625 21.84375 63.234375 
Q 18.3125 60.0625 18.3125 54.390625 
z
" id="DejaVuSans-56"/>
       </defs>
       <use transform="translate(0 0.765625)" xlink:href="#DejaVuSans-49"/>
       <use transform="translate(63.623047 0.765625)" xlink:href="#DejaVuSans-48"/>
       <use transform="translate(128.203125 39.046875)scale(0.7)" xlink:href="#DejaVuSans-56"/>
      </g>
     </g>
    </g>
    <g id="xtick_5">
     <g id="line2d_5">
      <g>
       <use style="stroke:#000000;stroke-width:0.8;" x="333.556364" xlink:href="#m0e3f0ad272" y="307.584"/>
      </g>
     </g>
     <g id="text_5">
      <!-- $\mathdefault{10^{9}}$ -->
      <g transform="translate(324.756364 322.182437)scale(0.1 -0.1)">
       <defs>
        <path d="M 10.984375 1.515625 
L 10.984375 10.5 
Q 14.703125 8.734375 18.5 7.8125 
Q 22.3125 6.890625 25.984375 6.890625 
Q 35.75 6.890625 40.890625 13.453125 
Q 46.046875 20.015625 46.78125 33.40625 
Q 43.953125 29.203125 39.59375 26.953125 
Q 35.25 24.703125 29.984375 24.703125 
Q 19.046875 24.703125 12.671875 31.3125 
Q 6.296875 37.9375 6.296875 49.421875 
Q 6.296875 60.640625 12.9375 67.421875 
Q 19.578125 74.21875 30.609375 74.21875 
Q 43.265625 74.21875 49.921875 64.515625 
Q 56.59375 54.828125 56.59375 36.375 
Q 56.59375 19.140625 48.40625 8.859375 
Q 40.234375 -1.421875 26.421875 -1.421875 
Q 22.703125 -1.421875 18.890625 -0.6875 
Q 15.09375 0.046875 10.984375 1.515625 
z
M 30.609375 32.421875 
Q 37.25 32.421875 41.125 36.953125 
Q 45.015625 41.5 45.015625 49.421875 
Q 45.015625 57.28125 41.125 61.84375 
Q 37.25 66.40625 30.609375 66.40625 
Q 23.96875 66.40625 20.09375 61.84375 
Q 16.21875 57.28125 16.21875 49.421875 
Q 16.21875 41.5 20.09375 36.953125 
Q 23.96875 32.421875 30.609375 32.421875 
z
" id="DejaVuSans-57"/>
       </defs>
       <use transform="translate(0 0.765625)" xlink:href="#DejaVuSans-49"/>
       <use transform="translate(63.623047 0.765625)" xlink:href="#DejaVuSans-48"/>
       <use transform="translate(128.203125 39.046875)scale(0.7)" xlink:href="#DejaVuSans-57"/>
      </g>
     </g>
    </g>
    <g id="xtick_6">
     <g id="line2d_6">
      <g>
       <use style="stroke:#000000;stroke-width:0.8;" x="398.487273" xlink:href="#m0e3f0ad272" y="307.584"/>
      </g>
     </g>
     <g id="text_6">
      <!-- $\mathdefault{10^{10}}$ -->
      <g transform="translate(387.437273 322.182437)scale(0.1 -0.1)">
       <use transform="translate(0 0.765625)" xlink:href="#DejaVuSans-49"/>
       <use transform="translate(63.623047 0.765625)" xlink:href="#DejaVuSans-48"/>
       <use transform="translate(128.203125 39.046875)scale(0.7)" xlink:href="#DejaVuSans-49"/>
       <use transform="translate(172.739258 39.046875)scale(0.7)" xlink:href="#DejaVuSans-48"/>
      </g>
     </g>
    </g>
    <g id="xtick_7">
     <g id="line2d_7">
      <defs>
       <path d="M 0 0 
L 0 2 
" id="m92b2167788" style="stroke:#000000;stroke-width:0.6;"/>
      </defs>
      <g>
       <use style="stroke:#000000;stroke-width:0.6;" x="59.427886" xlink:href="#m92b2167788" y="307.584"/>
      </g>
     </g>
    </g>
    <g id="xtick_8">
     <g id="line2d_8">
      <g>
       <use style="stroke:#000000;stroke-width:0.6;" x="63.774802" xlink:href="#m92b2167788" y="307.584"/>
      </g>
     </g>
    </g>
    <g id="xtick_9">
     <g id="line2d_9">
      <g>
       <use style="stroke:#000000;stroke-width:0.6;" x="67.540272" xlink:href="#m92b2167788" y="307.584"/>
      </g>
     </g>
    </g>
    <g id="xtick_10">
     <g id="line2d_10">
      <g>
       <use style="stroke:#000000;stroke-width:0.6;" x="70.861652" xlink:href="#m92b2167788" y="307.584"/>
      </g>
     </g>
    </g>
    <g id="xtick_11">
     <g id="line2d_11">
      <g>
       <use style="stroke:#000000;stroke-width:0.6;" x="93.378879" xlink:href="#m92b2167788" y="307.584"/>
      </g>
     </g>
    </g>
    <g id="xtick_12">
     <g id="line2d_12">
      <g>
       <use style="stroke:#000000;stroke-width:0.6;" x="104.812644" xlink:href="#m92b2167788" y="307.584"/>
      </g>
     </g>
    </g>
    <g id="xtick_13">
     <g id="line2d_13">
      <g>
       <use style="stroke:#000000;stroke-width:0.6;" x="112.92503" xlink:href="#m92b2167788" y="307.584"/>
      </g>
     </g>
    </g>
    <g id="xtick_14">
     <g id="line2d_14">
      <g>
       <use style="stroke:#000000;stroke-width:0.6;" x="119.217485" xlink:href="#m92b2167788" y="307.584"/>
      </g>
     </g>
    </g>
    <g id="xtick_15">
     <g id="line2d_15">
      <g>
       <use style="stroke:#000000;stroke-width:0.6;" x="124.358795" xlink:href="#m92b2167788" y="307.584"/>
      </g>
     </g>
    </g>
    <g id="xtick_16">
     <g id="line2d_16">
      <g>
       <use style="stroke:#000000;stroke-width:0.6;" x="128.705711" xlink:href="#m92b2167788" y="307.584"/>
      </g>
     </g>
    </g>
    <g id="xtick_17">
     <g id="line2d_17">
      <g>
       <use style="stroke:#000000;stroke-width:0.6;" x="132.471181" xlink:href="#m92b2167788" y="307.584"/>
      </g>
     </g>
    </g>
    <g id="xtick_18">
     <g id="line2d_18">
      <g>
       <use style="stroke:#000000;stroke-width:0.6;" x="135.792561" xlink:href="#m92b2167788" y="307.584"/>
      </g>
     </g>
    </g>
    <g id="xtick_19">
     <g id="line2d_19">
      <g>
       <use style="stroke:#000000;stroke-width:0.6;" x="158.309788" xlink:href="#m92b2167788" y="307.584"/>
      </g>
     </g>
    </g>
    <g id="xtick_20">
     <g id="line2d_20">
      <g>
       <use style="stroke:#000000;stroke-width:0.6;" x="169.743553" xlink:href="#m92b2167788" y="307.584"/>
      </g>
     </g>
    </g>
    <g id="xtick_21">
     <g id="line2d_21">
      <g>
       <use style="stroke:#000000;stroke-width:0.6;" x="177.855939" xlink:href="#m92b2167788" y="307.584"/>
      </g>
     </g>
    </g>
    <g id="xtick_22">
     <g id="line2d_22">
      <g>
       <use style="stroke:#000000;stroke-width:0.6;" x="184.148394" xlink:href="#m92b2167788" y="307.584"/>
      </g>
     </g>
    </g>
    <g id="xtick_23">
     <g id="line2d_23">
      <g>
       <use style="stroke:#000000;stroke-width:0.6;" x="189.289704" xlink:href="#m92b2167788" y="307.584"/>
      </g>
     </g>
    </g>
    <g id="xtick_24">
     <g id="line2d_24">
      <g>
       <use style="stroke:#000000;stroke-width:0.6;" x="193.63662" xlink:href="#m92b2167788" y="307.584"/>
      </g>
     </g>
    </g>
    <g id="xtick_25">
     <g id="line2d_25">
      <g>
       <use style="stroke:#000000;stroke-width:0.6;" x="197.40209" xlink:href="#m92b2167788" y="307.584"/>
      </g>
     </g>
    </g>
    <g id="xtick_26">
     <g id="line2d_26">
      <g>
       <use style="stroke:#000000;stroke-width:0.6;" x="200.72347" xlink:href="#m92b2167788" y="307.584"/>
      </g>
     </g>
    </g>
    <g id="xtick_27">
     <g id="line2d_27">
      <g>
       <use style="stroke:#000000;stroke-width:0.6;" x="223.240697" xlink:href="#m92b2167788" y="307.584"/>
      </g>
     </g>
    </g>
    <g id="xtick_28">
     <g id="line2d_28">
      <g>
       <use style="stroke:#000000;stroke-width:0.6;" x="234.674462" xlink:href="#m92b2167788" y="307.584"/>
      </g>
     </g>
    </g>
    <g id="xtick_29">
     <g id="line2d_29">
      <g>
       <use style="stroke:#000000;stroke-width:0.6;" x="242.786848" xlink:href="#m92b2167788" y="307.584"/>
      </g>
     </g>
    </g>
    <g id="xtick_30">
     <g id="line2d_30">
      <g>
       <use style="stroke:#000000;stroke-width:0.6;" x="249.079303" xlink:href="#m92b2167788" y="307.584"/>
      </g>
     </g>
    </g>
    <g id="xtick_31">
     <g id="line2d_31">
      <g>
       <use style="stroke:#000000;stroke-width:0.6;" x="254.220614" xlink:href="#m92b2167788" y="307.584"/>
      </g>
     </g>
    </g>
    <g id="xtick_32">
     <g id="line2d_32">
      <g>
       <use style="stroke:#000000;stroke-width:0.6;" x="258.567529" xlink:href="#m92b2167788" y="307.584"/>
      </g>
     </g>
    </g>
    <g id="xtick_33">
     <g id="line2d_33">
      <g>
       <use style="stroke:#000000;stroke-width:0.6;" x="262.332999" xlink:href="#m92b2167788" y="307.584"/>
      </g>
     </g>
    </g>
    <g id="xtick_34">
     <g id="line2d_34">
      <g>
       <use style="stroke:#000000;stroke-width:0.6;" x="265.654379" xlink:href="#m92b2167788" y="307.584"/>
      </g>
     </g>
    </g>
    <g id="xtick_35">
     <g id="line2d_35">
      <g>
       <use style="stroke:#000000;stroke-width:0.6;" x="288.171606" xlink:href="#m92b2167788" y="307.584"/>
      </g>
     </g>
    </g>
    <g id="xtick_36">
     <g id="line2d_36">
      <g>
       <use style="stroke:#000000;stroke-width:0.6;" x="299.605371" xlink:href="#m92b2167788" y="307.584"/>
      </g>
     </g>
    </g>
    <g id="xtick_37">
     <g id="line2d_37">
      <g>
       <use style="stroke:#000000;stroke-width:0.6;" x="307.717757" xlink:href="#m92b2167788" y="307.584"/>
      </g>
     </g>
    </g>
    <g id="xtick_38">
     <g id="line2d_38">
      <g>
       <use style="stroke:#000000;stroke-width:0.6;" x="314.010212" xlink:href="#m92b2167788" y="307.584"/>
      </g>
     </g>
    </g>
    <g id="xtick_39">
     <g id="line2d_39">
      <g>
       <use style="stroke:#000000;stroke-width:0.6;" x="319.151523" xlink:href="#m92b2167788" y="307.584"/>
      </g>
     </g>
    </g>
    <g id="xtick_40">
     <g id="line2d_40">
      <g>
       <use style="stroke:#000000;stroke-width:0.6;" x="323.498439" xlink:href="#m92b2167788" y="307.584"/>
      </g>
     </g>
    </g>
    <g id="xtick_41">
     <g id="line2d_41">
      <g>
       <use style="stroke:#000000;stroke-width:0.6;" x="327.263908" xlink:href="#m92b2167788" y="307.584"/>
      </g>
     </g>
    </g>
    <g id="xtick_42">
     <g id="line2d_42">
      <g>
       <use style="stroke:#000000;stroke-width:0.6;" x="330.585288" xlink:href="#m92b2167788" y="307.584"/>
      </g>
     </g>
    </g>
    <g id="xtick_43">
     <g id="line2d_43">
      <g>
       <use style="stroke:#000000;stroke-width:0.6;" x="353.102515" xlink:href="#m92b2167788" y="307.584"/>
      </g>
     </g>
    </g>
    <g id="xtick_44">
     <g id="line2d_44">
      <g>
       <use style="stroke:#000000;stroke-width:0.6;" x="364.53628" xlink:href="#m92b2167788" y="307.584"/>
      </g>
     </g>
    </g>
    <g id="xtick_45">
     <g id="line2d_45">
      <g>
       <use style="stroke:#000000;stroke-width:0.6;" x="372.648666" xlink:href="#m92b2167788" y="307.584"/>
      </g>
     </g>
    </g>
    <g id="xtick_46">
     <g id="line2d_46">
      <g>
       <use style="stroke:#000000;stroke-width:0.6;" x="378.941121" xlink:href="#m92b2167788" y="307.584"/>
      </g>
     </g>
    </g>
    <g id="xtick_47">
     <g id="line2d_47">
      <g>
       <use style="stroke:#000000;stroke-width:0.6;" x="384.082432" xlink:href="#m92b2167788" y="307.584"/>
      </g>
     </g>
    </g>
    <g id="xtick_48">
     <g id="line2d_48">
      <g>
       <use style="stroke:#000000;stroke-width:0.6;" x="388.429348" xlink:href="#m92b2167788" y="307.584"/>
      </g>
     </g>
    </g>
    <g id="xtick_49">
     <g id="line2d_49">
      <g>
       <use style="stroke:#000000;stroke-width:0.6;" x="392.194817" xlink:href="#m92b2167788" y="307.584"/>
      </g>
     </g>
    </g>
    <g id="xtick_50">
     <g id="line2d_50">
      <g>
       <use style="stroke:#000000;stroke-width:0.6;" x="395.516197" xlink:href="#m92b2167788" y="307.584"/>
      </g>
     </g>
    </g>
   </g>
   <g id="matplotlib.axis_2">
    <g id="ytick_1">
     <g id="line2d_51">
      <defs>
       <path d="M 0 0 
L -3.5 0 
" id="m1f3adfb614" style="stroke:#000000;stroke-width:0.8;"/>
      </defs>
      <g>
       <use style="stroke:#000000;stroke-width:0.8;" x="57.6" xlink:href="#m1f3adfb614" y="295.663072"/>
      </g>
     </g>
     <g id="text_7">
      <!-- 0.000 -->
      <g transform="translate(21.971875 299.46229)scale(0.1 -0.1)">
       <defs>
        <path d="M 10.6875 12.40625 
L 21 12.40625 
L 21 0 
L 10.6875 0 
z
" id="DejaVuSans-46"/>
       </defs>
       <use xlink:href="#DejaVuSans-48"/>
       <use x="63.623047" xlink:href="#DejaVuSans-46"/>
       <use x="95.410156" xlink:href="#DejaVuSans-48"/>
       <use x="159.033203" xlink:href="#DejaVuSans-48"/>
       <use x="222.65625" xlink:href="#DejaVuSans-48"/>
      </g>
     </g>
    </g>
    <g id="ytick_2">
     <g id="line2d_52">
      <g>
       <use style="stroke:#000000;stroke-width:0.8;" x="57.6" xlink:href="#m1f3adfb614" y="265.375395"/>
      </g>
     </g>
     <g id="text_8">
      <!-- 0.025 -->
      <g transform="translate(21.971875 269.174613)scale(0.1 -0.1)">
       <defs>
        <path d="M 19.1875 8.296875 
L 53.609375 8.296875 
L 53.609375 0 
L 7.328125 0 
L 7.328125 8.296875 
Q 12.9375 14.109375 22.625 23.890625 
Q 32.328125 33.6875 34.8125 36.53125 
Q 39.546875 41.84375 41.421875 45.53125 
Q 43.3125 49.21875 43.3125 52.78125 
Q 43.3125 58.59375 39.234375 62.25 
Q 35.15625 65.921875 28.609375 65.921875 
Q 23.96875 65.921875 18.8125 64.3125 
Q 13.671875 62.703125 7.8125 59.421875 
L 7.8125 69.390625 
Q 13.765625 71.78125 18.9375 73 
Q 24.125 74.21875 28.421875 74.21875 
Q 39.75 74.21875 46.484375 68.546875 
Q 53.21875 62.890625 53.21875 53.421875 
Q 53.21875 48.921875 51.53125 44.890625 
Q 49.859375 40.875 45.40625 35.40625 
Q 44.1875 33.984375 37.640625 27.21875 
Q 31.109375 20.453125 19.1875 8.296875 
z
" id="DejaVuSans-50"/>
       </defs>
       <use xlink:href="#DejaVuSans-48"/>
       <use x="63.623047" xlink:href="#DejaVuSans-46"/>
       <use x="95.410156" xlink:href="#DejaVuSans-48"/>
       <use x="159.033203" xlink:href="#DejaVuSans-50"/>
       <use x="222.65625" xlink:href="#DejaVuSans-53"/>
      </g>
     </g>
    </g>
    <g id="ytick_3">
     <g id="line2d_53">
      <g>
       <use style="stroke:#000000;stroke-width:0.8;" x="57.6" xlink:href="#m1f3adfb614" y="235.087718"/>
      </g>
     </g>
     <g id="text_9">
      <!-- 0.050 -->
      <g transform="translate(21.971875 238.886936)scale(0.1 -0.1)">
       <use xlink:href="#DejaVuSans-48"/>
       <use x="63.623047" xlink:href="#DejaVuSans-46"/>
       <use x="95.410156" xlink:href="#DejaVuSans-48"/>
       <use x="159.033203" xlink:href="#DejaVuSans-53"/>
       <use x="222.65625" xlink:href="#DejaVuSans-48"/>
      </g>
     </g>
    </g>
    <g id="ytick_4">
     <g id="line2d_54">
      <g>
       <use style="stroke:#000000;stroke-width:0.8;" x="57.6" xlink:href="#m1f3adfb614" y="204.800041"/>
      </g>
     </g>
     <g id="text_10">
      <!-- 0.075 -->
      <g transform="translate(21.971875 208.599259)scale(0.1 -0.1)">
       <use xlink:href="#DejaVuSans-48"/>
       <use x="63.623047" xlink:href="#DejaVuSans-46"/>
       <use x="95.410156" xlink:href="#DejaVuSans-48"/>
       <use x="159.033203" xlink:href="#DejaVuSans-55"/>
       <use x="222.65625" xlink:href="#DejaVuSans-53"/>
      </g>
     </g>
    </g>
    <g id="ytick_5">
     <g id="line2d_55">
      <g>
       <use style="stroke:#000000;stroke-width:0.8;" x="57.6" xlink:href="#m1f3adfb614" y="174.512364"/>
      </g>
     </g>
     <g id="text_11">
      <!-- 0.100 -->
      <g transform="translate(21.971875 178.311582)scale(0.1 -0.1)">
       <use xlink:href="#DejaVuSans-48"/>
       <use x="63.623047" xlink:href="#DejaVuSans-46"/>
       <use x="95.410156" xlink:href="#DejaVuSans-49"/>
       <use x="159.033203" xlink:href="#DejaVuSans-48"/>
       <use x="222.65625" xlink:href="#DejaVuSans-48"/>
      </g>
     </g>
    </g>
    <g id="ytick_6">
     <g id="line2d_56">
      <g>
       <use style="stroke:#000000;stroke-width:0.8;" x="57.6" xlink:href="#m1f3adfb614" y="144.224687"/>
      </g>
     </g>
     <g id="text_12">
      <!-- 0.125 -->
      <g transform="translate(21.971875 148.023905)scale(0.1 -0.1)">
       <use xlink:href="#DejaVuSans-48"/>
       <use x="63.623047" xlink:href="#DejaVuSans-46"/>
       <use x="95.410156" xlink:href="#DejaVuSans-49"/>
       <use x="159.033203" xlink:href="#DejaVuSans-50"/>
       <use x="222.65625" xlink:href="#DejaVuSans-53"/>
      </g>
     </g>
    </g>
    <g id="ytick_7">
     <g id="line2d_57">
      <g>
       <use style="stroke:#000000;stroke-width:0.8;" x="57.6" xlink:href="#m1f3adfb614" y="113.93701"/>
      </g>
     </g>
     <g id="text_13">
      <!-- 0.150 -->
      <g transform="translate(21.971875 117.736228)scale(0.1 -0.1)">
       <use xlink:href="#DejaVuSans-48"/>
       <use x="63.623047" xlink:href="#DejaVuSans-46"/>
       <use x="95.410156" xlink:href="#DejaVuSans-49"/>
       <use x="159.033203" xlink:href="#DejaVuSans-53"/>
       <use x="222.65625" xlink:href="#DejaVuSans-48"/>
      </g>
     </g>
    </g>
    <g id="ytick_8">
     <g id="line2d_58">
      <g>
       <use style="stroke:#000000;stroke-width:0.8;" x="57.6" xlink:href="#m1f3adfb614" y="83.649333"/>
      </g>
     </g>
     <g id="text_14">
      <!-- 0.175 -->
      <g transform="translate(21.971875 87.448552)scale(0.1 -0.1)">
       <use xlink:href="#DejaVuSans-48"/>
       <use x="63.623047" xlink:href="#DejaVuSans-46"/>
       <use x="95.410156" xlink:href="#DejaVuSans-49"/>
       <use x="159.033203" xlink:href="#DejaVuSans-55"/>
       <use x="222.65625" xlink:href="#DejaVuSans-53"/>
      </g>
     </g>
    </g>
    <g id="ytick_9">
     <g id="line2d_59">
      <g>
       <use style="stroke:#000000;stroke-width:0.8;" x="57.6" xlink:href="#m1f3adfb614" y="53.361656"/>
      </g>
     </g>
     <g id="text_15">
      <!-- 0.200 -->
      <g transform="translate(21.971875 57.160875)scale(0.1 -0.1)">
       <use xlink:href="#DejaVuSans-48"/>
       <use x="63.623047" xlink:href="#DejaVuSans-46"/>
       <use x="95.410156" xlink:href="#DejaVuSans-50"/>
       <use x="159.033203" xlink:href="#DejaVuSans-48"/>
       <use x="222.65625" xlink:href="#DejaVuSans-48"/>
      </g>
     </g>
    </g>
   </g>
   <g id="line2d_60">
    <path clip-path="url(#pa88ba131ad)" d="M 73.832727 292.118473 
L 78.985974 292.13636 
L 84.139221 292.147274 
L 89.292468 292.150538 
L 94.445714 292.146775 
L 99.598961 292.13332 
L 104.752208 292.111065 
L 109.905455 292.08033 
L 115.058701 292.038881 
L 120.211948 291.987766 
L 125.365195 291.924044 
L 130.518442 291.848144 
L 135.671688 291.759337 
L 140.824935 291.657609 
L 145.978182 291.540274 
L 151.131429 291.409267 
L 156.284675 291.262761 
L 161.437922 291.099489 
L 166.591169 290.916804 
L 171.744416 290.710679 
L 176.897662 290.467651 
L 182.050909 290.1727 
L 187.204156 289.790346 
L 192.357403 289.275255 
L 197.510649 288.555393 
L 202.663896 287.535427 
L 207.817143 286.089886 
L 212.97039 284.052976 
L 218.123636 281.242354 
L 223.276883 277.518899 
L 228.43013 272.871341 
L 233.583377 267.552394 
L 238.736623 262.122444 
L 243.88987 257.291351 
L 249.043117 253.525754 
L 254.196364 250.589306 
L 259.34961 247.676649 
L 264.502857 244.461988 
L 269.656104 242.228296 
L 274.809351 243.482339 
L 279.962597 249.977734 
L 285.115844 243.117823 
L 290.269091 249.328817 
L 295.422338 252.717899 
L 300.575584 253.278306 
L 305.728831 258.971548 
L 310.882078 264.644239 
L 316.035325 270.445921 
L 321.188571 291.713963 
L 326.341818 291.101959 
L 331.495065 289.907836 
L 336.648312 281.83046 
L 341.801558 280.769485 
L 346.954805 279.001671 
L 352.108052 277.364103 
L 357.261299 277.357755 
L 362.414545 280.515432 
L 367.567792 260.416149 
L 372.721039 259.299545 
L 377.874286 258.399621 
L 383.027532 281.266444 
L 388.180779 266.132782 
L 393.334026 272.300166 
L 398.487273 279.387911 
" style="fill:none;stroke:#1f77b4;stroke-linecap:square;stroke-width:1.5;"/>
   </g>
   <g id="line2d_61">
    <path clip-path="url(#pa88ba131ad)" d="M 73.832727 271.539179 
L 78.985974 271.676019 
L 84.139221 271.831572 
L 89.292468 271.999011 
L 94.445714 272.184906 
L 99.598961 272.382461 
L 104.752208 272.609392 
L 109.905455 272.857645 
L 115.058701 273.116064 
L 120.211948 273.406004 
L 125.365195 273.709071 
L 130.518442 274.040732 
L 135.671688 274.390365 
L 140.824935 274.760873 
L 145.978182 275.14253 
L 151.131429 275.538533 
L 156.284675 275.942865 
L 161.437922 276.35255 
L 166.591169 276.756461 
L 171.744416 277.155523 
L 176.897662 277.538607 
L 182.050909 277.904439 
L 187.204156 278.249544 
L 192.357403 278.570234 
L 197.510649 278.874398 
L 202.663896 279.161248 
L 207.817143 279.43655 
L 212.97039 279.700435 
L 218.123636 279.944185 
L 223.276883 280.128746 
L 228.43013 280.197657 
L 233.583377 280.06858 
L 238.736623 279.657054 
L 243.88987 278.915937 
L 249.043117 277.872049 
L 254.196364 276.657631 
L 259.34961 275.525412 
L 264.502857 274.809941 
L 269.656104 274.860894 
L 274.809351 275.897199 
L 279.962597 277.915901 
L 285.115844 280.619582 
L 290.269091 283.566688 
L 295.422338 286.319048 
L 300.575584 288.601882 
L 305.728831 290.331231 
L 310.882078 253.900345 
L 316.035325 292.266522 
L 321.188571 292.454318 
L 326.341818 292.016313 
L 331.495065 290.849414 
L 336.648312 281.067951 
L 341.801558 279.541035 
L 346.954805 277.421799 
L 352.108052 275.627862 
L 357.261299 275.868234 
L 362.414545 286.989329 
L 367.567792 254.422873 
L 372.721039 254.07004 
L 377.874286 256.249089 
L 383.027532 281.344757 
L 388.180779 265.528301 
L 393.334026 272.846459 
L 398.487273 279.748044 
" style="fill:none;stroke:#ff7f0e;stroke-linecap:square;stroke-width:1.5;"/>
   </g>
   <g id="line2d_62">
    <path clip-path="url(#pa88ba131ad)" d="M 73.832727 268.265307 
L 78.985974 268.537887 
L 84.139221 268.833699 
L 89.292468 269.160417 
L 94.445714 269.525019 
L 99.598961 269.929492 
L 104.752208 270.371523 
L 109.905455 270.854737 
L 115.058701 271.383035 
L 120.211948 271.956133 
L 125.365195 272.575792 
L 130.518442 273.245375 
L 135.671688 273.960145 
L 140.824935 274.719789 
L 145.978182 275.522388 
L 151.131429 276.360406 
L 156.284675 277.236851 
L 161.437922 278.13656 
L 166.591169 279.056291 
L 171.744416 279.98924 
L 176.897662 280.922177 
L 182.050909 281.849307 
L 187.204156 282.759999 
L 192.357403 283.647776 
L 197.510649 284.502471 
L 202.663896 285.313841 
L 207.817143 286.074329 
L 212.97039 286.770707 
L 218.123636 287.382398 
L 223.276883 287.893809 
L 228.43013 288.276567 
L 233.583377 288.51406 
L 238.736623 288.594999 
L 243.88987 288.534026 
L 249.043117 288.372842 
L 254.196364 288.199811 
L 259.34961 288.12963 
L 264.502857 288.272694 
L 269.656104 288.684263 
L 274.809351 262.348382 
L 279.962597 252.508758 
L 285.115844 254.722402 
L 290.269091 262.125291 
L 295.422338 270.847337 
L 300.575584 278.386043 
L 305.728831 283.925696 
L 310.882078 287.578649 
L 316.035325 289.70902 
L 321.188571 290.579386 
L 326.341818 290.186898 
L 331.495065 288.629844 
L 336.648312 286.549301 
L 341.801558 284.544023 
L 346.954805 271.350477 
L 352.108052 270.163703 
L 357.261299 270.862524 
L 362.414545 285.842354 
L 367.567792 244.840018 
L 372.721039 245.821998 
L 377.874286 251.321103 
L 383.027532 279.271169 
L 388.180779 260.258738 
L 393.334026 271.597691 
L 398.487273 274.642915 
" style="fill:none;stroke:#2ca02c;stroke-linecap:square;stroke-width:1.5;"/>
   </g>
   <g id="line2d_63">
    <path clip-path="url(#pa88ba131ad)" d="M 73.832727 292.294364 
L 78.985974 292.298236 
L 84.139221 292.294274 
L 89.292468 292.282365 
L 94.445714 292.261874 
L 99.598961 292.232419 
L 104.752208 292.193116 
L 109.905455 292.143774 
L 115.058701 292.083769 
L 120.211948 292.010894 
L 125.365195 291.926169 
L 130.518442 291.828595 
L 135.671688 291.716081 
L 140.824935 291.590525 
L 145.978182 291.449395 
L 151.131429 291.291558 
L 156.284675 291.115365 
L 161.437922 290.914412 
L 166.591169 290.680212 
L 171.744416 290.395158 
L 176.897662 290.026781 
L 182.050909 289.531717 
L 187.204156 288.841067 
L 192.357403 287.862298 
L 197.510649 286.47098 
L 202.663896 284.508061 
L 207.817143 281.791996 
L 212.97039 278.171067 
L 218.123636 273.622997 
L 223.276883 268.377529 
L 228.43013 262.970904 
L 233.583377 258.114074 
L 238.736623 254.286153 
L 243.88987 251.258858 
L 249.043117 248.208797 
L 254.196364 244.768454 
L 259.34961 242.229058 
L 264.502857 243.239687 
L 269.656104 249.693084 
L 274.809351 242.220911 
L 279.962597 248.361419 
L 285.115844 251.533349 
L 290.269091 252.327611 
L 295.422338 258.356733 
L 300.575584 264.537039 
L 305.728831 291.978144 
L 310.882078 291.942717 
L 316.035325 280.484734 
L 321.188571 282.740709 
L 326.341818 282.92951 
L 331.495065 281.489417 
L 336.648312 278.809607 
L 341.801558 275.828501 
L 346.954805 273.077601 
L 352.108052 271.258175 
L 357.261299 270.991055 
L 362.414545 275.51345 
L 367.567792 271.434861 
L 372.721039 271.079398 
L 377.874286 268.0726 
L 383.027532 274.871989 
L 388.180779 278.008142 
L 393.334026 274.243134 
L 398.487273 279.862587 
" style="fill:none;stroke:#d62728;stroke-linecap:square;stroke-width:1.5;"/>
   </g>
   <g id="line2d_64">
    <path clip-path="url(#pa88ba131ad)" d="M 73.832727 269.488755 
L 78.985974 269.675189 
L 84.139221 269.882742 
L 89.292468 270.108414 
L 94.445714 270.357826 
L 99.598961 270.630722 
L 104.752208 270.923966 
L 109.905455 271.242224 
L 115.058701 271.589815 
L 120.211948 271.956578 
L 125.365195 272.349806 
L 130.518442 272.764312 
L 135.671688 273.195787 
L 140.824935 273.640589 
L 145.978182 274.101618 
L 151.131429 274.563022 
L 156.284675 275.027718 
L 161.437922 275.491806 
L 166.591169 275.932907 
L 171.744416 276.36127 
L 176.897662 276.766338 
L 182.050909 277.148025 
L 187.204156 277.505592 
L 192.357403 277.848606 
L 197.510649 278.180579 
L 202.663896 278.49801 
L 207.817143 278.792756 
L 212.97039 279.032725 
L 218.123636 279.150948 
L 223.276883 279.063095 
L 228.43013 278.67585 
L 233.583377 277.932077 
L 238.736623 276.850832 
L 243.88987 275.563735 
L 249.043117 274.332566 
L 254.196364 273.509724 
L 259.34961 273.470742 
L 264.502857 274.466004 
L 269.656104 276.519302 
L 274.809351 279.334107 
L 279.962597 282.442936 
L 285.115844 285.389261 
L 290.269091 287.868559 
L 295.422338 289.783295 
L 300.575584 291.159617 
L 305.728831 292.034812 
L 310.882078 292.34033 
L 316.035325 292.003902 
L 321.188571 290.863162 
L 326.341818 280.500016 
L 331.495065 278.805874 
L 336.648312 275.813793 
L 341.801558 272.485773 
L 346.954805 269.437436 
L 352.108052 267.562872 
L 357.261299 267.626485 
L 362.414545 273.155309 
L 367.567792 269.839088 
L 372.721039 270.061259 
L 377.874286 270.89103 
L 383.027532 274.534776 
L 388.180779 282.944705 
L 393.334026 273.62152 
L 398.487273 287.837021 
" style="fill:none;stroke:#9467bd;stroke-linecap:square;stroke-width:1.5;"/>
   </g>
   <g id="line2d_65">
    <path clip-path="url(#pa88ba131ad)" d="M 73.832727 267.708681 
L 78.985974 268.088344 
L 84.139221 268.506378 
L 89.292468 268.968614 
L 94.445714 269.474475 
L 99.598961 270.03575 
L 104.752208 270.649658 
L 109.905455 271.308638 
L 115.058701 272.023141 
L 120.211948 272.802999 
L 125.365195 273.63099 
L 130.518442 274.512968 
L 135.671688 275.449168 
L 140.824935 276.43155 
L 145.978182 277.455328 
L 151.131429 278.517158 
L 156.284675 279.60054 
L 161.437922 280.699711 
L 166.591169 281.809847 
L 171.744416 282.917378 
L 176.897662 284.010125 
L 182.050909 285.082675 
L 187.204156 286.121823 
L 192.357403 287.120821 
L 197.510649 288.068443 
L 202.663896 288.949884 
L 207.817143 289.746402 
L 212.97039 290.43811 
L 218.123636 290.996715 
L 223.276883 291.403192 
L 228.43013 291.644466 
L 233.583377 291.72984 
L 238.736623 291.707711 
L 243.88987 291.669071 
L 249.043117 291.73811 
L 254.196364 292.028506 
L 259.34961 292.593821 
L 264.502857 263.525834 
L 269.656104 252.227132 
L 274.809351 254.702209 
L 279.962597 262.987023 
L 285.115844 295.488 
L 290.269091 280.716466 
L 295.422338 286.489877 
L 300.575584 290.157693 
L 305.728831 292.164963 
L 310.882078 292.912385 
L 316.035325 292.432325 
L 321.188571 290.882098 
L 326.341818 289.045826 
L 331.495065 286.658804 
L 336.648312 282.958327 
L 341.801558 278.625004 
L 346.954805 274.606146 
L 352.108052 272.23481 
L 357.261299 272.903988 
L 362.414545 280.99484 
L 367.567792 271.992235 
L 372.721039 272.682247 
L 377.874286 269.398288 
L 383.027532 283.365132 
L 388.180779 285.238075 
L 393.334026 276.330753 
L 398.487273 53.568 
" style="fill:none;stroke:#8c564b;stroke-linecap:square;stroke-width:1.5;"/>
   </g>
   <g id="line2d_66">
    <path clip-path="url(#pa88ba131ad)" d="M 73.832727 292.750173 
L 78.985974 292.744465 
L 84.139221 292.732343 
L 89.292468 292.712405 
L 94.445714 292.684467 
L 99.598961 292.647804 
L 104.752208 292.601666 
L 109.905455 292.546395 
L 115.058701 292.480051 
L 120.211948 292.402459 
L 125.365195 292.311918 
L 130.518442 292.209859 
L 135.671688 292.093519 
L 140.824935 291.962188 
L 145.978182 291.815262 
L 151.131429 291.650074 
L 156.284675 291.459149 
L 161.437922 291.233733 
L 166.591169 290.955272 
L 171.744416 290.593565 
L 176.897662 290.102649 
L 182.050909 289.418156 
L 187.204156 288.444227 
L 192.357403 287.05739 
L 197.510649 285.101225 
L 202.663896 282.394709 
L 207.817143 278.802991 
L 212.97039 274.325137 
L 218.123636 269.222149 
L 223.276883 264.054216 
L 228.43013 259.489323 
L 233.583377 255.891022 
L 238.736623 252.862063 
L 243.88987 249.530409 
L 249.043117 245.71323 
L 254.196364 243.061138 
L 259.34961 244.40876 
L 264.502857 233.82945 
L 269.656104 262.446979 
L 274.809351 243.13961 
L 279.962597 244.055073 
L 285.115844 244.960322 
L 290.269091 290.064057 
L 295.422338 291.272337 
L 300.575584 267.337075 
L 305.728831 274.055699 
L 310.882078 291.120509 
L 316.035325 281.737102 
L 321.188571 282.063851 
L 326.341818 280.549939 
L 331.495065 277.888708 
L 336.648312 274.890983 
L 341.801558 272.450864 
L 346.954805 271.011955 
L 352.108052 272.562652 
L 357.261299 272.043232 
L 362.414545 271.320784 
L 367.567792 279.321165 
L 372.721039 277.150937 
L 377.874286 275.413053 
L 383.027532 270.400724 
L 388.180779 273.532572 
L 393.334026 279.152711 
L 398.487273 254.691604 
" style="fill:none;stroke:#e377c2;stroke-linecap:square;stroke-width:1.5;"/>
   </g>
   <g id="line2d_67">
    <path clip-path="url(#pa88ba131ad)" d="M 73.832727 268.393994 
L 78.985974 268.62196 
L 84.139221 268.867948 
L 89.292468 269.139757 
L 94.445714 269.432208 
L 99.598961 269.749534 
L 104.752208 270.098037 
L 109.905455 270.471481 
L 115.058701 270.864907 
L 120.211948 271.293987 
L 125.365195 271.740352 
L 130.518442 272.207002 
L 135.671688 272.694816 
L 140.824935 273.189441 
L 145.978182 273.689859 
L 151.131429 274.195805 
L 156.284675 274.694 
L 161.437922 275.179993 
L 166.591169 275.642975 
L 171.744416 276.085447 
L 176.897662 276.504477 
L 182.050909 276.903915 
L 187.204156 277.283739 
L 192.357403 277.655549 
L 197.510649 278.014457 
L 202.663896 278.345383 
L 207.817143 278.619836 
L 212.97039 278.757342 
L 218.123636 278.675548 
L 223.276883 278.26994 
L 228.43013 277.494833 
L 233.583377 276.382236 
L 238.736623 275.086484 
L 243.88987 273.877335 
L 249.043117 273.136353 
L 254.196364 273.244089 
L 259.34961 274.431935 
L 264.502857 276.673085 
L 269.656104 279.623317 
L 274.809351 282.796906 
L 279.962597 285.743293 
L 285.115844 288.178584 
L 290.269091 290.038223 
L 295.422338 291.363698 
L 300.575584 292.173199 
L 305.728831 292.404014 
L 310.882078 291.988657 
L 316.035325 290.714463 
L 321.188571 288.452945 
L 326.341818 278.683554 
L 331.495065 275.544092 
L 336.648312 272.05354 
L 341.801558 269.254156 
L 346.954805 267.706264 
L 352.108052 267.117399 
L 357.261299 266.851293 
L 362.414545 269.301892 
L 367.567792 279.183073 
L 372.721039 279.452188 
L 377.874286 276.498716 
L 383.027532 270.657724 
L 388.180779 286.23948 
L 393.334026 279.514311 
L 398.487273 283.784492 
" style="fill:none;stroke:#7f7f7f;stroke-linecap:square;stroke-width:1.5;"/>
   </g>
   <g id="line2d_68">
    <path clip-path="url(#pa88ba131ad)" d="M 73.832727 267.713936 
L 78.985974 268.143841 
L 84.139221 268.603869 
L 89.292468 269.125301 
L 94.445714 269.684252 
L 99.598961 270.302029 
L 104.752208 270.974087 
L 109.905455 271.699268 
L 115.058701 272.484835 
L 120.211948 273.32583 
L 125.365195 274.216887 
L 130.518442 275.162497 
L 135.671688 276.156204 
L 140.824935 277.192917 
L 145.978182 278.263559 
L 151.131429 279.364467 
L 156.284675 280.479436 
L 161.437922 281.607603 
L 166.591169 282.730887 
L 171.744416 283.846995 
L 176.897662 284.940822 
L 182.050909 286.008876 
L 187.204156 287.037586 
L 192.357403 288.015595 
L 197.510649 288.931337 
L 202.663896 289.762558 
L 207.817143 290.486394 
L 212.97039 291.080568 
L 218.123636 291.515827 
L 223.276883 291.781831 
L 228.43013 291.896852 
L 233.583377 291.906368 
L 238.736623 291.903906 
L 243.88987 292.005456 
L 249.043117 292.325258 
L 254.196364 292.896525 
L 259.34961 262.217007 
L 264.502857 254.974026 
L 269.656104 258.498623 
L 274.809351 266.788632 
L 279.962597 275.686234 
L 285.115844 282.93898 
L 290.269091 287.96675 
L 295.422338 291.059833 
L 300.575584 292.695359 
L 305.728831 293.162433 
L 310.882078 292.477798 
L 316.035325 290.961672 
L 321.188571 289.164447 
L 326.341818 286.344428 
L 331.495065 282.180447 
L 336.648312 277.299037 
L 341.801558 273.09086 
L 346.954805 270.558107 
L 352.108052 269.677894 
L 357.261299 269.974973 
L 362.414545 275.182501 
L 367.567792 279.90206 
L 372.721039 280.279054 
L 377.874286 278.341683 
L 383.027532 277.628189 
L 388.180779 287.139521 
L 393.334026 276.030091 
L 398.487273 55.134412 
" style="fill:none;stroke:#bcbd22;stroke-linecap:square;stroke-width:1.5;"/>
   </g>
   <g id="patch_3">
    <path d="M 57.6 307.584 
L 57.6 41.472 
" style="fill:none;stroke:#000000;stroke-linecap:square;stroke-linejoin:miter;stroke-width:0.8;"/>
   </g>
   <g id="patch_4">
    <path d="M 414.72 307.584 
L 414.72 41.472 
" style="fill:none;stroke:#000000;stroke-linecap:square;stroke-linejoin:miter;stroke-width:0.8;"/>
   </g>
   <g id="patch_5">
    <path d="M 57.6 307.584 
L 414.72 307.584 
" style="fill:none;stroke:#000000;stroke-linecap:square;stroke-linejoin:miter;stroke-width:0.8;"/>
   </g>
   <g id="patch_6">
    <path d="M 57.6 41.472 
L 414.72 41.472 
" style="fill:none;stroke:#000000;stroke-linecap:square;stroke-linejoin:miter;stroke-width:0.8;"/>
   </g>
   <g id="legend_1">
    <g id="patch_7">
     <path d="M 64.6 184.07825 
L 274.848438 184.07825 
Q 276.848438 184.07825 276.848438 182.07825 
L 276.848438 48.472 
Q 276.848438 46.472 274.848438 46.472 
L 64.6 46.472 
Q 62.6 46.472 62.6 48.472 
L 62.6 182.07825 
Q 62.6 184.07825 64.6 184.07825 
z
" style="fill:#ffffff;opacity:0.8;stroke:#cccccc;stroke-linejoin:miter;"/>
    </g>
    <g id="line2d_69">
     <path d="M 66.6 54.570438 
L 86.6 54.570438 
" style="fill:none;stroke:#1f77b4;stroke-linecap:square;stroke-width:1.5;"/>
    </g>
    <g id="line2d_70"/>
    <g id="text_16">
     <!-- Mrk509_2016_EF_10_matern12.jld2 -->
     <g transform="translate(94.6 58.070438)scale(0.1 -0.1)">
      <defs>
       <path d="M 9.8125 72.90625 
L 24.515625 72.90625 
L 43.109375 23.296875 
L 61.8125 72.90625 
L 76.515625 72.90625 
L 76.515625 0 
L 66.890625 0 
L 66.890625 64.015625 
L 48.09375 14.015625 
L 38.1875 14.015625 
L 19.390625 64.015625 
L 19.390625 0 
L 9.8125 0 
z
" id="DejaVuSans-77"/>
       <path d="M 41.109375 46.296875 
Q 39.59375 47.171875 37.8125 47.578125 
Q 36.03125 48 33.890625 48 
Q 26.265625 48 22.1875 43.046875 
Q 18.109375 38.09375 18.109375 28.8125 
L 18.109375 0 
L 9.078125 0 
L 9.078125 54.6875 
L 18.109375 54.6875 
L 18.109375 46.1875 
Q 20.953125 51.171875 25.484375 53.578125 
Q 30.03125 56 36.53125 56 
Q 37.453125 56 38.578125 55.875 
Q 39.703125 55.765625 41.0625 55.515625 
z
" id="DejaVuSans-114"/>
       <path d="M 9.078125 75.984375 
L 18.109375 75.984375 
L 18.109375 31.109375 
L 44.921875 54.6875 
L 56.390625 54.6875 
L 27.390625 29.109375 
L 57.625 0 
L 45.90625 0 
L 18.109375 26.703125 
L 18.109375 0 
L 9.078125 0 
z
" id="DejaVuSans-107"/>
       <path d="M 50.984375 -16.609375 
L 50.984375 -23.578125 
L -0.984375 -23.578125 
L -0.984375 -16.609375 
z
" id="DejaVuSans-95"/>
       <path d="M 9.8125 72.90625 
L 55.90625 72.90625 
L 55.90625 64.59375 
L 19.671875 64.59375 
L 19.671875 43.015625 
L 54.390625 43.015625 
L 54.390625 34.71875 
L 19.671875 34.71875 
L 19.671875 8.296875 
L 56.78125 8.296875 
L 56.78125 0 
L 9.8125 0 
z
" id="DejaVuSans-69"/>
       <path d="M 9.8125 72.90625 
L 51.703125 72.90625 
L 51.703125 64.59375 
L 19.671875 64.59375 
L 19.671875 43.109375 
L 48.578125 43.109375 
L 48.578125 34.8125 
L 19.671875 34.8125 
L 19.671875 0 
L 9.8125 0 
z
" id="DejaVuSans-70"/>
       <path d="M 52 44.1875 
Q 55.375 50.25 60.0625 53.125 
Q 64.75 56 71.09375 56 
Q 79.640625 56 84.28125 50.015625 
Q 88.921875 44.046875 88.921875 33.015625 
L 88.921875 0 
L 79.890625 0 
L 79.890625 32.71875 
Q 79.890625 40.578125 77.09375 44.375 
Q 74.3125 48.1875 68.609375 48.1875 
Q 61.625 48.1875 57.5625 43.546875 
Q 53.515625 38.921875 53.515625 30.90625 
L 53.515625 0 
L 44.484375 0 
L 44.484375 32.71875 
Q 44.484375 40.625 41.703125 44.40625 
Q 38.921875 48.1875 33.109375 48.1875 
Q 26.21875 48.1875 22.15625 43.53125 
Q 18.109375 38.875 18.109375 30.90625 
L 18.109375 0 
L 9.078125 0 
L 9.078125 54.6875 
L 18.109375 54.6875 
L 18.109375 46.1875 
Q 21.1875 51.21875 25.484375 53.609375 
Q 29.78125 56 35.6875 56 
Q 41.65625 56 45.828125 52.96875 
Q 50 49.953125 52 44.1875 
z
" id="DejaVuSans-109"/>
       <path d="M 34.28125 27.484375 
Q 23.390625 27.484375 19.1875 25 
Q 14.984375 22.515625 14.984375 16.5 
Q 14.984375 11.71875 18.140625 8.90625 
Q 21.296875 6.109375 26.703125 6.109375 
Q 34.1875 6.109375 38.703125 11.40625 
Q 43.21875 16.703125 43.21875 25.484375 
L 43.21875 27.484375 
z
M 52.203125 31.203125 
L 52.203125 0 
L 43.21875 0 
L 43.21875 8.296875 
Q 40.140625 3.328125 35.546875 0.953125 
Q 30.953125 -1.421875 24.3125 -1.421875 
Q 15.921875 -1.421875 10.953125 3.296875 
Q 6 8.015625 6 15.921875 
Q 6 25.140625 12.171875 29.828125 
Q 18.359375 34.515625 30.609375 34.515625 
L 43.21875 34.515625 
L 43.21875 35.40625 
Q 43.21875 41.609375 39.140625 45 
Q 35.0625 48.390625 27.6875 48.390625 
Q 23 48.390625 18.546875 47.265625 
Q 14.109375 46.140625 10.015625 43.890625 
L 10.015625 52.203125 
Q 14.9375 54.109375 19.578125 55.046875 
Q 24.21875 56 28.609375 56 
Q 40.484375 56 46.34375 49.84375 
Q 52.203125 43.703125 52.203125 31.203125 
z
" id="DejaVuSans-97"/>
       <path d="M 18.3125 70.21875 
L 18.3125 54.6875 
L 36.8125 54.6875 
L 36.8125 47.703125 
L 18.3125 47.703125 
L 18.3125 18.015625 
Q 18.3125 11.328125 20.140625 9.421875 
Q 21.96875 7.515625 27.59375 7.515625 
L 36.8125 7.515625 
L 36.8125 0 
L 27.59375 0 
Q 17.1875 0 13.234375 3.875 
Q 9.28125 7.765625 9.28125 18.015625 
L 9.28125 47.703125 
L 2.6875 47.703125 
L 2.6875 54.6875 
L 9.28125 54.6875 
L 9.28125 70.21875 
z
" id="DejaVuSans-116"/>
       <path d="M 56.203125 29.59375 
L 56.203125 25.203125 
L 14.890625 25.203125 
Q 15.484375 15.921875 20.484375 11.0625 
Q 25.484375 6.203125 34.421875 6.203125 
Q 39.59375 6.203125 44.453125 7.46875 
Q 49.3125 8.734375 54.109375 11.28125 
L 54.109375 2.78125 
Q 49.265625 0.734375 44.1875 -0.34375 
Q 39.109375 -1.421875 33.890625 -1.421875 
Q 20.796875 -1.421875 13.15625 6.1875 
Q 5.515625 13.8125 5.515625 26.8125 
Q 5.515625 40.234375 12.765625 48.109375 
Q 20.015625 56 32.328125 56 
Q 43.359375 56 49.78125 48.890625 
Q 56.203125 41.796875 56.203125 29.59375 
z
M 47.21875 32.234375 
Q 47.125 39.59375 43.09375 43.984375 
Q 39.0625 48.390625 32.421875 48.390625 
Q 24.90625 48.390625 20.390625 44.140625 
Q 15.875 39.890625 15.1875 32.171875 
z
" id="DejaVuSans-101"/>
       <path d="M 54.890625 33.015625 
L 54.890625 0 
L 45.90625 0 
L 45.90625 32.71875 
Q 45.90625 40.484375 42.875 44.328125 
Q 39.84375 48.1875 33.796875 48.1875 
Q 26.515625 48.1875 22.3125 43.546875 
Q 18.109375 38.921875 18.109375 30.90625 
L 18.109375 0 
L 9.078125 0 
L 9.078125 54.6875 
L 18.109375 54.6875 
L 18.109375 46.1875 
Q 21.34375 51.125 25.703125 53.5625 
Q 30.078125 56 35.796875 56 
Q 45.21875 56 50.046875 50.171875 
Q 54.890625 44.34375 54.890625 33.015625 
z
" id="DejaVuSans-110"/>
       <path d="M 9.421875 54.6875 
L 18.40625 54.6875 
L 18.40625 -0.984375 
Q 18.40625 -11.421875 14.421875 -16.109375 
Q 10.453125 -20.796875 1.609375 -20.796875 
L -1.8125 -20.796875 
L -1.8125 -13.1875 
L 0.59375 -13.1875 
Q 5.71875 -13.1875 7.5625 -10.8125 
Q 9.421875 -8.453125 9.421875 -0.984375 
z
M 9.421875 75.984375 
L 18.40625 75.984375 
L 18.40625 64.59375 
L 9.421875 64.59375 
z
" id="DejaVuSans-106"/>
       <path d="M 9.421875 75.984375 
L 18.40625 75.984375 
L 18.40625 0 
L 9.421875 0 
z
" id="DejaVuSans-108"/>
       <path d="M 45.40625 46.390625 
L 45.40625 75.984375 
L 54.390625 75.984375 
L 54.390625 0 
L 45.40625 0 
L 45.40625 8.203125 
Q 42.578125 3.328125 38.25 0.953125 
Q 33.9375 -1.421875 27.875 -1.421875 
Q 17.96875 -1.421875 11.734375 6.484375 
Q 5.515625 14.40625 5.515625 27.296875 
Q 5.515625 40.1875 11.734375 48.09375 
Q 17.96875 56 27.875 56 
Q 33.9375 56 38.25 53.625 
Q 42.578125 51.265625 45.40625 46.390625 
z
M 14.796875 27.296875 
Q 14.796875 17.390625 18.875 11.75 
Q 22.953125 6.109375 30.078125 6.109375 
Q 37.203125 6.109375 41.296875 11.75 
Q 45.40625 17.390625 45.40625 27.296875 
Q 45.40625 37.203125 41.296875 42.84375 
Q 37.203125 48.484375 30.078125 48.484375 
Q 22.953125 48.484375 18.875 42.84375 
Q 14.796875 37.203125 14.796875 27.296875 
z
" id="DejaVuSans-100"/>
      </defs>
      <use xlink:href="#DejaVuSans-77"/>
      <use x="86.279297" xlink:href="#DejaVuSans-114"/>
      <use x="127.392578" xlink:href="#DejaVuSans-107"/>
      <use x="185.302734" xlink:href="#DejaVuSans-53"/>
      <use x="248.925781" xlink:href="#DejaVuSans-48"/>
      <use x="312.548828" xlink:href="#DejaVuSans-57"/>
      <use x="376.171875" xlink:href="#DejaVuSans-95"/>
      <use x="426.171875" xlink:href="#DejaVuSans-50"/>
      <use x="489.794922" xlink:href="#DejaVuSans-48"/>
      <use x="553.417969" xlink:href="#DejaVuSans-49"/>
      <use x="617.041016" xlink:href="#DejaVuSans-54"/>
      <use x="680.664062" xlink:href="#DejaVuSans-95"/>
      <use x="730.664062" xlink:href="#DejaVuSans-69"/>
      <use x="793.847656" xlink:href="#DejaVuSans-70"/>
      <use x="851.367188" xlink:href="#DejaVuSans-95"/>
      <use x="901.367188" xlink:href="#DejaVuSans-49"/>
      <use x="964.990234" xlink:href="#DejaVuSans-48"/>
      <use x="1028.613281" xlink:href="#DejaVuSans-95"/>
      <use x="1078.613281" xlink:href="#DejaVuSans-109"/>
      <use x="1176.025391" xlink:href="#DejaVuSans-97"/>
      <use x="1237.304688" xlink:href="#DejaVuSans-116"/>
      <use x="1276.513672" xlink:href="#DejaVuSans-101"/>
      <use x="1338.037109" xlink:href="#DejaVuSans-114"/>
      <use x="1377.400391" xlink:href="#DejaVuSans-110"/>
      <use x="1440.779297" xlink:href="#DejaVuSans-49"/>
      <use x="1504.402344" xlink:href="#DejaVuSans-50"/>
      <use x="1568.025391" xlink:href="#DejaVuSans-46"/>
      <use x="1599.8125" xlink:href="#DejaVuSans-106"/>
      <use x="1627.595703" xlink:href="#DejaVuSans-108"/>
      <use x="1655.378906" xlink:href="#DejaVuSans-100"/>
      <use x="1718.855469" xlink:href="#DejaVuSans-50"/>
     </g>
    </g>
    <g id="line2d_71">
     <path d="M 66.6 69.526688 
L 86.6 69.526688 
" style="fill:none;stroke:#ff7f0e;stroke-linecap:square;stroke-width:1.5;"/>
    </g>
    <g id="line2d_72"/>
    <g id="text_17">
     <!-- Mrk509_2016_EF_10_matern32.jld2 -->
     <g transform="translate(94.6 73.026688)scale(0.1 -0.1)">
      <defs>
       <path d="M 40.578125 39.3125 
Q 47.65625 37.796875 51.625 33 
Q 55.609375 28.21875 55.609375 21.1875 
Q 55.609375 10.40625 48.1875 4.484375 
Q 40.765625 -1.421875 27.09375 -1.421875 
Q 22.515625 -1.421875 17.65625 -0.515625 
Q 12.796875 0.390625 7.625 2.203125 
L 7.625 11.71875 
Q 11.71875 9.328125 16.59375 8.109375 
Q 21.484375 6.890625 26.8125 6.890625 
Q 36.078125 6.890625 40.9375 10.546875 
Q 45.796875 14.203125 45.796875 21.1875 
Q 45.796875 27.640625 41.28125 31.265625 
Q 36.765625 34.90625 28.71875 34.90625 
L 20.21875 34.90625 
L 20.21875 43.015625 
L 29.109375 43.015625 
Q 36.375 43.015625 40.234375 45.921875 
Q 44.09375 48.828125 44.09375 54.296875 
Q 44.09375 59.90625 40.109375 62.90625 
Q 36.140625 65.921875 28.71875 65.921875 
Q 24.65625 65.921875 20.015625 65.03125 
Q 15.375 64.15625 9.8125 62.3125 
L 9.8125 71.09375 
Q 15.4375 72.65625 20.34375 73.4375 
Q 25.25 74.21875 29.59375 74.21875 
Q 40.828125 74.21875 47.359375 69.109375 
Q 53.90625 64.015625 53.90625 55.328125 
Q 53.90625 49.265625 50.4375 45.09375 
Q 46.96875 40.921875 40.578125 39.3125 
z
" id="DejaVuSans-51"/>
      </defs>
      <use xlink:href="#DejaVuSans-77"/>
      <use x="86.279297" xlink:href="#DejaVuSans-114"/>
      <use x="127.392578" xlink:href="#DejaVuSans-107"/>
      <use x="185.302734" xlink:href="#DejaVuSans-53"/>
      <use x="248.925781" xlink:href="#DejaVuSans-48"/>
      <use x="312.548828" xlink:href="#DejaVuSans-57"/>
      <use x="376.171875" xlink:href="#DejaVuSans-95"/>
      <use x="426.171875" xlink:href="#DejaVuSans-50"/>
      <use x="489.794922" xlink:href="#DejaVuSans-48"/>
      <use x="553.417969" xlink:href="#DejaVuSans-49"/>
      <use x="617.041016" xlink:href="#DejaVuSans-54"/>
      <use x="680.664062" xlink:href="#DejaVuSans-95"/>
      <use x="730.664062" xlink:href="#DejaVuSans-69"/>
      <use x="793.847656" xlink:href="#DejaVuSans-70"/>
      <use x="851.367188" xlink:href="#DejaVuSans-95"/>
      <use x="901.367188" xlink:href="#DejaVuSans-49"/>
      <use x="964.990234" xlink:href="#DejaVuSans-48"/>
      <use x="1028.613281" xlink:href="#DejaVuSans-95"/>
      <use x="1078.613281" xlink:href="#DejaVuSans-109"/>
      <use x="1176.025391" xlink:href="#DejaVuSans-97"/>
      <use x="1237.304688" xlink:href="#DejaVuSans-116"/>
      <use x="1276.513672" xlink:href="#DejaVuSans-101"/>
      <use x="1338.037109" xlink:href="#DejaVuSans-114"/>
      <use x="1377.400391" xlink:href="#DejaVuSans-110"/>
      <use x="1440.779297" xlink:href="#DejaVuSans-51"/>
      <use x="1504.402344" xlink:href="#DejaVuSans-50"/>
      <use x="1568.025391" xlink:href="#DejaVuSans-46"/>
      <use x="1599.8125" xlink:href="#DejaVuSans-106"/>
      <use x="1627.595703" xlink:href="#DejaVuSans-108"/>
      <use x="1655.378906" xlink:href="#DejaVuSans-100"/>
      <use x="1718.855469" xlink:href="#DejaVuSans-50"/>
     </g>
    </g>
    <g id="line2d_73">
     <path d="M 66.6 84.482938 
L 86.6 84.482938 
" style="fill:none;stroke:#2ca02c;stroke-linecap:square;stroke-width:1.5;"/>
    </g>
    <g id="line2d_74"/>
    <g id="text_18">
     <!-- Mrk509_2016_EF_10_rbf.jld2 -->
     <g transform="translate(94.6 87.982938)scale(0.1 -0.1)">
      <defs>
       <path d="M 48.6875 27.296875 
Q 48.6875 37.203125 44.609375 42.84375 
Q 40.53125 48.484375 33.40625 48.484375 
Q 26.265625 48.484375 22.1875 42.84375 
Q 18.109375 37.203125 18.109375 27.296875 
Q 18.109375 17.390625 22.1875 11.75 
Q 26.265625 6.109375 33.40625 6.109375 
Q 40.53125 6.109375 44.609375 11.75 
Q 48.6875 17.390625 48.6875 27.296875 
z
M 18.109375 46.390625 
Q 20.953125 51.265625 25.265625 53.625 
Q 29.59375 56 35.59375 56 
Q 45.5625 56 51.78125 48.09375 
Q 58.015625 40.1875 58.015625 27.296875 
Q 58.015625 14.40625 51.78125 6.484375 
Q 45.5625 -1.421875 35.59375 -1.421875 
Q 29.59375 -1.421875 25.265625 0.953125 
Q 20.953125 3.328125 18.109375 8.203125 
L 18.109375 0 
L 9.078125 0 
L 9.078125 75.984375 
L 18.109375 75.984375 
z
" id="DejaVuSans-98"/>
       <path d="M 37.109375 75.984375 
L 37.109375 68.5 
L 28.515625 68.5 
Q 23.6875 68.5 21.796875 66.546875 
Q 19.921875 64.59375 19.921875 59.515625 
L 19.921875 54.6875 
L 34.71875 54.6875 
L 34.71875 47.703125 
L 19.921875 47.703125 
L 19.921875 0 
L 10.890625 0 
L 10.890625 47.703125 
L 2.296875 47.703125 
L 2.296875 54.6875 
L 10.890625 54.6875 
L 10.890625 58.5 
Q 10.890625 67.625 15.140625 71.796875 
Q 19.390625 75.984375 28.609375 75.984375 
z
" id="DejaVuSans-102"/>
      </defs>
      <use xlink:href="#DejaVuSans-77"/>
      <use x="86.279297" xlink:href="#DejaVuSans-114"/>
      <use x="127.392578" xlink:href="#DejaVuSans-107"/>
      <use x="185.302734" xlink:href="#DejaVuSans-53"/>
      <use x="248.925781" xlink:href="#DejaVuSans-48"/>
      <use x="312.548828" xlink:href="#DejaVuSans-57"/>
      <use x="376.171875" xlink:href="#DejaVuSans-95"/>
      <use x="426.171875" xlink:href="#DejaVuSans-50"/>
      <use x="489.794922" xlink:href="#DejaVuSans-48"/>
      <use x="553.417969" xlink:href="#DejaVuSans-49"/>
      <use x="617.041016" xlink:href="#DejaVuSans-54"/>
      <use x="680.664062" xlink:href="#DejaVuSans-95"/>
      <use x="730.664062" xlink:href="#DejaVuSans-69"/>
      <use x="793.847656" xlink:href="#DejaVuSans-70"/>
      <use x="851.367188" xlink:href="#DejaVuSans-95"/>
      <use x="901.367188" xlink:href="#DejaVuSans-49"/>
      <use x="964.990234" xlink:href="#DejaVuSans-48"/>
      <use x="1028.613281" xlink:href="#DejaVuSans-95"/>
      <use x="1078.613281" xlink:href="#DejaVuSans-114"/>
      <use x="1119.726562" xlink:href="#DejaVuSans-98"/>
      <use x="1183.203125" xlink:href="#DejaVuSans-102"/>
      <use x="1211.158203" xlink:href="#DejaVuSans-46"/>
      <use x="1242.945312" xlink:href="#DejaVuSans-106"/>
      <use x="1270.728516" xlink:href="#DejaVuSans-108"/>
      <use x="1298.511719" xlink:href="#DejaVuSans-100"/>
      <use x="1361.988281" xlink:href="#DejaVuSans-50"/>
     </g>
    </g>
    <g id="line2d_75">
     <path d="M 66.6 99.439188 
L 86.6 99.439188 
" style="fill:none;stroke:#d62728;stroke-linecap:square;stroke-width:1.5;"/>
    </g>
    <g id="line2d_76"/>
    <g id="text_19">
     <!-- Mrk509_2016_EF_20_matern12.jld2 -->
     <g transform="translate(94.6 102.939188)scale(0.1 -0.1)">
      <use xlink:href="#DejaVuSans-77"/>
      <use x="86.279297" xlink:href="#DejaVuSans-114"/>
      <use x="127.392578" xlink:href="#DejaVuSans-107"/>
      <use x="185.302734" xlink:href="#DejaVuSans-53"/>
      <use x="248.925781" xlink:href="#DejaVuSans-48"/>
      <use x="312.548828" xlink:href="#DejaVuSans-57"/>
      <use x="376.171875" xlink:href="#DejaVuSans-95"/>
      <use x="426.171875" xlink:href="#DejaVuSans-50"/>
      <use x="489.794922" xlink:href="#DejaVuSans-48"/>
      <use x="553.417969" xlink:href="#DejaVuSans-49"/>
      <use x="617.041016" xlink:href="#DejaVuSans-54"/>
      <use x="680.664062" xlink:href="#DejaVuSans-95"/>
      <use x="730.664062" xlink:href="#DejaVuSans-69"/>
      <use x="793.847656" xlink:href="#DejaVuSans-70"/>
      <use x="851.367188" xlink:href="#DejaVuSans-95"/>
      <use x="901.367188" xlink:href="#DejaVuSans-50"/>
      <use x="964.990234" xlink:href="#DejaVuSans-48"/>
      <use x="1028.613281" xlink:href="#DejaVuSans-95"/>
      <use x="1078.613281" xlink:href="#DejaVuSans-109"/>
      <use x="1176.025391" xlink:href="#DejaVuSans-97"/>
      <use x="1237.304688" xlink:href="#DejaVuSans-116"/>
      <use x="1276.513672" xlink:href="#DejaVuSans-101"/>
      <use x="1338.037109" xlink:href="#DejaVuSans-114"/>
      <use x="1377.400391" xlink:href="#DejaVuSans-110"/>
      <use x="1440.779297" xlink:href="#DejaVuSans-49"/>
      <use x="1504.402344" xlink:href="#DejaVuSans-50"/>
      <use x="1568.025391" xlink:href="#DejaVuSans-46"/>
      <use x="1599.8125" xlink:href="#DejaVuSans-106"/>
      <use x="1627.595703" xlink:href="#DejaVuSans-108"/>
      <use x="1655.378906" xlink:href="#DejaVuSans-100"/>
      <use x="1718.855469" xlink:href="#DejaVuSans-50"/>
     </g>
    </g>
    <g id="line2d_77">
     <path d="M 66.6 114.395438 
L 86.6 114.395438 
" style="fill:none;stroke:#9467bd;stroke-linecap:square;stroke-width:1.5;"/>
    </g>
    <g id="line2d_78"/>
    <g id="text_20">
     <!-- Mrk509_2016_EF_20_matern32.jld2 -->
     <g transform="translate(94.6 117.895438)scale(0.1 -0.1)">
      <use xlink:href="#DejaVuSans-77"/>
      <use x="86.279297" xlink:href="#DejaVuSans-114"/>
      <use x="127.392578" xlink:href="#DejaVuSans-107"/>
      <use x="185.302734" xlink:href="#DejaVuSans-53"/>
      <use x="248.925781" xlink:href="#DejaVuSans-48"/>
      <use x="312.548828" xlink:href="#DejaVuSans-57"/>
      <use x="376.171875" xlink:href="#DejaVuSans-95"/>
      <use x="426.171875" xlink:href="#DejaVuSans-50"/>
      <use x="489.794922" xlink:href="#DejaVuSans-48"/>
      <use x="553.417969" xlink:href="#DejaVuSans-49"/>
      <use x="617.041016" xlink:href="#DejaVuSans-54"/>
      <use x="680.664062" xlink:href="#DejaVuSans-95"/>
      <use x="730.664062" xlink:href="#DejaVuSans-69"/>
      <use x="793.847656" xlink:href="#DejaVuSans-70"/>
      <use x="851.367188" xlink:href="#DejaVuSans-95"/>
      <use x="901.367188" xlink:href="#DejaVuSans-50"/>
      <use x="964.990234" xlink:href="#DejaVuSans-48"/>
      <use x="1028.613281" xlink:href="#DejaVuSans-95"/>
      <use x="1078.613281" xlink:href="#DejaVuSans-109"/>
      <use x="1176.025391" xlink:href="#DejaVuSans-97"/>
      <use x="1237.304688" xlink:href="#DejaVuSans-116"/>
      <use x="1276.513672" xlink:href="#DejaVuSans-101"/>
      <use x="1338.037109" xlink:href="#DejaVuSans-114"/>
      <use x="1377.400391" xlink:href="#DejaVuSans-110"/>
      <use x="1440.779297" xlink:href="#DejaVuSans-51"/>
      <use x="1504.402344" xlink:href="#DejaVuSans-50"/>
      <use x="1568.025391" xlink:href="#DejaVuSans-46"/>
      <use x="1599.8125" xlink:href="#DejaVuSans-106"/>
      <use x="1627.595703" xlink:href="#DejaVuSans-108"/>
      <use x="1655.378906" xlink:href="#DejaVuSans-100"/>
      <use x="1718.855469" xlink:href="#DejaVuSans-50"/>
     </g>
    </g>
    <g id="line2d_79">
     <path d="M 66.6 129.351688 
L 86.6 129.351688 
" style="fill:none;stroke:#8c564b;stroke-linecap:square;stroke-width:1.5;"/>
    </g>
    <g id="line2d_80"/>
    <g id="text_21">
     <!-- Mrk509_2016_EF_20_rbf.jld2 -->
     <g transform="translate(94.6 132.851688)scale(0.1 -0.1)">
      <use xlink:href="#DejaVuSans-77"/>
      <use x="86.279297" xlink:href="#DejaVuSans-114"/>
      <use x="127.392578" xlink:href="#DejaVuSans-107"/>
      <use x="185.302734" xlink:href="#DejaVuSans-53"/>
      <use x="248.925781" xlink:href="#DejaVuSans-48"/>
      <use x="312.548828" xlink:href="#DejaVuSans-57"/>
      <use x="376.171875" xlink:href="#DejaVuSans-95"/>
      <use x="426.171875" xlink:href="#DejaVuSans-50"/>
      <use x="489.794922" xlink:href="#DejaVuSans-48"/>
      <use x="553.417969" xlink:href="#DejaVuSans-49"/>
      <use x="617.041016" xlink:href="#DejaVuSans-54"/>
      <use x="680.664062" xlink:href="#DejaVuSans-95"/>
      <use x="730.664062" xlink:href="#DejaVuSans-69"/>
      <use x="793.847656" xlink:href="#DejaVuSans-70"/>
      <use x="851.367188" xlink:href="#DejaVuSans-95"/>
      <use x="901.367188" xlink:href="#DejaVuSans-50"/>
      <use x="964.990234" xlink:href="#DejaVuSans-48"/>
      <use x="1028.613281" xlink:href="#DejaVuSans-95"/>
      <use x="1078.613281" xlink:href="#DejaVuSans-114"/>
      <use x="1119.726562" xlink:href="#DejaVuSans-98"/>
      <use x="1183.203125" xlink:href="#DejaVuSans-102"/>
      <use x="1211.158203" xlink:href="#DejaVuSans-46"/>
      <use x="1242.945312" xlink:href="#DejaVuSans-106"/>
      <use x="1270.728516" xlink:href="#DejaVuSans-108"/>
      <use x="1298.511719" xlink:href="#DejaVuSans-100"/>
      <use x="1361.988281" xlink:href="#DejaVuSans-50"/>
     </g>
    </g>
    <g id="line2d_81">
     <path d="M 66.6 144.307938 
L 86.6 144.307938 
" style="fill:none;stroke:#e377c2;stroke-linecap:square;stroke-width:1.5;"/>
    </g>
    <g id="line2d_82"/>
    <g id="text_22">
     <!-- Mrk509_2016_EF_30_matern12.jld2 -->
     <g transform="translate(94.6 147.807938)scale(0.1 -0.1)">
      <use xlink:href="#DejaVuSans-77"/>
      <use x="86.279297" xlink:href="#DejaVuSans-114"/>
      <use x="127.392578" xlink:href="#DejaVuSans-107"/>
      <use x="185.302734" xlink:href="#DejaVuSans-53"/>
      <use x="248.925781" xlink:href="#DejaVuSans-48"/>
      <use x="312.548828" xlink:href="#DejaVuSans-57"/>
      <use x="376.171875" xlink:href="#DejaVuSans-95"/>
      <use x="426.171875" xlink:href="#DejaVuSans-50"/>
      <use x="489.794922" xlink:href="#DejaVuSans-48"/>
      <use x="553.417969" xlink:href="#DejaVuSans-49"/>
      <use x="617.041016" xlink:href="#DejaVuSans-54"/>
      <use x="680.664062" xlink:href="#DejaVuSans-95"/>
      <use x="730.664062" xlink:href="#DejaVuSans-69"/>
      <use x="793.847656" xlink:href="#DejaVuSans-70"/>
      <use x="851.367188" xlink:href="#DejaVuSans-95"/>
      <use x="901.367188" xlink:href="#DejaVuSans-51"/>
      <use x="964.990234" xlink:href="#DejaVuSans-48"/>
      <use x="1028.613281" xlink:href="#DejaVuSans-95"/>
      <use x="1078.613281" xlink:href="#DejaVuSans-109"/>
      <use x="1176.025391" xlink:href="#DejaVuSans-97"/>
      <use x="1237.304688" xlink:href="#DejaVuSans-116"/>
      <use x="1276.513672" xlink:href="#DejaVuSans-101"/>
      <use x="1338.037109" xlink:href="#DejaVuSans-114"/>
      <use x="1377.400391" xlink:href="#DejaVuSans-110"/>
      <use x="1440.779297" xlink:href="#DejaVuSans-49"/>
      <use x="1504.402344" xlink:href="#DejaVuSans-50"/>
      <use x="1568.025391" xlink:href="#DejaVuSans-46"/>
      <use x="1599.8125" xlink:href="#DejaVuSans-106"/>
      <use x="1627.595703" xlink:href="#DejaVuSans-108"/>
      <use x="1655.378906" xlink:href="#DejaVuSans-100"/>
      <use x="1718.855469" xlink:href="#DejaVuSans-50"/>
     </g>
    </g>
    <g id="line2d_83">
     <path d="M 66.6 159.264188 
L 86.6 159.264188 
" style="fill:none;stroke:#7f7f7f;stroke-linecap:square;stroke-width:1.5;"/>
    </g>
    <g id="line2d_84"/>
    <g id="text_23">
     <!-- Mrk509_2016_EF_30_matern32.jld2 -->
     <g transform="translate(94.6 162.764188)scale(0.1 -0.1)">
      <use xlink:href="#DejaVuSans-77"/>
      <use x="86.279297" xlink:href="#DejaVuSans-114"/>
      <use x="127.392578" xlink:href="#DejaVuSans-107"/>
      <use x="185.302734" xlink:href="#DejaVuSans-53"/>
      <use x="248.925781" xlink:href="#DejaVuSans-48"/>
      <use x="312.548828" xlink:href="#DejaVuSans-57"/>
      <use x="376.171875" xlink:href="#DejaVuSans-95"/>
      <use x="426.171875" xlink:href="#DejaVuSans-50"/>
      <use x="489.794922" xlink:href="#DejaVuSans-48"/>
      <use x="553.417969" xlink:href="#DejaVuSans-49"/>
      <use x="617.041016" xlink:href="#DejaVuSans-54"/>
      <use x="680.664062" xlink:href="#DejaVuSans-95"/>
      <use x="730.664062" xlink:href="#DejaVuSans-69"/>
      <use x="793.847656" xlink:href="#DejaVuSans-70"/>
      <use x="851.367188" xlink:href="#DejaVuSans-95"/>
      <use x="901.367188" xlink:href="#DejaVuSans-51"/>
      <use x="964.990234" xlink:href="#DejaVuSans-48"/>
      <use x="1028.613281" xlink:href="#DejaVuSans-95"/>
      <use x="1078.613281" xlink:href="#DejaVuSans-109"/>
      <use x="1176.025391" xlink:href="#DejaVuSans-97"/>
      <use x="1237.304688" xlink:href="#DejaVuSans-116"/>
      <use x="1276.513672" xlink:href="#DejaVuSans-101"/>
      <use x="1338.037109" xlink:href="#DejaVuSans-114"/>
      <use x="1377.400391" xlink:href="#DejaVuSans-110"/>
      <use x="1440.779297" xlink:href="#DejaVuSans-51"/>
      <use x="1504.402344" xlink:href="#DejaVuSans-50"/>
      <use x="1568.025391" xlink:href="#DejaVuSans-46"/>
      <use x="1599.8125" xlink:href="#DejaVuSans-106"/>
      <use x="1627.595703" xlink:href="#DejaVuSans-108"/>
      <use x="1655.378906" xlink:href="#DejaVuSans-100"/>
      <use x="1718.855469" xlink:href="#DejaVuSans-50"/>
     </g>
    </g>
    <g id="line2d_85">
     <path d="M 66.6 174.220438 
L 86.6 174.220438 
" style="fill:none;stroke:#bcbd22;stroke-linecap:square;stroke-width:1.5;"/>
    </g>
    <g id="line2d_86"/>
    <g id="text_24">
     <!-- Mrk509_2016_EF_30_rbf.jld2 -->
     <g transform="translate(94.6 177.720438)scale(0.1 -0.1)">
      <use xlink:href="#DejaVuSans-77"/>
      <use x="86.279297" xlink:href="#DejaVuSans-114"/>
      <use x="127.392578" xlink:href="#DejaVuSans-107"/>
      <use x="185.302734" xlink:href="#DejaVuSans-53"/>
      <use x="248.925781" xlink:href="#DejaVuSans-48"/>
      <use x="312.548828" xlink:href="#DejaVuSans-57"/>
      <use x="376.171875" xlink:href="#DejaVuSans-95"/>
      <use x="426.171875" xlink:href="#DejaVuSans-50"/>
      <use x="489.794922" xlink:href="#DejaVuSans-48"/>
      <use x="553.417969" xlink:href="#DejaVuSans-49"/>
      <use x="617.041016" xlink:href="#DejaVuSans-54"/>
      <use x="680.664062" xlink:href="#DejaVuSans-95"/>
      <use x="730.664062" xlink:href="#DejaVuSans-69"/>
      <use x="793.847656" xlink:href="#DejaVuSans-70"/>
      <use x="851.367188" xlink:href="#DejaVuSans-95"/>
      <use x="901.367188" xlink:href="#DejaVuSans-51"/>
      <use x="964.990234" xlink:href="#DejaVuSans-48"/>
      <use x="1028.613281" xlink:href="#DejaVuSans-95"/>
      <use x="1078.613281" xlink:href="#DejaVuSans-114"/>
      <use x="1119.726562" xlink:href="#DejaVuSans-98"/>
      <use x="1183.203125" xlink:href="#DejaVuSans-102"/>
      <use x="1211.158203" xlink:href="#DejaVuSans-46"/>
      <use x="1242.945312" xlink:href="#DejaVuSans-106"/>
      <use x="1270.728516" xlink:href="#DejaVuSans-108"/>
      <use x="1298.511719" xlink:href="#DejaVuSans-100"/>
      <use x="1361.988281" xlink:href="#DejaVuSans-50"/>
     </g>
    </g>
   </g>
  </g>
 </g>
 <defs>
  <clipPath id="pa88ba131ad">
   <rect height="266.112" width="357.12" x="57.6" y="41.472"/>
  </clipPath>
 </defs>
</svg>
