<?xml version="1.0" encoding="utf-8" standalone="no"?>
<!DOCTYPE svg PUBLIC "-//W3C//DTD SVG 1.1//EN"
  "http://www.w3.org/Graphics/SVG/1.1/DTD/svg11.dtd">
<svg xmlns:xlink="http://www.w3.org/1999/xlink" width="460.8pt" height="345.6pt" viewBox="0 0 460.8 345.6" xmlns="http://www.w3.org/2000/svg" version="1.1">
 <metadata>
  <rdf:RDF xmlns:dc="http://purl.org/dc/elements/1.1/" xmlns:cc="http://creativecommons.org/ns#" xmlns:rdf="http://www.w3.org/1999/02/22-rdf-syntax-ns#">
   <cc:Work>
    <dc:type rdf:resource="http://purl.org/dc/dcmitype/StillImage"/>
    <dc:date>2022-01-27T13:52:20.619012</dc:date>
    <dc:format>image/svg+xml</dc:format>
    <dc:creator>
     <cc:Agent>
      <dc:title>Matplotlib v3.5.1, https://matplotlib.org/</dc:title>
     </cc:Agent>
    </dc:creator>
   </cc:Work>
  </rdf:RDF>
 </metadata>
 <defs>
  <style type="text/css">*{stroke-linejoin: round; stroke-linecap: butt}</style>
 </defs>
 <g id="figure_1">
  <g id="patch_1">
   <path d="M 0 345.6 
L 460.8 345.6 
L 460.8 0 
L 0 0 
z
" style="fill: #ffffff"/>
  </g>
  <g id="axes_1">
   <g id="patch_2">
    <path d="M 57.6 307.584 
L 414.72 307.584 
L 414.72 41.472 
L 57.6 41.472 
z
" style="fill: #ffffff"/>
   </g>
   <g id="matplotlib.axis_1">
    <g id="xtick_1">
     <g id="line2d_1">
      <defs>
       <path id="m9ae95daddd" d="M 0 0 
L 0 3.5 
" style="stroke: #000000; stroke-width: 0.8"/>
      </defs>
      <g>
       <use xlink:href="#m9ae95daddd" x="72.481378" y="307.584" style="stroke: #000000; stroke-width: 0.8"/>
      </g>
     </g>
     <g id="text_1">
      <!-- 0 -->
      <g transform="translate(69.300128 322.182437)scale(0.1 -0.1)">
       <defs>
        <path id="DejaVuSans-30" d="M 2034 4250 
Q 1547 4250 1301 3770 
Q 1056 3291 1056 2328 
Q 1056 1369 1301 889 
Q 1547 409 2034 409 
Q 2525 409 2770 889 
Q 3016 1369 3016 2328 
Q 3016 3291 2770 3770 
Q 2525 4250 2034 4250 
z
M 2034 4750 
Q 2819 4750 3233 4129 
Q 3647 3509 3647 2328 
Q 3647 1150 3233 529 
Q 2819 -91 2034 -91 
Q 1250 -91 836 529 
Q 422 1150 422 2328 
Q 422 3509 836 4129 
Q 1250 4750 2034 4750 
z
" transform="scale(0.015625)"/>
       </defs>
       <use xlink:href="#DejaVuSans-30"/>
      </g>
     </g>
    </g>
    <g id="xtick_2">
     <g id="line2d_2">
      <g>
       <use xlink:href="#m9ae95daddd" x="116.118315" y="307.584" style="stroke: #000000; stroke-width: 0.8"/>
      </g>
     </g>
     <g id="text_2">
      <!-- 20 -->
      <g transform="translate(109.755815 322.182437)scale(0.1 -0.1)">
       <defs>
        <path id="DejaVuSans-32" d="M 1228 531 
L 3431 531 
L 3431 0 
L 469 0 
L 469 531 
Q 828 903 1448 1529 
Q 2069 2156 2228 2338 
Q 2531 2678 2651 2914 
Q 2772 3150 2772 3378 
Q 2772 3750 2511 3984 
Q 2250 4219 1831 4219 
Q 1534 4219 1204 4116 
Q 875 4013 500 3803 
L 500 4441 
Q 881 4594 1212 4672 
Q 1544 4750 1819 4750 
Q 2544 4750 2975 4387 
Q 3406 4025 3406 3419 
Q 3406 3131 3298 2873 
Q 3191 2616 2906 2266 
Q 2828 2175 2409 1742 
Q 1991 1309 1228 531 
z
" transform="scale(0.015625)"/>
       </defs>
       <use xlink:href="#DejaVuSans-32"/>
       <use xlink:href="#DejaVuSans-30" x="63.623047"/>
      </g>
     </g>
    </g>
    <g id="xtick_3">
     <g id="line2d_3">
      <g>
       <use xlink:href="#m9ae95daddd" x="159.755251" y="307.584" style="stroke: #000000; stroke-width: 0.8"/>
      </g>
     </g>
     <g id="text_3">
      <!-- 40 -->
      <g transform="translate(153.392751 322.182437)scale(0.1 -0.1)">
       <defs>
        <path id="DejaVuSans-34" d="M 2419 4116 
L 825 1625 
L 2419 1625 
L 2419 4116 
z
M 2253 4666 
L 3047 4666 
L 3047 1625 
L 3713 1625 
L 3713 1100 
L 3047 1100 
L 3047 0 
L 2419 0 
L 2419 1100 
L 313 1100 
L 313 1709 
L 2253 4666 
z
" transform="scale(0.015625)"/>
       </defs>
       <use xlink:href="#DejaVuSans-34"/>
       <use xlink:href="#DejaVuSans-30" x="63.623047"/>
      </g>
     </g>
    </g>
    <g id="xtick_4">
     <g id="line2d_4">
      <g>
       <use xlink:href="#m9ae95daddd" x="203.392187" y="307.584" style="stroke: #000000; stroke-width: 0.8"/>
      </g>
     </g>
     <g id="text_4">
      <!-- 60 -->
      <g transform="translate(197.029687 322.182437)scale(0.1 -0.1)">
       <defs>
        <path id="DejaVuSans-36" d="M 2113 2584 
Q 1688 2584 1439 2293 
Q 1191 2003 1191 1497 
Q 1191 994 1439 701 
Q 1688 409 2113 409 
Q 2538 409 2786 701 
Q 3034 994 3034 1497 
Q 3034 2003 2786 2293 
Q 2538 2584 2113 2584 
z
M 3366 4563 
L 3366 3988 
Q 3128 4100 2886 4159 
Q 2644 4219 2406 4219 
Q 1781 4219 1451 3797 
Q 1122 3375 1075 2522 
Q 1259 2794 1537 2939 
Q 1816 3084 2150 3084 
Q 2853 3084 3261 2657 
Q 3669 2231 3669 1497 
Q 3669 778 3244 343 
Q 2819 -91 2113 -91 
Q 1303 -91 875 529 
Q 447 1150 447 2328 
Q 447 3434 972 4092 
Q 1497 4750 2381 4750 
Q 2619 4750 2861 4703 
Q 3103 4656 3366 4563 
z
" transform="scale(0.015625)"/>
       </defs>
       <use xlink:href="#DejaVuSans-36"/>
       <use xlink:href="#DejaVuSans-30" x="63.623047"/>
      </g>
     </g>
    </g>
    <g id="xtick_5">
     <g id="line2d_5">
      <g>
       <use xlink:href="#m9ae95daddd" x="247.029123" y="307.584" style="stroke: #000000; stroke-width: 0.8"/>
      </g>
     </g>
     <g id="text_5">
      <!-- 80 -->
      <g transform="translate(240.666623 322.182437)scale(0.1 -0.1)">
       <defs>
        <path id="DejaVuSans-38" d="M 2034 2216 
Q 1584 2216 1326 1975 
Q 1069 1734 1069 1313 
Q 1069 891 1326 650 
Q 1584 409 2034 409 
Q 2484 409 2743 651 
Q 3003 894 3003 1313 
Q 3003 1734 2745 1975 
Q 2488 2216 2034 2216 
z
M 1403 2484 
Q 997 2584 770 2862 
Q 544 3141 544 3541 
Q 544 4100 942 4425 
Q 1341 4750 2034 4750 
Q 2731 4750 3128 4425 
Q 3525 4100 3525 3541 
Q 3525 3141 3298 2862 
Q 3072 2584 2669 2484 
Q 3125 2378 3379 2068 
Q 3634 1759 3634 1313 
Q 3634 634 3220 271 
Q 2806 -91 2034 -91 
Q 1263 -91 848 271 
Q 434 634 434 1313 
Q 434 1759 690 2068 
Q 947 2378 1403 2484 
z
M 1172 3481 
Q 1172 3119 1398 2916 
Q 1625 2713 2034 2713 
Q 2441 2713 2670 2916 
Q 2900 3119 2900 3481 
Q 2900 3844 2670 4047 
Q 2441 4250 2034 4250 
Q 1625 4250 1398 4047 
Q 1172 3844 1172 3481 
z
" transform="scale(0.015625)"/>
       </defs>
       <use xlink:href="#DejaVuSans-38"/>
       <use xlink:href="#DejaVuSans-30" x="63.623047"/>
      </g>
     </g>
    </g>
    <g id="xtick_6">
     <g id="line2d_6">
      <g>
       <use xlink:href="#m9ae95daddd" x="290.66606" y="307.584" style="stroke: #000000; stroke-width: 0.8"/>
      </g>
     </g>
     <g id="text_6">
      <!-- 100 -->
      <g transform="translate(281.12231 322.182437)scale(0.1 -0.1)">
       <defs>
        <path id="DejaVuSans-31" d="M 794 531 
L 1825 531 
L 1825 4091 
L 703 3866 
L 703 4441 
L 1819 4666 
L 2450 4666 
L 2450 531 
L 3481 531 
L 3481 0 
L 794 0 
L 794 531 
z
" transform="scale(0.015625)"/>
       </defs>
       <use xlink:href="#DejaVuSans-31"/>
       <use xlink:href="#DejaVuSans-30" x="63.623047"/>
       <use xlink:href="#DejaVuSans-30" x="127.246094"/>
      </g>
     </g>
    </g>
    <g id="xtick_7">
     <g id="line2d_7">
      <g>
       <use xlink:href="#m9ae95daddd" x="334.302996" y="307.584" style="stroke: #000000; stroke-width: 0.8"/>
      </g>
     </g>
     <g id="text_7">
      <!-- 120 -->
      <g transform="translate(324.759246 322.182437)scale(0.1 -0.1)">
       <use xlink:href="#DejaVuSans-31"/>
       <use xlink:href="#DejaVuSans-32" x="63.623047"/>
       <use xlink:href="#DejaVuSans-30" x="127.246094"/>
      </g>
     </g>
    </g>
    <g id="xtick_8">
     <g id="line2d_8">
      <g>
       <use xlink:href="#m9ae95daddd" x="377.939932" y="307.584" style="stroke: #000000; stroke-width: 0.8"/>
      </g>
     </g>
     <g id="text_8">
      <!-- 140 -->
      <g transform="translate(368.396182 322.182437)scale(0.1 -0.1)">
       <use xlink:href="#DejaVuSans-31"/>
       <use xlink:href="#DejaVuSans-34" x="63.623047"/>
       <use xlink:href="#DejaVuSans-30" x="127.246094"/>
      </g>
     </g>
    </g>
   </g>
   <g id="matplotlib.axis_2">
    <g id="ytick_1">
     <g id="line2d_9">
      <defs>
       <path id="mda490b077e" d="M 0 0 
L -3.5 0 
" style="stroke: #000000; stroke-width: 0.8"/>
      </defs>
      <g>
       <use xlink:href="#mda490b077e" x="57.6" y="284.858909" style="stroke: #000000; stroke-width: 0.8"/>
      </g>
     </g>
     <g id="text_9">
      <!-- 2 -->
      <g transform="translate(44.2375 288.658127)scale(0.1 -0.1)">
       <use xlink:href="#DejaVuSans-32"/>
      </g>
     </g>
    </g>
    <g id="ytick_2">
     <g id="line2d_10">
      <g>
       <use xlink:href="#mda490b077e" x="57.6" y="249.83336" style="stroke: #000000; stroke-width: 0.8"/>
      </g>
     </g>
     <g id="text_10">
      <!-- 3 -->
      <g transform="translate(44.2375 253.632579)scale(0.1 -0.1)">
       <defs>
        <path id="DejaVuSans-33" d="M 2597 2516 
Q 3050 2419 3304 2112 
Q 3559 1806 3559 1356 
Q 3559 666 3084 287 
Q 2609 -91 1734 -91 
Q 1441 -91 1130 -33 
Q 819 25 488 141 
L 488 750 
Q 750 597 1062 519 
Q 1375 441 1716 441 
Q 2309 441 2620 675 
Q 2931 909 2931 1356 
Q 2931 1769 2642 2001 
Q 2353 2234 1838 2234 
L 1294 2234 
L 1294 2753 
L 1863 2753 
Q 2328 2753 2575 2939 
Q 2822 3125 2822 3475 
Q 2822 3834 2567 4026 
Q 2313 4219 1838 4219 
Q 1578 4219 1281 4162 
Q 984 4106 628 3988 
L 628 4550 
Q 988 4650 1302 4700 
Q 1616 4750 1894 4750 
Q 2613 4750 3031 4423 
Q 3450 4097 3450 3541 
Q 3450 3153 3228 2886 
Q 3006 2619 2597 2516 
z
" transform="scale(0.015625)"/>
       </defs>
       <use xlink:href="#DejaVuSans-33"/>
      </g>
     </g>
    </g>
    <g id="ytick_3">
     <g id="line2d_11">
      <g>
       <use xlink:href="#mda490b077e" x="57.6" y="214.807812" style="stroke: #000000; stroke-width: 0.8"/>
      </g>
     </g>
     <g id="text_11">
      <!-- 4 -->
      <g transform="translate(44.2375 218.60703)scale(0.1 -0.1)">
       <use xlink:href="#DejaVuSans-34"/>
      </g>
     </g>
    </g>
    <g id="ytick_4">
     <g id="line2d_12">
      <g>
       <use xlink:href="#mda490b077e" x="57.6" y="179.782263" style="stroke: #000000; stroke-width: 0.8"/>
      </g>
     </g>
     <g id="text_12">
      <!-- 5 -->
      <g transform="translate(44.2375 183.581482)scale(0.1 -0.1)">
       <defs>
        <path id="DejaVuSans-35" d="M 691 4666 
L 3169 4666 
L 3169 4134 
L 1269 4134 
L 1269 2991 
Q 1406 3038 1543 3061 
Q 1681 3084 1819 3084 
Q 2600 3084 3056 2656 
Q 3513 2228 3513 1497 
Q 3513 744 3044 326 
Q 2575 -91 1722 -91 
Q 1428 -91 1123 -41 
Q 819 9 494 109 
L 494 744 
Q 775 591 1075 516 
Q 1375 441 1709 441 
Q 2250 441 2565 725 
Q 2881 1009 2881 1497 
Q 2881 1984 2565 2268 
Q 2250 2553 1709 2553 
Q 1456 2553 1204 2497 
Q 953 2441 691 2322 
L 691 4666 
z
" transform="scale(0.015625)"/>
       </defs>
       <use xlink:href="#DejaVuSans-35"/>
      </g>
     </g>
    </g>
    <g id="ytick_5">
     <g id="line2d_13">
      <g>
       <use xlink:href="#mda490b077e" x="57.6" y="144.756715" style="stroke: #000000; stroke-width: 0.8"/>
      </g>
     </g>
     <g id="text_13">
      <!-- 6 -->
      <g transform="translate(44.2375 148.555933)scale(0.1 -0.1)">
       <use xlink:href="#DejaVuSans-36"/>
      </g>
     </g>
    </g>
    <g id="ytick_6">
     <g id="line2d_14">
      <g>
       <use xlink:href="#mda490b077e" x="57.6" y="109.731166" style="stroke: #000000; stroke-width: 0.8"/>
      </g>
     </g>
     <g id="text_14">
      <!-- 7 -->
      <g transform="translate(44.2375 113.530385)scale(0.1 -0.1)">
       <defs>
        <path id="DejaVuSans-37" d="M 525 4666 
L 3525 4666 
L 3525 4397 
L 1831 0 
L 1172 0 
L 2766 4134 
L 525 4134 
L 525 4666 
z
" transform="scale(0.015625)"/>
       </defs>
       <use xlink:href="#DejaVuSans-37"/>
      </g>
     </g>
    </g>
    <g id="ytick_7">
     <g id="line2d_15">
      <g>
       <use xlink:href="#mda490b077e" x="57.6" y="74.705618" style="stroke: #000000; stroke-width: 0.8"/>
      </g>
     </g>
     <g id="text_15">
      <!-- 8 -->
      <g transform="translate(44.2375 78.504836)scale(0.1 -0.1)">
       <use xlink:href="#DejaVuSans-38"/>
      </g>
     </g>
    </g>
   </g>
   <g id="line2d_16">
    <defs>
     <path id="mb8d371951c" d="M 0 3 
C 0.795609 3 1.55874 2.683901 2.12132 2.12132 
C 2.683901 1.55874 3 0.795609 3 0 
C 3 -0.795609 2.683901 -1.55874 2.12132 -2.12132 
C 1.55874 -2.683901 0.795609 -3 0 -3 
C -0.795609 -3 -1.55874 -2.683901 -2.12132 -2.12132 
C -2.683901 -1.55874 -3 -0.795609 -3 0 
C -3 0.795609 -2.683901 1.55874 -2.12132 2.12132 
C -1.55874 2.683901 -0.795609 3 0 3 
z
" style="stroke: #1f77b4"/>
    </defs>
    <g clip-path="url(#pf2b5a2397e)">
     <use xlink:href="#mb8d371951c" x="176.538444" y="156.205826" style="fill: #1f77b4; stroke: #1f77b4"/>
     <use xlink:href="#mb8d371951c" x="131.818856" y="201.127416" style="fill: #1f77b4; stroke: #1f77b4"/>
     <use xlink:href="#mb8d371951c" x="122.654798" y="203.736313" style="fill: #1f77b4; stroke: #1f77b4"/>
     <use xlink:href="#mb8d371951c" x="97.234407" y="227.861838" style="fill: #1f77b4; stroke: #1f77b4"/>
     <use xlink:href="#mb8d371951c" x="147.82602" y="198.428547" style="fill: #1f77b4; stroke: #1f77b4"/>
     <use xlink:href="#mb8d371951c" x="170.084057" y="152.985903" style="fill: #1f77b4; stroke: #1f77b4"/>
     <use xlink:href="#mb8d371951c" x="117.815973" y="212.826731" style="fill: #1f77b4; stroke: #1f77b4"/>
     <use xlink:href="#mb8d371951c" x="177.647679" y="155.527411" style="fill: #1f77b4; stroke: #1f77b4"/>
     <use xlink:href="#mb8d371951c" x="140.646296" y="166.429451" style="fill: #1f77b4; stroke: #1f77b4"/>
     <use xlink:href="#mb8d371951c" x="181.110453" y="151.27993" style="fill: #1f77b4; stroke: #1f77b4"/>
     <use xlink:href="#mb8d371951c" x="127.464258" y="202.03444" style="fill: #1f77b4; stroke: #1f77b4"/>
     <use xlink:href="#mb8d371951c" x="75.133095" y="216.813679" style="fill: #1f77b4; stroke: #1f77b4"/>
     <use xlink:href="#mb8d371951c" x="157.035515" y="184.590748" style="fill: #1f77b4; stroke: #1f77b4"/>
     <use xlink:href="#mb8d371951c" x="127.024077" y="210.721831" style="fill: #1f77b4; stroke: #1f77b4"/>
     <use xlink:href="#mb8d371951c" x="75.56033" y="211.984898" style="fill: #1f77b4; stroke: #1f77b4"/>
     <use xlink:href="#mb8d371951c" x="109.615227" y="205.837262" style="fill: #1f77b4; stroke: #1f77b4"/>
     <use xlink:href="#mb8d371951c" x="73.832727" y="213.760933" style="fill: #1f77b4; stroke: #1f77b4"/>
     <use xlink:href="#mb8d371951c" x="157.366704" y="191.064181" style="fill: #1f77b4; stroke: #1f77b4"/>
     <use xlink:href="#mb8d371951c" x="142.564873" y="172.118972" style="fill: #1f77b4; stroke: #1f77b4"/>
     <use xlink:href="#mb8d371951c" x="120.988521" y="209.305344" style="fill: #1f77b4; stroke: #1f77b4"/>
     <use xlink:href="#mb8d371951c" x="131.281549" y="205.685763" style="fill: #1f77b4; stroke: #1f77b4"/>
     <use xlink:href="#mb8d371951c" x="124.979033" y="190.48887" style="fill: #1f77b4; stroke: #1f77b4"/>
     <use xlink:href="#mb8d371951c" x="134.489306" y="184.167927" style="fill: #1f77b4; stroke: #1f77b4"/>
     <use xlink:href="#mb8d371951c" x="103.58713" y="207.503875" style="fill: #1f77b4; stroke: #1f77b4"/>
     <use xlink:href="#mb8d371951c" x="153.302054" y="195.919046" style="fill: #1f77b4; stroke: #1f77b4"/>
     <use xlink:href="#mb8d371951c" x="178.158224" y="155.593341" style="fill: #1f77b4; stroke: #1f77b4"/>
     <use xlink:href="#mb8d371951c" x="74.595008" y="216.858616" style="fill: #1f77b4; stroke: #1f77b4"/>
     <use xlink:href="#mb8d371951c" x="143.066108" y="165.274702" style="fill: #1f77b4; stroke: #1f77b4"/>
     <use xlink:href="#mb8d371951c" x="100.717492" y="233.755639" style="fill: #1f77b4; stroke: #1f77b4"/>
     <use xlink:href="#mb8d371951c" x="155.852162" y="193.138886" style="fill: #1f77b4; stroke: #1f77b4"/>
     <use xlink:href="#mb8d371951c" x="152.771106" y="199.894525" style="fill: #1f77b4; stroke: #1f77b4"/>
     <use xlink:href="#mb8d371951c" x="143.553257" y="170.213584" style="fill: #1f77b4; stroke: #1f77b4"/>
     <use xlink:href="#mb8d371951c" x="122.739346" y="198.987869" style="fill: #1f77b4; stroke: #1f77b4"/>
     <use xlink:href="#mb8d371951c" x="161.51336" y="181.480941" style="fill: #1f77b4; stroke: #1f77b4"/>
     <use xlink:href="#mb8d371951c" x="173.492035" y="159.74061" style="fill: #1f77b4; stroke: #1f77b4"/>
     <use xlink:href="#mb8d371951c" x="149.621137" y="207.33524" style="fill: #1f77b4; stroke: #1f77b4"/>
     <use xlink:href="#mb8d371951c" x="133.024936" y="192.528874" style="fill: #1f77b4; stroke: #1f77b4"/>
     <use xlink:href="#mb8d371951c" x="85.996598" y="229.019882" style="fill: #1f77b4; stroke: #1f77b4"/>
     <use xlink:href="#mb8d371951c" x="78.902917" y="221.601244" style="fill: #1f77b4; stroke: #1f77b4"/>
     <use xlink:href="#mb8d371951c" x="128.234607" y="202.570025" style="fill: #1f77b4; stroke: #1f77b4"/>
     <use xlink:href="#mb8d371951c" x="108.992991" y="203.532771" style="fill: #1f77b4; stroke: #1f77b4"/>
     <use xlink:href="#mb8d371951c" x="83.613808" y="211.097288" style="fill: #1f77b4; stroke: #1f77b4"/>
     <use xlink:href="#mb8d371951c" x="154.809935" y="188.48842" style="fill: #1f77b4; stroke: #1f77b4"/>
     <use xlink:href="#mb8d371951c" x="169.423095" y="156.755966" style="fill: #1f77b4; stroke: #1f77b4"/>
     <use xlink:href="#mb8d371951c" x="141.612885" y="166.950962" style="fill: #1f77b4; stroke: #1f77b4"/>
     <use xlink:href="#mb8d371951c" x="108.226749" y="202.862816" style="fill: #1f77b4; stroke: #1f77b4"/>
     <use xlink:href="#mb8d371951c" x="122.901694" y="203.507532" style="fill: #1f77b4; stroke: #1f77b4"/>
     <use xlink:href="#mb8d371951c" x="104.037637" y="210.186829" style="fill: #1f77b4; stroke: #1f77b4"/>
     <use xlink:href="#mb8d371951c" x="174.461657" y="159.079116" style="fill: #1f77b4; stroke: #1f77b4"/>
     <use xlink:href="#mb8d371951c" x="178.877477" y="156.218838" style="fill: #1f77b4; stroke: #1f77b4"/>
    </g>
   </g>
   <g id="line2d_17">
    <defs>
     <path id="m7d504ce189" d="M 0 3 
C 0.795609 3 1.55874 2.683901 2.12132 2.12132 
C 2.683901 1.55874 3 0.795609 3 0 
C 3 -0.795609 2.683901 -1.55874 2.12132 -2.12132 
C 1.55874 -2.683901 0.795609 -3 0 -3 
C -0.795609 -3 -1.55874 -2.683901 -2.12132 -2.12132 
C -2.683901 -1.55874 -3 -0.795609 -3 0 
C -3 0.795609 -2.683901 1.55874 -2.12132 2.12132 
C -1.55874 2.683901 -0.795609 3 0 3 
z
" style="stroke: #ff7f0e"/>
    </defs>
    <g clip-path="url(#pf2b5a2397e)">
     <use xlink:href="#m7d504ce189" x="221.250046" y="101.099325" style="fill: #ff7f0e; stroke: #ff7f0e"/>
     <use xlink:href="#m7d504ce189" x="221.532261" y="103.853307" style="fill: #ff7f0e; stroke: #ff7f0e"/>
     <use xlink:href="#m7d504ce189" x="284.869208" y="135.522187" style="fill: #ff7f0e; stroke: #ff7f0e"/>
     <use xlink:href="#m7d504ce189" x="218.612572" y="118.371033" style="fill: #ff7f0e; stroke: #ff7f0e"/>
     <use xlink:href="#m7d504ce189" x="281.243588" y="140.192964" style="fill: #ff7f0e; stroke: #ff7f0e"/>
     <use xlink:href="#m7d504ce189" x="183.027516" y="77.316464" style="fill: #ff7f0e; stroke: #ff7f0e"/>
     <use xlink:href="#m7d504ce189" x="232.751206" y="130.599578" style="fill: #ff7f0e; stroke: #ff7f0e"/>
     <use xlink:href="#m7d504ce189" x="284.473235" y="133.04771" style="fill: #ff7f0e; stroke: #ff7f0e"/>
     <use xlink:href="#m7d504ce189" x="269.513436" y="182.612596" style="fill: #ff7f0e; stroke: #ff7f0e"/>
     <use xlink:href="#m7d504ce189" x="277.01999" y="154.724019" style="fill: #ff7f0e; stroke: #ff7f0e"/>
     <use xlink:href="#m7d504ce189" x="244.133448" y="244.598178" style="fill: #ff7f0e; stroke: #ff7f0e"/>
     <use xlink:href="#m7d504ce189" x="232.930657" y="135.545024" style="fill: #ff7f0e; stroke: #ff7f0e"/>
     <use xlink:href="#m7d504ce189" x="217.156706" y="130.255727" style="fill: #ff7f0e; stroke: #ff7f0e"/>
     <use xlink:href="#m7d504ce189" x="226.950735" y="113.0719" style="fill: #ff7f0e; stroke: #ff7f0e"/>
     <use xlink:href="#m7d504ce189" x="253.902646" y="281.937711" style="fill: #ff7f0e; stroke: #ff7f0e"/>
     <use xlink:href="#m7d504ce189" x="278.723677" y="154.063965" style="fill: #ff7f0e; stroke: #ff7f0e"/>
     <use xlink:href="#m7d504ce189" x="211.206573" y="165.197105" style="fill: #ff7f0e; stroke: #ff7f0e"/>
     <use xlink:href="#m7d504ce189" x="207.575112" y="179.773719" style="fill: #ff7f0e; stroke: #ff7f0e"/>
     <use xlink:href="#m7d504ce189" x="257.347724" y="295.488" style="fill: #ff7f0e; stroke: #ff7f0e"/>
     <use xlink:href="#m7d504ce189" x="287.271024" y="124.642361" style="fill: #ff7f0e; stroke: #ff7f0e"/>
     <use xlink:href="#m7d504ce189" x="237.009016" y="176.383629" style="fill: #ff7f0e; stroke: #ff7f0e"/>
     <use xlink:href="#m7d504ce189" x="285.669234" y="131.983309" style="fill: #ff7f0e; stroke: #ff7f0e"/>
     <use xlink:href="#m7d504ce189" x="181.681891" y="71.801415" style="fill: #ff7f0e; stroke: #ff7f0e"/>
     <use xlink:href="#m7d504ce189" x="288.909471" y="131.040317" style="fill: #ff7f0e; stroke: #ff7f0e"/>
     <use xlink:href="#m7d504ce189" x="257.955093" y="290.065248" style="fill: #ff7f0e; stroke: #ff7f0e"/>
     <use xlink:href="#m7d504ce189" x="269.400903" y="183.677127" style="fill: #ff7f0e; stroke: #ff7f0e"/>
     <use xlink:href="#m7d504ce189" x="279.708573" y="149.654005" style="fill: #ff7f0e; stroke: #ff7f0e"/>
     <use xlink:href="#m7d504ce189" x="195.349082" y="85.914712" style="fill: #ff7f0e; stroke: #ff7f0e"/>
     <use xlink:href="#m7d504ce189" x="205.999417" y="183.988544" style="fill: #ff7f0e; stroke: #ff7f0e"/>
     <use xlink:href="#m7d504ce189" x="266.48786" y="222.089535" style="fill: #ff7f0e; stroke: #ff7f0e"/>
     <use xlink:href="#m7d504ce189" x="219.762316" y="115.247" style="fill: #ff7f0e; stroke: #ff7f0e"/>
     <use xlink:href="#m7d504ce189" x="188.514565" y="68.489224" style="fill: #ff7f0e; stroke: #ff7f0e"/>
     <use xlink:href="#m7d504ce189" x="279.962967" y="146.065021" style="fill: #ff7f0e; stroke: #ff7f0e"/>
     <use xlink:href="#m7d504ce189" x="287.236864" y="128.286092" style="fill: #ff7f0e; stroke: #ff7f0e"/>
     <use xlink:href="#m7d504ce189" x="220.378624" y="108.586303" style="fill: #ff7f0e; stroke: #ff7f0e"/>
     <use xlink:href="#m7d504ce189" x="183.937892" y="69.743703" style="fill: #ff7f0e; stroke: #ff7f0e"/>
     <use xlink:href="#m7d504ce189" x="234.838233" y="152.442178" style="fill: #ff7f0e; stroke: #ff7f0e"/>
     <use xlink:href="#m7d504ce189" x="197.538268" y="105.273106" style="fill: #ff7f0e; stroke: #ff7f0e"/>
     <use xlink:href="#m7d504ce189" x="281.558226" y="147.245801" style="fill: #ff7f0e; stroke: #ff7f0e"/>
     <use xlink:href="#m7d504ce189" x="201.004412" y="145.566412" style="fill: #ff7f0e; stroke: #ff7f0e"/>
     <use xlink:href="#m7d504ce189" x="266.244463" y="220.89971" style="fill: #ff7f0e; stroke: #ff7f0e"/>
     <use xlink:href="#m7d504ce189" x="271.751762" y="166.906397" style="fill: #ff7f0e; stroke: #ff7f0e"/>
     <use xlink:href="#m7d504ce189" x="197.481709" y="98.56258" style="fill: #ff7f0e; stroke: #ff7f0e"/>
     <use xlink:href="#m7d504ce189" x="202.968474" y="159.869959" style="fill: #ff7f0e; stroke: #ff7f0e"/>
     <use xlink:href="#m7d504ce189" x="184.931663" y="58.456103" style="fill: #ff7f0e; stroke: #ff7f0e"/>
     <use xlink:href="#m7d504ce189" x="187.529012" y="60.358561" style="fill: #ff7f0e; stroke: #ff7f0e"/>
     <use xlink:href="#m7d504ce189" x="194.606229" y="88.279036" style="fill: #ff7f0e; stroke: #ff7f0e"/>
     <use xlink:href="#m7d504ce189" x="228.81648" y="102.180157" style="fill: #ff7f0e; stroke: #ff7f0e"/>
     <use xlink:href="#m7d504ce189" x="197.766665" y="108.960574" style="fill: #ff7f0e; stroke: #ff7f0e"/>
     <use xlink:href="#m7d504ce189" x="234.333727" y="137.266969" style="fill: #ff7f0e; stroke: #ff7f0e"/>
    </g>
   </g>
   <g id="line2d_18">
    <defs>
     <path id="mbaf1dc2ac7" d="M 0 3 
C 0.795609 3 1.55874 2.683901 2.12132 2.12132 
C 2.683901 1.55874 3 0.795609 3 0 
C 3 -0.795609 2.683901 -1.55874 2.12132 -2.12132 
C 1.55874 -2.683901 0.795609 -3 0 -3 
C -0.795609 -3 -1.55874 -2.683901 -2.12132 -2.12132 
C -2.683901 -1.55874 -3 -0.795609 -3 0 
C -3 0.795609 -2.683901 1.55874 -2.12132 2.12132 
C -1.55874 2.683901 -0.795609 3 0 3 
z
" style="stroke: #2ca02c"/>
    </defs>
    <g clip-path="url(#pf2b5a2397e)">
     <use xlink:href="#mbaf1dc2ac7" x="337.491574" y="147.318895" style="fill: #2ca02c; stroke: #2ca02c"/>
     <use xlink:href="#mbaf1dc2ac7" x="317.512668" y="219.492938" style="fill: #2ca02c; stroke: #2ca02c"/>
     <use xlink:href="#mbaf1dc2ac7" x="326.073078" y="171.591825" style="fill: #2ca02c; stroke: #2ca02c"/>
     <use xlink:href="#mbaf1dc2ac7" x="361.657231" y="125.950365" style="fill: #2ca02c; stroke: #2ca02c"/>
     <use xlink:href="#mbaf1dc2ac7" x="356.598624" y="116.614906" style="fill: #2ca02c; stroke: #2ca02c"/>
     <use xlink:href="#mbaf1dc2ac7" x="386.428119" y="253.187163" style="fill: #2ca02c; stroke: #2ca02c"/>
     <use xlink:href="#mbaf1dc2ac7" x="293.912617" y="139.423009" style="fill: #2ca02c; stroke: #2ca02c"/>
     <use xlink:href="#mbaf1dc2ac7" x="301.44625" y="139.332189" style="fill: #2ca02c; stroke: #2ca02c"/>
     <use xlink:href="#mbaf1dc2ac7" x="383.020743" y="252.299744" style="fill: #2ca02c; stroke: #2ca02c"/>
     <use xlink:href="#mbaf1dc2ac7" x="292.482441" y="125.638832" style="fill: #2ca02c; stroke: #2ca02c"/>
     <use xlink:href="#mbaf1dc2ac7" x="360.873531" y="111.044831" style="fill: #2ca02c; stroke: #2ca02c"/>
     <use xlink:href="#mbaf1dc2ac7" x="375.921305" y="138.602378" style="fill: #2ca02c; stroke: #2ca02c"/>
     <use xlink:href="#mbaf1dc2ac7" x="329.867123" y="169.459809" style="fill: #2ca02c; stroke: #2ca02c"/>
     <use xlink:href="#mbaf1dc2ac7" x="340.446891" y="151.458692" style="fill: #2ca02c; stroke: #2ca02c"/>
     <use xlink:href="#mbaf1dc2ac7" x="334.244415" y="156.740533" style="fill: #2ca02c; stroke: #2ca02c"/>
     <use xlink:href="#mbaf1dc2ac7" x="295.173687" y="157.742134" style="fill: #2ca02c; stroke: #2ca02c"/>
     <use xlink:href="#mbaf1dc2ac7" x="321.861609" y="193.655925" style="fill: #2ca02c; stroke: #2ca02c"/>
     <use xlink:href="#mbaf1dc2ac7" x="371.909322" y="53.568" style="fill: #2ca02c; stroke: #2ca02c"/>
     <use xlink:href="#mbaf1dc2ac7" x="391.092061" y="246.377248" style="fill: #2ca02c; stroke: #2ca02c"/>
     <use xlink:href="#mbaf1dc2ac7" x="360.670758" y="125.22971" style="fill: #2ca02c; stroke: #2ca02c"/>
     <use xlink:href="#mbaf1dc2ac7" x="385.670213" y="248.614599" style="fill: #2ca02c; stroke: #2ca02c"/>
     <use xlink:href="#mbaf1dc2ac7" x="296.272523" y="163.991183" style="fill: #2ca02c; stroke: #2ca02c"/>
     <use xlink:href="#mbaf1dc2ac7" x="336.874931" y="155.338666" style="fill: #2ca02c; stroke: #2ca02c"/>
     <use xlink:href="#mbaf1dc2ac7" x="299.738527" y="153.046001" style="fill: #2ca02c; stroke: #2ca02c"/>
     <use xlink:href="#mbaf1dc2ac7" x="306.871876" y="89.847423" style="fill: #2ca02c; stroke: #2ca02c"/>
     <use xlink:href="#mbaf1dc2ac7" x="318.555937" y="210.763529" style="fill: #2ca02c; stroke: #2ca02c"/>
     <use xlink:href="#mbaf1dc2ac7" x="298.38584" y="172.477211" style="fill: #2ca02c; stroke: #2ca02c"/>
     <use xlink:href="#mbaf1dc2ac7" x="304.877191" y="107.503277" style="fill: #2ca02c; stroke: #2ca02c"/>
     <use xlink:href="#mbaf1dc2ac7" x="345.166708" y="147.697315" style="fill: #2ca02c; stroke: #2ca02c"/>
     <use xlink:href="#mbaf1dc2ac7" x="360.305093" y="128.759544" style="fill: #2ca02c; stroke: #2ca02c"/>
     <use xlink:href="#mbaf1dc2ac7" x="348.04443" y="179.88748" style="fill: #2ca02c; stroke: #2ca02c"/>
     <use xlink:href="#mbaf1dc2ac7" x="392.377212" y="242.143606" style="fill: #2ca02c; stroke: #2ca02c"/>
     <use xlink:href="#mbaf1dc2ac7" x="304.025265" y="129.615526" style="fill: #2ca02c; stroke: #2ca02c"/>
     <use xlink:href="#mbaf1dc2ac7" x="295.482605" y="161.821436" style="fill: #2ca02c; stroke: #2ca02c"/>
     <use xlink:href="#mbaf1dc2ac7" x="388.603405" y="247.487896" style="fill: #2ca02c; stroke: #2ca02c"/>
     <use xlink:href="#mbaf1dc2ac7" x="336.738977" y="150.526939" style="fill: #2ca02c; stroke: #2ca02c"/>
     <use xlink:href="#mbaf1dc2ac7" x="397.23377" y="183.373973" style="fill: #2ca02c; stroke: #2ca02c"/>
     <use xlink:href="#mbaf1dc2ac7" x="302.992627" y="132.689911" style="fill: #2ca02c; stroke: #2ca02c"/>
     <use xlink:href="#mbaf1dc2ac7" x="375.140039" y="123.672866" style="fill: #2ca02c; stroke: #2ca02c"/>
     <use xlink:href="#mbaf1dc2ac7" x="398.487273" y="156.048608" style="fill: #2ca02c; stroke: #2ca02c"/>
     <use xlink:href="#mbaf1dc2ac7" x="327.621372" y="168.000169" style="fill: #2ca02c; stroke: #2ca02c"/>
     <use xlink:href="#mbaf1dc2ac7" x="309.007818" y="91.615291" style="fill: #2ca02c; stroke: #2ca02c"/>
     <use xlink:href="#mbaf1dc2ac7" x="312.781002" y="157.962545" style="fill: #2ca02c; stroke: #2ca02c"/>
     <use xlink:href="#mbaf1dc2ac7" x="314.616419" y="176.952004" style="fill: #2ca02c; stroke: #2ca02c"/>
     <use xlink:href="#mbaf1dc2ac7" x="297.679914" y="158.217979" style="fill: #2ca02c; stroke: #2ca02c"/>
     <use xlink:href="#mbaf1dc2ac7" x="316.26861" y="209.781183" style="fill: #2ca02c; stroke: #2ca02c"/>
     <use xlink:href="#mbaf1dc2ac7" x="327.529806" y="175.707858" style="fill: #2ca02c; stroke: #2ca02c"/>
     <use xlink:href="#mbaf1dc2ac7" x="314.506241" y="184.190722" style="fill: #2ca02c; stroke: #2ca02c"/>
     <use xlink:href="#mbaf1dc2ac7" x="299.751982" y="159.165436" style="fill: #2ca02c; stroke: #2ca02c"/>
     <use xlink:href="#mbaf1dc2ac7" x="392.88525" y="236.007201" style="fill: #2ca02c; stroke: #2ca02c"/>
    </g>
   </g>
   <g id="patch_3">
    <path d="M 57.6 307.584 
L 57.6 41.472 
" style="fill: none; stroke: #000000; stroke-width: 0.8; stroke-linejoin: miter; stroke-linecap: square"/>
   </g>
   <g id="patch_4">
    <path d="M 414.72 307.584 
L 414.72 41.472 
" style="fill: none; stroke: #000000; stroke-width: 0.8; stroke-linejoin: miter; stroke-linecap: square"/>
   </g>
   <g id="patch_5">
    <path d="M 57.6 307.584 
L 414.72 307.584 
" style="fill: none; stroke: #000000; stroke-width: 0.8; stroke-linejoin: miter; stroke-linecap: square"/>
   </g>
   <g id="patch_6">
    <path d="M 57.6 41.472 
L 414.72 41.472 
" style="fill: none; stroke: #000000; stroke-width: 0.8; stroke-linejoin: miter; stroke-linecap: square"/>
   </g>
   <g id="legend_1">
    <g id="patch_7">
     <path d="M 64.6 93.506375 
L 122.05 93.506375 
Q 124.05 93.506375 124.05 91.506375 
L 124.05 48.472 
Q 124.05 46.472 122.05 46.472 
L 64.6 46.472 
Q 62.6 46.472 62.6 48.472 
L 62.6 91.506375 
Q 62.6 93.506375 64.6 93.506375 
z
" style="fill: #ffffff; opacity: 0.8; stroke: #cccccc; stroke-linejoin: miter"/>
    </g>
    <g id="line2d_19">
     <g>
      <use xlink:href="#mb8d371951c" x="76.6" y="54.570438" style="fill: #1f77b4; stroke: #1f77b4"/>
     </g>
    </g>
    <g id="text_16">
     <!-- 4300 -->
     <g transform="translate(94.6 58.070438)scale(0.1 -0.1)">
      <use xlink:href="#DejaVuSans-34"/>
      <use xlink:href="#DejaVuSans-33" x="63.623047"/>
      <use xlink:href="#DejaVuSans-30" x="127.246094"/>
      <use xlink:href="#DejaVuSans-30" x="190.869141"/>
     </g>
    </g>
    <g id="line2d_20">
     <g>
      <use xlink:href="#m7d504ce189" x="76.6" y="69.248563" style="fill: #ff7f0e; stroke: #ff7f0e"/>
     </g>
    </g>
    <g id="text_17">
     <!-- 5700 -->
     <g transform="translate(94.6 72.748563)scale(0.1 -0.1)">
      <use xlink:href="#DejaVuSans-35"/>
      <use xlink:href="#DejaVuSans-37" x="63.623047"/>
      <use xlink:href="#DejaVuSans-30" x="127.246094"/>
      <use xlink:href="#DejaVuSans-30" x="190.869141"/>
     </g>
    </g>
    <g id="line2d_21">
     <g>
      <use xlink:href="#mbaf1dc2ac7" x="76.6" y="83.926688" style="fill: #2ca02c; stroke: #2ca02c"/>
     </g>
    </g>
    <g id="text_18">
     <!-- 6200 -->
     <g transform="translate(94.6 87.426688)scale(0.1 -0.1)">
      <use xlink:href="#DejaVuSans-36"/>
      <use xlink:href="#DejaVuSans-32" x="63.623047"/>
      <use xlink:href="#DejaVuSans-30" x="127.246094"/>
      <use xlink:href="#DejaVuSans-30" x="190.869141"/>
     </g>
    </g>
   </g>
  </g>
 </g>
 <defs>
  <clipPath id="pf2b5a2397e">
   <rect x="57.6" y="41.472" width="357.12" height="266.112"/>
  </clipPath>
 </defs>
</svg>
