<?xml version="1.0" encoding="utf-8" standalone="no"?>
<!DOCTYPE svg PUBLIC "-//W3C//DTD SVG 1.1//EN"
  "http://www.w3.org/Graphics/SVG/1.1/DTD/svg11.dtd">
<svg xmlns:xlink="http://www.w3.org/1999/xlink" width="460.8pt" height="345.6pt" viewBox="0 0 460.8 345.6" xmlns="http://www.w3.org/2000/svg" version="1.1">
 <metadata>
  <rdf:RDF xmlns:dc="http://purl.org/dc/elements/1.1/" xmlns:cc="http://creativecommons.org/ns#" xmlns:rdf="http://www.w3.org/1999/02/22-rdf-syntax-ns#">
   <cc:Work>
    <dc:type rdf:resource="http://purl.org/dc/dcmitype/StillImage"/>
    <dc:date>2022-01-27T14:14:17.579027</dc:date>
    <dc:format>image/svg+xml</dc:format>
    <dc:creator>
     <cc:Agent>
      <dc:title>Matplotlib v3.5.1, https://matplotlib.org/</dc:title>
     </cc:Agent>
    </dc:creator>
   </cc:Work>
  </rdf:RDF>
 </metadata>
 <defs>
  <style type="text/css">*{stroke-linejoin: round; stroke-linecap: butt}</style>
 </defs>
 <g id="figure_1">
  <g id="patch_1">
   <path d="M 0 345.6 
L 460.8 345.6 
L 460.8 0 
L 0 0 
z
" style="fill: #ffffff"/>
  </g>
  <g id="axes_1">
   <g id="patch_2">
    <path d="M 57.6 307.584 
L 414.72 307.584 
L 414.72 41.472 
L 57.6 41.472 
z
" style="fill: #ffffff"/>
   </g>
   <g id="matplotlib.axis_1">
    <g id="xtick_1">
     <g id="line2d_1">
      <defs>
       <path id="mdc61c588dc" d="M 0 0 
L 0 3.5 
" style="stroke: #000000; stroke-width: 0.8"/>
      </defs>
      <g>
       <use xlink:href="#mdc61c588dc" x="70.574235" y="307.584" style="stroke: #000000; stroke-width: 0.8"/>
      </g>
     </g>
     <g id="text_1">
      <!-- 0 -->
      <g transform="translate(67.392985 322.182437)scale(0.1 -0.1)">
       <defs>
        <path id="DejaVuSans-30" d="M 2034 4250 
Q 1547 4250 1301 3770 
Q 1056 3291 1056 2328 
Q 1056 1369 1301 889 
Q 1547 409 2034 409 
Q 2525 409 2770 889 
Q 3016 1369 3016 2328 
Q 3016 3291 2770 3770 
Q 2525 4250 2034 4250 
z
M 2034 4750 
Q 2819 4750 3233 4129 
Q 3647 3509 3647 2328 
Q 3647 1150 3233 529 
Q 2819 -91 2034 -91 
Q 1250 -91 836 529 
Q 422 1150 422 2328 
Q 422 3509 836 4129 
Q 1250 4750 2034 4750 
z
" transform="scale(0.015625)"/>
       </defs>
       <use xlink:href="#DejaVuSans-30"/>
      </g>
     </g>
    </g>
    <g id="xtick_2">
     <g id="line2d_2">
      <g>
       <use xlink:href="#mdc61c588dc" x="114.333284" y="307.584" style="stroke: #000000; stroke-width: 0.8"/>
      </g>
     </g>
     <g id="text_2">
      <!-- 20 -->
      <g transform="translate(107.970784 322.182437)scale(0.1 -0.1)">
       <defs>
        <path id="DejaVuSans-32" d="M 1228 531 
L 3431 531 
L 3431 0 
L 469 0 
L 469 531 
Q 828 903 1448 1529 
Q 2069 2156 2228 2338 
Q 2531 2678 2651 2914 
Q 2772 3150 2772 3378 
Q 2772 3750 2511 3984 
Q 2250 4219 1831 4219 
Q 1534 4219 1204 4116 
Q 875 4013 500 3803 
L 500 4441 
Q 881 4594 1212 4672 
Q 1544 4750 1819 4750 
Q 2544 4750 2975 4387 
Q 3406 4025 3406 3419 
Q 3406 3131 3298 2873 
Q 3191 2616 2906 2266 
Q 2828 2175 2409 1742 
Q 1991 1309 1228 531 
z
" transform="scale(0.015625)"/>
       </defs>
       <use xlink:href="#DejaVuSans-32"/>
       <use xlink:href="#DejaVuSans-30" x="63.623047"/>
      </g>
     </g>
    </g>
    <g id="xtick_3">
     <g id="line2d_3">
      <g>
       <use xlink:href="#mdc61c588dc" x="158.092333" y="307.584" style="stroke: #000000; stroke-width: 0.8"/>
      </g>
     </g>
     <g id="text_3">
      <!-- 40 -->
      <g transform="translate(151.729833 322.182437)scale(0.1 -0.1)">
       <defs>
        <path id="DejaVuSans-34" d="M 2419 4116 
L 825 1625 
L 2419 1625 
L 2419 4116 
z
M 2253 4666 
L 3047 4666 
L 3047 1625 
L 3713 1625 
L 3713 1100 
L 3047 1100 
L 3047 0 
L 2419 0 
L 2419 1100 
L 313 1100 
L 313 1709 
L 2253 4666 
z
" transform="scale(0.015625)"/>
       </defs>
       <use xlink:href="#DejaVuSans-34"/>
       <use xlink:href="#DejaVuSans-30" x="63.623047"/>
      </g>
     </g>
    </g>
    <g id="xtick_4">
     <g id="line2d_4">
      <g>
       <use xlink:href="#mdc61c588dc" x="201.851383" y="307.584" style="stroke: #000000; stroke-width: 0.8"/>
      </g>
     </g>
     <g id="text_4">
      <!-- 60 -->
      <g transform="translate(195.488883 322.182437)scale(0.1 -0.1)">
       <defs>
        <path id="DejaVuSans-36" d="M 2113 2584 
Q 1688 2584 1439 2293 
Q 1191 2003 1191 1497 
Q 1191 994 1439 701 
Q 1688 409 2113 409 
Q 2538 409 2786 701 
Q 3034 994 3034 1497 
Q 3034 2003 2786 2293 
Q 2538 2584 2113 2584 
z
M 3366 4563 
L 3366 3988 
Q 3128 4100 2886 4159 
Q 2644 4219 2406 4219 
Q 1781 4219 1451 3797 
Q 1122 3375 1075 2522 
Q 1259 2794 1537 2939 
Q 1816 3084 2150 3084 
Q 2853 3084 3261 2657 
Q 3669 2231 3669 1497 
Q 3669 778 3244 343 
Q 2819 -91 2113 -91 
Q 1303 -91 875 529 
Q 447 1150 447 2328 
Q 447 3434 972 4092 
Q 1497 4750 2381 4750 
Q 2619 4750 2861 4703 
Q 3103 4656 3366 4563 
z
" transform="scale(0.015625)"/>
       </defs>
       <use xlink:href="#DejaVuSans-36"/>
       <use xlink:href="#DejaVuSans-30" x="63.623047"/>
      </g>
     </g>
    </g>
    <g id="xtick_5">
     <g id="line2d_5">
      <g>
       <use xlink:href="#mdc61c588dc" x="245.610432" y="307.584" style="stroke: #000000; stroke-width: 0.8"/>
      </g>
     </g>
     <g id="text_5">
      <!-- 80 -->
      <g transform="translate(239.247932 322.182437)scale(0.1 -0.1)">
       <defs>
        <path id="DejaVuSans-38" d="M 2034 2216 
Q 1584 2216 1326 1975 
Q 1069 1734 1069 1313 
Q 1069 891 1326 650 
Q 1584 409 2034 409 
Q 2484 409 2743 651 
Q 3003 894 3003 1313 
Q 3003 1734 2745 1975 
Q 2488 2216 2034 2216 
z
M 1403 2484 
Q 997 2584 770 2862 
Q 544 3141 544 3541 
Q 544 4100 942 4425 
Q 1341 4750 2034 4750 
Q 2731 4750 3128 4425 
Q 3525 4100 3525 3541 
Q 3525 3141 3298 2862 
Q 3072 2584 2669 2484 
Q 3125 2378 3379 2068 
Q 3634 1759 3634 1313 
Q 3634 634 3220 271 
Q 2806 -91 2034 -91 
Q 1263 -91 848 271 
Q 434 634 434 1313 
Q 434 1759 690 2068 
Q 947 2378 1403 2484 
z
M 1172 3481 
Q 1172 3119 1398 2916 
Q 1625 2713 2034 2713 
Q 2441 2713 2670 2916 
Q 2900 3119 2900 3481 
Q 2900 3844 2670 4047 
Q 2441 4250 2034 4250 
Q 1625 4250 1398 4047 
Q 1172 3844 1172 3481 
z
" transform="scale(0.015625)"/>
       </defs>
       <use xlink:href="#DejaVuSans-38"/>
       <use xlink:href="#DejaVuSans-30" x="63.623047"/>
      </g>
     </g>
    </g>
    <g id="xtick_6">
     <g id="line2d_6">
      <g>
       <use xlink:href="#mdc61c588dc" x="289.369481" y="307.584" style="stroke: #000000; stroke-width: 0.8"/>
      </g>
     </g>
     <g id="text_6">
      <!-- 100 -->
      <g transform="translate(279.825731 322.182437)scale(0.1 -0.1)">
       <defs>
        <path id="DejaVuSans-31" d="M 794 531 
L 1825 531 
L 1825 4091 
L 703 3866 
L 703 4441 
L 1819 4666 
L 2450 4666 
L 2450 531 
L 3481 531 
L 3481 0 
L 794 0 
L 794 531 
z
" transform="scale(0.015625)"/>
       </defs>
       <use xlink:href="#DejaVuSans-31"/>
       <use xlink:href="#DejaVuSans-30" x="63.623047"/>
       <use xlink:href="#DejaVuSans-30" x="127.246094"/>
      </g>
     </g>
    </g>
    <g id="xtick_7">
     <g id="line2d_7">
      <g>
       <use xlink:href="#mdc61c588dc" x="333.128531" y="307.584" style="stroke: #000000; stroke-width: 0.8"/>
      </g>
     </g>
     <g id="text_7">
      <!-- 120 -->
      <g transform="translate(323.584781 322.182437)scale(0.1 -0.1)">
       <use xlink:href="#DejaVuSans-31"/>
       <use xlink:href="#DejaVuSans-32" x="63.623047"/>
       <use xlink:href="#DejaVuSans-30" x="127.246094"/>
      </g>
     </g>
    </g>
    <g id="xtick_8">
     <g id="line2d_8">
      <g>
       <use xlink:href="#mdc61c588dc" x="376.88758" y="307.584" style="stroke: #000000; stroke-width: 0.8"/>
      </g>
     </g>
     <g id="text_8">
      <!-- 140 -->
      <g transform="translate(367.34383 322.182437)scale(0.1 -0.1)">
       <use xlink:href="#DejaVuSans-31"/>
       <use xlink:href="#DejaVuSans-34" x="63.623047"/>
       <use xlink:href="#DejaVuSans-30" x="127.246094"/>
      </g>
     </g>
    </g>
   </g>
   <g id="matplotlib.axis_2">
    <g id="ytick_1">
     <g id="line2d_9">
      <defs>
       <path id="ma3d5d4b8d3" d="M 0 0 
L -3.5 0 
" style="stroke: #000000; stroke-width: 0.8"/>
      </defs>
      <g>
       <use xlink:href="#ma3d5d4b8d3" x="57.6" y="288.589035" style="stroke: #000000; stroke-width: 0.8"/>
      </g>
     </g>
     <g id="text_9">
      <!-- 3 -->
      <g transform="translate(44.2375 292.388253)scale(0.1 -0.1)">
       <defs>
        <path id="DejaVuSans-33" d="M 2597 2516 
Q 3050 2419 3304 2112 
Q 3559 1806 3559 1356 
Q 3559 666 3084 287 
Q 2609 -91 1734 -91 
Q 1441 -91 1130 -33 
Q 819 25 488 141 
L 488 750 
Q 750 597 1062 519 
Q 1375 441 1716 441 
Q 2309 441 2620 675 
Q 2931 909 2931 1356 
Q 2931 1769 2642 2001 
Q 2353 2234 1838 2234 
L 1294 2234 
L 1294 2753 
L 1863 2753 
Q 2328 2753 2575 2939 
Q 2822 3125 2822 3475 
Q 2822 3834 2567 4026 
Q 2313 4219 1838 4219 
Q 1578 4219 1281 4162 
Q 984 4106 628 3988 
L 628 4550 
Q 988 4650 1302 4700 
Q 1616 4750 1894 4750 
Q 2613 4750 3031 4423 
Q 3450 4097 3450 3541 
Q 3450 3153 3228 2886 
Q 3006 2619 2597 2516 
z
" transform="scale(0.015625)"/>
       </defs>
       <use xlink:href="#DejaVuSans-33"/>
      </g>
     </g>
    </g>
    <g id="ytick_2">
     <g id="line2d_10">
      <g>
       <use xlink:href="#ma3d5d4b8d3" x="57.6" y="234.59102" style="stroke: #000000; stroke-width: 0.8"/>
      </g>
     </g>
     <g id="text_10">
      <!-- 4 -->
      <g transform="translate(44.2375 238.390239)scale(0.1 -0.1)">
       <use xlink:href="#DejaVuSans-34"/>
      </g>
     </g>
    </g>
    <g id="ytick_3">
     <g id="line2d_11">
      <g>
       <use xlink:href="#ma3d5d4b8d3" x="57.6" y="180.593006" style="stroke: #000000; stroke-width: 0.8"/>
      </g>
     </g>
     <g id="text_11">
      <!-- 5 -->
      <g transform="translate(44.2375 184.392224)scale(0.1 -0.1)">
       <defs>
        <path id="DejaVuSans-35" d="M 691 4666 
L 3169 4666 
L 3169 4134 
L 1269 4134 
L 1269 2991 
Q 1406 3038 1543 3061 
Q 1681 3084 1819 3084 
Q 2600 3084 3056 2656 
Q 3513 2228 3513 1497 
Q 3513 744 3044 326 
Q 2575 -91 1722 -91 
Q 1428 -91 1123 -41 
Q 819 9 494 109 
L 494 744 
Q 775 591 1075 516 
Q 1375 441 1709 441 
Q 2250 441 2565 725 
Q 2881 1009 2881 1497 
Q 2881 1984 2565 2268 
Q 2250 2553 1709 2553 
Q 1456 2553 1204 2497 
Q 953 2441 691 2322 
L 691 4666 
z
" transform="scale(0.015625)"/>
       </defs>
       <use xlink:href="#DejaVuSans-35"/>
      </g>
     </g>
    </g>
    <g id="ytick_4">
     <g id="line2d_12">
      <g>
       <use xlink:href="#ma3d5d4b8d3" x="57.6" y="126.594991" style="stroke: #000000; stroke-width: 0.8"/>
      </g>
     </g>
     <g id="text_12">
      <!-- 6 -->
      <g transform="translate(44.2375 130.39421)scale(0.1 -0.1)">
       <use xlink:href="#DejaVuSans-36"/>
      </g>
     </g>
    </g>
    <g id="ytick_5">
     <g id="line2d_13">
      <g>
       <use xlink:href="#ma3d5d4b8d3" x="57.6" y="72.596976" style="stroke: #000000; stroke-width: 0.8"/>
      </g>
     </g>
     <g id="text_13">
      <!-- 7 -->
      <g transform="translate(44.2375 76.396195)scale(0.1 -0.1)">
       <defs>
        <path id="DejaVuSans-37" d="M 525 4666 
L 3525 4666 
L 3525 4397 
L 1831 0 
L 1172 0 
L 2766 4134 
L 525 4134 
L 525 4666 
z
" transform="scale(0.015625)"/>
       </defs>
       <use xlink:href="#DejaVuSans-37"/>
      </g>
     </g>
    </g>
   </g>
   <g id="line2d_14">
    <defs>
     <path id="me82a8d61f8" d="M 0 3 
C 0.795609 3 1.55874 2.683901 2.12132 2.12132 
C 2.683901 1.55874 3 0.795609 3 0 
C 3 -0.795609 2.683901 -1.55874 2.12132 -2.12132 
C 1.55874 -2.683901 0.795609 -3 0 -3 
C -0.795609 -3 -1.55874 -2.683901 -2.12132 -2.12132 
C -2.683901 -1.55874 -3 -0.795609 -3 0 
C -3 0.795609 -2.683901 1.55874 -2.12132 2.12132 
C -1.55874 2.683901 -0.795609 3 0 3 
z
" style="stroke: #1f77b4"/>
    </defs>
    <g clip-path="url(#pe24dfee174)">
     <use xlink:href="#me82a8d61f8" x="156.157858" y="144.244086" style="fill: #1f77b4; stroke: #1f77b4"/>
     <use xlink:href="#me82a8d61f8" x="165.260078" y="200.413737" style="fill: #1f77b4; stroke: #1f77b4"/>
     <use xlink:href="#me82a8d61f8" x="102.564937" y="208.154732" style="fill: #1f77b4; stroke: #1f77b4"/>
     <use xlink:href="#me82a8d61f8" x="97.204901" y="253.390029" style="fill: #1f77b4; stroke: #1f77b4"/>
     <use xlink:href="#me82a8d61f8" x="124.345848" y="207.341036" style="fill: #1f77b4; stroke: #1f77b4"/>
     <use xlink:href="#me82a8d61f8" x="80.735441" y="158.484848" style="fill: #1f77b4; stroke: #1f77b4"/>
     <use xlink:href="#me82a8d61f8" x="102.53827" y="208.504623" style="fill: #1f77b4; stroke: #1f77b4"/>
     <use xlink:href="#me82a8d61f8" x="135.395058" y="160.134096" style="fill: #1f77b4; stroke: #1f77b4"/>
     <use xlink:href="#me82a8d61f8" x="93.862343" y="213.612397" style="fill: #1f77b4; stroke: #1f77b4"/>
     <use xlink:href="#me82a8d61f8" x="102.91092" y="206.008768" style="fill: #1f77b4; stroke: #1f77b4"/>
     <use xlink:href="#me82a8d61f8" x="129.413096" y="191.479052" style="fill: #1f77b4; stroke: #1f77b4"/>
     <use xlink:href="#me82a8d61f8" x="113.726276" y="218.038045" style="fill: #1f77b4; stroke: #1f77b4"/>
     <use xlink:href="#me82a8d61f8" x="165.400881" y="195.253123" style="fill: #1f77b4; stroke: #1f77b4"/>
     <use xlink:href="#me82a8d61f8" x="140.845148" y="158.264034" style="fill: #1f77b4; stroke: #1f77b4"/>
     <use xlink:href="#me82a8d61f8" x="88.418204" y="174.451672" style="fill: #1f77b4; stroke: #1f77b4"/>
     <use xlink:href="#me82a8d61f8" x="96.987982" y="250.769451" style="fill: #1f77b4; stroke: #1f77b4"/>
     <use xlink:href="#me82a8d61f8" x="93.439099" y="215.398914" style="fill: #1f77b4; stroke: #1f77b4"/>
     <use xlink:href="#me82a8d61f8" x="78.695917" y="171.767009" style="fill: #1f77b4; stroke: #1f77b4"/>
     <use xlink:href="#me82a8d61f8" x="102.132566" y="220.971377" style="fill: #1f77b4; stroke: #1f77b4"/>
     <use xlink:href="#me82a8d61f8" x="170.502613" y="197.878455" style="fill: #1f77b4; stroke: #1f77b4"/>
     <use xlink:href="#me82a8d61f8" x="128.838687" y="200.976052" style="fill: #1f77b4; stroke: #1f77b4"/>
     <use xlink:href="#me82a8d61f8" x="111.080601" y="174.306597" style="fill: #1f77b4; stroke: #1f77b4"/>
     <use xlink:href="#me82a8d61f8" x="131.965711" y="173.351377" style="fill: #1f77b4; stroke: #1f77b4"/>
     <use xlink:href="#me82a8d61f8" x="95.795501" y="235.590769" style="fill: #1f77b4; stroke: #1f77b4"/>
     <use xlink:href="#me82a8d61f8" x="157.885501" y="154.122243" style="fill: #1f77b4; stroke: #1f77b4"/>
     <use xlink:href="#me82a8d61f8" x="155.478368" y="142.374611" style="fill: #1f77b4; stroke: #1f77b4"/>
     <use xlink:href="#me82a8d61f8" x="113.07009" y="215.350462" style="fill: #1f77b4; stroke: #1f77b4"/>
     <use xlink:href="#me82a8d61f8" x="74.242515" y="165.554595" style="fill: #1f77b4; stroke: #1f77b4"/>
     <use xlink:href="#me82a8d61f8" x="109.952353" y="176.656394" style="fill: #1f77b4; stroke: #1f77b4"/>
     <use xlink:href="#me82a8d61f8" x="142.411443" y="144.355637" style="fill: #1f77b4; stroke: #1f77b4"/>
     <use xlink:href="#me82a8d61f8" x="85.754421" y="185.313876" style="fill: #1f77b4; stroke: #1f77b4"/>
     <use xlink:href="#me82a8d61f8" x="135.350585" y="167.414633" style="fill: #1f77b4; stroke: #1f77b4"/>
     <use xlink:href="#me82a8d61f8" x="143.218296" y="132.460167" style="fill: #1f77b4; stroke: #1f77b4"/>
     <use xlink:href="#me82a8d61f8" x="98.222223" y="262.120724" style="fill: #1f77b4; stroke: #1f77b4"/>
     <use xlink:href="#me82a8d61f8" x="102.259852" y="216.736083" style="fill: #1f77b4; stroke: #1f77b4"/>
     <use xlink:href="#me82a8d61f8" x="171.804984" y="188.814514" style="fill: #1f77b4; stroke: #1f77b4"/>
     <use xlink:href="#me82a8d61f8" x="130.193514" y="185.396338" style="fill: #1f77b4; stroke: #1f77b4"/>
     <use xlink:href="#me82a8d61f8" x="161.700845" y="177.463021" style="fill: #1f77b4; stroke: #1f77b4"/>
     <use xlink:href="#me82a8d61f8" x="73.832727" y="171.786677" style="fill: #1f77b4; stroke: #1f77b4"/>
     <use xlink:href="#me82a8d61f8" x="138.767231" y="156.792662" style="fill: #1f77b4; stroke: #1f77b4"/>
     <use xlink:href="#me82a8d61f8" x="84.853826" y="179.297067" style="fill: #1f77b4; stroke: #1f77b4"/>
     <use xlink:href="#me82a8d61f8" x="144.705526" y="129.179824" style="fill: #1f77b4; stroke: #1f77b4"/>
     <use xlink:href="#me82a8d61f8" x="150.36655" y="108.527128" style="fill: #1f77b4; stroke: #1f77b4"/>
     <use xlink:href="#me82a8d61f8" x="104.033054" y="186.060056" style="fill: #1f77b4; stroke: #1f77b4"/>
     <use xlink:href="#me82a8d61f8" x="120.679058" y="191.766448" style="fill: #1f77b4; stroke: #1f77b4"/>
     <use xlink:href="#me82a8d61f8" x="169.881667" y="196.463846" style="fill: #1f77b4; stroke: #1f77b4"/>
     <use xlink:href="#me82a8d61f8" x="151.192063" y="118.920778" style="fill: #1f77b4; stroke: #1f77b4"/>
     <use xlink:href="#me82a8d61f8" x="104.85439" y="183.338191" style="fill: #1f77b4; stroke: #1f77b4"/>
     <use xlink:href="#me82a8d61f8" x="159.497945" y="167.690733" style="fill: #1f77b4; stroke: #1f77b4"/>
     <use xlink:href="#me82a8d61f8" x="112.360921" y="204.869494" style="fill: #1f77b4; stroke: #1f77b4"/>
    </g>
   </g>
   <g id="line2d_15">
    <defs>
     <path id="m6f4f02845e" d="M 0 3 
C 0.795609 3 1.55874 2.683901 2.12132 2.12132 
C 2.683901 1.55874 3 0.795609 3 0 
C 3 -0.795609 2.683901 -1.55874 2.12132 -2.12132 
C 1.55874 -2.683901 0.795609 -3 0 -3 
C -0.795609 -3 -1.55874 -2.683901 -2.12132 -2.12132 
C -2.683901 -1.55874 -3 -0.795609 -3 0 
C -3 0.795609 -2.683901 1.55874 -2.12132 2.12132 
C -1.55874 2.683901 -0.795609 3 0 3 
z
" style="stroke: #ff7f0e"/>
    </defs>
    <g clip-path="url(#pe24dfee174)">
     <use xlink:href="#m6f4f02845e" x="198.62947" y="59.62936" style="fill: #ff7f0e; stroke: #ff7f0e"/>
     <use xlink:href="#m6f4f02845e" x="194.316787" y="60.424381" style="fill: #ff7f0e; stroke: #ff7f0e"/>
     <use xlink:href="#m6f4f02845e" x="231.233947" y="112.104948" style="fill: #ff7f0e; stroke: #ff7f0e"/>
     <use xlink:href="#m6f4f02845e" x="206.617832" y="128.524742" style="fill: #ff7f0e; stroke: #ff7f0e"/>
     <use xlink:href="#m6f4f02845e" x="255.517437" y="150.891967" style="fill: #ff7f0e; stroke: #ff7f0e"/>
     <use xlink:href="#m6f4f02845e" x="257.761253" y="114.421208" style="fill: #ff7f0e; stroke: #ff7f0e"/>
     <use xlink:href="#m6f4f02845e" x="276.532711" y="116.211993" style="fill: #ff7f0e; stroke: #ff7f0e"/>
     <use xlink:href="#m6f4f02845e" x="288.893982" y="159.904419" style="fill: #ff7f0e; stroke: #ff7f0e"/>
     <use xlink:href="#m6f4f02845e" x="271.206338" y="128.648094" style="fill: #ff7f0e; stroke: #ff7f0e"/>
     <use xlink:href="#m6f4f02845e" x="222.463336" y="117.503312" style="fill: #ff7f0e; stroke: #ff7f0e"/>
     <use xlink:href="#m6f4f02845e" x="282.465467" y="204.683558" style="fill: #ff7f0e; stroke: #ff7f0e"/>
     <use xlink:href="#m6f4f02845e" x="209.948057" y="155.629291" style="fill: #ff7f0e; stroke: #ff7f0e"/>
     <use xlink:href="#m6f4f02845e" x="276.665446" y="118.00714" style="fill: #ff7f0e; stroke: #ff7f0e"/>
     <use xlink:href="#m6f4f02845e" x="278.474369" y="142.283184" style="fill: #ff7f0e; stroke: #ff7f0e"/>
     <use xlink:href="#m6f4f02845e" x="260.397225" y="113.627912" style="fill: #ff7f0e; stroke: #ff7f0e"/>
     <use xlink:href="#m6f4f02845e" x="258.780826" y="109.732337" style="fill: #ff7f0e; stroke: #ff7f0e"/>
     <use xlink:href="#m6f4f02845e" x="192.110695" y="74.030477" style="fill: #ff7f0e; stroke: #ff7f0e"/>
     <use xlink:href="#m6f4f02845e" x="180.604004" y="142.005974" style="fill: #ff7f0e; stroke: #ff7f0e"/>
     <use xlink:href="#m6f4f02845e" x="233.141625" y="143.287728" style="fill: #ff7f0e; stroke: #ff7f0e"/>
     <use xlink:href="#m6f4f02845e" x="228.558698" y="89.766018" style="fill: #ff7f0e; stroke: #ff7f0e"/>
     <use xlink:href="#m6f4f02845e" x="239.859064" y="234.605942" style="fill: #ff7f0e; stroke: #ff7f0e"/>
     <use xlink:href="#m6f4f02845e" x="271.135092" y="136.603533" style="fill: #ff7f0e; stroke: #ff7f0e"/>
     <use xlink:href="#m6f4f02845e" x="216.405212" y="94.322956" style="fill: #ff7f0e; stroke: #ff7f0e"/>
     <use xlink:href="#m6f4f02845e" x="232.931698" y="130.264923" style="fill: #ff7f0e; stroke: #ff7f0e"/>
     <use xlink:href="#m6f4f02845e" x="219.694549" y="99.315925" style="fill: #ff7f0e; stroke: #ff7f0e"/>
     <use xlink:href="#m6f4f02845e" x="271.188031" y="128.393539" style="fill: #ff7f0e; stroke: #ff7f0e"/>
     <use xlink:href="#m6f4f02845e" x="192.386736" y="84.901084" style="fill: #ff7f0e; stroke: #ff7f0e"/>
     <use xlink:href="#m6f4f02845e" x="248.202354" y="229.120062" style="fill: #ff7f0e; stroke: #ff7f0e"/>
     <use xlink:href="#m6f4f02845e" x="238.760354" y="232.266036" style="fill: #ff7f0e; stroke: #ff7f0e"/>
     <use xlink:href="#m6f4f02845e" x="226.460845" y="115.078291" style="fill: #ff7f0e; stroke: #ff7f0e"/>
     <use xlink:href="#m6f4f02845e" x="243.45478" y="225.827589" style="fill: #ff7f0e; stroke: #ff7f0e"/>
     <use xlink:href="#m6f4f02845e" x="285.085261" y="213.822466" style="fill: #ff7f0e; stroke: #ff7f0e"/>
     <use xlink:href="#m6f4f02845e" x="218.40082" y="95.535743" style="fill: #ff7f0e; stroke: #ff7f0e"/>
     <use xlink:href="#m6f4f02845e" x="186.897922" y="57.984108" style="fill: #ff7f0e; stroke: #ff7f0e"/>
     <use xlink:href="#m6f4f02845e" x="226.51157" y="113.069572" style="fill: #ff7f0e; stroke: #ff7f0e"/>
     <use xlink:href="#m6f4f02845e" x="215.706487" y="123.724446" style="fill: #ff7f0e; stroke: #ff7f0e"/>
     <use xlink:href="#m6f4f02845e" x="240.047105" y="247.717816" style="fill: #ff7f0e; stroke: #ff7f0e"/>
     <use xlink:href="#m6f4f02845e" x="250.478638" y="233.159723" style="fill: #ff7f0e; stroke: #ff7f0e"/>
     <use xlink:href="#m6f4f02845e" x="258.291855" y="115.890106" style="fill: #ff7f0e; stroke: #ff7f0e"/>
     <use xlink:href="#m6f4f02845e" x="250.353124" y="232.313857" style="fill: #ff7f0e; stroke: #ff7f0e"/>
     <use xlink:href="#m6f4f02845e" x="243.483454" y="215.995599" style="fill: #ff7f0e; stroke: #ff7f0e"/>
     <use xlink:href="#m6f4f02845e" x="276.254985" y="111.390373" style="fill: #ff7f0e; stroke: #ff7f0e"/>
     <use xlink:href="#m6f4f02845e" x="277.425585" y="112.693892" style="fill: #ff7f0e; stroke: #ff7f0e"/>
     <use xlink:href="#m6f4f02845e" x="261.735962" y="111.257633" style="fill: #ff7f0e; stroke: #ff7f0e"/>
     <use xlink:href="#m6f4f02845e" x="233.460996" y="136.04264" style="fill: #ff7f0e; stroke: #ff7f0e"/>
     <use xlink:href="#m6f4f02845e" x="208.706512" y="137.892587" style="fill: #ff7f0e; stroke: #ff7f0e"/>
     <use xlink:href="#m6f4f02845e" x="257.307134" y="114.268642" style="fill: #ff7f0e; stroke: #ff7f0e"/>
     <use xlink:href="#m6f4f02845e" x="284.480795" y="196.166133" style="fill: #ff7f0e; stroke: #ff7f0e"/>
     <use xlink:href="#m6f4f02845e" x="207.935318" y="136.674327" style="fill: #ff7f0e; stroke: #ff7f0e"/>
     <use xlink:href="#m6f4f02845e" x="222.755478" y="114.301873" style="fill: #ff7f0e; stroke: #ff7f0e"/>
    </g>
   </g>
   <g id="line2d_16">
    <defs>
     <path id="mb36ce67336" d="M 0 3 
C 0.795609 3 1.55874 2.683901 2.12132 2.12132 
C 2.683901 1.55874 3 0.795609 3 0 
C 3 -0.795609 2.683901 -1.55874 2.12132 -2.12132 
C 1.55874 -2.683901 0.795609 -3 0 -3 
C -0.795609 -3 -1.55874 -2.683901 -2.12132 -2.12132 
C -2.683901 -1.55874 -3 -0.795609 -3 0 
C -3 0.795609 -2.683901 1.55874 -2.12132 2.12132 
C -1.55874 2.683901 -0.795609 3 0 3 
z
" style="stroke: #2ca02c"/>
    </defs>
    <g clip-path="url(#pe24dfee174)">
     <use xlink:href="#mb36ce67336" x="321.305928" y="129.713151" style="fill: #2ca02c; stroke: #2ca02c"/>
     <use xlink:href="#mb36ce67336" x="304.691374" y="226.796591" style="fill: #2ca02c; stroke: #2ca02c"/>
     <use xlink:href="#mb36ce67336" x="395.116438" y="69.717337" style="fill: #2ca02c; stroke: #2ca02c"/>
     <use xlink:href="#mb36ce67336" x="372.69198" y="95.543189" style="fill: #2ca02c; stroke: #2ca02c"/>
     <use xlink:href="#mb36ce67336" x="333.753918" y="81.326667" style="fill: #2ca02c; stroke: #2ca02c"/>
     <use xlink:href="#mb36ce67336" x="292.699555" y="164.216051" style="fill: #2ca02c; stroke: #2ca02c"/>
     <use xlink:href="#mb36ce67336" x="349.289537" y="186.743363" style="fill: #2ca02c; stroke: #2ca02c"/>
     <use xlink:href="#mb36ce67336" x="308.16379" y="153.465254" style="fill: #2ca02c; stroke: #2ca02c"/>
     <use xlink:href="#mb36ce67336" x="304.386608" y="206.232885" style="fill: #2ca02c; stroke: #2ca02c"/>
     <use xlink:href="#mb36ce67336" x="386.904973" y="76.30761" style="fill: #2ca02c; stroke: #2ca02c"/>
     <use xlink:href="#mb36ce67336" x="295.207505" y="199.617515" style="fill: #2ca02c; stroke: #2ca02c"/>
     <use xlink:href="#mb36ce67336" x="333.536318" y="86.408404" style="fill: #2ca02c; stroke: #2ca02c"/>
     <use xlink:href="#mb36ce67336" x="382.403224" y="99.892188" style="fill: #2ca02c; stroke: #2ca02c"/>
     <use xlink:href="#mb36ce67336" x="336.227273" y="141.363456" style="fill: #2ca02c; stroke: #2ca02c"/>
     <use xlink:href="#mb36ce67336" x="365.190407" y="135.803892" style="fill: #2ca02c; stroke: #2ca02c"/>
     <use xlink:href="#mb36ce67336" x="331.392048" y="69.830927" style="fill: #2ca02c; stroke: #2ca02c"/>
     <use xlink:href="#mb36ce67336" x="378.255522" y="84.871887" style="fill: #2ca02c; stroke: #2ca02c"/>
     <use xlink:href="#mb36ce67336" x="372.349313" y="88.744473" style="fill: #2ca02c; stroke: #2ca02c"/>
     <use xlink:href="#mb36ce67336" x="355.833519" y="281.355543" style="fill: #2ca02c; stroke: #2ca02c"/>
     <use xlink:href="#mb36ce67336" x="358.400646" y="295.488" style="fill: #2ca02c; stroke: #2ca02c"/>
     <use xlink:href="#mb36ce67336" x="321.903531" y="131.197553" style="fill: #2ca02c; stroke: #2ca02c"/>
     <use xlink:href="#mb36ce67336" x="338.514292" y="190.773298" style="fill: #2ca02c; stroke: #2ca02c"/>
     <use xlink:href="#mb36ce67336" x="329.92048" y="75.173968" style="fill: #2ca02c; stroke: #2ca02c"/>
     <use xlink:href="#mb36ce67336" x="360.831433" y="262.238754" style="fill: #2ca02c; stroke: #2ca02c"/>
     <use xlink:href="#mb36ce67336" x="375.512422" y="85.695777" style="fill: #2ca02c; stroke: #2ca02c"/>
     <use xlink:href="#mb36ce67336" x="321.772815" y="135.477838" style="fill: #2ca02c; stroke: #2ca02c"/>
     <use xlink:href="#mb36ce67336" x="391.161185" y="123.046601" style="fill: #2ca02c; stroke: #2ca02c"/>
     <use xlink:href="#mb36ce67336" x="395.702032" y="66.685841" style="fill: #2ca02c; stroke: #2ca02c"/>
     <use xlink:href="#mb36ce67336" x="330.769967" y="70.164933" style="fill: #2ca02c; stroke: #2ca02c"/>
     <use xlink:href="#mb36ce67336" x="370.693125" y="65.950366" style="fill: #2ca02c; stroke: #2ca02c"/>
     <use xlink:href="#mb36ce67336" x="295.831959" y="253.652743" style="fill: #2ca02c; stroke: #2ca02c"/>
     <use xlink:href="#mb36ce67336" x="362.281331" y="227.402882" style="fill: #2ca02c; stroke: #2ca02c"/>
     <use xlink:href="#mb36ce67336" x="324.773091" y="144.459287" style="fill: #2ca02c; stroke: #2ca02c"/>
     <use xlink:href="#mb36ce67336" x="359.967585" y="285.573134" style="fill: #2ca02c; stroke: #2ca02c"/>
     <use xlink:href="#mb36ce67336" x="382.869165" y="102.468235" style="fill: #2ca02c; stroke: #2ca02c"/>
     <use xlink:href="#mb36ce67336" x="398.487273" y="62.565213" style="fill: #2ca02c; stroke: #2ca02c"/>
     <use xlink:href="#mb36ce67336" x="380.374291" y="109.787104" style="fill: #2ca02c; stroke: #2ca02c"/>
     <use xlink:href="#mb36ce67336" x="334.019191" y="98.136258" style="fill: #2ca02c; stroke: #2ca02c"/>
     <use xlink:href="#mb36ce67336" x="393.880037" y="94.237308" style="fill: #2ca02c; stroke: #2ca02c"/>
     <use xlink:href="#mb36ce67336" x="326.438812" y="109.648023" style="fill: #2ca02c; stroke: #2ca02c"/>
     <use xlink:href="#mb36ce67336" x="365.122757" y="135.159875" style="fill: #2ca02c; stroke: #2ca02c"/>
     <use xlink:href="#mb36ce67336" x="307.273717" y="171.702445" style="fill: #2ca02c; stroke: #2ca02c"/>
     <use xlink:href="#mb36ce67336" x="378.307939" y="101.459435" style="fill: #2ca02c; stroke: #2ca02c"/>
     <use xlink:href="#mb36ce67336" x="327.59337" y="81.029281" style="fill: #2ca02c; stroke: #2ca02c"/>
     <use xlink:href="#mb36ce67336" x="302.443687" y="248.155878" style="fill: #2ca02c; stroke: #2ca02c"/>
     <use xlink:href="#mb36ce67336" x="374.702611" y="102.602793" style="fill: #2ca02c; stroke: #2ca02c"/>
     <use xlink:href="#mb36ce67336" x="327.260176" y="102.85618" style="fill: #2ca02c; stroke: #2ca02c"/>
     <use xlink:href="#mb36ce67336" x="369.511244" y="53.568" style="fill: #2ca02c; stroke: #2ca02c"/>
     <use xlink:href="#mb36ce67336" x="385.535369" y="87.647463" style="fill: #2ca02c; stroke: #2ca02c"/>
     <use xlink:href="#mb36ce67336" x="339.268371" y="195.824615" style="fill: #2ca02c; stroke: #2ca02c"/>
    </g>
   </g>
   <g id="patch_3">
    <path d="M 57.6 307.584 
L 57.6 41.472 
" style="fill: none; stroke: #000000; stroke-width: 0.8; stroke-linejoin: miter; stroke-linecap: square"/>
   </g>
   <g id="patch_4">
    <path d="M 414.72 307.584 
L 414.72 41.472 
" style="fill: none; stroke: #000000; stroke-width: 0.8; stroke-linejoin: miter; stroke-linecap: square"/>
   </g>
   <g id="patch_5">
    <path d="M 57.6 307.584 
L 414.72 307.584 
" style="fill: none; stroke: #000000; stroke-width: 0.8; stroke-linejoin: miter; stroke-linecap: square"/>
   </g>
   <g id="patch_6">
    <path d="M 57.6 41.472 
L 414.72 41.472 
" style="fill: none; stroke: #000000; stroke-width: 0.8; stroke-linejoin: miter; stroke-linecap: square"/>
   </g>
   <g id="legend_1">
    <g id="patch_7">
     <path d="M 64.6 93.506375 
L 122.05 93.506375 
Q 124.05 93.506375 124.05 91.506375 
L 124.05 48.472 
Q 124.05 46.472 122.05 46.472 
L 64.6 46.472 
Q 62.6 46.472 62.6 48.472 
L 62.6 91.506375 
Q 62.6 93.506375 64.6 93.506375 
z
" style="fill: #ffffff; opacity: 0.8; stroke: #cccccc; stroke-linejoin: miter"/>
    </g>
    <g id="line2d_17">
     <g>
      <use xlink:href="#me82a8d61f8" x="76.6" y="54.570438" style="fill: #1f77b4; stroke: #1f77b4"/>
     </g>
    </g>
    <g id="text_14">
     <!-- 4300 -->
     <g transform="translate(94.6 58.070438)scale(0.1 -0.1)">
      <use xlink:href="#DejaVuSans-34"/>
      <use xlink:href="#DejaVuSans-33" x="63.623047"/>
      <use xlink:href="#DejaVuSans-30" x="127.246094"/>
      <use xlink:href="#DejaVuSans-30" x="190.869141"/>
     </g>
    </g>
    <g id="line2d_18">
     <g>
      <use xlink:href="#m6f4f02845e" x="76.6" y="69.248563" style="fill: #ff7f0e; stroke: #ff7f0e"/>
     </g>
    </g>
    <g id="text_15">
     <!-- 5700 -->
     <g transform="translate(94.6 72.748563)scale(0.1 -0.1)">
      <use xlink:href="#DejaVuSans-35"/>
      <use xlink:href="#DejaVuSans-37" x="63.623047"/>
      <use xlink:href="#DejaVuSans-30" x="127.246094"/>
      <use xlink:href="#DejaVuSans-30" x="190.869141"/>
     </g>
    </g>
    <g id="line2d_19">
     <g>
      <use xlink:href="#mb36ce67336" x="76.6" y="83.926688" style="fill: #2ca02c; stroke: #2ca02c"/>
     </g>
    </g>
    <g id="text_16">
     <!-- 6200 -->
     <g transform="translate(94.6 87.426688)scale(0.1 -0.1)">
      <use xlink:href="#DejaVuSans-36"/>
      <use xlink:href="#DejaVuSans-32" x="63.623047"/>
      <use xlink:href="#DejaVuSans-30" x="127.246094"/>
      <use xlink:href="#DejaVuSans-30" x="190.869141"/>
     </g>
    </g>
   </g>
  </g>
 </g>
 <defs>
  <clipPath id="pe24dfee174">
   <rect x="57.6" y="41.472" width="357.12" height="266.112"/>
  </clipPath>
 </defs>
</svg>
