<?xml version="1.0" encoding="utf-8" standalone="no"?>
<!DOCTYPE svg PUBLIC "-//W3C//DTD SVG 1.1//EN"
  "http://www.w3.org/Graphics/SVG/1.1/DTD/svg11.dtd">
<svg xmlns:xlink="http://www.w3.org/1999/xlink" width="460.8pt" height="345.6pt" viewBox="0 0 460.8 345.6" xmlns="http://www.w3.org/2000/svg" version="1.1">
 <metadata>
  <rdf:RDF xmlns:dc="http://purl.org/dc/elements/1.1/" xmlns:cc="http://creativecommons.org/ns#" xmlns:rdf="http://www.w3.org/1999/02/22-rdf-syntax-ns#">
   <cc:Work>
    <dc:type rdf:resource="http://purl.org/dc/dcmitype/StillImage"/>
    <dc:date>2022-02-02T21:48:02.966392</dc:date>
    <dc:format>image/svg+xml</dc:format>
    <dc:creator>
     <cc:Agent>
      <dc:title>Matplotlib v3.5.1, https://matplotlib.org/</dc:title>
     </cc:Agent>
    </dc:creator>
   </cc:Work>
  </rdf:RDF>
 </metadata>
 <defs>
  <style type="text/css">*{stroke-linejoin: round; stroke-linecap: butt}</style>
 </defs>
 <g id="figure_1">
  <g id="patch_1">
   <path d="M 0 345.6 
L 460.8 345.6 
L 460.8 0 
L 0 0 
z
" style="fill: #ffffff"/>
  </g>
  <g id="axes_1">
   <g id="patch_2">
    <path d="M 57.6 307.584 
L 414.72 307.584 
L 414.72 41.472 
L 57.6 41.472 
z
" style="fill: #ffffff"/>
   </g>
   <g id="matplotlib.axis_1">
    <g id="xtick_1">
     <g id="line2d_1">
      <defs>
       <path id="mb1e772d407" d="M 0 0 
L 0 3.5 
" style="stroke: #000000; stroke-width: 0.8"/>
      </defs>
      <g>
       <use xlink:href="#mb1e772d407" x="73.832727" y="307.584" style="stroke: #000000; stroke-width: 0.8"/>
      </g>
     </g>
     <g id="text_1">
      <!-- $\mathdefault{10^{5}}$ -->
      <g transform="translate(65.032727 322.182437)scale(0.1 -0.1)">
       <defs>
        <path id="DejaVuSans-31" d="M 794 531 
L 1825 531 
L 1825 4091 
L 703 3866 
L 703 4441 
L 1819 4666 
L 2450 4666 
L 2450 531 
L 3481 531 
L 3481 0 
L 794 0 
L 794 531 
z
" transform="scale(0.015625)"/>
        <path id="DejaVuSans-30" d="M 2034 4250 
Q 1547 4250 1301 3770 
Q 1056 3291 1056 2328 
Q 1056 1369 1301 889 
Q 1547 409 2034 409 
Q 2525 409 2770 889 
Q 3016 1369 3016 2328 
Q 3016 3291 2770 3770 
Q 2525 4250 2034 4250 
z
M 2034 4750 
Q 2819 4750 3233 4129 
Q 3647 3509 3647 2328 
Q 3647 1150 3233 529 
Q 2819 -91 2034 -91 
Q 1250 -91 836 529 
Q 422 1150 422 2328 
Q 422 3509 836 4129 
Q 1250 4750 2034 4750 
z
" transform="scale(0.015625)"/>
        <path id="DejaVuSans-35" d="M 691 4666 
L 3169 4666 
L 3169 4134 
L 1269 4134 
L 1269 2991 
Q 1406 3038 1543 3061 
Q 1681 3084 1819 3084 
Q 2600 3084 3056 2656 
Q 3513 2228 3513 1497 
Q 3513 744 3044 326 
Q 2575 -91 1722 -91 
Q 1428 -91 1123 -41 
Q 819 9 494 109 
L 494 744 
Q 775 591 1075 516 
Q 1375 441 1709 441 
Q 2250 441 2565 725 
Q 2881 1009 2881 1497 
Q 2881 1984 2565 2268 
Q 2250 2553 1709 2553 
Q 1456 2553 1204 2497 
Q 953 2441 691 2322 
L 691 4666 
z
" transform="scale(0.015625)"/>
       </defs>
       <use xlink:href="#DejaVuSans-31" transform="translate(0 0.684375)"/>
       <use xlink:href="#DejaVuSans-30" transform="translate(63.623047 0.684375)"/>
       <use xlink:href="#DejaVuSans-35" transform="translate(128.203125 38.965625)scale(0.7)"/>
      </g>
     </g>
    </g>
    <g id="xtick_2">
     <g id="line2d_2">
      <g>
       <use xlink:href="#mb1e772d407" x="138.763636" y="307.584" style="stroke: #000000; stroke-width: 0.8"/>
      </g>
     </g>
     <g id="text_2">
      <!-- $\mathdefault{10^{6}}$ -->
      <g transform="translate(129.963636 322.182437)scale(0.1 -0.1)">
       <defs>
        <path id="DejaVuSans-36" d="M 2113 2584 
Q 1688 2584 1439 2293 
Q 1191 2003 1191 1497 
Q 1191 994 1439 701 
Q 1688 409 2113 409 
Q 2538 409 2786 701 
Q 3034 994 3034 1497 
Q 3034 2003 2786 2293 
Q 2538 2584 2113 2584 
z
M 3366 4563 
L 3366 3988 
Q 3128 4100 2886 4159 
Q 2644 4219 2406 4219 
Q 1781 4219 1451 3797 
Q 1122 3375 1075 2522 
Q 1259 2794 1537 2939 
Q 1816 3084 2150 3084 
Q 2853 3084 3261 2657 
Q 3669 2231 3669 1497 
Q 3669 778 3244 343 
Q 2819 -91 2113 -91 
Q 1303 -91 875 529 
Q 447 1150 447 2328 
Q 447 3434 972 4092 
Q 1497 4750 2381 4750 
Q 2619 4750 2861 4703 
Q 3103 4656 3366 4563 
z
" transform="scale(0.015625)"/>
       </defs>
       <use xlink:href="#DejaVuSans-31" transform="translate(0 0.765625)"/>
       <use xlink:href="#DejaVuSans-30" transform="translate(63.623047 0.765625)"/>
       <use xlink:href="#DejaVuSans-36" transform="translate(128.203125 39.046875)scale(0.7)"/>
      </g>
     </g>
    </g>
    <g id="xtick_3">
     <g id="line2d_3">
      <g>
       <use xlink:href="#mb1e772d407" x="203.694545" y="307.584" style="stroke: #000000; stroke-width: 0.8"/>
      </g>
     </g>
     <g id="text_3">
      <!-- $\mathdefault{10^{7}}$ -->
      <g transform="translate(194.894545 322.182437)scale(0.1 -0.1)">
       <defs>
        <path id="DejaVuSans-37" d="M 525 4666 
L 3525 4666 
L 3525 4397 
L 1831 0 
L 1172 0 
L 2766 4134 
L 525 4134 
L 525 4666 
z
" transform="scale(0.015625)"/>
       </defs>
       <use xlink:href="#DejaVuSans-31" transform="translate(0 0.684375)"/>
       <use xlink:href="#DejaVuSans-30" transform="translate(63.623047 0.684375)"/>
       <use xlink:href="#DejaVuSans-37" transform="translate(128.203125 38.965625)scale(0.7)"/>
      </g>
     </g>
    </g>
    <g id="xtick_4">
     <g id="line2d_4">
      <g>
       <use xlink:href="#mb1e772d407" x="268.625455" y="307.584" style="stroke: #000000; stroke-width: 0.8"/>
      </g>
     </g>
     <g id="text_4">
      <!-- $\mathdefault{10^{8}}$ -->
      <g transform="translate(259.825455 322.182437)scale(0.1 -0.1)">
       <defs>
        <path id="DejaVuSans-38" d="M 2034 2216 
Q 1584 2216 1326 1975 
Q 1069 1734 1069 1313 
Q 1069 891 1326 650 
Q 1584 409 2034 409 
Q 2484 409 2743 651 
Q 3003 894 3003 1313 
Q 3003 1734 2745 1975 
Q 2488 2216 2034 2216 
z
M 1403 2484 
Q 997 2584 770 2862 
Q 544 3141 544 3541 
Q 544 4100 942 4425 
Q 1341 4750 2034 4750 
Q 2731 4750 3128 4425 
Q 3525 4100 3525 3541 
Q 3525 3141 3298 2862 
Q 3072 2584 2669 2484 
Q 3125 2378 3379 2068 
Q 3634 1759 3634 1313 
Q 3634 634 3220 271 
Q 2806 -91 2034 -91 
Q 1263 -91 848 271 
Q 434 634 434 1313 
Q 434 1759 690 2068 
Q 947 2378 1403 2484 
z
M 1172 3481 
Q 1172 3119 1398 2916 
Q 1625 2713 2034 2713 
Q 2441 2713 2670 2916 
Q 2900 3119 2900 3481 
Q 2900 3844 2670 4047 
Q 2441 4250 2034 4250 
Q 1625 4250 1398 4047 
Q 1172 3844 1172 3481 
z
" transform="scale(0.015625)"/>
       </defs>
       <use xlink:href="#DejaVuSans-31" transform="translate(0 0.765625)"/>
       <use xlink:href="#DejaVuSans-30" transform="translate(63.623047 0.765625)"/>
       <use xlink:href="#DejaVuSans-38" transform="translate(128.203125 39.046875)scale(0.7)"/>
      </g>
     </g>
    </g>
    <g id="xtick_5">
     <g id="line2d_5">
      <g>
       <use xlink:href="#mb1e772d407" x="333.556364" y="307.584" style="stroke: #000000; stroke-width: 0.8"/>
      </g>
     </g>
     <g id="text_5">
      <!-- $\mathdefault{10^{9}}$ -->
      <g transform="translate(324.756364 322.182437)scale(0.1 -0.1)">
       <defs>
        <path id="DejaVuSans-39" d="M 703 97 
L 703 672 
Q 941 559 1184 500 
Q 1428 441 1663 441 
Q 2288 441 2617 861 
Q 2947 1281 2994 2138 
Q 2813 1869 2534 1725 
Q 2256 1581 1919 1581 
Q 1219 1581 811 2004 
Q 403 2428 403 3163 
Q 403 3881 828 4315 
Q 1253 4750 1959 4750 
Q 2769 4750 3195 4129 
Q 3622 3509 3622 2328 
Q 3622 1225 3098 567 
Q 2575 -91 1691 -91 
Q 1453 -91 1209 -44 
Q 966 3 703 97 
z
M 1959 2075 
Q 2384 2075 2632 2365 
Q 2881 2656 2881 3163 
Q 2881 3666 2632 3958 
Q 2384 4250 1959 4250 
Q 1534 4250 1286 3958 
Q 1038 3666 1038 3163 
Q 1038 2656 1286 2365 
Q 1534 2075 1959 2075 
z
" transform="scale(0.015625)"/>
       </defs>
       <use xlink:href="#DejaVuSans-31" transform="translate(0 0.765625)"/>
       <use xlink:href="#DejaVuSans-30" transform="translate(63.623047 0.765625)"/>
       <use xlink:href="#DejaVuSans-39" transform="translate(128.203125 39.046875)scale(0.7)"/>
      </g>
     </g>
    </g>
    <g id="xtick_6">
     <g id="line2d_6">
      <g>
       <use xlink:href="#mb1e772d407" x="398.487273" y="307.584" style="stroke: #000000; stroke-width: 0.8"/>
      </g>
     </g>
     <g id="text_6">
      <!-- $\mathdefault{10^{10}}$ -->
      <g transform="translate(387.437273 322.182437)scale(0.1 -0.1)">
       <use xlink:href="#DejaVuSans-31" transform="translate(0 0.765625)"/>
       <use xlink:href="#DejaVuSans-30" transform="translate(63.623047 0.765625)"/>
       <use xlink:href="#DejaVuSans-31" transform="translate(128.203125 39.046875)scale(0.7)"/>
       <use xlink:href="#DejaVuSans-30" transform="translate(172.739258 39.046875)scale(0.7)"/>
      </g>
     </g>
    </g>
    <g id="xtick_7">
     <g id="line2d_7">
      <defs>
       <path id="madd4277cc4" d="M 0 0 
L 0 2 
" style="stroke: #000000; stroke-width: 0.6"/>
      </defs>
      <g>
       <use xlink:href="#madd4277cc4" x="59.427886" y="307.584" style="stroke: #000000; stroke-width: 0.6"/>
      </g>
     </g>
    </g>
    <g id="xtick_8">
     <g id="line2d_8">
      <g>
       <use xlink:href="#madd4277cc4" x="63.774802" y="307.584" style="stroke: #000000; stroke-width: 0.6"/>
      </g>
     </g>
    </g>
    <g id="xtick_9">
     <g id="line2d_9">
      <g>
       <use xlink:href="#madd4277cc4" x="67.540272" y="307.584" style="stroke: #000000; stroke-width: 0.6"/>
      </g>
     </g>
    </g>
    <g id="xtick_10">
     <g id="line2d_10">
      <g>
       <use xlink:href="#madd4277cc4" x="70.861652" y="307.584" style="stroke: #000000; stroke-width: 0.6"/>
      </g>
     </g>
    </g>
    <g id="xtick_11">
     <g id="line2d_11">
      <g>
       <use xlink:href="#madd4277cc4" x="93.378879" y="307.584" style="stroke: #000000; stroke-width: 0.6"/>
      </g>
     </g>
    </g>
    <g id="xtick_12">
     <g id="line2d_12">
      <g>
       <use xlink:href="#madd4277cc4" x="104.812644" y="307.584" style="stroke: #000000; stroke-width: 0.6"/>
      </g>
     </g>
    </g>
    <g id="xtick_13">
     <g id="line2d_13">
      <g>
       <use xlink:href="#madd4277cc4" x="112.92503" y="307.584" style="stroke: #000000; stroke-width: 0.6"/>
      </g>
     </g>
    </g>
    <g id="xtick_14">
     <g id="line2d_14">
      <g>
       <use xlink:href="#madd4277cc4" x="119.217485" y="307.584" style="stroke: #000000; stroke-width: 0.6"/>
      </g>
     </g>
    </g>
    <g id="xtick_15">
     <g id="line2d_15">
      <g>
       <use xlink:href="#madd4277cc4" x="124.358795" y="307.584" style="stroke: #000000; stroke-width: 0.6"/>
      </g>
     </g>
    </g>
    <g id="xtick_16">
     <g id="line2d_16">
      <g>
       <use xlink:href="#madd4277cc4" x="128.705711" y="307.584" style="stroke: #000000; stroke-width: 0.6"/>
      </g>
     </g>
    </g>
    <g id="xtick_17">
     <g id="line2d_17">
      <g>
       <use xlink:href="#madd4277cc4" x="132.471181" y="307.584" style="stroke: #000000; stroke-width: 0.6"/>
      </g>
     </g>
    </g>
    <g id="xtick_18">
     <g id="line2d_18">
      <g>
       <use xlink:href="#madd4277cc4" x="135.792561" y="307.584" style="stroke: #000000; stroke-width: 0.6"/>
      </g>
     </g>
    </g>
    <g id="xtick_19">
     <g id="line2d_19">
      <g>
       <use xlink:href="#madd4277cc4" x="158.309788" y="307.584" style="stroke: #000000; stroke-width: 0.6"/>
      </g>
     </g>
    </g>
    <g id="xtick_20">
     <g id="line2d_20">
      <g>
       <use xlink:href="#madd4277cc4" x="169.743553" y="307.584" style="stroke: #000000; stroke-width: 0.6"/>
      </g>
     </g>
    </g>
    <g id="xtick_21">
     <g id="line2d_21">
      <g>
       <use xlink:href="#madd4277cc4" x="177.855939" y="307.584" style="stroke: #000000; stroke-width: 0.6"/>
      </g>
     </g>
    </g>
    <g id="xtick_22">
     <g id="line2d_22">
      <g>
       <use xlink:href="#madd4277cc4" x="184.148394" y="307.584" style="stroke: #000000; stroke-width: 0.6"/>
      </g>
     </g>
    </g>
    <g id="xtick_23">
     <g id="line2d_23">
      <g>
       <use xlink:href="#madd4277cc4" x="189.289704" y="307.584" style="stroke: #000000; stroke-width: 0.6"/>
      </g>
     </g>
    </g>
    <g id="xtick_24">
     <g id="line2d_24">
      <g>
       <use xlink:href="#madd4277cc4" x="193.63662" y="307.584" style="stroke: #000000; stroke-width: 0.6"/>
      </g>
     </g>
    </g>
    <g id="xtick_25">
     <g id="line2d_25">
      <g>
       <use xlink:href="#madd4277cc4" x="197.40209" y="307.584" style="stroke: #000000; stroke-width: 0.6"/>
      </g>
     </g>
    </g>
    <g id="xtick_26">
     <g id="line2d_26">
      <g>
       <use xlink:href="#madd4277cc4" x="200.72347" y="307.584" style="stroke: #000000; stroke-width: 0.6"/>
      </g>
     </g>
    </g>
    <g id="xtick_27">
     <g id="line2d_27">
      <g>
       <use xlink:href="#madd4277cc4" x="223.240697" y="307.584" style="stroke: #000000; stroke-width: 0.6"/>
      </g>
     </g>
    </g>
    <g id="xtick_28">
     <g id="line2d_28">
      <g>
       <use xlink:href="#madd4277cc4" x="234.674462" y="307.584" style="stroke: #000000; stroke-width: 0.6"/>
      </g>
     </g>
    </g>
    <g id="xtick_29">
     <g id="line2d_29">
      <g>
       <use xlink:href="#madd4277cc4" x="242.786848" y="307.584" style="stroke: #000000; stroke-width: 0.6"/>
      </g>
     </g>
    </g>
    <g id="xtick_30">
     <g id="line2d_30">
      <g>
       <use xlink:href="#madd4277cc4" x="249.079303" y="307.584" style="stroke: #000000; stroke-width: 0.6"/>
      </g>
     </g>
    </g>
    <g id="xtick_31">
     <g id="line2d_31">
      <g>
       <use xlink:href="#madd4277cc4" x="254.220614" y="307.584" style="stroke: #000000; stroke-width: 0.6"/>
      </g>
     </g>
    </g>
    <g id="xtick_32">
     <g id="line2d_32">
      <g>
       <use xlink:href="#madd4277cc4" x="258.567529" y="307.584" style="stroke: #000000; stroke-width: 0.6"/>
      </g>
     </g>
    </g>
    <g id="xtick_33">
     <g id="line2d_33">
      <g>
       <use xlink:href="#madd4277cc4" x="262.332999" y="307.584" style="stroke: #000000; stroke-width: 0.6"/>
      </g>
     </g>
    </g>
    <g id="xtick_34">
     <g id="line2d_34">
      <g>
       <use xlink:href="#madd4277cc4" x="265.654379" y="307.584" style="stroke: #000000; stroke-width: 0.6"/>
      </g>
     </g>
    </g>
    <g id="xtick_35">
     <g id="line2d_35">
      <g>
       <use xlink:href="#madd4277cc4" x="288.171606" y="307.584" style="stroke: #000000; stroke-width: 0.6"/>
      </g>
     </g>
    </g>
    <g id="xtick_36">
     <g id="line2d_36">
      <g>
       <use xlink:href="#madd4277cc4" x="299.605371" y="307.584" style="stroke: #000000; stroke-width: 0.6"/>
      </g>
     </g>
    </g>
    <g id="xtick_37">
     <g id="line2d_37">
      <g>
       <use xlink:href="#madd4277cc4" x="307.717757" y="307.584" style="stroke: #000000; stroke-width: 0.6"/>
      </g>
     </g>
    </g>
    <g id="xtick_38">
     <g id="line2d_38">
      <g>
       <use xlink:href="#madd4277cc4" x="314.010212" y="307.584" style="stroke: #000000; stroke-width: 0.6"/>
      </g>
     </g>
    </g>
    <g id="xtick_39">
     <g id="line2d_39">
      <g>
       <use xlink:href="#madd4277cc4" x="319.151523" y="307.584" style="stroke: #000000; stroke-width: 0.6"/>
      </g>
     </g>
    </g>
    <g id="xtick_40">
     <g id="line2d_40">
      <g>
       <use xlink:href="#madd4277cc4" x="323.498439" y="307.584" style="stroke: #000000; stroke-width: 0.6"/>
      </g>
     </g>
    </g>
    <g id="xtick_41">
     <g id="line2d_41">
      <g>
       <use xlink:href="#madd4277cc4" x="327.263908" y="307.584" style="stroke: #000000; stroke-width: 0.6"/>
      </g>
     </g>
    </g>
    <g id="xtick_42">
     <g id="line2d_42">
      <g>
       <use xlink:href="#madd4277cc4" x="330.585288" y="307.584" style="stroke: #000000; stroke-width: 0.6"/>
      </g>
     </g>
    </g>
    <g id="xtick_43">
     <g id="line2d_43">
      <g>
       <use xlink:href="#madd4277cc4" x="353.102515" y="307.584" style="stroke: #000000; stroke-width: 0.6"/>
      </g>
     </g>
    </g>
    <g id="xtick_44">
     <g id="line2d_44">
      <g>
       <use xlink:href="#madd4277cc4" x="364.53628" y="307.584" style="stroke: #000000; stroke-width: 0.6"/>
      </g>
     </g>
    </g>
    <g id="xtick_45">
     <g id="line2d_45">
      <g>
       <use xlink:href="#madd4277cc4" x="372.648666" y="307.584" style="stroke: #000000; stroke-width: 0.6"/>
      </g>
     </g>
    </g>
    <g id="xtick_46">
     <g id="line2d_46">
      <g>
       <use xlink:href="#madd4277cc4" x="378.941121" y="307.584" style="stroke: #000000; stroke-width: 0.6"/>
      </g>
     </g>
    </g>
    <g id="xtick_47">
     <g id="line2d_47">
      <g>
       <use xlink:href="#madd4277cc4" x="384.082432" y="307.584" style="stroke: #000000; stroke-width: 0.6"/>
      </g>
     </g>
    </g>
    <g id="xtick_48">
     <g id="line2d_48">
      <g>
       <use xlink:href="#madd4277cc4" x="388.429348" y="307.584" style="stroke: #000000; stroke-width: 0.6"/>
      </g>
     </g>
    </g>
    <g id="xtick_49">
     <g id="line2d_49">
      <g>
       <use xlink:href="#madd4277cc4" x="392.194817" y="307.584" style="stroke: #000000; stroke-width: 0.6"/>
      </g>
     </g>
    </g>
    <g id="xtick_50">
     <g id="line2d_50">
      <g>
       <use xlink:href="#madd4277cc4" x="395.516197" y="307.584" style="stroke: #000000; stroke-width: 0.6"/>
      </g>
     </g>
    </g>
   </g>
   <g id="matplotlib.axis_2">
    <g id="ytick_1">
     <g id="line2d_51">
      <defs>
       <path id="me026951d4e" d="M 0 0 
L -3.5 0 
" style="stroke: #000000; stroke-width: 0.8"/>
      </defs>
      <g>
       <use xlink:href="#me026951d4e" x="57.6" y="295.488" style="stroke: #000000; stroke-width: 0.8"/>
      </g>
     </g>
     <g id="text_7">
      <!-- 0.00 -->
      <g transform="translate(28.334375 299.287219)scale(0.1 -0.1)">
       <defs>
        <path id="DejaVuSans-2e" d="M 684 794 
L 1344 794 
L 1344 0 
L 684 0 
L 684 794 
z
" transform="scale(0.015625)"/>
       </defs>
       <use xlink:href="#DejaVuSans-30"/>
       <use xlink:href="#DejaVuSans-2e" x="63.623047"/>
       <use xlink:href="#DejaVuSans-30" x="95.410156"/>
       <use xlink:href="#DejaVuSans-30" x="159.033203"/>
      </g>
     </g>
    </g>
    <g id="ytick_2">
     <g id="line2d_52">
      <g>
       <use xlink:href="#me026951d4e" x="57.6" y="249.019705" style="stroke: #000000; stroke-width: 0.8"/>
      </g>
     </g>
     <g id="text_8">
      <!-- 0.02 -->
      <g transform="translate(28.334375 252.818924)scale(0.1 -0.1)">
       <defs>
        <path id="DejaVuSans-32" d="M 1228 531 
L 3431 531 
L 3431 0 
L 469 0 
L 469 531 
Q 828 903 1448 1529 
Q 2069 2156 2228 2338 
Q 2531 2678 2651 2914 
Q 2772 3150 2772 3378 
Q 2772 3750 2511 3984 
Q 2250 4219 1831 4219 
Q 1534 4219 1204 4116 
Q 875 4013 500 3803 
L 500 4441 
Q 881 4594 1212 4672 
Q 1544 4750 1819 4750 
Q 2544 4750 2975 4387 
Q 3406 4025 3406 3419 
Q 3406 3131 3298 2873 
Q 3191 2616 2906 2266 
Q 2828 2175 2409 1742 
Q 1991 1309 1228 531 
z
" transform="scale(0.015625)"/>
       </defs>
       <use xlink:href="#DejaVuSans-30"/>
       <use xlink:href="#DejaVuSans-2e" x="63.623047"/>
       <use xlink:href="#DejaVuSans-30" x="95.410156"/>
       <use xlink:href="#DejaVuSans-32" x="159.033203"/>
      </g>
     </g>
    </g>
    <g id="ytick_3">
     <g id="line2d_53">
      <g>
       <use xlink:href="#me026951d4e" x="57.6" y="202.551411" style="stroke: #000000; stroke-width: 0.8"/>
      </g>
     </g>
     <g id="text_9">
      <!-- 0.04 -->
      <g transform="translate(28.334375 206.35063)scale(0.1 -0.1)">
       <defs>
        <path id="DejaVuSans-34" d="M 2419 4116 
L 825 1625 
L 2419 1625 
L 2419 4116 
z
M 2253 4666 
L 3047 4666 
L 3047 1625 
L 3713 1625 
L 3713 1100 
L 3047 1100 
L 3047 0 
L 2419 0 
L 2419 1100 
L 313 1100 
L 313 1709 
L 2253 4666 
z
" transform="scale(0.015625)"/>
       </defs>
       <use xlink:href="#DejaVuSans-30"/>
       <use xlink:href="#DejaVuSans-2e" x="63.623047"/>
       <use xlink:href="#DejaVuSans-30" x="95.410156"/>
       <use xlink:href="#DejaVuSans-34" x="159.033203"/>
      </g>
     </g>
    </g>
    <g id="ytick_4">
     <g id="line2d_54">
      <g>
       <use xlink:href="#me026951d4e" x="57.6" y="156.083116" style="stroke: #000000; stroke-width: 0.8"/>
      </g>
     </g>
     <g id="text_10">
      <!-- 0.06 -->
      <g transform="translate(28.334375 159.882335)scale(0.1 -0.1)">
       <use xlink:href="#DejaVuSans-30"/>
       <use xlink:href="#DejaVuSans-2e" x="63.623047"/>
       <use xlink:href="#DejaVuSans-30" x="95.410156"/>
       <use xlink:href="#DejaVuSans-36" x="159.033203"/>
      </g>
     </g>
    </g>
    <g id="ytick_5">
     <g id="line2d_55">
      <g>
       <use xlink:href="#me026951d4e" x="57.6" y="109.614822" style="stroke: #000000; stroke-width: 0.8"/>
      </g>
     </g>
     <g id="text_11">
      <!-- 0.08 -->
      <g transform="translate(28.334375 113.414041)scale(0.1 -0.1)">
       <use xlink:href="#DejaVuSans-30"/>
       <use xlink:href="#DejaVuSans-2e" x="63.623047"/>
       <use xlink:href="#DejaVuSans-30" x="95.410156"/>
       <use xlink:href="#DejaVuSans-38" x="159.033203"/>
      </g>
     </g>
    </g>
    <g id="ytick_6">
     <g id="line2d_56">
      <g>
       <use xlink:href="#me026951d4e" x="57.6" y="63.146527" style="stroke: #000000; stroke-width: 0.8"/>
      </g>
     </g>
     <g id="text_12">
      <!-- 0.10 -->
      <g transform="translate(28.334375 66.945746)scale(0.1 -0.1)">
       <use xlink:href="#DejaVuSans-30"/>
       <use xlink:href="#DejaVuSans-2e" x="63.623047"/>
       <use xlink:href="#DejaVuSans-31" x="95.410156"/>
       <use xlink:href="#DejaVuSans-30" x="159.033203"/>
      </g>
     </g>
    </g>
   </g>
   <g id="line2d_57">
    <path d="M 73.832727 295.488 
L 222.100157 295.426465 
L 227.212827 295.250991 
L 229.769162 295.021447 
L 232.325497 294.575037 
L 234.881832 293.724769 
L 237.438168 292.152761 
L 239.994503 289.354455 
L 242.550838 284.594002 
L 245.107173 276.866325 
L 247.663508 264.932305 
L 250.219843 247.465758 
L 252.776178 223.179569 
L 255.332513 191.279573 
L 257.888848 152.547039 
L 260.445183 110.684451 
L 263.001518 73.975988 
L 265.557853 53.568 
L 268.114188 58.032533 
L 270.670523 84.933143 
L 273.226858 119.7715 
L 275.783193 146.071078 
L 280.895863 173.955194 
L 283.452198 199.635276 
L 286.008533 234.179363 
L 288.564868 264.857604 
L 291.121203 283.636146 
L 293.677538 291.893511 
L 296.233873 294.571801 
L 298.790208 295.262233 
L 303.902878 295.471413 
L 334.578898 295.487996 
L 398.487273 295.488 
L 398.487273 295.488 
" clip-path="url(#p77bc45cdfa)" style="fill: none; stroke: #1f77b4; stroke-width: 1.5; stroke-linecap: square"/>
    <defs>
     <path id="m7c576ad6d7" d="M 0 3 
C 0.795609 3 1.55874 2.683901 2.12132 2.12132 
C 2.683901 1.55874 3 0.795609 3 0 
C 3 -0.795609 2.683901 -1.55874 2.12132 -2.12132 
C 1.55874 -2.683901 0.795609 -3 0 -3 
C -0.795609 -3 -1.55874 -2.683901 -2.12132 -2.12132 
C -2.683901 -1.55874 -3 -0.795609 -3 0 
C -3 0.795609 -2.683901 1.55874 -2.12132 2.12132 
C -1.55874 2.683901 -0.795609 3 0 3 
z
" style="stroke: #1f77b4"/>
    </defs>
    <g clip-path="url(#p77bc45cdfa)">
     <use xlink:href="#m7c576ad6d7" x="73.832727" y="295.488" style="fill: #1f77b4; stroke: #1f77b4"/>
     <use xlink:href="#m7c576ad6d7" x="76.389062" y="295.488" style="fill: #1f77b4; stroke: #1f77b4"/>
     <use xlink:href="#m7c576ad6d7" x="78.945397" y="295.488" style="fill: #1f77b4; stroke: #1f77b4"/>
     <use xlink:href="#m7c576ad6d7" x="81.501732" y="295.488" style="fill: #1f77b4; stroke: #1f77b4"/>
     <use xlink:href="#m7c576ad6d7" x="84.058067" y="295.488" style="fill: #1f77b4; stroke: #1f77b4"/>
     <use xlink:href="#m7c576ad6d7" x="86.614402" y="295.488" style="fill: #1f77b4; stroke: #1f77b4"/>
     <use xlink:href="#m7c576ad6d7" x="89.170737" y="295.488" style="fill: #1f77b4; stroke: #1f77b4"/>
     <use xlink:href="#m7c576ad6d7" x="91.727072" y="295.488" style="fill: #1f77b4; stroke: #1f77b4"/>
     <use xlink:href="#m7c576ad6d7" x="94.283407" y="295.488" style="fill: #1f77b4; stroke: #1f77b4"/>
     <use xlink:href="#m7c576ad6d7" x="96.839742" y="295.488" style="fill: #1f77b4; stroke: #1f77b4"/>
     <use xlink:href="#m7c576ad6d7" x="99.396077" y="295.488" style="fill: #1f77b4; stroke: #1f77b4"/>
     <use xlink:href="#m7c576ad6d7" x="101.952412" y="295.488" style="fill: #1f77b4; stroke: #1f77b4"/>
     <use xlink:href="#m7c576ad6d7" x="104.508747" y="295.488" style="fill: #1f77b4; stroke: #1f77b4"/>
     <use xlink:href="#m7c576ad6d7" x="107.065082" y="295.488" style="fill: #1f77b4; stroke: #1f77b4"/>
     <use xlink:href="#m7c576ad6d7" x="109.621417" y="295.488" style="fill: #1f77b4; stroke: #1f77b4"/>
     <use xlink:href="#m7c576ad6d7" x="112.177752" y="295.488" style="fill: #1f77b4; stroke: #1f77b4"/>
     <use xlink:href="#m7c576ad6d7" x="114.734087" y="295.488" style="fill: #1f77b4; stroke: #1f77b4"/>
     <use xlink:href="#m7c576ad6d7" x="117.290422" y="295.488" style="fill: #1f77b4; stroke: #1f77b4"/>
     <use xlink:href="#m7c576ad6d7" x="119.846757" y="295.488" style="fill: #1f77b4; stroke: #1f77b4"/>
     <use xlink:href="#m7c576ad6d7" x="122.403092" y="295.488" style="fill: #1f77b4; stroke: #1f77b4"/>
     <use xlink:href="#m7c576ad6d7" x="124.959427" y="295.488" style="fill: #1f77b4; stroke: #1f77b4"/>
     <use xlink:href="#m7c576ad6d7" x="127.515762" y="295.488" style="fill: #1f77b4; stroke: #1f77b4"/>
     <use xlink:href="#m7c576ad6d7" x="130.072097" y="295.488" style="fill: #1f77b4; stroke: #1f77b4"/>
     <use xlink:href="#m7c576ad6d7" x="132.628432" y="295.488" style="fill: #1f77b4; stroke: #1f77b4"/>
     <use xlink:href="#m7c576ad6d7" x="135.184767" y="295.488" style="fill: #1f77b4; stroke: #1f77b4"/>
     <use xlink:href="#m7c576ad6d7" x="137.741102" y="295.488" style="fill: #1f77b4; stroke: #1f77b4"/>
     <use xlink:href="#m7c576ad6d7" x="140.297437" y="295.488" style="fill: #1f77b4; stroke: #1f77b4"/>
     <use xlink:href="#m7c576ad6d7" x="142.853772" y="295.488" style="fill: #1f77b4; stroke: #1f77b4"/>
     <use xlink:href="#m7c576ad6d7" x="145.410107" y="295.488" style="fill: #1f77b4; stroke: #1f77b4"/>
     <use xlink:href="#m7c576ad6d7" x="147.966442" y="295.487999" style="fill: #1f77b4; stroke: #1f77b4"/>
     <use xlink:href="#m7c576ad6d7" x="150.522777" y="295.487999" style="fill: #1f77b4; stroke: #1f77b4"/>
     <use xlink:href="#m7c576ad6d7" x="153.079112" y="295.487999" style="fill: #1f77b4; stroke: #1f77b4"/>
     <use xlink:href="#m7c576ad6d7" x="155.635447" y="295.487999" style="fill: #1f77b4; stroke: #1f77b4"/>
     <use xlink:href="#m7c576ad6d7" x="158.191782" y="295.487999" style="fill: #1f77b4; stroke: #1f77b4"/>
     <use xlink:href="#m7c576ad6d7" x="160.748117" y="295.487999" style="fill: #1f77b4; stroke: #1f77b4"/>
     <use xlink:href="#m7c576ad6d7" x="163.304452" y="295.487998" style="fill: #1f77b4; stroke: #1f77b4"/>
     <use xlink:href="#m7c576ad6d7" x="165.860787" y="295.487998" style="fill: #1f77b4; stroke: #1f77b4"/>
     <use xlink:href="#m7c576ad6d7" x="168.417122" y="295.487997" style="fill: #1f77b4; stroke: #1f77b4"/>
     <use xlink:href="#m7c576ad6d7" x="170.973457" y="295.487996" style="fill: #1f77b4; stroke: #1f77b4"/>
     <use xlink:href="#m7c576ad6d7" x="173.529792" y="295.487995" style="fill: #1f77b4; stroke: #1f77b4"/>
     <use xlink:href="#m7c576ad6d7" x="176.086127" y="295.487993" style="fill: #1f77b4; stroke: #1f77b4"/>
     <use xlink:href="#m7c576ad6d7" x="178.642462" y="295.48799" style="fill: #1f77b4; stroke: #1f77b4"/>
     <use xlink:href="#m7c576ad6d7" x="181.198797" y="295.487986" style="fill: #1f77b4; stroke: #1f77b4"/>
     <use xlink:href="#m7c576ad6d7" x="183.755132" y="295.48798" style="fill: #1f77b4; stroke: #1f77b4"/>
     <use xlink:href="#m7c576ad6d7" x="186.311467" y="295.48797" style="fill: #1f77b4; stroke: #1f77b4"/>
     <use xlink:href="#m7c576ad6d7" x="188.867802" y="295.487954" style="fill: #1f77b4; stroke: #1f77b4"/>
     <use xlink:href="#m7c576ad6d7" x="191.424137" y="295.487929" style="fill: #1f77b4; stroke: #1f77b4"/>
     <use xlink:href="#m7c576ad6d7" x="193.980472" y="295.487886" style="fill: #1f77b4; stroke: #1f77b4"/>
     <use xlink:href="#m7c576ad6d7" x="196.536807" y="295.487815" style="fill: #1f77b4; stroke: #1f77b4"/>
     <use xlink:href="#m7c576ad6d7" x="199.093142" y="295.487694" style="fill: #1f77b4; stroke: #1f77b4"/>
     <use xlink:href="#m7c576ad6d7" x="201.649477" y="295.487486" style="fill: #1f77b4; stroke: #1f77b4"/>
     <use xlink:href="#m7c576ad6d7" x="204.205812" y="295.487125" style="fill: #1f77b4; stroke: #1f77b4"/>
     <use xlink:href="#m7c576ad6d7" x="206.762147" y="295.486481" style="fill: #1f77b4; stroke: #1f77b4"/>
     <use xlink:href="#m7c576ad6d7" x="209.318482" y="295.485318" style="fill: #1f77b4; stroke: #1f77b4"/>
     <use xlink:href="#m7c576ad6d7" x="211.874817" y="295.48317" style="fill: #1f77b4; stroke: #1f77b4"/>
     <use xlink:href="#m7c576ad6d7" x="214.431152" y="295.479114" style="fill: #1f77b4; stroke: #1f77b4"/>
     <use xlink:href="#m7c576ad6d7" x="216.987487" y="295.471348" style="fill: #1f77b4; stroke: #1f77b4"/>
     <use xlink:href="#m7c576ad6d7" x="219.543822" y="295.45623" style="fill: #1f77b4; stroke: #1f77b4"/>
     <use xlink:href="#m7c576ad6d7" x="222.100157" y="295.426465" style="fill: #1f77b4; stroke: #1f77b4"/>
     <use xlink:href="#m7c576ad6d7" x="224.656492" y="295.367587" style="fill: #1f77b4; stroke: #1f77b4"/>
     <use xlink:href="#m7c576ad6d7" x="227.212827" y="295.250991" style="fill: #1f77b4; stroke: #1f77b4"/>
     <use xlink:href="#m7c576ad6d7" x="229.769162" y="295.021447" style="fill: #1f77b4; stroke: #1f77b4"/>
     <use xlink:href="#m7c576ad6d7" x="232.325497" y="294.575037" style="fill: #1f77b4; stroke: #1f77b4"/>
     <use xlink:href="#m7c576ad6d7" x="234.881832" y="293.724769" style="fill: #1f77b4; stroke: #1f77b4"/>
     <use xlink:href="#m7c576ad6d7" x="237.438168" y="292.152761" style="fill: #1f77b4; stroke: #1f77b4"/>
     <use xlink:href="#m7c576ad6d7" x="239.994503" y="289.354455" style="fill: #1f77b4; stroke: #1f77b4"/>
     <use xlink:href="#m7c576ad6d7" x="242.550838" y="284.594002" style="fill: #1f77b4; stroke: #1f77b4"/>
     <use xlink:href="#m7c576ad6d7" x="245.107173" y="276.866325" style="fill: #1f77b4; stroke: #1f77b4"/>
     <use xlink:href="#m7c576ad6d7" x="247.663508" y="264.932305" style="fill: #1f77b4; stroke: #1f77b4"/>
     <use xlink:href="#m7c576ad6d7" x="250.219843" y="247.465758" style="fill: #1f77b4; stroke: #1f77b4"/>
     <use xlink:href="#m7c576ad6d7" x="252.776178" y="223.179569" style="fill: #1f77b4; stroke: #1f77b4"/>
     <use xlink:href="#m7c576ad6d7" x="255.332513" y="191.279573" style="fill: #1f77b4; stroke: #1f77b4"/>
     <use xlink:href="#m7c576ad6d7" x="257.888848" y="152.547039" style="fill: #1f77b4; stroke: #1f77b4"/>
     <use xlink:href="#m7c576ad6d7" x="260.445183" y="110.684451" style="fill: #1f77b4; stroke: #1f77b4"/>
     <use xlink:href="#m7c576ad6d7" x="263.001518" y="73.975988" style="fill: #1f77b4; stroke: #1f77b4"/>
     <use xlink:href="#m7c576ad6d7" x="265.557853" y="53.568" style="fill: #1f77b4; stroke: #1f77b4"/>
     <use xlink:href="#m7c576ad6d7" x="268.114188" y="58.032533" style="fill: #1f77b4; stroke: #1f77b4"/>
     <use xlink:href="#m7c576ad6d7" x="270.670523" y="84.933143" style="fill: #1f77b4; stroke: #1f77b4"/>
     <use xlink:href="#m7c576ad6d7" x="273.226858" y="119.7715" style="fill: #1f77b4; stroke: #1f77b4"/>
     <use xlink:href="#m7c576ad6d7" x="275.783193" y="146.071078" style="fill: #1f77b4; stroke: #1f77b4"/>
     <use xlink:href="#m7c576ad6d7" x="278.339528" y="160.115836" style="fill: #1f77b4; stroke: #1f77b4"/>
     <use xlink:href="#m7c576ad6d7" x="280.895863" y="173.955194" style="fill: #1f77b4; stroke: #1f77b4"/>
     <use xlink:href="#m7c576ad6d7" x="283.452198" y="199.635276" style="fill: #1f77b4; stroke: #1f77b4"/>
     <use xlink:href="#m7c576ad6d7" x="286.008533" y="234.179363" style="fill: #1f77b4; stroke: #1f77b4"/>
     <use xlink:href="#m7c576ad6d7" x="288.564868" y="264.857604" style="fill: #1f77b4; stroke: #1f77b4"/>
     <use xlink:href="#m7c576ad6d7" x="291.121203" y="283.636146" style="fill: #1f77b4; stroke: #1f77b4"/>
     <use xlink:href="#m7c576ad6d7" x="293.677538" y="291.893511" style="fill: #1f77b4; stroke: #1f77b4"/>
     <use xlink:href="#m7c576ad6d7" x="296.233873" y="294.571801" style="fill: #1f77b4; stroke: #1f77b4"/>
     <use xlink:href="#m7c576ad6d7" x="298.790208" y="295.262233" style="fill: #1f77b4; stroke: #1f77b4"/>
     <use xlink:href="#m7c576ad6d7" x="301.346543" y="295.421661" style="fill: #1f77b4; stroke: #1f77b4"/>
     <use xlink:href="#m7c576ad6d7" x="303.902878" y="295.471413" style="fill: #1f77b4; stroke: #1f77b4"/>
     <use xlink:href="#m7c576ad6d7" x="306.459213" y="295.481284" style="fill: #1f77b4; stroke: #1f77b4"/>
     <use xlink:href="#m7c576ad6d7" x="309.015548" y="295.483466" style="fill: #1f77b4; stroke: #1f77b4"/>
     <use xlink:href="#m7c576ad6d7" x="311.571883" y="295.485553" style="fill: #1f77b4; stroke: #1f77b4"/>
     <use xlink:href="#m7c576ad6d7" x="314.128218" y="295.485985" style="fill: #1f77b4; stroke: #1f77b4"/>
     <use xlink:href="#m7c576ad6d7" x="316.684553" y="295.487298" style="fill: #1f77b4; stroke: #1f77b4"/>
     <use xlink:href="#m7c576ad6d7" x="319.240888" y="295.487703" style="fill: #1f77b4; stroke: #1f77b4"/>
     <use xlink:href="#m7c576ad6d7" x="321.797223" y="295.487865" style="fill: #1f77b4; stroke: #1f77b4"/>
     <use xlink:href="#m7c576ad6d7" x="324.353558" y="295.487937" style="fill: #1f77b4; stroke: #1f77b4"/>
     <use xlink:href="#m7c576ad6d7" x="326.909893" y="295.48797" style="fill: #1f77b4; stroke: #1f77b4"/>
     <use xlink:href="#m7c576ad6d7" x="329.466228" y="295.487986" style="fill: #1f77b4; stroke: #1f77b4"/>
     <use xlink:href="#m7c576ad6d7" x="332.022563" y="295.487993" style="fill: #1f77b4; stroke: #1f77b4"/>
     <use xlink:href="#m7c576ad6d7" x="334.578898" y="295.487996" style="fill: #1f77b4; stroke: #1f77b4"/>
     <use xlink:href="#m7c576ad6d7" x="337.135233" y="295.487998" style="fill: #1f77b4; stroke: #1f77b4"/>
     <use xlink:href="#m7c576ad6d7" x="339.691568" y="295.487999" style="fill: #1f77b4; stroke: #1f77b4"/>
     <use xlink:href="#m7c576ad6d7" x="342.247903" y="295.487999" style="fill: #1f77b4; stroke: #1f77b4"/>
     <use xlink:href="#m7c576ad6d7" x="344.804238" y="295.487999" style="fill: #1f77b4; stroke: #1f77b4"/>
     <use xlink:href="#m7c576ad6d7" x="347.360573" y="295.488" style="fill: #1f77b4; stroke: #1f77b4"/>
     <use xlink:href="#m7c576ad6d7" x="349.916908" y="295.488" style="fill: #1f77b4; stroke: #1f77b4"/>
     <use xlink:href="#m7c576ad6d7" x="352.473243" y="295.488" style="fill: #1f77b4; stroke: #1f77b4"/>
     <use xlink:href="#m7c576ad6d7" x="355.029578" y="295.488" style="fill: #1f77b4; stroke: #1f77b4"/>
     <use xlink:href="#m7c576ad6d7" x="357.585913" y="295.487999" style="fill: #1f77b4; stroke: #1f77b4"/>
     <use xlink:href="#m7c576ad6d7" x="360.142248" y="295.487998" style="fill: #1f77b4; stroke: #1f77b4"/>
     <use xlink:href="#m7c576ad6d7" x="362.698583" y="295.487993" style="fill: #1f77b4; stroke: #1f77b4"/>
     <use xlink:href="#m7c576ad6d7" x="365.254918" y="295.488" style="fill: #1f77b4; stroke: #1f77b4"/>
     <use xlink:href="#m7c576ad6d7" x="367.811253" y="295.488" style="fill: #1f77b4; stroke: #1f77b4"/>
     <use xlink:href="#m7c576ad6d7" x="370.367588" y="295.488" style="fill: #1f77b4; stroke: #1f77b4"/>
     <use xlink:href="#m7c576ad6d7" x="372.923923" y="295.488" style="fill: #1f77b4; stroke: #1f77b4"/>
     <use xlink:href="#m7c576ad6d7" x="375.480258" y="295.488" style="fill: #1f77b4; stroke: #1f77b4"/>
     <use xlink:href="#m7c576ad6d7" x="378.036593" y="295.488" style="fill: #1f77b4; stroke: #1f77b4"/>
     <use xlink:href="#m7c576ad6d7" x="380.592928" y="295.488" style="fill: #1f77b4; stroke: #1f77b4"/>
     <use xlink:href="#m7c576ad6d7" x="383.149263" y="295.487995" style="fill: #1f77b4; stroke: #1f77b4"/>
     <use xlink:href="#m7c576ad6d7" x="385.705598" y="295.488" style="fill: #1f77b4; stroke: #1f77b4"/>
     <use xlink:href="#m7c576ad6d7" x="388.261933" y="295.488" style="fill: #1f77b4; stroke: #1f77b4"/>
     <use xlink:href="#m7c576ad6d7" x="390.818268" y="295.488" style="fill: #1f77b4; stroke: #1f77b4"/>
     <use xlink:href="#m7c576ad6d7" x="393.374603" y="295.488" style="fill: #1f77b4; stroke: #1f77b4"/>
     <use xlink:href="#m7c576ad6d7" x="395.930938" y="295.488" style="fill: #1f77b4; stroke: #1f77b4"/>
     <use xlink:href="#m7c576ad6d7" x="398.487273" y="295.488" style="fill: #1f77b4; stroke: #1f77b4"/>
    </g>
   </g>
   <g id="patch_3">
    <path d="M 57.6 307.584 
L 57.6 41.472 
" style="fill: none; stroke: #000000; stroke-width: 0.8; stroke-linejoin: miter; stroke-linecap: square"/>
   </g>
   <g id="patch_4">
    <path d="M 414.72 307.584 
L 414.72 41.472 
" style="fill: none; stroke: #000000; stroke-width: 0.8; stroke-linejoin: miter; stroke-linecap: square"/>
   </g>
   <g id="patch_5">
    <path d="M 57.6 307.584 
L 414.72 307.584 
" style="fill: none; stroke: #000000; stroke-width: 0.8; stroke-linejoin: miter; stroke-linecap: square"/>
   </g>
   <g id="patch_6">
    <path d="M 57.6 41.472 
L 414.72 41.472 
" style="fill: none; stroke: #000000; stroke-width: 0.8; stroke-linejoin: miter; stroke-linecap: square"/>
   </g>
   <g id="text_13">
    <!-- SYNTH -->
    <g transform="translate(216.020625 35.472)scale(0.12 -0.12)">
     <defs>
      <path id="DejaVuSans-53" d="M 3425 4513 
L 3425 3897 
Q 3066 4069 2747 4153 
Q 2428 4238 2131 4238 
Q 1616 4238 1336 4038 
Q 1056 3838 1056 3469 
Q 1056 3159 1242 3001 
Q 1428 2844 1947 2747 
L 2328 2669 
Q 3034 2534 3370 2195 
Q 3706 1856 3706 1288 
Q 3706 609 3251 259 
Q 2797 -91 1919 -91 
Q 1588 -91 1214 -16 
Q 841 59 441 206 
L 441 856 
Q 825 641 1194 531 
Q 1563 422 1919 422 
Q 2459 422 2753 634 
Q 3047 847 3047 1241 
Q 3047 1584 2836 1778 
Q 2625 1972 2144 2069 
L 1759 2144 
Q 1053 2284 737 2584 
Q 422 2884 422 3419 
Q 422 4038 858 4394 
Q 1294 4750 2059 4750 
Q 2388 4750 2728 4690 
Q 3069 4631 3425 4513 
z
" transform="scale(0.015625)"/>
      <path id="DejaVuSans-59" d="M -13 4666 
L 666 4666 
L 1959 2747 
L 3244 4666 
L 3922 4666 
L 2272 2222 
L 2272 0 
L 1638 0 
L 1638 2222 
L -13 4666 
z
" transform="scale(0.015625)"/>
      <path id="DejaVuSans-4e" d="M 628 4666 
L 1478 4666 
L 3547 763 
L 3547 4666 
L 4159 4666 
L 4159 0 
L 3309 0 
L 1241 3903 
L 1241 0 
L 628 0 
L 628 4666 
z
" transform="scale(0.015625)"/>
      <path id="DejaVuSans-54" d="M -19 4666 
L 3928 4666 
L 3928 4134 
L 2272 4134 
L 2272 0 
L 1638 0 
L 1638 4134 
L -19 4134 
L -19 4666 
z
" transform="scale(0.015625)"/>
      <path id="DejaVuSans-48" d="M 628 4666 
L 1259 4666 
L 1259 2753 
L 3553 2753 
L 3553 4666 
L 4184 4666 
L 4184 0 
L 3553 0 
L 3553 2222 
L 1259 2222 
L 1259 0 
L 628 0 
L 628 4666 
z
" transform="scale(0.015625)"/>
     </defs>
     <use xlink:href="#DejaVuSans-53"/>
     <use xlink:href="#DejaVuSans-59" x="63.476562"/>
     <use xlink:href="#DejaVuSans-4e" x="124.560547"/>
     <use xlink:href="#DejaVuSans-54" x="199.365234"/>
     <use xlink:href="#DejaVuSans-48" x="260.449219"/>
    </g>
   </g>
  </g>
 </g>
 <defs>
  <clipPath id="p77bc45cdfa">
   <rect x="57.6" y="41.472" width="357.12" height="266.112"/>
  </clipPath>
 </defs>
</svg>
