<?xml version="1.0" encoding="utf-8" standalone="no"?>
<!DOCTYPE svg PUBLIC "-//W3C//DTD SVG 1.1//EN"
  "http://www.w3.org/Graphics/SVG/1.1/DTD/svg11.dtd">
<svg xmlns:xlink="http://www.w3.org/1999/xlink" width="460.8pt" height="345.6pt" viewBox="0 0 460.8 345.6" xmlns="http://www.w3.org/2000/svg" version="1.1">
 <metadata>
  <rdf:RDF xmlns:dc="http://purl.org/dc/elements/1.1/" xmlns:cc="http://creativecommons.org/ns#" xmlns:rdf="http://www.w3.org/1999/02/22-rdf-syntax-ns#">
   <cc:Work>
    <dc:type rdf:resource="http://purl.org/dc/dcmitype/StillImage"/>
    <dc:date>2022-02-22T20:16:55.249511</dc:date>
    <dc:format>image/svg+xml</dc:format>
    <dc:creator>
     <cc:Agent>
      <dc:title>Matplotlib v3.5.1, https://matplotlib.org/</dc:title>
     </cc:Agent>
    </dc:creator>
   </cc:Work>
  </rdf:RDF>
 </metadata>
 <defs>
  <style type="text/css">*{stroke-linejoin: round; stroke-linecap: butt}</style>
 </defs>
 <g id="figure_1">
  <g id="patch_1">
   <path d="M 0 345.6 
L 460.8 345.6 
L 460.8 0 
L 0 0 
z
" style="fill: #ffffff"/>
  </g>
  <g id="axes_1">
   <g id="patch_2">
    <path d="M 57.6 307.584 
L 414.72 307.584 
L 414.72 41.472 
L 57.6 41.472 
z
" style="fill: #ffffff"/>
   </g>
   <g id="matplotlib.axis_1">
    <g id="xtick_1">
     <g id="line2d_1">
      <defs>
       <path id="me30725f8fc" d="M 0 0 
L 0 3.5 
" style="stroke: #000000; stroke-width: 0.8"/>
      </defs>
      <g>
       <use xlink:href="#me30725f8fc" x="113.826857" y="307.584" style="stroke: #000000; stroke-width: 0.8"/>
      </g>
     </g>
     <g id="text_1">
      <!-- 57880 -->
      <g transform="translate(97.920607 322.182437)scale(0.1 -0.1)">
       <defs>
        <path id="DejaVuSans-35" d="M 691 4666 
L 3169 4666 
L 3169 4134 
L 1269 4134 
L 1269 2991 
Q 1406 3038 1543 3061 
Q 1681 3084 1819 3084 
Q 2600 3084 3056 2656 
Q 3513 2228 3513 1497 
Q 3513 744 3044 326 
Q 2575 -91 1722 -91 
Q 1428 -91 1123 -41 
Q 819 9 494 109 
L 494 744 
Q 775 591 1075 516 
Q 1375 441 1709 441 
Q 2250 441 2565 725 
Q 2881 1009 2881 1497 
Q 2881 1984 2565 2268 
Q 2250 2553 1709 2553 
Q 1456 2553 1204 2497 
Q 953 2441 691 2322 
L 691 4666 
z
" transform="scale(0.015625)"/>
        <path id="DejaVuSans-37" d="M 525 4666 
L 3525 4666 
L 3525 4397 
L 1831 0 
L 1172 0 
L 2766 4134 
L 525 4134 
L 525 4666 
z
" transform="scale(0.015625)"/>
        <path id="DejaVuSans-38" d="M 2034 2216 
Q 1584 2216 1326 1975 
Q 1069 1734 1069 1313 
Q 1069 891 1326 650 
Q 1584 409 2034 409 
Q 2484 409 2743 651 
Q 3003 894 3003 1313 
Q 3003 1734 2745 1975 
Q 2488 2216 2034 2216 
z
M 1403 2484 
Q 997 2584 770 2862 
Q 544 3141 544 3541 
Q 544 4100 942 4425 
Q 1341 4750 2034 4750 
Q 2731 4750 3128 4425 
Q 3525 4100 3525 3541 
Q 3525 3141 3298 2862 
Q 3072 2584 2669 2484 
Q 3125 2378 3379 2068 
Q 3634 1759 3634 1313 
Q 3634 634 3220 271 
Q 2806 -91 2034 -91 
Q 1263 -91 848 271 
Q 434 634 434 1313 
Q 434 1759 690 2068 
Q 947 2378 1403 2484 
z
M 1172 3481 
Q 1172 3119 1398 2916 
Q 1625 2713 2034 2713 
Q 2441 2713 2670 2916 
Q 2900 3119 2900 3481 
Q 2900 3844 2670 4047 
Q 2441 4250 2034 4250 
Q 1625 4250 1398 4047 
Q 1172 3844 1172 3481 
z
" transform="scale(0.015625)"/>
        <path id="DejaVuSans-30" d="M 2034 4250 
Q 1547 4250 1301 3770 
Q 1056 3291 1056 2328 
Q 1056 1369 1301 889 
Q 1547 409 2034 409 
Q 2525 409 2770 889 
Q 3016 1369 3016 2328 
Q 3016 3291 2770 3770 
Q 2525 4250 2034 4250 
z
M 2034 4750 
Q 2819 4750 3233 4129 
Q 3647 3509 3647 2328 
Q 3647 1150 3233 529 
Q 2819 -91 2034 -91 
Q 1250 -91 836 529 
Q 422 1150 422 2328 
Q 422 3509 836 4129 
Q 1250 4750 2034 4750 
z
" transform="scale(0.015625)"/>
       </defs>
       <use xlink:href="#DejaVuSans-35"/>
       <use xlink:href="#DejaVuSans-37" x="63.623047"/>
       <use xlink:href="#DejaVuSans-38" x="127.246094"/>
       <use xlink:href="#DejaVuSans-38" x="190.869141"/>
       <use xlink:href="#DejaVuSans-30" x="254.492188"/>
      </g>
     </g>
    </g>
    <g id="xtick_2">
     <g id="line2d_2">
      <g>
       <use xlink:href="#me30725f8fc" x="192.054983" y="307.584" style="stroke: #000000; stroke-width: 0.8"/>
      </g>
     </g>
     <g id="text_2">
      <!-- 57900 -->
      <g transform="translate(176.148733 322.182437)scale(0.1 -0.1)">
       <defs>
        <path id="DejaVuSans-39" d="M 703 97 
L 703 672 
Q 941 559 1184 500 
Q 1428 441 1663 441 
Q 2288 441 2617 861 
Q 2947 1281 2994 2138 
Q 2813 1869 2534 1725 
Q 2256 1581 1919 1581 
Q 1219 1581 811 2004 
Q 403 2428 403 3163 
Q 403 3881 828 4315 
Q 1253 4750 1959 4750 
Q 2769 4750 3195 4129 
Q 3622 3509 3622 2328 
Q 3622 1225 3098 567 
Q 2575 -91 1691 -91 
Q 1453 -91 1209 -44 
Q 966 3 703 97 
z
M 1959 2075 
Q 2384 2075 2632 2365 
Q 2881 2656 2881 3163 
Q 2881 3666 2632 3958 
Q 2384 4250 1959 4250 
Q 1534 4250 1286 3958 
Q 1038 3666 1038 3163 
Q 1038 2656 1286 2365 
Q 1534 2075 1959 2075 
z
" transform="scale(0.015625)"/>
       </defs>
       <use xlink:href="#DejaVuSans-35"/>
       <use xlink:href="#DejaVuSans-37" x="63.623047"/>
       <use xlink:href="#DejaVuSans-39" x="127.246094"/>
       <use xlink:href="#DejaVuSans-30" x="190.869141"/>
       <use xlink:href="#DejaVuSans-30" x="254.492188"/>
      </g>
     </g>
    </g>
    <g id="xtick_3">
     <g id="line2d_3">
      <g>
       <use xlink:href="#me30725f8fc" x="270.283109" y="307.584" style="stroke: #000000; stroke-width: 0.8"/>
      </g>
     </g>
     <g id="text_3">
      <!-- 57920 -->
      <g transform="translate(254.376859 322.182437)scale(0.1 -0.1)">
       <defs>
        <path id="DejaVuSans-32" d="M 1228 531 
L 3431 531 
L 3431 0 
L 469 0 
L 469 531 
Q 828 903 1448 1529 
Q 2069 2156 2228 2338 
Q 2531 2678 2651 2914 
Q 2772 3150 2772 3378 
Q 2772 3750 2511 3984 
Q 2250 4219 1831 4219 
Q 1534 4219 1204 4116 
Q 875 4013 500 3803 
L 500 4441 
Q 881 4594 1212 4672 
Q 1544 4750 1819 4750 
Q 2544 4750 2975 4387 
Q 3406 4025 3406 3419 
Q 3406 3131 3298 2873 
Q 3191 2616 2906 2266 
Q 2828 2175 2409 1742 
Q 1991 1309 1228 531 
z
" transform="scale(0.015625)"/>
       </defs>
       <use xlink:href="#DejaVuSans-35"/>
       <use xlink:href="#DejaVuSans-37" x="63.623047"/>
       <use xlink:href="#DejaVuSans-39" x="127.246094"/>
       <use xlink:href="#DejaVuSans-32" x="190.869141"/>
       <use xlink:href="#DejaVuSans-30" x="254.492188"/>
      </g>
     </g>
    </g>
    <g id="xtick_4">
     <g id="line2d_4">
      <g>
       <use xlink:href="#me30725f8fc" x="348.511234" y="307.584" style="stroke: #000000; stroke-width: 0.8"/>
      </g>
     </g>
     <g id="text_4">
      <!-- 57940 -->
      <g transform="translate(332.604984 322.182437)scale(0.1 -0.1)">
       <defs>
        <path id="DejaVuSans-34" d="M 2419 4116 
L 825 1625 
L 2419 1625 
L 2419 4116 
z
M 2253 4666 
L 3047 4666 
L 3047 1625 
L 3713 1625 
L 3713 1100 
L 3047 1100 
L 3047 0 
L 2419 0 
L 2419 1100 
L 313 1100 
L 313 1709 
L 2253 4666 
z
" transform="scale(0.015625)"/>
       </defs>
       <use xlink:href="#DejaVuSans-35"/>
       <use xlink:href="#DejaVuSans-37" x="63.623047"/>
       <use xlink:href="#DejaVuSans-39" x="127.246094"/>
       <use xlink:href="#DejaVuSans-34" x="190.869141"/>
       <use xlink:href="#DejaVuSans-30" x="254.492188"/>
      </g>
     </g>
    </g>
   </g>
   <g id="matplotlib.axis_2">
    <g id="ytick_1">
     <g id="line2d_5">
      <defs>
       <path id="m9e8837f6c2" d="M 0 0 
L -3.5 0 
" style="stroke: #000000; stroke-width: 0.8"/>
      </defs>
      <g>
       <use xlink:href="#m9e8837f6c2" x="57.6" y="300.222247" style="stroke: #000000; stroke-width: 0.8"/>
      </g>
     </g>
     <g id="text_5">
      <!-- 4.50 -->
      <g transform="translate(28.334375 304.021465)scale(0.1 -0.1)">
       <defs>
        <path id="DejaVuSans-2e" d="M 684 794 
L 1344 794 
L 1344 0 
L 684 0 
L 684 794 
z
" transform="scale(0.015625)"/>
       </defs>
       <use xlink:href="#DejaVuSans-34"/>
       <use xlink:href="#DejaVuSans-2e" x="63.623047"/>
       <use xlink:href="#DejaVuSans-35" x="95.410156"/>
       <use xlink:href="#DejaVuSans-30" x="159.033203"/>
      </g>
     </g>
    </g>
    <g id="ytick_2">
     <g id="line2d_6">
      <g>
       <use xlink:href="#m9e8837f6c2" x="57.6" y="270.633205" style="stroke: #000000; stroke-width: 0.8"/>
      </g>
     </g>
     <g id="text_6">
      <!-- 4.75 -->
      <g transform="translate(28.334375 274.432424)scale(0.1 -0.1)">
       <use xlink:href="#DejaVuSans-34"/>
       <use xlink:href="#DejaVuSans-2e" x="63.623047"/>
       <use xlink:href="#DejaVuSans-37" x="95.410156"/>
       <use xlink:href="#DejaVuSans-35" x="159.033203"/>
      </g>
     </g>
    </g>
    <g id="ytick_3">
     <g id="line2d_7">
      <g>
       <use xlink:href="#m9e8837f6c2" x="57.6" y="241.044164" style="stroke: #000000; stroke-width: 0.8"/>
      </g>
     </g>
     <g id="text_7">
      <!-- 5.00 -->
      <g transform="translate(28.334375 244.843383)scale(0.1 -0.1)">
       <use xlink:href="#DejaVuSans-35"/>
       <use xlink:href="#DejaVuSans-2e" x="63.623047"/>
       <use xlink:href="#DejaVuSans-30" x="95.410156"/>
       <use xlink:href="#DejaVuSans-30" x="159.033203"/>
      </g>
     </g>
    </g>
    <g id="ytick_4">
     <g id="line2d_8">
      <g>
       <use xlink:href="#m9e8837f6c2" x="57.6" y="211.455123" style="stroke: #000000; stroke-width: 0.8"/>
      </g>
     </g>
     <g id="text_8">
      <!-- 5.25 -->
      <g transform="translate(28.334375 215.254342)scale(0.1 -0.1)">
       <use xlink:href="#DejaVuSans-35"/>
       <use xlink:href="#DejaVuSans-2e" x="63.623047"/>
       <use xlink:href="#DejaVuSans-32" x="95.410156"/>
       <use xlink:href="#DejaVuSans-35" x="159.033203"/>
      </g>
     </g>
    </g>
    <g id="ytick_5">
     <g id="line2d_9">
      <g>
       <use xlink:href="#m9e8837f6c2" x="57.6" y="181.866082" style="stroke: #000000; stroke-width: 0.8"/>
      </g>
     </g>
     <g id="text_9">
      <!-- 5.50 -->
      <g transform="translate(28.334375 185.665301)scale(0.1 -0.1)">
       <use xlink:href="#DejaVuSans-35"/>
       <use xlink:href="#DejaVuSans-2e" x="63.623047"/>
       <use xlink:href="#DejaVuSans-35" x="95.410156"/>
       <use xlink:href="#DejaVuSans-30" x="159.033203"/>
      </g>
     </g>
    </g>
    <g id="ytick_6">
     <g id="line2d_10">
      <g>
       <use xlink:href="#m9e8837f6c2" x="57.6" y="152.277041" style="stroke: #000000; stroke-width: 0.8"/>
      </g>
     </g>
     <g id="text_10">
      <!-- 5.75 -->
      <g transform="translate(28.334375 156.07626)scale(0.1 -0.1)">
       <use xlink:href="#DejaVuSans-35"/>
       <use xlink:href="#DejaVuSans-2e" x="63.623047"/>
       <use xlink:href="#DejaVuSans-37" x="95.410156"/>
       <use xlink:href="#DejaVuSans-35" x="159.033203"/>
      </g>
     </g>
    </g>
    <g id="ytick_7">
     <g id="line2d_11">
      <g>
       <use xlink:href="#m9e8837f6c2" x="57.6" y="122.688" style="stroke: #000000; stroke-width: 0.8"/>
      </g>
     </g>
     <g id="text_11">
      <!-- 6.00 -->
      <g transform="translate(28.334375 126.487219)scale(0.1 -0.1)">
       <defs>
        <path id="DejaVuSans-36" d="M 2113 2584 
Q 1688 2584 1439 2293 
Q 1191 2003 1191 1497 
Q 1191 994 1439 701 
Q 1688 409 2113 409 
Q 2538 409 2786 701 
Q 3034 994 3034 1497 
Q 3034 2003 2786 2293 
Q 2538 2584 2113 2584 
z
M 3366 4563 
L 3366 3988 
Q 3128 4100 2886 4159 
Q 2644 4219 2406 4219 
Q 1781 4219 1451 3797 
Q 1122 3375 1075 2522 
Q 1259 2794 1537 2939 
Q 1816 3084 2150 3084 
Q 2853 3084 3261 2657 
Q 3669 2231 3669 1497 
Q 3669 778 3244 343 
Q 2819 -91 2113 -91 
Q 1303 -91 875 529 
Q 447 1150 447 2328 
Q 447 3434 972 4092 
Q 1497 4750 2381 4750 
Q 2619 4750 2861 4703 
Q 3103 4656 3366 4563 
z
" transform="scale(0.015625)"/>
       </defs>
       <use xlink:href="#DejaVuSans-36"/>
       <use xlink:href="#DejaVuSans-2e" x="63.623047"/>
       <use xlink:href="#DejaVuSans-30" x="95.410156"/>
       <use xlink:href="#DejaVuSans-30" x="159.033203"/>
      </g>
     </g>
    </g>
    <g id="ytick_8">
     <g id="line2d_12">
      <g>
       <use xlink:href="#m9e8837f6c2" x="57.6" y="93.098959" style="stroke: #000000; stroke-width: 0.8"/>
      </g>
     </g>
     <g id="text_12">
      <!-- 6.25 -->
      <g transform="translate(28.334375 96.898178)scale(0.1 -0.1)">
       <use xlink:href="#DejaVuSans-36"/>
       <use xlink:href="#DejaVuSans-2e" x="63.623047"/>
       <use xlink:href="#DejaVuSans-32" x="95.410156"/>
       <use xlink:href="#DejaVuSans-35" x="159.033203"/>
      </g>
     </g>
    </g>
    <g id="ytick_9">
     <g id="line2d_13">
      <g>
       <use xlink:href="#m9e8837f6c2" x="57.6" y="63.509918" style="stroke: #000000; stroke-width: 0.8"/>
      </g>
     </g>
     <g id="text_13">
      <!-- 6.50 -->
      <g transform="translate(28.334375 67.309137)scale(0.1 -0.1)">
       <use xlink:href="#DejaVuSans-36"/>
       <use xlink:href="#DejaVuSans-2e" x="63.623047"/>
       <use xlink:href="#DejaVuSans-35" x="95.410156"/>
       <use xlink:href="#DejaVuSans-30" x="159.033203"/>
      </g>
     </g>
    </g>
   </g>
   <g id="line2d_14">
    <defs>
     <path id="mbb57bc1016" d="M 0 3 
C 0.795609 3 1.55874 2.683901 2.12132 2.12132 
C 2.683901 1.55874 3 0.795609 3 0 
C 3 -0.795609 2.683901 -1.55874 2.12132 -2.12132 
C 1.55874 -2.683901 0.795609 -3 0 -3 
C -0.795609 -3 -1.55874 -2.683901 -2.12132 -2.12132 
C -2.683901 -1.55874 -3 -0.795609 -3 0 
C -3 0.795609 -2.683901 1.55874 -2.12132 2.12132 
C -1.55874 2.683901 -0.795609 3 0 3 
z
" style="stroke: #000000"/>
    </defs>
    <g clip-path="url(#p5ad1709128)">
     <use xlink:href="#mbb57bc1016" x="73.832727" y="291.108822" style="fill: #0000ff; stroke: #000000"/>
     <use xlink:href="#mbb57bc1016" x="78.213502" y="277.971288" style="fill: #0000ff; stroke: #000000"/>
     <use xlink:href="#mbb57bc1016" x="86.063695" y="275.485808" style="fill: #0000ff; stroke: #000000"/>
     <use xlink:href="#mbb57bc1016" x="101.149989" y="277.971288" style="fill: #0000ff; stroke: #000000"/>
     <use xlink:href="#mbb57bc1016" x="105.065307" y="257.85074" style="fill: #0000ff; stroke: #000000"/>
     <use xlink:href="#mbb57bc1016" x="105.847588" y="244.003068" style="fill: #0000ff; stroke: #000000"/>
     <use xlink:href="#mbb57bc1016" x="110.001501" y="228.261699" style="fill: #0000ff; stroke: #000000"/>
     <use xlink:href="#mbb57bc1016" x="113.654755" y="218.911562" style="fill: #0000ff; stroke: #000000"/>
     <use xlink:href="#mbb57bc1016" x="117.210223" y="213.230466" style="fill: #0000ff; stroke: #000000"/>
     <use xlink:href="#mbb57bc1016" x="117.542693" y="216.307726" style="fill: #0000ff; stroke: #000000"/>
     <use xlink:href="#mbb57bc1016" x="117.800845" y="220.095123" style="fill: #0000ff; stroke: #000000"/>
     <use xlink:href="#mbb57bc1016" x="121.583175" y="230.865534" style="fill: #0000ff; stroke: #000000"/>
     <use xlink:href="#mbb57bc1016" x="124.634072" y="232.759233" style="fill: #0000ff; stroke: #000000"/>
     <use xlink:href="#mbb57bc1016" x="125.428088" y="244.594849" style="fill: #0000ff; stroke: #000000"/>
     <use xlink:href="#mbb57bc1016" x="128.545479" y="236.428274" style="fill: #0000ff; stroke: #000000"/>
     <use xlink:href="#mbb57bc1016" x="129.143924" y="244.594849" style="fill: #0000ff; stroke: #000000"/>
     <use xlink:href="#mbb57bc1016" x="132.492088" y="252.169644" style="fill: #0000ff; stroke: #000000"/>
     <use xlink:href="#mbb57bc1016" x="133.051419" y="255.957041" style="fill: #0000ff; stroke: #000000"/>
     <use xlink:href="#mbb57bc1016" x="136.376114" y="253.471562" style="fill: #0000ff; stroke: #000000"/>
     <use xlink:href="#mbb57bc1016" x="140.377483" y="266.609096" style="fill: #0000ff; stroke: #000000"/>
     <use xlink:href="#mbb57bc1016" x="140.882054" y="266.017315" style="fill: #0000ff; stroke: #000000"/>
     <use xlink:href="#mbb57bc1016" x="141.245815" y="281.048548" style="fill: #0000ff; stroke: #000000"/>
     <use xlink:href="#mbb57bc1016" x="148.223764" y="295.488" style="fill: #0000ff; stroke: #000000"/>
     <use xlink:href="#mbb57bc1016" x="152.072587" y="274.775671" style="fill: #0000ff; stroke: #000000"/>
     <use xlink:href="#mbb57bc1016" x="155.948791" y="279.864986" style="fill: #0000ff; stroke: #000000"/>
     <use xlink:href="#mbb57bc1016" x="156.758452" y="266.017315" style="fill: #0000ff; stroke: #000000"/>
     <use xlink:href="#mbb57bc1016" x="160.004919" y="244.594849" style="fill: #0000ff; stroke: #000000"/>
     <use xlink:href="#mbb57bc1016" x="160.407794" y="257.85074" style="fill: #0000ff; stroke: #000000"/>
     <use xlink:href="#mbb57bc1016" x="160.795023" y="260.928" style="fill: #0000ff; stroke: #000000"/>
     <use xlink:href="#mbb57bc1016" x="164.463923" y="255.36526" style="fill: #0000ff; stroke: #000000"/>
     <use xlink:href="#mbb57bc1016" x="167.866846" y="261.638137" style="fill: #0000ff; stroke: #000000"/>
     <use xlink:href="#mbb57bc1016" x="175.826558" y="277.261151" style="fill: #0000ff; stroke: #000000"/>
     <use xlink:href="#mbb57bc1016" x="179.42114" y="269.804712" style="fill: #0000ff; stroke: #000000"/>
     <use xlink:href="#mbb57bc1016" x="180.058699" y="257.85074" style="fill: #0000ff; stroke: #000000"/>
     <use xlink:href="#mbb57bc1016" x="187.435612" y="252.761425" style="fill: #0000ff; stroke: #000000"/>
     <use xlink:href="#mbb57bc1016" x="188.006677" y="249.092384" style="fill: #0000ff; stroke: #000000"/>
     <use xlink:href="#mbb57bc1016" x="191.18665" y="230.155397" style="fill: #0000ff; stroke: #000000"/>
     <use xlink:href="#mbb57bc1016" x="191.921995" y="224.474301" style="fill: #0000ff; stroke: #000000"/>
     <use xlink:href="#mbb57bc1016" x="195.125437" y="219.503342" style="fill: #0000ff; stroke: #000000"/>
     <use xlink:href="#mbb57bc1016" x="195.864692" y="215.715945" style="fill: #0000ff; stroke: #000000"/>
     <use xlink:href="#mbb57bc1016" x="198.993817" y="206.957589" style="fill: #0000ff; stroke: #000000"/>
     <use xlink:href="#mbb57bc1016" x="203.026477" y="191.216219" style="fill: #0000ff; stroke: #000000"/>
     <use xlink:href="#mbb57bc1016" x="203.714885" y="207.54937" style="fill: #0000ff; stroke: #000000"/>
     <use xlink:href="#mbb57bc1016" x="210.728036" y="219.503342" style="fill: #0000ff; stroke: #000000"/>
     <use xlink:href="#mbb57bc1016" x="211.381241" y="233.942795" style="fill: #0000ff; stroke: #000000"/>
     <use xlink:href="#mbb57bc1016" x="214.639443" y="247.198685" style="fill: #0000ff; stroke: #000000"/>
     <use xlink:href="#mbb57bc1016" x="215.38261" y="237.138411" style="fill: #0000ff; stroke: #000000"/>
     <use xlink:href="#mbb57bc1016" x="218.550849" y="230.865534" style="fill: #0000ff; stroke: #000000"/>
     <use xlink:href="#mbb57bc1016" x="222.473989" y="218.201425" style="fill: #0000ff; stroke: #000000"/>
     <use xlink:href="#mbb57bc1016" x="222.802547" y="227.669918" style="fill: #0000ff; stroke: #000000"/>
     <use xlink:href="#mbb57bc1016" x="227.003398" y="218.201425" style="fill: #0000ff; stroke: #000000"/>
     <use xlink:href="#mbb57bc1016" x="230.508018" y="218.911562" style="fill: #0000ff; stroke: #000000"/>
     <use xlink:href="#mbb57bc1016" x="231.032146" y="202.578411" style="fill: #0000ff; stroke: #000000"/>
     <use xlink:href="#mbb57bc1016" x="234.208208" y="191.808" style="fill: #0000ff; stroke: #000000"/>
     <use xlink:href="#mbb57bc1016" x="238.115703" y="168.018411" style="fill: #0000ff; stroke: #000000"/>
     <use xlink:href="#mbb57bc1016" x="242.394782" y="137.837589" style="fill: #0000ff; stroke: #000000"/>
     <use xlink:href="#mbb57bc1016" x="250.162835" y="118.308822" style="fill: #0000ff; stroke: #000000"/>
     <use xlink:href="#mbb57bc1016" x="253.823911" y="128.960877" style="fill: #0000ff; stroke: #000000"/>
     <use xlink:href="#mbb57bc1016" x="257.684469" y="129.671014" style="fill: #0000ff; stroke: #000000"/>
     <use xlink:href="#mbb57bc1016" x="261.529381" y="120.794301" style="fill: #0000ff; stroke: #000000"/>
     <use xlink:href="#mbb57bc1016" x="273.615627" y="88.838137" style="fill: #0000ff; stroke: #000000"/>
     <use xlink:href="#mbb57bc1016" x="277.456628" y="53.568" style="fill: #0000ff; stroke: #000000"/>
     <use xlink:href="#mbb57bc1016" x="281.152907" y="68.007452" style="fill: #0000ff; stroke: #000000"/>
     <use xlink:href="#mbb57bc1016" x="285.072136" y="79.369644" style="fill: #0000ff; stroke: #000000"/>
     <use xlink:href="#mbb57bc1016" x="288.975719" y="72.504986" style="fill: #0000ff; stroke: #000000"/>
     <use xlink:href="#mbb57bc1016" x="292.855834" y="66.82389" style="fill: #0000ff; stroke: #000000"/>
     <use xlink:href="#mbb57bc1016" x="301.042408" y="71.794849" style="fill: #0000ff; stroke: #000000"/>
     <use xlink:href="#mbb57bc1016" x="308.747878" y="81.855123" style="fill: #0000ff; stroke: #000000"/>
     <use xlink:href="#mbb57bc1016" x="312.710133" y="107.064986" style="fill: #0000ff; stroke: #000000"/>
     <use xlink:href="#mbb57bc1016" x="316.23431" y="105.763068" style="fill: #0000ff; stroke: #000000"/>
     <use xlink:href="#mbb57bc1016" x="320.439071" y="119.018959" style="fill: #0000ff; stroke: #000000"/>
     <use xlink:href="#mbb57bc1016" x="324.491288" y="140.323068" style="fill: #0000ff; stroke: #000000"/>
     <use xlink:href="#mbb57bc1016" x="328.465277" y="176.184986" style="fill: #0000ff; stroke: #000000"/>
     <use xlink:href="#mbb57bc1016" x="332.009011" y="184.943342" style="fill: #0000ff; stroke: #000000"/>
     <use xlink:href="#mbb57bc1016" x="336.319381" y="186.24526" style="fill: #0000ff; stroke: #000000"/>
     <use xlink:href="#mbb57bc1016" x="340.121268" y="179.972384" style="fill: #0000ff; stroke: #000000"/>
     <use xlink:href="#mbb57bc1016" x="343.668913" y="192.518137" style="fill: #0000ff; stroke: #000000"/>
     <use xlink:href="#mbb57bc1016" x="347.791536" y="183.641425" style="fill: #0000ff; stroke: #000000"/>
     <use xlink:href="#mbb57bc1016" x="394.622803" y="206.365808" style="fill: #0000ff; stroke: #000000"/>
     <use xlink:href="#mbb57bc1016" x="398.487273" y="211.336767" style="fill: #0000ff; stroke: #000000"/>
    </g>
   </g>
   <g id="patch_3">
    <path d="M 57.6 307.584 
L 57.6 41.472 
" style="fill: none; stroke: #000000; stroke-width: 0.8; stroke-linejoin: miter; stroke-linecap: square"/>
   </g>
   <g id="patch_4">
    <path d="M 414.72 307.584 
L 414.72 41.472 
" style="fill: none; stroke: #000000; stroke-width: 0.8; stroke-linejoin: miter; stroke-linecap: square"/>
   </g>
   <g id="patch_5">
    <path d="M 57.6 307.584 
L 414.72 307.584 
" style="fill: none; stroke: #000000; stroke-width: 0.8; stroke-linejoin: miter; stroke-linecap: square"/>
   </g>
   <g id="patch_6">
    <path d="M 57.6 41.472 
L 414.72 41.472 
" style="fill: none; stroke: #000000; stroke-width: 0.8; stroke-linejoin: miter; stroke-linecap: square"/>
   </g>
   <g id="text_14">
    <!-- Mrk279_2017 -->
    <g transform="translate(195.319687 35.472)scale(0.12 -0.12)">
     <defs>
      <path id="DejaVuSans-4d" d="M 628 4666 
L 1569 4666 
L 2759 1491 
L 3956 4666 
L 4897 4666 
L 4897 0 
L 4281 0 
L 4281 4097 
L 3078 897 
L 2444 897 
L 1241 4097 
L 1241 0 
L 628 0 
L 628 4666 
z
" transform="scale(0.015625)"/>
      <path id="DejaVuSans-72" d="M 2631 2963 
Q 2534 3019 2420 3045 
Q 2306 3072 2169 3072 
Q 1681 3072 1420 2755 
Q 1159 2438 1159 1844 
L 1159 0 
L 581 0 
L 581 3500 
L 1159 3500 
L 1159 2956 
Q 1341 3275 1631 3429 
Q 1922 3584 2338 3584 
Q 2397 3584 2469 3576 
Q 2541 3569 2628 3553 
L 2631 2963 
z
" transform="scale(0.015625)"/>
      <path id="DejaVuSans-6b" d="M 581 4863 
L 1159 4863 
L 1159 1991 
L 2875 3500 
L 3609 3500 
L 1753 1863 
L 3688 0 
L 2938 0 
L 1159 1709 
L 1159 0 
L 581 0 
L 581 4863 
z
" transform="scale(0.015625)"/>
      <path id="DejaVuSans-5f" d="M 3263 -1063 
L 3263 -1509 
L -63 -1509 
L -63 -1063 
L 3263 -1063 
z
" transform="scale(0.015625)"/>
      <path id="DejaVuSans-31" d="M 794 531 
L 1825 531 
L 1825 4091 
L 703 3866 
L 703 4441 
L 1819 4666 
L 2450 4666 
L 2450 531 
L 3481 531 
L 3481 0 
L 794 0 
L 794 531 
z
" transform="scale(0.015625)"/>
     </defs>
     <use xlink:href="#DejaVuSans-4d"/>
     <use xlink:href="#DejaVuSans-72" x="86.279297"/>
     <use xlink:href="#DejaVuSans-6b" x="127.392578"/>
     <use xlink:href="#DejaVuSans-32" x="185.302734"/>
     <use xlink:href="#DejaVuSans-37" x="248.925781"/>
     <use xlink:href="#DejaVuSans-39" x="312.548828"/>
     <use xlink:href="#DejaVuSans-5f" x="376.171875"/>
     <use xlink:href="#DejaVuSans-32" x="426.171875"/>
     <use xlink:href="#DejaVuSans-30" x="489.794922"/>
     <use xlink:href="#DejaVuSans-31" x="553.417969"/>
     <use xlink:href="#DejaVuSans-37" x="617.041016"/>
    </g>
   </g>
  </g>
 </g>
 <defs>
  <clipPath id="p5ad1709128">
   <rect x="57.6" y="41.472" width="357.12" height="266.112"/>
  </clipPath>
 </defs>
</svg>
