<?xml version="1.0" encoding="utf-8" standalone="no"?>
<!DOCTYPE svg PUBLIC "-//W3C//DTD SVG 1.1//EN"
  "http://www.w3.org/Graphics/SVG/1.1/DTD/svg11.dtd">
<svg xmlns:xlink="http://www.w3.org/1999/xlink" width="460.8pt" height="345.6pt" viewBox="0 0 460.8 345.6" xmlns="http://www.w3.org/2000/svg" version="1.1">
 <metadata>
  <rdf:RDF xmlns:dc="http://purl.org/dc/elements/1.1/" xmlns:cc="http://creativecommons.org/ns#" xmlns:rdf="http://www.w3.org/1999/02/22-rdf-syntax-ns#">
   <cc:Work>
    <dc:type rdf:resource="http://purl.org/dc/dcmitype/StillImage"/>
    <dc:date>2022-01-28T09:47:25.374479</dc:date>
    <dc:format>image/svg+xml</dc:format>
    <dc:creator>
     <cc:Agent>
      <dc:title>Matplotlib v3.5.1, https://matplotlib.org/</dc:title>
     </cc:Agent>
    </dc:creator>
   </cc:Work>
  </rdf:RDF>
 </metadata>
 <defs>
  <style type="text/css">*{stroke-linejoin: round; stroke-linecap: butt}</style>
 </defs>
 <g id="figure_1">
  <g id="patch_1">
   <path d="M 0 345.6 
L 460.8 345.6 
L 460.8 0 
L 0 0 
z
" style="fill: #ffffff"/>
  </g>
  <g id="axes_1">
   <g id="patch_2">
    <path d="M 57.6 307.584 
L 414.72 307.584 
L 414.72 41.472 
L 57.6 41.472 
z
" style="fill: #ffffff"/>
   </g>
   <g id="matplotlib.axis_1">
    <g id="xtick_1">
     <g id="line2d_1">
      <defs>
       <path id="m561825ae55" d="M 0 0 
L 0 3.5 
" style="stroke: #000000; stroke-width: 0.8"/>
      </defs>
      <g>
       <use xlink:href="#m561825ae55" x="71.353713" y="307.584" style="stroke: #000000; stroke-width: 0.8"/>
      </g>
     </g>
     <g id="text_1">
      <!-- 0 -->
      <g transform="translate(68.172463 322.182437)scale(0.1 -0.1)">
       <defs>
        <path id="DejaVuSans-30" d="M 2034 4250 
Q 1547 4250 1301 3770 
Q 1056 3291 1056 2328 
Q 1056 1369 1301 889 
Q 1547 409 2034 409 
Q 2525 409 2770 889 
Q 3016 1369 3016 2328 
Q 3016 3291 2770 3770 
Q 2525 4250 2034 4250 
z
M 2034 4750 
Q 2819 4750 3233 4129 
Q 3647 3509 3647 2328 
Q 3647 1150 3233 529 
Q 2819 -91 2034 -91 
Q 1250 -91 836 529 
Q 422 1150 422 2328 
Q 422 3509 836 4129 
Q 1250 4750 2034 4750 
z
" transform="scale(0.015625)"/>
       </defs>
       <use xlink:href="#DejaVuSans-30"/>
      </g>
     </g>
    </g>
    <g id="xtick_2">
     <g id="line2d_2">
      <g>
       <use xlink:href="#m561825ae55" x="115.054398" y="307.584" style="stroke: #000000; stroke-width: 0.8"/>
      </g>
     </g>
     <g id="text_2">
      <!-- 20 -->
      <g transform="translate(108.691898 322.182437)scale(0.1 -0.1)">
       <defs>
        <path id="DejaVuSans-32" d="M 1228 531 
L 3431 531 
L 3431 0 
L 469 0 
L 469 531 
Q 828 903 1448 1529 
Q 2069 2156 2228 2338 
Q 2531 2678 2651 2914 
Q 2772 3150 2772 3378 
Q 2772 3750 2511 3984 
Q 2250 4219 1831 4219 
Q 1534 4219 1204 4116 
Q 875 4013 500 3803 
L 500 4441 
Q 881 4594 1212 4672 
Q 1544 4750 1819 4750 
Q 2544 4750 2975 4387 
Q 3406 4025 3406 3419 
Q 3406 3131 3298 2873 
Q 3191 2616 2906 2266 
Q 2828 2175 2409 1742 
Q 1991 1309 1228 531 
z
" transform="scale(0.015625)"/>
       </defs>
       <use xlink:href="#DejaVuSans-32"/>
       <use xlink:href="#DejaVuSans-30" x="63.623047"/>
      </g>
     </g>
    </g>
    <g id="xtick_3">
     <g id="line2d_3">
      <g>
       <use xlink:href="#m561825ae55" x="158.755084" y="307.584" style="stroke: #000000; stroke-width: 0.8"/>
      </g>
     </g>
     <g id="text_3">
      <!-- 40 -->
      <g transform="translate(152.392584 322.182437)scale(0.1 -0.1)">
       <defs>
        <path id="DejaVuSans-34" d="M 2419 4116 
L 825 1625 
L 2419 1625 
L 2419 4116 
z
M 2253 4666 
L 3047 4666 
L 3047 1625 
L 3713 1625 
L 3713 1100 
L 3047 1100 
L 3047 0 
L 2419 0 
L 2419 1100 
L 313 1100 
L 313 1709 
L 2253 4666 
z
" transform="scale(0.015625)"/>
       </defs>
       <use xlink:href="#DejaVuSans-34"/>
       <use xlink:href="#DejaVuSans-30" x="63.623047"/>
      </g>
     </g>
    </g>
    <g id="xtick_4">
     <g id="line2d_4">
      <g>
       <use xlink:href="#m561825ae55" x="202.455769" y="307.584" style="stroke: #000000; stroke-width: 0.8"/>
      </g>
     </g>
     <g id="text_4">
      <!-- 60 -->
      <g transform="translate(196.093269 322.182437)scale(0.1 -0.1)">
       <defs>
        <path id="DejaVuSans-36" d="M 2113 2584 
Q 1688 2584 1439 2293 
Q 1191 2003 1191 1497 
Q 1191 994 1439 701 
Q 1688 409 2113 409 
Q 2538 409 2786 701 
Q 3034 994 3034 1497 
Q 3034 2003 2786 2293 
Q 2538 2584 2113 2584 
z
M 3366 4563 
L 3366 3988 
Q 3128 4100 2886 4159 
Q 2644 4219 2406 4219 
Q 1781 4219 1451 3797 
Q 1122 3375 1075 2522 
Q 1259 2794 1537 2939 
Q 1816 3084 2150 3084 
Q 2853 3084 3261 2657 
Q 3669 2231 3669 1497 
Q 3669 778 3244 343 
Q 2819 -91 2113 -91 
Q 1303 -91 875 529 
Q 447 1150 447 2328 
Q 447 3434 972 4092 
Q 1497 4750 2381 4750 
Q 2619 4750 2861 4703 
Q 3103 4656 3366 4563 
z
" transform="scale(0.015625)"/>
       </defs>
       <use xlink:href="#DejaVuSans-36"/>
       <use xlink:href="#DejaVuSans-30" x="63.623047"/>
      </g>
     </g>
    </g>
    <g id="xtick_5">
     <g id="line2d_5">
      <g>
       <use xlink:href="#m561825ae55" x="246.156455" y="307.584" style="stroke: #000000; stroke-width: 0.8"/>
      </g>
     </g>
     <g id="text_5">
      <!-- 80 -->
      <g transform="translate(239.793955 322.182437)scale(0.1 -0.1)">
       <defs>
        <path id="DejaVuSans-38" d="M 2034 2216 
Q 1584 2216 1326 1975 
Q 1069 1734 1069 1313 
Q 1069 891 1326 650 
Q 1584 409 2034 409 
Q 2484 409 2743 651 
Q 3003 894 3003 1313 
Q 3003 1734 2745 1975 
Q 2488 2216 2034 2216 
z
M 1403 2484 
Q 997 2584 770 2862 
Q 544 3141 544 3541 
Q 544 4100 942 4425 
Q 1341 4750 2034 4750 
Q 2731 4750 3128 4425 
Q 3525 4100 3525 3541 
Q 3525 3141 3298 2862 
Q 3072 2584 2669 2484 
Q 3125 2378 3379 2068 
Q 3634 1759 3634 1313 
Q 3634 634 3220 271 
Q 2806 -91 2034 -91 
Q 1263 -91 848 271 
Q 434 634 434 1313 
Q 434 1759 690 2068 
Q 947 2378 1403 2484 
z
M 1172 3481 
Q 1172 3119 1398 2916 
Q 1625 2713 2034 2713 
Q 2441 2713 2670 2916 
Q 2900 3119 2900 3481 
Q 2900 3844 2670 4047 
Q 2441 4250 2034 4250 
Q 1625 4250 1398 4047 
Q 1172 3844 1172 3481 
z
" transform="scale(0.015625)"/>
       </defs>
       <use xlink:href="#DejaVuSans-38"/>
       <use xlink:href="#DejaVuSans-30" x="63.623047"/>
      </g>
     </g>
    </g>
    <g id="xtick_6">
     <g id="line2d_6">
      <g>
       <use xlink:href="#m561825ae55" x="289.85714" y="307.584" style="stroke: #000000; stroke-width: 0.8"/>
      </g>
     </g>
     <g id="text_6">
      <!-- 100 -->
      <g transform="translate(280.31339 322.182437)scale(0.1 -0.1)">
       <defs>
        <path id="DejaVuSans-31" d="M 794 531 
L 1825 531 
L 1825 4091 
L 703 3866 
L 703 4441 
L 1819 4666 
L 2450 4666 
L 2450 531 
L 3481 531 
L 3481 0 
L 794 0 
L 794 531 
z
" transform="scale(0.015625)"/>
       </defs>
       <use xlink:href="#DejaVuSans-31"/>
       <use xlink:href="#DejaVuSans-30" x="63.623047"/>
       <use xlink:href="#DejaVuSans-30" x="127.246094"/>
      </g>
     </g>
    </g>
    <g id="xtick_7">
     <g id="line2d_7">
      <g>
       <use xlink:href="#m561825ae55" x="333.557826" y="307.584" style="stroke: #000000; stroke-width: 0.8"/>
      </g>
     </g>
     <g id="text_7">
      <!-- 120 -->
      <g transform="translate(324.014076 322.182437)scale(0.1 -0.1)">
       <use xlink:href="#DejaVuSans-31"/>
       <use xlink:href="#DejaVuSans-32" x="63.623047"/>
       <use xlink:href="#DejaVuSans-30" x="127.246094"/>
      </g>
     </g>
    </g>
    <g id="xtick_8">
     <g id="line2d_8">
      <g>
       <use xlink:href="#m561825ae55" x="377.258511" y="307.584" style="stroke: #000000; stroke-width: 0.8"/>
      </g>
     </g>
     <g id="text_8">
      <!-- 140 -->
      <g transform="translate(367.714761 322.182437)scale(0.1 -0.1)">
       <use xlink:href="#DejaVuSans-31"/>
       <use xlink:href="#DejaVuSans-34" x="63.623047"/>
       <use xlink:href="#DejaVuSans-30" x="127.246094"/>
      </g>
     </g>
    </g>
   </g>
   <g id="matplotlib.axis_2">
    <g id="ytick_1">
     <g id="line2d_9">
      <defs>
       <path id="m4646931c41" d="M 0 0 
L -3.5 0 
" style="stroke: #000000; stroke-width: 0.8"/>
      </defs>
      <g>
       <use xlink:href="#m4646931c41" x="57.6" y="297.895195" style="stroke: #000000; stroke-width: 0.8"/>
      </g>
     </g>
     <g id="text_9">
      <!-- 4 -->
      <g transform="translate(44.2375 301.694414)scale(0.1 -0.1)">
       <use xlink:href="#DejaVuSans-34"/>
      </g>
     </g>
    </g>
    <g id="ytick_2">
     <g id="line2d_10">
      <g>
       <use xlink:href="#m4646931c41" x="57.6" y="242.645168" style="stroke: #000000; stroke-width: 0.8"/>
      </g>
     </g>
     <g id="text_10">
      <!-- 6 -->
      <g transform="translate(44.2375 246.444387)scale(0.1 -0.1)">
       <use xlink:href="#DejaVuSans-36"/>
      </g>
     </g>
    </g>
    <g id="ytick_3">
     <g id="line2d_11">
      <g>
       <use xlink:href="#m4646931c41" x="57.6" y="187.395142" style="stroke: #000000; stroke-width: 0.8"/>
      </g>
     </g>
     <g id="text_11">
      <!-- 8 -->
      <g transform="translate(44.2375 191.19436)scale(0.1 -0.1)">
       <use xlink:href="#DejaVuSans-38"/>
      </g>
     </g>
    </g>
    <g id="ytick_4">
     <g id="line2d_12">
      <g>
       <use xlink:href="#m4646931c41" x="57.6" y="132.145115" style="stroke: #000000; stroke-width: 0.8"/>
      </g>
     </g>
     <g id="text_12">
      <!-- 10 -->
      <g transform="translate(37.875 135.944334)scale(0.1 -0.1)">
       <use xlink:href="#DejaVuSans-31"/>
       <use xlink:href="#DejaVuSans-30" x="63.623047"/>
      </g>
     </g>
    </g>
    <g id="ytick_5">
     <g id="line2d_13">
      <g>
       <use xlink:href="#m4646931c41" x="57.6" y="76.895088" style="stroke: #000000; stroke-width: 0.8"/>
      </g>
     </g>
     <g id="text_13">
      <!-- 12 -->
      <g transform="translate(37.875 80.694307)scale(0.1 -0.1)">
       <use xlink:href="#DejaVuSans-31"/>
       <use xlink:href="#DejaVuSans-32" x="63.623047"/>
      </g>
     </g>
    </g>
   </g>
   <g id="line2d_14">
    <defs>
     <path id="m0fcbe7558f" d="M 0 3 
C 0.795609 3 1.55874 2.683901 2.12132 2.12132 
C 2.683901 1.55874 3 0.795609 3 0 
C 3 -0.795609 2.683901 -1.55874 2.12132 -2.12132 
C 1.55874 -2.683901 0.795609 -3 0 -3 
C -0.795609 -3 -1.55874 -2.683901 -2.12132 -2.12132 
C -2.683901 -1.55874 -3 -0.795609 -3 0 
C -3 0.795609 -2.683901 1.55874 -2.12132 2.12132 
C -1.55874 2.683901 -0.795609 3 0 3 
z
" style="stroke: #1f77b4"/>
    </defs>
    <g clip-path="url(#pe278f4b681)">
     <use xlink:href="#m0fcbe7558f" x="111.426849" y="287.651136" style="fill: #1f77b4; stroke: #1f77b4"/>
     <use xlink:href="#m0fcbe7558f" x="128.588345" y="248.316367" style="fill: #1f77b4; stroke: #1f77b4"/>
     <use xlink:href="#m0fcbe7558f" x="94.324588" y="272.911956" style="fill: #1f77b4; stroke: #1f77b4"/>
     <use xlink:href="#m0fcbe7558f" x="160.867808" y="273.907895" style="fill: #1f77b4; stroke: #1f77b4"/>
     <use xlink:href="#m0fcbe7558f" x="126.12937" y="251.007223" style="fill: #1f77b4; stroke: #1f77b4"/>
     <use xlink:href="#m0fcbe7558f" x="132.464237" y="251.146778" style="fill: #1f77b4; stroke: #1f77b4"/>
     <use xlink:href="#m0fcbe7558f" x="128.553452" y="252.886382" style="fill: #1f77b4; stroke: #1f77b4"/>
     <use xlink:href="#m0fcbe7558f" x="116.788176" y="282.653458" style="fill: #1f77b4; stroke: #1f77b4"/>
     <use xlink:href="#m0fcbe7558f" x="130.366192" y="253.733436" style="fill: #1f77b4; stroke: #1f77b4"/>
     <use xlink:href="#m0fcbe7558f" x="146.69004" y="259.59975" style="fill: #1f77b4; stroke: #1f77b4"/>
     <use xlink:href="#m0fcbe7558f" x="87.068001" y="288.464111" style="fill: #1f77b4; stroke: #1f77b4"/>
     <use xlink:href="#m0fcbe7558f" x="146.206143" y="264.495795" style="fill: #1f77b4; stroke: #1f77b4"/>
     <use xlink:href="#m0fcbe7558f" x="74.318556" y="275.665447" style="fill: #1f77b4; stroke: #1f77b4"/>
     <use xlink:href="#m0fcbe7558f" x="157.158161" y="263.043877" style="fill: #1f77b4; stroke: #1f77b4"/>
     <use xlink:href="#m0fcbe7558f" x="146.658542" y="256.663887" style="fill: #1f77b4; stroke: #1f77b4"/>
     <use xlink:href="#m0fcbe7558f" x="97.820819" y="255.876945" style="fill: #1f77b4; stroke: #1f77b4"/>
     <use xlink:href="#m0fcbe7558f" x="149.066972" y="259.34234" style="fill: #1f77b4; stroke: #1f77b4"/>
     <use xlink:href="#m0fcbe7558f" x="115.432278" y="292.747258" style="fill: #1f77b4; stroke: #1f77b4"/>
     <use xlink:href="#m0fcbe7558f" x="153.489093" y="256.749501" style="fill: #1f77b4; stroke: #1f77b4"/>
     <use xlink:href="#m0fcbe7558f" x="87.923063" y="289.191624" style="fill: #1f77b4; stroke: #1f77b4"/>
     <use xlink:href="#m0fcbe7558f" x="86.477485" y="282.174052" style="fill: #1f77b4; stroke: #1f77b4"/>
     <use xlink:href="#m0fcbe7558f" x="95.028093" y="274.681944" style="fill: #1f77b4; stroke: #1f77b4"/>
     <use xlink:href="#m0fcbe7558f" x="172.012725" y="220.405904" style="fill: #1f77b4; stroke: #1f77b4"/>
     <use xlink:href="#m0fcbe7558f" x="73.832727" y="279.966158" style="fill: #1f77b4; stroke: #1f77b4"/>
     <use xlink:href="#m0fcbe7558f" x="81.607963" y="263.237778" style="fill: #1f77b4; stroke: #1f77b4"/>
     <use xlink:href="#m0fcbe7558f" x="169.62794" y="232.684813" style="fill: #1f77b4; stroke: #1f77b4"/>
     <use xlink:href="#m0fcbe7558f" x="78.05496" y="268.888577" style="fill: #1f77b4; stroke: #1f77b4"/>
     <use xlink:href="#m0fcbe7558f" x="90.960306" y="295.488" style="fill: #1f77b4; stroke: #1f77b4"/>
     <use xlink:href="#m0fcbe7558f" x="177.47914" y="227.580536" style="fill: #1f77b4; stroke: #1f77b4"/>
     <use xlink:href="#m0fcbe7558f" x="95.48304" y="270.76176" style="fill: #1f77b4; stroke: #1f77b4"/>
     <use xlink:href="#m0fcbe7558f" x="114.251451" y="288.755031" style="fill: #1f77b4; stroke: #1f77b4"/>
     <use xlink:href="#m0fcbe7558f" x="140.8341" y="241.626641" style="fill: #1f77b4; stroke: #1f77b4"/>
     <use xlink:href="#m0fcbe7558f" x="173.050076" y="219.405544" style="fill: #1f77b4; stroke: #1f77b4"/>
     <use xlink:href="#m0fcbe7558f" x="112.09498" y="286.886116" style="fill: #1f77b4; stroke: #1f77b4"/>
     <use xlink:href="#m0fcbe7558f" x="123.699448" y="270.441258" style="fill: #1f77b4; stroke: #1f77b4"/>
     <use xlink:href="#m0fcbe7558f" x="74.12296" y="275.188464" style="fill: #1f77b4; stroke: #1f77b4"/>
     <use xlink:href="#m0fcbe7558f" x="84.123293" y="278.294138" style="fill: #1f77b4; stroke: #1f77b4"/>
     <use xlink:href="#m0fcbe7558f" x="134.686696" y="250.490101" style="fill: #1f77b4; stroke: #1f77b4"/>
     <use xlink:href="#m0fcbe7558f" x="118.06586" y="273.241507" style="fill: #1f77b4; stroke: #1f77b4"/>
     <use xlink:href="#m0fcbe7558f" x="74.129546" y="278.203221" style="fill: #1f77b4; stroke: #1f77b4"/>
     <use xlink:href="#m0fcbe7558f" x="76.989364" y="269.176324" style="fill: #1f77b4; stroke: #1f77b4"/>
     <use xlink:href="#m0fcbe7558f" x="174.124356" y="223.311964" style="fill: #1f77b4; stroke: #1f77b4"/>
     <use xlink:href="#m0fcbe7558f" x="79.91653" y="263.3091" style="fill: #1f77b4; stroke: #1f77b4"/>
     <use xlink:href="#m0fcbe7558f" x="117.12351" y="287.291163" style="fill: #1f77b4; stroke: #1f77b4"/>
     <use xlink:href="#m0fcbe7558f" x="175.220222" y="223.010026" style="fill: #1f77b4; stroke: #1f77b4"/>
     <use xlink:href="#m0fcbe7558f" x="82.750553" y="271.368827" style="fill: #1f77b4; stroke: #1f77b4"/>
     <use xlink:href="#m0fcbe7558f" x="143.981311" y="252.358423" style="fill: #1f77b4; stroke: #1f77b4"/>
     <use xlink:href="#m0fcbe7558f" x="167.138562" y="246.852587" style="fill: #1f77b4; stroke: #1f77b4"/>
     <use xlink:href="#m0fcbe7558f" x="164.291547" y="279.731247" style="fill: #1f77b4; stroke: #1f77b4"/>
     <use xlink:href="#m0fcbe7558f" x="142.321907" y="245.823922" style="fill: #1f77b4; stroke: #1f77b4"/>
    </g>
   </g>
   <g id="line2d_15">
    <defs>
     <path id="m5448b31492" d="M 0 3 
C 0.795609 3 1.55874 2.683901 2.12132 2.12132 
C 2.683901 1.55874 3 0.795609 3 0 
C 3 -0.795609 2.683901 -1.55874 2.12132 -2.12132 
C 1.55874 -2.683901 0.795609 -3 0 -3 
C -0.795609 -3 -1.55874 -2.683901 -2.12132 -2.12132 
C -2.683901 -1.55874 -3 -0.795609 -3 0 
C -3 0.795609 -2.683901 1.55874 -2.12132 2.12132 
C -1.55874 2.683901 -0.795609 3 0 3 
z
" style="stroke: #ff7f0e"/>
    </defs>
    <g clip-path="url(#pe278f4b681)">
     <use xlink:href="#m5448b31492" x="245.202555" y="259.406097" style="fill: #ff7f0e; stroke: #ff7f0e"/>
     <use xlink:href="#m5448b31492" x="223.658835" y="214.280793" style="fill: #ff7f0e; stroke: #ff7f0e"/>
     <use xlink:href="#m5448b31492" x="190.544031" y="229.109908" style="fill: #ff7f0e; stroke: #ff7f0e"/>
     <use xlink:href="#m5448b31492" x="267.325698" y="282.268537" style="fill: #ff7f0e; stroke: #ff7f0e"/>
     <use xlink:href="#m5448b31492" x="203.71786" y="255.111046" style="fill: #ff7f0e; stroke: #ff7f0e"/>
     <use xlink:href="#m5448b31492" x="265.537922" y="274.571936" style="fill: #ff7f0e; stroke: #ff7f0e"/>
     <use xlink:href="#m5448b31492" x="185.580556" y="216.671804" style="fill: #ff7f0e; stroke: #ff7f0e"/>
     <use xlink:href="#m5448b31492" x="219.276383" y="243.85602" style="fill: #ff7f0e; stroke: #ff7f0e"/>
     <use xlink:href="#m5448b31492" x="260.682901" y="254.203011" style="fill: #ff7f0e; stroke: #ff7f0e"/>
     <use xlink:href="#m5448b31492" x="184.306596" y="218.806222" style="fill: #ff7f0e; stroke: #ff7f0e"/>
     <use xlink:href="#m5448b31492" x="273.780103" y="273.358493" style="fill: #ff7f0e; stroke: #ff7f0e"/>
     <use xlink:href="#m5448b31492" x="199.808013" y="252.2836" style="fill: #ff7f0e; stroke: #ff7f0e"/>
     <use xlink:href="#m5448b31492" x="181.707319" y="190.526735" style="fill: #ff7f0e; stroke: #ff7f0e"/>
     <use xlink:href="#m5448b31492" x="219.12545" y="244.296129" style="fill: #ff7f0e; stroke: #ff7f0e"/>
     <use xlink:href="#m5448b31492" x="268.009424" y="279.18318" style="fill: #ff7f0e; stroke: #ff7f0e"/>
     <use xlink:href="#m5448b31492" x="247.861076" y="261.067862" style="fill: #ff7f0e; stroke: #ff7f0e"/>
     <use xlink:href="#m5448b31492" x="224.321028" y="218.511735" style="fill: #ff7f0e; stroke: #ff7f0e"/>
     <use xlink:href="#m5448b31492" x="211.825114" y="240.972394" style="fill: #ff7f0e; stroke: #ff7f0e"/>
     <use xlink:href="#m5448b31492" x="268.902962" y="280.018281" style="fill: #ff7f0e; stroke: #ff7f0e"/>
     <use xlink:href="#m5448b31492" x="268.338056" y="285.938395" style="fill: #ff7f0e; stroke: #ff7f0e"/>
     <use xlink:href="#m5448b31492" x="208.784517" y="235.269304" style="fill: #ff7f0e; stroke: #ff7f0e"/>
     <use xlink:href="#m5448b31492" x="257.159906" y="258.665718" style="fill: #ff7f0e; stroke: #ff7f0e"/>
     <use xlink:href="#m5448b31492" x="219.53871" y="242.752749" style="fill: #ff7f0e; stroke: #ff7f0e"/>
     <use xlink:href="#m5448b31492" x="239.247044" y="179.707021" style="fill: #ff7f0e; stroke: #ff7f0e"/>
     <use xlink:href="#m5448b31492" x="252.708081" y="247.053248" style="fill: #ff7f0e; stroke: #ff7f0e"/>
     <use xlink:href="#m5448b31492" x="288.850875" y="257.70124" style="fill: #ff7f0e; stroke: #ff7f0e"/>
     <use xlink:href="#m5448b31492" x="277.572602" y="257.367407" style="fill: #ff7f0e; stroke: #ff7f0e"/>
     <use xlink:href="#m5448b31492" x="225.97875" y="223.573814" style="fill: #ff7f0e; stroke: #ff7f0e"/>
     <use xlink:href="#m5448b31492" x="234.965408" y="166.359354" style="fill: #ff7f0e; stroke: #ff7f0e"/>
     <use xlink:href="#m5448b31492" x="202.006473" y="258.014986" style="fill: #ff7f0e; stroke: #ff7f0e"/>
     <use xlink:href="#m5448b31492" x="270.582935" y="280.909003" style="fill: #ff7f0e; stroke: #ff7f0e"/>
     <use xlink:href="#m5448b31492" x="197.927803" y="244.823388" style="fill: #ff7f0e; stroke: #ff7f0e"/>
     <use xlink:href="#m5448b31492" x="194.673358" y="247.188017" style="fill: #ff7f0e; stroke: #ff7f0e"/>
     <use xlink:href="#m5448b31492" x="283.736051" y="251.353044" style="fill: #ff7f0e; stroke: #ff7f0e"/>
     <use xlink:href="#m5448b31492" x="220.504033" y="235.882944" style="fill: #ff7f0e; stroke: #ff7f0e"/>
     <use xlink:href="#m5448b31492" x="265.209179" y="277.251109" style="fill: #ff7f0e; stroke: #ff7f0e"/>
     <use xlink:href="#m5448b31492" x="288.634122" y="257.2658" style="fill: #ff7f0e; stroke: #ff7f0e"/>
     <use xlink:href="#m5448b31492" x="250.781772" y="249.068444" style="fill: #ff7f0e; stroke: #ff7f0e"/>
     <use xlink:href="#m5448b31492" x="252.926231" y="238.754226" style="fill: #ff7f0e; stroke: #ff7f0e"/>
     <use xlink:href="#m5448b31492" x="233.82781" y="176.340543" style="fill: #ff7f0e; stroke: #ff7f0e"/>
     <use xlink:href="#m5448b31492" x="186.795404" y="227.561027" style="fill: #ff7f0e; stroke: #ff7f0e"/>
     <use xlink:href="#m5448b31492" x="186.586832" y="230.486406" style="fill: #ff7f0e; stroke: #ff7f0e"/>
     <use xlink:href="#m5448b31492" x="258.875849" y="255.030001" style="fill: #ff7f0e; stroke: #ff7f0e"/>
     <use xlink:href="#m5448b31492" x="241.845475" y="215.593161" style="fill: #ff7f0e; stroke: #ff7f0e"/>
     <use xlink:href="#m5448b31492" x="282.108889" y="245.123924" style="fill: #ff7f0e; stroke: #ff7f0e"/>
     <use xlink:href="#m5448b31492" x="204.13539" y="252.105697" style="fill: #ff7f0e; stroke: #ff7f0e"/>
     <use xlink:href="#m5448b31492" x="234.758016" y="167.594208" style="fill: #ff7f0e; stroke: #ff7f0e"/>
     <use xlink:href="#m5448b31492" x="196.009377" y="242.785246" style="fill: #ff7f0e; stroke: #ff7f0e"/>
     <use xlink:href="#m5448b31492" x="209.770615" y="230.32589" style="fill: #ff7f0e; stroke: #ff7f0e"/>
     <use xlink:href="#m5448b31492" x="229.399787" y="228.262062" style="fill: #ff7f0e; stroke: #ff7f0e"/>
    </g>
   </g>
   <g id="line2d_16">
    <defs>
     <path id="ma33f734398" d="M 0 3 
C 0.795609 3 1.55874 2.683901 2.12132 2.12132 
C 2.683901 1.55874 3 0.795609 3 0 
C 3 -0.795609 2.683901 -1.55874 2.12132 -2.12132 
C 1.55874 -2.683901 0.795609 -3 0 -3 
C -0.795609 -3 -1.55874 -2.683901 -2.12132 -2.12132 
C -2.683901 -1.55874 -3 -0.795609 -3 0 
C -3 0.795609 -2.683901 1.55874 -2.12132 2.12132 
C -1.55874 2.683901 -0.795609 3 0 3 
z
" style="stroke: #2ca02c"/>
    </defs>
    <g clip-path="url(#pe278f4b681)">
     <use xlink:href="#ma33f734398" x="328.194051" y="182.835969" style="fill: #2ca02c; stroke: #2ca02c"/>
     <use xlink:href="#ma33f734398" x="383.205213" y="184.875096" style="fill: #2ca02c; stroke: #2ca02c"/>
     <use xlink:href="#ma33f734398" x="295.510188" y="284.201667" style="fill: #2ca02c; stroke: #2ca02c"/>
     <use xlink:href="#ma33f734398" x="303.22721" y="241.774296" style="fill: #2ca02c; stroke: #2ca02c"/>
     <use xlink:href="#ma33f734398" x="293.536247" y="276.208525" style="fill: #2ca02c; stroke: #2ca02c"/>
     <use xlink:href="#ma33f734398" x="376.896679" y="140.274873" style="fill: #2ca02c; stroke: #2ca02c"/>
     <use xlink:href="#ma33f734398" x="344.635049" y="273.96899" style="fill: #2ca02c; stroke: #2ca02c"/>
     <use xlink:href="#ma33f734398" x="331.569585" y="172.641154" style="fill: #2ca02c; stroke: #2ca02c"/>
     <use xlink:href="#ma33f734398" x="388.16831" y="194.069576" style="fill: #2ca02c; stroke: #2ca02c"/>
     <use xlink:href="#ma33f734398" x="297.209706" y="286.883123" style="fill: #2ca02c; stroke: #2ca02c"/>
     <use xlink:href="#ma33f734398" x="326.299888" y="187.425543" style="fill: #2ca02c; stroke: #2ca02c"/>
     <use xlink:href="#ma33f734398" x="369.143354" y="54.282274" style="fill: #2ca02c; stroke: #2ca02c"/>
     <use xlink:href="#ma33f734398" x="301.456037" y="248.579865" style="fill: #2ca02c; stroke: #2ca02c"/>
     <use xlink:href="#ma33f734398" x="320.13792" y="198.171372" style="fill: #2ca02c; stroke: #2ca02c"/>
     <use xlink:href="#ma33f734398" x="371.214961" y="58.406849" style="fill: #2ca02c; stroke: #2ca02c"/>
     <use xlink:href="#ma33f734398" x="310.402063" y="214.011773" style="fill: #2ca02c; stroke: #2ca02c"/>
     <use xlink:href="#ma33f734398" x="290.118601" y="237.09473" style="fill: #2ca02c; stroke: #2ca02c"/>
     <use xlink:href="#ma33f734398" x="384.959399" y="186.307599" style="fill: #2ca02c; stroke: #2ca02c"/>
     <use xlink:href="#ma33f734398" x="396.45103" y="221.414189" style="fill: #2ca02c; stroke: #2ca02c"/>
     <use xlink:href="#ma33f734398" x="374.936745" y="109.222734" style="fill: #2ca02c; stroke: #2ca02c"/>
     <use xlink:href="#ma33f734398" x="314.817807" y="206.763543" style="fill: #2ca02c; stroke: #2ca02c"/>
     <use xlink:href="#ma33f734398" x="350.064643" y="234.774129" style="fill: #2ca02c; stroke: #2ca02c"/>
     <use xlink:href="#ma33f734398" x="317.87665" y="209.204942" style="fill: #2ca02c; stroke: #2ca02c"/>
     <use xlink:href="#ma33f734398" x="305.987095" y="245.042943" style="fill: #2ca02c; stroke: #2ca02c"/>
     <use xlink:href="#ma33f734398" x="379.950128" y="165.047672" style="fill: #2ca02c; stroke: #2ca02c"/>
     <use xlink:href="#ma33f734398" x="295.566292" y="291.748924" style="fill: #2ca02c; stroke: #2ca02c"/>
     <use xlink:href="#ma33f734398" x="365.186157" y="71.261739" style="fill: #2ca02c; stroke: #2ca02c"/>
     <use xlink:href="#ma33f734398" x="350.42854" y="231.103106" style="fill: #2ca02c; stroke: #2ca02c"/>
     <use xlink:href="#ma33f734398" x="291.185665" y="246.76349" style="fill: #2ca02c; stroke: #2ca02c"/>
     <use xlink:href="#ma33f734398" x="370.835633" y="63.148229" style="fill: #2ca02c; stroke: #2ca02c"/>
     <use xlink:href="#ma33f734398" x="398.487273" y="226.838633" style="fill: #2ca02c; stroke: #2ca02c"/>
     <use xlink:href="#ma33f734398" x="350.963972" y="242.925963" style="fill: #2ca02c; stroke: #2ca02c"/>
     <use xlink:href="#ma33f734398" x="353.205523" y="250.068872" style="fill: #2ca02c; stroke: #2ca02c"/>
     <use xlink:href="#ma33f734398" x="360.337782" y="194.365447" style="fill: #2ca02c; stroke: #2ca02c"/>
     <use xlink:href="#ma33f734398" x="368.579672" y="53.568" style="fill: #2ca02c; stroke: #2ca02c"/>
     <use xlink:href="#ma33f734398" x="328.382982" y="187.480823" style="fill: #2ca02c; stroke: #2ca02c"/>
     <use xlink:href="#ma33f734398" x="334.34267" y="164.490279" style="fill: #2ca02c; stroke: #2ca02c"/>
     <use xlink:href="#ma33f734398" x="395.686487" y="227.039638" style="fill: #2ca02c; stroke: #2ca02c"/>
     <use xlink:href="#ma33f734398" x="338.902025" y="214.702225" style="fill: #2ca02c; stroke: #2ca02c"/>
     <use xlink:href="#ma33f734398" x="360.798808" y="176.805633" style="fill: #2ca02c; stroke: #2ca02c"/>
     <use xlink:href="#ma33f734398" x="325.269334" y="186.120685" style="fill: #2ca02c; stroke: #2ca02c"/>
     <use xlink:href="#ma33f734398" x="387.478652" y="193.597009" style="fill: #2ca02c; stroke: #2ca02c"/>
     <use xlink:href="#ma33f734398" x="374.989423" y="109.440141" style="fill: #2ca02c; stroke: #2ca02c"/>
     <use xlink:href="#ma33f734398" x="300.084549" y="264.025221" style="fill: #2ca02c; stroke: #2ca02c"/>
     <use xlink:href="#ma33f734398" x="300.480338" y="266.019026" style="fill: #2ca02c; stroke: #2ca02c"/>
     <use xlink:href="#ma33f734398" x="338.724909" y="212.367469" style="fill: #2ca02c; stroke: #2ca02c"/>
     <use xlink:href="#ma33f734398" x="371.653403" y="60.864167" style="fill: #2ca02c; stroke: #2ca02c"/>
     <use xlink:href="#ma33f734398" x="353.805175" y="254.259132" style="fill: #2ca02c; stroke: #2ca02c"/>
     <use xlink:href="#ma33f734398" x="348.463601" y="239.685084" style="fill: #2ca02c; stroke: #2ca02c"/>
     <use xlink:href="#ma33f734398" x="339.552052" y="226.575697" style="fill: #2ca02c; stroke: #2ca02c"/>
    </g>
   </g>
   <g id="patch_3">
    <path d="M 57.6 307.584 
L 57.6 41.472 
" style="fill: none; stroke: #000000; stroke-width: 0.8; stroke-linejoin: miter; stroke-linecap: square"/>
   </g>
   <g id="patch_4">
    <path d="M 414.72 307.584 
L 414.72 41.472 
" style="fill: none; stroke: #000000; stroke-width: 0.8; stroke-linejoin: miter; stroke-linecap: square"/>
   </g>
   <g id="patch_5">
    <path d="M 57.6 307.584 
L 414.72 307.584 
" style="fill: none; stroke: #000000; stroke-width: 0.8; stroke-linejoin: miter; stroke-linecap: square"/>
   </g>
   <g id="patch_6">
    <path d="M 57.6 41.472 
L 414.72 41.472 
" style="fill: none; stroke: #000000; stroke-width: 0.8; stroke-linejoin: miter; stroke-linecap: square"/>
   </g>
   <g id="legend_1">
    <g id="patch_7">
     <path d="M 64.6 93.506375 
L 122.05 93.506375 
Q 124.05 93.506375 124.05 91.506375 
L 124.05 48.472 
Q 124.05 46.472 122.05 46.472 
L 64.6 46.472 
Q 62.6 46.472 62.6 48.472 
L 62.6 91.506375 
Q 62.6 93.506375 64.6 93.506375 
z
" style="fill: #ffffff; opacity: 0.8; stroke: #cccccc; stroke-linejoin: miter"/>
    </g>
    <g id="line2d_17">
     <g>
      <use xlink:href="#m0fcbe7558f" x="76.6" y="54.570438" style="fill: #1f77b4; stroke: #1f77b4"/>
     </g>
    </g>
    <g id="text_14">
     <!-- 4300 -->
     <g transform="translate(94.6 58.070438)scale(0.1 -0.1)">
      <defs>
       <path id="DejaVuSans-33" d="M 2597 2516 
Q 3050 2419 3304 2112 
Q 3559 1806 3559 1356 
Q 3559 666 3084 287 
Q 2609 -91 1734 -91 
Q 1441 -91 1130 -33 
Q 819 25 488 141 
L 488 750 
Q 750 597 1062 519 
Q 1375 441 1716 441 
Q 2309 441 2620 675 
Q 2931 909 2931 1356 
Q 2931 1769 2642 2001 
Q 2353 2234 1838 2234 
L 1294 2234 
L 1294 2753 
L 1863 2753 
Q 2328 2753 2575 2939 
Q 2822 3125 2822 3475 
Q 2822 3834 2567 4026 
Q 2313 4219 1838 4219 
Q 1578 4219 1281 4162 
Q 984 4106 628 3988 
L 628 4550 
Q 988 4650 1302 4700 
Q 1616 4750 1894 4750 
Q 2613 4750 3031 4423 
Q 3450 4097 3450 3541 
Q 3450 3153 3228 2886 
Q 3006 2619 2597 2516 
z
" transform="scale(0.015625)"/>
      </defs>
      <use xlink:href="#DejaVuSans-34"/>
      <use xlink:href="#DejaVuSans-33" x="63.623047"/>
      <use xlink:href="#DejaVuSans-30" x="127.246094"/>
      <use xlink:href="#DejaVuSans-30" x="190.869141"/>
     </g>
    </g>
    <g id="line2d_18">
     <g>
      <use xlink:href="#m5448b31492" x="76.6" y="69.248563" style="fill: #ff7f0e; stroke: #ff7f0e"/>
     </g>
    </g>
    <g id="text_15">
     <!-- 5700 -->
     <g transform="translate(94.6 72.748563)scale(0.1 -0.1)">
      <defs>
       <path id="DejaVuSans-35" d="M 691 4666 
L 3169 4666 
L 3169 4134 
L 1269 4134 
L 1269 2991 
Q 1406 3038 1543 3061 
Q 1681 3084 1819 3084 
Q 2600 3084 3056 2656 
Q 3513 2228 3513 1497 
Q 3513 744 3044 326 
Q 2575 -91 1722 -91 
Q 1428 -91 1123 -41 
Q 819 9 494 109 
L 494 744 
Q 775 591 1075 516 
Q 1375 441 1709 441 
Q 2250 441 2565 725 
Q 2881 1009 2881 1497 
Q 2881 1984 2565 2268 
Q 2250 2553 1709 2553 
Q 1456 2553 1204 2497 
Q 953 2441 691 2322 
L 691 4666 
z
" transform="scale(0.015625)"/>
       <path id="DejaVuSans-37" d="M 525 4666 
L 3525 4666 
L 3525 4397 
L 1831 0 
L 1172 0 
L 2766 4134 
L 525 4134 
L 525 4666 
z
" transform="scale(0.015625)"/>
      </defs>
      <use xlink:href="#DejaVuSans-35"/>
      <use xlink:href="#DejaVuSans-37" x="63.623047"/>
      <use xlink:href="#DejaVuSans-30" x="127.246094"/>
      <use xlink:href="#DejaVuSans-30" x="190.869141"/>
     </g>
    </g>
    <g id="line2d_19">
     <g>
      <use xlink:href="#ma33f734398" x="76.6" y="83.926688" style="fill: #2ca02c; stroke: #2ca02c"/>
     </g>
    </g>
    <g id="text_16">
     <!-- 6200 -->
     <g transform="translate(94.6 87.426688)scale(0.1 -0.1)">
      <use xlink:href="#DejaVuSans-36"/>
      <use xlink:href="#DejaVuSans-32" x="63.623047"/>
      <use xlink:href="#DejaVuSans-30" x="127.246094"/>
      <use xlink:href="#DejaVuSans-30" x="190.869141"/>
     </g>
    </g>
   </g>
  </g>
 </g>
 <defs>
  <clipPath id="pe278f4b681">
   <rect x="57.6" y="41.472" width="357.12" height="266.112"/>
  </clipPath>
 </defs>
</svg>
