<?xml version="1.0" encoding="utf-8" standalone="no"?>
<!DOCTYPE svg PUBLIC "-//W3C//DTD SVG 1.1//EN"
  "http://www.w3.org/Graphics/SVG/1.1/DTD/svg11.dtd">
<svg xmlns:xlink="http://www.w3.org/1999/xlink" width="460.8pt" height="345.6pt" viewBox="0 0 460.8 345.6" xmlns="http://www.w3.org/2000/svg" version="1.1">
 <metadata>
  <rdf:RDF xmlns:dc="http://purl.org/dc/elements/1.1/" xmlns:cc="http://creativecommons.org/ns#" xmlns:rdf="http://www.w3.org/1999/02/22-rdf-syntax-ns#">
   <cc:Work>
    <dc:type rdf:resource="http://purl.org/dc/dcmitype/StillImage"/>
    <dc:date>2022-01-27T14:32:45.675933</dc:date>
    <dc:format>image/svg+xml</dc:format>
    <dc:creator>
     <cc:Agent>
      <dc:title>Matplotlib v3.5.1, https://matplotlib.org/</dc:title>
     </cc:Agent>
    </dc:creator>
   </cc:Work>
  </rdf:RDF>
 </metadata>
 <defs>
  <style type="text/css">*{stroke-linejoin: round; stroke-linecap: butt}</style>
 </defs>
 <g id="figure_1">
  <g id="patch_1">
   <path d="M 0 345.6 
L 460.8 345.6 
L 460.8 0 
L 0 0 
z
" style="fill: #ffffff"/>
  </g>
  <g id="axes_1">
   <g id="patch_2">
    <path d="M 57.6 307.584 
L 414.72 307.584 
L 414.72 41.472 
L 57.6 41.472 
z
" style="fill: #ffffff"/>
   </g>
   <g id="matplotlib.axis_1">
    <g id="xtick_1">
     <g id="line2d_1">
      <defs>
       <path id="ma9efda2691" d="M 0 0 
L 0 3.5 
" style="stroke: #000000; stroke-width: 0.8"/>
      </defs>
      <g>
       <use xlink:href="#ma9efda2691" x="72.304759" y="307.584" style="stroke: #000000; stroke-width: 0.8"/>
      </g>
     </g>
     <g id="text_1">
      <!-- 0 -->
      <g transform="translate(69.123509 322.182437)scale(0.1 -0.1)">
       <defs>
        <path id="DejaVuSans-30" d="M 2034 4250 
Q 1547 4250 1301 3770 
Q 1056 3291 1056 2328 
Q 1056 1369 1301 889 
Q 1547 409 2034 409 
Q 2525 409 2770 889 
Q 3016 1369 3016 2328 
Q 3016 3291 2770 3770 
Q 2525 4250 2034 4250 
z
M 2034 4750 
Q 2819 4750 3233 4129 
Q 3647 3509 3647 2328 
Q 3647 1150 3233 529 
Q 2819 -91 2034 -91 
Q 1250 -91 836 529 
Q 422 1150 422 2328 
Q 422 3509 836 4129 
Q 1250 4750 2034 4750 
z
" transform="scale(0.015625)"/>
       </defs>
       <use xlink:href="#DejaVuSans-30"/>
      </g>
     </g>
    </g>
    <g id="xtick_2">
     <g id="line2d_2">
      <g>
       <use xlink:href="#ma9efda2691" x="116.124682" y="307.584" style="stroke: #000000; stroke-width: 0.8"/>
      </g>
     </g>
     <g id="text_2">
      <!-- 20 -->
      <g transform="translate(109.762182 322.182437)scale(0.1 -0.1)">
       <defs>
        <path id="DejaVuSans-32" d="M 1228 531 
L 3431 531 
L 3431 0 
L 469 0 
L 469 531 
Q 828 903 1448 1529 
Q 2069 2156 2228 2338 
Q 2531 2678 2651 2914 
Q 2772 3150 2772 3378 
Q 2772 3750 2511 3984 
Q 2250 4219 1831 4219 
Q 1534 4219 1204 4116 
Q 875 4013 500 3803 
L 500 4441 
Q 881 4594 1212 4672 
Q 1544 4750 1819 4750 
Q 2544 4750 2975 4387 
Q 3406 4025 3406 3419 
Q 3406 3131 3298 2873 
Q 3191 2616 2906 2266 
Q 2828 2175 2409 1742 
Q 1991 1309 1228 531 
z
" transform="scale(0.015625)"/>
       </defs>
       <use xlink:href="#DejaVuSans-32"/>
       <use xlink:href="#DejaVuSans-30" x="63.623047"/>
      </g>
     </g>
    </g>
    <g id="xtick_3">
     <g id="line2d_3">
      <g>
       <use xlink:href="#ma9efda2691" x="159.944606" y="307.584" style="stroke: #000000; stroke-width: 0.8"/>
      </g>
     </g>
     <g id="text_3">
      <!-- 40 -->
      <g transform="translate(153.582106 322.182437)scale(0.1 -0.1)">
       <defs>
        <path id="DejaVuSans-34" d="M 2419 4116 
L 825 1625 
L 2419 1625 
L 2419 4116 
z
M 2253 4666 
L 3047 4666 
L 3047 1625 
L 3713 1625 
L 3713 1100 
L 3047 1100 
L 3047 0 
L 2419 0 
L 2419 1100 
L 313 1100 
L 313 1709 
L 2253 4666 
z
" transform="scale(0.015625)"/>
       </defs>
       <use xlink:href="#DejaVuSans-34"/>
       <use xlink:href="#DejaVuSans-30" x="63.623047"/>
      </g>
     </g>
    </g>
    <g id="xtick_4">
     <g id="line2d_4">
      <g>
       <use xlink:href="#ma9efda2691" x="203.764529" y="307.584" style="stroke: #000000; stroke-width: 0.8"/>
      </g>
     </g>
     <g id="text_4">
      <!-- 60 -->
      <g transform="translate(197.402029 322.182437)scale(0.1 -0.1)">
       <defs>
        <path id="DejaVuSans-36" d="M 2113 2584 
Q 1688 2584 1439 2293 
Q 1191 2003 1191 1497 
Q 1191 994 1439 701 
Q 1688 409 2113 409 
Q 2538 409 2786 701 
Q 3034 994 3034 1497 
Q 3034 2003 2786 2293 
Q 2538 2584 2113 2584 
z
M 3366 4563 
L 3366 3988 
Q 3128 4100 2886 4159 
Q 2644 4219 2406 4219 
Q 1781 4219 1451 3797 
Q 1122 3375 1075 2522 
Q 1259 2794 1537 2939 
Q 1816 3084 2150 3084 
Q 2853 3084 3261 2657 
Q 3669 2231 3669 1497 
Q 3669 778 3244 343 
Q 2819 -91 2113 -91 
Q 1303 -91 875 529 
Q 447 1150 447 2328 
Q 447 3434 972 4092 
Q 1497 4750 2381 4750 
Q 2619 4750 2861 4703 
Q 3103 4656 3366 4563 
z
" transform="scale(0.015625)"/>
       </defs>
       <use xlink:href="#DejaVuSans-36"/>
       <use xlink:href="#DejaVuSans-30" x="63.623047"/>
      </g>
     </g>
    </g>
    <g id="xtick_5">
     <g id="line2d_5">
      <g>
       <use xlink:href="#ma9efda2691" x="247.584452" y="307.584" style="stroke: #000000; stroke-width: 0.8"/>
      </g>
     </g>
     <g id="text_5">
      <!-- 80 -->
      <g transform="translate(241.221952 322.182437)scale(0.1 -0.1)">
       <defs>
        <path id="DejaVuSans-38" d="M 2034 2216 
Q 1584 2216 1326 1975 
Q 1069 1734 1069 1313 
Q 1069 891 1326 650 
Q 1584 409 2034 409 
Q 2484 409 2743 651 
Q 3003 894 3003 1313 
Q 3003 1734 2745 1975 
Q 2488 2216 2034 2216 
z
M 1403 2484 
Q 997 2584 770 2862 
Q 544 3141 544 3541 
Q 544 4100 942 4425 
Q 1341 4750 2034 4750 
Q 2731 4750 3128 4425 
Q 3525 4100 3525 3541 
Q 3525 3141 3298 2862 
Q 3072 2584 2669 2484 
Q 3125 2378 3379 2068 
Q 3634 1759 3634 1313 
Q 3634 634 3220 271 
Q 2806 -91 2034 -91 
Q 1263 -91 848 271 
Q 434 634 434 1313 
Q 434 1759 690 2068 
Q 947 2378 1403 2484 
z
M 1172 3481 
Q 1172 3119 1398 2916 
Q 1625 2713 2034 2713 
Q 2441 2713 2670 2916 
Q 2900 3119 2900 3481 
Q 2900 3844 2670 4047 
Q 2441 4250 2034 4250 
Q 1625 4250 1398 4047 
Q 1172 3844 1172 3481 
z
" transform="scale(0.015625)"/>
       </defs>
       <use xlink:href="#DejaVuSans-38"/>
       <use xlink:href="#DejaVuSans-30" x="63.623047"/>
      </g>
     </g>
    </g>
    <g id="xtick_6">
     <g id="line2d_6">
      <g>
       <use xlink:href="#ma9efda2691" x="291.404376" y="307.584" style="stroke: #000000; stroke-width: 0.8"/>
      </g>
     </g>
     <g id="text_6">
      <!-- 100 -->
      <g transform="translate(281.860626 322.182437)scale(0.1 -0.1)">
       <defs>
        <path id="DejaVuSans-31" d="M 794 531 
L 1825 531 
L 1825 4091 
L 703 3866 
L 703 4441 
L 1819 4666 
L 2450 4666 
L 2450 531 
L 3481 531 
L 3481 0 
L 794 0 
L 794 531 
z
" transform="scale(0.015625)"/>
       </defs>
       <use xlink:href="#DejaVuSans-31"/>
       <use xlink:href="#DejaVuSans-30" x="63.623047"/>
       <use xlink:href="#DejaVuSans-30" x="127.246094"/>
      </g>
     </g>
    </g>
    <g id="xtick_7">
     <g id="line2d_7">
      <g>
       <use xlink:href="#ma9efda2691" x="335.224299" y="307.584" style="stroke: #000000; stroke-width: 0.8"/>
      </g>
     </g>
     <g id="text_7">
      <!-- 120 -->
      <g transform="translate(325.680549 322.182437)scale(0.1 -0.1)">
       <use xlink:href="#DejaVuSans-31"/>
       <use xlink:href="#DejaVuSans-32" x="63.623047"/>
       <use xlink:href="#DejaVuSans-30" x="127.246094"/>
      </g>
     </g>
    </g>
    <g id="xtick_8">
     <g id="line2d_8">
      <g>
       <use xlink:href="#ma9efda2691" x="379.044222" y="307.584" style="stroke: #000000; stroke-width: 0.8"/>
      </g>
     </g>
     <g id="text_8">
      <!-- 140 -->
      <g transform="translate(369.500472 322.182437)scale(0.1 -0.1)">
       <use xlink:href="#DejaVuSans-31"/>
       <use xlink:href="#DejaVuSans-34" x="63.623047"/>
       <use xlink:href="#DejaVuSans-30" x="127.246094"/>
      </g>
     </g>
    </g>
   </g>
   <g id="matplotlib.axis_2">
    <g id="ytick_1">
     <g id="line2d_9">
      <defs>
       <path id="mb078dc0e9a" d="M 0 0 
L -3.5 0 
" style="stroke: #000000; stroke-width: 0.8"/>
      </defs>
      <g>
       <use xlink:href="#mb078dc0e9a" x="57.6" y="277.305918" style="stroke: #000000; stroke-width: 0.8"/>
      </g>
     </g>
     <g id="text_9">
      <!-- 3 -->
      <g transform="translate(44.2375 281.105137)scale(0.1 -0.1)">
       <defs>
        <path id="DejaVuSans-33" d="M 2597 2516 
Q 3050 2419 3304 2112 
Q 3559 1806 3559 1356 
Q 3559 666 3084 287 
Q 2609 -91 1734 -91 
Q 1441 -91 1130 -33 
Q 819 25 488 141 
L 488 750 
Q 750 597 1062 519 
Q 1375 441 1716 441 
Q 2309 441 2620 675 
Q 2931 909 2931 1356 
Q 2931 1769 2642 2001 
Q 2353 2234 1838 2234 
L 1294 2234 
L 1294 2753 
L 1863 2753 
Q 2328 2753 2575 2939 
Q 2822 3125 2822 3475 
Q 2822 3834 2567 4026 
Q 2313 4219 1838 4219 
Q 1578 4219 1281 4162 
Q 984 4106 628 3988 
L 628 4550 
Q 988 4650 1302 4700 
Q 1616 4750 1894 4750 
Q 2613 4750 3031 4423 
Q 3450 4097 3450 3541 
Q 3450 3153 3228 2886 
Q 3006 2619 2597 2516 
z
" transform="scale(0.015625)"/>
       </defs>
       <use xlink:href="#DejaVuSans-33"/>
      </g>
     </g>
    </g>
    <g id="ytick_2">
     <g id="line2d_10">
      <g>
       <use xlink:href="#mb078dc0e9a" x="57.6" y="238.708629" style="stroke: #000000; stroke-width: 0.8"/>
      </g>
     </g>
     <g id="text_10">
      <!-- 4 -->
      <g transform="translate(44.2375 242.507848)scale(0.1 -0.1)">
       <use xlink:href="#DejaVuSans-34"/>
      </g>
     </g>
    </g>
    <g id="ytick_3">
     <g id="line2d_11">
      <g>
       <use xlink:href="#mb078dc0e9a" x="57.6" y="200.11134" style="stroke: #000000; stroke-width: 0.8"/>
      </g>
     </g>
     <g id="text_11">
      <!-- 5 -->
      <g transform="translate(44.2375 203.910559)scale(0.1 -0.1)">
       <defs>
        <path id="DejaVuSans-35" d="M 691 4666 
L 3169 4666 
L 3169 4134 
L 1269 4134 
L 1269 2991 
Q 1406 3038 1543 3061 
Q 1681 3084 1819 3084 
Q 2600 3084 3056 2656 
Q 3513 2228 3513 1497 
Q 3513 744 3044 326 
Q 2575 -91 1722 -91 
Q 1428 -91 1123 -41 
Q 819 9 494 109 
L 494 744 
Q 775 591 1075 516 
Q 1375 441 1709 441 
Q 2250 441 2565 725 
Q 2881 1009 2881 1497 
Q 2881 1984 2565 2268 
Q 2250 2553 1709 2553 
Q 1456 2553 1204 2497 
Q 953 2441 691 2322 
L 691 4666 
z
" transform="scale(0.015625)"/>
       </defs>
       <use xlink:href="#DejaVuSans-35"/>
      </g>
     </g>
    </g>
    <g id="ytick_4">
     <g id="line2d_12">
      <g>
       <use xlink:href="#mb078dc0e9a" x="57.6" y="161.514051" style="stroke: #000000; stroke-width: 0.8"/>
      </g>
     </g>
     <g id="text_12">
      <!-- 6 -->
      <g transform="translate(44.2375 165.31327)scale(0.1 -0.1)">
       <use xlink:href="#DejaVuSans-36"/>
      </g>
     </g>
    </g>
    <g id="ytick_5">
     <g id="line2d_13">
      <g>
       <use xlink:href="#mb078dc0e9a" x="57.6" y="122.916762" style="stroke: #000000; stroke-width: 0.8"/>
      </g>
     </g>
     <g id="text_13">
      <!-- 7 -->
      <g transform="translate(44.2375 126.715981)scale(0.1 -0.1)">
       <defs>
        <path id="DejaVuSans-37" d="M 525 4666 
L 3525 4666 
L 3525 4397 
L 1831 0 
L 1172 0 
L 2766 4134 
L 525 4134 
L 525 4666 
z
" transform="scale(0.015625)"/>
       </defs>
       <use xlink:href="#DejaVuSans-37"/>
      </g>
     </g>
    </g>
    <g id="ytick_6">
     <g id="line2d_14">
      <g>
       <use xlink:href="#mb078dc0e9a" x="57.6" y="84.319473" style="stroke: #000000; stroke-width: 0.8"/>
      </g>
     </g>
     <g id="text_14">
      <!-- 8 -->
      <g transform="translate(44.2375 88.118692)scale(0.1 -0.1)">
       <use xlink:href="#DejaVuSans-38"/>
      </g>
     </g>
    </g>
    <g id="ytick_7">
     <g id="line2d_15">
      <g>
       <use xlink:href="#mb078dc0e9a" x="57.6" y="45.722184" style="stroke: #000000; stroke-width: 0.8"/>
      </g>
     </g>
     <g id="text_15">
      <!-- 9 -->
      <g transform="translate(44.2375 49.521403)scale(0.1 -0.1)">
       <defs>
        <path id="DejaVuSans-39" d="M 703 97 
L 703 672 
Q 941 559 1184 500 
Q 1428 441 1663 441 
Q 2288 441 2617 861 
Q 2947 1281 2994 2138 
Q 2813 1869 2534 1725 
Q 2256 1581 1919 1581 
Q 1219 1581 811 2004 
Q 403 2428 403 3163 
Q 403 3881 828 4315 
Q 1253 4750 1959 4750 
Q 2769 4750 3195 4129 
Q 3622 3509 3622 2328 
Q 3622 1225 3098 567 
Q 2575 -91 1691 -91 
Q 1453 -91 1209 -44 
Q 966 3 703 97 
z
M 1959 2075 
Q 2384 2075 2632 2365 
Q 2881 2656 2881 3163 
Q 2881 3666 2632 3958 
Q 2384 4250 1959 4250 
Q 1534 4250 1286 3958 
Q 1038 3666 1038 3163 
Q 1038 2656 1286 2365 
Q 1534 2075 1959 2075 
z
" transform="scale(0.015625)"/>
       </defs>
       <use xlink:href="#DejaVuSans-39"/>
      </g>
     </g>
    </g>
   </g>
   <g id="line2d_16">
    <defs>
     <path id="m251a537ca9" d="M 0 3 
C 0.795609 3 1.55874 2.683901 2.12132 2.12132 
C 2.683901 1.55874 3 0.795609 3 0 
C 3 -0.795609 2.683901 -1.55874 2.12132 -2.12132 
C 1.55874 -2.683901 0.795609 -3 0 -3 
C -0.795609 -3 -1.55874 -2.683901 -2.12132 -2.12132 
C -2.683901 -1.55874 -3 -0.795609 -3 0 
C -3 0.795609 -2.683901 1.55874 -2.12132 2.12132 
C -1.55874 2.683901 -0.795609 3 0 3 
z
" style="stroke: #1f77b4"/>
    </defs>
    <g clip-path="url(#p12e397c412)">
     <use xlink:href="#m251a537ca9" x="73.832727" y="174.130721" style="fill: #1f77b4; stroke: #1f77b4"/>
     <use xlink:href="#m251a537ca9" x="75.209194" y="184.473517" style="fill: #1f77b4; stroke: #1f77b4"/>
     <use xlink:href="#m251a537ca9" x="109.282983" y="219.823184" style="fill: #1f77b4; stroke: #1f77b4"/>
     <use xlink:href="#m251a537ca9" x="105.826483" y="244.998837" style="fill: #1f77b4; stroke: #1f77b4"/>
     <use xlink:href="#m251a537ca9" x="111.689063" y="208.501677" style="fill: #1f77b4; stroke: #1f77b4"/>
     <use xlink:href="#m251a537ca9" x="100.197083" y="228.381892" style="fill: #1f77b4; stroke: #1f77b4"/>
     <use xlink:href="#m251a537ca9" x="103.787446" y="253.638" style="fill: #1f77b4; stroke: #1f77b4"/>
     <use xlink:href="#m251a537ca9" x="94.243368" y="184.993436" style="fill: #1f77b4; stroke: #1f77b4"/>
     <use xlink:href="#m251a537ca9" x="172.52435" y="160.130408" style="fill: #1f77b4; stroke: #1f77b4"/>
     <use xlink:href="#m251a537ca9" x="156.093203" y="164.961696" style="fill: #1f77b4; stroke: #1f77b4"/>
     <use xlink:href="#m251a537ca9" x="131.906801" y="201.795995" style="fill: #1f77b4; stroke: #1f77b4"/>
     <use xlink:href="#m251a537ca9" x="138.74167" y="233.724163" style="fill: #1f77b4; stroke: #1f77b4"/>
     <use xlink:href="#m251a537ca9" x="87.430982" y="188.470465" style="fill: #1f77b4; stroke: #1f77b4"/>
     <use xlink:href="#m251a537ca9" x="137.052138" y="234.291573" style="fill: #1f77b4; stroke: #1f77b4"/>
     <use xlink:href="#m251a537ca9" x="102.537621" y="244.028043" style="fill: #1f77b4; stroke: #1f77b4"/>
     <use xlink:href="#m251a537ca9" x="120.068177" y="209.121666" style="fill: #1f77b4; stroke: #1f77b4"/>
     <use xlink:href="#m251a537ca9" x="134.891738" y="215.650258" style="fill: #1f77b4; stroke: #1f77b4"/>
     <use xlink:href="#m251a537ca9" x="82.690295" y="208.388008" style="fill: #1f77b4; stroke: #1f77b4"/>
     <use xlink:href="#m251a537ca9" x="88.804598" y="189.509358" style="fill: #1f77b4; stroke: #1f77b4"/>
     <use xlink:href="#m251a537ca9" x="104.757493" y="253.873535" style="fill: #1f77b4; stroke: #1f77b4"/>
     <use xlink:href="#m251a537ca9" x="135.532749" y="219.492304" style="fill: #1f77b4; stroke: #1f77b4"/>
     <use xlink:href="#m251a537ca9" x="142.66426" y="216.836603" style="fill: #1f77b4; stroke: #1f77b4"/>
     <use xlink:href="#m251a537ca9" x="142.789328" y="223.713965" style="fill: #1f77b4; stroke: #1f77b4"/>
     <use xlink:href="#m251a537ca9" x="96.656444" y="196.390684" style="fill: #1f77b4; stroke: #1f77b4"/>
     <use xlink:href="#m251a537ca9" x="120.927145" y="208.981538" style="fill: #1f77b4; stroke: #1f77b4"/>
     <use xlink:href="#m251a537ca9" x="111.8518" y="207.350442" style="fill: #1f77b4; stroke: #1f77b4"/>
     <use xlink:href="#m251a537ca9" x="130.674136" y="205.209013" style="fill: #1f77b4; stroke: #1f77b4"/>
     <use xlink:href="#m251a537ca9" x="129.72193" y="199.407416" style="fill: #1f77b4; stroke: #1f77b4"/>
     <use xlink:href="#m251a537ca9" x="113.238196" y="204.802157" style="fill: #1f77b4; stroke: #1f77b4"/>
     <use xlink:href="#m251a537ca9" x="108.178956" y="230.026655" style="fill: #1f77b4; stroke: #1f77b4"/>
     <use xlink:href="#m251a537ca9" x="121.428768" y="210.50789" style="fill: #1f77b4; stroke: #1f77b4"/>
     <use xlink:href="#m251a537ca9" x="103.690019" y="254.290802" style="fill: #1f77b4; stroke: #1f77b4"/>
     <use xlink:href="#m251a537ca9" x="144.757367" y="206.770526" style="fill: #1f77b4; stroke: #1f77b4"/>
     <use xlink:href="#m251a537ca9" x="136.523889" y="228.636781" style="fill: #1f77b4; stroke: #1f77b4"/>
     <use xlink:href="#m251a537ca9" x="129.085829" y="206.126323" style="fill: #1f77b4; stroke: #1f77b4"/>
     <use xlink:href="#m251a537ca9" x="138.909797" y="233.390633" style="fill: #1f77b4; stroke: #1f77b4"/>
     <use xlink:href="#m251a537ca9" x="158.220979" y="156.503758" style="fill: #1f77b4; stroke: #1f77b4"/>
     <use xlink:href="#m251a537ca9" x="118.87249" y="208.909164" style="fill: #1f77b4; stroke: #1f77b4"/>
     <use xlink:href="#m251a537ca9" x="162.828058" y="152.314687" style="fill: #1f77b4; stroke: #1f77b4"/>
     <use xlink:href="#m251a537ca9" x="99.424576" y="221.690907" style="fill: #1f77b4; stroke: #1f77b4"/>
     <use xlink:href="#m251a537ca9" x="88.017579" y="186.823745" style="fill: #1f77b4; stroke: #1f77b4"/>
     <use xlink:href="#m251a537ca9" x="181.3835" y="122.712825" style="fill: #1f77b4; stroke: #1f77b4"/>
     <use xlink:href="#m251a537ca9" x="146.009073" y="201.083666" style="fill: #1f77b4; stroke: #1f77b4"/>
     <use xlink:href="#m251a537ca9" x="133.280546" y="204.977016" style="fill: #1f77b4; stroke: #1f77b4"/>
     <use xlink:href="#m251a537ca9" x="169.847112" y="141.579471" style="fill: #1f77b4; stroke: #1f77b4"/>
     <use xlink:href="#m251a537ca9" x="82.089039" y="204.586473" style="fill: #1f77b4; stroke: #1f77b4"/>
     <use xlink:href="#m251a537ca9" x="104.967265" y="250.635691" style="fill: #1f77b4; stroke: #1f77b4"/>
     <use xlink:href="#m251a537ca9" x="172.886914" y="166.104548" style="fill: #1f77b4; stroke: #1f77b4"/>
     <use xlink:href="#m251a537ca9" x="106.840012" y="239.772906" style="fill: #1f77b4; stroke: #1f77b4"/>
     <use xlink:href="#m251a537ca9" x="131.537194" y="204.123304" style="fill: #1f77b4; stroke: #1f77b4"/>
    </g>
   </g>
   <g id="line2d_17">
    <defs>
     <path id="m550f70e5e4" d="M 0 3 
C 0.795609 3 1.55874 2.683901 2.12132 2.12132 
C 2.683901 1.55874 3 0.795609 3 0 
C 3 -0.795609 2.683901 -1.55874 2.12132 -2.12132 
C 1.55874 -2.683901 0.795609 -3 0 -3 
C -0.795609 -3 -1.55874 -2.683901 -2.12132 -2.12132 
C -2.683901 -1.55874 -3 -0.795609 -3 0 
C -3 0.795609 -2.683901 1.55874 -2.12132 2.12132 
C -1.55874 2.683901 -0.795609 3 0 3 
z
" style="stroke: #ff7f0e"/>
    </defs>
    <g clip-path="url(#p12e397c412)">
     <use xlink:href="#m550f70e5e4" x="266.00072" y="113.532918" style="fill: #ff7f0e; stroke: #ff7f0e"/>
     <use xlink:href="#m550f70e5e4" x="275.814939" y="124.774883" style="fill: #ff7f0e; stroke: #ff7f0e"/>
     <use xlink:href="#m550f70e5e4" x="217.479052" y="150.897463" style="fill: #ff7f0e; stroke: #ff7f0e"/>
     <use xlink:href="#m550f70e5e4" x="213.341418" y="163.225725" style="fill: #ff7f0e; stroke: #ff7f0e"/>
     <use xlink:href="#m550f70e5e4" x="220.73007" y="146.564616" style="fill: #ff7f0e; stroke: #ff7f0e"/>
     <use xlink:href="#m550f70e5e4" x="239.356582" y="70.731825" style="fill: #ff7f0e; stroke: #ff7f0e"/>
     <use xlink:href="#m550f70e5e4" x="278.686265" y="134.841817" style="fill: #ff7f0e; stroke: #ff7f0e"/>
     <use xlink:href="#m550f70e5e4" x="257.086405" y="155.049596" style="fill: #ff7f0e; stroke: #ff7f0e"/>
     <use xlink:href="#m550f70e5e4" x="202.183903" y="203.48778" style="fill: #ff7f0e; stroke: #ff7f0e"/>
     <use xlink:href="#m550f70e5e4" x="186.102034" y="53.568" style="fill: #ff7f0e; stroke: #ff7f0e"/>
     <use xlink:href="#m550f70e5e4" x="281.781899" y="174.809294" style="fill: #ff7f0e; stroke: #ff7f0e"/>
     <use xlink:href="#m550f70e5e4" x="289.288388" y="232.456511" style="fill: #ff7f0e; stroke: #ff7f0e"/>
     <use xlink:href="#m550f70e5e4" x="240.841706" y="75.368744" style="fill: #ff7f0e; stroke: #ff7f0e"/>
     <use xlink:href="#m550f70e5e4" x="235.340138" y="100.759139" style="fill: #ff7f0e; stroke: #ff7f0e"/>
     <use xlink:href="#m550f70e5e4" x="237.016686" y="87.229703" style="fill: #ff7f0e; stroke: #ff7f0e"/>
     <use xlink:href="#m550f70e5e4" x="279.669475" y="145.58202" style="fill: #ff7f0e; stroke: #ff7f0e"/>
     <use xlink:href="#m550f70e5e4" x="281.816172" y="165.708931" style="fill: #ff7f0e; stroke: #ff7f0e"/>
     <use xlink:href="#m550f70e5e4" x="276.222846" y="118.546206" style="fill: #ff7f0e; stroke: #ff7f0e"/>
     <use xlink:href="#m550f70e5e4" x="200.504989" y="220.276042" style="fill: #ff7f0e; stroke: #ff7f0e"/>
     <use xlink:href="#m550f70e5e4" x="267.258087" y="122.754923" style="fill: #ff7f0e; stroke: #ff7f0e"/>
     <use xlink:href="#m550f70e5e4" x="220.96168" y="148.032699" style="fill: #ff7f0e; stroke: #ff7f0e"/>
     <use xlink:href="#m550f70e5e4" x="241.379989" y="77.833894" style="fill: #ff7f0e; stroke: #ff7f0e"/>
     <use xlink:href="#m550f70e5e4" x="216.595087" y="132.916505" style="fill: #ff7f0e; stroke: #ff7f0e"/>
     <use xlink:href="#m550f70e5e4" x="234.809815" y="96.96948" style="fill: #ff7f0e; stroke: #ff7f0e"/>
     <use xlink:href="#m550f70e5e4" x="226.864106" y="126.683902" style="fill: #ff7f0e; stroke: #ff7f0e"/>
     <use xlink:href="#m550f70e5e4" x="237.116715" y="83.201717" style="fill: #ff7f0e; stroke: #ff7f0e"/>
     <use xlink:href="#m550f70e5e4" x="199.989277" y="224.301061" style="fill: #ff7f0e; stroke: #ff7f0e"/>
     <use xlink:href="#m550f70e5e4" x="195.317611" y="221.734414" style="fill: #ff7f0e; stroke: #ff7f0e"/>
     <use xlink:href="#m550f70e5e4" x="259.272326" y="145.832941" style="fill: #ff7f0e; stroke: #ff7f0e"/>
     <use xlink:href="#m550f70e5e4" x="273.363583" y="140.440245" style="fill: #ff7f0e; stroke: #ff7f0e"/>
     <use xlink:href="#m550f70e5e4" x="228.628626" y="117.21557" style="fill: #ff7f0e; stroke: #ff7f0e"/>
     <use xlink:href="#m550f70e5e4" x="267.945933" y="138.328032" style="fill: #ff7f0e; stroke: #ff7f0e"/>
     <use xlink:href="#m550f70e5e4" x="252.531775" y="148.197125" style="fill: #ff7f0e; stroke: #ff7f0e"/>
     <use xlink:href="#m550f70e5e4" x="236.329241" y="91.844031" style="fill: #ff7f0e; stroke: #ff7f0e"/>
     <use xlink:href="#m550f70e5e4" x="211.926175" y="170.549263" style="fill: #ff7f0e; stroke: #ff7f0e"/>
     <use xlink:href="#m550f70e5e4" x="273.186312" y="139.046487" style="fill: #ff7f0e; stroke: #ff7f0e"/>
     <use xlink:href="#m550f70e5e4" x="233.852882" y="111.317046" style="fill: #ff7f0e; stroke: #ff7f0e"/>
     <use xlink:href="#m550f70e5e4" x="285.991859" y="218.151012" style="fill: #ff7f0e; stroke: #ff7f0e"/>
     <use xlink:href="#m550f70e5e4" x="210.038243" y="177.336204" style="fill: #ff7f0e; stroke: #ff7f0e"/>
     <use xlink:href="#m550f70e5e4" x="259.216229" y="146.188765" style="fill: #ff7f0e; stroke: #ff7f0e"/>
     <use xlink:href="#m550f70e5e4" x="196.377056" y="237.064718" style="fill: #ff7f0e; stroke: #ff7f0e"/>
     <use xlink:href="#m550f70e5e4" x="214.032012" y="159.479552" style="fill: #ff7f0e; stroke: #ff7f0e"/>
     <use xlink:href="#m550f70e5e4" x="191.630842" y="133.034792" style="fill: #ff7f0e; stroke: #ff7f0e"/>
     <use xlink:href="#m550f70e5e4" x="224.494103" y="138.521669" style="fill: #ff7f0e; stroke: #ff7f0e"/>
     <use xlink:href="#m550f70e5e4" x="275.968075" y="116.65236" style="fill: #ff7f0e; stroke: #ff7f0e"/>
     <use xlink:href="#m550f70e5e4" x="280.971438" y="162.633528" style="fill: #ff7f0e; stroke: #ff7f0e"/>
     <use xlink:href="#m550f70e5e4" x="285.360943" y="211.45351" style="fill: #ff7f0e; stroke: #ff7f0e"/>
     <use xlink:href="#m550f70e5e4" x="258.221848" y="144.072115" style="fill: #ff7f0e; stroke: #ff7f0e"/>
     <use xlink:href="#m550f70e5e4" x="214.145724" y="159.729873" style="fill: #ff7f0e; stroke: #ff7f0e"/>
     <use xlink:href="#m550f70e5e4" x="192.648702" y="162.08262" style="fill: #ff7f0e; stroke: #ff7f0e"/>
    </g>
   </g>
   <g id="line2d_18">
    <defs>
     <path id="m30c4b93dac" d="M 0 3 
C 0.795609 3 1.55874 2.683901 2.12132 2.12132 
C 2.683901 1.55874 3 0.795609 3 0 
C 3 -0.795609 2.683901 -1.55874 2.12132 -2.12132 
C 1.55874 -2.683901 0.795609 -3 0 -3 
C -0.795609 -3 -1.55874 -2.683901 -2.12132 -2.12132 
C -2.683901 -1.55874 -3 -0.795609 -3 0 
C -3 0.795609 -2.683901 1.55874 -2.12132 2.12132 
C -1.55874 2.683901 -0.795609 3 0 3 
z
" style="stroke: #2ca02c"/>
    </defs>
    <g clip-path="url(#p12e397c412)">
     <use xlink:href="#m30c4b93dac" x="322.329123" y="165.163879" style="fill: #2ca02c; stroke: #2ca02c"/>
     <use xlink:href="#m30c4b93dac" x="377.51201" y="239.771863" style="fill: #2ca02c; stroke: #2ca02c"/>
     <use xlink:href="#m30c4b93dac" x="361.500523" y="140.77365" style="fill: #2ca02c; stroke: #2ca02c"/>
     <use xlink:href="#m30c4b93dac" x="392.81077" y="161.003399" style="fill: #2ca02c; stroke: #2ca02c"/>
     <use xlink:href="#m30c4b93dac" x="367.46544" y="166.771684" style="fill: #2ca02c; stroke: #2ca02c"/>
     <use xlink:href="#m30c4b93dac" x="299.496083" y="295.488" style="fill: #2ca02c; stroke: #2ca02c"/>
     <use xlink:href="#m30c4b93dac" x="322.787449" y="165.797875" style="fill: #2ca02c; stroke: #2ca02c"/>
     <use xlink:href="#m30c4b93dac" x="345.012459" y="82.594282" style="fill: #2ca02c; stroke: #2ca02c"/>
     <use xlink:href="#m30c4b93dac" x="293.782682" y="251.191463" style="fill: #2ca02c; stroke: #2ca02c"/>
     <use xlink:href="#m30c4b93dac" x="393.75082" y="147.990275" style="fill: #2ca02c; stroke: #2ca02c"/>
     <use xlink:href="#m30c4b93dac" x="327.367272" y="200.977491" style="fill: #2ca02c; stroke: #2ca02c"/>
     <use xlink:href="#m30c4b93dac" x="344.693853" y="81.86832" style="fill: #2ca02c; stroke: #2ca02c"/>
     <use xlink:href="#m30c4b93dac" x="352.886355" y="149.812203" style="fill: #2ca02c; stroke: #2ca02c"/>
     <use xlink:href="#m30c4b93dac" x="291.792212" y="232.624261" style="fill: #2ca02c; stroke: #2ca02c"/>
     <use xlink:href="#m30c4b93dac" x="323.067328" y="173.213334" style="fill: #2ca02c; stroke: #2ca02c"/>
     <use xlink:href="#m30c4b93dac" x="327.656806" y="219.448005" style="fill: #2ca02c; stroke: #2ca02c"/>
     <use xlink:href="#m30c4b93dac" x="313.591257" y="159.546973" style="fill: #2ca02c; stroke: #2ca02c"/>
     <use xlink:href="#m30c4b93dac" x="389.190363" y="135.330674" style="fill: #2ca02c; stroke: #2ca02c"/>
     <use xlink:href="#m30c4b93dac" x="334.439253" y="208.313823" style="fill: #2ca02c; stroke: #2ca02c"/>
     <use xlink:href="#m30c4b93dac" x="345.971771" y="99.157854" style="fill: #2ca02c; stroke: #2ca02c"/>
     <use xlink:href="#m30c4b93dac" x="314.766165" y="160.156037" style="fill: #2ca02c; stroke: #2ca02c"/>
     <use xlink:href="#m30c4b93dac" x="370.848136" y="215.707737" style="fill: #2ca02c; stroke: #2ca02c"/>
     <use xlink:href="#m30c4b93dac" x="375.161366" y="239.67785" style="fill: #2ca02c; stroke: #2ca02c"/>
     <use xlink:href="#m30c4b93dac" x="386.884382" y="122.358721" style="fill: #2ca02c; stroke: #2ca02c"/>
     <use xlink:href="#m30c4b93dac" x="338.969882" y="102.256183" style="fill: #2ca02c; stroke: #2ca02c"/>
     <use xlink:href="#m30c4b93dac" x="362.959499" y="147.597425" style="fill: #2ca02c; stroke: #2ca02c"/>
     <use xlink:href="#m30c4b93dac" x="372.532015" y="241.970679" style="fill: #2ca02c; stroke: #2ca02c"/>
     <use xlink:href="#m30c4b93dac" x="352.544159" y="144.480546" style="fill: #2ca02c; stroke: #2ca02c"/>
     <use xlink:href="#m30c4b93dac" x="357.230777" y="144.204376" style="fill: #2ca02c; stroke: #2ca02c"/>
     <use xlink:href="#m30c4b93dac" x="292.829093" y="248.313948" style="fill: #2ca02c; stroke: #2ca02c"/>
     <use xlink:href="#m30c4b93dac" x="341.606859" y="95.746502" style="fill: #2ca02c; stroke: #2ca02c"/>
     <use xlink:href="#m30c4b93dac" x="348.162187" y="131.714542" style="fill: #2ca02c; stroke: #2ca02c"/>
     <use xlink:href="#m30c4b93dac" x="340.974604" y="100.73733" style="fill: #2ca02c; stroke: #2ca02c"/>
     <use xlink:href="#m30c4b93dac" x="343.744895" y="83.155086" style="fill: #2ca02c; stroke: #2ca02c"/>
     <use xlink:href="#m30c4b93dac" x="341.24008" y="97.321805" style="fill: #2ca02c; stroke: #2ca02c"/>
     <use xlink:href="#m30c4b93dac" x="343.343653" y="78.257914" style="fill: #2ca02c; stroke: #2ca02c"/>
     <use xlink:href="#m30c4b93dac" x="370.847546" y="220.741172" style="fill: #2ca02c; stroke: #2ca02c"/>
     <use xlink:href="#m30c4b93dac" x="317.601518" y="154.442783" style="fill: #2ca02c; stroke: #2ca02c"/>
     <use xlink:href="#m30c4b93dac" x="356.190322" y="144.340307" style="fill: #2ca02c; stroke: #2ca02c"/>
     <use xlink:href="#m30c4b93dac" x="306.812214" y="183.665494" style="fill: #2ca02c; stroke: #2ca02c"/>
     <use xlink:href="#m30c4b93dac" x="365.750176" y="156.968317" style="fill: #2ca02c; stroke: #2ca02c"/>
     <use xlink:href="#m30c4b93dac" x="355.50726" y="144.279883" style="fill: #2ca02c; stroke: #2ca02c"/>
     <use xlink:href="#m30c4b93dac" x="398.487273" y="167.269982" style="fill: #2ca02c; stroke: #2ca02c"/>
     <use xlink:href="#m30c4b93dac" x="326.304303" y="202.872257" style="fill: #2ca02c; stroke: #2ca02c"/>
     <use xlink:href="#m30c4b93dac" x="362.306402" y="140.732879" style="fill: #2ca02c; stroke: #2ca02c"/>
     <use xlink:href="#m30c4b93dac" x="361.128805" y="152.691571" style="fill: #2ca02c; stroke: #2ca02c"/>
     <use xlink:href="#m30c4b93dac" x="328.838651" y="225.808551" style="fill: #2ca02c; stroke: #2ca02c"/>
     <use xlink:href="#m30c4b93dac" x="353.565976" y="145.692227" style="fill: #2ca02c; stroke: #2ca02c"/>
     <use xlink:href="#m30c4b93dac" x="295.456176" y="283.798827" style="fill: #2ca02c; stroke: #2ca02c"/>
     <use xlink:href="#m30c4b93dac" x="380.515771" y="194.270407" style="fill: #2ca02c; stroke: #2ca02c"/>
    </g>
   </g>
   <g id="patch_3">
    <path d="M 57.6 307.584 
L 57.6 41.472 
" style="fill: none; stroke: #000000; stroke-width: 0.8; stroke-linejoin: miter; stroke-linecap: square"/>
   </g>
   <g id="patch_4">
    <path d="M 414.72 307.584 
L 414.72 41.472 
" style="fill: none; stroke: #000000; stroke-width: 0.8; stroke-linejoin: miter; stroke-linecap: square"/>
   </g>
   <g id="patch_5">
    <path d="M 57.6 307.584 
L 414.72 307.584 
" style="fill: none; stroke: #000000; stroke-width: 0.8; stroke-linejoin: miter; stroke-linecap: square"/>
   </g>
   <g id="patch_6">
    <path d="M 57.6 41.472 
L 414.72 41.472 
" style="fill: none; stroke: #000000; stroke-width: 0.8; stroke-linejoin: miter; stroke-linecap: square"/>
   </g>
   <g id="legend_1">
    <g id="patch_7">
     <path d="M 350.27 93.506375 
L 407.72 93.506375 
Q 409.72 93.506375 409.72 91.506375 
L 409.72 48.472 
Q 409.72 46.472 407.72 46.472 
L 350.27 46.472 
Q 348.27 46.472 348.27 48.472 
L 348.27 91.506375 
Q 348.27 93.506375 350.27 93.506375 
z
" style="fill: #ffffff; opacity: 0.8; stroke: #cccccc; stroke-linejoin: miter"/>
    </g>
    <g id="line2d_19">
     <g>
      <use xlink:href="#m251a537ca9" x="362.27" y="54.570438" style="fill: #1f77b4; stroke: #1f77b4"/>
     </g>
    </g>
    <g id="text_16">
     <!-- 4300 -->
     <g transform="translate(380.27 58.070438)scale(0.1 -0.1)">
      <use xlink:href="#DejaVuSans-34"/>
      <use xlink:href="#DejaVuSans-33" x="63.623047"/>
      <use xlink:href="#DejaVuSans-30" x="127.246094"/>
      <use xlink:href="#DejaVuSans-30" x="190.869141"/>
     </g>
    </g>
    <g id="line2d_20">
     <g>
      <use xlink:href="#m550f70e5e4" x="362.27" y="69.248563" style="fill: #ff7f0e; stroke: #ff7f0e"/>
     </g>
    </g>
    <g id="text_17">
     <!-- 5700 -->
     <g transform="translate(380.27 72.748563)scale(0.1 -0.1)">
      <use xlink:href="#DejaVuSans-35"/>
      <use xlink:href="#DejaVuSans-37" x="63.623047"/>
      <use xlink:href="#DejaVuSans-30" x="127.246094"/>
      <use xlink:href="#DejaVuSans-30" x="190.869141"/>
     </g>
    </g>
    <g id="line2d_21">
     <g>
      <use xlink:href="#m30c4b93dac" x="362.27" y="83.926688" style="fill: #2ca02c; stroke: #2ca02c"/>
     </g>
    </g>
    <g id="text_18">
     <!-- 6200 -->
     <g transform="translate(380.27 87.426688)scale(0.1 -0.1)">
      <use xlink:href="#DejaVuSans-36"/>
      <use xlink:href="#DejaVuSans-32" x="63.623047"/>
      <use xlink:href="#DejaVuSans-30" x="127.246094"/>
      <use xlink:href="#DejaVuSans-30" x="190.869141"/>
     </g>
    </g>
   </g>
  </g>
 </g>
 <defs>
  <clipPath id="p12e397c412">
   <rect x="57.6" y="41.472" width="357.12" height="266.112"/>
  </clipPath>
 </defs>
</svg>
