<?xml version="1.0" encoding="utf-8" standalone="no"?>
<!DOCTYPE svg PUBLIC "-//W3C//DTD SVG 1.1//EN"
  "http://www.w3.org/Graphics/SVG/1.1/DTD/svg11.dtd">
<!-- Created with matplotlib (https://matplotlib.org/) -->
<svg height="345.6pt" version="1.1" viewBox="0 0 460.8 345.6" width="460.8pt" xmlns="http://www.w3.org/2000/svg" xmlns:xlink="http://www.w3.org/1999/xlink">
 <metadata>
  <rdf:RDF xmlns:cc="http://creativecommons.org/ns#" xmlns:dc="http://purl.org/dc/elements/1.1/" xmlns:rdf="http://www.w3.org/1999/02/22-rdf-syntax-ns#">
   <cc:Work>
    <dc:type rdf:resource="http://purl.org/dc/dcmitype/StillImage"/>
    <dc:date>2022-01-31T15:30:30.564106</dc:date>
    <dc:format>image/svg+xml</dc:format>
    <dc:creator>
     <cc:Agent>
      <dc:title>Matplotlib v3.3.4, https://matplotlib.org/</dc:title>
     </cc:Agent>
    </dc:creator>
   </cc:Work>
  </rdf:RDF>
 </metadata>
 <defs>
  <style type="text/css">*{stroke-linecap:butt;stroke-linejoin:round;}</style>
 </defs>
 <g id="figure_1">
  <g id="patch_1">
   <path d="M 0 345.6 
L 460.8 345.6 
L 460.8 0 
L 0 0 
z
" style="fill:#ffffff;"/>
  </g>
  <g id="axes_1">
   <g id="patch_2">
    <path d="M 57.6 307.584 
L 414.72 307.584 
L 414.72 41.472 
L 57.6 41.472 
z
" style="fill:#ffffff;"/>
   </g>
   <g id="matplotlib.axis_1">
    <g id="xtick_1">
     <g id="line2d_1">
      <defs>
       <path d="M 0 0 
L 0 3.5 
" id="m9e4038d247" style="stroke:#000000;stroke-width:0.8;"/>
      </defs>
      <g>
       <use style="stroke:#000000;stroke-width:0.8;" x="73.832727" xlink:href="#m9e4038d247" y="307.584"/>
      </g>
     </g>
     <g id="text_1">
      <!-- $\mathdefault{10^{5}}$ -->
      <g transform="translate(65.032727 322.182437)scale(0.1 -0.1)">
       <defs>
        <path d="M 12.40625 8.296875 
L 28.515625 8.296875 
L 28.515625 63.921875 
L 10.984375 60.40625 
L 10.984375 69.390625 
L 28.421875 72.90625 
L 38.28125 72.90625 
L 38.28125 8.296875 
L 54.390625 8.296875 
L 54.390625 0 
L 12.40625 0 
z
" id="DejaVuSans-49"/>
        <path d="M 31.78125 66.40625 
Q 24.171875 66.40625 20.328125 58.90625 
Q 16.5 51.421875 16.5 36.375 
Q 16.5 21.390625 20.328125 13.890625 
Q 24.171875 6.390625 31.78125 6.390625 
Q 39.453125 6.390625 43.28125 13.890625 
Q 47.125 21.390625 47.125 36.375 
Q 47.125 51.421875 43.28125 58.90625 
Q 39.453125 66.40625 31.78125 66.40625 
z
M 31.78125 74.21875 
Q 44.046875 74.21875 50.515625 64.515625 
Q 56.984375 54.828125 56.984375 36.375 
Q 56.984375 17.96875 50.515625 8.265625 
Q 44.046875 -1.421875 31.78125 -1.421875 
Q 19.53125 -1.421875 13.0625 8.265625 
Q 6.59375 17.96875 6.59375 36.375 
Q 6.59375 54.828125 13.0625 64.515625 
Q 19.53125 74.21875 31.78125 74.21875 
z
" id="DejaVuSans-48"/>
        <path d="M 10.796875 72.90625 
L 49.515625 72.90625 
L 49.515625 64.59375 
L 19.828125 64.59375 
L 19.828125 46.734375 
Q 21.96875 47.46875 24.109375 47.828125 
Q 26.265625 48.1875 28.421875 48.1875 
Q 40.625 48.1875 47.75 41.5 
Q 54.890625 34.8125 54.890625 23.390625 
Q 54.890625 11.625 47.5625 5.09375 
Q 40.234375 -1.421875 26.90625 -1.421875 
Q 22.3125 -1.421875 17.546875 -0.640625 
Q 12.796875 0.140625 7.71875 1.703125 
L 7.71875 11.625 
Q 12.109375 9.234375 16.796875 8.0625 
Q 21.484375 6.890625 26.703125 6.890625 
Q 35.15625 6.890625 40.078125 11.328125 
Q 45.015625 15.765625 45.015625 23.390625 
Q 45.015625 31 40.078125 35.4375 
Q 35.15625 39.890625 26.703125 39.890625 
Q 22.75 39.890625 18.8125 39.015625 
Q 14.890625 38.140625 10.796875 36.28125 
z
" id="DejaVuSans-53"/>
       </defs>
       <use transform="translate(0 0.684375)" xlink:href="#DejaVuSans-49"/>
       <use transform="translate(63.623047 0.684375)" xlink:href="#DejaVuSans-48"/>
       <use transform="translate(128.203125 38.965625)scale(0.7)" xlink:href="#DejaVuSans-53"/>
      </g>
     </g>
    </g>
    <g id="xtick_2">
     <g id="line2d_2">
      <g>
       <use style="stroke:#000000;stroke-width:0.8;" x="138.763636" xlink:href="#m9e4038d247" y="307.584"/>
      </g>
     </g>
     <g id="text_2">
      <!-- $\mathdefault{10^{6}}$ -->
      <g transform="translate(129.963636 322.182437)scale(0.1 -0.1)">
       <defs>
        <path d="M 33.015625 40.375 
Q 26.375 40.375 22.484375 35.828125 
Q 18.609375 31.296875 18.609375 23.390625 
Q 18.609375 15.53125 22.484375 10.953125 
Q 26.375 6.390625 33.015625 6.390625 
Q 39.65625 6.390625 43.53125 10.953125 
Q 47.40625 15.53125 47.40625 23.390625 
Q 47.40625 31.296875 43.53125 35.828125 
Q 39.65625 40.375 33.015625 40.375 
z
M 52.59375 71.296875 
L 52.59375 62.3125 
Q 48.875 64.0625 45.09375 64.984375 
Q 41.3125 65.921875 37.59375 65.921875 
Q 27.828125 65.921875 22.671875 59.328125 
Q 17.53125 52.734375 16.796875 39.40625 
Q 19.671875 43.65625 24.015625 45.921875 
Q 28.375 48.1875 33.59375 48.1875 
Q 44.578125 48.1875 50.953125 41.515625 
Q 57.328125 34.859375 57.328125 23.390625 
Q 57.328125 12.15625 50.6875 5.359375 
Q 44.046875 -1.421875 33.015625 -1.421875 
Q 20.359375 -1.421875 13.671875 8.265625 
Q 6.984375 17.96875 6.984375 36.375 
Q 6.984375 53.65625 15.1875 63.9375 
Q 23.390625 74.21875 37.203125 74.21875 
Q 40.921875 74.21875 44.703125 73.484375 
Q 48.484375 72.75 52.59375 71.296875 
z
" id="DejaVuSans-54"/>
       </defs>
       <use transform="translate(0 0.765625)" xlink:href="#DejaVuSans-49"/>
       <use transform="translate(63.623047 0.765625)" xlink:href="#DejaVuSans-48"/>
       <use transform="translate(128.203125 39.046875)scale(0.7)" xlink:href="#DejaVuSans-54"/>
      </g>
     </g>
    </g>
    <g id="xtick_3">
     <g id="line2d_3">
      <g>
       <use style="stroke:#000000;stroke-width:0.8;" x="203.694545" xlink:href="#m9e4038d247" y="307.584"/>
      </g>
     </g>
     <g id="text_3">
      <!-- $\mathdefault{10^{7}}$ -->
      <g transform="translate(194.894545 322.182437)scale(0.1 -0.1)">
       <defs>
        <path d="M 8.203125 72.90625 
L 55.078125 72.90625 
L 55.078125 68.703125 
L 28.609375 0 
L 18.3125 0 
L 43.21875 64.59375 
L 8.203125 64.59375 
z
" id="DejaVuSans-55"/>
       </defs>
       <use transform="translate(0 0.684375)" xlink:href="#DejaVuSans-49"/>
       <use transform="translate(63.623047 0.684375)" xlink:href="#DejaVuSans-48"/>
       <use transform="translate(128.203125 38.965625)scale(0.7)" xlink:href="#DejaVuSans-55"/>
      </g>
     </g>
    </g>
    <g id="xtick_4">
     <g id="line2d_4">
      <g>
       <use style="stroke:#000000;stroke-width:0.8;" x="268.625455" xlink:href="#m9e4038d247" y="307.584"/>
      </g>
     </g>
     <g id="text_4">
      <!-- $\mathdefault{10^{8}}$ -->
      <g transform="translate(259.825455 322.182437)scale(0.1 -0.1)">
       <defs>
        <path d="M 31.78125 34.625 
Q 24.75 34.625 20.71875 30.859375 
Q 16.703125 27.09375 16.703125 20.515625 
Q 16.703125 13.921875 20.71875 10.15625 
Q 24.75 6.390625 31.78125 6.390625 
Q 38.8125 6.390625 42.859375 10.171875 
Q 46.921875 13.96875 46.921875 20.515625 
Q 46.921875 27.09375 42.890625 30.859375 
Q 38.875 34.625 31.78125 34.625 
z
M 21.921875 38.8125 
Q 15.578125 40.375 12.03125 44.71875 
Q 8.5 49.078125 8.5 55.328125 
Q 8.5 64.0625 14.71875 69.140625 
Q 20.953125 74.21875 31.78125 74.21875 
Q 42.671875 74.21875 48.875 69.140625 
Q 55.078125 64.0625 55.078125 55.328125 
Q 55.078125 49.078125 51.53125 44.71875 
Q 48 40.375 41.703125 38.8125 
Q 48.828125 37.15625 52.796875 32.3125 
Q 56.78125 27.484375 56.78125 20.515625 
Q 56.78125 9.90625 50.3125 4.234375 
Q 43.84375 -1.421875 31.78125 -1.421875 
Q 19.734375 -1.421875 13.25 4.234375 
Q 6.78125 9.90625 6.78125 20.515625 
Q 6.78125 27.484375 10.78125 32.3125 
Q 14.796875 37.15625 21.921875 38.8125 
z
M 18.3125 54.390625 
Q 18.3125 48.734375 21.84375 45.5625 
Q 25.390625 42.390625 31.78125 42.390625 
Q 38.140625 42.390625 41.71875 45.5625 
Q 45.3125 48.734375 45.3125 54.390625 
Q 45.3125 60.0625 41.71875 63.234375 
Q 38.140625 66.40625 31.78125 66.40625 
Q 25.390625 66.40625 21.84375 63.234375 
Q 18.3125 60.0625 18.3125 54.390625 
z
" id="DejaVuSans-56"/>
       </defs>
       <use transform="translate(0 0.765625)" xlink:href="#DejaVuSans-49"/>
       <use transform="translate(63.623047 0.765625)" xlink:href="#DejaVuSans-48"/>
       <use transform="translate(128.203125 39.046875)scale(0.7)" xlink:href="#DejaVuSans-56"/>
      </g>
     </g>
    </g>
    <g id="xtick_5">
     <g id="line2d_5">
      <g>
       <use style="stroke:#000000;stroke-width:0.8;" x="333.556364" xlink:href="#m9e4038d247" y="307.584"/>
      </g>
     </g>
     <g id="text_5">
      <!-- $\mathdefault{10^{9}}$ -->
      <g transform="translate(324.756364 322.182437)scale(0.1 -0.1)">
       <defs>
        <path d="M 10.984375 1.515625 
L 10.984375 10.5 
Q 14.703125 8.734375 18.5 7.8125 
Q 22.3125 6.890625 25.984375 6.890625 
Q 35.75 6.890625 40.890625 13.453125 
Q 46.046875 20.015625 46.78125 33.40625 
Q 43.953125 29.203125 39.59375 26.953125 
Q 35.25 24.703125 29.984375 24.703125 
Q 19.046875 24.703125 12.671875 31.3125 
Q 6.296875 37.9375 6.296875 49.421875 
Q 6.296875 60.640625 12.9375 67.421875 
Q 19.578125 74.21875 30.609375 74.21875 
Q 43.265625 74.21875 49.921875 64.515625 
Q 56.59375 54.828125 56.59375 36.375 
Q 56.59375 19.140625 48.40625 8.859375 
Q 40.234375 -1.421875 26.421875 -1.421875 
Q 22.703125 -1.421875 18.890625 -0.6875 
Q 15.09375 0.046875 10.984375 1.515625 
z
M 30.609375 32.421875 
Q 37.25 32.421875 41.125 36.953125 
Q 45.015625 41.5 45.015625 49.421875 
Q 45.015625 57.28125 41.125 61.84375 
Q 37.25 66.40625 30.609375 66.40625 
Q 23.96875 66.40625 20.09375 61.84375 
Q 16.21875 57.28125 16.21875 49.421875 
Q 16.21875 41.5 20.09375 36.953125 
Q 23.96875 32.421875 30.609375 32.421875 
z
" id="DejaVuSans-57"/>
       </defs>
       <use transform="translate(0 0.765625)" xlink:href="#DejaVuSans-49"/>
       <use transform="translate(63.623047 0.765625)" xlink:href="#DejaVuSans-48"/>
       <use transform="translate(128.203125 39.046875)scale(0.7)" xlink:href="#DejaVuSans-57"/>
      </g>
     </g>
    </g>
    <g id="xtick_6">
     <g id="line2d_6">
      <g>
       <use style="stroke:#000000;stroke-width:0.8;" x="398.487273" xlink:href="#m9e4038d247" y="307.584"/>
      </g>
     </g>
     <g id="text_6">
      <!-- $\mathdefault{10^{10}}$ -->
      <g transform="translate(387.437273 322.182437)scale(0.1 -0.1)">
       <use transform="translate(0 0.765625)" xlink:href="#DejaVuSans-49"/>
       <use transform="translate(63.623047 0.765625)" xlink:href="#DejaVuSans-48"/>
       <use transform="translate(128.203125 39.046875)scale(0.7)" xlink:href="#DejaVuSans-49"/>
       <use transform="translate(172.739258 39.046875)scale(0.7)" xlink:href="#DejaVuSans-48"/>
      </g>
     </g>
    </g>
    <g id="xtick_7">
     <g id="line2d_7">
      <defs>
       <path d="M 0 0 
L 0 2 
" id="mcbae532623" style="stroke:#000000;stroke-width:0.6;"/>
      </defs>
      <g>
       <use style="stroke:#000000;stroke-width:0.6;" x="59.427886" xlink:href="#mcbae532623" y="307.584"/>
      </g>
     </g>
    </g>
    <g id="xtick_8">
     <g id="line2d_8">
      <g>
       <use style="stroke:#000000;stroke-width:0.6;" x="63.774802" xlink:href="#mcbae532623" y="307.584"/>
      </g>
     </g>
    </g>
    <g id="xtick_9">
     <g id="line2d_9">
      <g>
       <use style="stroke:#000000;stroke-width:0.6;" x="67.540272" xlink:href="#mcbae532623" y="307.584"/>
      </g>
     </g>
    </g>
    <g id="xtick_10">
     <g id="line2d_10">
      <g>
       <use style="stroke:#000000;stroke-width:0.6;" x="70.861652" xlink:href="#mcbae532623" y="307.584"/>
      </g>
     </g>
    </g>
    <g id="xtick_11">
     <g id="line2d_11">
      <g>
       <use style="stroke:#000000;stroke-width:0.6;" x="93.378879" xlink:href="#mcbae532623" y="307.584"/>
      </g>
     </g>
    </g>
    <g id="xtick_12">
     <g id="line2d_12">
      <g>
       <use style="stroke:#000000;stroke-width:0.6;" x="104.812644" xlink:href="#mcbae532623" y="307.584"/>
      </g>
     </g>
    </g>
    <g id="xtick_13">
     <g id="line2d_13">
      <g>
       <use style="stroke:#000000;stroke-width:0.6;" x="112.92503" xlink:href="#mcbae532623" y="307.584"/>
      </g>
     </g>
    </g>
    <g id="xtick_14">
     <g id="line2d_14">
      <g>
       <use style="stroke:#000000;stroke-width:0.6;" x="119.217485" xlink:href="#mcbae532623" y="307.584"/>
      </g>
     </g>
    </g>
    <g id="xtick_15">
     <g id="line2d_15">
      <g>
       <use style="stroke:#000000;stroke-width:0.6;" x="124.358795" xlink:href="#mcbae532623" y="307.584"/>
      </g>
     </g>
    </g>
    <g id="xtick_16">
     <g id="line2d_16">
      <g>
       <use style="stroke:#000000;stroke-width:0.6;" x="128.705711" xlink:href="#mcbae532623" y="307.584"/>
      </g>
     </g>
    </g>
    <g id="xtick_17">
     <g id="line2d_17">
      <g>
       <use style="stroke:#000000;stroke-width:0.6;" x="132.471181" xlink:href="#mcbae532623" y="307.584"/>
      </g>
     </g>
    </g>
    <g id="xtick_18">
     <g id="line2d_18">
      <g>
       <use style="stroke:#000000;stroke-width:0.6;" x="135.792561" xlink:href="#mcbae532623" y="307.584"/>
      </g>
     </g>
    </g>
    <g id="xtick_19">
     <g id="line2d_19">
      <g>
       <use style="stroke:#000000;stroke-width:0.6;" x="158.309788" xlink:href="#mcbae532623" y="307.584"/>
      </g>
     </g>
    </g>
    <g id="xtick_20">
     <g id="line2d_20">
      <g>
       <use style="stroke:#000000;stroke-width:0.6;" x="169.743553" xlink:href="#mcbae532623" y="307.584"/>
      </g>
     </g>
    </g>
    <g id="xtick_21">
     <g id="line2d_21">
      <g>
       <use style="stroke:#000000;stroke-width:0.6;" x="177.855939" xlink:href="#mcbae532623" y="307.584"/>
      </g>
     </g>
    </g>
    <g id="xtick_22">
     <g id="line2d_22">
      <g>
       <use style="stroke:#000000;stroke-width:0.6;" x="184.148394" xlink:href="#mcbae532623" y="307.584"/>
      </g>
     </g>
    </g>
    <g id="xtick_23">
     <g id="line2d_23">
      <g>
       <use style="stroke:#000000;stroke-width:0.6;" x="189.289704" xlink:href="#mcbae532623" y="307.584"/>
      </g>
     </g>
    </g>
    <g id="xtick_24">
     <g id="line2d_24">
      <g>
       <use style="stroke:#000000;stroke-width:0.6;" x="193.63662" xlink:href="#mcbae532623" y="307.584"/>
      </g>
     </g>
    </g>
    <g id="xtick_25">
     <g id="line2d_25">
      <g>
       <use style="stroke:#000000;stroke-width:0.6;" x="197.40209" xlink:href="#mcbae532623" y="307.584"/>
      </g>
     </g>
    </g>
    <g id="xtick_26">
     <g id="line2d_26">
      <g>
       <use style="stroke:#000000;stroke-width:0.6;" x="200.72347" xlink:href="#mcbae532623" y="307.584"/>
      </g>
     </g>
    </g>
    <g id="xtick_27">
     <g id="line2d_27">
      <g>
       <use style="stroke:#000000;stroke-width:0.6;" x="223.240697" xlink:href="#mcbae532623" y="307.584"/>
      </g>
     </g>
    </g>
    <g id="xtick_28">
     <g id="line2d_28">
      <g>
       <use style="stroke:#000000;stroke-width:0.6;" x="234.674462" xlink:href="#mcbae532623" y="307.584"/>
      </g>
     </g>
    </g>
    <g id="xtick_29">
     <g id="line2d_29">
      <g>
       <use style="stroke:#000000;stroke-width:0.6;" x="242.786848" xlink:href="#mcbae532623" y="307.584"/>
      </g>
     </g>
    </g>
    <g id="xtick_30">
     <g id="line2d_30">
      <g>
       <use style="stroke:#000000;stroke-width:0.6;" x="249.079303" xlink:href="#mcbae532623" y="307.584"/>
      </g>
     </g>
    </g>
    <g id="xtick_31">
     <g id="line2d_31">
      <g>
       <use style="stroke:#000000;stroke-width:0.6;" x="254.220614" xlink:href="#mcbae532623" y="307.584"/>
      </g>
     </g>
    </g>
    <g id="xtick_32">
     <g id="line2d_32">
      <g>
       <use style="stroke:#000000;stroke-width:0.6;" x="258.567529" xlink:href="#mcbae532623" y="307.584"/>
      </g>
     </g>
    </g>
    <g id="xtick_33">
     <g id="line2d_33">
      <g>
       <use style="stroke:#000000;stroke-width:0.6;" x="262.332999" xlink:href="#mcbae532623" y="307.584"/>
      </g>
     </g>
    </g>
    <g id="xtick_34">
     <g id="line2d_34">
      <g>
       <use style="stroke:#000000;stroke-width:0.6;" x="265.654379" xlink:href="#mcbae532623" y="307.584"/>
      </g>
     </g>
    </g>
    <g id="xtick_35">
     <g id="line2d_35">
      <g>
       <use style="stroke:#000000;stroke-width:0.6;" x="288.171606" xlink:href="#mcbae532623" y="307.584"/>
      </g>
     </g>
    </g>
    <g id="xtick_36">
     <g id="line2d_36">
      <g>
       <use style="stroke:#000000;stroke-width:0.6;" x="299.605371" xlink:href="#mcbae532623" y="307.584"/>
      </g>
     </g>
    </g>
    <g id="xtick_37">
     <g id="line2d_37">
      <g>
       <use style="stroke:#000000;stroke-width:0.6;" x="307.717757" xlink:href="#mcbae532623" y="307.584"/>
      </g>
     </g>
    </g>
    <g id="xtick_38">
     <g id="line2d_38">
      <g>
       <use style="stroke:#000000;stroke-width:0.6;" x="314.010212" xlink:href="#mcbae532623" y="307.584"/>
      </g>
     </g>
    </g>
    <g id="xtick_39">
     <g id="line2d_39">
      <g>
       <use style="stroke:#000000;stroke-width:0.6;" x="319.151523" xlink:href="#mcbae532623" y="307.584"/>
      </g>
     </g>
    </g>
    <g id="xtick_40">
     <g id="line2d_40">
      <g>
       <use style="stroke:#000000;stroke-width:0.6;" x="323.498439" xlink:href="#mcbae532623" y="307.584"/>
      </g>
     </g>
    </g>
    <g id="xtick_41">
     <g id="line2d_41">
      <g>
       <use style="stroke:#000000;stroke-width:0.6;" x="327.263908" xlink:href="#mcbae532623" y="307.584"/>
      </g>
     </g>
    </g>
    <g id="xtick_42">
     <g id="line2d_42">
      <g>
       <use style="stroke:#000000;stroke-width:0.6;" x="330.585288" xlink:href="#mcbae532623" y="307.584"/>
      </g>
     </g>
    </g>
    <g id="xtick_43">
     <g id="line2d_43">
      <g>
       <use style="stroke:#000000;stroke-width:0.6;" x="353.102515" xlink:href="#mcbae532623" y="307.584"/>
      </g>
     </g>
    </g>
    <g id="xtick_44">
     <g id="line2d_44">
      <g>
       <use style="stroke:#000000;stroke-width:0.6;" x="364.53628" xlink:href="#mcbae532623" y="307.584"/>
      </g>
     </g>
    </g>
    <g id="xtick_45">
     <g id="line2d_45">
      <g>
       <use style="stroke:#000000;stroke-width:0.6;" x="372.648666" xlink:href="#mcbae532623" y="307.584"/>
      </g>
     </g>
    </g>
    <g id="xtick_46">
     <g id="line2d_46">
      <g>
       <use style="stroke:#000000;stroke-width:0.6;" x="378.941121" xlink:href="#mcbae532623" y="307.584"/>
      </g>
     </g>
    </g>
    <g id="xtick_47">
     <g id="line2d_47">
      <g>
       <use style="stroke:#000000;stroke-width:0.6;" x="384.082432" xlink:href="#mcbae532623" y="307.584"/>
      </g>
     </g>
    </g>
    <g id="xtick_48">
     <g id="line2d_48">
      <g>
       <use style="stroke:#000000;stroke-width:0.6;" x="388.429348" xlink:href="#mcbae532623" y="307.584"/>
      </g>
     </g>
    </g>
    <g id="xtick_49">
     <g id="line2d_49">
      <g>
       <use style="stroke:#000000;stroke-width:0.6;" x="392.194817" xlink:href="#mcbae532623" y="307.584"/>
      </g>
     </g>
    </g>
    <g id="xtick_50">
     <g id="line2d_50">
      <g>
       <use style="stroke:#000000;stroke-width:0.6;" x="395.516197" xlink:href="#mcbae532623" y="307.584"/>
      </g>
     </g>
    </g>
   </g>
   <g id="matplotlib.axis_2">
    <g id="ytick_1">
     <g id="line2d_51">
      <defs>
       <path d="M 0 0 
L -3.5 0 
" id="ma229f2fbdb" style="stroke:#000000;stroke-width:0.8;"/>
      </defs>
      <g>
       <use style="stroke:#000000;stroke-width:0.8;" x="57.6" xlink:href="#ma229f2fbdb" y="295.488"/>
      </g>
     </g>
     <g id="text_7">
      <!-- 0.00 -->
      <g transform="translate(28.334375 299.287219)scale(0.1 -0.1)">
       <defs>
        <path d="M 10.6875 12.40625 
L 21 12.40625 
L 21 0 
L 10.6875 0 
z
" id="DejaVuSans-46"/>
       </defs>
       <use xlink:href="#DejaVuSans-48"/>
       <use x="63.623047" xlink:href="#DejaVuSans-46"/>
       <use x="95.410156" xlink:href="#DejaVuSans-48"/>
       <use x="159.033203" xlink:href="#DejaVuSans-48"/>
      </g>
     </g>
    </g>
    <g id="ytick_2">
     <g id="line2d_52">
      <g>
       <use style="stroke:#000000;stroke-width:0.8;" x="57.6" xlink:href="#ma229f2fbdb" y="260.81155"/>
      </g>
     </g>
     <g id="text_8">
      <!-- 0.05 -->
      <g transform="translate(28.334375 264.610769)scale(0.1 -0.1)">
       <use xlink:href="#DejaVuSans-48"/>
       <use x="63.623047" xlink:href="#DejaVuSans-46"/>
       <use x="95.410156" xlink:href="#DejaVuSans-48"/>
       <use x="159.033203" xlink:href="#DejaVuSans-53"/>
      </g>
     </g>
    </g>
    <g id="ytick_3">
     <g id="line2d_53">
      <g>
       <use style="stroke:#000000;stroke-width:0.8;" x="57.6" xlink:href="#ma229f2fbdb" y="226.1351"/>
      </g>
     </g>
     <g id="text_9">
      <!-- 0.10 -->
      <g transform="translate(28.334375 229.934319)scale(0.1 -0.1)">
       <use xlink:href="#DejaVuSans-48"/>
       <use x="63.623047" xlink:href="#DejaVuSans-46"/>
       <use x="95.410156" xlink:href="#DejaVuSans-49"/>
       <use x="159.033203" xlink:href="#DejaVuSans-48"/>
      </g>
     </g>
    </g>
    <g id="ytick_4">
     <g id="line2d_54">
      <g>
       <use style="stroke:#000000;stroke-width:0.8;" x="57.6" xlink:href="#ma229f2fbdb" y="191.45865"/>
      </g>
     </g>
     <g id="text_10">
      <!-- 0.15 -->
      <g transform="translate(28.334375 195.257868)scale(0.1 -0.1)">
       <use xlink:href="#DejaVuSans-48"/>
       <use x="63.623047" xlink:href="#DejaVuSans-46"/>
       <use x="95.410156" xlink:href="#DejaVuSans-49"/>
       <use x="159.033203" xlink:href="#DejaVuSans-53"/>
      </g>
     </g>
    </g>
    <g id="ytick_5">
     <g id="line2d_55">
      <g>
       <use style="stroke:#000000;stroke-width:0.8;" x="57.6" xlink:href="#ma229f2fbdb" y="156.7822"/>
      </g>
     </g>
     <g id="text_11">
      <!-- 0.20 -->
      <g transform="translate(28.334375 160.581418)scale(0.1 -0.1)">
       <defs>
        <path d="M 19.1875 8.296875 
L 53.609375 8.296875 
L 53.609375 0 
L 7.328125 0 
L 7.328125 8.296875 
Q 12.9375 14.109375 22.625 23.890625 
Q 32.328125 33.6875 34.8125 36.53125 
Q 39.546875 41.84375 41.421875 45.53125 
Q 43.3125 49.21875 43.3125 52.78125 
Q 43.3125 58.59375 39.234375 62.25 
Q 35.15625 65.921875 28.609375 65.921875 
Q 23.96875 65.921875 18.8125 64.3125 
Q 13.671875 62.703125 7.8125 59.421875 
L 7.8125 69.390625 
Q 13.765625 71.78125 18.9375 73 
Q 24.125 74.21875 28.421875 74.21875 
Q 39.75 74.21875 46.484375 68.546875 
Q 53.21875 62.890625 53.21875 53.421875 
Q 53.21875 48.921875 51.53125 44.890625 
Q 49.859375 40.875 45.40625 35.40625 
Q 44.1875 33.984375 37.640625 27.21875 
Q 31.109375 20.453125 19.1875 8.296875 
z
" id="DejaVuSans-50"/>
       </defs>
       <use xlink:href="#DejaVuSans-48"/>
       <use x="63.623047" xlink:href="#DejaVuSans-46"/>
       <use x="95.410156" xlink:href="#DejaVuSans-50"/>
       <use x="159.033203" xlink:href="#DejaVuSans-48"/>
      </g>
     </g>
    </g>
    <g id="ytick_6">
     <g id="line2d_56">
      <g>
       <use style="stroke:#000000;stroke-width:0.8;" x="57.6" xlink:href="#ma229f2fbdb" y="122.10575"/>
      </g>
     </g>
     <g id="text_12">
      <!-- 0.25 -->
      <g transform="translate(28.334375 125.904968)scale(0.1 -0.1)">
       <use xlink:href="#DejaVuSans-48"/>
       <use x="63.623047" xlink:href="#DejaVuSans-46"/>
       <use x="95.410156" xlink:href="#DejaVuSans-50"/>
       <use x="159.033203" xlink:href="#DejaVuSans-53"/>
      </g>
     </g>
    </g>
    <g id="ytick_7">
     <g id="line2d_57">
      <g>
       <use style="stroke:#000000;stroke-width:0.8;" x="57.6" xlink:href="#ma229f2fbdb" y="87.429299"/>
      </g>
     </g>
     <g id="text_13">
      <!-- 0.30 -->
      <g transform="translate(28.334375 91.228518)scale(0.1 -0.1)">
       <defs>
        <path d="M 40.578125 39.3125 
Q 47.65625 37.796875 51.625 33 
Q 55.609375 28.21875 55.609375 21.1875 
Q 55.609375 10.40625 48.1875 4.484375 
Q 40.765625 -1.421875 27.09375 -1.421875 
Q 22.515625 -1.421875 17.65625 -0.515625 
Q 12.796875 0.390625 7.625 2.203125 
L 7.625 11.71875 
Q 11.71875 9.328125 16.59375 8.109375 
Q 21.484375 6.890625 26.8125 6.890625 
Q 36.078125 6.890625 40.9375 10.546875 
Q 45.796875 14.203125 45.796875 21.1875 
Q 45.796875 27.640625 41.28125 31.265625 
Q 36.765625 34.90625 28.71875 34.90625 
L 20.21875 34.90625 
L 20.21875 43.015625 
L 29.109375 43.015625 
Q 36.375 43.015625 40.234375 45.921875 
Q 44.09375 48.828125 44.09375 54.296875 
Q 44.09375 59.90625 40.109375 62.90625 
Q 36.140625 65.921875 28.71875 65.921875 
Q 24.65625 65.921875 20.015625 65.03125 
Q 15.375 64.15625 9.8125 62.3125 
L 9.8125 71.09375 
Q 15.4375 72.65625 20.34375 73.4375 
Q 25.25 74.21875 29.59375 74.21875 
Q 40.828125 74.21875 47.359375 69.109375 
Q 53.90625 64.015625 53.90625 55.328125 
Q 53.90625 49.265625 50.4375 45.09375 
Q 46.96875 40.921875 40.578125 39.3125 
z
" id="DejaVuSans-51"/>
       </defs>
       <use xlink:href="#DejaVuSans-48"/>
       <use x="63.623047" xlink:href="#DejaVuSans-46"/>
       <use x="95.410156" xlink:href="#DejaVuSans-51"/>
       <use x="159.033203" xlink:href="#DejaVuSans-48"/>
      </g>
     </g>
    </g>
    <g id="ytick_8">
     <g id="line2d_58">
      <g>
       <use style="stroke:#000000;stroke-width:0.8;" x="57.6" xlink:href="#ma229f2fbdb" y="52.752849"/>
      </g>
     </g>
     <g id="text_14">
      <!-- 0.35 -->
      <g transform="translate(28.334375 56.552068)scale(0.1 -0.1)">
       <use xlink:href="#DejaVuSans-48"/>
       <use x="63.623047" xlink:href="#DejaVuSans-46"/>
       <use x="95.410156" xlink:href="#DejaVuSans-51"/>
       <use x="159.033203" xlink:href="#DejaVuSans-53"/>
      </g>
     </g>
    </g>
   </g>
   <g id="line2d_59">
    <path clip-path="url(#p1b143cda9a)" d="M 73.832727 294.934352 
L 78.985974 294.932495 
L 84.139221 294.921852 
L 89.292468 294.919991 
L 94.445714 294.916282 
L 99.598961 294.909311 
L 104.752208 294.896655 
L 109.905455 294.8888 
L 115.058701 294.865406 
L 120.211948 294.871803 
L 125.365195 294.851845 
L 130.518442 294.83298 
L 135.671688 294.804488 
L 140.824935 294.788836 
L 145.978182 294.756304 
L 151.131429 294.728306 
L 156.284675 294.690707 
L 161.437922 294.652962 
L 166.591169 294.580448 
L 171.744416 294.522522 
L 176.897662 294.465134 
L 182.050909 294.37464 
L 187.204156 294.287502 
L 192.357403 294.173071 
L 197.510649 294.049242 
L 202.663896 293.908806 
L 207.817143 293.777689 
L 212.97039 293.617989 
L 218.123636 293.417267 
L 223.276883 293.233144 
L 228.43013 292.919034 
L 233.583377 292.188455 
L 238.736623 290.638379 
L 243.88987 287.532227 
L 249.043117 282.318726 
L 254.196364 275.695352 
L 259.34961 269.92057 
L 264.502857 269.828229 
L 269.656104 276.985815 
L 274.809351 273.369338 
L 279.962597 256.695365 
L 285.115844 252.215592 
L 290.269091 273.325619 
L 295.422338 287.750422 
L 300.575584 233.954469 
L 305.728831 291.439965 
L 310.882078 289.216727 
L 316.035325 291.785751 
L 321.188571 294.481126 
L 326.341818 295.469991 
L 331.495065 295.42952 
L 336.648312 295.480849 
L 341.801558 295.488 
L 346.954805 295.479954 
L 352.108052 156.858897 
L 357.261299 295.484135 
L 362.414545 295.488 
L 367.567792 295.488 
L 372.721039 295.487573 
L 377.874286 102.882284 
L 383.027532 294.369811 
L 388.180779 295.487994 
L 393.334026 295.488 
L 398.487273 295.488 
" style="fill:none;stroke:#1f77b4;stroke-linecap:square;stroke-width:1.5;"/>
   </g>
   <g id="line2d_60">
    <path clip-path="url(#p1b143cda9a)" d="M 73.832727 287.493979 
L 78.985974 287.493227 
L 84.139221 287.459363 
L 89.292468 287.461921 
L 94.445714 287.453646 
L 99.598961 287.438659 
L 104.752208 287.420823 
L 109.905455 287.405259 
L 115.058701 287.362109 
L 120.211948 287.38009 
L 125.365195 287.352182 
L 130.518442 287.321585 
L 135.671688 287.28283 
L 140.824935 287.267985 
L 145.978182 287.244147 
L 151.131429 287.191506 
L 156.284675 287.148848 
L 161.437922 287.110292 
L 166.591169 287.02328 
L 171.744416 286.961892 
L 176.897662 286.916134 
L 182.050909 286.819978 
L 187.204156 286.73177 
L 192.357403 286.628907 
L 197.510649 286.521864 
L 202.663896 286.404979 
L 207.817143 286.319617 
L 212.97039 286.212244 
L 218.123636 286.089465 
L 223.276883 286.015052 
L 228.43013 285.946967 
L 233.583377 285.91456 
L 238.736623 285.920835 
L 243.88987 285.982282 
L 249.043117 286.125557 
L 254.196364 286.287272 
L 259.34961 286.434525 
L 264.502857 286.69642 
L 269.656104 286.941075 
L 274.809351 287.364711 
L 279.962597 287.692543 
L 285.115844 287.279464 
L 290.269091 285.686561 
L 295.422338 282.784024 
L 300.575584 280.917342 
L 305.728831 286.743627 
L 310.882078 294.564706 
L 316.035325 294.760451 
L 321.188571 294.68013 
L 326.341818 295.401289 
L 331.495065 295.429377 
L 336.648312 295.480578 
L 341.801558 295.488 
L 346.954805 295.481251 
L 352.108052 156.858584 
L 357.261299 295.484179 
L 362.414545 295.488 
L 367.567792 295.488 
L 372.721039 295.487537 
L 377.874286 151.205501 
L 383.027532 294.290026 
L 388.180779 295.487994 
L 393.334026 295.488 
L 398.487273 295.488 
" style="fill:none;stroke:#ff7f0e;stroke-linecap:square;stroke-width:1.5;"/>
   </g>
   <g id="line2d_61">
    <path clip-path="url(#p1b143cda9a)" d="M 73.832727 286.404311 
L 78.985974 286.404668 
L 84.139221 286.412724 
L 89.292468 286.411581 
L 94.445714 286.396947 
L 99.598961 286.413045 
L 104.752208 286.398045 
L 109.905455 286.397279 
L 115.058701 286.389599 
L 120.211948 286.368667 
L 125.365195 286.360666 
L 130.518442 286.369098 
L 135.671688 286.35643 
L 140.824935 286.32927 
L 145.978182 286.332038 
L 151.131429 286.337056 
L 156.284675 286.322186 
L 161.437922 286.309404 
L 166.591169 286.252357 
L 171.744416 286.300189 
L 176.897662 286.294909 
L 182.050909 286.28356 
L 187.204156 286.279426 
L 192.357403 286.281944 
L 197.510649 286.28514 
L 202.663896 286.294197 
L 207.817143 286.310392 
L 212.97039 286.326797 
L 218.123636 286.35382 
L 223.276883 286.373751 
L 228.43013 286.401951 
L 233.583377 286.413207 
L 238.736623 286.421227 
L 243.88987 286.410843 
L 249.043117 286.38864 
L 254.196364 286.381681 
L 259.34961 286.437095 
L 264.502857 286.604872 
L 269.656104 286.988505 
L 274.809351 287.779769 
L 279.962597 288.931034 
L 285.115844 290.562312 
L 290.269091 291.951994 
L 295.422338 291.941187 
L 300.575584 276.851309 
L 305.728831 280.978182 
L 310.882078 295.084312 
L 316.035325 295.289461 
L 321.188571 294.678917 
L 326.341818 295.484354 
L 331.495065 295.316595 
L 336.648312 295.486333 
L 341.801558 295.487999 
L 346.954805 295.407717 
L 352.108052 157.036969 
L 357.261299 295.487281 
L 362.414545 295.488 
L 367.567792 295.488 
L 372.721039 295.487997 
L 377.874286 156.790797 
L 383.027532 295.430963 
L 388.180779 295.488 
L 393.334026 295.488 
L 398.487273 295.488 
" style="fill:none;stroke:#2ca02c;stroke-linecap:square;stroke-width:1.5;"/>
   </g>
   <g id="line2d_62">
    <path clip-path="url(#p1b143cda9a)" d="M 73.832727 294.921068 
L 78.985974 294.915393 
L 84.139221 294.913066 
L 89.292468 294.89753 
L 94.445714 294.890249 
L 99.598961 294.885793 
L 104.752208 294.877345 
L 109.905455 294.85992 
L 115.058701 294.848548 
L 120.211948 294.836551 
L 125.365195 294.816972 
L 130.518442 294.785194 
L 135.671688 294.752182 
L 140.824935 294.727654 
L 145.978182 294.698983 
L 151.131429 294.639358 
L 156.284675 294.583762 
L 161.437922 294.522055 
L 166.591169 294.465398 
L 171.744416 294.375892 
L 176.897662 294.287418 
L 182.050909 294.190685 
L 187.204156 294.066067 
L 192.357403 293.935223 
L 197.510649 293.787076 
L 202.663896 293.62982 
L 207.817143 293.432687 
L 212.97039 293.238939 
L 218.123636 292.992185 
L 223.276883 292.299325 
L 228.43013 290.844002 
L 233.583377 288.093943 
L 238.736623 282.930369 
L 243.88987 276.259159 
L 249.043117 270.269821 
L 254.196364 268.643421 
L 259.34961 276.068167 
L 264.502857 274.414714 
L 269.656104 258.984072 
L 274.809351 251.012765 
L 279.962597 269.934375 
L 285.115844 285.714629 
L 290.269091 209.996535 
L 295.422338 290.027835 
L 300.575584 285.294865 
L 305.728831 290.726242 
L 310.882078 293.678432 
L 316.035325 295.287892 
L 321.188571 295.469 
L 326.341818 295.48761 
L 331.495065 295.487979 
L 336.648312 295.487647 
L 341.801558 156.802574 
L 346.954805 295.479474 
L 352.108052 295.488 
L 357.261299 295.488 
L 362.414545 295.483008 
L 367.567792 135.096703 
L 372.721039 295.240752 
L 377.874286 295.486695 
L 383.027532 295.488 
L 388.180779 295.487997 
L 393.334026 295.488 
L 398.487273 295.487989 
" style="fill:none;stroke:#d62728;stroke-linecap:square;stroke-width:1.5;"/>
   </g>
   <g id="line2d_63">
    <path clip-path="url(#p1b143cda9a)" d="M 73.832727 287.323906 
L 78.985974 287.295911 
L 84.139221 287.295251 
L 89.292468 287.262347 
L 94.445714 287.252504 
L 99.598961 287.25014 
L 104.752208 287.24024 
L 109.905455 287.205484 
L 115.058701 287.193224 
L 120.211948 287.181605 
L 125.365195 287.152098 
L 130.518442 287.104472 
L 135.671688 287.059639 
L 140.824935 287.036968 
L 145.978182 287.007305 
L 151.131429 286.919922 
L 156.284675 286.860984 
L 161.437922 286.795565 
L 166.591169 286.748585 
L 171.744416 286.640298 
L 176.897662 286.561169 
L 182.050909 286.448298 
L 187.204156 286.364969 
L 192.357403 286.261085 
L 197.510649 286.12159 
L 202.663896 286.002836 
L 207.817143 285.924908 
L 212.97039 285.827292 
L 218.123636 285.757886 
L 223.276883 285.735753 
L 228.43013 285.74269 
L 233.583377 285.823133 
L 238.736623 285.933078 
L 243.88987 286.118168 
L 249.043117 286.299543 
L 254.196364 286.531754 
L 259.34961 286.80889 
L 264.502857 287.304353 
L 269.656104 287.702175 
L 274.809351 287.572881 
L 279.962597 286.302444 
L 285.115844 283.891292 
L 290.269091 281.929449 
L 295.422338 286.258192 
L 300.575584 294.288303 
L 305.728831 294.979312 
L 310.882078 294.549314 
L 316.035325 295.306741 
L 321.188571 295.476074 
L 326.341818 295.487718 
L 331.495065 295.487981 
L 336.648312 295.487715 
L 341.801558 156.802782 
L 346.954805 295.479339 
L 352.108052 295.488 
L 357.261299 295.488 
L 362.414545 295.482798 
L 367.567792 138.181284 
L 372.721039 295.228771 
L 377.874286 295.486608 
L 383.027532 295.488 
L 388.180779 295.487997 
L 393.334026 295.488 
L 398.487273 295.487987 
" style="fill:none;stroke:#9467bd;stroke-linecap:square;stroke-width:1.5;"/>
   </g>
   <g id="line2d_64">
    <path clip-path="url(#p1b143cda9a)" d="M 73.832727 285.987575 
L 78.985974 285.994831 
L 84.139221 285.994921 
L 89.292468 285.989769 
L 94.445714 285.981001 
L 99.598961 285.974247 
L 104.752208 285.951254 
L 109.905455 285.971371 
L 115.058701 285.963262 
L 120.211948 285.950595 
L 125.365195 285.93922 
L 130.518442 285.941418 
L 135.671688 285.933452 
L 140.824935 285.916657 
L 145.978182 285.92452 
L 151.131429 285.913819 
L 156.284675 285.909332 
L 161.437922 285.90625 
L 166.591169 285.910274 
L 171.744416 285.90607 
L 176.897662 285.915488 
L 182.050909 285.917601 
L 187.204156 285.92698 
L 192.357403 285.953152 
L 197.510649 285.972787 
L 202.663896 286.003929 
L 207.817143 286.043619 
L 212.97039 286.075143 
L 218.123636 286.119547 
L 223.276883 286.142613 
L 228.43013 286.1895 
L 233.583377 286.190005 
L 238.736623 286.191389 
L 243.88987 286.196948 
L 249.043117 286.24435 
L 254.196364 286.395774 
L 259.34961 286.768579 
L 264.502857 287.504709 
L 269.656104 288.686615 
L 274.809351 290.289927 
L 279.962597 291.769824 
L 285.115844 292.033964 
L 290.269091 277.100198 
L 295.422338 279.714631 
L 300.575584 291.710024 
L 305.728831 295.333514 
L 310.882078 294.529124 
L 316.035325 295.481702 
L 321.188571 295.483576 
L 326.341818 295.487959 
L 331.495065 295.488 
L 336.648312 295.486031 
L 341.801558 156.790647 
L 346.954805 295.48581 
L 352.108052 295.488 
L 357.261299 295.488 
L 362.414545 295.488 
L 367.567792 156.80964 
L 372.721039 295.405981 
L 377.874286 295.487877 
L 383.027532 295.488 
L 388.180779 295.488 
L 393.334026 295.488 
L 398.487273 295.488 
" style="fill:none;stroke:#8c564b;stroke-linecap:square;stroke-width:1.5;"/>
   </g>
   <g id="line2d_65">
    <path clip-path="url(#p1b143cda9a)" d="M 73.832727 294.915921 
L 78.985974 294.91208 
L 84.139221 294.905223 
L 89.292468 294.892296 
L 94.445714 294.88463 
L 99.598961 294.860834 
L 104.752208 294.867383 
L 109.905455 294.847262 
L 115.058701 294.828188 
L 120.211948 294.804268 
L 125.365195 294.783934 
L 130.518442 294.759856 
L 135.671688 294.723125 
L 140.824935 294.684952 
L 145.978182 294.647125 
L 151.131429 294.574201 
L 156.284675 294.515833 
L 161.437922 294.458397 
L 166.591169 294.367219 
L 171.744416 294.278655 
L 176.897662 294.16516 
L 182.050909 294.040686 
L 187.204156 293.911986 
L 192.357403 293.76842 
L 197.510649 293.60865 
L 202.663896 293.407653 
L 207.817143 293.223326 
L 212.97039 292.908974 
L 218.123636 292.175471 
L 223.276883 290.620557 
L 228.43013 287.531415 
L 233.583377 282.275082 
L 238.736623 275.041362 
L 243.88987 269.292424 
L 249.043117 269.74324 
L 254.196364 276.606509 
L 259.34961 273.46406 
L 264.502857 256.792604 
L 269.656104 251.895361 
L 274.809351 272.81844 
L 279.962597 286.619625 
L 285.115844 289.365184 
L 290.269091 290.50723 
L 295.422338 287.956178 
L 300.575584 290.782867 
L 305.728831 294.209114 
L 310.882078 295.402003 
L 316.035325 295.42378 
L 321.188571 295.480908 
L 326.341818 295.488 
L 331.495065 295.479057 
L 336.648312 156.867978 
L 341.801558 295.484472 
L 346.954805 295.488 
L 352.108052 295.488 
L 357.261299 295.487557 
L 362.414545 53.568 
L 367.567792 294.004458 
L 372.721039 295.487998 
L 377.874286 295.488 
L 383.027532 295.487996 
L 388.180779 295.488 
L 393.334026 295.48493 
L 398.487273 295.360901 
" style="fill:none;stroke:#e377c2;stroke-linecap:square;stroke-width:1.5;"/>
   </g>
   <g id="line2d_66">
    <path clip-path="url(#p1b143cda9a)" d="M 73.832727 286.950785 
L 78.985974 286.940776 
L 84.139221 286.925656 
L 89.292468 286.90386 
L 94.445714 286.890403 
L 99.598961 286.842993 
L 104.752208 286.862632 
L 109.905455 286.831737 
L 115.058701 286.802038 
L 120.211948 286.768403 
L 125.365195 286.743054 
L 130.518442 286.71743 
L 135.671688 286.662611 
L 140.824935 286.615208 
L 145.978182 286.575617 
L 151.131429 286.483174 
L 156.284675 286.416968 
L 161.437922 286.367602 
L 166.591169 286.265621 
L 171.744416 286.179123 
L 176.897662 286.064081 
L 182.050909 285.950102 
L 187.204156 285.857368 
L 192.357403 285.741939 
L 197.510649 285.632022 
L 202.663896 285.507645 
L 207.817143 285.437428 
L 212.97039 285.372896 
L 218.123636 285.355713 
L 223.276883 285.421324 
L 228.43013 285.50609 
L 233.583377 285.639657 
L 238.736623 285.825379 
L 243.88987 286.005449 
L 249.043117 286.233827 
L 254.196364 286.626268 
L 259.34961 287.013343 
L 264.502857 287.321509 
L 269.656104 287.032507 
L 274.809351 285.429386 
L 279.962597 282.51817 
L 285.115844 280.94631 
L 290.269091 286.447545 
L 295.422338 294.537432 
L 300.575584 294.735936 
L 305.728831 294.655479 
L 310.882078 295.404728 
L 316.035325 295.419746 
L 321.188571 295.481548 
L 326.341818 295.488 
L 331.495065 295.480795 
L 336.648312 156.870421 
L 341.801558 295.48477 
L 346.954805 295.488 
L 352.108052 295.488 
L 357.261299 295.487528 
L 362.414545 148.245995 
L 367.567792 293.888768 
L 372.721039 295.487999 
L 377.874286 295.488 
L 383.027532 295.487995 
L 388.180779 295.488 
L 393.334026 295.48466 
L 398.487273 295.477551 
" style="fill:none;stroke:#7f7f7f;stroke-linecap:square;stroke-width:1.5;"/>
   </g>
   <g id="line2d_67">
    <path clip-path="url(#p1b143cda9a)" d="M 73.832727 285.650584 
L 78.985974 285.634117 
L 84.139221 285.65224 
L 89.292468 285.636437 
L 94.445714 285.63718 
L 99.598961 285.632649 
L 104.752208 285.608412 
L 109.905455 285.603617 
L 115.058701 285.614358 
L 120.211948 285.600647 
L 125.365195 285.582213 
L 130.518442 285.580524 
L 135.671688 285.590619 
L 140.824935 285.576577 
L 145.978182 285.566267 
L 151.131429 285.567592 
L 156.284675 285.568188 
L 161.437922 285.567707 
L 166.591169 285.568256 
L 171.744416 285.575251 
L 176.897662 285.580042 
L 182.050909 285.596453 
L 187.204156 285.616974 
L 192.357403 285.65001 
L 197.510649 285.684269 
L 202.663896 285.726142 
L 207.817143 285.783555 
L 212.97039 285.832499 
L 218.123636 285.865722 
L 223.276883 285.906027 
L 228.43013 285.92719 
L 233.583377 285.930758 
L 238.736623 285.94972 
L 243.88987 286.022265 
L 249.043117 286.219096 
L 254.196364 286.642756 
L 259.34961 287.412333 
L 264.502857 288.692195 
L 269.656104 290.349821 
L 274.809351 291.787814 
L 279.962597 291.820176 
L 285.115844 275.848686 
L 290.269091 280.211295 
L 295.422338 295.084785 
L 300.575584 294.576127 
L 305.728831 294.66987 
L 310.882078 295.48422 
L 316.035325 295.283815 
L 321.188571 295.486015 
L 326.341818 295.487999 
L 331.495065 295.392951 
L 336.648312 157.084931 
L 341.801558 295.487423 
L 346.954805 295.488 
L 352.108052 295.488 
L 357.261299 295.487997 
L 362.414545 156.801764 
L 367.567792 295.420547 
L 372.721039 295.488 
L 377.874286 295.488 
L 383.027532 295.488 
L 388.180779 295.488 
L 393.334026 295.488 
L 398.487273 295.46932 
" style="fill:none;stroke:#bcbd22;stroke-linecap:square;stroke-width:1.5;"/>
   </g>
   <g id="patch_3">
    <path d="M 57.6 307.584 
L 57.6 41.472 
" style="fill:none;stroke:#000000;stroke-linecap:square;stroke-linejoin:miter;stroke-width:0.8;"/>
   </g>
   <g id="patch_4">
    <path d="M 414.72 307.584 
L 414.72 41.472 
" style="fill:none;stroke:#000000;stroke-linecap:square;stroke-linejoin:miter;stroke-width:0.8;"/>
   </g>
   <g id="patch_5">
    <path d="M 57.6 307.584 
L 414.72 307.584 
" style="fill:none;stroke:#000000;stroke-linecap:square;stroke-linejoin:miter;stroke-width:0.8;"/>
   </g>
   <g id="patch_6">
    <path d="M 57.6 41.472 
L 414.72 41.472 
" style="fill:none;stroke:#000000;stroke-linecap:square;stroke-linejoin:miter;stroke-width:0.8;"/>
   </g>
   <g id="legend_1">
    <g id="patch_7">
     <path d="M 64.6 184.07825 
L 274.848438 184.07825 
Q 276.848438 184.07825 276.848438 182.07825 
L 276.848438 48.472 
Q 276.848438 46.472 274.848438 46.472 
L 64.6 46.472 
Q 62.6 46.472 62.6 48.472 
L 62.6 182.07825 
Q 62.6 184.07825 64.6 184.07825 
z
" style="fill:#ffffff;opacity:0.8;stroke:#cccccc;stroke-linejoin:miter;"/>
    </g>
    <g id="line2d_68">
     <path d="M 66.6 54.570438 
L 86.6 54.570438 
" style="fill:none;stroke:#1f77b4;stroke-linecap:square;stroke-width:1.5;"/>
    </g>
    <g id="line2d_69"/>
    <g id="text_15">
     <!-- Mrk509_2016_EF_10_matern12.jld2 -->
     <g transform="translate(94.6 58.070438)scale(0.1 -0.1)">
      <defs>
       <path d="M 9.8125 72.90625 
L 24.515625 72.90625 
L 43.109375 23.296875 
L 61.8125 72.90625 
L 76.515625 72.90625 
L 76.515625 0 
L 66.890625 0 
L 66.890625 64.015625 
L 48.09375 14.015625 
L 38.1875 14.015625 
L 19.390625 64.015625 
L 19.390625 0 
L 9.8125 0 
z
" id="DejaVuSans-77"/>
       <path d="M 41.109375 46.296875 
Q 39.59375 47.171875 37.8125 47.578125 
Q 36.03125 48 33.890625 48 
Q 26.265625 48 22.1875 43.046875 
Q 18.109375 38.09375 18.109375 28.8125 
L 18.109375 0 
L 9.078125 0 
L 9.078125 54.6875 
L 18.109375 54.6875 
L 18.109375 46.1875 
Q 20.953125 51.171875 25.484375 53.578125 
Q 30.03125 56 36.53125 56 
Q 37.453125 56 38.578125 55.875 
Q 39.703125 55.765625 41.0625 55.515625 
z
" id="DejaVuSans-114"/>
       <path d="M 9.078125 75.984375 
L 18.109375 75.984375 
L 18.109375 31.109375 
L 44.921875 54.6875 
L 56.390625 54.6875 
L 27.390625 29.109375 
L 57.625 0 
L 45.90625 0 
L 18.109375 26.703125 
L 18.109375 0 
L 9.078125 0 
z
" id="DejaVuSans-107"/>
       <path d="M 50.984375 -16.609375 
L 50.984375 -23.578125 
L -0.984375 -23.578125 
L -0.984375 -16.609375 
z
" id="DejaVuSans-95"/>
       <path d="M 9.8125 72.90625 
L 55.90625 72.90625 
L 55.90625 64.59375 
L 19.671875 64.59375 
L 19.671875 43.015625 
L 54.390625 43.015625 
L 54.390625 34.71875 
L 19.671875 34.71875 
L 19.671875 8.296875 
L 56.78125 8.296875 
L 56.78125 0 
L 9.8125 0 
z
" id="DejaVuSans-69"/>
       <path d="M 9.8125 72.90625 
L 51.703125 72.90625 
L 51.703125 64.59375 
L 19.671875 64.59375 
L 19.671875 43.109375 
L 48.578125 43.109375 
L 48.578125 34.8125 
L 19.671875 34.8125 
L 19.671875 0 
L 9.8125 0 
z
" id="DejaVuSans-70"/>
       <path d="M 52 44.1875 
Q 55.375 50.25 60.0625 53.125 
Q 64.75 56 71.09375 56 
Q 79.640625 56 84.28125 50.015625 
Q 88.921875 44.046875 88.921875 33.015625 
L 88.921875 0 
L 79.890625 0 
L 79.890625 32.71875 
Q 79.890625 40.578125 77.09375 44.375 
Q 74.3125 48.1875 68.609375 48.1875 
Q 61.625 48.1875 57.5625 43.546875 
Q 53.515625 38.921875 53.515625 30.90625 
L 53.515625 0 
L 44.484375 0 
L 44.484375 32.71875 
Q 44.484375 40.625 41.703125 44.40625 
Q 38.921875 48.1875 33.109375 48.1875 
Q 26.21875 48.1875 22.15625 43.53125 
Q 18.109375 38.875 18.109375 30.90625 
L 18.109375 0 
L 9.078125 0 
L 9.078125 54.6875 
L 18.109375 54.6875 
L 18.109375 46.1875 
Q 21.1875 51.21875 25.484375 53.609375 
Q 29.78125 56 35.6875 56 
Q 41.65625 56 45.828125 52.96875 
Q 50 49.953125 52 44.1875 
z
" id="DejaVuSans-109"/>
       <path d="M 34.28125 27.484375 
Q 23.390625 27.484375 19.1875 25 
Q 14.984375 22.515625 14.984375 16.5 
Q 14.984375 11.71875 18.140625 8.90625 
Q 21.296875 6.109375 26.703125 6.109375 
Q 34.1875 6.109375 38.703125 11.40625 
Q 43.21875 16.703125 43.21875 25.484375 
L 43.21875 27.484375 
z
M 52.203125 31.203125 
L 52.203125 0 
L 43.21875 0 
L 43.21875 8.296875 
Q 40.140625 3.328125 35.546875 0.953125 
Q 30.953125 -1.421875 24.3125 -1.421875 
Q 15.921875 -1.421875 10.953125 3.296875 
Q 6 8.015625 6 15.921875 
Q 6 25.140625 12.171875 29.828125 
Q 18.359375 34.515625 30.609375 34.515625 
L 43.21875 34.515625 
L 43.21875 35.40625 
Q 43.21875 41.609375 39.140625 45 
Q 35.0625 48.390625 27.6875 48.390625 
Q 23 48.390625 18.546875 47.265625 
Q 14.109375 46.140625 10.015625 43.890625 
L 10.015625 52.203125 
Q 14.9375 54.109375 19.578125 55.046875 
Q 24.21875 56 28.609375 56 
Q 40.484375 56 46.34375 49.84375 
Q 52.203125 43.703125 52.203125 31.203125 
z
" id="DejaVuSans-97"/>
       <path d="M 18.3125 70.21875 
L 18.3125 54.6875 
L 36.8125 54.6875 
L 36.8125 47.703125 
L 18.3125 47.703125 
L 18.3125 18.015625 
Q 18.3125 11.328125 20.140625 9.421875 
Q 21.96875 7.515625 27.59375 7.515625 
L 36.8125 7.515625 
L 36.8125 0 
L 27.59375 0 
Q 17.1875 0 13.234375 3.875 
Q 9.28125 7.765625 9.28125 18.015625 
L 9.28125 47.703125 
L 2.6875 47.703125 
L 2.6875 54.6875 
L 9.28125 54.6875 
L 9.28125 70.21875 
z
" id="DejaVuSans-116"/>
       <path d="M 56.203125 29.59375 
L 56.203125 25.203125 
L 14.890625 25.203125 
Q 15.484375 15.921875 20.484375 11.0625 
Q 25.484375 6.203125 34.421875 6.203125 
Q 39.59375 6.203125 44.453125 7.46875 
Q 49.3125 8.734375 54.109375 11.28125 
L 54.109375 2.78125 
Q 49.265625 0.734375 44.1875 -0.34375 
Q 39.109375 -1.421875 33.890625 -1.421875 
Q 20.796875 -1.421875 13.15625 6.1875 
Q 5.515625 13.8125 5.515625 26.8125 
Q 5.515625 40.234375 12.765625 48.109375 
Q 20.015625 56 32.328125 56 
Q 43.359375 56 49.78125 48.890625 
Q 56.203125 41.796875 56.203125 29.59375 
z
M 47.21875 32.234375 
Q 47.125 39.59375 43.09375 43.984375 
Q 39.0625 48.390625 32.421875 48.390625 
Q 24.90625 48.390625 20.390625 44.140625 
Q 15.875 39.890625 15.1875 32.171875 
z
" id="DejaVuSans-101"/>
       <path d="M 54.890625 33.015625 
L 54.890625 0 
L 45.90625 0 
L 45.90625 32.71875 
Q 45.90625 40.484375 42.875 44.328125 
Q 39.84375 48.1875 33.796875 48.1875 
Q 26.515625 48.1875 22.3125 43.546875 
Q 18.109375 38.921875 18.109375 30.90625 
L 18.109375 0 
L 9.078125 0 
L 9.078125 54.6875 
L 18.109375 54.6875 
L 18.109375 46.1875 
Q 21.34375 51.125 25.703125 53.5625 
Q 30.078125 56 35.796875 56 
Q 45.21875 56 50.046875 50.171875 
Q 54.890625 44.34375 54.890625 33.015625 
z
" id="DejaVuSans-110"/>
       <path d="M 9.421875 54.6875 
L 18.40625 54.6875 
L 18.40625 -0.984375 
Q 18.40625 -11.421875 14.421875 -16.109375 
Q 10.453125 -20.796875 1.609375 -20.796875 
L -1.8125 -20.796875 
L -1.8125 -13.1875 
L 0.59375 -13.1875 
Q 5.71875 -13.1875 7.5625 -10.8125 
Q 9.421875 -8.453125 9.421875 -0.984375 
z
M 9.421875 75.984375 
L 18.40625 75.984375 
L 18.40625 64.59375 
L 9.421875 64.59375 
z
" id="DejaVuSans-106"/>
       <path d="M 9.421875 75.984375 
L 18.40625 75.984375 
L 18.40625 0 
L 9.421875 0 
z
" id="DejaVuSans-108"/>
       <path d="M 45.40625 46.390625 
L 45.40625 75.984375 
L 54.390625 75.984375 
L 54.390625 0 
L 45.40625 0 
L 45.40625 8.203125 
Q 42.578125 3.328125 38.25 0.953125 
Q 33.9375 -1.421875 27.875 -1.421875 
Q 17.96875 -1.421875 11.734375 6.484375 
Q 5.515625 14.40625 5.515625 27.296875 
Q 5.515625 40.1875 11.734375 48.09375 
Q 17.96875 56 27.875 56 
Q 33.9375 56 38.25 53.625 
Q 42.578125 51.265625 45.40625 46.390625 
z
M 14.796875 27.296875 
Q 14.796875 17.390625 18.875 11.75 
Q 22.953125 6.109375 30.078125 6.109375 
Q 37.203125 6.109375 41.296875 11.75 
Q 45.40625 17.390625 45.40625 27.296875 
Q 45.40625 37.203125 41.296875 42.84375 
Q 37.203125 48.484375 30.078125 48.484375 
Q 22.953125 48.484375 18.875 42.84375 
Q 14.796875 37.203125 14.796875 27.296875 
z
" id="DejaVuSans-100"/>
      </defs>
      <use xlink:href="#DejaVuSans-77"/>
      <use x="86.279297" xlink:href="#DejaVuSans-114"/>
      <use x="127.392578" xlink:href="#DejaVuSans-107"/>
      <use x="185.302734" xlink:href="#DejaVuSans-53"/>
      <use x="248.925781" xlink:href="#DejaVuSans-48"/>
      <use x="312.548828" xlink:href="#DejaVuSans-57"/>
      <use x="376.171875" xlink:href="#DejaVuSans-95"/>
      <use x="426.171875" xlink:href="#DejaVuSans-50"/>
      <use x="489.794922" xlink:href="#DejaVuSans-48"/>
      <use x="553.417969" xlink:href="#DejaVuSans-49"/>
      <use x="617.041016" xlink:href="#DejaVuSans-54"/>
      <use x="680.664062" xlink:href="#DejaVuSans-95"/>
      <use x="730.664062" xlink:href="#DejaVuSans-69"/>
      <use x="793.847656" xlink:href="#DejaVuSans-70"/>
      <use x="851.367188" xlink:href="#DejaVuSans-95"/>
      <use x="901.367188" xlink:href="#DejaVuSans-49"/>
      <use x="964.990234" xlink:href="#DejaVuSans-48"/>
      <use x="1028.613281" xlink:href="#DejaVuSans-95"/>
      <use x="1078.613281" xlink:href="#DejaVuSans-109"/>
      <use x="1176.025391" xlink:href="#DejaVuSans-97"/>
      <use x="1237.304688" xlink:href="#DejaVuSans-116"/>
      <use x="1276.513672" xlink:href="#DejaVuSans-101"/>
      <use x="1338.037109" xlink:href="#DejaVuSans-114"/>
      <use x="1377.400391" xlink:href="#DejaVuSans-110"/>
      <use x="1440.779297" xlink:href="#DejaVuSans-49"/>
      <use x="1504.402344" xlink:href="#DejaVuSans-50"/>
      <use x="1568.025391" xlink:href="#DejaVuSans-46"/>
      <use x="1599.8125" xlink:href="#DejaVuSans-106"/>
      <use x="1627.595703" xlink:href="#DejaVuSans-108"/>
      <use x="1655.378906" xlink:href="#DejaVuSans-100"/>
      <use x="1718.855469" xlink:href="#DejaVuSans-50"/>
     </g>
    </g>
    <g id="line2d_70">
     <path d="M 66.6 69.526688 
L 86.6 69.526688 
" style="fill:none;stroke:#ff7f0e;stroke-linecap:square;stroke-width:1.5;"/>
    </g>
    <g id="line2d_71"/>
    <g id="text_16">
     <!-- Mrk509_2016_EF_10_matern32.jld2 -->
     <g transform="translate(94.6 73.026688)scale(0.1 -0.1)">
      <use xlink:href="#DejaVuSans-77"/>
      <use x="86.279297" xlink:href="#DejaVuSans-114"/>
      <use x="127.392578" xlink:href="#DejaVuSans-107"/>
      <use x="185.302734" xlink:href="#DejaVuSans-53"/>
      <use x="248.925781" xlink:href="#DejaVuSans-48"/>
      <use x="312.548828" xlink:href="#DejaVuSans-57"/>
      <use x="376.171875" xlink:href="#DejaVuSans-95"/>
      <use x="426.171875" xlink:href="#DejaVuSans-50"/>
      <use x="489.794922" xlink:href="#DejaVuSans-48"/>
      <use x="553.417969" xlink:href="#DejaVuSans-49"/>
      <use x="617.041016" xlink:href="#DejaVuSans-54"/>
      <use x="680.664062" xlink:href="#DejaVuSans-95"/>
      <use x="730.664062" xlink:href="#DejaVuSans-69"/>
      <use x="793.847656" xlink:href="#DejaVuSans-70"/>
      <use x="851.367188" xlink:href="#DejaVuSans-95"/>
      <use x="901.367188" xlink:href="#DejaVuSans-49"/>
      <use x="964.990234" xlink:href="#DejaVuSans-48"/>
      <use x="1028.613281" xlink:href="#DejaVuSans-95"/>
      <use x="1078.613281" xlink:href="#DejaVuSans-109"/>
      <use x="1176.025391" xlink:href="#DejaVuSans-97"/>
      <use x="1237.304688" xlink:href="#DejaVuSans-116"/>
      <use x="1276.513672" xlink:href="#DejaVuSans-101"/>
      <use x="1338.037109" xlink:href="#DejaVuSans-114"/>
      <use x="1377.400391" xlink:href="#DejaVuSans-110"/>
      <use x="1440.779297" xlink:href="#DejaVuSans-51"/>
      <use x="1504.402344" xlink:href="#DejaVuSans-50"/>
      <use x="1568.025391" xlink:href="#DejaVuSans-46"/>
      <use x="1599.8125" xlink:href="#DejaVuSans-106"/>
      <use x="1627.595703" xlink:href="#DejaVuSans-108"/>
      <use x="1655.378906" xlink:href="#DejaVuSans-100"/>
      <use x="1718.855469" xlink:href="#DejaVuSans-50"/>
     </g>
    </g>
    <g id="line2d_72">
     <path d="M 66.6 84.482938 
L 86.6 84.482938 
" style="fill:none;stroke:#2ca02c;stroke-linecap:square;stroke-width:1.5;"/>
    </g>
    <g id="line2d_73"/>
    <g id="text_17">
     <!-- Mrk509_2016_EF_10_rbf.jld2 -->
     <g transform="translate(94.6 87.982938)scale(0.1 -0.1)">
      <defs>
       <path d="M 48.6875 27.296875 
Q 48.6875 37.203125 44.609375 42.84375 
Q 40.53125 48.484375 33.40625 48.484375 
Q 26.265625 48.484375 22.1875 42.84375 
Q 18.109375 37.203125 18.109375 27.296875 
Q 18.109375 17.390625 22.1875 11.75 
Q 26.265625 6.109375 33.40625 6.109375 
Q 40.53125 6.109375 44.609375 11.75 
Q 48.6875 17.390625 48.6875 27.296875 
z
M 18.109375 46.390625 
Q 20.953125 51.265625 25.265625 53.625 
Q 29.59375 56 35.59375 56 
Q 45.5625 56 51.78125 48.09375 
Q 58.015625 40.1875 58.015625 27.296875 
Q 58.015625 14.40625 51.78125 6.484375 
Q 45.5625 -1.421875 35.59375 -1.421875 
Q 29.59375 -1.421875 25.265625 0.953125 
Q 20.953125 3.328125 18.109375 8.203125 
L 18.109375 0 
L 9.078125 0 
L 9.078125 75.984375 
L 18.109375 75.984375 
z
" id="DejaVuSans-98"/>
       <path d="M 37.109375 75.984375 
L 37.109375 68.5 
L 28.515625 68.5 
Q 23.6875 68.5 21.796875 66.546875 
Q 19.921875 64.59375 19.921875 59.515625 
L 19.921875 54.6875 
L 34.71875 54.6875 
L 34.71875 47.703125 
L 19.921875 47.703125 
L 19.921875 0 
L 10.890625 0 
L 10.890625 47.703125 
L 2.296875 47.703125 
L 2.296875 54.6875 
L 10.890625 54.6875 
L 10.890625 58.5 
Q 10.890625 67.625 15.140625 71.796875 
Q 19.390625 75.984375 28.609375 75.984375 
z
" id="DejaVuSans-102"/>
      </defs>
      <use xlink:href="#DejaVuSans-77"/>
      <use x="86.279297" xlink:href="#DejaVuSans-114"/>
      <use x="127.392578" xlink:href="#DejaVuSans-107"/>
      <use x="185.302734" xlink:href="#DejaVuSans-53"/>
      <use x="248.925781" xlink:href="#DejaVuSans-48"/>
      <use x="312.548828" xlink:href="#DejaVuSans-57"/>
      <use x="376.171875" xlink:href="#DejaVuSans-95"/>
      <use x="426.171875" xlink:href="#DejaVuSans-50"/>
      <use x="489.794922" xlink:href="#DejaVuSans-48"/>
      <use x="553.417969" xlink:href="#DejaVuSans-49"/>
      <use x="617.041016" xlink:href="#DejaVuSans-54"/>
      <use x="680.664062" xlink:href="#DejaVuSans-95"/>
      <use x="730.664062" xlink:href="#DejaVuSans-69"/>
      <use x="793.847656" xlink:href="#DejaVuSans-70"/>
      <use x="851.367188" xlink:href="#DejaVuSans-95"/>
      <use x="901.367188" xlink:href="#DejaVuSans-49"/>
      <use x="964.990234" xlink:href="#DejaVuSans-48"/>
      <use x="1028.613281" xlink:href="#DejaVuSans-95"/>
      <use x="1078.613281" xlink:href="#DejaVuSans-114"/>
      <use x="1119.726562" xlink:href="#DejaVuSans-98"/>
      <use x="1183.203125" xlink:href="#DejaVuSans-102"/>
      <use x="1211.158203" xlink:href="#DejaVuSans-46"/>
      <use x="1242.945312" xlink:href="#DejaVuSans-106"/>
      <use x="1270.728516" xlink:href="#DejaVuSans-108"/>
      <use x="1298.511719" xlink:href="#DejaVuSans-100"/>
      <use x="1361.988281" xlink:href="#DejaVuSans-50"/>
     </g>
    </g>
    <g id="line2d_74">
     <path d="M 66.6 99.439188 
L 86.6 99.439188 
" style="fill:none;stroke:#d62728;stroke-linecap:square;stroke-width:1.5;"/>
    </g>
    <g id="line2d_75"/>
    <g id="text_18">
     <!-- Mrk509_2016_EF_20_matern12.jld2 -->
     <g transform="translate(94.6 102.939188)scale(0.1 -0.1)">
      <use xlink:href="#DejaVuSans-77"/>
      <use x="86.279297" xlink:href="#DejaVuSans-114"/>
      <use x="127.392578" xlink:href="#DejaVuSans-107"/>
      <use x="185.302734" xlink:href="#DejaVuSans-53"/>
      <use x="248.925781" xlink:href="#DejaVuSans-48"/>
      <use x="312.548828" xlink:href="#DejaVuSans-57"/>
      <use x="376.171875" xlink:href="#DejaVuSans-95"/>
      <use x="426.171875" xlink:href="#DejaVuSans-50"/>
      <use x="489.794922" xlink:href="#DejaVuSans-48"/>
      <use x="553.417969" xlink:href="#DejaVuSans-49"/>
      <use x="617.041016" xlink:href="#DejaVuSans-54"/>
      <use x="680.664062" xlink:href="#DejaVuSans-95"/>
      <use x="730.664062" xlink:href="#DejaVuSans-69"/>
      <use x="793.847656" xlink:href="#DejaVuSans-70"/>
      <use x="851.367188" xlink:href="#DejaVuSans-95"/>
      <use x="901.367188" xlink:href="#DejaVuSans-50"/>
      <use x="964.990234" xlink:href="#DejaVuSans-48"/>
      <use x="1028.613281" xlink:href="#DejaVuSans-95"/>
      <use x="1078.613281" xlink:href="#DejaVuSans-109"/>
      <use x="1176.025391" xlink:href="#DejaVuSans-97"/>
      <use x="1237.304688" xlink:href="#DejaVuSans-116"/>
      <use x="1276.513672" xlink:href="#DejaVuSans-101"/>
      <use x="1338.037109" xlink:href="#DejaVuSans-114"/>
      <use x="1377.400391" xlink:href="#DejaVuSans-110"/>
      <use x="1440.779297" xlink:href="#DejaVuSans-49"/>
      <use x="1504.402344" xlink:href="#DejaVuSans-50"/>
      <use x="1568.025391" xlink:href="#DejaVuSans-46"/>
      <use x="1599.8125" xlink:href="#DejaVuSans-106"/>
      <use x="1627.595703" xlink:href="#DejaVuSans-108"/>
      <use x="1655.378906" xlink:href="#DejaVuSans-100"/>
      <use x="1718.855469" xlink:href="#DejaVuSans-50"/>
     </g>
    </g>
    <g id="line2d_76">
     <path d="M 66.6 114.395438 
L 86.6 114.395438 
" style="fill:none;stroke:#9467bd;stroke-linecap:square;stroke-width:1.5;"/>
    </g>
    <g id="line2d_77"/>
    <g id="text_19">
     <!-- Mrk509_2016_EF_20_matern32.jld2 -->
     <g transform="translate(94.6 117.895438)scale(0.1 -0.1)">
      <use xlink:href="#DejaVuSans-77"/>
      <use x="86.279297" xlink:href="#DejaVuSans-114"/>
      <use x="127.392578" xlink:href="#DejaVuSans-107"/>
      <use x="185.302734" xlink:href="#DejaVuSans-53"/>
      <use x="248.925781" xlink:href="#DejaVuSans-48"/>
      <use x="312.548828" xlink:href="#DejaVuSans-57"/>
      <use x="376.171875" xlink:href="#DejaVuSans-95"/>
      <use x="426.171875" xlink:href="#DejaVuSans-50"/>
      <use x="489.794922" xlink:href="#DejaVuSans-48"/>
      <use x="553.417969" xlink:href="#DejaVuSans-49"/>
      <use x="617.041016" xlink:href="#DejaVuSans-54"/>
      <use x="680.664062" xlink:href="#DejaVuSans-95"/>
      <use x="730.664062" xlink:href="#DejaVuSans-69"/>
      <use x="793.847656" xlink:href="#DejaVuSans-70"/>
      <use x="851.367188" xlink:href="#DejaVuSans-95"/>
      <use x="901.367188" xlink:href="#DejaVuSans-50"/>
      <use x="964.990234" xlink:href="#DejaVuSans-48"/>
      <use x="1028.613281" xlink:href="#DejaVuSans-95"/>
      <use x="1078.613281" xlink:href="#DejaVuSans-109"/>
      <use x="1176.025391" xlink:href="#DejaVuSans-97"/>
      <use x="1237.304688" xlink:href="#DejaVuSans-116"/>
      <use x="1276.513672" xlink:href="#DejaVuSans-101"/>
      <use x="1338.037109" xlink:href="#DejaVuSans-114"/>
      <use x="1377.400391" xlink:href="#DejaVuSans-110"/>
      <use x="1440.779297" xlink:href="#DejaVuSans-51"/>
      <use x="1504.402344" xlink:href="#DejaVuSans-50"/>
      <use x="1568.025391" xlink:href="#DejaVuSans-46"/>
      <use x="1599.8125" xlink:href="#DejaVuSans-106"/>
      <use x="1627.595703" xlink:href="#DejaVuSans-108"/>
      <use x="1655.378906" xlink:href="#DejaVuSans-100"/>
      <use x="1718.855469" xlink:href="#DejaVuSans-50"/>
     </g>
    </g>
    <g id="line2d_78">
     <path d="M 66.6 129.351688 
L 86.6 129.351688 
" style="fill:none;stroke:#8c564b;stroke-linecap:square;stroke-width:1.5;"/>
    </g>
    <g id="line2d_79"/>
    <g id="text_20">
     <!-- Mrk509_2016_EF_20_rbf.jld2 -->
     <g transform="translate(94.6 132.851688)scale(0.1 -0.1)">
      <use xlink:href="#DejaVuSans-77"/>
      <use x="86.279297" xlink:href="#DejaVuSans-114"/>
      <use x="127.392578" xlink:href="#DejaVuSans-107"/>
      <use x="185.302734" xlink:href="#DejaVuSans-53"/>
      <use x="248.925781" xlink:href="#DejaVuSans-48"/>
      <use x="312.548828" xlink:href="#DejaVuSans-57"/>
      <use x="376.171875" xlink:href="#DejaVuSans-95"/>
      <use x="426.171875" xlink:href="#DejaVuSans-50"/>
      <use x="489.794922" xlink:href="#DejaVuSans-48"/>
      <use x="553.417969" xlink:href="#DejaVuSans-49"/>
      <use x="617.041016" xlink:href="#DejaVuSans-54"/>
      <use x="680.664062" xlink:href="#DejaVuSans-95"/>
      <use x="730.664062" xlink:href="#DejaVuSans-69"/>
      <use x="793.847656" xlink:href="#DejaVuSans-70"/>
      <use x="851.367188" xlink:href="#DejaVuSans-95"/>
      <use x="901.367188" xlink:href="#DejaVuSans-50"/>
      <use x="964.990234" xlink:href="#DejaVuSans-48"/>
      <use x="1028.613281" xlink:href="#DejaVuSans-95"/>
      <use x="1078.613281" xlink:href="#DejaVuSans-114"/>
      <use x="1119.726562" xlink:href="#DejaVuSans-98"/>
      <use x="1183.203125" xlink:href="#DejaVuSans-102"/>
      <use x="1211.158203" xlink:href="#DejaVuSans-46"/>
      <use x="1242.945312" xlink:href="#DejaVuSans-106"/>
      <use x="1270.728516" xlink:href="#DejaVuSans-108"/>
      <use x="1298.511719" xlink:href="#DejaVuSans-100"/>
      <use x="1361.988281" xlink:href="#DejaVuSans-50"/>
     </g>
    </g>
    <g id="line2d_80">
     <path d="M 66.6 144.307938 
L 86.6 144.307938 
" style="fill:none;stroke:#e377c2;stroke-linecap:square;stroke-width:1.5;"/>
    </g>
    <g id="line2d_81"/>
    <g id="text_21">
     <!-- Mrk509_2016_EF_30_matern12.jld2 -->
     <g transform="translate(94.6 147.807938)scale(0.1 -0.1)">
      <use xlink:href="#DejaVuSans-77"/>
      <use x="86.279297" xlink:href="#DejaVuSans-114"/>
      <use x="127.392578" xlink:href="#DejaVuSans-107"/>
      <use x="185.302734" xlink:href="#DejaVuSans-53"/>
      <use x="248.925781" xlink:href="#DejaVuSans-48"/>
      <use x="312.548828" xlink:href="#DejaVuSans-57"/>
      <use x="376.171875" xlink:href="#DejaVuSans-95"/>
      <use x="426.171875" xlink:href="#DejaVuSans-50"/>
      <use x="489.794922" xlink:href="#DejaVuSans-48"/>
      <use x="553.417969" xlink:href="#DejaVuSans-49"/>
      <use x="617.041016" xlink:href="#DejaVuSans-54"/>
      <use x="680.664062" xlink:href="#DejaVuSans-95"/>
      <use x="730.664062" xlink:href="#DejaVuSans-69"/>
      <use x="793.847656" xlink:href="#DejaVuSans-70"/>
      <use x="851.367188" xlink:href="#DejaVuSans-95"/>
      <use x="901.367188" xlink:href="#DejaVuSans-51"/>
      <use x="964.990234" xlink:href="#DejaVuSans-48"/>
      <use x="1028.613281" xlink:href="#DejaVuSans-95"/>
      <use x="1078.613281" xlink:href="#DejaVuSans-109"/>
      <use x="1176.025391" xlink:href="#DejaVuSans-97"/>
      <use x="1237.304688" xlink:href="#DejaVuSans-116"/>
      <use x="1276.513672" xlink:href="#DejaVuSans-101"/>
      <use x="1338.037109" xlink:href="#DejaVuSans-114"/>
      <use x="1377.400391" xlink:href="#DejaVuSans-110"/>
      <use x="1440.779297" xlink:href="#DejaVuSans-49"/>
      <use x="1504.402344" xlink:href="#DejaVuSans-50"/>
      <use x="1568.025391" xlink:href="#DejaVuSans-46"/>
      <use x="1599.8125" xlink:href="#DejaVuSans-106"/>
      <use x="1627.595703" xlink:href="#DejaVuSans-108"/>
      <use x="1655.378906" xlink:href="#DejaVuSans-100"/>
      <use x="1718.855469" xlink:href="#DejaVuSans-50"/>
     </g>
    </g>
    <g id="line2d_82">
     <path d="M 66.6 159.264188 
L 86.6 159.264188 
" style="fill:none;stroke:#7f7f7f;stroke-linecap:square;stroke-width:1.5;"/>
    </g>
    <g id="line2d_83"/>
    <g id="text_22">
     <!-- Mrk509_2016_EF_30_matern32.jld2 -->
     <g transform="translate(94.6 162.764188)scale(0.1 -0.1)">
      <use xlink:href="#DejaVuSans-77"/>
      <use x="86.279297" xlink:href="#DejaVuSans-114"/>
      <use x="127.392578" xlink:href="#DejaVuSans-107"/>
      <use x="185.302734" xlink:href="#DejaVuSans-53"/>
      <use x="248.925781" xlink:href="#DejaVuSans-48"/>
      <use x="312.548828" xlink:href="#DejaVuSans-57"/>
      <use x="376.171875" xlink:href="#DejaVuSans-95"/>
      <use x="426.171875" xlink:href="#DejaVuSans-50"/>
      <use x="489.794922" xlink:href="#DejaVuSans-48"/>
      <use x="553.417969" xlink:href="#DejaVuSans-49"/>
      <use x="617.041016" xlink:href="#DejaVuSans-54"/>
      <use x="680.664062" xlink:href="#DejaVuSans-95"/>
      <use x="730.664062" xlink:href="#DejaVuSans-69"/>
      <use x="793.847656" xlink:href="#DejaVuSans-70"/>
      <use x="851.367188" xlink:href="#DejaVuSans-95"/>
      <use x="901.367188" xlink:href="#DejaVuSans-51"/>
      <use x="964.990234" xlink:href="#DejaVuSans-48"/>
      <use x="1028.613281" xlink:href="#DejaVuSans-95"/>
      <use x="1078.613281" xlink:href="#DejaVuSans-109"/>
      <use x="1176.025391" xlink:href="#DejaVuSans-97"/>
      <use x="1237.304688" xlink:href="#DejaVuSans-116"/>
      <use x="1276.513672" xlink:href="#DejaVuSans-101"/>
      <use x="1338.037109" xlink:href="#DejaVuSans-114"/>
      <use x="1377.400391" xlink:href="#DejaVuSans-110"/>
      <use x="1440.779297" xlink:href="#DejaVuSans-51"/>
      <use x="1504.402344" xlink:href="#DejaVuSans-50"/>
      <use x="1568.025391" xlink:href="#DejaVuSans-46"/>
      <use x="1599.8125" xlink:href="#DejaVuSans-106"/>
      <use x="1627.595703" xlink:href="#DejaVuSans-108"/>
      <use x="1655.378906" xlink:href="#DejaVuSans-100"/>
      <use x="1718.855469" xlink:href="#DejaVuSans-50"/>
     </g>
    </g>
    <g id="line2d_84">
     <path d="M 66.6 174.220438 
L 86.6 174.220438 
" style="fill:none;stroke:#bcbd22;stroke-linecap:square;stroke-width:1.5;"/>
    </g>
    <g id="line2d_85"/>
    <g id="text_23">
     <!-- Mrk509_2016_EF_30_rbf.jld2 -->
     <g transform="translate(94.6 177.720438)scale(0.1 -0.1)">
      <use xlink:href="#DejaVuSans-77"/>
      <use x="86.279297" xlink:href="#DejaVuSans-114"/>
      <use x="127.392578" xlink:href="#DejaVuSans-107"/>
      <use x="185.302734" xlink:href="#DejaVuSans-53"/>
      <use x="248.925781" xlink:href="#DejaVuSans-48"/>
      <use x="312.548828" xlink:href="#DejaVuSans-57"/>
      <use x="376.171875" xlink:href="#DejaVuSans-95"/>
      <use x="426.171875" xlink:href="#DejaVuSans-50"/>
      <use x="489.794922" xlink:href="#DejaVuSans-48"/>
      <use x="553.417969" xlink:href="#DejaVuSans-49"/>
      <use x="617.041016" xlink:href="#DejaVuSans-54"/>
      <use x="680.664062" xlink:href="#DejaVuSans-95"/>
      <use x="730.664062" xlink:href="#DejaVuSans-69"/>
      <use x="793.847656" xlink:href="#DejaVuSans-70"/>
      <use x="851.367188" xlink:href="#DejaVuSans-95"/>
      <use x="901.367188" xlink:href="#DejaVuSans-51"/>
      <use x="964.990234" xlink:href="#DejaVuSans-48"/>
      <use x="1028.613281" xlink:href="#DejaVuSans-95"/>
      <use x="1078.613281" xlink:href="#DejaVuSans-114"/>
      <use x="1119.726562" xlink:href="#DejaVuSans-98"/>
      <use x="1183.203125" xlink:href="#DejaVuSans-102"/>
      <use x="1211.158203" xlink:href="#DejaVuSans-46"/>
      <use x="1242.945312" xlink:href="#DejaVuSans-106"/>
      <use x="1270.728516" xlink:href="#DejaVuSans-108"/>
      <use x="1298.511719" xlink:href="#DejaVuSans-100"/>
      <use x="1361.988281" xlink:href="#DejaVuSans-50"/>
     </g>
    </g>
   </g>
  </g>
 </g>
 <defs>
  <clipPath id="p1b143cda9a">
   <rect height="266.112" width="357.12" x="57.6" y="41.472"/>
  </clipPath>
 </defs>
</svg>
