<?xml version="1.0" encoding="utf-8" standalone="no"?>
<!DOCTYPE svg PUBLIC "-//W3C//DTD SVG 1.1//EN"
  "http://www.w3.org/Graphics/SVG/1.1/DTD/svg11.dtd">
<svg xmlns:xlink="http://www.w3.org/1999/xlink" width="460.8pt" height="345.6pt" viewBox="0 0 460.8 345.6" xmlns="http://www.w3.org/2000/svg" version="1.1">
 <metadata>
  <rdf:RDF xmlns:dc="http://purl.org/dc/elements/1.1/" xmlns:cc="http://creativecommons.org/ns#" xmlns:rdf="http://www.w3.org/1999/02/22-rdf-syntax-ns#">
   <cc:Work>
    <dc:type rdf:resource="http://purl.org/dc/dcmitype/StillImage"/>
    <dc:date>2022-01-28T09:47:23.023649</dc:date>
    <dc:format>image/svg+xml</dc:format>
    <dc:creator>
     <cc:Agent>
      <dc:title>Matplotlib v3.5.1, https://matplotlib.org/</dc:title>
     </cc:Agent>
    </dc:creator>
   </cc:Work>
  </rdf:RDF>
 </metadata>
 <defs>
  <style type="text/css">*{stroke-linejoin: round; stroke-linecap: butt}</style>
 </defs>
 <g id="figure_1">
  <g id="patch_1">
   <path d="M 0 345.6 
L 460.8 345.6 
L 460.8 0 
L 0 0 
z
" style="fill: #ffffff"/>
  </g>
  <g id="axes_1">
   <g id="patch_2">
    <path d="M 57.6 307.584 
L 414.72 307.584 
L 414.72 41.472 
L 57.6 41.472 
z
" style="fill: #ffffff"/>
   </g>
   <g id="matplotlib.axis_1">
    <g id="xtick_1">
     <g id="line2d_1">
      <defs>
       <path id="m0c42918e63" d="M 0 0 
L 0 3.5 
" style="stroke: #000000; stroke-width: 0.8"/>
      </defs>
      <g>
       <use xlink:href="#m0c42918e63" x="73.634834" y="307.584" style="stroke: #000000; stroke-width: 0.8"/>
      </g>
     </g>
     <g id="text_1">
      <!-- 0 -->
      <g transform="translate(70.453584 322.182437)scale(0.1 -0.1)">
       <defs>
        <path id="DejaVuSans-30" d="M 2034 4250 
Q 1547 4250 1301 3770 
Q 1056 3291 1056 2328 
Q 1056 1369 1301 889 
Q 1547 409 2034 409 
Q 2525 409 2770 889 
Q 3016 1369 3016 2328 
Q 3016 3291 2770 3770 
Q 2525 4250 2034 4250 
z
M 2034 4750 
Q 2819 4750 3233 4129 
Q 3647 3509 3647 2328 
Q 3647 1150 3233 529 
Q 2819 -91 2034 -91 
Q 1250 -91 836 529 
Q 422 1150 422 2328 
Q 422 3509 836 4129 
Q 1250 4750 2034 4750 
z
" transform="scale(0.015625)"/>
       </defs>
       <use xlink:href="#DejaVuSans-30"/>
      </g>
     </g>
    </g>
    <g id="xtick_2">
     <g id="line2d_2">
      <g>
       <use xlink:href="#m0c42918e63" x="120.110886" y="307.584" style="stroke: #000000; stroke-width: 0.8"/>
      </g>
     </g>
     <g id="text_2">
      <!-- 50 -->
      <g transform="translate(113.748386 322.182437)scale(0.1 -0.1)">
       <defs>
        <path id="DejaVuSans-35" d="M 691 4666 
L 3169 4666 
L 3169 4134 
L 1269 4134 
L 1269 2991 
Q 1406 3038 1543 3061 
Q 1681 3084 1819 3084 
Q 2600 3084 3056 2656 
Q 3513 2228 3513 1497 
Q 3513 744 3044 326 
Q 2575 -91 1722 -91 
Q 1428 -91 1123 -41 
Q 819 9 494 109 
L 494 744 
Q 775 591 1075 516 
Q 1375 441 1709 441 
Q 2250 441 2565 725 
Q 2881 1009 2881 1497 
Q 2881 1984 2565 2268 
Q 2250 2553 1709 2553 
Q 1456 2553 1204 2497 
Q 953 2441 691 2322 
L 691 4666 
z
" transform="scale(0.015625)"/>
       </defs>
       <use xlink:href="#DejaVuSans-35"/>
       <use xlink:href="#DejaVuSans-30" x="63.623047"/>
      </g>
     </g>
    </g>
    <g id="xtick_3">
     <g id="line2d_3">
      <g>
       <use xlink:href="#m0c42918e63" x="166.586938" y="307.584" style="stroke: #000000; stroke-width: 0.8"/>
      </g>
     </g>
     <g id="text_3">
      <!-- 100 -->
      <g transform="translate(157.043188 322.182437)scale(0.1 -0.1)">
       <defs>
        <path id="DejaVuSans-31" d="M 794 531 
L 1825 531 
L 1825 4091 
L 703 3866 
L 703 4441 
L 1819 4666 
L 2450 4666 
L 2450 531 
L 3481 531 
L 3481 0 
L 794 0 
L 794 531 
z
" transform="scale(0.015625)"/>
       </defs>
       <use xlink:href="#DejaVuSans-31"/>
       <use xlink:href="#DejaVuSans-30" x="63.623047"/>
       <use xlink:href="#DejaVuSans-30" x="127.246094"/>
      </g>
     </g>
    </g>
    <g id="xtick_4">
     <g id="line2d_4">
      <g>
       <use xlink:href="#m0c42918e63" x="213.06299" y="307.584" style="stroke: #000000; stroke-width: 0.8"/>
      </g>
     </g>
     <g id="text_4">
      <!-- 150 -->
      <g transform="translate(203.51924 322.182437)scale(0.1 -0.1)">
       <use xlink:href="#DejaVuSans-31"/>
       <use xlink:href="#DejaVuSans-35" x="63.623047"/>
       <use xlink:href="#DejaVuSans-30" x="127.246094"/>
      </g>
     </g>
    </g>
    <g id="xtick_5">
     <g id="line2d_5">
      <g>
       <use xlink:href="#m0c42918e63" x="259.539042" y="307.584" style="stroke: #000000; stroke-width: 0.8"/>
      </g>
     </g>
     <g id="text_5">
      <!-- 200 -->
      <g transform="translate(249.995292 322.182437)scale(0.1 -0.1)">
       <defs>
        <path id="DejaVuSans-32" d="M 1228 531 
L 3431 531 
L 3431 0 
L 469 0 
L 469 531 
Q 828 903 1448 1529 
Q 2069 2156 2228 2338 
Q 2531 2678 2651 2914 
Q 2772 3150 2772 3378 
Q 2772 3750 2511 3984 
Q 2250 4219 1831 4219 
Q 1534 4219 1204 4116 
Q 875 4013 500 3803 
L 500 4441 
Q 881 4594 1212 4672 
Q 1544 4750 1819 4750 
Q 2544 4750 2975 4387 
Q 3406 4025 3406 3419 
Q 3406 3131 3298 2873 
Q 3191 2616 2906 2266 
Q 2828 2175 2409 1742 
Q 1991 1309 1228 531 
z
" transform="scale(0.015625)"/>
       </defs>
       <use xlink:href="#DejaVuSans-32"/>
       <use xlink:href="#DejaVuSans-30" x="63.623047"/>
       <use xlink:href="#DejaVuSans-30" x="127.246094"/>
      </g>
     </g>
    </g>
    <g id="xtick_6">
     <g id="line2d_6">
      <g>
       <use xlink:href="#m0c42918e63" x="306.015094" y="307.584" style="stroke: #000000; stroke-width: 0.8"/>
      </g>
     </g>
     <g id="text_6">
      <!-- 250 -->
      <g transform="translate(296.471344 322.182437)scale(0.1 -0.1)">
       <use xlink:href="#DejaVuSans-32"/>
       <use xlink:href="#DejaVuSans-35" x="63.623047"/>
       <use xlink:href="#DejaVuSans-30" x="127.246094"/>
      </g>
     </g>
    </g>
    <g id="xtick_7">
     <g id="line2d_7">
      <g>
       <use xlink:href="#m0c42918e63" x="352.491146" y="307.584" style="stroke: #000000; stroke-width: 0.8"/>
      </g>
     </g>
     <g id="text_7">
      <!-- 300 -->
      <g transform="translate(342.947396 322.182437)scale(0.1 -0.1)">
       <defs>
        <path id="DejaVuSans-33" d="M 2597 2516 
Q 3050 2419 3304 2112 
Q 3559 1806 3559 1356 
Q 3559 666 3084 287 
Q 2609 -91 1734 -91 
Q 1441 -91 1130 -33 
Q 819 25 488 141 
L 488 750 
Q 750 597 1062 519 
Q 1375 441 1716 441 
Q 2309 441 2620 675 
Q 2931 909 2931 1356 
Q 2931 1769 2642 2001 
Q 2353 2234 1838 2234 
L 1294 2234 
L 1294 2753 
L 1863 2753 
Q 2328 2753 2575 2939 
Q 2822 3125 2822 3475 
Q 2822 3834 2567 4026 
Q 2313 4219 1838 4219 
Q 1578 4219 1281 4162 
Q 984 4106 628 3988 
L 628 4550 
Q 988 4650 1302 4700 
Q 1616 4750 1894 4750 
Q 2613 4750 3031 4423 
Q 3450 4097 3450 3541 
Q 3450 3153 3228 2886 
Q 3006 2619 2597 2516 
z
" transform="scale(0.015625)"/>
       </defs>
       <use xlink:href="#DejaVuSans-33"/>
       <use xlink:href="#DejaVuSans-30" x="63.623047"/>
       <use xlink:href="#DejaVuSans-30" x="127.246094"/>
      </g>
     </g>
    </g>
    <g id="xtick_8">
     <g id="line2d_8">
      <g>
       <use xlink:href="#m0c42918e63" x="398.967198" y="307.584" style="stroke: #000000; stroke-width: 0.8"/>
      </g>
     </g>
     <g id="text_8">
      <!-- 350 -->
      <g transform="translate(389.423448 322.182437)scale(0.1 -0.1)">
       <use xlink:href="#DejaVuSans-33"/>
       <use xlink:href="#DejaVuSans-35" x="63.623047"/>
       <use xlink:href="#DejaVuSans-30" x="127.246094"/>
      </g>
     </g>
    </g>
   </g>
   <g id="matplotlib.axis_2">
    <g id="ytick_1">
     <g id="line2d_9">
      <defs>
       <path id="mbc5150719d" d="M 0 0 
L -3.5 0 
" style="stroke: #000000; stroke-width: 0.8"/>
      </defs>
      <g>
       <use xlink:href="#mbc5150719d" x="57.6" y="276.033114" style="stroke: #000000; stroke-width: 0.8"/>
      </g>
     </g>
     <g id="text_9">
      <!-- 4 -->
      <g transform="translate(44.2375 279.832333)scale(0.1 -0.1)">
       <defs>
        <path id="DejaVuSans-34" d="M 2419 4116 
L 825 1625 
L 2419 1625 
L 2419 4116 
z
M 2253 4666 
L 3047 4666 
L 3047 1625 
L 3713 1625 
L 3713 1100 
L 3047 1100 
L 3047 0 
L 2419 0 
L 2419 1100 
L 313 1100 
L 313 1709 
L 2253 4666 
z
" transform="scale(0.015625)"/>
       </defs>
       <use xlink:href="#DejaVuSans-34"/>
      </g>
     </g>
    </g>
    <g id="ytick_2">
     <g id="line2d_10">
      <g>
       <use xlink:href="#mbc5150719d" x="57.6" y="228.684088" style="stroke: #000000; stroke-width: 0.8"/>
      </g>
     </g>
     <g id="text_10">
      <!-- 6 -->
      <g transform="translate(44.2375 232.483307)scale(0.1 -0.1)">
       <defs>
        <path id="DejaVuSans-36" d="M 2113 2584 
Q 1688 2584 1439 2293 
Q 1191 2003 1191 1497 
Q 1191 994 1439 701 
Q 1688 409 2113 409 
Q 2538 409 2786 701 
Q 3034 994 3034 1497 
Q 3034 2003 2786 2293 
Q 2538 2584 2113 2584 
z
M 3366 4563 
L 3366 3988 
Q 3128 4100 2886 4159 
Q 2644 4219 2406 4219 
Q 1781 4219 1451 3797 
Q 1122 3375 1075 2522 
Q 1259 2794 1537 2939 
Q 1816 3084 2150 3084 
Q 2853 3084 3261 2657 
Q 3669 2231 3669 1497 
Q 3669 778 3244 343 
Q 2819 -91 2113 -91 
Q 1303 -91 875 529 
Q 447 1150 447 2328 
Q 447 3434 972 4092 
Q 1497 4750 2381 4750 
Q 2619 4750 2861 4703 
Q 3103 4656 3366 4563 
z
" transform="scale(0.015625)"/>
       </defs>
       <use xlink:href="#DejaVuSans-36"/>
      </g>
     </g>
    </g>
    <g id="ytick_3">
     <g id="line2d_11">
      <g>
       <use xlink:href="#mbc5150719d" x="57.6" y="181.335062" style="stroke: #000000; stroke-width: 0.8"/>
      </g>
     </g>
     <g id="text_11">
      <!-- 8 -->
      <g transform="translate(44.2375 185.134281)scale(0.1 -0.1)">
       <defs>
        <path id="DejaVuSans-38" d="M 2034 2216 
Q 1584 2216 1326 1975 
Q 1069 1734 1069 1313 
Q 1069 891 1326 650 
Q 1584 409 2034 409 
Q 2484 409 2743 651 
Q 3003 894 3003 1313 
Q 3003 1734 2745 1975 
Q 2488 2216 2034 2216 
z
M 1403 2484 
Q 997 2584 770 2862 
Q 544 3141 544 3541 
Q 544 4100 942 4425 
Q 1341 4750 2034 4750 
Q 2731 4750 3128 4425 
Q 3525 4100 3525 3541 
Q 3525 3141 3298 2862 
Q 3072 2584 2669 2484 
Q 3125 2378 3379 2068 
Q 3634 1759 3634 1313 
Q 3634 634 3220 271 
Q 2806 -91 2034 -91 
Q 1263 -91 848 271 
Q 434 634 434 1313 
Q 434 1759 690 2068 
Q 947 2378 1403 2484 
z
M 1172 3481 
Q 1172 3119 1398 2916 
Q 1625 2713 2034 2713 
Q 2441 2713 2670 2916 
Q 2900 3119 2900 3481 
Q 2900 3844 2670 4047 
Q 2441 4250 2034 4250 
Q 1625 4250 1398 4047 
Q 1172 3844 1172 3481 
z
" transform="scale(0.015625)"/>
       </defs>
       <use xlink:href="#DejaVuSans-38"/>
      </g>
     </g>
    </g>
    <g id="ytick_4">
     <g id="line2d_12">
      <g>
       <use xlink:href="#mbc5150719d" x="57.6" y="133.986036" style="stroke: #000000; stroke-width: 0.8"/>
      </g>
     </g>
     <g id="text_12">
      <!-- 10 -->
      <g transform="translate(37.875 137.785255)scale(0.1 -0.1)">
       <use xlink:href="#DejaVuSans-31"/>
       <use xlink:href="#DejaVuSans-30" x="63.623047"/>
      </g>
     </g>
    </g>
    <g id="ytick_5">
     <g id="line2d_13">
      <g>
       <use xlink:href="#mbc5150719d" x="57.6" y="86.63701" style="stroke: #000000; stroke-width: 0.8"/>
      </g>
     </g>
     <g id="text_13">
      <!-- 12 -->
      <g transform="translate(37.875 90.436229)scale(0.1 -0.1)">
       <use xlink:href="#DejaVuSans-31"/>
       <use xlink:href="#DejaVuSans-32" x="63.623047"/>
      </g>
     </g>
    </g>
   </g>
   <g id="line2d_14">
    <defs>
     <path id="mc70001a3a1" d="M 0 3 
C 0.795609 3 1.55874 2.683901 2.12132 2.12132 
C 2.683901 1.55874 3 0.795609 3 0 
C 3 -0.795609 2.683901 -1.55874 2.12132 -2.12132 
C 1.55874 -2.683901 0.795609 -3 0 -3 
C -0.795609 -3 -1.55874 -2.683901 -2.12132 -2.12132 
C -2.683901 -1.55874 -3 -0.795609 -3 0 
C -3 0.795609 -2.683901 1.55874 -2.12132 2.12132 
C -1.55874 2.683901 -0.795609 3 0 3 
z
" style="stroke: #1f77b4"/>
    </defs>
    <g clip-path="url(#pf4dbe68c4b)">
     <use xlink:href="#mc70001a3a1" x="111.359371" y="234.120331" style="fill: #1f77b4; stroke: #1f77b4"/>
     <use xlink:href="#mc70001a3a1" x="119.573268" y="275.966254" style="fill: #1f77b4; stroke: #1f77b4"/>
     <use xlink:href="#mc70001a3a1" x="111.16992" y="235.714461" style="fill: #1f77b4; stroke: #1f77b4"/>
     <use xlink:href="#mc70001a3a1" x="118.720827" y="275.583172" style="fill: #1f77b4; stroke: #1f77b4"/>
     <use xlink:href="#mc70001a3a1" x="80.144322" y="260.531872" style="fill: #1f77b4; stroke: #1f77b4"/>
     <use xlink:href="#mc70001a3a1" x="97.311771" y="257.091088" style="fill: #1f77b4; stroke: #1f77b4"/>
     <use xlink:href="#mc70001a3a1" x="76.362858" y="224.446836" style="fill: #1f77b4; stroke: #1f77b4"/>
     <use xlink:href="#mc70001a3a1" x="73.832727" y="238.746458" style="fill: #1f77b4; stroke: #1f77b4"/>
     <use xlink:href="#mc70001a3a1" x="118.93216" y="274.567433" style="fill: #1f77b4; stroke: #1f77b4"/>
     <use xlink:href="#mc70001a3a1" x="99.532459" y="261.55542" style="fill: #1f77b4; stroke: #1f77b4"/>
     <use xlink:href="#mc70001a3a1" x="95.219331" y="255.213995" style="fill: #1f77b4; stroke: #1f77b4"/>
     <use xlink:href="#mc70001a3a1" x="86.99712" y="277.77496" style="fill: #1f77b4; stroke: #1f77b4"/>
     <use xlink:href="#mc70001a3a1" x="87.423081" y="281.572691" style="fill: #1f77b4; stroke: #1f77b4"/>
     <use xlink:href="#mc70001a3a1" x="77.076916" y="219.004996" style="fill: #1f77b4; stroke: #1f77b4"/>
     <use xlink:href="#mc70001a3a1" x="117.035227" y="262.248827" style="fill: #1f77b4; stroke: #1f77b4"/>
     <use xlink:href="#mc70001a3a1" x="115.864123" y="243.981851" style="fill: #1f77b4; stroke: #1f77b4"/>
     <use xlink:href="#mc70001a3a1" x="96.2695" y="257.315099" style="fill: #1f77b4; stroke: #1f77b4"/>
     <use xlink:href="#mc70001a3a1" x="120.033576" y="275.525473" style="fill: #1f77b4; stroke: #1f77b4"/>
     <use xlink:href="#mc70001a3a1" x="109.824733" y="247.272108" style="fill: #1f77b4; stroke: #1f77b4"/>
     <use xlink:href="#mc70001a3a1" x="92.85902" y="256.469756" style="fill: #1f77b4; stroke: #1f77b4"/>
     <use xlink:href="#mc70001a3a1" x="94.730534" y="250.508539" style="fill: #1f77b4; stroke: #1f77b4"/>
     <use xlink:href="#mc70001a3a1" x="90.03879" y="295.193633" style="fill: #1f77b4; stroke: #1f77b4"/>
     <use xlink:href="#mc70001a3a1" x="91.791812" y="275.649808" style="fill: #1f77b4; stroke: #1f77b4"/>
     <use xlink:href="#mc70001a3a1" x="99.457525" y="255.914668" style="fill: #1f77b4; stroke: #1f77b4"/>
     <use xlink:href="#mc70001a3a1" x="120.088014" y="274.831144" style="fill: #1f77b4; stroke: #1f77b4"/>
     <use xlink:href="#mc70001a3a1" x="103.107846" y="248.11951" style="fill: #1f77b4; stroke: #1f77b4"/>
     <use xlink:href="#mc70001a3a1" x="106.397535" y="251.52933" style="fill: #1f77b4; stroke: #1f77b4"/>
     <use xlink:href="#mc70001a3a1" x="89.081496" y="295.488" style="fill: #1f77b4; stroke: #1f77b4"/>
     <use xlink:href="#mc70001a3a1" x="83.290025" y="263.049609" style="fill: #1f77b4; stroke: #1f77b4"/>
     <use xlink:href="#mc70001a3a1" x="97.67552" y="255.360382" style="fill: #1f77b4; stroke: #1f77b4"/>
     <use xlink:href="#mc70001a3a1" x="90.793391" y="288.060905" style="fill: #1f77b4; stroke: #1f77b4"/>
     <use xlink:href="#mc70001a3a1" x="111.792278" y="232.580707" style="fill: #1f77b4; stroke: #1f77b4"/>
     <use xlink:href="#mc70001a3a1" x="83.952657" y="263.223525" style="fill: #1f77b4; stroke: #1f77b4"/>
     <use xlink:href="#mc70001a3a1" x="103.951626" y="249.543237" style="fill: #1f77b4; stroke: #1f77b4"/>
     <use xlink:href="#mc70001a3a1" x="112.428434" y="227.12654" style="fill: #1f77b4; stroke: #1f77b4"/>
     <use xlink:href="#mc70001a3a1" x="101.657501" y="245.853006" style="fill: #1f77b4; stroke: #1f77b4"/>
     <use xlink:href="#mc70001a3a1" x="111.917535" y="233.739741" style="fill: #1f77b4; stroke: #1f77b4"/>
     <use xlink:href="#mc70001a3a1" x="77.124336" y="218.938305" style="fill: #1f77b4; stroke: #1f77b4"/>
     <use xlink:href="#mc70001a3a1" x="103.753494" y="247.978784" style="fill: #1f77b4; stroke: #1f77b4"/>
     <use xlink:href="#mc70001a3a1" x="80.234721" y="257.804896" style="fill: #1f77b4; stroke: #1f77b4"/>
     <use xlink:href="#mc70001a3a1" x="97.981808" y="258.653084" style="fill: #1f77b4; stroke: #1f77b4"/>
     <use xlink:href="#mc70001a3a1" x="102.172853" y="246.012488" style="fill: #1f77b4; stroke: #1f77b4"/>
     <use xlink:href="#mc70001a3a1" x="95.282245" y="256.400168" style="fill: #1f77b4; stroke: #1f77b4"/>
     <use xlink:href="#mc70001a3a1" x="113.564194" y="229.9864" style="fill: #1f77b4; stroke: #1f77b4"/>
     <use xlink:href="#mc70001a3a1" x="104.886564" y="253.568584" style="fill: #1f77b4; stroke: #1f77b4"/>
     <use xlink:href="#mc70001a3a1" x="114.424723" y="235.417328" style="fill: #1f77b4; stroke: #1f77b4"/>
     <use xlink:href="#mc70001a3a1" x="81.822002" y="268.076785" style="fill: #1f77b4; stroke: #1f77b4"/>
     <use xlink:href="#mc70001a3a1" x="83.622724" y="262.74515" style="fill: #1f77b4; stroke: #1f77b4"/>
     <use xlink:href="#mc70001a3a1" x="111.478737" y="237.018611" style="fill: #1f77b4; stroke: #1f77b4"/>
     <use xlink:href="#mc70001a3a1" x="95.287331" y="256.567339" style="fill: #1f77b4; stroke: #1f77b4"/>
    </g>
   </g>
   <g id="line2d_15">
    <defs>
     <path id="m89692a4337" d="M 0 3 
C 0.795609 3 1.55874 2.683901 2.12132 2.12132 
C 2.683901 1.55874 3 0.795609 3 0 
C 3 -0.795609 2.683901 -1.55874 2.12132 -2.12132 
C 1.55874 -2.683901 0.795609 -3 0 -3 
C -0.795609 -3 -1.55874 -2.683901 -2.12132 -2.12132 
C -2.683901 -1.55874 -3 -0.795609 -3 0 
C -3 0.795609 -2.683901 1.55874 -2.12132 2.12132 
C -1.55874 2.683901 -0.795609 3 0 3 
z
" style="stroke: #ff7f0e"/>
    </defs>
    <g clip-path="url(#pf4dbe68c4b)">
     <use xlink:href="#m89692a4337" x="186.706004" y="278.93099" style="fill: #ff7f0e; stroke: #ff7f0e"/>
     <use xlink:href="#m89692a4337" x="206.251573" y="262.674419" style="fill: #ff7f0e; stroke: #ff7f0e"/>
     <use xlink:href="#m89692a4337" x="197.987845" y="206.557308" style="fill: #ff7f0e; stroke: #ff7f0e"/>
     <use xlink:href="#m89692a4337" x="172.746543" y="267.430517" style="fill: #ff7f0e; stroke: #ff7f0e"/>
     <use xlink:href="#m89692a4337" x="193.215692" y="226.641147" style="fill: #ff7f0e; stroke: #ff7f0e"/>
     <use xlink:href="#m89692a4337" x="180.595588" y="226.958797" style="fill: #ff7f0e; stroke: #ff7f0e"/>
     <use xlink:href="#m89692a4337" x="173.268201" y="259.107958" style="fill: #ff7f0e; stroke: #ff7f0e"/>
     <use xlink:href="#m89692a4337" x="199.531725" y="211.949088" style="fill: #ff7f0e; stroke: #ff7f0e"/>
     <use xlink:href="#m89692a4337" x="206.115335" y="261.733133" style="fill: #ff7f0e; stroke: #ff7f0e"/>
     <use xlink:href="#m89692a4337" x="206.823898" y="272.249152" style="fill: #ff7f0e; stroke: #ff7f0e"/>
     <use xlink:href="#m89692a4337" x="177.897906" y="235.834878" style="fill: #ff7f0e; stroke: #ff7f0e"/>
     <use xlink:href="#m89692a4337" x="179.10857" y="227.531075" style="fill: #ff7f0e; stroke: #ff7f0e"/>
     <use xlink:href="#m89692a4337" x="181.912634" y="247.972744" style="fill: #ff7f0e; stroke: #ff7f0e"/>
     <use xlink:href="#m89692a4337" x="200.900051" y="205.54705" style="fill: #ff7f0e; stroke: #ff7f0e"/>
     <use xlink:href="#m89692a4337" x="178.445664" y="236.82645" style="fill: #ff7f0e; stroke: #ff7f0e"/>
     <use xlink:href="#m89692a4337" x="211.275162" y="250.920613" style="fill: #ff7f0e; stroke: #ff7f0e"/>
     <use xlink:href="#m89692a4337" x="175.453785" y="246.704948" style="fill: #ff7f0e; stroke: #ff7f0e"/>
     <use xlink:href="#m89692a4337" x="203.227372" y="224.696902" style="fill: #ff7f0e; stroke: #ff7f0e"/>
     <use xlink:href="#m89692a4337" x="181.833827" y="236.882076" style="fill: #ff7f0e; stroke: #ff7f0e"/>
     <use xlink:href="#m89692a4337" x="181.174817" y="237.015367" style="fill: #ff7f0e; stroke: #ff7f0e"/>
     <use xlink:href="#m89692a4337" x="198.794138" y="207.611416" style="fill: #ff7f0e; stroke: #ff7f0e"/>
     <use xlink:href="#m89692a4337" x="172.461448" y="256.461611" style="fill: #ff7f0e; stroke: #ff7f0e"/>
     <use xlink:href="#m89692a4337" x="209.479174" y="275.865795" style="fill: #ff7f0e; stroke: #ff7f0e"/>
     <use xlink:href="#m89692a4337" x="200.508792" y="210.691846" style="fill: #ff7f0e; stroke: #ff7f0e"/>
     <use xlink:href="#m89692a4337" x="204.725875" y="251.532467" style="fill: #ff7f0e; stroke: #ff7f0e"/>
     <use xlink:href="#m89692a4337" x="194.792102" y="213.218444" style="fill: #ff7f0e; stroke: #ff7f0e"/>
     <use xlink:href="#m89692a4337" x="212.583524" y="245.786555" style="fill: #ff7f0e; stroke: #ff7f0e"/>
     <use xlink:href="#m89692a4337" x="184.564976" y="273.2067" style="fill: #ff7f0e; stroke: #ff7f0e"/>
     <use xlink:href="#m89692a4337" x="185.866772" y="276.601367" style="fill: #ff7f0e; stroke: #ff7f0e"/>
     <use xlink:href="#m89692a4337" x="167.761266" y="213.208977" style="fill: #ff7f0e; stroke: #ff7f0e"/>
     <use xlink:href="#m89692a4337" x="197.121361" y="208.778302" style="fill: #ff7f0e; stroke: #ff7f0e"/>
     <use xlink:href="#m89692a4337" x="170.306033" y="228.073728" style="fill: #ff7f0e; stroke: #ff7f0e"/>
     <use xlink:href="#m89692a4337" x="174.3348" y="257.031421" style="fill: #ff7f0e; stroke: #ff7f0e"/>
     <use xlink:href="#m89692a4337" x="172.479532" y="253.821537" style="fill: #ff7f0e; stroke: #ff7f0e"/>
     <use xlink:href="#m89692a4337" x="192.332941" y="234.311365" style="fill: #ff7f0e; stroke: #ff7f0e"/>
     <use xlink:href="#m89692a4337" x="191.57798" y="254.495366" style="fill: #ff7f0e; stroke: #ff7f0e"/>
     <use xlink:href="#m89692a4337" x="199.356801" y="201.657628" style="fill: #ff7f0e; stroke: #ff7f0e"/>
     <use xlink:href="#m89692a4337" x="183.974451" y="273.085505" style="fill: #ff7f0e; stroke: #ff7f0e"/>
     <use xlink:href="#m89692a4337" x="198.906446" y="196.191811" style="fill: #ff7f0e; stroke: #ff7f0e"/>
     <use xlink:href="#m89692a4337" x="168.725606" y="221.72046" style="fill: #ff7f0e; stroke: #ff7f0e"/>
     <use xlink:href="#m89692a4337" x="172.425507" y="261.832141" style="fill: #ff7f0e; stroke: #ff7f0e"/>
     <use xlink:href="#m89692a4337" x="180.611592" y="231.28744" style="fill: #ff7f0e; stroke: #ff7f0e"/>
     <use xlink:href="#m89692a4337" x="210.208377" y="265.738009" style="fill: #ff7f0e; stroke: #ff7f0e"/>
     <use xlink:href="#m89692a4337" x="188.700485" y="260.902639" style="fill: #ff7f0e; stroke: #ff7f0e"/>
     <use xlink:href="#m89692a4337" x="177.042646" y="229.552504" style="fill: #ff7f0e; stroke: #ff7f0e"/>
     <use xlink:href="#m89692a4337" x="199.802779" y="201.28241" style="fill: #ff7f0e; stroke: #ff7f0e"/>
     <use xlink:href="#m89692a4337" x="175.196016" y="248.293841" style="fill: #ff7f0e; stroke: #ff7f0e"/>
     <use xlink:href="#m89692a4337" x="193.866925" y="222.270195" style="fill: #ff7f0e; stroke: #ff7f0e"/>
     <use xlink:href="#m89692a4337" x="206.919618" y="266.603072" style="fill: #ff7f0e; stroke: #ff7f0e"/>
     <use xlink:href="#m89692a4337" x="206.7705" y="258.33777" style="fill: #ff7f0e; stroke: #ff7f0e"/>
    </g>
   </g>
   <g id="line2d_16">
    <defs>
     <path id="m8918e01b8e" d="M 0 3 
C 0.795609 3 1.55874 2.683901 2.12132 2.12132 
C 2.683901 1.55874 3 0.795609 3 0 
C 3 -0.795609 2.683901 -1.55874 2.12132 -2.12132 
C 1.55874 -2.683901 0.795609 -3 0 -3 
C -0.795609 -3 -1.55874 -2.683901 -2.12132 -2.12132 
C -2.683901 -1.55874 -3 -0.795609 -3 0 
C -3 0.795609 -2.683901 1.55874 -2.12132 2.12132 
C -1.55874 2.683901 -0.795609 3 0 3 
z
" style="stroke: #2ca02c"/>
    </defs>
    <g clip-path="url(#pf4dbe68c4b)">
     <use xlink:href="#m8918e01b8e" x="260.703539" y="188.578964" style="fill: #2ca02c; stroke: #2ca02c"/>
     <use xlink:href="#m8918e01b8e" x="299.254811" y="176.156256" style="fill: #2ca02c; stroke: #2ca02c"/>
     <use xlink:href="#m8918e01b8e" x="300.001227" y="172.807054" style="fill: #2ca02c; stroke: #2ca02c"/>
     <use xlink:href="#m8918e01b8e" x="270.219758" y="143.814919" style="fill: #2ca02c; stroke: #2ca02c"/>
     <use xlink:href="#m8918e01b8e" x="284.740511" y="152.489574" style="fill: #2ca02c; stroke: #2ca02c"/>
     <use xlink:href="#m8918e01b8e" x="294.508279" y="249.291107" style="fill: #2ca02c; stroke: #2ca02c"/>
     <use xlink:href="#m8918e01b8e" x="283.731491" y="143.656619" style="fill: #2ca02c; stroke: #2ca02c"/>
     <use xlink:href="#m8918e01b8e" x="301.77017" y="176.014379" style="fill: #2ca02c; stroke: #2ca02c"/>
     <use xlink:href="#m8918e01b8e" x="293.594444" y="248.968446" style="fill: #2ca02c; stroke: #2ca02c"/>
     <use xlink:href="#m8918e01b8e" x="299.136601" y="176.896005" style="fill: #2ca02c; stroke: #2ca02c"/>
     <use xlink:href="#m8918e01b8e" x="261.625714" y="208.956586" style="fill: #2ca02c; stroke: #2ca02c"/>
     <use xlink:href="#m8918e01b8e" x="302.26674" y="191.818574" style="fill: #2ca02c; stroke: #2ca02c"/>
     <use xlink:href="#m8918e01b8e" x="269.493835" y="142.023642" style="fill: #2ca02c; stroke: #2ca02c"/>
     <use xlink:href="#m8918e01b8e" x="297.266785" y="215.591644" style="fill: #2ca02c; stroke: #2ca02c"/>
     <use xlink:href="#m8918e01b8e" x="269.418422" y="139.10834" style="fill: #2ca02c; stroke: #2ca02c"/>
     <use xlink:href="#m8918e01b8e" x="302.067833" y="182.204577" style="fill: #2ca02c; stroke: #2ca02c"/>
     <use xlink:href="#m8918e01b8e" x="295.821005" y="235.726397" style="fill: #2ca02c; stroke: #2ca02c"/>
     <use xlink:href="#m8918e01b8e" x="261.298501" y="202.879477" style="fill: #2ca02c; stroke: #2ca02c"/>
     <use xlink:href="#m8918e01b8e" x="267.721879" y="173.113208" style="fill: #2ca02c; stroke: #2ca02c"/>
     <use xlink:href="#m8918e01b8e" x="273.822348" y="242.955873" style="fill: #2ca02c; stroke: #2ca02c"/>
     <use xlink:href="#m8918e01b8e" x="279.965707" y="193.388274" style="fill: #2ca02c; stroke: #2ca02c"/>
     <use xlink:href="#m8918e01b8e" x="276.014159" y="246.71044" style="fill: #2ca02c; stroke: #2ca02c"/>
     <use xlink:href="#m8918e01b8e" x="280.570887" y="184.17877" style="fill: #2ca02c; stroke: #2ca02c"/>
     <use xlink:href="#m8918e01b8e" x="274.868986" y="253.855341" style="fill: #2ca02c; stroke: #2ca02c"/>
     <use xlink:href="#m8918e01b8e" x="305.405771" y="209.174333" style="fill: #2ca02c; stroke: #2ca02c"/>
     <use xlink:href="#m8918e01b8e" x="289.78591" y="181.856599" style="fill: #2ca02c; stroke: #2ca02c"/>
     <use xlink:href="#m8918e01b8e" x="275.394896" y="256.107886" style="fill: #2ca02c; stroke: #2ca02c"/>
     <use xlink:href="#m8918e01b8e" x="281.459412" y="156.332649" style="fill: #2ca02c; stroke: #2ca02c"/>
     <use xlink:href="#m8918e01b8e" x="304.988445" y="209.278291" style="fill: #2ca02c; stroke: #2ca02c"/>
     <use xlink:href="#m8918e01b8e" x="303.663708" y="206.141562" style="fill: #2ca02c; stroke: #2ca02c"/>
     <use xlink:href="#m8918e01b8e" x="288.371031" y="207.328037" style="fill: #2ca02c; stroke: #2ca02c"/>
     <use xlink:href="#m8918e01b8e" x="299.164618" y="180.248365" style="fill: #2ca02c; stroke: #2ca02c"/>
     <use xlink:href="#m8918e01b8e" x="272.693421" y="222.599848" style="fill: #2ca02c; stroke: #2ca02c"/>
     <use xlink:href="#m8918e01b8e" x="284.848807" y="158.217037" style="fill: #2ca02c; stroke: #2ca02c"/>
     <use xlink:href="#m8918e01b8e" x="269.127765" y="152.392053" style="fill: #2ca02c; stroke: #2ca02c"/>
     <use xlink:href="#m8918e01b8e" x="305.922941" y="210.8631" style="fill: #2ca02c; stroke: #2ca02c"/>
     <use xlink:href="#m8918e01b8e" x="299.10601" y="177.714683" style="fill: #2ca02c; stroke: #2ca02c"/>
     <use xlink:href="#m8918e01b8e" x="275.082475" y="255.26177" style="fill: #2ca02c; stroke: #2ca02c"/>
     <use xlink:href="#m8918e01b8e" x="259.76385" y="183.58775" style="fill: #2ca02c; stroke: #2ca02c"/>
     <use xlink:href="#m8918e01b8e" x="286.49171" y="190.435128" style="fill: #2ca02c; stroke: #2ca02c"/>
     <use xlink:href="#m8918e01b8e" x="299.221674" y="180.565775" style="fill: #2ca02c; stroke: #2ca02c"/>
     <use xlink:href="#m8918e01b8e" x="263.373681" y="222.589685" style="fill: #2ca02c; stroke: #2ca02c"/>
     <use xlink:href="#m8918e01b8e" x="304.691397" y="206.544427" style="fill: #2ca02c; stroke: #2ca02c"/>
     <use xlink:href="#m8918e01b8e" x="275.591835" y="251.349116" style="fill: #2ca02c; stroke: #2ca02c"/>
     <use xlink:href="#m8918e01b8e" x="304.691278" y="205.085041" style="fill: #2ca02c; stroke: #2ca02c"/>
     <use xlink:href="#m8918e01b8e" x="300.282178" y="168.206646" style="fill: #2ca02c; stroke: #2ca02c"/>
     <use xlink:href="#m8918e01b8e" x="305.831939" y="201.892101" style="fill: #2ca02c; stroke: #2ca02c"/>
     <use xlink:href="#m8918e01b8e" x="265.365854" y="242.173118" style="fill: #2ca02c; stroke: #2ca02c"/>
     <use xlink:href="#m8918e01b8e" x="267.221073" y="190.681363" style="fill: #2ca02c; stroke: #2ca02c"/>
     <use xlink:href="#m8918e01b8e" x="284.45834" y="156.882971" style="fill: #2ca02c; stroke: #2ca02c"/>
    </g>
   </g>
   <g id="line2d_17">
    <defs>
     <path id="m2715ce051a" d="M 0 3 
C 0.795609 3 1.55874 2.683901 2.12132 2.12132 
C 2.683901 1.55874 3 0.795609 3 0 
C 3 -0.795609 2.683901 -1.55874 2.12132 -2.12132 
C 1.55874 -2.683901 0.795609 -3 0 -3 
C -0.795609 -3 -1.55874 -2.683901 -2.12132 -2.12132 
C -2.683901 -1.55874 -3 -0.795609 -3 0 
C -3 0.795609 -2.683901 1.55874 -2.12132 2.12132 
C -1.55874 2.683901 -0.795609 3 0 3 
z
" style="stroke: #d62728"/>
    </defs>
    <g clip-path="url(#pf4dbe68c4b)">
     <use xlink:href="#m2715ce051a" x="369.954412" y="140.487903" style="fill: #d62728; stroke: #d62728"/>
     <use xlink:href="#m2715ce051a" x="390.759337" y="182.767081" style="fill: #d62728; stroke: #d62728"/>
     <use xlink:href="#m2715ce051a" x="374.553124" y="142.719081" style="fill: #d62728; stroke: #d62728"/>
     <use xlink:href="#m2715ce051a" x="395.709778" y="245.091508" style="fill: #d62728; stroke: #d62728"/>
     <use xlink:href="#m2715ce051a" x="361.073661" y="170.783034" style="fill: #d62728; stroke: #d62728"/>
     <use xlink:href="#m2715ce051a" x="374.567581" y="139.022282" style="fill: #d62728; stroke: #d62728"/>
     <use xlink:href="#m2715ce051a" x="395.330601" y="241.266718" style="fill: #d62728; stroke: #d62728"/>
     <use xlink:href="#m2715ce051a" x="362.125187" y="166.643029" style="fill: #d62728; stroke: #d62728"/>
     <use xlink:href="#m2715ce051a" x="358.091443" y="200.588092" style="fill: #d62728; stroke: #d62728"/>
     <use xlink:href="#m2715ce051a" x="354.994983" y="148.145465" style="fill: #d62728; stroke: #d62728"/>
     <use xlink:href="#m2715ce051a" x="365.886703" y="104.601846" style="fill: #d62728; stroke: #d62728"/>
     <use xlink:href="#m2715ce051a" x="379.761268" y="69.455057" style="fill: #d62728; stroke: #d62728"/>
     <use xlink:href="#m2715ce051a" x="387.106644" y="222.887861" style="fill: #d62728; stroke: #d62728"/>
     <use xlink:href="#m2715ce051a" x="380.005621" y="66.026483" style="fill: #d62728; stroke: #d62728"/>
     <use xlink:href="#m2715ce051a" x="369.400944" y="141.684973" style="fill: #d62728; stroke: #d62728"/>
     <use xlink:href="#m2715ce051a" x="387.417485" y="226.86371" style="fill: #d62728; stroke: #d62728"/>
     <use xlink:href="#m2715ce051a" x="388.009622" y="223.79324" style="fill: #d62728; stroke: #d62728"/>
     <use xlink:href="#m2715ce051a" x="354.162688" y="133.660974" style="fill: #d62728; stroke: #d62728"/>
     <use xlink:href="#m2715ce051a" x="356.873873" y="197.667884" style="fill: #d62728; stroke: #d62728"/>
     <use xlink:href="#m2715ce051a" x="396.0516" y="248.679802" style="fill: #d62728; stroke: #d62728"/>
     <use xlink:href="#m2715ce051a" x="374.297897" y="148.526174" style="fill: #d62728; stroke: #d62728"/>
     <use xlink:href="#m2715ce051a" x="368.477617" y="137.453912" style="fill: #d62728; stroke: #d62728"/>
     <use xlink:href="#m2715ce051a" x="387.834732" y="216.681239" style="fill: #d62728; stroke: #d62728"/>
     <use xlink:href="#m2715ce051a" x="387.01119" y="222.947556" style="fill: #d62728; stroke: #d62728"/>
     <use xlink:href="#m2715ce051a" x="397.888286" y="263.765886" style="fill: #d62728; stroke: #d62728"/>
     <use xlink:href="#m2715ce051a" x="388.281584" y="211.22719" style="fill: #d62728; stroke: #d62728"/>
     <use xlink:href="#m2715ce051a" x="358.981164" y="198.905461" style="fill: #d62728; stroke: #d62728"/>
     <use xlink:href="#m2715ce051a" x="395.90536" y="246.692143" style="fill: #d62728; stroke: #d62728"/>
     <use xlink:href="#m2715ce051a" x="369.467481" y="139.175591" style="fill: #d62728; stroke: #d62728"/>
     <use xlink:href="#m2715ce051a" x="372.532381" y="144.776126" style="fill: #d62728; stroke: #d62728"/>
     <use xlink:href="#m2715ce051a" x="385.302483" y="206.917605" style="fill: #d62728; stroke: #d62728"/>
     <use xlink:href="#m2715ce051a" x="386.585913" y="221.318061" style="fill: #d62728; stroke: #d62728"/>
     <use xlink:href="#m2715ce051a" x="370.63953" y="137.043955" style="fill: #d62728; stroke: #d62728"/>
     <use xlink:href="#m2715ce051a" x="398.450017" y="258.836889" style="fill: #d62728; stroke: #d62728"/>
     <use xlink:href="#m2715ce051a" x="359.978968" y="179.459322" style="fill: #d62728; stroke: #d62728"/>
     <use xlink:href="#m2715ce051a" x="380.736879" y="99.508237" style="fill: #d62728; stroke: #d62728"/>
     <use xlink:href="#m2715ce051a" x="398.487273" y="262.049358" style="fill: #d62728; stroke: #d62728"/>
     <use xlink:href="#m2715ce051a" x="390.4596" y="180.38424" style="fill: #d62728; stroke: #d62728"/>
     <use xlink:href="#m2715ce051a" x="392.24747" y="178.68664" style="fill: #d62728; stroke: #d62728"/>
     <use xlink:href="#m2715ce051a" x="378.222702" y="53.568" style="fill: #d62728; stroke: #d62728"/>
     <use xlink:href="#m2715ce051a" x="363.259082" y="144.566176" style="fill: #d62728; stroke: #d62728"/>
     <use xlink:href="#m2715ce051a" x="367.927961" y="126.945695" style="fill: #d62728; stroke: #d62728"/>
     <use xlink:href="#m2715ce051a" x="376.409088" y="101.807167" style="fill: #d62728; stroke: #d62728"/>
     <use xlink:href="#m2715ce051a" x="370.043437" y="137.268739" style="fill: #d62728; stroke: #d62728"/>
     <use xlink:href="#m2715ce051a" x="390.444743" y="193.084906" style="fill: #d62728; stroke: #d62728"/>
     <use xlink:href="#m2715ce051a" x="383.071754" y="170.106954" style="fill: #d62728; stroke: #d62728"/>
     <use xlink:href="#m2715ce051a" x="362.761844" y="146.543684" style="fill: #d62728; stroke: #d62728"/>
     <use xlink:href="#m2715ce051a" x="390.012926" y="194.206935" style="fill: #d62728; stroke: #d62728"/>
     <use xlink:href="#m2715ce051a" x="364.030472" y="120.758269" style="fill: #d62728; stroke: #d62728"/>
     <use xlink:href="#m2715ce051a" x="353.898706" y="145.664037" style="fill: #d62728; stroke: #d62728"/>
    </g>
   </g>
   <g id="patch_3">
    <path d="M 57.6 307.584 
L 57.6 41.472 
" style="fill: none; stroke: #000000; stroke-width: 0.8; stroke-linejoin: miter; stroke-linecap: square"/>
   </g>
   <g id="patch_4">
    <path d="M 414.72 307.584 
L 414.72 41.472 
" style="fill: none; stroke: #000000; stroke-width: 0.8; stroke-linejoin: miter; stroke-linecap: square"/>
   </g>
   <g id="patch_5">
    <path d="M 57.6 307.584 
L 414.72 307.584 
" style="fill: none; stroke: #000000; stroke-width: 0.8; stroke-linejoin: miter; stroke-linecap: square"/>
   </g>
   <g id="patch_6">
    <path d="M 57.6 41.472 
L 414.72 41.472 
" style="fill: none; stroke: #000000; stroke-width: 0.8; stroke-linejoin: miter; stroke-linecap: square"/>
   </g>
   <g id="legend_1">
    <g id="patch_7">
     <path d="M 64.6 108.1845 
L 122.05 108.1845 
Q 124.05 108.1845 124.05 106.1845 
L 124.05 48.472 
Q 124.05 46.472 122.05 46.472 
L 64.6 46.472 
Q 62.6 46.472 62.6 48.472 
L 62.6 106.1845 
Q 62.6 108.1845 64.6 108.1845 
z
" style="fill: #ffffff; opacity: 0.8; stroke: #cccccc; stroke-linejoin: miter"/>
    </g>
    <g id="line2d_18">
     <g>
      <use xlink:href="#mc70001a3a1" x="76.6" y="54.570438" style="fill: #1f77b4; stroke: #1f77b4"/>
     </g>
    </g>
    <g id="text_14">
     <!-- 4300 -->
     <g transform="translate(94.6 58.070438)scale(0.1 -0.1)">
      <use xlink:href="#DejaVuSans-34"/>
      <use xlink:href="#DejaVuSans-33" x="63.623047"/>
      <use xlink:href="#DejaVuSans-30" x="127.246094"/>
      <use xlink:href="#DejaVuSans-30" x="190.869141"/>
     </g>
    </g>
    <g id="line2d_19">
     <g>
      <use xlink:href="#m89692a4337" x="76.6" y="69.248563" style="fill: #ff7f0e; stroke: #ff7f0e"/>
     </g>
    </g>
    <g id="text_15">
     <!-- 5700 -->
     <g transform="translate(94.6 72.748563)scale(0.1 -0.1)">
      <defs>
       <path id="DejaVuSans-37" d="M 525 4666 
L 3525 4666 
L 3525 4397 
L 1831 0 
L 1172 0 
L 2766 4134 
L 525 4134 
L 525 4666 
z
" transform="scale(0.015625)"/>
      </defs>
      <use xlink:href="#DejaVuSans-35"/>
      <use xlink:href="#DejaVuSans-37" x="63.623047"/>
      <use xlink:href="#DejaVuSans-30" x="127.246094"/>
      <use xlink:href="#DejaVuSans-30" x="190.869141"/>
     </g>
    </g>
    <g id="line2d_20">
     <g>
      <use xlink:href="#m8918e01b8e" x="76.6" y="83.926688" style="fill: #2ca02c; stroke: #2ca02c"/>
     </g>
    </g>
    <g id="text_16">
     <!-- 6200 -->
     <g transform="translate(94.6 87.426688)scale(0.1 -0.1)">
      <use xlink:href="#DejaVuSans-36"/>
      <use xlink:href="#DejaVuSans-32" x="63.623047"/>
      <use xlink:href="#DejaVuSans-30" x="127.246094"/>
      <use xlink:href="#DejaVuSans-30" x="190.869141"/>
     </g>
    </g>
    <g id="line2d_21">
     <g>
      <use xlink:href="#m2715ce051a" x="76.6" y="98.604813" style="fill: #d62728; stroke: #d62728"/>
     </g>
    </g>
    <g id="text_17">
     <!-- 7800 -->
     <g transform="translate(94.6 102.104813)scale(0.1 -0.1)">
      <use xlink:href="#DejaVuSans-37"/>
      <use xlink:href="#DejaVuSans-38" x="63.623047"/>
      <use xlink:href="#DejaVuSans-30" x="127.246094"/>
      <use xlink:href="#DejaVuSans-30" x="190.869141"/>
     </g>
    </g>
   </g>
  </g>
 </g>
 <defs>
  <clipPath id="pf4dbe68c4b">
   <rect x="57.6" y="41.472" width="357.12" height="266.112"/>
  </clipPath>
 </defs>
</svg>
