<?xml version="1.0" encoding="utf-8" standalone="no"?>
<!DOCTYPE svg PUBLIC "-//W3C//DTD SVG 1.1//EN"
  "http://www.w3.org/Graphics/SVG/1.1/DTD/svg11.dtd">
<svg xmlns:xlink="http://www.w3.org/1999/xlink" width="460.8pt" height="345.6pt" viewBox="0 0 460.8 345.6" xmlns="http://www.w3.org/2000/svg" version="1.1">
 <metadata>
  <rdf:RDF xmlns:dc="http://purl.org/dc/elements/1.1/" xmlns:cc="http://creativecommons.org/ns#" xmlns:rdf="http://www.w3.org/1999/02/22-rdf-syntax-ns#">
   <cc:Work>
    <dc:type rdf:resource="http://purl.org/dc/dcmitype/StillImage"/>
    <dc:date>2022-01-27T15:33:40.060097</dc:date>
    <dc:format>image/svg+xml</dc:format>
    <dc:creator>
     <cc:Agent>
      <dc:title>Matplotlib v3.5.1, https://matplotlib.org/</dc:title>
     </cc:Agent>
    </dc:creator>
   </cc:Work>
  </rdf:RDF>
 </metadata>
 <defs>
  <style type="text/css">*{stroke-linejoin: round; stroke-linecap: butt}</style>
 </defs>
 <g id="figure_1">
  <g id="patch_1">
   <path d="M 0 345.6 
L 460.8 345.6 
L 460.8 0 
L 0 0 
z
" style="fill: #ffffff"/>
  </g>
  <g id="axes_1">
   <g id="patch_2">
    <path d="M 57.6 307.584 
L 414.72 307.584 
L 414.72 41.472 
L 57.6 41.472 
z
" style="fill: #ffffff"/>
   </g>
   <g id="matplotlib.axis_1">
    <g id="xtick_1">
     <g id="line2d_1">
      <defs>
       <path id="m3797b5bd33" d="M 0 0 
L 0 3.5 
" style="stroke: #000000; stroke-width: 0.8"/>
      </defs>
      <g>
       <use xlink:href="#m3797b5bd33" x="71.830587" y="307.584" style="stroke: #000000; stroke-width: 0.8"/>
      </g>
     </g>
     <g id="text_1">
      <!-- 0 -->
      <g transform="translate(68.649337 322.182437)scale(0.1 -0.1)">
       <defs>
        <path id="DejaVuSans-30" d="M 2034 4250 
Q 1547 4250 1301 3770 
Q 1056 3291 1056 2328 
Q 1056 1369 1301 889 
Q 1547 409 2034 409 
Q 2525 409 2770 889 
Q 3016 1369 3016 2328 
Q 3016 3291 2770 3770 
Q 2525 4250 2034 4250 
z
M 2034 4750 
Q 2819 4750 3233 4129 
Q 3647 3509 3647 2328 
Q 3647 1150 3233 529 
Q 2819 -91 2034 -91 
Q 1250 -91 836 529 
Q 422 1150 422 2328 
Q 422 3509 836 4129 
Q 1250 4750 2034 4750 
z
" transform="scale(0.015625)"/>
       </defs>
       <use xlink:href="#DejaVuSans-30"/>
      </g>
     </g>
    </g>
    <g id="xtick_2">
     <g id="line2d_2">
      <g>
       <use xlink:href="#m3797b5bd33" x="118.547832" y="307.584" style="stroke: #000000; stroke-width: 0.8"/>
      </g>
     </g>
     <g id="text_2">
      <!-- 50 -->
      <g transform="translate(112.185332 322.182437)scale(0.1 -0.1)">
       <defs>
        <path id="DejaVuSans-35" d="M 691 4666 
L 3169 4666 
L 3169 4134 
L 1269 4134 
L 1269 2991 
Q 1406 3038 1543 3061 
Q 1681 3084 1819 3084 
Q 2600 3084 3056 2656 
Q 3513 2228 3513 1497 
Q 3513 744 3044 326 
Q 2575 -91 1722 -91 
Q 1428 -91 1123 -41 
Q 819 9 494 109 
L 494 744 
Q 775 591 1075 516 
Q 1375 441 1709 441 
Q 2250 441 2565 725 
Q 2881 1009 2881 1497 
Q 2881 1984 2565 2268 
Q 2250 2553 1709 2553 
Q 1456 2553 1204 2497 
Q 953 2441 691 2322 
L 691 4666 
z
" transform="scale(0.015625)"/>
       </defs>
       <use xlink:href="#DejaVuSans-35"/>
       <use xlink:href="#DejaVuSans-30" x="63.623047"/>
      </g>
     </g>
    </g>
    <g id="xtick_3">
     <g id="line2d_3">
      <g>
       <use xlink:href="#m3797b5bd33" x="165.265078" y="307.584" style="stroke: #000000; stroke-width: 0.8"/>
      </g>
     </g>
     <g id="text_3">
      <!-- 100 -->
      <g transform="translate(155.721328 322.182437)scale(0.1 -0.1)">
       <defs>
        <path id="DejaVuSans-31" d="M 794 531 
L 1825 531 
L 1825 4091 
L 703 3866 
L 703 4441 
L 1819 4666 
L 2450 4666 
L 2450 531 
L 3481 531 
L 3481 0 
L 794 0 
L 794 531 
z
" transform="scale(0.015625)"/>
       </defs>
       <use xlink:href="#DejaVuSans-31"/>
       <use xlink:href="#DejaVuSans-30" x="63.623047"/>
       <use xlink:href="#DejaVuSans-30" x="127.246094"/>
      </g>
     </g>
    </g>
    <g id="xtick_4">
     <g id="line2d_4">
      <g>
       <use xlink:href="#m3797b5bd33" x="211.982323" y="307.584" style="stroke: #000000; stroke-width: 0.8"/>
      </g>
     </g>
     <g id="text_4">
      <!-- 150 -->
      <g transform="translate(202.438573 322.182437)scale(0.1 -0.1)">
       <use xlink:href="#DejaVuSans-31"/>
       <use xlink:href="#DejaVuSans-35" x="63.623047"/>
       <use xlink:href="#DejaVuSans-30" x="127.246094"/>
      </g>
     </g>
    </g>
    <g id="xtick_5">
     <g id="line2d_5">
      <g>
       <use xlink:href="#m3797b5bd33" x="258.699568" y="307.584" style="stroke: #000000; stroke-width: 0.8"/>
      </g>
     </g>
     <g id="text_5">
      <!-- 200 -->
      <g transform="translate(249.155818 322.182437)scale(0.1 -0.1)">
       <defs>
        <path id="DejaVuSans-32" d="M 1228 531 
L 3431 531 
L 3431 0 
L 469 0 
L 469 531 
Q 828 903 1448 1529 
Q 2069 2156 2228 2338 
Q 2531 2678 2651 2914 
Q 2772 3150 2772 3378 
Q 2772 3750 2511 3984 
Q 2250 4219 1831 4219 
Q 1534 4219 1204 4116 
Q 875 4013 500 3803 
L 500 4441 
Q 881 4594 1212 4672 
Q 1544 4750 1819 4750 
Q 2544 4750 2975 4387 
Q 3406 4025 3406 3419 
Q 3406 3131 3298 2873 
Q 3191 2616 2906 2266 
Q 2828 2175 2409 1742 
Q 1991 1309 1228 531 
z
" transform="scale(0.015625)"/>
       </defs>
       <use xlink:href="#DejaVuSans-32"/>
       <use xlink:href="#DejaVuSans-30" x="63.623047"/>
       <use xlink:href="#DejaVuSans-30" x="127.246094"/>
      </g>
     </g>
    </g>
    <g id="xtick_6">
     <g id="line2d_6">
      <g>
       <use xlink:href="#m3797b5bd33" x="305.416813" y="307.584" style="stroke: #000000; stroke-width: 0.8"/>
      </g>
     </g>
     <g id="text_6">
      <!-- 250 -->
      <g transform="translate(295.873063 322.182437)scale(0.1 -0.1)">
       <use xlink:href="#DejaVuSans-32"/>
       <use xlink:href="#DejaVuSans-35" x="63.623047"/>
       <use xlink:href="#DejaVuSans-30" x="127.246094"/>
      </g>
     </g>
    </g>
    <g id="xtick_7">
     <g id="line2d_7">
      <g>
       <use xlink:href="#m3797b5bd33" x="352.134058" y="307.584" style="stroke: #000000; stroke-width: 0.8"/>
      </g>
     </g>
     <g id="text_7">
      <!-- 300 -->
      <g transform="translate(342.590308 322.182437)scale(0.1 -0.1)">
       <defs>
        <path id="DejaVuSans-33" d="M 2597 2516 
Q 3050 2419 3304 2112 
Q 3559 1806 3559 1356 
Q 3559 666 3084 287 
Q 2609 -91 1734 -91 
Q 1441 -91 1130 -33 
Q 819 25 488 141 
L 488 750 
Q 750 597 1062 519 
Q 1375 441 1716 441 
Q 2309 441 2620 675 
Q 2931 909 2931 1356 
Q 2931 1769 2642 2001 
Q 2353 2234 1838 2234 
L 1294 2234 
L 1294 2753 
L 1863 2753 
Q 2328 2753 2575 2939 
Q 2822 3125 2822 3475 
Q 2822 3834 2567 4026 
Q 2313 4219 1838 4219 
Q 1578 4219 1281 4162 
Q 984 4106 628 3988 
L 628 4550 
Q 988 4650 1302 4700 
Q 1616 4750 1894 4750 
Q 2613 4750 3031 4423 
Q 3450 4097 3450 3541 
Q 3450 3153 3228 2886 
Q 3006 2619 2597 2516 
z
" transform="scale(0.015625)"/>
       </defs>
       <use xlink:href="#DejaVuSans-33"/>
       <use xlink:href="#DejaVuSans-30" x="63.623047"/>
       <use xlink:href="#DejaVuSans-30" x="127.246094"/>
      </g>
     </g>
    </g>
    <g id="xtick_8">
     <g id="line2d_8">
      <g>
       <use xlink:href="#m3797b5bd33" x="398.851303" y="307.584" style="stroke: #000000; stroke-width: 0.8"/>
      </g>
     </g>
     <g id="text_8">
      <!-- 350 -->
      <g transform="translate(389.307553 322.182437)scale(0.1 -0.1)">
       <use xlink:href="#DejaVuSans-33"/>
       <use xlink:href="#DejaVuSans-35" x="63.623047"/>
       <use xlink:href="#DejaVuSans-30" x="127.246094"/>
      </g>
     </g>
    </g>
   </g>
   <g id="matplotlib.axis_2">
    <g id="ytick_1">
     <g id="line2d_9">
      <defs>
       <path id="mea8c46d58a" d="M 0 0 
L -3.5 0 
" style="stroke: #000000; stroke-width: 0.8"/>
      </defs>
      <g>
       <use xlink:href="#mea8c46d58a" x="57.6" y="274.912622" style="stroke: #000000; stroke-width: 0.8"/>
      </g>
     </g>
     <g id="text_9">
      <!-- 4 -->
      <g transform="translate(44.2375 278.711841)scale(0.1 -0.1)">
       <defs>
        <path id="DejaVuSans-34" d="M 2419 4116 
L 825 1625 
L 2419 1625 
L 2419 4116 
z
M 2253 4666 
L 3047 4666 
L 3047 1625 
L 3713 1625 
L 3713 1100 
L 3047 1100 
L 3047 0 
L 2419 0 
L 2419 1100 
L 313 1100 
L 313 1709 
L 2253 4666 
z
" transform="scale(0.015625)"/>
       </defs>
       <use xlink:href="#DejaVuSans-34"/>
      </g>
     </g>
    </g>
    <g id="ytick_2">
     <g id="line2d_10">
      <g>
       <use xlink:href="#mea8c46d58a" x="57.6" y="231.922652" style="stroke: #000000; stroke-width: 0.8"/>
      </g>
     </g>
     <g id="text_10">
      <!-- 6 -->
      <g transform="translate(44.2375 235.721871)scale(0.1 -0.1)">
       <defs>
        <path id="DejaVuSans-36" d="M 2113 2584 
Q 1688 2584 1439 2293 
Q 1191 2003 1191 1497 
Q 1191 994 1439 701 
Q 1688 409 2113 409 
Q 2538 409 2786 701 
Q 3034 994 3034 1497 
Q 3034 2003 2786 2293 
Q 2538 2584 2113 2584 
z
M 3366 4563 
L 3366 3988 
Q 3128 4100 2886 4159 
Q 2644 4219 2406 4219 
Q 1781 4219 1451 3797 
Q 1122 3375 1075 2522 
Q 1259 2794 1537 2939 
Q 1816 3084 2150 3084 
Q 2853 3084 3261 2657 
Q 3669 2231 3669 1497 
Q 3669 778 3244 343 
Q 2819 -91 2113 -91 
Q 1303 -91 875 529 
Q 447 1150 447 2328 
Q 447 3434 972 4092 
Q 1497 4750 2381 4750 
Q 2619 4750 2861 4703 
Q 3103 4656 3366 4563 
z
" transform="scale(0.015625)"/>
       </defs>
       <use xlink:href="#DejaVuSans-36"/>
      </g>
     </g>
    </g>
    <g id="ytick_3">
     <g id="line2d_11">
      <g>
       <use xlink:href="#mea8c46d58a" x="57.6" y="188.932682" style="stroke: #000000; stroke-width: 0.8"/>
      </g>
     </g>
     <g id="text_11">
      <!-- 8 -->
      <g transform="translate(44.2375 192.731901)scale(0.1 -0.1)">
       <defs>
        <path id="DejaVuSans-38" d="M 2034 2216 
Q 1584 2216 1326 1975 
Q 1069 1734 1069 1313 
Q 1069 891 1326 650 
Q 1584 409 2034 409 
Q 2484 409 2743 651 
Q 3003 894 3003 1313 
Q 3003 1734 2745 1975 
Q 2488 2216 2034 2216 
z
M 1403 2484 
Q 997 2584 770 2862 
Q 544 3141 544 3541 
Q 544 4100 942 4425 
Q 1341 4750 2034 4750 
Q 2731 4750 3128 4425 
Q 3525 4100 3525 3541 
Q 3525 3141 3298 2862 
Q 3072 2584 2669 2484 
Q 3125 2378 3379 2068 
Q 3634 1759 3634 1313 
Q 3634 634 3220 271 
Q 2806 -91 2034 -91 
Q 1263 -91 848 271 
Q 434 634 434 1313 
Q 434 1759 690 2068 
Q 947 2378 1403 2484 
z
M 1172 3481 
Q 1172 3119 1398 2916 
Q 1625 2713 2034 2713 
Q 2441 2713 2670 2916 
Q 2900 3119 2900 3481 
Q 2900 3844 2670 4047 
Q 2441 4250 2034 4250 
Q 1625 4250 1398 4047 
Q 1172 3844 1172 3481 
z
" transform="scale(0.015625)"/>
       </defs>
       <use xlink:href="#DejaVuSans-38"/>
      </g>
     </g>
    </g>
    <g id="ytick_4">
     <g id="line2d_12">
      <g>
       <use xlink:href="#mea8c46d58a" x="57.6" y="145.942712" style="stroke: #000000; stroke-width: 0.8"/>
      </g>
     </g>
     <g id="text_12">
      <!-- 10 -->
      <g transform="translate(37.875 149.741931)scale(0.1 -0.1)">
       <use xlink:href="#DejaVuSans-31"/>
       <use xlink:href="#DejaVuSans-30" x="63.623047"/>
      </g>
     </g>
    </g>
    <g id="ytick_5">
     <g id="line2d_13">
      <g>
       <use xlink:href="#mea8c46d58a" x="57.6" y="102.952742" style="stroke: #000000; stroke-width: 0.8"/>
      </g>
     </g>
     <g id="text_13">
      <!-- 12 -->
      <g transform="translate(37.875 106.751961)scale(0.1 -0.1)">
       <use xlink:href="#DejaVuSans-31"/>
       <use xlink:href="#DejaVuSans-32" x="63.623047"/>
      </g>
     </g>
    </g>
    <g id="ytick_6">
     <g id="line2d_14">
      <g>
       <use xlink:href="#mea8c46d58a" x="57.6" y="59.962772" style="stroke: #000000; stroke-width: 0.8"/>
      </g>
     </g>
     <g id="text_14">
      <!-- 14 -->
      <g transform="translate(37.875 63.76199)scale(0.1 -0.1)">
       <use xlink:href="#DejaVuSans-31"/>
       <use xlink:href="#DejaVuSans-34" x="63.623047"/>
      </g>
     </g>
    </g>
   </g>
   <g id="line2d_15">
    <defs>
     <path id="m05eb18674f" d="M 0 3 
C 0.795609 3 1.55874 2.683901 2.12132 2.12132 
C 2.683901 1.55874 3 0.795609 3 0 
C 3 -0.795609 2.683901 -1.55874 2.12132 -2.12132 
C 1.55874 -2.683901 0.795609 -3 0 -3 
C -0.795609 -3 -1.55874 -2.683901 -2.12132 -2.12132 
C -2.683901 -1.55874 -3 -0.795609 -3 0 
C -3 0.795609 -2.683901 1.55874 -2.12132 2.12132 
C -1.55874 2.683901 -0.795609 3 0 3 
z
" style="stroke: #1f77b4"/>
    </defs>
    <g clip-path="url(#p2e6d023310)">
     <use xlink:href="#m05eb18674f" x="113.939429" y="232.56457" style="fill: #1f77b4; stroke: #1f77b4"/>
     <use xlink:href="#m05eb18674f" x="84.286688" y="295.12652" style="fill: #1f77b4; stroke: #1f77b4"/>
     <use xlink:href="#m05eb18674f" x="107.133577" y="217.723383" style="fill: #1f77b4; stroke: #1f77b4"/>
     <use xlink:href="#m05eb18674f" x="90.82975" y="273.540352" style="fill: #1f77b4; stroke: #1f77b4"/>
     <use xlink:href="#m05eb18674f" x="100.812475" y="255.059706" style="fill: #1f77b4; stroke: #1f77b4"/>
     <use xlink:href="#m05eb18674f" x="96.906956" y="281.182498" style="fill: #1f77b4; stroke: #1f77b4"/>
     <use xlink:href="#m05eb18674f" x="101.915018" y="242.022607" style="fill: #1f77b4; stroke: #1f77b4"/>
     <use xlink:href="#m05eb18674f" x="106.85325" y="215.935085" style="fill: #1f77b4; stroke: #1f77b4"/>
     <use xlink:href="#m05eb18674f" x="86.046789" y="278.857474" style="fill: #1f77b4; stroke: #1f77b4"/>
     <use xlink:href="#m05eb18674f" x="77.956853" y="245.320539" style="fill: #1f77b4; stroke: #1f77b4"/>
     <use xlink:href="#m05eb18674f" x="82.323268" y="272.77408" style="fill: #1f77b4; stroke: #1f77b4"/>
     <use xlink:href="#m05eb18674f" x="105.332326" y="224.990101" style="fill: #1f77b4; stroke: #1f77b4"/>
     <use xlink:href="#m05eb18674f" x="102.779165" y="244.264064" style="fill: #1f77b4; stroke: #1f77b4"/>
     <use xlink:href="#m05eb18674f" x="92.961686" y="275.803885" style="fill: #1f77b4; stroke: #1f77b4"/>
     <use xlink:href="#m05eb18674f" x="94.901219" y="283.147459" style="fill: #1f77b4; stroke: #1f77b4"/>
     <use xlink:href="#m05eb18674f" x="76.118623" y="262.096138" style="fill: #1f77b4; stroke: #1f77b4"/>
     <use xlink:href="#m05eb18674f" x="77.579433" y="247.703057" style="fill: #1f77b4; stroke: #1f77b4"/>
     <use xlink:href="#m05eb18674f" x="102.03313" y="245.540995" style="fill: #1f77b4; stroke: #1f77b4"/>
     <use xlink:href="#m05eb18674f" x="103.442285" y="238.253092" style="fill: #1f77b4; stroke: #1f77b4"/>
     <use xlink:href="#m05eb18674f" x="81.853728" y="271.641406" style="fill: #1f77b4; stroke: #1f77b4"/>
     <use xlink:href="#m05eb18674f" x="109.27602" y="234.120225" style="fill: #1f77b4; stroke: #1f77b4"/>
     <use xlink:href="#m05eb18674f" x="80.447989" y="255.753898" style="fill: #1f77b4; stroke: #1f77b4"/>
     <use xlink:href="#m05eb18674f" x="75.515754" y="271.071505" style="fill: #1f77b4; stroke: #1f77b4"/>
     <use xlink:href="#m05eb18674f" x="89.305953" y="273.11126" style="fill: #1f77b4; stroke: #1f77b4"/>
     <use xlink:href="#m05eb18674f" x="94.686072" y="281.087312" style="fill: #1f77b4; stroke: #1f77b4"/>
     <use xlink:href="#m05eb18674f" x="95.384213" y="284.955741" style="fill: #1f77b4; stroke: #1f77b4"/>
     <use xlink:href="#m05eb18674f" x="81.390059" y="266.121866" style="fill: #1f77b4; stroke: #1f77b4"/>
     <use xlink:href="#m05eb18674f" x="101.305312" y="250.513513" style="fill: #1f77b4; stroke: #1f77b4"/>
     <use xlink:href="#m05eb18674f" x="73.832727" y="276.664628" style="fill: #1f77b4; stroke: #1f77b4"/>
     <use xlink:href="#m05eb18674f" x="118.47036" y="223.837538" style="fill: #1f77b4; stroke: #1f77b4"/>
     <use xlink:href="#m05eb18674f" x="93.675271" y="277.642875" style="fill: #1f77b4; stroke: #1f77b4"/>
     <use xlink:href="#m05eb18674f" x="98.179244" y="278.414612" style="fill: #1f77b4; stroke: #1f77b4"/>
     <use xlink:href="#m05eb18674f" x="97.64836" y="280.154055" style="fill: #1f77b4; stroke: #1f77b4"/>
     <use xlink:href="#m05eb18674f" x="114.207367" y="225.465249" style="fill: #1f77b4; stroke: #1f77b4"/>
     <use xlink:href="#m05eb18674f" x="90.497541" y="272.484515" style="fill: #1f77b4; stroke: #1f77b4"/>
     <use xlink:href="#m05eb18674f" x="75.516699" y="268.303418" style="fill: #1f77b4; stroke: #1f77b4"/>
     <use xlink:href="#m05eb18674f" x="74.370299" y="281.817078" style="fill: #1f77b4; stroke: #1f77b4"/>
     <use xlink:href="#m05eb18674f" x="116.161286" y="227.592708" style="fill: #1f77b4; stroke: #1f77b4"/>
     <use xlink:href="#m05eb18674f" x="76.606274" y="258.378819" style="fill: #1f77b4; stroke: #1f77b4"/>
     <use xlink:href="#m05eb18674f" x="112.224108" y="240.196068" style="fill: #1f77b4; stroke: #1f77b4"/>
     <use xlink:href="#m05eb18674f" x="78.417936" y="241.396107" style="fill: #1f77b4; stroke: #1f77b4"/>
     <use xlink:href="#m05eb18674f" x="84.022203" y="295.488" style="fill: #1f77b4; stroke: #1f77b4"/>
     <use xlink:href="#m05eb18674f" x="97.292493" y="280.108033" style="fill: #1f77b4; stroke: #1f77b4"/>
     <use xlink:href="#m05eb18674f" x="109.534118" y="234.865303" style="fill: #1f77b4; stroke: #1f77b4"/>
     <use xlink:href="#m05eb18674f" x="100.177103" y="259.186985" style="fill: #1f77b4; stroke: #1f77b4"/>
     <use xlink:href="#m05eb18674f" x="93.560981" y="278.909148" style="fill: #1f77b4; stroke: #1f77b4"/>
     <use xlink:href="#m05eb18674f" x="82.435058" y="274.892745" style="fill: #1f77b4; stroke: #1f77b4"/>
     <use xlink:href="#m05eb18674f" x="103.318855" y="240.955459" style="fill: #1f77b4; stroke: #1f77b4"/>
     <use xlink:href="#m05eb18674f" x="86.812261" y="266.562292" style="fill: #1f77b4; stroke: #1f77b4"/>
     <use xlink:href="#m05eb18674f" x="101.271982" y="249.24306" style="fill: #1f77b4; stroke: #1f77b4"/>
    </g>
   </g>
   <g id="line2d_16">
    <defs>
     <path id="m92561a7f30" d="M 0 3 
C 0.795609 3 1.55874 2.683901 2.12132 2.12132 
C 2.683901 1.55874 3 0.795609 3 0 
C 3 -0.795609 2.683901 -1.55874 2.12132 -2.12132 
C 1.55874 -2.683901 0.795609 -3 0 -3 
C -0.795609 -3 -1.55874 -2.683901 -2.12132 -2.12132 
C -2.683901 -1.55874 -3 -0.795609 -3 0 
C -3 0.795609 -2.683901 1.55874 -2.12132 2.12132 
C -1.55874 2.683901 -0.795609 3 0 3 
z
" style="stroke: #ff7f0e"/>
    </defs>
    <g clip-path="url(#p2e6d023310)">
     <use xlink:href="#m92561a7f30" x="171.032242" y="252.867747" style="fill: #ff7f0e; stroke: #ff7f0e"/>
     <use xlink:href="#m92561a7f30" x="187.677893" y="246.91026" style="fill: #ff7f0e; stroke: #ff7f0e"/>
     <use xlink:href="#m92561a7f30" x="206.449089" y="201.636856" style="fill: #ff7f0e; stroke: #ff7f0e"/>
     <use xlink:href="#m92561a7f30" x="165.416392" y="233.170031" style="fill: #ff7f0e; stroke: #ff7f0e"/>
     <use xlink:href="#m92561a7f30" x="188.421744" y="248.08612" style="fill: #ff7f0e; stroke: #ff7f0e"/>
     <use xlink:href="#m92561a7f30" x="182.830024" y="238.987435" style="fill: #ff7f0e; stroke: #ff7f0e"/>
     <use xlink:href="#m92561a7f30" x="198.569566" y="243.183147" style="fill: #ff7f0e; stroke: #ff7f0e"/>
     <use xlink:href="#m92561a7f30" x="197.878138" y="255.023946" style="fill: #ff7f0e; stroke: #ff7f0e"/>
     <use xlink:href="#m92561a7f30" x="171.320654" y="255.639086" style="fill: #ff7f0e; stroke: #ff7f0e"/>
     <use xlink:href="#m92561a7f30" x="205.630829" y="186.21696" style="fill: #ff7f0e; stroke: #ff7f0e"/>
     <use xlink:href="#m92561a7f30" x="179.478134" y="241.222755" style="fill: #ff7f0e; stroke: #ff7f0e"/>
     <use xlink:href="#m92561a7f30" x="169.40918" y="261.912707" style="fill: #ff7f0e; stroke: #ff7f0e"/>
     <use xlink:href="#m92561a7f30" x="179.084077" y="244.624778" style="fill: #ff7f0e; stroke: #ff7f0e"/>
     <use xlink:href="#m92561a7f30" x="184.257935" y="228.728374" style="fill: #ff7f0e; stroke: #ff7f0e"/>
     <use xlink:href="#m92561a7f30" x="211.647847" y="224.423047" style="fill: #ff7f0e; stroke: #ff7f0e"/>
     <use xlink:href="#m92561a7f30" x="201.877548" y="218.086475" style="fill: #ff7f0e; stroke: #ff7f0e"/>
     <use xlink:href="#m92561a7f30" x="193.564243" y="267.367267" style="fill: #ff7f0e; stroke: #ff7f0e"/>
     <use xlink:href="#m92561a7f30" x="198.423367" y="245.018676" style="fill: #ff7f0e; stroke: #ff7f0e"/>
     <use xlink:href="#m92561a7f30" x="191.986877" y="274.865922" style="fill: #ff7f0e; stroke: #ff7f0e"/>
     <use xlink:href="#m92561a7f30" x="166.323641" y="231.323684" style="fill: #ff7f0e; stroke: #ff7f0e"/>
     <use xlink:href="#m92561a7f30" x="189.256569" y="257.357372" style="fill: #ff7f0e; stroke: #ff7f0e"/>
     <use xlink:href="#m92561a7f30" x="211.375626" y="218.356197" style="fill: #ff7f0e; stroke: #ff7f0e"/>
     <use xlink:href="#m92561a7f30" x="172.944881" y="251.900322" style="fill: #ff7f0e; stroke: #ff7f0e"/>
     <use xlink:href="#m92561a7f30" x="186.267451" y="230.309152" style="fill: #ff7f0e; stroke: #ff7f0e"/>
     <use xlink:href="#m92561a7f30" x="176.028081" y="266.314412" style="fill: #ff7f0e; stroke: #ff7f0e"/>
     <use xlink:href="#m92561a7f30" x="178.082597" y="249.233017" style="fill: #ff7f0e; stroke: #ff7f0e"/>
     <use xlink:href="#m92561a7f30" x="194.841849" y="275.611278" style="fill: #ff7f0e; stroke: #ff7f0e"/>
     <use xlink:href="#m92561a7f30" x="211.358421" y="221.974587" style="fill: #ff7f0e; stroke: #ff7f0e"/>
     <use xlink:href="#m92561a7f30" x="211.052439" y="224.374039" style="fill: #ff7f0e; stroke: #ff7f0e"/>
     <use xlink:href="#m92561a7f30" x="179.055019" y="245.622623" style="fill: #ff7f0e; stroke: #ff7f0e"/>
     <use xlink:href="#m92561a7f30" x="174.371205" y="264.910151" style="fill: #ff7f0e; stroke: #ff7f0e"/>
     <use xlink:href="#m92561a7f30" x="189.543009" y="254.360178" style="fill: #ff7f0e; stroke: #ff7f0e"/>
     <use xlink:href="#m92561a7f30" x="172.53907" y="244.943091" style="fill: #ff7f0e; stroke: #ff7f0e"/>
     <use xlink:href="#m92561a7f30" x="189.816147" y="254.59142" style="fill: #ff7f0e; stroke: #ff7f0e"/>
     <use xlink:href="#m92561a7f30" x="195.559123" y="275.880015" style="fill: #ff7f0e; stroke: #ff7f0e"/>
     <use xlink:href="#m92561a7f30" x="168.036701" y="252.864476" style="fill: #ff7f0e; stroke: #ff7f0e"/>
     <use xlink:href="#m92561a7f30" x="211.114978" y="224.186699" style="fill: #ff7f0e; stroke: #ff7f0e"/>
     <use xlink:href="#m92561a7f30" x="185.575602" y="226.549524" style="fill: #ff7f0e; stroke: #ff7f0e"/>
     <use xlink:href="#m92561a7f30" x="166.7433" y="234.91045" style="fill: #ff7f0e; stroke: #ff7f0e"/>
     <use xlink:href="#m92561a7f30" x="191.184764" y="266.225629" style="fill: #ff7f0e; stroke: #ff7f0e"/>
     <use xlink:href="#m92561a7f30" x="198.202159" y="245.264805" style="fill: #ff7f0e; stroke: #ff7f0e"/>
     <use xlink:href="#m92561a7f30" x="166.610622" y="239.885283" style="fill: #ff7f0e; stroke: #ff7f0e"/>
     <use xlink:href="#m92561a7f30" x="182.934328" y="237.426239" style="fill: #ff7f0e; stroke: #ff7f0e"/>
     <use xlink:href="#m92561a7f30" x="209.74466" y="219.890058" style="fill: #ff7f0e; stroke: #ff7f0e"/>
     <use xlink:href="#m92561a7f30" x="179.483656" y="241.931361" style="fill: #ff7f0e; stroke: #ff7f0e"/>
     <use xlink:href="#m92561a7f30" x="200.62059" y="224.029695" style="fill: #ff7f0e; stroke: #ff7f0e"/>
     <use xlink:href="#m92561a7f30" x="174.077102" y="267.021752" style="fill: #ff7f0e; stroke: #ff7f0e"/>
     <use xlink:href="#m92561a7f30" x="168.574085" y="249.819015" style="fill: #ff7f0e; stroke: #ff7f0e"/>
     <use xlink:href="#m92561a7f30" x="178.17834" y="247.545994" style="fill: #ff7f0e; stroke: #ff7f0e"/>
     <use xlink:href="#m92561a7f30" x="195.381629" y="268.220058" style="fill: #ff7f0e; stroke: #ff7f0e"/>
    </g>
   </g>
   <g id="line2d_17">
    <defs>
     <path id="m3f6364d4c3" d="M 0 3 
C 0.795609 3 1.55874 2.683901 2.12132 2.12132 
C 2.683901 1.55874 3 0.795609 3 0 
C 3 -0.795609 2.683901 -1.55874 2.12132 -2.12132 
C 1.55874 -2.683901 0.795609 -3 0 -3 
C -0.795609 -3 -1.55874 -2.683901 -2.12132 -2.12132 
C -2.683901 -1.55874 -3 -0.795609 -3 0 
C -3 0.795609 -2.683901 1.55874 -2.12132 2.12132 
C -1.55874 2.683901 -0.795609 3 0 3 
z
" style="stroke: #2ca02c"/>
    </defs>
    <g clip-path="url(#p2e6d023310)">
     <use xlink:href="#m3f6364d4c3" x="289.43959" y="213.869503" style="fill: #2ca02c; stroke: #2ca02c"/>
     <use xlink:href="#m3f6364d4c3" x="272.407855" y="166.773228" style="fill: #2ca02c; stroke: #2ca02c"/>
     <use xlink:href="#m3f6364d4c3" x="265.792965" y="131.554573" style="fill: #2ca02c; stroke: #2ca02c"/>
     <use xlink:href="#m3f6364d4c3" x="270.773347" y="152.784954" style="fill: #2ca02c; stroke: #2ca02c"/>
     <use xlink:href="#m3f6364d4c3" x="259.321769" y="245.758179" style="fill: #2ca02c; stroke: #2ca02c"/>
     <use xlink:href="#m3f6364d4c3" x="294.947404" y="155.796917" style="fill: #2ca02c; stroke: #2ca02c"/>
     <use xlink:href="#m3f6364d4c3" x="300.213477" y="172.149038" style="fill: #2ca02c; stroke: #2ca02c"/>
     <use xlink:href="#m3f6364d4c3" x="290.477365" y="178.667574" style="fill: #2ca02c; stroke: #2ca02c"/>
     <use xlink:href="#m3f6364d4c3" x="305.41449" y="122.180641" style="fill: #2ca02c; stroke: #2ca02c"/>
     <use xlink:href="#m3f6364d4c3" x="282.262165" y="246.013031" style="fill: #2ca02c; stroke: #2ca02c"/>
     <use xlink:href="#m3f6364d4c3" x="275.106812" y="190.976711" style="fill: #2ca02c; stroke: #2ca02c"/>
     <use xlink:href="#m3f6364d4c3" x="288.035036" y="251.85741" style="fill: #2ca02c; stroke: #2ca02c"/>
     <use xlink:href="#m3f6364d4c3" x="286.688623" y="270.138013" style="fill: #2ca02c; stroke: #2ca02c"/>
     <use xlink:href="#m3f6364d4c3" x="291.980776" y="167.128823" style="fill: #2ca02c; stroke: #2ca02c"/>
     <use xlink:href="#m3f6364d4c3" x="270.326722" y="151.854338" style="fill: #2ca02c; stroke: #2ca02c"/>
     <use xlink:href="#m3f6364d4c3" x="270.649224" y="150.131713" style="fill: #2ca02c; stroke: #2ca02c"/>
     <use xlink:href="#m3f6364d4c3" x="273.643792" y="171.604613" style="fill: #2ca02c; stroke: #2ca02c"/>
     <use xlink:href="#m3f6364d4c3" x="258.932935" y="248.387811" style="fill: #2ca02c; stroke: #2ca02c"/>
     <use xlink:href="#m3f6364d4c3" x="279.543228" y="221.365831" style="fill: #2ca02c; stroke: #2ca02c"/>
     <use xlink:href="#m3f6364d4c3" x="263.13598" y="162.894856" style="fill: #2ca02c; stroke: #2ca02c"/>
     <use xlink:href="#m3f6364d4c3" x="274.890603" y="182.334637" style="fill: #2ca02c; stroke: #2ca02c"/>
     <use xlink:href="#m3f6364d4c3" x="266.938507" y="136.812243" style="fill: #2ca02c; stroke: #2ca02c"/>
     <use xlink:href="#m3f6364d4c3" x="270.91409" y="143.637788" style="fill: #2ca02c; stroke: #2ca02c"/>
     <use xlink:href="#m3f6364d4c3" x="278.408737" y="218.845381" style="fill: #2ca02c; stroke: #2ca02c"/>
     <use xlink:href="#m3f6364d4c3" x="274.85404" y="187.548586" style="fill: #2ca02c; stroke: #2ca02c"/>
     <use xlink:href="#m3f6364d4c3" x="279.627378" y="219.235293" style="fill: #2ca02c; stroke: #2ca02c"/>
     <use xlink:href="#m3f6364d4c3" x="269.93799" y="146.924652" style="fill: #2ca02c; stroke: #2ca02c"/>
     <use xlink:href="#m3f6364d4c3" x="301.816082" y="147.802655" style="fill: #2ca02c; stroke: #2ca02c"/>
     <use xlink:href="#m3f6364d4c3" x="284.636038" y="288.039808" style="fill: #2ca02c; stroke: #2ca02c"/>
     <use xlink:href="#m3f6364d4c3" x="273.988108" y="181.812331" style="fill: #2ca02c; stroke: #2ca02c"/>
     <use xlink:href="#m3f6364d4c3" x="265.468104" y="118.253223" style="fill: #2ca02c; stroke: #2ca02c"/>
     <use xlink:href="#m3f6364d4c3" x="284.077905" y="276.895383" style="fill: #2ca02c; stroke: #2ca02c"/>
     <use xlink:href="#m3f6364d4c3" x="287.779809" y="253.1178" style="fill: #2ca02c; stroke: #2ca02c"/>
     <use xlink:href="#m3f6364d4c3" x="302.857953" y="136.836262" style="fill: #2ca02c; stroke: #2ca02c"/>
     <use xlink:href="#m3f6364d4c3" x="265.49305" y="124.460241" style="fill: #2ca02c; stroke: #2ca02c"/>
     <use xlink:href="#m3f6364d4c3" x="262.029259" y="200.775966" style="fill: #2ca02c; stroke: #2ca02c"/>
     <use xlink:href="#m3f6364d4c3" x="275.977746" y="191.615877" style="fill: #2ca02c; stroke: #2ca02c"/>
     <use xlink:href="#m3f6364d4c3" x="304.910555" y="112.090339" style="fill: #2ca02c; stroke: #2ca02c"/>
     <use xlink:href="#m3f6364d4c3" x="267.046809" y="137.958322" style="fill: #2ca02c; stroke: #2ca02c"/>
     <use xlink:href="#m3f6364d4c3" x="280.069213" y="220.203812" style="fill: #2ca02c; stroke: #2ca02c"/>
     <use xlink:href="#m3f6364d4c3" x="258.977244" y="243.677279" style="fill: #2ca02c; stroke: #2ca02c"/>
     <use xlink:href="#m3f6364d4c3" x="260.129319" y="237.384962" style="fill: #2ca02c; stroke: #2ca02c"/>
     <use xlink:href="#m3f6364d4c3" x="300.276166" y="170.558012" style="fill: #2ca02c; stroke: #2ca02c"/>
     <use xlink:href="#m3f6364d4c3" x="273.970209" y="179.281965" style="fill: #2ca02c; stroke: #2ca02c"/>
     <use xlink:href="#m3f6364d4c3" x="283.158849" y="270.383809" style="fill: #2ca02c; stroke: #2ca02c"/>
     <use xlink:href="#m3f6364d4c3" x="267.207014" y="140.824558" style="fill: #2ca02c; stroke: #2ca02c"/>
     <use xlink:href="#m3f6364d4c3" x="268.771496" y="146.116256" style="fill: #2ca02c; stroke: #2ca02c"/>
     <use xlink:href="#m3f6364d4c3" x="269.537912" y="145.7053" style="fill: #2ca02c; stroke: #2ca02c"/>
     <use xlink:href="#m3f6364d4c3" x="263.00284" y="165.29193" style="fill: #2ca02c; stroke: #2ca02c"/>
     <use xlink:href="#m3f6364d4c3" x="264.805255" y="135.351542" style="fill: #2ca02c; stroke: #2ca02c"/>
    </g>
   </g>
   <g id="line2d_18">
    <defs>
     <path id="m33c2ece672" d="M 0 3 
C 0.795609 3 1.55874 2.683901 2.12132 2.12132 
C 2.683901 1.55874 3 0.795609 3 0 
C 3 -0.795609 2.683901 -1.55874 2.12132 -2.12132 
C 1.55874 -2.683901 0.795609 -3 0 -3 
C -0.795609 -3 -1.55874 -2.683901 -2.12132 -2.12132 
C -2.683901 -1.55874 -3 -0.795609 -3 0 
C -3 0.795609 -2.683901 1.55874 -2.12132 2.12132 
C -1.55874 2.683901 -0.795609 3 0 3 
z
" style="stroke: #d62728"/>
    </defs>
    <g clip-path="url(#p2e6d023310)">
     <use xlink:href="#m33c2ece672" x="362.944812" y="138.264645" style="fill: #d62728; stroke: #d62728"/>
     <use xlink:href="#m33c2ece672" x="385.753866" y="256.775059" style="fill: #d62728; stroke: #d62728"/>
     <use xlink:href="#m33c2ece672" x="384.648578" y="267.07691" style="fill: #d62728; stroke: #d62728"/>
     <use xlink:href="#m33c2ece672" x="360.37912" y="142.901827" style="fill: #d62728; stroke: #d62728"/>
     <use xlink:href="#m33c2ece672" x="368.542645" y="194.663445" style="fill: #d62728; stroke: #d62728"/>
     <use xlink:href="#m33c2ece672" x="366.650501" y="174.748024" style="fill: #d62728; stroke: #d62728"/>
     <use xlink:href="#m33c2ece672" x="380.891598" y="184.560484" style="fill: #d62728; stroke: #d62728"/>
     <use xlink:href="#m33c2ece672" x="361.209014" y="136.060353" style="fill: #d62728; stroke: #d62728"/>
     <use xlink:href="#m33c2ece672" x="359.372913" y="141.460997" style="fill: #d62728; stroke: #d62728"/>
     <use xlink:href="#m33c2ece672" x="353.778755" y="172.247656" style="fill: #d62728; stroke: #d62728"/>
     <use xlink:href="#m33c2ece672" x="355.781276" y="159.99568" style="fill: #d62728; stroke: #d62728"/>
     <use xlink:href="#m33c2ece672" x="384.122658" y="269.182185" style="fill: #d62728; stroke: #d62728"/>
     <use xlink:href="#m33c2ece672" x="381.159245" y="203.638693" style="fill: #d62728; stroke: #d62728"/>
     <use xlink:href="#m33c2ece672" x="389.078963" y="145.743132" style="fill: #d62728; stroke: #d62728"/>
     <use xlink:href="#m33c2ece672" x="356.360948" y="149.668858" style="fill: #d62728; stroke: #d62728"/>
     <use xlink:href="#m33c2ece672" x="382.427223" y="251.283565" style="fill: #d62728; stroke: #d62728"/>
     <use xlink:href="#m33c2ece672" x="380.270208" y="164.996257" style="fill: #d62728; stroke: #d62728"/>
     <use xlink:href="#m33c2ece672" x="354.911667" y="175.455354" style="fill: #d62728; stroke: #d62728"/>
     <use xlink:href="#m33c2ece672" x="379.494946" y="150.787474" style="fill: #d62728; stroke: #d62728"/>
     <use xlink:href="#m33c2ece672" x="365.794366" y="168.409861" style="fill: #d62728; stroke: #d62728"/>
     <use xlink:href="#m33c2ece672" x="378.116791" y="131.523154" style="fill: #d62728; stroke: #d62728"/>
     <use xlink:href="#m33c2ece672" x="354.466867" y="175.942207" style="fill: #d62728; stroke: #d62728"/>
     <use xlink:href="#m33c2ece672" x="373.275147" y="161.267795" style="fill: #d62728; stroke: #d62728"/>
     <use xlink:href="#m33c2ece672" x="361.61556" y="134.504582" style="fill: #d62728; stroke: #d62728"/>
     <use xlink:href="#m33c2ece672" x="385.080572" y="264.107396" style="fill: #d62728; stroke: #d62728"/>
     <use xlink:href="#m33c2ece672" x="374.387777" y="143.391701" style="fill: #d62728; stroke: #d62728"/>
     <use xlink:href="#m33c2ece672" x="368.919265" y="195.154538" style="fill: #d62728; stroke: #d62728"/>
     <use xlink:href="#m33c2ece672" x="389.983678" y="107.811654" style="fill: #d62728; stroke: #d62728"/>
     <use xlink:href="#m33c2ece672" x="392.881158" y="62.054725" style="fill: #d62728; stroke: #d62728"/>
     <use xlink:href="#m33c2ece672" x="386.543417" y="243.001276" style="fill: #d62728; stroke: #d62728"/>
     <use xlink:href="#m33c2ece672" x="357.7542" y="149.377101" style="fill: #d62728; stroke: #d62728"/>
     <use xlink:href="#m33c2ece672" x="396.27668" y="81.119552" style="fill: #d62728; stroke: #d62728"/>
     <use xlink:href="#m33c2ece672" x="377.332181" y="134.613767" style="fill: #d62728; stroke: #d62728"/>
     <use xlink:href="#m33c2ece672" x="398.487273" y="142.204963" style="fill: #d62728; stroke: #d62728"/>
     <use xlink:href="#m33c2ece672" x="388.830772" y="158.256381" style="fill: #d62728; stroke: #d62728"/>
     <use xlink:href="#m33c2ece672" x="393.610021" y="66.377151" style="fill: #d62728; stroke: #d62728"/>
     <use xlink:href="#m33c2ece672" x="385.850983" y="259.598493" style="fill: #d62728; stroke: #d62728"/>
     <use xlink:href="#m33c2ece672" x="397.331473" y="108.186655" style="fill: #d62728; stroke: #d62728"/>
     <use xlink:href="#m33c2ece672" x="381.061739" y="204.249185" style="fill: #d62728; stroke: #d62728"/>
     <use xlink:href="#m33c2ece672" x="369.226025" y="192.342354" style="fill: #d62728; stroke: #d62728"/>
     <use xlink:href="#m33c2ece672" x="379.862107" y="165.027745" style="fill: #d62728; stroke: #d62728"/>
     <use xlink:href="#m33c2ece672" x="370.027793" y="198.752957" style="fill: #d62728; stroke: #d62728"/>
     <use xlink:href="#m33c2ece672" x="395.349885" y="53.568" style="fill: #d62728; stroke: #d62728"/>
     <use xlink:href="#m33c2ece672" x="381.727361" y="233.049352" style="fill: #d62728; stroke: #d62728"/>
     <use xlink:href="#m33c2ece672" x="385.574219" y="267.553718" style="fill: #d62728; stroke: #d62728"/>
     <use xlink:href="#m33c2ece672" x="397.640429" y="118.149973" style="fill: #d62728; stroke: #d62728"/>
     <use xlink:href="#m33c2ece672" x="376.076254" y="128.796319" style="fill: #d62728; stroke: #d62728"/>
     <use xlink:href="#m33c2ece672" x="395.709399" y="68.151061" style="fill: #d62728; stroke: #d62728"/>
     <use xlink:href="#m33c2ece672" x="395.59723" y="76.125304" style="fill: #d62728; stroke: #d62728"/>
     <use xlink:href="#m33c2ece672" x="358.163931" y="147.675509" style="fill: #d62728; stroke: #d62728"/>
    </g>
   </g>
   <g id="patch_3">
    <path d="M 57.6 307.584 
L 57.6 41.472 
" style="fill: none; stroke: #000000; stroke-width: 0.8; stroke-linejoin: miter; stroke-linecap: square"/>
   </g>
   <g id="patch_4">
    <path d="M 414.72 307.584 
L 414.72 41.472 
" style="fill: none; stroke: #000000; stroke-width: 0.8; stroke-linejoin: miter; stroke-linecap: square"/>
   </g>
   <g id="patch_5">
    <path d="M 57.6 307.584 
L 414.72 307.584 
" style="fill: none; stroke: #000000; stroke-width: 0.8; stroke-linejoin: miter; stroke-linecap: square"/>
   </g>
   <g id="patch_6">
    <path d="M 57.6 41.472 
L 414.72 41.472 
" style="fill: none; stroke: #000000; stroke-width: 0.8; stroke-linejoin: miter; stroke-linecap: square"/>
   </g>
   <g id="legend_1">
    <g id="patch_7">
     <path d="M 64.6 108.1845 
L 122.05 108.1845 
Q 124.05 108.1845 124.05 106.1845 
L 124.05 48.472 
Q 124.05 46.472 122.05 46.472 
L 64.6 46.472 
Q 62.6 46.472 62.6 48.472 
L 62.6 106.1845 
Q 62.6 108.1845 64.6 108.1845 
z
" style="fill: #ffffff; opacity: 0.8; stroke: #cccccc; stroke-linejoin: miter"/>
    </g>
    <g id="line2d_19">
     <g>
      <use xlink:href="#m05eb18674f" x="76.6" y="54.570438" style="fill: #1f77b4; stroke: #1f77b4"/>
     </g>
    </g>
    <g id="text_15">
     <!-- 4300 -->
     <g transform="translate(94.6 58.070438)scale(0.1 -0.1)">
      <use xlink:href="#DejaVuSans-34"/>
      <use xlink:href="#DejaVuSans-33" x="63.623047"/>
      <use xlink:href="#DejaVuSans-30" x="127.246094"/>
      <use xlink:href="#DejaVuSans-30" x="190.869141"/>
     </g>
    </g>
    <g id="line2d_20">
     <g>
      <use xlink:href="#m92561a7f30" x="76.6" y="69.248563" style="fill: #ff7f0e; stroke: #ff7f0e"/>
     </g>
    </g>
    <g id="text_16">
     <!-- 5700 -->
     <g transform="translate(94.6 72.748563)scale(0.1 -0.1)">
      <defs>
       <path id="DejaVuSans-37" d="M 525 4666 
L 3525 4666 
L 3525 4397 
L 1831 0 
L 1172 0 
L 2766 4134 
L 525 4134 
L 525 4666 
z
" transform="scale(0.015625)"/>
      </defs>
      <use xlink:href="#DejaVuSans-35"/>
      <use xlink:href="#DejaVuSans-37" x="63.623047"/>
      <use xlink:href="#DejaVuSans-30" x="127.246094"/>
      <use xlink:href="#DejaVuSans-30" x="190.869141"/>
     </g>
    </g>
    <g id="line2d_21">
     <g>
      <use xlink:href="#m3f6364d4c3" x="76.6" y="83.926688" style="fill: #2ca02c; stroke: #2ca02c"/>
     </g>
    </g>
    <g id="text_17">
     <!-- 6200 -->
     <g transform="translate(94.6 87.426688)scale(0.1 -0.1)">
      <use xlink:href="#DejaVuSans-36"/>
      <use xlink:href="#DejaVuSans-32" x="63.623047"/>
      <use xlink:href="#DejaVuSans-30" x="127.246094"/>
      <use xlink:href="#DejaVuSans-30" x="190.869141"/>
     </g>
    </g>
    <g id="line2d_22">
     <g>
      <use xlink:href="#m33c2ece672" x="76.6" y="98.604813" style="fill: #d62728; stroke: #d62728"/>
     </g>
    </g>
    <g id="text_18">
     <!-- 7800 -->
     <g transform="translate(94.6 102.104813)scale(0.1 -0.1)">
      <use xlink:href="#DejaVuSans-37"/>
      <use xlink:href="#DejaVuSans-38" x="63.623047"/>
      <use xlink:href="#DejaVuSans-30" x="127.246094"/>
      <use xlink:href="#DejaVuSans-30" x="190.869141"/>
     </g>
    </g>
   </g>
  </g>
 </g>
 <defs>
  <clipPath id="p2e6d023310">
   <rect x="57.6" y="41.472" width="357.12" height="266.112"/>
  </clipPath>
 </defs>
</svg>
