<?xml version="1.0" encoding="utf-8" standalone="no"?>
<!DOCTYPE svg PUBLIC "-//W3C//DTD SVG 1.1//EN"
  "http://www.w3.org/Graphics/SVG/1.1/DTD/svg11.dtd">
<svg xmlns:xlink="http://www.w3.org/1999/xlink" width="460.8pt" height="345.6pt" viewBox="0 0 460.8 345.6" xmlns="http://www.w3.org/2000/svg" version="1.1">
 <metadata>
  <rdf:RDF xmlns:dc="http://purl.org/dc/elements/1.1/" xmlns:cc="http://creativecommons.org/ns#" xmlns:rdf="http://www.w3.org/1999/02/22-rdf-syntax-ns#">
   <cc:Work>
    <dc:type rdf:resource="http://purl.org/dc/dcmitype/StillImage"/>
    <dc:date>2022-01-28T09:45:26.802404</dc:date>
    <dc:format>image/svg+xml</dc:format>
    <dc:creator>
     <cc:Agent>
      <dc:title>Matplotlib v3.5.1, https://matplotlib.org/</dc:title>
     </cc:Agent>
    </dc:creator>
   </cc:Work>
  </rdf:RDF>
 </metadata>
 <defs>
  <style type="text/css">*{stroke-linejoin: round; stroke-linecap: butt}</style>
 </defs>
 <g id="figure_1">
  <g id="patch_1">
   <path d="M 0 345.6 
L 460.8 345.6 
L 460.8 0 
L 0 0 
z
" style="fill: #ffffff"/>
  </g>
  <g id="axes_1">
   <g id="patch_2">
    <path d="M 57.6 307.584 
L 414.72 307.584 
L 414.72 41.472 
L 57.6 41.472 
z
" style="fill: #ffffff"/>
   </g>
   <g id="matplotlib.axis_1">
    <g id="xtick_1">
     <g id="line2d_1">
      <defs>
       <path id="m15a81f7697" d="M 0 0 
L 0 3.5 
" style="stroke: #000000; stroke-width: 0.8"/>
      </defs>
      <g>
       <use xlink:href="#m15a81f7697" x="71.229798" y="307.584" style="stroke: #000000; stroke-width: 0.8"/>
      </g>
     </g>
     <g id="text_1">
      <!-- 0 -->
      <g transform="translate(68.048548 322.182437)scale(0.1 -0.1)">
       <defs>
        <path id="DejaVuSans-30" d="M 2034 4250 
Q 1547 4250 1301 3770 
Q 1056 3291 1056 2328 
Q 1056 1369 1301 889 
Q 1547 409 2034 409 
Q 2525 409 2770 889 
Q 3016 1369 3016 2328 
Q 3016 3291 2770 3770 
Q 2525 4250 2034 4250 
z
M 2034 4750 
Q 2819 4750 3233 4129 
Q 3647 3509 3647 2328 
Q 3647 1150 3233 529 
Q 2819 -91 2034 -91 
Q 1250 -91 836 529 
Q 422 1150 422 2328 
Q 422 3509 836 4129 
Q 1250 4750 2034 4750 
z
" transform="scale(0.015625)"/>
       </defs>
       <use xlink:href="#DejaVuSans-30"/>
      </g>
     </g>
    </g>
    <g id="xtick_2">
     <g id="line2d_2">
      <g>
       <use xlink:href="#m15a81f7697" x="117.114882" y="307.584" style="stroke: #000000; stroke-width: 0.8"/>
      </g>
     </g>
     <g id="text_2">
      <!-- 20 -->
      <g transform="translate(110.752382 322.182437)scale(0.1 -0.1)">
       <defs>
        <path id="DejaVuSans-32" d="M 1228 531 
L 3431 531 
L 3431 0 
L 469 0 
L 469 531 
Q 828 903 1448 1529 
Q 2069 2156 2228 2338 
Q 2531 2678 2651 2914 
Q 2772 3150 2772 3378 
Q 2772 3750 2511 3984 
Q 2250 4219 1831 4219 
Q 1534 4219 1204 4116 
Q 875 4013 500 3803 
L 500 4441 
Q 881 4594 1212 4672 
Q 1544 4750 1819 4750 
Q 2544 4750 2975 4387 
Q 3406 4025 3406 3419 
Q 3406 3131 3298 2873 
Q 3191 2616 2906 2266 
Q 2828 2175 2409 1742 
Q 1991 1309 1228 531 
z
" transform="scale(0.015625)"/>
       </defs>
       <use xlink:href="#DejaVuSans-32"/>
       <use xlink:href="#DejaVuSans-30" x="63.623047"/>
      </g>
     </g>
    </g>
    <g id="xtick_3">
     <g id="line2d_3">
      <g>
       <use xlink:href="#m15a81f7697" x="162.999966" y="307.584" style="stroke: #000000; stroke-width: 0.8"/>
      </g>
     </g>
     <g id="text_3">
      <!-- 40 -->
      <g transform="translate(156.637466 322.182437)scale(0.1 -0.1)">
       <defs>
        <path id="DejaVuSans-34" d="M 2419 4116 
L 825 1625 
L 2419 1625 
L 2419 4116 
z
M 2253 4666 
L 3047 4666 
L 3047 1625 
L 3713 1625 
L 3713 1100 
L 3047 1100 
L 3047 0 
L 2419 0 
L 2419 1100 
L 313 1100 
L 313 1709 
L 2253 4666 
z
" transform="scale(0.015625)"/>
       </defs>
       <use xlink:href="#DejaVuSans-34"/>
       <use xlink:href="#DejaVuSans-30" x="63.623047"/>
      </g>
     </g>
    </g>
    <g id="xtick_4">
     <g id="line2d_4">
      <g>
       <use xlink:href="#m15a81f7697" x="208.88505" y="307.584" style="stroke: #000000; stroke-width: 0.8"/>
      </g>
     </g>
     <g id="text_4">
      <!-- 60 -->
      <g transform="translate(202.52255 322.182437)scale(0.1 -0.1)">
       <defs>
        <path id="DejaVuSans-36" d="M 2113 2584 
Q 1688 2584 1439 2293 
Q 1191 2003 1191 1497 
Q 1191 994 1439 701 
Q 1688 409 2113 409 
Q 2538 409 2786 701 
Q 3034 994 3034 1497 
Q 3034 2003 2786 2293 
Q 2538 2584 2113 2584 
z
M 3366 4563 
L 3366 3988 
Q 3128 4100 2886 4159 
Q 2644 4219 2406 4219 
Q 1781 4219 1451 3797 
Q 1122 3375 1075 2522 
Q 1259 2794 1537 2939 
Q 1816 3084 2150 3084 
Q 2853 3084 3261 2657 
Q 3669 2231 3669 1497 
Q 3669 778 3244 343 
Q 2819 -91 2113 -91 
Q 1303 -91 875 529 
Q 447 1150 447 2328 
Q 447 3434 972 4092 
Q 1497 4750 2381 4750 
Q 2619 4750 2861 4703 
Q 3103 4656 3366 4563 
z
" transform="scale(0.015625)"/>
       </defs>
       <use xlink:href="#DejaVuSans-36"/>
       <use xlink:href="#DejaVuSans-30" x="63.623047"/>
      </g>
     </g>
    </g>
    <g id="xtick_5">
     <g id="line2d_5">
      <g>
       <use xlink:href="#m15a81f7697" x="254.770134" y="307.584" style="stroke: #000000; stroke-width: 0.8"/>
      </g>
     </g>
     <g id="text_5">
      <!-- 80 -->
      <g transform="translate(248.407634 322.182437)scale(0.1 -0.1)">
       <defs>
        <path id="DejaVuSans-38" d="M 2034 2216 
Q 1584 2216 1326 1975 
Q 1069 1734 1069 1313 
Q 1069 891 1326 650 
Q 1584 409 2034 409 
Q 2484 409 2743 651 
Q 3003 894 3003 1313 
Q 3003 1734 2745 1975 
Q 2488 2216 2034 2216 
z
M 1403 2484 
Q 997 2584 770 2862 
Q 544 3141 544 3541 
Q 544 4100 942 4425 
Q 1341 4750 2034 4750 
Q 2731 4750 3128 4425 
Q 3525 4100 3525 3541 
Q 3525 3141 3298 2862 
Q 3072 2584 2669 2484 
Q 3125 2378 3379 2068 
Q 3634 1759 3634 1313 
Q 3634 634 3220 271 
Q 2806 -91 2034 -91 
Q 1263 -91 848 271 
Q 434 634 434 1313 
Q 434 1759 690 2068 
Q 947 2378 1403 2484 
z
M 1172 3481 
Q 1172 3119 1398 2916 
Q 1625 2713 2034 2713 
Q 2441 2713 2670 2916 
Q 2900 3119 2900 3481 
Q 2900 3844 2670 4047 
Q 2441 4250 2034 4250 
Q 1625 4250 1398 4047 
Q 1172 3844 1172 3481 
z
" transform="scale(0.015625)"/>
       </defs>
       <use xlink:href="#DejaVuSans-38"/>
       <use xlink:href="#DejaVuSans-30" x="63.623047"/>
      </g>
     </g>
    </g>
    <g id="xtick_6">
     <g id="line2d_6">
      <g>
       <use xlink:href="#m15a81f7697" x="300.655218" y="307.584" style="stroke: #000000; stroke-width: 0.8"/>
      </g>
     </g>
     <g id="text_6">
      <!-- 100 -->
      <g transform="translate(291.111468 322.182437)scale(0.1 -0.1)">
       <defs>
        <path id="DejaVuSans-31" d="M 794 531 
L 1825 531 
L 1825 4091 
L 703 3866 
L 703 4441 
L 1819 4666 
L 2450 4666 
L 2450 531 
L 3481 531 
L 3481 0 
L 794 0 
L 794 531 
z
" transform="scale(0.015625)"/>
       </defs>
       <use xlink:href="#DejaVuSans-31"/>
       <use xlink:href="#DejaVuSans-30" x="63.623047"/>
       <use xlink:href="#DejaVuSans-30" x="127.246094"/>
      </g>
     </g>
    </g>
    <g id="xtick_7">
     <g id="line2d_7">
      <g>
       <use xlink:href="#m15a81f7697" x="346.540302" y="307.584" style="stroke: #000000; stroke-width: 0.8"/>
      </g>
     </g>
     <g id="text_7">
      <!-- 120 -->
      <g transform="translate(336.996552 322.182437)scale(0.1 -0.1)">
       <use xlink:href="#DejaVuSans-31"/>
       <use xlink:href="#DejaVuSans-32" x="63.623047"/>
       <use xlink:href="#DejaVuSans-30" x="127.246094"/>
      </g>
     </g>
    </g>
    <g id="xtick_8">
     <g id="line2d_8">
      <g>
       <use xlink:href="#m15a81f7697" x="392.425386" y="307.584" style="stroke: #000000; stroke-width: 0.8"/>
      </g>
     </g>
     <g id="text_8">
      <!-- 140 -->
      <g transform="translate(382.881636 322.182437)scale(0.1 -0.1)">
       <use xlink:href="#DejaVuSans-31"/>
       <use xlink:href="#DejaVuSans-34" x="63.623047"/>
       <use xlink:href="#DejaVuSans-30" x="127.246094"/>
      </g>
     </g>
    </g>
   </g>
   <g id="matplotlib.axis_2">
    <g id="ytick_1">
     <g id="line2d_9">
      <defs>
       <path id="m7bc12ba01e" d="M 0 0 
L -3.5 0 
" style="stroke: #000000; stroke-width: 0.8"/>
      </defs>
      <g>
       <use xlink:href="#m7bc12ba01e" x="57.6" y="290.101591" style="stroke: #000000; stroke-width: 0.8"/>
      </g>
     </g>
     <g id="text_9">
      <!-- 3 -->
      <g transform="translate(44.2375 293.900809)scale(0.1 -0.1)">
       <defs>
        <path id="DejaVuSans-33" d="M 2597 2516 
Q 3050 2419 3304 2112 
Q 3559 1806 3559 1356 
Q 3559 666 3084 287 
Q 2609 -91 1734 -91 
Q 1441 -91 1130 -33 
Q 819 25 488 141 
L 488 750 
Q 750 597 1062 519 
Q 1375 441 1716 441 
Q 2309 441 2620 675 
Q 2931 909 2931 1356 
Q 2931 1769 2642 2001 
Q 2353 2234 1838 2234 
L 1294 2234 
L 1294 2753 
L 1863 2753 
Q 2328 2753 2575 2939 
Q 2822 3125 2822 3475 
Q 2822 3834 2567 4026 
Q 2313 4219 1838 4219 
Q 1578 4219 1281 4162 
Q 984 4106 628 3988 
L 628 4550 
Q 988 4650 1302 4700 
Q 1616 4750 1894 4750 
Q 2613 4750 3031 4423 
Q 3450 4097 3450 3541 
Q 3450 3153 3228 2886 
Q 3006 2619 2597 2516 
z
" transform="scale(0.015625)"/>
       </defs>
       <use xlink:href="#DejaVuSans-33"/>
      </g>
     </g>
    </g>
    <g id="ytick_2">
     <g id="line2d_10">
      <g>
       <use xlink:href="#m7bc12ba01e" x="57.6" y="254.28424" style="stroke: #000000; stroke-width: 0.8"/>
      </g>
     </g>
     <g id="text_10">
      <!-- 4 -->
      <g transform="translate(44.2375 258.083459)scale(0.1 -0.1)">
       <use xlink:href="#DejaVuSans-34"/>
      </g>
     </g>
    </g>
    <g id="ytick_3">
     <g id="line2d_11">
      <g>
       <use xlink:href="#m7bc12ba01e" x="57.6" y="218.46689" style="stroke: #000000; stroke-width: 0.8"/>
      </g>
     </g>
     <g id="text_11">
      <!-- 5 -->
      <g transform="translate(44.2375 222.266109)scale(0.1 -0.1)">
       <defs>
        <path id="DejaVuSans-35" d="M 691 4666 
L 3169 4666 
L 3169 4134 
L 1269 4134 
L 1269 2991 
Q 1406 3038 1543 3061 
Q 1681 3084 1819 3084 
Q 2600 3084 3056 2656 
Q 3513 2228 3513 1497 
Q 3513 744 3044 326 
Q 2575 -91 1722 -91 
Q 1428 -91 1123 -41 
Q 819 9 494 109 
L 494 744 
Q 775 591 1075 516 
Q 1375 441 1709 441 
Q 2250 441 2565 725 
Q 2881 1009 2881 1497 
Q 2881 1984 2565 2268 
Q 2250 2553 1709 2553 
Q 1456 2553 1204 2497 
Q 953 2441 691 2322 
L 691 4666 
z
" transform="scale(0.015625)"/>
       </defs>
       <use xlink:href="#DejaVuSans-35"/>
      </g>
     </g>
    </g>
    <g id="ytick_4">
     <g id="line2d_12">
      <g>
       <use xlink:href="#m7bc12ba01e" x="57.6" y="182.64954" style="stroke: #000000; stroke-width: 0.8"/>
      </g>
     </g>
     <g id="text_12">
      <!-- 6 -->
      <g transform="translate(44.2375 186.448758)scale(0.1 -0.1)">
       <use xlink:href="#DejaVuSans-36"/>
      </g>
     </g>
    </g>
    <g id="ytick_5">
     <g id="line2d_13">
      <g>
       <use xlink:href="#m7bc12ba01e" x="57.6" y="146.832189" style="stroke: #000000; stroke-width: 0.8"/>
      </g>
     </g>
     <g id="text_13">
      <!-- 7 -->
      <g transform="translate(44.2375 150.631408)scale(0.1 -0.1)">
       <defs>
        <path id="DejaVuSans-37" d="M 525 4666 
L 3525 4666 
L 3525 4397 
L 1831 0 
L 1172 0 
L 2766 4134 
L 525 4134 
L 525 4666 
z
" transform="scale(0.015625)"/>
       </defs>
       <use xlink:href="#DejaVuSans-37"/>
      </g>
     </g>
    </g>
    <g id="ytick_6">
     <g id="line2d_14">
      <g>
       <use xlink:href="#m7bc12ba01e" x="57.6" y="111.014839" style="stroke: #000000; stroke-width: 0.8"/>
      </g>
     </g>
     <g id="text_14">
      <!-- 8 -->
      <g transform="translate(44.2375 114.814058)scale(0.1 -0.1)">
       <use xlink:href="#DejaVuSans-38"/>
      </g>
     </g>
    </g>
    <g id="ytick_7">
     <g id="line2d_15">
      <g>
       <use xlink:href="#m7bc12ba01e" x="57.6" y="75.197488" style="stroke: #000000; stroke-width: 0.8"/>
      </g>
     </g>
     <g id="text_15">
      <!-- 9 -->
      <g transform="translate(44.2375 78.996707)scale(0.1 -0.1)">
       <defs>
        <path id="DejaVuSans-39" d="M 703 97 
L 703 672 
Q 941 559 1184 500 
Q 1428 441 1663 441 
Q 2288 441 2617 861 
Q 2947 1281 2994 2138 
Q 2813 1869 2534 1725 
Q 2256 1581 1919 1581 
Q 1219 1581 811 2004 
Q 403 2428 403 3163 
Q 403 3881 828 4315 
Q 1253 4750 1959 4750 
Q 2769 4750 3195 4129 
Q 3622 3509 3622 2328 
Q 3622 1225 3098 567 
Q 2575 -91 1691 -91 
Q 1453 -91 1209 -44 
Q 966 3 703 97 
z
M 1959 2075 
Q 2384 2075 2632 2365 
Q 2881 2656 2881 3163 
Q 2881 3666 2632 3958 
Q 2384 4250 1959 4250 
Q 1534 4250 1286 3958 
Q 1038 3666 1038 3163 
Q 1038 2656 1286 2365 
Q 1534 2075 1959 2075 
z
" transform="scale(0.015625)"/>
       </defs>
       <use xlink:href="#DejaVuSans-39"/>
      </g>
     </g>
    </g>
   </g>
   <g id="line2d_16">
    <defs>
     <path id="m5add2cbb21" d="M 0 3 
C 0.795609 3 1.55874 2.683901 2.12132 2.12132 
C 2.683901 1.55874 3 0.795609 3 0 
C 3 -0.795609 2.683901 -1.55874 2.12132 -2.12132 
C 1.55874 -2.683901 0.795609 -3 0 -3 
C -0.795609 -3 -1.55874 -2.683901 -2.12132 -2.12132 
C -2.683901 -1.55874 -3 -0.795609 -3 0 
C -3 0.795609 -2.683901 1.55874 -2.12132 2.12132 
C -1.55874 2.683901 -0.795609 3 0 3 
z
" style="stroke: #1f77b4"/>
    </defs>
    <g clip-path="url(#pfd5c247c0e)">
     <use xlink:href="#m5add2cbb21" x="113.306008" y="247.826765" style="fill: #1f77b4; stroke: #1f77b4"/>
     <use xlink:href="#m5add2cbb21" x="131.325329" y="286.654015" style="fill: #1f77b4; stroke: #1f77b4"/>
     <use xlink:href="#m5add2cbb21" x="95.348883" y="201.34581" style="fill: #1f77b4; stroke: #1f77b4"/>
     <use xlink:href="#m5add2cbb21" x="165.218296" y="236.053334" style="fill: #1f77b4; stroke: #1f77b4"/>
     <use xlink:href="#m5add2cbb21" x="128.743441" y="282.875924" style="fill: #1f77b4; stroke: #1f77b4"/>
     <use xlink:href="#m5add2cbb21" x="135.394959" y="247.315601" style="fill: #1f77b4; stroke: #1f77b4"/>
     <use xlink:href="#m5add2cbb21" x="131.288692" y="287.094566" style="fill: #1f77b4; stroke: #1f77b4"/>
     <use xlink:href="#m5add2cbb21" x="118.935323" y="241.692972" style="fill: #1f77b4; stroke: #1f77b4"/>
     <use xlink:href="#m5add2cbb21" x="133.192043" y="268.694549" style="fill: #1f77b4; stroke: #1f77b4"/>
     <use xlink:href="#m5add2cbb21" x="150.331845" y="208.342264" style="fill: #1f77b4; stroke: #1f77b4"/>
     <use xlink:href="#m5add2cbb21" x="87.729572" y="233.029173" style="fill: #1f77b4; stroke: #1f77b4"/>
     <use xlink:href="#m5add2cbb21" x="149.823761" y="199.544833" style="fill: #1f77b4; stroke: #1f77b4"/>
     <use xlink:href="#m5add2cbb21" x="74.34284" y="194.058645" style="fill: #1f77b4; stroke: #1f77b4"/>
     <use xlink:href="#m5add2cbb21" x="161.32322" y="227.965989" style="fill: #1f77b4; stroke: #1f77b4"/>
     <use xlink:href="#m5add2cbb21" x="150.298773" y="199.075924" style="fill: #1f77b4; stroke: #1f77b4"/>
     <use xlink:href="#m5add2cbb21" x="99.019874" y="199.464394" style="fill: #1f77b4; stroke: #1f77b4"/>
     <use xlink:href="#m5add2cbb21" x="152.82759" y="230.845374" style="fill: #1f77b4; stroke: #1f77b4"/>
     <use xlink:href="#m5add2cbb21" x="117.511651" y="241.857521" style="fill: #1f77b4; stroke: #1f77b4"/>
     <use xlink:href="#m5add2cbb21" x="157.470752" y="223.237418" style="fill: #1f77b4; stroke: #1f77b4"/>
     <use xlink:href="#m5add2cbb21" x="88.627375" y="231.774195" style="fill: #1f77b4; stroke: #1f77b4"/>
     <use xlink:href="#m5add2cbb21" x="87.109539" y="240.745947" style="fill: #1f77b4; stroke: #1f77b4"/>
     <use xlink:href="#m5add2cbb21" x="96.087553" y="189.808274" style="fill: #1f77b4; stroke: #1f77b4"/>
     <use xlink:href="#m5add2cbb21" x="176.920297" y="218.540879" style="fill: #1f77b4; stroke: #1f77b4"/>
     <use xlink:href="#m5add2cbb21" x="73.832727" y="193.175095" style="fill: #1f77b4; stroke: #1f77b4"/>
     <use xlink:href="#m5add2cbb21" x="81.996612" y="224.574256" style="fill: #1f77b4; stroke: #1f77b4"/>
    </g>
   </g>
   <g id="line2d_17">
    <defs>
     <path id="m294d685165" d="M 0 3 
C 0.795609 3 1.55874 2.683901 2.12132 2.12132 
C 2.683901 1.55874 3 0.795609 3 0 
C 3 -0.795609 2.683901 -1.55874 2.12132 -2.12132 
C 1.55874 -2.683901 0.795609 -3 0 -3 
C -0.795609 -3 -1.55874 -2.683901 -2.12132 -2.12132 
C -2.683901 -1.55874 -3 -0.795609 -3 0 
C -3 0.795609 -2.683901 1.55874 -2.12132 2.12132 
C -1.55874 2.683901 -0.795609 3 0 3 
z
" style="stroke: #ff7f0e"/>
    </defs>
    <g clip-path="url(#pfd5c247c0e)">
     <use xlink:href="#m294d685165" x="289.129017" y="208.887904" style="fill: #ff7f0e; stroke: #ff7f0e"/>
     <use xlink:href="#m294d685165" x="192.97872" y="251.834131" style="fill: #ff7f0e; stroke: #ff7f0e"/>
     <use xlink:href="#m294d685165" x="206.529146" y="199.587584" style="fill: #ff7f0e; stroke: #ff7f0e"/>
     <use xlink:href="#m294d685165" x="297.372663" y="201.044446" style="fill: #ff7f0e; stroke: #ff7f0e"/>
     <use xlink:href="#m294d685165" x="211.277951" y="199.356537" style="fill: #ff7f0e; stroke: #ff7f0e"/>
     <use xlink:href="#m294d685165" x="230.984509" y="280.827651" style="fill: #ff7f0e; stroke: #ff7f0e"/>
     <use xlink:href="#m294d685165" x="258.895904" y="243.925457" style="fill: #ff7f0e; stroke: #ff7f0e"/>
     <use xlink:href="#m294d685165" x="292.722209" y="197.433542" style="fill: #ff7f0e; stroke: #ff7f0e"/>
     <use xlink:href="#m294d685165" x="228.720246" y="295.488" style="fill: #ff7f0e; stroke: #ff7f0e"/>
     <use xlink:href="#m294d685165" x="240.904768" y="228.159299" style="fill: #ff7f0e; stroke: #ff7f0e"/>
     <use xlink:href="#m294d685165" x="188.850178" y="251.784483" style="fill: #ff7f0e; stroke: #ff7f0e"/>
     <use xlink:href="#m294d685165" x="199.350381" y="193.180923" style="fill: #ff7f0e; stroke: #ff7f0e"/>
     <use xlink:href="#m294d685165" x="252.441219" y="227.493759" style="fill: #ff7f0e; stroke: #ff7f0e"/>
     <use xlink:href="#m294d685165" x="234.989583" y="264.148615" style="fill: #ff7f0e; stroke: #ff7f0e"/>
     <use xlink:href="#m294d685165" x="188.857092" y="250.137582" style="fill: #ff7f0e; stroke: #ff7f0e"/>
     <use xlink:href="#m294d685165" x="191.859859" y="254.061962" style="fill: #ff7f0e; stroke: #ff7f0e"/>
     <use xlink:href="#m294d685165" x="293.850188" y="196.90162" style="fill: #ff7f0e; stroke: #ff7f0e"/>
     <use xlink:href="#m294d685165" x="194.933341" y="220.815465" style="fill: #ff7f0e; stroke: #ff7f0e"/>
     <use xlink:href="#m294d685165" x="234.000129" y="267.132479" style="fill: #ff7f0e; stroke: #ff7f0e"/>
     <use xlink:href="#m294d685165" x="295.000831" y="204.3441" style="fill: #ff7f0e; stroke: #ff7f0e"/>
     <use xlink:href="#m294d685165" x="197.909024" y="200.975382" style="fill: #ff7f0e; stroke: #ff7f0e"/>
     <use xlink:href="#m294d685165" x="262.200429" y="243.866185" style="fill: #ff7f0e; stroke: #ff7f0e"/>
     <use xlink:href="#m294d685165" x="286.515206" y="212.971832" style="fill: #ff7f0e; stroke: #ff7f0e"/>
     <use xlink:href="#m294d685165" x="283.525882" y="202.6306" style="fill: #ff7f0e; stroke: #ff7f0e"/>
     <use xlink:href="#m294d685165" x="260.45808" y="240.321453" style="fill: #ff7f0e; stroke: #ff7f0e"/>
    </g>
   </g>
   <g id="line2d_18">
    <defs>
     <path id="m0f91f5a8b5" d="M 0 3 
C 0.795609 3 1.55874 2.683901 2.12132 2.12132 
C 2.683901 1.55874 3 0.795609 3 0 
C 3 -0.795609 2.683901 -1.55874 2.12132 -2.12132 
C 1.55874 -2.683901 0.795609 -3 0 -3 
C -0.795609 -3 -1.55874 -2.683901 -2.12132 -2.12132 
C -2.683901 -1.55874 -3 -0.795609 -3 0 
C -3 0.795609 -2.683901 1.55874 -2.12132 2.12132 
C -1.55874 2.683901 -0.795609 3 0 3 
z
" style="stroke: #2ca02c"/>
    </defs>
    <g clip-path="url(#pfd5c247c0e)">
     <use xlink:href="#m0f91f5a8b5" x="368.481263" y="134.479118" style="fill: #2ca02c; stroke: #2ca02c"/>
     <use xlink:href="#m0f91f5a8b5" x="345.860671" y="227.167176" style="fill: #2ca02c; stroke: #2ca02c"/>
     <use xlink:href="#m0f91f5a8b5" x="311.090607" y="173.912415" style="fill: #2ca02c; stroke: #2ca02c"/>
     <use xlink:href="#m0f91f5a8b5" x="391.710241" y="148.722294" style="fill: #2ca02c; stroke: #2ca02c"/>
     <use xlink:href="#m0f91f5a8b5" x="324.922936" y="53.568" style="fill: #2ca02c; stroke: #2ca02c"/>
     <use xlink:href="#m0f91f5a8b5" x="389.833103" y="198.428234" style="fill: #2ca02c; stroke: #2ca02c"/>
     <use xlink:href="#m0f91f5a8b5" x="305.879032" y="153.86349" style="fill: #2ca02c; stroke: #2ca02c"/>
     <use xlink:href="#m0f91f5a8b5" x="341.25916" y="238.857796" style="fill: #2ca02c; stroke: #2ca02c"/>
     <use xlink:href="#m0f91f5a8b5" x="384.735401" y="206.847314" style="fill: #2ca02c; stroke: #2ca02c"/>
     <use xlink:href="#m0f91f5a8b5" x="304.541392" y="145.590147" style="fill: #2ca02c; stroke: #2ca02c"/>
     <use xlink:href="#m0f91f5a8b5" x="398.487273" y="66.274853" style="fill: #2ca02c; stroke: #2ca02c"/>
     <use xlink:href="#m0f91f5a8b5" x="320.817654" y="78.324218" style="fill: #2ca02c; stroke: #2ca02c"/>
     <use xlink:href="#m0f91f5a8b5" x="301.812188" y="155.705393" style="fill: #2ca02c; stroke: #2ca02c"/>
     <use xlink:href="#m0f91f5a8b5" x="341.100682" y="242.861124" style="fill: #2ca02c; stroke: #2ca02c"/>
     <use xlink:href="#m0f91f5a8b5" x="392.428143" y="128.807198" style="fill: #2ca02c; stroke: #2ca02c"/>
     <use xlink:href="#m0f91f5a8b5" x="371.272671" y="151.630446" style="fill: #2ca02c; stroke: #2ca02c"/>
     <use xlink:href="#m0f91f5a8b5" x="346.555964" y="210.791938" style="fill: #2ca02c; stroke: #2ca02c"/>
     <use xlink:href="#m0f91f5a8b5" x="333.435436" y="215.015577" style="fill: #2ca02c; stroke: #2ca02c"/>
     <use xlink:href="#m0f91f5a8b5" x="393.366346" y="107.214034" style="fill: #2ca02c; stroke: #2ca02c"/>
     <use xlink:href="#m0f91f5a8b5" x="392.773202" y="115.061077" style="fill: #2ca02c; stroke: #2ca02c"/>
     <use xlink:href="#m0f91f5a8b5" x="330.242853" y="163.39135" style="fill: #2ca02c; stroke: #2ca02c"/>
     <use xlink:href="#m0f91f5a8b5" x="381.036308" y="193.753005" style="fill: #2ca02c; stroke: #2ca02c"/>
     <use xlink:href="#m0f91f5a8b5" x="341.534598" y="222.087981" style="fill: #2ca02c; stroke: #2ca02c"/>
     <use xlink:href="#m0f91f5a8b5" x="362.228063" y="88.334996" style="fill: #2ca02c; stroke: #2ca02c"/>
     <use xlink:href="#m0f91f5a8b5" x="376.361956" y="160.685587" style="fill: #2ca02c; stroke: #2ca02c"/>
    </g>
   </g>
   <g id="patch_3">
    <path d="M 57.6 307.584 
L 57.6 41.472 
" style="fill: none; stroke: #000000; stroke-width: 0.8; stroke-linejoin: miter; stroke-linecap: square"/>
   </g>
   <g id="patch_4">
    <path d="M 414.72 307.584 
L 414.72 41.472 
" style="fill: none; stroke: #000000; stroke-width: 0.8; stroke-linejoin: miter; stroke-linecap: square"/>
   </g>
   <g id="patch_5">
    <path d="M 57.6 307.584 
L 414.72 307.584 
" style="fill: none; stroke: #000000; stroke-width: 0.8; stroke-linejoin: miter; stroke-linecap: square"/>
   </g>
   <g id="patch_6">
    <path d="M 57.6 41.472 
L 414.72 41.472 
" style="fill: none; stroke: #000000; stroke-width: 0.8; stroke-linejoin: miter; stroke-linecap: square"/>
   </g>
   <g id="legend_1">
    <g id="patch_7">
     <path d="M 64.6 93.506375 
L 122.05 93.506375 
Q 124.05 93.506375 124.05 91.506375 
L 124.05 48.472 
Q 124.05 46.472 122.05 46.472 
L 64.6 46.472 
Q 62.6 46.472 62.6 48.472 
L 62.6 91.506375 
Q 62.6 93.506375 64.6 93.506375 
z
" style="fill: #ffffff; opacity: 0.8; stroke: #cccccc; stroke-linejoin: miter"/>
    </g>
    <g id="line2d_19">
     <g>
      <use xlink:href="#m5add2cbb21" x="76.6" y="54.570438" style="fill: #1f77b4; stroke: #1f77b4"/>
     </g>
    </g>
    <g id="text_16">
     <!-- 4300 -->
     <g transform="translate(94.6 58.070438)scale(0.1 -0.1)">
      <use xlink:href="#DejaVuSans-34"/>
      <use xlink:href="#DejaVuSans-33" x="63.623047"/>
      <use xlink:href="#DejaVuSans-30" x="127.246094"/>
      <use xlink:href="#DejaVuSans-30" x="190.869141"/>
     </g>
    </g>
    <g id="line2d_20">
     <g>
      <use xlink:href="#m294d685165" x="76.6" y="69.248563" style="fill: #ff7f0e; stroke: #ff7f0e"/>
     </g>
    </g>
    <g id="text_17">
     <!-- 5700 -->
     <g transform="translate(94.6 72.748563)scale(0.1 -0.1)">
      <use xlink:href="#DejaVuSans-35"/>
      <use xlink:href="#DejaVuSans-37" x="63.623047"/>
      <use xlink:href="#DejaVuSans-30" x="127.246094"/>
      <use xlink:href="#DejaVuSans-30" x="190.869141"/>
     </g>
    </g>
    <g id="line2d_21">
     <g>
      <use xlink:href="#m0f91f5a8b5" x="76.6" y="83.926688" style="fill: #2ca02c; stroke: #2ca02c"/>
     </g>
    </g>
    <g id="text_18">
     <!-- 6200 -->
     <g transform="translate(94.6 87.426688)scale(0.1 -0.1)">
      <use xlink:href="#DejaVuSans-36"/>
      <use xlink:href="#DejaVuSans-32" x="63.623047"/>
      <use xlink:href="#DejaVuSans-30" x="127.246094"/>
      <use xlink:href="#DejaVuSans-30" x="190.869141"/>
     </g>
    </g>
   </g>
  </g>
 </g>
 <defs>
  <clipPath id="pfd5c247c0e">
   <rect x="57.6" y="41.472" width="357.12" height="266.112"/>
  </clipPath>
 </defs>
</svg>
