<?xml version="1.0" encoding="utf-8" standalone="no"?>
<!DOCTYPE svg PUBLIC "-//W3C//DTD SVG 1.1//EN"
  "http://www.w3.org/Graphics/SVG/1.1/DTD/svg11.dtd">
<svg xmlns:xlink="http://www.w3.org/1999/xlink" width="460.8pt" height="345.6pt" viewBox="0 0 460.8 345.6" xmlns="http://www.w3.org/2000/svg" version="1.1">
 <metadata>
  <rdf:RDF xmlns:dc="http://purl.org/dc/elements/1.1/" xmlns:cc="http://creativecommons.org/ns#" xmlns:rdf="http://www.w3.org/1999/02/22-rdf-syntax-ns#">
   <cc:Work>
    <dc:type rdf:resource="http://purl.org/dc/dcmitype/StillImage"/>
    <dc:date>2022-01-27T13:38:22.711232</dc:date>
    <dc:format>image/svg+xml</dc:format>
    <dc:creator>
     <cc:Agent>
      <dc:title>Matplotlib v3.5.1, https://matplotlib.org/</dc:title>
     </cc:Agent>
    </dc:creator>
   </cc:Work>
  </rdf:RDF>
 </metadata>
 <defs>
  <style type="text/css">*{stroke-linejoin: round; stroke-linecap: butt}</style>
 </defs>
 <g id="figure_1">
  <g id="patch_1">
   <path d="M 0 345.6 
L 460.8 345.6 
L 460.8 0 
L 0 0 
z
" style="fill: #ffffff"/>
  </g>
  <g id="axes_1">
   <g id="patch_2">
    <path d="M 57.6 307.584 
L 414.72 307.584 
L 414.72 41.472 
L 57.6 41.472 
z
" style="fill: #ffffff"/>
   </g>
   <g id="matplotlib.axis_1">
    <g id="xtick_1">
     <g id="line2d_1">
      <defs>
       <path id="m0a3ec83301" d="M 0 0 
L 0 3.5 
" style="stroke: #000000; stroke-width: 0.8"/>
      </defs>
      <g>
       <use xlink:href="#m0a3ec83301" x="68.64385" y="307.584" style="stroke: #000000; stroke-width: 0.8"/>
      </g>
     </g>
     <g id="text_1">
      <!-- 0 -->
      <g transform="translate(65.4626 322.182437)scale(0.1 -0.1)">
       <defs>
        <path id="DejaVuSans-30" d="M 2034 4250 
Q 1547 4250 1301 3770 
Q 1056 3291 1056 2328 
Q 1056 1369 1301 889 
Q 1547 409 2034 409 
Q 2525 409 2770 889 
Q 3016 1369 3016 2328 
Q 3016 3291 2770 3770 
Q 2525 4250 2034 4250 
z
M 2034 4750 
Q 2819 4750 3233 4129 
Q 3647 3509 3647 2328 
Q 3647 1150 3233 529 
Q 2819 -91 2034 -91 
Q 1250 -91 836 529 
Q 422 1150 422 2328 
Q 422 3509 836 4129 
Q 1250 4750 2034 4750 
z
" transform="scale(0.015625)"/>
       </defs>
       <use xlink:href="#DejaVuSans-30"/>
      </g>
     </g>
    </g>
    <g id="xtick_2">
     <g id="line2d_2">
      <g>
       <use xlink:href="#m0a3ec83301" x="113.321911" y="307.584" style="stroke: #000000; stroke-width: 0.8"/>
      </g>
     </g>
     <g id="text_2">
      <!-- 20 -->
      <g transform="translate(106.959411 322.182437)scale(0.1 -0.1)">
       <defs>
        <path id="DejaVuSans-32" d="M 1228 531 
L 3431 531 
L 3431 0 
L 469 0 
L 469 531 
Q 828 903 1448 1529 
Q 2069 2156 2228 2338 
Q 2531 2678 2651 2914 
Q 2772 3150 2772 3378 
Q 2772 3750 2511 3984 
Q 2250 4219 1831 4219 
Q 1534 4219 1204 4116 
Q 875 4013 500 3803 
L 500 4441 
Q 881 4594 1212 4672 
Q 1544 4750 1819 4750 
Q 2544 4750 2975 4387 
Q 3406 4025 3406 3419 
Q 3406 3131 3298 2873 
Q 3191 2616 2906 2266 
Q 2828 2175 2409 1742 
Q 1991 1309 1228 531 
z
" transform="scale(0.015625)"/>
       </defs>
       <use xlink:href="#DejaVuSans-32"/>
       <use xlink:href="#DejaVuSans-30" x="63.623047"/>
      </g>
     </g>
    </g>
    <g id="xtick_3">
     <g id="line2d_3">
      <g>
       <use xlink:href="#m0a3ec83301" x="157.999971" y="307.584" style="stroke: #000000; stroke-width: 0.8"/>
      </g>
     </g>
     <g id="text_3">
      <!-- 40 -->
      <g transform="translate(151.637471 322.182437)scale(0.1 -0.1)">
       <defs>
        <path id="DejaVuSans-34" d="M 2419 4116 
L 825 1625 
L 2419 1625 
L 2419 4116 
z
M 2253 4666 
L 3047 4666 
L 3047 1625 
L 3713 1625 
L 3713 1100 
L 3047 1100 
L 3047 0 
L 2419 0 
L 2419 1100 
L 313 1100 
L 313 1709 
L 2253 4666 
z
" transform="scale(0.015625)"/>
       </defs>
       <use xlink:href="#DejaVuSans-34"/>
       <use xlink:href="#DejaVuSans-30" x="63.623047"/>
      </g>
     </g>
    </g>
    <g id="xtick_4">
     <g id="line2d_4">
      <g>
       <use xlink:href="#m0a3ec83301" x="202.678031" y="307.584" style="stroke: #000000; stroke-width: 0.8"/>
      </g>
     </g>
     <g id="text_4">
      <!-- 60 -->
      <g transform="translate(196.315531 322.182437)scale(0.1 -0.1)">
       <defs>
        <path id="DejaVuSans-36" d="M 2113 2584 
Q 1688 2584 1439 2293 
Q 1191 2003 1191 1497 
Q 1191 994 1439 701 
Q 1688 409 2113 409 
Q 2538 409 2786 701 
Q 3034 994 3034 1497 
Q 3034 2003 2786 2293 
Q 2538 2584 2113 2584 
z
M 3366 4563 
L 3366 3988 
Q 3128 4100 2886 4159 
Q 2644 4219 2406 4219 
Q 1781 4219 1451 3797 
Q 1122 3375 1075 2522 
Q 1259 2794 1537 2939 
Q 1816 3084 2150 3084 
Q 2853 3084 3261 2657 
Q 3669 2231 3669 1497 
Q 3669 778 3244 343 
Q 2819 -91 2113 -91 
Q 1303 -91 875 529 
Q 447 1150 447 2328 
Q 447 3434 972 4092 
Q 1497 4750 2381 4750 
Q 2619 4750 2861 4703 
Q 3103 4656 3366 4563 
z
" transform="scale(0.015625)"/>
       </defs>
       <use xlink:href="#DejaVuSans-36"/>
       <use xlink:href="#DejaVuSans-30" x="63.623047"/>
      </g>
     </g>
    </g>
    <g id="xtick_5">
     <g id="line2d_5">
      <g>
       <use xlink:href="#m0a3ec83301" x="247.356092" y="307.584" style="stroke: #000000; stroke-width: 0.8"/>
      </g>
     </g>
     <g id="text_5">
      <!-- 80 -->
      <g transform="translate(240.993592 322.182437)scale(0.1 -0.1)">
       <defs>
        <path id="DejaVuSans-38" d="M 2034 2216 
Q 1584 2216 1326 1975 
Q 1069 1734 1069 1313 
Q 1069 891 1326 650 
Q 1584 409 2034 409 
Q 2484 409 2743 651 
Q 3003 894 3003 1313 
Q 3003 1734 2745 1975 
Q 2488 2216 2034 2216 
z
M 1403 2484 
Q 997 2584 770 2862 
Q 544 3141 544 3541 
Q 544 4100 942 4425 
Q 1341 4750 2034 4750 
Q 2731 4750 3128 4425 
Q 3525 4100 3525 3541 
Q 3525 3141 3298 2862 
Q 3072 2584 2669 2484 
Q 3125 2378 3379 2068 
Q 3634 1759 3634 1313 
Q 3634 634 3220 271 
Q 2806 -91 2034 -91 
Q 1263 -91 848 271 
Q 434 634 434 1313 
Q 434 1759 690 2068 
Q 947 2378 1403 2484 
z
M 1172 3481 
Q 1172 3119 1398 2916 
Q 1625 2713 2034 2713 
Q 2441 2713 2670 2916 
Q 2900 3119 2900 3481 
Q 2900 3844 2670 4047 
Q 2441 4250 2034 4250 
Q 1625 4250 1398 4047 
Q 1172 3844 1172 3481 
z
" transform="scale(0.015625)"/>
       </defs>
       <use xlink:href="#DejaVuSans-38"/>
       <use xlink:href="#DejaVuSans-30" x="63.623047"/>
      </g>
     </g>
    </g>
    <g id="xtick_6">
     <g id="line2d_6">
      <g>
       <use xlink:href="#m0a3ec83301" x="292.034152" y="307.584" style="stroke: #000000; stroke-width: 0.8"/>
      </g>
     </g>
     <g id="text_6">
      <!-- 100 -->
      <g transform="translate(282.490402 322.182437)scale(0.1 -0.1)">
       <defs>
        <path id="DejaVuSans-31" d="M 794 531 
L 1825 531 
L 1825 4091 
L 703 3866 
L 703 4441 
L 1819 4666 
L 2450 4666 
L 2450 531 
L 3481 531 
L 3481 0 
L 794 0 
L 794 531 
z
" transform="scale(0.015625)"/>
       </defs>
       <use xlink:href="#DejaVuSans-31"/>
       <use xlink:href="#DejaVuSans-30" x="63.623047"/>
       <use xlink:href="#DejaVuSans-30" x="127.246094"/>
      </g>
     </g>
    </g>
    <g id="xtick_7">
     <g id="line2d_7">
      <g>
       <use xlink:href="#m0a3ec83301" x="336.712212" y="307.584" style="stroke: #000000; stroke-width: 0.8"/>
      </g>
     </g>
     <g id="text_7">
      <!-- 120 -->
      <g transform="translate(327.168462 322.182437)scale(0.1 -0.1)">
       <use xlink:href="#DejaVuSans-31"/>
       <use xlink:href="#DejaVuSans-32" x="63.623047"/>
       <use xlink:href="#DejaVuSans-30" x="127.246094"/>
      </g>
     </g>
    </g>
    <g id="xtick_8">
     <g id="line2d_8">
      <g>
       <use xlink:href="#m0a3ec83301" x="381.390273" y="307.584" style="stroke: #000000; stroke-width: 0.8"/>
      </g>
     </g>
     <g id="text_8">
      <!-- 140 -->
      <g transform="translate(371.846523 322.182437)scale(0.1 -0.1)">
       <use xlink:href="#DejaVuSans-31"/>
       <use xlink:href="#DejaVuSans-34" x="63.623047"/>
       <use xlink:href="#DejaVuSans-30" x="127.246094"/>
      </g>
     </g>
    </g>
   </g>
   <g id="matplotlib.axis_2">
    <g id="ytick_1">
     <g id="line2d_9">
      <defs>
       <path id="m6a91524d9f" d="M 0 0 
L -3.5 0 
" style="stroke: #000000; stroke-width: 0.8"/>
      </defs>
      <g>
       <use xlink:href="#m6a91524d9f" x="57.6" y="294.158029" style="stroke: #000000; stroke-width: 0.8"/>
      </g>
     </g>
     <g id="text_9">
      <!-- 3 -->
      <g transform="translate(44.2375 297.957248)scale(0.1 -0.1)">
       <defs>
        <path id="DejaVuSans-33" d="M 2597 2516 
Q 3050 2419 3304 2112 
Q 3559 1806 3559 1356 
Q 3559 666 3084 287 
Q 2609 -91 1734 -91 
Q 1441 -91 1130 -33 
Q 819 25 488 141 
L 488 750 
Q 750 597 1062 519 
Q 1375 441 1716 441 
Q 2309 441 2620 675 
Q 2931 909 2931 1356 
Q 2931 1769 2642 2001 
Q 2353 2234 1838 2234 
L 1294 2234 
L 1294 2753 
L 1863 2753 
Q 2328 2753 2575 2939 
Q 2822 3125 2822 3475 
Q 2822 3834 2567 4026 
Q 2313 4219 1838 4219 
Q 1578 4219 1281 4162 
Q 984 4106 628 3988 
L 628 4550 
Q 988 4650 1302 4700 
Q 1616 4750 1894 4750 
Q 2613 4750 3031 4423 
Q 3450 4097 3450 3541 
Q 3450 3153 3228 2886 
Q 3006 2619 2597 2516 
z
" transform="scale(0.015625)"/>
       </defs>
       <use xlink:href="#DejaVuSans-33"/>
      </g>
     </g>
    </g>
    <g id="ytick_2">
     <g id="line2d_10">
      <g>
       <use xlink:href="#m6a91524d9f" x="57.6" y="258.109363" style="stroke: #000000; stroke-width: 0.8"/>
      </g>
     </g>
     <g id="text_10">
      <!-- 4 -->
      <g transform="translate(44.2375 261.908582)scale(0.1 -0.1)">
       <use xlink:href="#DejaVuSans-34"/>
      </g>
     </g>
    </g>
    <g id="ytick_3">
     <g id="line2d_11">
      <g>
       <use xlink:href="#m6a91524d9f" x="57.6" y="222.060696" style="stroke: #000000; stroke-width: 0.8"/>
      </g>
     </g>
     <g id="text_11">
      <!-- 5 -->
      <g transform="translate(44.2375 225.859915)scale(0.1 -0.1)">
       <defs>
        <path id="DejaVuSans-35" d="M 691 4666 
L 3169 4666 
L 3169 4134 
L 1269 4134 
L 1269 2991 
Q 1406 3038 1543 3061 
Q 1681 3084 1819 3084 
Q 2600 3084 3056 2656 
Q 3513 2228 3513 1497 
Q 3513 744 3044 326 
Q 2575 -91 1722 -91 
Q 1428 -91 1123 -41 
Q 819 9 494 109 
L 494 744 
Q 775 591 1075 516 
Q 1375 441 1709 441 
Q 2250 441 2565 725 
Q 2881 1009 2881 1497 
Q 2881 1984 2565 2268 
Q 2250 2553 1709 2553 
Q 1456 2553 1204 2497 
Q 953 2441 691 2322 
L 691 4666 
z
" transform="scale(0.015625)"/>
       </defs>
       <use xlink:href="#DejaVuSans-35"/>
      </g>
     </g>
    </g>
    <g id="ytick_4">
     <g id="line2d_12">
      <g>
       <use xlink:href="#m6a91524d9f" x="57.6" y="186.01203" style="stroke: #000000; stroke-width: 0.8"/>
      </g>
     </g>
     <g id="text_12">
      <!-- 6 -->
      <g transform="translate(44.2375 189.811248)scale(0.1 -0.1)">
       <use xlink:href="#DejaVuSans-36"/>
      </g>
     </g>
    </g>
    <g id="ytick_5">
     <g id="line2d_13">
      <g>
       <use xlink:href="#m6a91524d9f" x="57.6" y="149.963363" style="stroke: #000000; stroke-width: 0.8"/>
      </g>
     </g>
     <g id="text_13">
      <!-- 7 -->
      <g transform="translate(44.2375 153.762582)scale(0.1 -0.1)">
       <defs>
        <path id="DejaVuSans-37" d="M 525 4666 
L 3525 4666 
L 3525 4397 
L 1831 0 
L 1172 0 
L 2766 4134 
L 525 4134 
L 525 4666 
z
" transform="scale(0.015625)"/>
       </defs>
       <use xlink:href="#DejaVuSans-37"/>
      </g>
     </g>
    </g>
    <g id="ytick_6">
     <g id="line2d_14">
      <g>
       <use xlink:href="#m6a91524d9f" x="57.6" y="113.914696" style="stroke: #000000; stroke-width: 0.8"/>
      </g>
     </g>
     <g id="text_14">
      <!-- 8 -->
      <g transform="translate(44.2375 117.713915)scale(0.1 -0.1)">
       <use xlink:href="#DejaVuSans-38"/>
      </g>
     </g>
    </g>
    <g id="ytick_7">
     <g id="line2d_15">
      <g>
       <use xlink:href="#m6a91524d9f" x="57.6" y="77.86603" style="stroke: #000000; stroke-width: 0.8"/>
      </g>
     </g>
     <g id="text_15">
      <!-- 9 -->
      <g transform="translate(44.2375 81.665249)scale(0.1 -0.1)">
       <defs>
        <path id="DejaVuSans-39" d="M 703 97 
L 703 672 
Q 941 559 1184 500 
Q 1428 441 1663 441 
Q 2288 441 2617 861 
Q 2947 1281 2994 2138 
Q 2813 1869 2534 1725 
Q 2256 1581 1919 1581 
Q 1219 1581 811 2004 
Q 403 2428 403 3163 
Q 403 3881 828 4315 
Q 1253 4750 1959 4750 
Q 2769 4750 3195 4129 
Q 3622 3509 3622 2328 
Q 3622 1225 3098 567 
Q 2575 -91 1691 -91 
Q 1453 -91 1209 -44 
Q 966 3 703 97 
z
M 1959 2075 
Q 2384 2075 2632 2365 
Q 2881 2656 2881 3163 
Q 2881 3666 2632 3958 
Q 2384 4250 1959 4250 
Q 1534 4250 1286 3958 
Q 1038 3666 1038 3163 
Q 1038 2656 1286 2365 
Q 1534 2075 1959 2075 
z
" transform="scale(0.015625)"/>
       </defs>
       <use xlink:href="#DejaVuSans-39"/>
      </g>
     </g>
    </g>
    <g id="ytick_8">
     <g id="line2d_16">
      <g>
       <use xlink:href="#m6a91524d9f" x="57.6" y="41.817363" style="stroke: #000000; stroke-width: 0.8"/>
      </g>
     </g>
     <g id="text_16">
      <!-- 10 -->
      <g transform="translate(37.875 45.616582)scale(0.1 -0.1)">
       <use xlink:href="#DejaVuSans-31"/>
       <use xlink:href="#DejaVuSans-30" x="63.623047"/>
      </g>
     </g>
    </g>
   </g>
   <g id="line2d_17">
    <defs>
     <path id="m2463e9670f" d="M 0 3 
C 0.795609 3 1.55874 2.683901 2.12132 2.12132 
C 2.683901 1.55874 3 0.795609 3 0 
C 3 -0.795609 2.683901 -1.55874 2.12132 -2.12132 
C 1.55874 -2.683901 0.795609 -3 0 -3 
C -0.795609 -3 -1.55874 -2.683901 -2.12132 -2.12132 
C -2.683901 -1.55874 -3 -0.795609 -3 0 
C -3 0.795609 -2.683901 1.55874 -2.12132 2.12132 
C -1.55874 2.683901 -0.795609 3 0 3 
z
" style="stroke: #1f77b4"/>
    </defs>
    <g clip-path="url(#pd80aa93709)">
     <use xlink:href="#m2463e9670f" x="88.989282" y="205.050695" style="fill: #1f77b4; stroke: #1f77b4"/>
     <use xlink:href="#m2463e9670f" x="101.572599" y="247.588973" style="fill: #1f77b4; stroke: #1f77b4"/>
     <use xlink:href="#m2463e9670f" x="169.169094" y="236.93014" style="fill: #1f77b4; stroke: #1f77b4"/>
     <use xlink:href="#m2463e9670f" x="176.096816" y="275.235558" style="fill: #1f77b4; stroke: #1f77b4"/>
     <use xlink:href="#m2463e9670f" x="120.894603" y="242.955157" style="fill: #1f77b4; stroke: #1f77b4"/>
     <use xlink:href="#m2463e9670f" x="84.119848" y="189.463461" style="fill: #1f77b4; stroke: #1f77b4"/>
     <use xlink:href="#m2463e9670f" x="130.790976" y="252.378932" style="fill: #1f77b4; stroke: #1f77b4"/>
     <use xlink:href="#m2463e9670f" x="83.192311" y="192.654032" style="fill: #1f77b4; stroke: #1f77b4"/>
     <use xlink:href="#m2463e9670f" x="156.102069" y="178.579218" style="fill: #1f77b4; stroke: #1f77b4"/>
     <use xlink:href="#m2463e9670f" x="77.085008" y="177.319758" style="fill: #1f77b4; stroke: #1f77b4"/>
     <use xlink:href="#m2463e9670f" x="127.431922" y="255.367877" style="fill: #1f77b4; stroke: #1f77b4"/>
     <use xlink:href="#m2463e9670f" x="112.457801" y="254.297678" style="fill: #1f77b4; stroke: #1f77b4"/>
     <use xlink:href="#m2463e9670f" x="74.567133" y="178.976475" style="fill: #1f77b4; stroke: #1f77b4"/>
     <use xlink:href="#m2463e9670f" x="128.243101" y="245.95409" style="fill: #1f77b4; stroke: #1f77b4"/>
     <use xlink:href="#m2463e9670f" x="175.181456" y="276.085839" style="fill: #1f77b4; stroke: #1f77b4"/>
     <use xlink:href="#m2463e9670f" x="149.140012" y="211.280602" style="fill: #1f77b4; stroke: #1f77b4"/>
     <use xlink:href="#m2463e9670f" x="171.430526" y="255.765042" style="fill: #1f77b4; stroke: #1f77b4"/>
     <use xlink:href="#m2463e9670f" x="173.553008" y="262.505012" style="fill: #1f77b4; stroke: #1f77b4"/>
     <use xlink:href="#m2463e9670f" x="161.375501" y="176.812084" style="fill: #1f77b4; stroke: #1f77b4"/>
     <use xlink:href="#m2463e9670f" x="93.549582" y="206.323456" style="fill: #1f77b4; stroke: #1f77b4"/>
     <use xlink:href="#m2463e9670f" x="73.832727" y="183.153929" style="fill: #1f77b4; stroke: #1f77b4"/>
     <use xlink:href="#m2463e9670f" x="127.157564" y="249.730364" style="fill: #1f77b4; stroke: #1f77b4"/>
     <use xlink:href="#m2463e9670f" x="162.309411" y="180.269871" style="fill: #1f77b4; stroke: #1f77b4"/>
     <use xlink:href="#m2463e9670f" x="164.965029" y="199.69531" style="fill: #1f77b4; stroke: #1f77b4"/>
     <use xlink:href="#m2463e9670f" x="75.726689" y="178.852025" style="fill: #1f77b4; stroke: #1f77b4"/>
    </g>
   </g>
   <g id="line2d_18">
    <defs>
     <path id="m157b58975e" d="M 0 3 
C 0.795609 3 1.55874 2.683901 2.12132 2.12132 
C 2.683901 1.55874 3 0.795609 3 0 
C 3 -0.795609 2.683901 -1.55874 2.12132 -2.12132 
C 1.55874 -2.683901 0.795609 -3 0 -3 
C -0.795609 -3 -1.55874 -2.683901 -2.12132 -2.12132 
C -2.683901 -1.55874 -3 -0.795609 -3 0 
C -3 0.795609 -2.683901 1.55874 -2.12132 2.12132 
C -1.55874 2.683901 -0.795609 3 0 3 
z
" style="stroke: #ff7f0e"/>
    </defs>
    <g clip-path="url(#pd80aa93709)">
     <use xlink:href="#m157b58975e" x="226.126059" y="120.368405" style="fill: #ff7f0e; stroke: #ff7f0e"/>
     <use xlink:href="#m157b58975e" x="264.70084" y="195.89537" style="fill: #ff7f0e; stroke: #ff7f0e"/>
     <use xlink:href="#m157b58975e" x="272.250751" y="174.477033" style="fill: #ff7f0e; stroke: #ff7f0e"/>
     <use xlink:href="#m157b58975e" x="270.159552" y="202.616148" style="fill: #ff7f0e; stroke: #ff7f0e"/>
     <use xlink:href="#m157b58975e" x="219.670911" y="134.577104" style="fill: #ff7f0e; stroke: #ff7f0e"/>
     <use xlink:href="#m157b58975e" x="259.730872" y="193.819705" style="fill: #ff7f0e; stroke: #ff7f0e"/>
     <use xlink:href="#m157b58975e" x="288.84309" y="135.030668" style="fill: #ff7f0e; stroke: #ff7f0e"/>
     <use xlink:href="#m157b58975e" x="249.514526" y="239.879613" style="fill: #ff7f0e; stroke: #ff7f0e"/>
     <use xlink:href="#m157b58975e" x="188.28729" y="178.857449" style="fill: #ff7f0e; stroke: #ff7f0e"/>
     <use xlink:href="#m157b58975e" x="219.495318" y="136.058053" style="fill: #ff7f0e; stroke: #ff7f0e"/>
     <use xlink:href="#m157b58975e" x="184.20134" y="212.804321" style="fill: #ff7f0e; stroke: #ff7f0e"/>
     <use xlink:href="#m157b58975e" x="240.27331" y="187.368681" style="fill: #ff7f0e; stroke: #ff7f0e"/>
     <use xlink:href="#m157b58975e" x="275.605012" y="156.904038" style="fill: #ff7f0e; stroke: #ff7f0e"/>
     <use xlink:href="#m157b58975e" x="239.926746" y="191.168456" style="fill: #ff7f0e; stroke: #ff7f0e"/>
     <use xlink:href="#m157b58975e" x="266.854618" y="209.873278" style="fill: #ff7f0e; stroke: #ff7f0e"/>
     <use xlink:href="#m157b58975e" x="242.024607" y="215.336703" style="fill: #ff7f0e; stroke: #ff7f0e"/>
     <use xlink:href="#m157b58975e" x="231.649575" y="85.241272" style="fill: #ff7f0e; stroke: #ff7f0e"/>
     <use xlink:href="#m157b58975e" x="287.841029" y="122.843542" style="fill: #ff7f0e; stroke: #ff7f0e"/>
     <use xlink:href="#m157b58975e" x="289.027915" y="136.619916" style="fill: #ff7f0e; stroke: #ff7f0e"/>
     <use xlink:href="#m157b58975e" x="272.028082" y="181.768563" style="fill: #ff7f0e; stroke: #ff7f0e"/>
     <use xlink:href="#m157b58975e" x="257.682543" y="198.047858" style="fill: #ff7f0e; stroke: #ff7f0e"/>
     <use xlink:href="#m157b58975e" x="182.463708" y="235.538273" style="fill: #ff7f0e; stroke: #ff7f0e"/>
     <use xlink:href="#m157b58975e" x="202.012165" y="103.229772" style="fill: #ff7f0e; stroke: #ff7f0e"/>
     <use xlink:href="#m157b58975e" x="266.872935" y="206.495624" style="fill: #ff7f0e; stroke: #ff7f0e"/>
     <use xlink:href="#m157b58975e" x="286.009757" y="134.080849" style="fill: #ff7f0e; stroke: #ff7f0e"/>
    </g>
   </g>
   <g id="line2d_19">
    <defs>
     <path id="m5e2e8be32d" d="M 0 3 
C 0.795609 3 1.55874 2.683901 2.12132 2.12132 
C 2.683901 1.55874 3 0.795609 3 0 
C 3 -0.795609 2.683901 -1.55874 2.12132 -2.12132 
C 1.55874 -2.683901 0.795609 -3 0 -3 
C -0.795609 -3 -1.55874 -2.683901 -2.12132 -2.12132 
C -2.683901 -1.55874 -3 -0.795609 -3 0 
C -3 0.795609 -2.683901 1.55874 -2.12132 2.12132 
C -1.55874 2.683901 -0.795609 3 0 3 
z
" style="stroke: #2ca02c"/>
    </defs>
    <g clip-path="url(#pd80aa93709)">
     <use xlink:href="#m5e2e8be32d" x="312.66026" y="87.30434" style="fill: #2ca02c; stroke: #2ca02c"/>
     <use xlink:href="#m5e2e8be32d" x="336.654072" y="125.834317" style="fill: #2ca02c; stroke: #2ca02c"/>
     <use xlink:href="#m5e2e8be32d" x="354.795232" y="127.878123" style="fill: #2ca02c; stroke: #2ca02c"/>
     <use xlink:href="#m5e2e8be32d" x="371.281512" y="178.059966" style="fill: #2ca02c; stroke: #2ca02c"/>
     <use xlink:href="#m5e2e8be32d" x="336.469478" y="111.678893" style="fill: #2ca02c; stroke: #2ca02c"/>
     <use xlink:href="#m5e2e8be32d" x="296.725971" y="53.568" style="fill: #2ca02c; stroke: #2ca02c"/>
     <use xlink:href="#m5e2e8be32d" x="368.286224" y="166.095862" style="fill: #2ca02c; stroke: #2ca02c"/>
     <use xlink:href="#m5e2e8be32d" x="358.795909" y="156.815057" style="fill: #2ca02c; stroke: #2ca02c"/>
     <use xlink:href="#m5e2e8be32d" x="349.527529" y="130.32428" style="fill: #2ca02c; stroke: #2ca02c"/>
     <use xlink:href="#m5e2e8be32d" x="333.959123" y="127.452544" style="fill: #2ca02c; stroke: #2ca02c"/>
     <use xlink:href="#m5e2e8be32d" x="310.560532" y="123.191356" style="fill: #2ca02c; stroke: #2ca02c"/>
     <use xlink:href="#m5e2e8be32d" x="338.780286" y="114.323976" style="fill: #2ca02c; stroke: #2ca02c"/>
     <use xlink:href="#m5e2e8be32d" x="360.465305" y="157.411883" style="fill: #2ca02c; stroke: #2ca02c"/>
     <use xlink:href="#m5e2e8be32d" x="299.355575" y="64.126465" style="fill: #2ca02c; stroke: #2ca02c"/>
     <use xlink:href="#m5e2e8be32d" x="387.294197" y="295.488" style="fill: #2ca02c; stroke: #2ca02c"/>
     <use xlink:href="#m5e2e8be32d" x="315.28935" y="76.211372" style="fill: #2ca02c; stroke: #2ca02c"/>
     <use xlink:href="#m5e2e8be32d" x="398.487273" y="276.188959" style="fill: #2ca02c; stroke: #2ca02c"/>
     <use xlink:href="#m5e2e8be32d" x="381.754514" y="263.704862" style="fill: #2ca02c; stroke: #2ca02c"/>
     <use xlink:href="#m5e2e8be32d" x="312.769294" y="87.735797" style="fill: #2ca02c; stroke: #2ca02c"/>
     <use xlink:href="#m5e2e8be32d" x="315.83525" y="74.580759" style="fill: #2ca02c; stroke: #2ca02c"/>
     <use xlink:href="#m5e2e8be32d" x="307.205638" y="170.753929" style="fill: #2ca02c; stroke: #2ca02c"/>
     <use xlink:href="#m5e2e8be32d" x="373.861744" y="190.285551" style="fill: #2ca02c; stroke: #2ca02c"/>
     <use xlink:href="#m5e2e8be32d" x="341.612443" y="112.754006" style="fill: #2ca02c; stroke: #2ca02c"/>
     <use xlink:href="#m5e2e8be32d" x="353.177347" y="124.570179" style="fill: #2ca02c; stroke: #2ca02c"/>
     <use xlink:href="#m5e2e8be32d" x="381.703641" y="252.709061" style="fill: #2ca02c; stroke: #2ca02c"/>
    </g>
   </g>
   <g id="patch_3">
    <path d="M 57.6 307.584 
L 57.6 41.472 
" style="fill: none; stroke: #000000; stroke-width: 0.8; stroke-linejoin: miter; stroke-linecap: square"/>
   </g>
   <g id="patch_4">
    <path d="M 414.72 307.584 
L 414.72 41.472 
" style="fill: none; stroke: #000000; stroke-width: 0.8; stroke-linejoin: miter; stroke-linecap: square"/>
   </g>
   <g id="patch_5">
    <path d="M 57.6 307.584 
L 414.72 307.584 
" style="fill: none; stroke: #000000; stroke-width: 0.8; stroke-linejoin: miter; stroke-linecap: square"/>
   </g>
   <g id="patch_6">
    <path d="M 57.6 41.472 
L 414.72 41.472 
" style="fill: none; stroke: #000000; stroke-width: 0.8; stroke-linejoin: miter; stroke-linecap: square"/>
   </g>
   <g id="legend_1">
    <g id="patch_7">
     <path d="M 350.27 93.506375 
L 407.72 93.506375 
Q 409.72 93.506375 409.72 91.506375 
L 409.72 48.472 
Q 409.72 46.472 407.72 46.472 
L 350.27 46.472 
Q 348.27 46.472 348.27 48.472 
L 348.27 91.506375 
Q 348.27 93.506375 350.27 93.506375 
z
" style="fill: #ffffff; opacity: 0.8; stroke: #cccccc; stroke-linejoin: miter"/>
    </g>
    <g id="line2d_20">
     <g>
      <use xlink:href="#m2463e9670f" x="362.27" y="54.570438" style="fill: #1f77b4; stroke: #1f77b4"/>
     </g>
    </g>
    <g id="text_17">
     <!-- 4300 -->
     <g transform="translate(380.27 58.070438)scale(0.1 -0.1)">
      <use xlink:href="#DejaVuSans-34"/>
      <use xlink:href="#DejaVuSans-33" x="63.623047"/>
      <use xlink:href="#DejaVuSans-30" x="127.246094"/>
      <use xlink:href="#DejaVuSans-30" x="190.869141"/>
     </g>
    </g>
    <g id="line2d_21">
     <g>
      <use xlink:href="#m157b58975e" x="362.27" y="69.248563" style="fill: #ff7f0e; stroke: #ff7f0e"/>
     </g>
    </g>
    <g id="text_18">
     <!-- 5700 -->
     <g transform="translate(380.27 72.748563)scale(0.1 -0.1)">
      <use xlink:href="#DejaVuSans-35"/>
      <use xlink:href="#DejaVuSans-37" x="63.623047"/>
      <use xlink:href="#DejaVuSans-30" x="127.246094"/>
      <use xlink:href="#DejaVuSans-30" x="190.869141"/>
     </g>
    </g>
    <g id="line2d_22">
     <g>
      <use xlink:href="#m5e2e8be32d" x="362.27" y="83.926688" style="fill: #2ca02c; stroke: #2ca02c"/>
     </g>
    </g>
    <g id="text_19">
     <!-- 6200 -->
     <g transform="translate(380.27 87.426688)scale(0.1 -0.1)">
      <use xlink:href="#DejaVuSans-36"/>
      <use xlink:href="#DejaVuSans-32" x="63.623047"/>
      <use xlink:href="#DejaVuSans-30" x="127.246094"/>
      <use xlink:href="#DejaVuSans-30" x="190.869141"/>
     </g>
    </g>
   </g>
  </g>
 </g>
 <defs>
  <clipPath id="pd80aa93709">
   <rect x="57.6" y="41.472" width="357.12" height="266.112"/>
  </clipPath>
 </defs>
</svg>
