<?xml version="1.0" encoding="utf-8" standalone="no"?>
<!DOCTYPE svg PUBLIC "-//W3C//DTD SVG 1.1//EN"
  "http://www.w3.org/Graphics/SVG/1.1/DTD/svg11.dtd">
<svg xmlns:xlink="http://www.w3.org/1999/xlink" width="460.8pt" height="345.6pt" viewBox="0 0 460.8 345.6" xmlns="http://www.w3.org/2000/svg" version="1.1">
 <metadata>
  <rdf:RDF xmlns:dc="http://purl.org/dc/elements/1.1/" xmlns:cc="http://creativecommons.org/ns#" xmlns:rdf="http://www.w3.org/1999/02/22-rdf-syntax-ns#">
   <cc:Work>
    <dc:type rdf:resource="http://purl.org/dc/dcmitype/StillImage"/>
    <dc:date>2022-01-27T13:30:31.732626</dc:date>
    <dc:format>image/svg+xml</dc:format>
    <dc:creator>
     <cc:Agent>
      <dc:title>Matplotlib v3.5.1, https://matplotlib.org/</dc:title>
     </cc:Agent>
    </dc:creator>
   </cc:Work>
  </rdf:RDF>
 </metadata>
 <defs>
  <style type="text/css">*{stroke-linejoin: round; stroke-linecap: butt}</style>
 </defs>
 <g id="figure_1">
  <g id="patch_1">
   <path d="M 0 345.6 
L 460.8 345.6 
L 460.8 0 
L 0 0 
z
" style="fill: #ffffff"/>
  </g>
  <g id="axes_1">
   <g id="patch_2">
    <path d="M 57.6 307.584 
L 414.72 307.584 
L 414.72 41.472 
L 57.6 41.472 
z
" style="fill: #ffffff"/>
   </g>
   <g id="matplotlib.axis_1">
    <g id="xtick_1">
     <g id="line2d_1">
      <defs>
       <path id="m50b6053eb7" d="M 0 0 
L 0 3.5 
" style="stroke: #000000; stroke-width: 0.8"/>
      </defs>
      <g>
       <use xlink:href="#m50b6053eb7" x="73.161481" y="307.584" style="stroke: #000000; stroke-width: 0.8"/>
      </g>
     </g>
     <g id="text_1">
      <!-- 0 -->
      <g transform="translate(69.980231 322.182437)scale(0.1 -0.1)">
       <defs>
        <path id="DejaVuSans-30" d="M 2034 4250 
Q 1547 4250 1301 3770 
Q 1056 3291 1056 2328 
Q 1056 1369 1301 889 
Q 1547 409 2034 409 
Q 2525 409 2770 889 
Q 3016 1369 3016 2328 
Q 3016 3291 2770 3770 
Q 2525 4250 2034 4250 
z
M 2034 4750 
Q 2819 4750 3233 4129 
Q 3647 3509 3647 2328 
Q 3647 1150 3233 529 
Q 2819 -91 2034 -91 
Q 1250 -91 836 529 
Q 422 1150 422 2328 
Q 422 3509 836 4129 
Q 1250 4750 2034 4750 
z
" transform="scale(0.015625)"/>
       </defs>
       <use xlink:href="#DejaVuSans-30"/>
      </g>
     </g>
    </g>
    <g id="xtick_2">
     <g id="line2d_2">
      <g>
       <use xlink:href="#m50b6053eb7" x="116.570039" y="307.584" style="stroke: #000000; stroke-width: 0.8"/>
      </g>
     </g>
     <g id="text_2">
      <!-- 20 -->
      <g transform="translate(110.207539 322.182437)scale(0.1 -0.1)">
       <defs>
        <path id="DejaVuSans-32" d="M 1228 531 
L 3431 531 
L 3431 0 
L 469 0 
L 469 531 
Q 828 903 1448 1529 
Q 2069 2156 2228 2338 
Q 2531 2678 2651 2914 
Q 2772 3150 2772 3378 
Q 2772 3750 2511 3984 
Q 2250 4219 1831 4219 
Q 1534 4219 1204 4116 
Q 875 4013 500 3803 
L 500 4441 
Q 881 4594 1212 4672 
Q 1544 4750 1819 4750 
Q 2544 4750 2975 4387 
Q 3406 4025 3406 3419 
Q 3406 3131 3298 2873 
Q 3191 2616 2906 2266 
Q 2828 2175 2409 1742 
Q 1991 1309 1228 531 
z
" transform="scale(0.015625)"/>
       </defs>
       <use xlink:href="#DejaVuSans-32"/>
       <use xlink:href="#DejaVuSans-30" x="63.623047"/>
      </g>
     </g>
    </g>
    <g id="xtick_3">
     <g id="line2d_3">
      <g>
       <use xlink:href="#m50b6053eb7" x="159.978597" y="307.584" style="stroke: #000000; stroke-width: 0.8"/>
      </g>
     </g>
     <g id="text_3">
      <!-- 40 -->
      <g transform="translate(153.616097 322.182437)scale(0.1 -0.1)">
       <defs>
        <path id="DejaVuSans-34" d="M 2419 4116 
L 825 1625 
L 2419 1625 
L 2419 4116 
z
M 2253 4666 
L 3047 4666 
L 3047 1625 
L 3713 1625 
L 3713 1100 
L 3047 1100 
L 3047 0 
L 2419 0 
L 2419 1100 
L 313 1100 
L 313 1709 
L 2253 4666 
z
" transform="scale(0.015625)"/>
       </defs>
       <use xlink:href="#DejaVuSans-34"/>
       <use xlink:href="#DejaVuSans-30" x="63.623047"/>
      </g>
     </g>
    </g>
    <g id="xtick_4">
     <g id="line2d_4">
      <g>
       <use xlink:href="#m50b6053eb7" x="203.387155" y="307.584" style="stroke: #000000; stroke-width: 0.8"/>
      </g>
     </g>
     <g id="text_4">
      <!-- 60 -->
      <g transform="translate(197.024655 322.182437)scale(0.1 -0.1)">
       <defs>
        <path id="DejaVuSans-36" d="M 2113 2584 
Q 1688 2584 1439 2293 
Q 1191 2003 1191 1497 
Q 1191 994 1439 701 
Q 1688 409 2113 409 
Q 2538 409 2786 701 
Q 3034 994 3034 1497 
Q 3034 2003 2786 2293 
Q 2538 2584 2113 2584 
z
M 3366 4563 
L 3366 3988 
Q 3128 4100 2886 4159 
Q 2644 4219 2406 4219 
Q 1781 4219 1451 3797 
Q 1122 3375 1075 2522 
Q 1259 2794 1537 2939 
Q 1816 3084 2150 3084 
Q 2853 3084 3261 2657 
Q 3669 2231 3669 1497 
Q 3669 778 3244 343 
Q 2819 -91 2113 -91 
Q 1303 -91 875 529 
Q 447 1150 447 2328 
Q 447 3434 972 4092 
Q 1497 4750 2381 4750 
Q 2619 4750 2861 4703 
Q 3103 4656 3366 4563 
z
" transform="scale(0.015625)"/>
       </defs>
       <use xlink:href="#DejaVuSans-36"/>
       <use xlink:href="#DejaVuSans-30" x="63.623047"/>
      </g>
     </g>
    </g>
    <g id="xtick_5">
     <g id="line2d_5">
      <g>
       <use xlink:href="#m50b6053eb7" x="246.795713" y="307.584" style="stroke: #000000; stroke-width: 0.8"/>
      </g>
     </g>
     <g id="text_5">
      <!-- 80 -->
      <g transform="translate(240.433213 322.182437)scale(0.1 -0.1)">
       <defs>
        <path id="DejaVuSans-38" d="M 2034 2216 
Q 1584 2216 1326 1975 
Q 1069 1734 1069 1313 
Q 1069 891 1326 650 
Q 1584 409 2034 409 
Q 2484 409 2743 651 
Q 3003 894 3003 1313 
Q 3003 1734 2745 1975 
Q 2488 2216 2034 2216 
z
M 1403 2484 
Q 997 2584 770 2862 
Q 544 3141 544 3541 
Q 544 4100 942 4425 
Q 1341 4750 2034 4750 
Q 2731 4750 3128 4425 
Q 3525 4100 3525 3541 
Q 3525 3141 3298 2862 
Q 3072 2584 2669 2484 
Q 3125 2378 3379 2068 
Q 3634 1759 3634 1313 
Q 3634 634 3220 271 
Q 2806 -91 2034 -91 
Q 1263 -91 848 271 
Q 434 634 434 1313 
Q 434 1759 690 2068 
Q 947 2378 1403 2484 
z
M 1172 3481 
Q 1172 3119 1398 2916 
Q 1625 2713 2034 2713 
Q 2441 2713 2670 2916 
Q 2900 3119 2900 3481 
Q 2900 3844 2670 4047 
Q 2441 4250 2034 4250 
Q 1625 4250 1398 4047 
Q 1172 3844 1172 3481 
z
" transform="scale(0.015625)"/>
       </defs>
       <use xlink:href="#DejaVuSans-38"/>
       <use xlink:href="#DejaVuSans-30" x="63.623047"/>
      </g>
     </g>
    </g>
    <g id="xtick_6">
     <g id="line2d_6">
      <g>
       <use xlink:href="#m50b6053eb7" x="290.204271" y="307.584" style="stroke: #000000; stroke-width: 0.8"/>
      </g>
     </g>
     <g id="text_6">
      <!-- 100 -->
      <g transform="translate(280.660521 322.182437)scale(0.1 -0.1)">
       <defs>
        <path id="DejaVuSans-31" d="M 794 531 
L 1825 531 
L 1825 4091 
L 703 3866 
L 703 4441 
L 1819 4666 
L 2450 4666 
L 2450 531 
L 3481 531 
L 3481 0 
L 794 0 
L 794 531 
z
" transform="scale(0.015625)"/>
       </defs>
       <use xlink:href="#DejaVuSans-31"/>
       <use xlink:href="#DejaVuSans-30" x="63.623047"/>
       <use xlink:href="#DejaVuSans-30" x="127.246094"/>
      </g>
     </g>
    </g>
    <g id="xtick_7">
     <g id="line2d_7">
      <g>
       <use xlink:href="#m50b6053eb7" x="333.612829" y="307.584" style="stroke: #000000; stroke-width: 0.8"/>
      </g>
     </g>
     <g id="text_7">
      <!-- 120 -->
      <g transform="translate(324.069079 322.182437)scale(0.1 -0.1)">
       <use xlink:href="#DejaVuSans-31"/>
       <use xlink:href="#DejaVuSans-32" x="63.623047"/>
       <use xlink:href="#DejaVuSans-30" x="127.246094"/>
      </g>
     </g>
    </g>
    <g id="xtick_8">
     <g id="line2d_8">
      <g>
       <use xlink:href="#m50b6053eb7" x="377.021387" y="307.584" style="stroke: #000000; stroke-width: 0.8"/>
      </g>
     </g>
     <g id="text_8">
      <!-- 140 -->
      <g transform="translate(367.477637 322.182437)scale(0.1 -0.1)">
       <use xlink:href="#DejaVuSans-31"/>
       <use xlink:href="#DejaVuSans-34" x="63.623047"/>
       <use xlink:href="#DejaVuSans-30" x="127.246094"/>
      </g>
     </g>
    </g>
   </g>
   <g id="matplotlib.axis_2">
    <g id="ytick_1">
     <g id="line2d_9">
      <defs>
       <path id="m14353f5786" d="M 0 0 
L -3.5 0 
" style="stroke: #000000; stroke-width: 0.8"/>
      </defs>
      <g>
       <use xlink:href="#m14353f5786" x="57.6" y="300.484934" style="stroke: #000000; stroke-width: 0.8"/>
      </g>
     </g>
     <g id="text_9">
      <!-- 3 -->
      <g transform="translate(44.2375 304.284153)scale(0.1 -0.1)">
       <defs>
        <path id="DejaVuSans-33" d="M 2597 2516 
Q 3050 2419 3304 2112 
Q 3559 1806 3559 1356 
Q 3559 666 3084 287 
Q 2609 -91 1734 -91 
Q 1441 -91 1130 -33 
Q 819 25 488 141 
L 488 750 
Q 750 597 1062 519 
Q 1375 441 1716 441 
Q 2309 441 2620 675 
Q 2931 909 2931 1356 
Q 2931 1769 2642 2001 
Q 2353 2234 1838 2234 
L 1294 2234 
L 1294 2753 
L 1863 2753 
Q 2328 2753 2575 2939 
Q 2822 3125 2822 3475 
Q 2822 3834 2567 4026 
Q 2313 4219 1838 4219 
Q 1578 4219 1281 4162 
Q 984 4106 628 3988 
L 628 4550 
Q 988 4650 1302 4700 
Q 1616 4750 1894 4750 
Q 2613 4750 3031 4423 
Q 3450 4097 3450 3541 
Q 3450 3153 3228 2886 
Q 3006 2619 2597 2516 
z
" transform="scale(0.015625)"/>
       </defs>
       <use xlink:href="#DejaVuSans-33"/>
      </g>
     </g>
    </g>
    <g id="ytick_2">
     <g id="line2d_10">
      <g>
       <use xlink:href="#m14353f5786" x="57.6" y="252.825026" style="stroke: #000000; stroke-width: 0.8"/>
      </g>
     </g>
     <g id="text_10">
      <!-- 4 -->
      <g transform="translate(44.2375 256.624245)scale(0.1 -0.1)">
       <use xlink:href="#DejaVuSans-34"/>
      </g>
     </g>
    </g>
    <g id="ytick_3">
     <g id="line2d_11">
      <g>
       <use xlink:href="#m14353f5786" x="57.6" y="205.165118" style="stroke: #000000; stroke-width: 0.8"/>
      </g>
     </g>
     <g id="text_11">
      <!-- 5 -->
      <g transform="translate(44.2375 208.964337)scale(0.1 -0.1)">
       <defs>
        <path id="DejaVuSans-35" d="M 691 4666 
L 3169 4666 
L 3169 4134 
L 1269 4134 
L 1269 2991 
Q 1406 3038 1543 3061 
Q 1681 3084 1819 3084 
Q 2600 3084 3056 2656 
Q 3513 2228 3513 1497 
Q 3513 744 3044 326 
Q 2575 -91 1722 -91 
Q 1428 -91 1123 -41 
Q 819 9 494 109 
L 494 744 
Q 775 591 1075 516 
Q 1375 441 1709 441 
Q 2250 441 2565 725 
Q 2881 1009 2881 1497 
Q 2881 1984 2565 2268 
Q 2250 2553 1709 2553 
Q 1456 2553 1204 2497 
Q 953 2441 691 2322 
L 691 4666 
z
" transform="scale(0.015625)"/>
       </defs>
       <use xlink:href="#DejaVuSans-35"/>
      </g>
     </g>
    </g>
    <g id="ytick_4">
     <g id="line2d_12">
      <g>
       <use xlink:href="#m14353f5786" x="57.6" y="157.505211" style="stroke: #000000; stroke-width: 0.8"/>
      </g>
     </g>
     <g id="text_12">
      <!-- 6 -->
      <g transform="translate(44.2375 161.304429)scale(0.1 -0.1)">
       <use xlink:href="#DejaVuSans-36"/>
      </g>
     </g>
    </g>
    <g id="ytick_5">
     <g id="line2d_13">
      <g>
       <use xlink:href="#m14353f5786" x="57.6" y="109.845303" style="stroke: #000000; stroke-width: 0.8"/>
      </g>
     </g>
     <g id="text_13">
      <!-- 7 -->
      <g transform="translate(44.2375 113.644522)scale(0.1 -0.1)">
       <defs>
        <path id="DejaVuSans-37" d="M 525 4666 
L 3525 4666 
L 3525 4397 
L 1831 0 
L 1172 0 
L 2766 4134 
L 525 4134 
L 525 4666 
z
" transform="scale(0.015625)"/>
       </defs>
       <use xlink:href="#DejaVuSans-37"/>
      </g>
     </g>
    </g>
    <g id="ytick_6">
     <g id="line2d_14">
      <g>
       <use xlink:href="#m14353f5786" x="57.6" y="62.185395" style="stroke: #000000; stroke-width: 0.8"/>
      </g>
     </g>
     <g id="text_14">
      <!-- 8 -->
      <g transform="translate(44.2375 65.984614)scale(0.1 -0.1)">
       <use xlink:href="#DejaVuSans-38"/>
      </g>
     </g>
    </g>
   </g>
   <g id="line2d_15">
    <defs>
     <path id="mf01b0db108" d="M 0 3 
C 0.795609 3 1.55874 2.683901 2.12132 2.12132 
C 2.683901 1.55874 3 0.795609 3 0 
C 3 -0.795609 2.683901 -1.55874 2.12132 -2.12132 
C 1.55874 -2.683901 0.795609 -3 0 -3 
C -0.795609 -3 -1.55874 -2.683901 -2.12132 -2.12132 
C -2.683901 -1.55874 -3 -0.795609 -3 0 
C -3 0.795609 -2.683901 1.55874 -2.12132 2.12132 
C -1.55874 2.683901 -0.795609 3 0 3 
z
" style="stroke: #1f77b4"/>
    </defs>
    <g clip-path="url(#p303fd07d03)">
     <use xlink:href="#mf01b0db108" x="91.921759" y="173.082292" style="fill: #1f77b4; stroke: #1f77b4"/>
     <use xlink:href="#mf01b0db108" x="103.162169" y="227.330265" style="fill: #1f77b4; stroke: #1f77b4"/>
     <use xlink:href="#mf01b0db108" x="114.609275" y="234.624092" style="fill: #1f77b4; stroke: #1f77b4"/>
     <use xlink:href="#mf01b0db108" x="124.024873" y="274.925041" style="fill: #1f77b4; stroke: #1f77b4"/>
     <use xlink:href="#mf01b0db108" x="167.233127" y="229.058142" style="fill: #1f77b4; stroke: #1f77b4"/>
     <use xlink:href="#mf01b0db108" x="109.894844" y="210.621551" style="fill: #1f77b4; stroke: #1f77b4"/>
     <use xlink:href="#mf01b0db108" x="115.028041" y="238.654472" style="fill: #1f77b4; stroke: #1f77b4"/>
     <use xlink:href="#mf01b0db108" x="137.115825" y="189.875434" style="fill: #1f77b4; stroke: #1f77b4"/>
     <use xlink:href="#mf01b0db108" x="171.946864" y="188.3507" style="fill: #1f77b4; stroke: #1f77b4"/>
     <use xlink:href="#mf01b0db108" x="156.157522" y="177.589435" style="fill: #1f77b4; stroke: #1f77b4"/>
     <use xlink:href="#mf01b0db108" x="95.840702" y="192.998968" style="fill: #1f77b4; stroke: #1f77b4"/>
     <use xlink:href="#mf01b0db108" x="91.43793" y="179.777387" style="fill: #1f77b4; stroke: #1f77b4"/>
     <use xlink:href="#mf01b0db108" x="164.22631" y="226.424852" style="fill: #1f77b4; stroke: #1f77b4"/>
     <use xlink:href="#mf01b0db108" x="118.895908" y="275.084005" style="fill: #1f77b4; stroke: #1f77b4"/>
     <use xlink:href="#mf01b0db108" x="79.147798" y="226.428288" style="fill: #1f77b4; stroke: #1f77b4"/>
     <use xlink:href="#mf01b0db108" x="135.478955" y="201.616793" style="fill: #1f77b4; stroke: #1f77b4"/>
     <use xlink:href="#mf01b0db108" x="97.669192" y="212.270933" style="fill: #1f77b4; stroke: #1f77b4"/>
     <use xlink:href="#mf01b0db108" x="99.635705" y="224.681092" style="fill: #1f77b4; stroke: #1f77b4"/>
     <use xlink:href="#mf01b0db108" x="92.84178" y="182.882657" style="fill: #1f77b4; stroke: #1f77b4"/>
     <use xlink:href="#mf01b0db108" x="153.766469" y="171.549714" style="fill: #1f77b4; stroke: #1f77b4"/>
     <use xlink:href="#mf01b0db108" x="169.732422" y="216.333015" style="fill: #1f77b4; stroke: #1f77b4"/>
     <use xlink:href="#mf01b0db108" x="73.832727" y="201.648842" style="fill: #1f77b4; stroke: #1f77b4"/>
     <use xlink:href="#mf01b0db108" x="107.78148" y="209.434627" style="fill: #1f77b4; stroke: #1f77b4"/>
     <use xlink:href="#mf01b0db108" x="124.58038" y="267.742237" style="fill: #1f77b4; stroke: #1f77b4"/>
     <use xlink:href="#mf01b0db108" x="78.708162" y="232.829409" style="fill: #1f77b4; stroke: #1f77b4"/>
     <use xlink:href="#mf01b0db108" x="97.776613" y="205.959809" style="fill: #1f77b4; stroke: #1f77b4"/>
     <use xlink:href="#mf01b0db108" x="81.791484" y="237.189952" style="fill: #1f77b4; stroke: #1f77b4"/>
     <use xlink:href="#mf01b0db108" x="96.851619" y="199.860827" style="fill: #1f77b4; stroke: #1f77b4"/>
     <use xlink:href="#mf01b0db108" x="141.13451" y="221.839727" style="fill: #1f77b4; stroke: #1f77b4"/>
     <use xlink:href="#mf01b0db108" x="74.116895" y="220.334013" style="fill: #1f77b4; stroke: #1f77b4"/>
     <use xlink:href="#mf01b0db108" x="86.873465" y="216.615293" style="fill: #1f77b4; stroke: #1f77b4"/>
     <use xlink:href="#mf01b0db108" x="147.723323" y="199.159465" style="fill: #1f77b4; stroke: #1f77b4"/>
     <use xlink:href="#mf01b0db108" x="86.303635" y="215.846329" style="fill: #1f77b4; stroke: #1f77b4"/>
     <use xlink:href="#mf01b0db108" x="80.489453" y="242.955068" style="fill: #1f77b4; stroke: #1f77b4"/>
     <use xlink:href="#mf01b0db108" x="174.078096" y="188.13247" style="fill: #1f77b4; stroke: #1f77b4"/>
     <use xlink:href="#mf01b0db108" x="147.504117" y="198.760902" style="fill: #1f77b4; stroke: #1f77b4"/>
     <use xlink:href="#mf01b0db108" x="91.625527" y="175.537311" style="fill: #1f77b4; stroke: #1f77b4"/>
     <use xlink:href="#mf01b0db108" x="149.91643" y="177.059892" style="fill: #1f77b4; stroke: #1f77b4"/>
     <use xlink:href="#mf01b0db108" x="107.137773" y="215.448649" style="fill: #1f77b4; stroke: #1f77b4"/>
     <use xlink:href="#mf01b0db108" x="114.628421" y="231.174118" style="fill: #1f77b4; stroke: #1f77b4"/>
     <use xlink:href="#mf01b0db108" x="144.324682" y="230.449288" style="fill: #1f77b4; stroke: #1f77b4"/>
     <use xlink:href="#mf01b0db108" x="165.867996" y="225.425969" style="fill: #1f77b4; stroke: #1f77b4"/>
     <use xlink:href="#mf01b0db108" x="152.450522" y="168.215027" style="fill: #1f77b4; stroke: #1f77b4"/>
     <use xlink:href="#mf01b0db108" x="88.091938" y="203.35058" style="fill: #1f77b4; stroke: #1f77b4"/>
     <use xlink:href="#mf01b0db108" x="90.783095" y="183.504659" style="fill: #1f77b4; stroke: #1f77b4"/>
     <use xlink:href="#mf01b0db108" x="128.92096" y="255.404078" style="fill: #1f77b4; stroke: #1f77b4"/>
     <use xlink:href="#mf01b0db108" x="166.747413" y="232.653411" style="fill: #1f77b4; stroke: #1f77b4"/>
     <use xlink:href="#mf01b0db108" x="95.73494" y="197.637763" style="fill: #1f77b4; stroke: #1f77b4"/>
     <use xlink:href="#mf01b0db108" x="136.750072" y="198.526587" style="fill: #1f77b4; stroke: #1f77b4"/>
     <use xlink:href="#mf01b0db108" x="81.559903" y="235.361033" style="fill: #1f77b4; stroke: #1f77b4"/>
    </g>
   </g>
   <g id="line2d_16">
    <defs>
     <path id="m799972a009" d="M 0 3 
C 0.795609 3 1.55874 2.683901 2.12132 2.12132 
C 2.683901 1.55874 3 0.795609 3 0 
C 3 -0.795609 2.683901 -1.55874 2.12132 -2.12132 
C 1.55874 -2.683901 0.795609 -3 0 -3 
C -0.795609 -3 -1.55874 -2.683901 -2.12132 -2.12132 
C -2.683901 -1.55874 -3 -0.795609 -3 0 
C -3 0.795609 -2.683901 1.55874 -2.12132 2.12132 
C -1.55874 2.683901 -0.795609 3 0 3 
z
" style="stroke: #ff7f0e"/>
    </defs>
    <g clip-path="url(#p303fd07d03)">
     <use xlink:href="#m799972a009" x="265.959623" y="98.256672" style="fill: #ff7f0e; stroke: #ff7f0e"/>
     <use xlink:href="#m799972a009" x="236.8223" y="132.788296" style="fill: #ff7f0e; stroke: #ff7f0e"/>
     <use xlink:href="#m799972a009" x="211.478402" y="144.264889" style="fill: #ff7f0e; stroke: #ff7f0e"/>
     <use xlink:href="#m799972a009" x="260.332671" y="139.539023" style="fill: #ff7f0e; stroke: #ff7f0e"/>
     <use xlink:href="#m799972a009" x="213.217845" y="142.667207" style="fill: #ff7f0e; stroke: #ff7f0e"/>
     <use xlink:href="#m799972a009" x="269.796171" y="53.568" style="fill: #ff7f0e; stroke: #ff7f0e"/>
     <use xlink:href="#m799972a009" x="230.945686" y="144.398803" style="fill: #ff7f0e; stroke: #ff7f0e"/>
     <use xlink:href="#m799972a009" x="228.09335" y="155.770721" style="fill: #ff7f0e; stroke: #ff7f0e"/>
     <use xlink:href="#m799972a009" x="263.747242" y="130.168709" style="fill: #ff7f0e; stroke: #ff7f0e"/>
     <use xlink:href="#m799972a009" x="252.972259" y="127.974787" style="fill: #ff7f0e; stroke: #ff7f0e"/>
     <use xlink:href="#m799972a009" x="287.521919" y="288.06488" style="fill: #ff7f0e; stroke: #ff7f0e"/>
     <use xlink:href="#m799972a009" x="236.948776" y="142.655321" style="fill: #ff7f0e; stroke: #ff7f0e"/>
     <use xlink:href="#m799972a009" x="228.658" y="158.913418" style="fill: #ff7f0e; stroke: #ff7f0e"/>
     <use xlink:href="#m799972a009" x="281.722295" y="248.312995" style="fill: #ff7f0e; stroke: #ff7f0e"/>
     <use xlink:href="#m799972a009" x="287.875197" y="292.953286" style="fill: #ff7f0e; stroke: #ff7f0e"/>
     <use xlink:href="#m799972a009" x="268.144621" y="73.085895" style="fill: #ff7f0e; stroke: #ff7f0e"/>
     <use xlink:href="#m799972a009" x="184.247557" y="194.383298" style="fill: #ff7f0e; stroke: #ff7f0e"/>
     <use xlink:href="#m799972a009" x="262.180552" y="135.591031" style="fill: #ff7f0e; stroke: #ff7f0e"/>
     <use xlink:href="#m799972a009" x="271.48614" y="57.137615" style="fill: #ff7f0e; stroke: #ff7f0e"/>
     <use xlink:href="#m799972a009" x="222.285009" y="193.825467" style="fill: #ff7f0e; stroke: #ff7f0e"/>
     <use xlink:href="#m799972a009" x="275.914334" y="148.733498" style="fill: #ff7f0e; stroke: #ff7f0e"/>
     <use xlink:href="#m799972a009" x="285.300788" y="267.861909" style="fill: #ff7f0e; stroke: #ff7f0e"/>
     <use xlink:href="#m799972a009" x="193.974216" y="121.958364" style="fill: #ff7f0e; stroke: #ff7f0e"/>
     <use xlink:href="#m799972a009" x="278.338415" y="204.257854" style="fill: #ff7f0e; stroke: #ff7f0e"/>
     <use xlink:href="#m799972a009" x="229.729049" y="145.822785" style="fill: #ff7f0e; stroke: #ff7f0e"/>
     <use xlink:href="#m799972a009" x="206.945447" y="164.457973" style="fill: #ff7f0e; stroke: #ff7f0e"/>
     <use xlink:href="#m799972a009" x="185.669497" y="229.314534" style="fill: #ff7f0e; stroke: #ff7f0e"/>
     <use xlink:href="#m799972a009" x="200.984741" y="122.082684" style="fill: #ff7f0e; stroke: #ff7f0e"/>
     <use xlink:href="#m799972a009" x="183.909135" y="200.682693" style="fill: #ff7f0e; stroke: #ff7f0e"/>
     <use xlink:href="#m799972a009" x="281.784974" y="248.539515" style="fill: #ff7f0e; stroke: #ff7f0e"/>
     <use xlink:href="#m799972a009" x="188.740341" y="231.831419" style="fill: #ff7f0e; stroke: #ff7f0e"/>
     <use xlink:href="#m799972a009" x="239.607302" y="153.172026" style="fill: #ff7f0e; stroke: #ff7f0e"/>
     <use xlink:href="#m799972a009" x="187.047199" y="234.56494" style="fill: #ff7f0e; stroke: #ff7f0e"/>
     <use xlink:href="#m799972a009" x="285.331801" y="264.811219" style="fill: #ff7f0e; stroke: #ff7f0e"/>
     <use xlink:href="#m799972a009" x="256.278264" y="118.983748" style="fill: #ff7f0e; stroke: #ff7f0e"/>
     <use xlink:href="#m799972a009" x="238.99693" y="142.917844" style="fill: #ff7f0e; stroke: #ff7f0e"/>
     <use xlink:href="#m799972a009" x="225.21383" y="170.801415" style="fill: #ff7f0e; stroke: #ff7f0e"/>
     <use xlink:href="#m799972a009" x="224.271588" y="169.263381" style="fill: #ff7f0e; stroke: #ff7f0e"/>
     <use xlink:href="#m799972a009" x="251.862045" y="133.65088" style="fill: #ff7f0e; stroke: #ff7f0e"/>
     <use xlink:href="#m799972a009" x="218.338558" y="226.200835" style="fill: #ff7f0e; stroke: #ff7f0e"/>
     <use xlink:href="#m799972a009" x="249.590957" y="115.485927" style="fill: #ff7f0e; stroke: #ff7f0e"/>
     <use xlink:href="#m799972a009" x="239.050913" y="145.526952" style="fill: #ff7f0e; stroke: #ff7f0e"/>
     <use xlink:href="#m799972a009" x="217.192649" y="199.090294" style="fill: #ff7f0e; stroke: #ff7f0e"/>
     <use xlink:href="#m799972a009" x="274.972588" y="120.051786" style="fill: #ff7f0e; stroke: #ff7f0e"/>
     <use xlink:href="#m799972a009" x="272.586291" y="59.642376" style="fill: #ff7f0e; stroke: #ff7f0e"/>
     <use xlink:href="#m799972a009" x="229.24406" y="150.190851" style="fill: #ff7f0e; stroke: #ff7f0e"/>
     <use xlink:href="#m799972a009" x="257.581513" y="116.635155" style="fill: #ff7f0e; stroke: #ff7f0e"/>
     <use xlink:href="#m799972a009" x="280.70644" y="229.621285" style="fill: #ff7f0e; stroke: #ff7f0e"/>
     <use xlink:href="#m799972a009" x="210.801852" y="144.81556" style="fill: #ff7f0e; stroke: #ff7f0e"/>
     <use xlink:href="#m799972a009" x="249.565727" y="112.962831" style="fill: #ff7f0e; stroke: #ff7f0e"/>
    </g>
   </g>
   <g id="line2d_17">
    <defs>
     <path id="m4fccbc833c" d="M 0 3 
C 0.795609 3 1.55874 2.683901 2.12132 2.12132 
C 2.683901 1.55874 3 0.795609 3 0 
C 3 -0.795609 2.683901 -1.55874 2.12132 -2.12132 
C 1.55874 -2.683901 0.795609 -3 0 -3 
C -0.795609 -3 -1.55874 -2.683901 -2.12132 -2.12132 
C -2.683901 -1.55874 -3 -0.795609 -3 0 
C -3 0.795609 -2.683901 1.55874 -2.12132 2.12132 
C -1.55874 2.683901 -0.795609 3 0 3 
z
" style="stroke: #2ca02c"/>
    </defs>
    <g clip-path="url(#p303fd07d03)">
     <use xlink:href="#m4fccbc833c" x="375.341017" y="160.980075" style="fill: #2ca02c; stroke: #2ca02c"/>
     <use xlink:href="#m4fccbc833c" x="326.707097" y="255.099034" style="fill: #2ca02c; stroke: #2ca02c"/>
     <use xlink:href="#m4fccbc833c" x="351.819973" y="115.012735" style="fill: #2ca02c; stroke: #2ca02c"/>
     <use xlink:href="#m4fccbc833c" x="337.500851" y="182.269843" style="fill: #2ca02c; stroke: #2ca02c"/>
     <use xlink:href="#m4fccbc833c" x="342.958435" y="137.365682" style="fill: #2ca02c; stroke: #2ca02c"/>
     <use xlink:href="#m4fccbc833c" x="331.871572" y="295.488" style="fill: #2ca02c; stroke: #2ca02c"/>
     <use xlink:href="#m4fccbc833c" x="322.229702" y="213.649502" style="fill: #2ca02c; stroke: #2ca02c"/>
     <use xlink:href="#m4fccbc833c" x="371.971038" y="126.919106" style="fill: #2ca02c; stroke: #2ca02c"/>
     <use xlink:href="#m4fccbc833c" x="397.209452" y="187.813149" style="fill: #2ca02c; stroke: #2ca02c"/>
     <use xlink:href="#m4fccbc833c" x="396.103446" y="190.798305" style="fill: #2ca02c; stroke: #2ca02c"/>
     <use xlink:href="#m4fccbc833c" x="349.887715" y="125.442827" style="fill: #2ca02c; stroke: #2ca02c"/>
     <use xlink:href="#m4fccbc833c" x="293.05116" y="263.374201" style="fill: #2ca02c; stroke: #2ca02c"/>
     <use xlink:href="#m4fccbc833c" x="316.286767" y="210.629215" style="fill: #2ca02c; stroke: #2ca02c"/>
     <use xlink:href="#m4fccbc833c" x="292.982879" y="264.584443" style="fill: #2ca02c; stroke: #2ca02c"/>
     <use xlink:href="#m4fccbc833c" x="315.558962" y="202.547806" style="fill: #2ca02c; stroke: #2ca02c"/>
     <use xlink:href="#m4fccbc833c" x="386.809639" y="212.527159" style="fill: #2ca02c; stroke: #2ca02c"/>
     <use xlink:href="#m4fccbc833c" x="359.343797" y="71.207923" style="fill: #2ca02c; stroke: #2ca02c"/>
     <use xlink:href="#m4fccbc833c" x="349.815759" y="147.133559" style="fill: #2ca02c; stroke: #2ca02c"/>
     <use xlink:href="#m4fccbc833c" x="357.27819" y="89.112858" style="fill: #2ca02c; stroke: #2ca02c"/>
     <use xlink:href="#m4fccbc833c" x="312.163202" y="219.93043" style="fill: #2ca02c; stroke: #2ca02c"/>
     <use xlink:href="#m4fccbc833c" x="353.29793" y="99.589278" style="fill: #2ca02c; stroke: #2ca02c"/>
     <use xlink:href="#m4fccbc833c" x="300.366501" y="182.865781" style="fill: #2ca02c; stroke: #2ca02c"/>
     <use xlink:href="#m4fccbc833c" x="351.27563" y="136.011357" style="fill: #2ca02c; stroke: #2ca02c"/>
     <use xlink:href="#m4fccbc833c" x="392.968429" y="198.374744" style="fill: #2ca02c; stroke: #2ca02c"/>
     <use xlink:href="#m4fccbc833c" x="304.929292" y="151.733976" style="fill: #2ca02c; stroke: #2ca02c"/>
     <use xlink:href="#m4fccbc833c" x="398.487273" y="192.437492" style="fill: #2ca02c; stroke: #2ca02c"/>
     <use xlink:href="#m4fccbc833c" x="370.041863" y="143.492765" style="fill: #2ca02c; stroke: #2ca02c"/>
     <use xlink:href="#m4fccbc833c" x="332.428503" y="278.759728" style="fill: #2ca02c; stroke: #2ca02c"/>
     <use xlink:href="#m4fccbc833c" x="383.598672" y="217.384525" style="fill: #2ca02c; stroke: #2ca02c"/>
     <use xlink:href="#m4fccbc833c" x="345.804426" y="132.527753" style="fill: #2ca02c; stroke: #2ca02c"/>
     <use xlink:href="#m4fccbc833c" x="338.791394" y="184.986875" style="fill: #2ca02c; stroke: #2ca02c"/>
     <use xlink:href="#m4fccbc833c" x="302.617574" y="159.10632" style="fill: #2ca02c; stroke: #2ca02c"/>
     <use xlink:href="#m4fccbc833c" x="301.476286" y="178.91221" style="fill: #2ca02c; stroke: #2ca02c"/>
     <use xlink:href="#m4fccbc833c" x="371.775743" y="136.582522" style="fill: #2ca02c; stroke: #2ca02c"/>
     <use xlink:href="#m4fccbc833c" x="349.319292" y="153.841514" style="fill: #2ca02c; stroke: #2ca02c"/>
     <use xlink:href="#m4fccbc833c" x="300.954159" y="173.980803" style="fill: #2ca02c; stroke: #2ca02c"/>
     <use xlink:href="#m4fccbc833c" x="373.472968" y="156.052577" style="fill: #2ca02c; stroke: #2ca02c"/>
     <use xlink:href="#m4fccbc833c" x="307.523148" y="182.805092" style="fill: #2ca02c; stroke: #2ca02c"/>
     <use xlink:href="#m4fccbc833c" x="298.51885" y="194.068157" style="fill: #2ca02c; stroke: #2ca02c"/>
     <use xlink:href="#m4fccbc833c" x="336.975413" y="179.035645" style="fill: #2ca02c; stroke: #2ca02c"/>
     <use xlink:href="#m4fccbc833c" x="316.831091" y="203.191942" style="fill: #2ca02c; stroke: #2ca02c"/>
     <use xlink:href="#m4fccbc833c" x="303.948671" y="152.613121" style="fill: #2ca02c; stroke: #2ca02c"/>
     <use xlink:href="#m4fccbc833c" x="338.8114" y="185.079605" style="fill: #2ca02c; stroke: #2ca02c"/>
     <use xlink:href="#m4fccbc833c" x="348.792195" y="134.092904" style="fill: #2ca02c; stroke: #2ca02c"/>
     <use xlink:href="#m4fccbc833c" x="333.150453" y="265.036495" style="fill: #2ca02c; stroke: #2ca02c"/>
     <use xlink:href="#m4fccbc833c" x="359.781782" y="85.129193" style="fill: #2ca02c; stroke: #2ca02c"/>
     <use xlink:href="#m4fccbc833c" x="364.594715" y="133.657593" style="fill: #2ca02c; stroke: #2ca02c"/>
     <use xlink:href="#m4fccbc833c" x="333.429623" y="268.06301" style="fill: #2ca02c; stroke: #2ca02c"/>
     <use xlink:href="#m4fccbc833c" x="384.537252" y="218.477541" style="fill: #2ca02c; stroke: #2ca02c"/>
     <use xlink:href="#m4fccbc833c" x="383.137246" y="215.856004" style="fill: #2ca02c; stroke: #2ca02c"/>
    </g>
   </g>
   <g id="patch_3">
    <path d="M 57.6 307.584 
L 57.6 41.472 
" style="fill: none; stroke: #000000; stroke-width: 0.8; stroke-linejoin: miter; stroke-linecap: square"/>
   </g>
   <g id="patch_4">
    <path d="M 414.72 307.584 
L 414.72 41.472 
" style="fill: none; stroke: #000000; stroke-width: 0.8; stroke-linejoin: miter; stroke-linecap: square"/>
   </g>
   <g id="patch_5">
    <path d="M 57.6 307.584 
L 414.72 307.584 
" style="fill: none; stroke: #000000; stroke-width: 0.8; stroke-linejoin: miter; stroke-linecap: square"/>
   </g>
   <g id="patch_6">
    <path d="M 57.6 41.472 
L 414.72 41.472 
" style="fill: none; stroke: #000000; stroke-width: 0.8; stroke-linejoin: miter; stroke-linecap: square"/>
   </g>
   <g id="legend_1">
    <g id="patch_7">
     <path d="M 64.6 93.506375 
L 122.05 93.506375 
Q 124.05 93.506375 124.05 91.506375 
L 124.05 48.472 
Q 124.05 46.472 122.05 46.472 
L 64.6 46.472 
Q 62.6 46.472 62.6 48.472 
L 62.6 91.506375 
Q 62.6 93.506375 64.6 93.506375 
z
" style="fill: #ffffff; opacity: 0.8; stroke: #cccccc; stroke-linejoin: miter"/>
    </g>
    <g id="line2d_18">
     <g>
      <use xlink:href="#mf01b0db108" x="76.6" y="54.570438" style="fill: #1f77b4; stroke: #1f77b4"/>
     </g>
    </g>
    <g id="text_15">
     <!-- 4300 -->
     <g transform="translate(94.6 58.070438)scale(0.1 -0.1)">
      <use xlink:href="#DejaVuSans-34"/>
      <use xlink:href="#DejaVuSans-33" x="63.623047"/>
      <use xlink:href="#DejaVuSans-30" x="127.246094"/>
      <use xlink:href="#DejaVuSans-30" x="190.869141"/>
     </g>
    </g>
    <g id="line2d_19">
     <g>
      <use xlink:href="#m799972a009" x="76.6" y="69.248563" style="fill: #ff7f0e; stroke: #ff7f0e"/>
     </g>
    </g>
    <g id="text_16">
     <!-- 5700 -->
     <g transform="translate(94.6 72.748563)scale(0.1 -0.1)">
      <use xlink:href="#DejaVuSans-35"/>
      <use xlink:href="#DejaVuSans-37" x="63.623047"/>
      <use xlink:href="#DejaVuSans-30" x="127.246094"/>
      <use xlink:href="#DejaVuSans-30" x="190.869141"/>
     </g>
    </g>
    <g id="line2d_20">
     <g>
      <use xlink:href="#m4fccbc833c" x="76.6" y="83.926688" style="fill: #2ca02c; stroke: #2ca02c"/>
     </g>
    </g>
    <g id="text_17">
     <!-- 6200 -->
     <g transform="translate(94.6 87.426688)scale(0.1 -0.1)">
      <use xlink:href="#DejaVuSans-36"/>
      <use xlink:href="#DejaVuSans-32" x="63.623047"/>
      <use xlink:href="#DejaVuSans-30" x="127.246094"/>
      <use xlink:href="#DejaVuSans-30" x="190.869141"/>
     </g>
    </g>
   </g>
  </g>
 </g>
 <defs>
  <clipPath id="p303fd07d03">
   <rect x="57.6" y="41.472" width="357.12" height="266.112"/>
  </clipPath>
 </defs>
</svg>
