<?xml version="1.0" encoding="utf-8" standalone="no"?>
<!DOCTYPE svg PUBLIC "-//W3C//DTD SVG 1.1//EN"
  "http://www.w3.org/Graphics/SVG/1.1/DTD/svg11.dtd">
<!-- Created with matplotlib (https://matplotlib.org/) -->
<svg height="345.6pt" version="1.1" viewBox="0 0 460.8 345.6" width="460.8pt" xmlns="http://www.w3.org/2000/svg" xmlns:xlink="http://www.w3.org/1999/xlink">
 <metadata>
  <rdf:RDF xmlns:cc="http://creativecommons.org/ns#" xmlns:dc="http://purl.org/dc/elements/1.1/" xmlns:rdf="http://www.w3.org/1999/02/22-rdf-syntax-ns#">
   <cc:Work>
    <dc:type rdf:resource="http://purl.org/dc/dcmitype/StillImage"/>
    <dc:date>2022-01-31T10:12:44.618496</dc:date>
    <dc:format>image/svg+xml</dc:format>
    <dc:creator>
     <cc:Agent>
      <dc:title>Matplotlib v3.3.4, https://matplotlib.org/</dc:title>
     </cc:Agent>
    </dc:creator>
   </cc:Work>
  </rdf:RDF>
 </metadata>
 <defs>
  <style type="text/css">*{stroke-linecap:butt;stroke-linejoin:round;}</style>
 </defs>
 <g id="figure_1">
  <g id="patch_1">
   <path d="M 0 345.6 
L 460.8 345.6 
L 460.8 0 
L 0 0 
z
" style="fill:#ffffff;"/>
  </g>
  <g id="axes_1">
   <g id="patch_2">
    <path d="M 57.6 307.584 
L 414.72 307.584 
L 414.72 41.472 
L 57.6 41.472 
z
" style="fill:#ffffff;"/>
   </g>
   <g id="matplotlib.axis_1">
    <g id="xtick_1">
     <g id="line2d_1">
      <defs>
       <path d="M 0 0 
L 0 3.5 
" id="mc7eeaf416a" style="stroke:#000000;stroke-width:0.8;"/>
      </defs>
      <g>
       <use style="stroke:#000000;stroke-width:0.8;" x="73.832727" xlink:href="#mc7eeaf416a" y="307.584"/>
      </g>
     </g>
     <g id="text_1">
      <!-- $\mathdefault{10^{5}}$ -->
      <g transform="translate(65.032727 322.182437)scale(0.1 -0.1)">
       <defs>
        <path d="M 12.40625 8.296875 
L 28.515625 8.296875 
L 28.515625 63.921875 
L 10.984375 60.40625 
L 10.984375 69.390625 
L 28.421875 72.90625 
L 38.28125 72.90625 
L 38.28125 8.296875 
L 54.390625 8.296875 
L 54.390625 0 
L 12.40625 0 
z
" id="DejaVuSans-49"/>
        <path d="M 31.78125 66.40625 
Q 24.171875 66.40625 20.328125 58.90625 
Q 16.5 51.421875 16.5 36.375 
Q 16.5 21.390625 20.328125 13.890625 
Q 24.171875 6.390625 31.78125 6.390625 
Q 39.453125 6.390625 43.28125 13.890625 
Q 47.125 21.390625 47.125 36.375 
Q 47.125 51.421875 43.28125 58.90625 
Q 39.453125 66.40625 31.78125 66.40625 
z
M 31.78125 74.21875 
Q 44.046875 74.21875 50.515625 64.515625 
Q 56.984375 54.828125 56.984375 36.375 
Q 56.984375 17.96875 50.515625 8.265625 
Q 44.046875 -1.421875 31.78125 -1.421875 
Q 19.53125 -1.421875 13.0625 8.265625 
Q 6.59375 17.96875 6.59375 36.375 
Q 6.59375 54.828125 13.0625 64.515625 
Q 19.53125 74.21875 31.78125 74.21875 
z
" id="DejaVuSans-48"/>
        <path d="M 10.796875 72.90625 
L 49.515625 72.90625 
L 49.515625 64.59375 
L 19.828125 64.59375 
L 19.828125 46.734375 
Q 21.96875 47.46875 24.109375 47.828125 
Q 26.265625 48.1875 28.421875 48.1875 
Q 40.625 48.1875 47.75 41.5 
Q 54.890625 34.8125 54.890625 23.390625 
Q 54.890625 11.625 47.5625 5.09375 
Q 40.234375 -1.421875 26.90625 -1.421875 
Q 22.3125 -1.421875 17.546875 -0.640625 
Q 12.796875 0.140625 7.71875 1.703125 
L 7.71875 11.625 
Q 12.109375 9.234375 16.796875 8.0625 
Q 21.484375 6.890625 26.703125 6.890625 
Q 35.15625 6.890625 40.078125 11.328125 
Q 45.015625 15.765625 45.015625 23.390625 
Q 45.015625 31 40.078125 35.4375 
Q 35.15625 39.890625 26.703125 39.890625 
Q 22.75 39.890625 18.8125 39.015625 
Q 14.890625 38.140625 10.796875 36.28125 
z
" id="DejaVuSans-53"/>
       </defs>
       <use transform="translate(0 0.684375)" xlink:href="#DejaVuSans-49"/>
       <use transform="translate(63.623047 0.684375)" xlink:href="#DejaVuSans-48"/>
       <use transform="translate(128.203125 38.965625)scale(0.7)" xlink:href="#DejaVuSans-53"/>
      </g>
     </g>
    </g>
    <g id="xtick_2">
     <g id="line2d_2">
      <g>
       <use style="stroke:#000000;stroke-width:0.8;" x="138.763636" xlink:href="#mc7eeaf416a" y="307.584"/>
      </g>
     </g>
     <g id="text_2">
      <!-- $\mathdefault{10^{6}}$ -->
      <g transform="translate(129.963636 322.182437)scale(0.1 -0.1)">
       <defs>
        <path d="M 33.015625 40.375 
Q 26.375 40.375 22.484375 35.828125 
Q 18.609375 31.296875 18.609375 23.390625 
Q 18.609375 15.53125 22.484375 10.953125 
Q 26.375 6.390625 33.015625 6.390625 
Q 39.65625 6.390625 43.53125 10.953125 
Q 47.40625 15.53125 47.40625 23.390625 
Q 47.40625 31.296875 43.53125 35.828125 
Q 39.65625 40.375 33.015625 40.375 
z
M 52.59375 71.296875 
L 52.59375 62.3125 
Q 48.875 64.0625 45.09375 64.984375 
Q 41.3125 65.921875 37.59375 65.921875 
Q 27.828125 65.921875 22.671875 59.328125 
Q 17.53125 52.734375 16.796875 39.40625 
Q 19.671875 43.65625 24.015625 45.921875 
Q 28.375 48.1875 33.59375 48.1875 
Q 44.578125 48.1875 50.953125 41.515625 
Q 57.328125 34.859375 57.328125 23.390625 
Q 57.328125 12.15625 50.6875 5.359375 
Q 44.046875 -1.421875 33.015625 -1.421875 
Q 20.359375 -1.421875 13.671875 8.265625 
Q 6.984375 17.96875 6.984375 36.375 
Q 6.984375 53.65625 15.1875 63.9375 
Q 23.390625 74.21875 37.203125 74.21875 
Q 40.921875 74.21875 44.703125 73.484375 
Q 48.484375 72.75 52.59375 71.296875 
z
" id="DejaVuSans-54"/>
       </defs>
       <use transform="translate(0 0.765625)" xlink:href="#DejaVuSans-49"/>
       <use transform="translate(63.623047 0.765625)" xlink:href="#DejaVuSans-48"/>
       <use transform="translate(128.203125 39.046875)scale(0.7)" xlink:href="#DejaVuSans-54"/>
      </g>
     </g>
    </g>
    <g id="xtick_3">
     <g id="line2d_3">
      <g>
       <use style="stroke:#000000;stroke-width:0.8;" x="203.694545" xlink:href="#mc7eeaf416a" y="307.584"/>
      </g>
     </g>
     <g id="text_3">
      <!-- $\mathdefault{10^{7}}$ -->
      <g transform="translate(194.894545 322.182437)scale(0.1 -0.1)">
       <defs>
        <path d="M 8.203125 72.90625 
L 55.078125 72.90625 
L 55.078125 68.703125 
L 28.609375 0 
L 18.3125 0 
L 43.21875 64.59375 
L 8.203125 64.59375 
z
" id="DejaVuSans-55"/>
       </defs>
       <use transform="translate(0 0.684375)" xlink:href="#DejaVuSans-49"/>
       <use transform="translate(63.623047 0.684375)" xlink:href="#DejaVuSans-48"/>
       <use transform="translate(128.203125 38.965625)scale(0.7)" xlink:href="#DejaVuSans-55"/>
      </g>
     </g>
    </g>
    <g id="xtick_4">
     <g id="line2d_4">
      <g>
       <use style="stroke:#000000;stroke-width:0.8;" x="268.625455" xlink:href="#mc7eeaf416a" y="307.584"/>
      </g>
     </g>
     <g id="text_4">
      <!-- $\mathdefault{10^{8}}$ -->
      <g transform="translate(259.825455 322.182437)scale(0.1 -0.1)">
       <defs>
        <path d="M 31.78125 34.625 
Q 24.75 34.625 20.71875 30.859375 
Q 16.703125 27.09375 16.703125 20.515625 
Q 16.703125 13.921875 20.71875 10.15625 
Q 24.75 6.390625 31.78125 6.390625 
Q 38.8125 6.390625 42.859375 10.171875 
Q 46.921875 13.96875 46.921875 20.515625 
Q 46.921875 27.09375 42.890625 30.859375 
Q 38.875 34.625 31.78125 34.625 
z
M 21.921875 38.8125 
Q 15.578125 40.375 12.03125 44.71875 
Q 8.5 49.078125 8.5 55.328125 
Q 8.5 64.0625 14.71875 69.140625 
Q 20.953125 74.21875 31.78125 74.21875 
Q 42.671875 74.21875 48.875 69.140625 
Q 55.078125 64.0625 55.078125 55.328125 
Q 55.078125 49.078125 51.53125 44.71875 
Q 48 40.375 41.703125 38.8125 
Q 48.828125 37.15625 52.796875 32.3125 
Q 56.78125 27.484375 56.78125 20.515625 
Q 56.78125 9.90625 50.3125 4.234375 
Q 43.84375 -1.421875 31.78125 -1.421875 
Q 19.734375 -1.421875 13.25 4.234375 
Q 6.78125 9.90625 6.78125 20.515625 
Q 6.78125 27.484375 10.78125 32.3125 
Q 14.796875 37.15625 21.921875 38.8125 
z
M 18.3125 54.390625 
Q 18.3125 48.734375 21.84375 45.5625 
Q 25.390625 42.390625 31.78125 42.390625 
Q 38.140625 42.390625 41.71875 45.5625 
Q 45.3125 48.734375 45.3125 54.390625 
Q 45.3125 60.0625 41.71875 63.234375 
Q 38.140625 66.40625 31.78125 66.40625 
Q 25.390625 66.40625 21.84375 63.234375 
Q 18.3125 60.0625 18.3125 54.390625 
z
" id="DejaVuSans-56"/>
       </defs>
       <use transform="translate(0 0.765625)" xlink:href="#DejaVuSans-49"/>
       <use transform="translate(63.623047 0.765625)" xlink:href="#DejaVuSans-48"/>
       <use transform="translate(128.203125 39.046875)scale(0.7)" xlink:href="#DejaVuSans-56"/>
      </g>
     </g>
    </g>
    <g id="xtick_5">
     <g id="line2d_5">
      <g>
       <use style="stroke:#000000;stroke-width:0.8;" x="333.556364" xlink:href="#mc7eeaf416a" y="307.584"/>
      </g>
     </g>
     <g id="text_5">
      <!-- $\mathdefault{10^{9}}$ -->
      <g transform="translate(324.756364 322.182437)scale(0.1 -0.1)">
       <defs>
        <path d="M 10.984375 1.515625 
L 10.984375 10.5 
Q 14.703125 8.734375 18.5 7.8125 
Q 22.3125 6.890625 25.984375 6.890625 
Q 35.75 6.890625 40.890625 13.453125 
Q 46.046875 20.015625 46.78125 33.40625 
Q 43.953125 29.203125 39.59375 26.953125 
Q 35.25 24.703125 29.984375 24.703125 
Q 19.046875 24.703125 12.671875 31.3125 
Q 6.296875 37.9375 6.296875 49.421875 
Q 6.296875 60.640625 12.9375 67.421875 
Q 19.578125 74.21875 30.609375 74.21875 
Q 43.265625 74.21875 49.921875 64.515625 
Q 56.59375 54.828125 56.59375 36.375 
Q 56.59375 19.140625 48.40625 8.859375 
Q 40.234375 -1.421875 26.421875 -1.421875 
Q 22.703125 -1.421875 18.890625 -0.6875 
Q 15.09375 0.046875 10.984375 1.515625 
z
M 30.609375 32.421875 
Q 37.25 32.421875 41.125 36.953125 
Q 45.015625 41.5 45.015625 49.421875 
Q 45.015625 57.28125 41.125 61.84375 
Q 37.25 66.40625 30.609375 66.40625 
Q 23.96875 66.40625 20.09375 61.84375 
Q 16.21875 57.28125 16.21875 49.421875 
Q 16.21875 41.5 20.09375 36.953125 
Q 23.96875 32.421875 30.609375 32.421875 
z
" id="DejaVuSans-57"/>
       </defs>
       <use transform="translate(0 0.765625)" xlink:href="#DejaVuSans-49"/>
       <use transform="translate(63.623047 0.765625)" xlink:href="#DejaVuSans-48"/>
       <use transform="translate(128.203125 39.046875)scale(0.7)" xlink:href="#DejaVuSans-57"/>
      </g>
     </g>
    </g>
    <g id="xtick_6">
     <g id="line2d_6">
      <g>
       <use style="stroke:#000000;stroke-width:0.8;" x="398.487273" xlink:href="#mc7eeaf416a" y="307.584"/>
      </g>
     </g>
     <g id="text_6">
      <!-- $\mathdefault{10^{10}}$ -->
      <g transform="translate(387.437273 322.182437)scale(0.1 -0.1)">
       <use transform="translate(0 0.765625)" xlink:href="#DejaVuSans-49"/>
       <use transform="translate(63.623047 0.765625)" xlink:href="#DejaVuSans-48"/>
       <use transform="translate(128.203125 39.046875)scale(0.7)" xlink:href="#DejaVuSans-49"/>
       <use transform="translate(172.739258 39.046875)scale(0.7)" xlink:href="#DejaVuSans-48"/>
      </g>
     </g>
    </g>
    <g id="xtick_7">
     <g id="line2d_7">
      <defs>
       <path d="M 0 0 
L 0 2 
" id="m66627c8023" style="stroke:#000000;stroke-width:0.6;"/>
      </defs>
      <g>
       <use style="stroke:#000000;stroke-width:0.6;" x="59.427886" xlink:href="#m66627c8023" y="307.584"/>
      </g>
     </g>
    </g>
    <g id="xtick_8">
     <g id="line2d_8">
      <g>
       <use style="stroke:#000000;stroke-width:0.6;" x="63.774802" xlink:href="#m66627c8023" y="307.584"/>
      </g>
     </g>
    </g>
    <g id="xtick_9">
     <g id="line2d_9">
      <g>
       <use style="stroke:#000000;stroke-width:0.6;" x="67.540272" xlink:href="#m66627c8023" y="307.584"/>
      </g>
     </g>
    </g>
    <g id="xtick_10">
     <g id="line2d_10">
      <g>
       <use style="stroke:#000000;stroke-width:0.6;" x="70.861652" xlink:href="#m66627c8023" y="307.584"/>
      </g>
     </g>
    </g>
    <g id="xtick_11">
     <g id="line2d_11">
      <g>
       <use style="stroke:#000000;stroke-width:0.6;" x="93.378879" xlink:href="#m66627c8023" y="307.584"/>
      </g>
     </g>
    </g>
    <g id="xtick_12">
     <g id="line2d_12">
      <g>
       <use style="stroke:#000000;stroke-width:0.6;" x="104.812644" xlink:href="#m66627c8023" y="307.584"/>
      </g>
     </g>
    </g>
    <g id="xtick_13">
     <g id="line2d_13">
      <g>
       <use style="stroke:#000000;stroke-width:0.6;" x="112.92503" xlink:href="#m66627c8023" y="307.584"/>
      </g>
     </g>
    </g>
    <g id="xtick_14">
     <g id="line2d_14">
      <g>
       <use style="stroke:#000000;stroke-width:0.6;" x="119.217485" xlink:href="#m66627c8023" y="307.584"/>
      </g>
     </g>
    </g>
    <g id="xtick_15">
     <g id="line2d_15">
      <g>
       <use style="stroke:#000000;stroke-width:0.6;" x="124.358795" xlink:href="#m66627c8023" y="307.584"/>
      </g>
     </g>
    </g>
    <g id="xtick_16">
     <g id="line2d_16">
      <g>
       <use style="stroke:#000000;stroke-width:0.6;" x="128.705711" xlink:href="#m66627c8023" y="307.584"/>
      </g>
     </g>
    </g>
    <g id="xtick_17">
     <g id="line2d_17">
      <g>
       <use style="stroke:#000000;stroke-width:0.6;" x="132.471181" xlink:href="#m66627c8023" y="307.584"/>
      </g>
     </g>
    </g>
    <g id="xtick_18">
     <g id="line2d_18">
      <g>
       <use style="stroke:#000000;stroke-width:0.6;" x="135.792561" xlink:href="#m66627c8023" y="307.584"/>
      </g>
     </g>
    </g>
    <g id="xtick_19">
     <g id="line2d_19">
      <g>
       <use style="stroke:#000000;stroke-width:0.6;" x="158.309788" xlink:href="#m66627c8023" y="307.584"/>
      </g>
     </g>
    </g>
    <g id="xtick_20">
     <g id="line2d_20">
      <g>
       <use style="stroke:#000000;stroke-width:0.6;" x="169.743553" xlink:href="#m66627c8023" y="307.584"/>
      </g>
     </g>
    </g>
    <g id="xtick_21">
     <g id="line2d_21">
      <g>
       <use style="stroke:#000000;stroke-width:0.6;" x="177.855939" xlink:href="#m66627c8023" y="307.584"/>
      </g>
     </g>
    </g>
    <g id="xtick_22">
     <g id="line2d_22">
      <g>
       <use style="stroke:#000000;stroke-width:0.6;" x="184.148394" xlink:href="#m66627c8023" y="307.584"/>
      </g>
     </g>
    </g>
    <g id="xtick_23">
     <g id="line2d_23">
      <g>
       <use style="stroke:#000000;stroke-width:0.6;" x="189.289704" xlink:href="#m66627c8023" y="307.584"/>
      </g>
     </g>
    </g>
    <g id="xtick_24">
     <g id="line2d_24">
      <g>
       <use style="stroke:#000000;stroke-width:0.6;" x="193.63662" xlink:href="#m66627c8023" y="307.584"/>
      </g>
     </g>
    </g>
    <g id="xtick_25">
     <g id="line2d_25">
      <g>
       <use style="stroke:#000000;stroke-width:0.6;" x="197.40209" xlink:href="#m66627c8023" y="307.584"/>
      </g>
     </g>
    </g>
    <g id="xtick_26">
     <g id="line2d_26">
      <g>
       <use style="stroke:#000000;stroke-width:0.6;" x="200.72347" xlink:href="#m66627c8023" y="307.584"/>
      </g>
     </g>
    </g>
    <g id="xtick_27">
     <g id="line2d_27">
      <g>
       <use style="stroke:#000000;stroke-width:0.6;" x="223.240697" xlink:href="#m66627c8023" y="307.584"/>
      </g>
     </g>
    </g>
    <g id="xtick_28">
     <g id="line2d_28">
      <g>
       <use style="stroke:#000000;stroke-width:0.6;" x="234.674462" xlink:href="#m66627c8023" y="307.584"/>
      </g>
     </g>
    </g>
    <g id="xtick_29">
     <g id="line2d_29">
      <g>
       <use style="stroke:#000000;stroke-width:0.6;" x="242.786848" xlink:href="#m66627c8023" y="307.584"/>
      </g>
     </g>
    </g>
    <g id="xtick_30">
     <g id="line2d_30">
      <g>
       <use style="stroke:#000000;stroke-width:0.6;" x="249.079303" xlink:href="#m66627c8023" y="307.584"/>
      </g>
     </g>
    </g>
    <g id="xtick_31">
     <g id="line2d_31">
      <g>
       <use style="stroke:#000000;stroke-width:0.6;" x="254.220614" xlink:href="#m66627c8023" y="307.584"/>
      </g>
     </g>
    </g>
    <g id="xtick_32">
     <g id="line2d_32">
      <g>
       <use style="stroke:#000000;stroke-width:0.6;" x="258.567529" xlink:href="#m66627c8023" y="307.584"/>
      </g>
     </g>
    </g>
    <g id="xtick_33">
     <g id="line2d_33">
      <g>
       <use style="stroke:#000000;stroke-width:0.6;" x="262.332999" xlink:href="#m66627c8023" y="307.584"/>
      </g>
     </g>
    </g>
    <g id="xtick_34">
     <g id="line2d_34">
      <g>
       <use style="stroke:#000000;stroke-width:0.6;" x="265.654379" xlink:href="#m66627c8023" y="307.584"/>
      </g>
     </g>
    </g>
    <g id="xtick_35">
     <g id="line2d_35">
      <g>
       <use style="stroke:#000000;stroke-width:0.6;" x="288.171606" xlink:href="#m66627c8023" y="307.584"/>
      </g>
     </g>
    </g>
    <g id="xtick_36">
     <g id="line2d_36">
      <g>
       <use style="stroke:#000000;stroke-width:0.6;" x="299.605371" xlink:href="#m66627c8023" y="307.584"/>
      </g>
     </g>
    </g>
    <g id="xtick_37">
     <g id="line2d_37">
      <g>
       <use style="stroke:#000000;stroke-width:0.6;" x="307.717757" xlink:href="#m66627c8023" y="307.584"/>
      </g>
     </g>
    </g>
    <g id="xtick_38">
     <g id="line2d_38">
      <g>
       <use style="stroke:#000000;stroke-width:0.6;" x="314.010212" xlink:href="#m66627c8023" y="307.584"/>
      </g>
     </g>
    </g>
    <g id="xtick_39">
     <g id="line2d_39">
      <g>
       <use style="stroke:#000000;stroke-width:0.6;" x="319.151523" xlink:href="#m66627c8023" y="307.584"/>
      </g>
     </g>
    </g>
    <g id="xtick_40">
     <g id="line2d_40">
      <g>
       <use style="stroke:#000000;stroke-width:0.6;" x="323.498439" xlink:href="#m66627c8023" y="307.584"/>
      </g>
     </g>
    </g>
    <g id="xtick_41">
     <g id="line2d_41">
      <g>
       <use style="stroke:#000000;stroke-width:0.6;" x="327.263908" xlink:href="#m66627c8023" y="307.584"/>
      </g>
     </g>
    </g>
    <g id="xtick_42">
     <g id="line2d_42">
      <g>
       <use style="stroke:#000000;stroke-width:0.6;" x="330.585288" xlink:href="#m66627c8023" y="307.584"/>
      </g>
     </g>
    </g>
    <g id="xtick_43">
     <g id="line2d_43">
      <g>
       <use style="stroke:#000000;stroke-width:0.6;" x="353.102515" xlink:href="#m66627c8023" y="307.584"/>
      </g>
     </g>
    </g>
    <g id="xtick_44">
     <g id="line2d_44">
      <g>
       <use style="stroke:#000000;stroke-width:0.6;" x="364.53628" xlink:href="#m66627c8023" y="307.584"/>
      </g>
     </g>
    </g>
    <g id="xtick_45">
     <g id="line2d_45">
      <g>
       <use style="stroke:#000000;stroke-width:0.6;" x="372.648666" xlink:href="#m66627c8023" y="307.584"/>
      </g>
     </g>
    </g>
    <g id="xtick_46">
     <g id="line2d_46">
      <g>
       <use style="stroke:#000000;stroke-width:0.6;" x="378.941121" xlink:href="#m66627c8023" y="307.584"/>
      </g>
     </g>
    </g>
    <g id="xtick_47">
     <g id="line2d_47">
      <g>
       <use style="stroke:#000000;stroke-width:0.6;" x="384.082432" xlink:href="#m66627c8023" y="307.584"/>
      </g>
     </g>
    </g>
    <g id="xtick_48">
     <g id="line2d_48">
      <g>
       <use style="stroke:#000000;stroke-width:0.6;" x="388.429348" xlink:href="#m66627c8023" y="307.584"/>
      </g>
     </g>
    </g>
    <g id="xtick_49">
     <g id="line2d_49">
      <g>
       <use style="stroke:#000000;stroke-width:0.6;" x="392.194817" xlink:href="#m66627c8023" y="307.584"/>
      </g>
     </g>
    </g>
    <g id="xtick_50">
     <g id="line2d_50">
      <g>
       <use style="stroke:#000000;stroke-width:0.6;" x="395.516197" xlink:href="#m66627c8023" y="307.584"/>
      </g>
     </g>
    </g>
   </g>
   <g id="matplotlib.axis_2">
    <g id="ytick_1">
     <g id="line2d_51">
      <defs>
       <path d="M 0 0 
L -3.5 0 
" id="mbe6c6bb789" style="stroke:#000000;stroke-width:0.8;"/>
      </defs>
      <g>
       <use style="stroke:#000000;stroke-width:0.8;" x="57.6" xlink:href="#mbe6c6bb789" y="297.699067"/>
      </g>
     </g>
     <g id="text_7">
      <!-- 0.000 -->
      <g transform="translate(21.971875 301.498286)scale(0.1 -0.1)">
       <defs>
        <path d="M 10.6875 12.40625 
L 21 12.40625 
L 21 0 
L 10.6875 0 
z
" id="DejaVuSans-46"/>
       </defs>
       <use xlink:href="#DejaVuSans-48"/>
       <use x="63.623047" xlink:href="#DejaVuSans-46"/>
       <use x="95.410156" xlink:href="#DejaVuSans-48"/>
       <use x="159.033203" xlink:href="#DejaVuSans-48"/>
       <use x="222.65625" xlink:href="#DejaVuSans-48"/>
      </g>
     </g>
    </g>
    <g id="ytick_2">
     <g id="line2d_52">
      <g>
       <use style="stroke:#000000;stroke-width:0.8;" x="57.6" xlink:href="#mbe6c6bb789" y="264.190099"/>
      </g>
     </g>
     <g id="text_8">
      <!-- 0.025 -->
      <g transform="translate(21.971875 267.989318)scale(0.1 -0.1)">
       <defs>
        <path d="M 19.1875 8.296875 
L 53.609375 8.296875 
L 53.609375 0 
L 7.328125 0 
L 7.328125 8.296875 
Q 12.9375 14.109375 22.625 23.890625 
Q 32.328125 33.6875 34.8125 36.53125 
Q 39.546875 41.84375 41.421875 45.53125 
Q 43.3125 49.21875 43.3125 52.78125 
Q 43.3125 58.59375 39.234375 62.25 
Q 35.15625 65.921875 28.609375 65.921875 
Q 23.96875 65.921875 18.8125 64.3125 
Q 13.671875 62.703125 7.8125 59.421875 
L 7.8125 69.390625 
Q 13.765625 71.78125 18.9375 73 
Q 24.125 74.21875 28.421875 74.21875 
Q 39.75 74.21875 46.484375 68.546875 
Q 53.21875 62.890625 53.21875 53.421875 
Q 53.21875 48.921875 51.53125 44.890625 
Q 49.859375 40.875 45.40625 35.40625 
Q 44.1875 33.984375 37.640625 27.21875 
Q 31.109375 20.453125 19.1875 8.296875 
z
" id="DejaVuSans-50"/>
       </defs>
       <use xlink:href="#DejaVuSans-48"/>
       <use x="63.623047" xlink:href="#DejaVuSans-46"/>
       <use x="95.410156" xlink:href="#DejaVuSans-48"/>
       <use x="159.033203" xlink:href="#DejaVuSans-50"/>
       <use x="222.65625" xlink:href="#DejaVuSans-53"/>
      </g>
     </g>
    </g>
    <g id="ytick_3">
     <g id="line2d_53">
      <g>
       <use style="stroke:#000000;stroke-width:0.8;" x="57.6" xlink:href="#mbe6c6bb789" y="230.681132"/>
      </g>
     </g>
     <g id="text_9">
      <!-- 0.050 -->
      <g transform="translate(21.971875 234.480351)scale(0.1 -0.1)">
       <use xlink:href="#DejaVuSans-48"/>
       <use x="63.623047" xlink:href="#DejaVuSans-46"/>
       <use x="95.410156" xlink:href="#DejaVuSans-48"/>
       <use x="159.033203" xlink:href="#DejaVuSans-53"/>
       <use x="222.65625" xlink:href="#DejaVuSans-48"/>
      </g>
     </g>
    </g>
    <g id="ytick_4">
     <g id="line2d_54">
      <g>
       <use style="stroke:#000000;stroke-width:0.8;" x="57.6" xlink:href="#mbe6c6bb789" y="197.172164"/>
      </g>
     </g>
     <g id="text_10">
      <!-- 0.075 -->
      <g transform="translate(21.971875 200.971383)scale(0.1 -0.1)">
       <use xlink:href="#DejaVuSans-48"/>
       <use x="63.623047" xlink:href="#DejaVuSans-46"/>
       <use x="95.410156" xlink:href="#DejaVuSans-48"/>
       <use x="159.033203" xlink:href="#DejaVuSans-55"/>
       <use x="222.65625" xlink:href="#DejaVuSans-53"/>
      </g>
     </g>
    </g>
    <g id="ytick_5">
     <g id="line2d_55">
      <g>
       <use style="stroke:#000000;stroke-width:0.8;" x="57.6" xlink:href="#mbe6c6bb789" y="163.663197"/>
      </g>
     </g>
     <g id="text_11">
      <!-- 0.100 -->
      <g transform="translate(21.971875 167.462416)scale(0.1 -0.1)">
       <use xlink:href="#DejaVuSans-48"/>
       <use x="63.623047" xlink:href="#DejaVuSans-46"/>
       <use x="95.410156" xlink:href="#DejaVuSans-49"/>
       <use x="159.033203" xlink:href="#DejaVuSans-48"/>
       <use x="222.65625" xlink:href="#DejaVuSans-48"/>
      </g>
     </g>
    </g>
    <g id="ytick_6">
     <g id="line2d_56">
      <g>
       <use style="stroke:#000000;stroke-width:0.8;" x="57.6" xlink:href="#mbe6c6bb789" y="130.154229"/>
      </g>
     </g>
     <g id="text_12">
      <!-- 0.125 -->
      <g transform="translate(21.971875 133.953448)scale(0.1 -0.1)">
       <use xlink:href="#DejaVuSans-48"/>
       <use x="63.623047" xlink:href="#DejaVuSans-46"/>
       <use x="95.410156" xlink:href="#DejaVuSans-49"/>
       <use x="159.033203" xlink:href="#DejaVuSans-50"/>
       <use x="222.65625" xlink:href="#DejaVuSans-53"/>
      </g>
     </g>
    </g>
    <g id="ytick_7">
     <g id="line2d_57">
      <g>
       <use style="stroke:#000000;stroke-width:0.8;" x="57.6" xlink:href="#mbe6c6bb789" y="96.645262"/>
      </g>
     </g>
     <g id="text_13">
      <!-- 0.150 -->
      <g transform="translate(21.971875 100.444481)scale(0.1 -0.1)">
       <use xlink:href="#DejaVuSans-48"/>
       <use x="63.623047" xlink:href="#DejaVuSans-46"/>
       <use x="95.410156" xlink:href="#DejaVuSans-49"/>
       <use x="159.033203" xlink:href="#DejaVuSans-53"/>
       <use x="222.65625" xlink:href="#DejaVuSans-48"/>
      </g>
     </g>
    </g>
    <g id="ytick_8">
     <g id="line2d_58">
      <g>
       <use style="stroke:#000000;stroke-width:0.8;" x="57.6" xlink:href="#mbe6c6bb789" y="63.136294"/>
      </g>
     </g>
     <g id="text_14">
      <!-- 0.175 -->
      <g transform="translate(21.971875 66.935513)scale(0.1 -0.1)">
       <use xlink:href="#DejaVuSans-48"/>
       <use x="63.623047" xlink:href="#DejaVuSans-46"/>
       <use x="95.410156" xlink:href="#DejaVuSans-49"/>
       <use x="159.033203" xlink:href="#DejaVuSans-55"/>
       <use x="222.65625" xlink:href="#DejaVuSans-53"/>
      </g>
     </g>
    </g>
   </g>
   <g id="line2d_59">
    <path clip-path="url(#p238ce50a9a)" d="M 73.832727 293.471801 
L 78.985974 293.515914 
L 84.139221 293.553571 
L 89.292468 293.57887 
L 94.445714 293.594891 
L 99.598961 293.599482 
L 104.752208 293.591924 
L 109.905455 293.57133 
L 115.058701 293.538685 
L 120.211948 293.491434 
L 125.365195 293.428888 
L 130.518442 293.352533 
L 135.671688 293.259229 
L 140.824935 293.149676 
L 145.978182 293.023059 
L 151.131429 292.878456 
L 156.284675 292.714965 
L 161.437922 292.533465 
L 166.591169 292.330372 
L 171.744416 292.098783 
L 176.897662 291.828865 
L 182.050909 291.498928 
L 187.204156 291.072324 
L 192.357403 290.497388 
L 197.510649 289.69599 
L 202.663896 288.561005 
L 207.817143 286.948057 
L 212.97039 284.676545 
L 218.123636 281.544167 
L 223.276883 277.387612 
L 228.43013 272.190404 
L 233.583377 266.224558 
L 238.736623 260.074971 
L 243.88987 254.498137 
L 249.043117 249.991158 
L 254.196364 246.210557 
L 259.34961 242.171965 
L 264.502857 237.459109 
L 269.656104 233.304727 
L 274.809351 232.465183 
L 279.962597 236.797982 
L 285.115844 245.036445 
L 290.269091 253.632565 
L 295.422338 259.271439 
L 300.575584 261.443397 
L 305.728831 266.9384 
L 310.882078 271.877596 
L 316.035325 276.639229 
L 321.188571 280.638751 
L 326.341818 283.448483 
L 331.495065 284.831339 
L 336.648312 284.520778 
L 341.801558 282.904845 
L 346.954805 280.693758 
L 352.108052 278.761092 
L 357.261299 278.785395 
L 362.414545 282.842536 
L 367.567792 257.209918 
L 372.721039 255.995691 
L 377.874286 257.058803 
L 383.027532 283.281751 
L 388.180779 265.137766 
L 393.334026 272.265484 
L 398.487273 279.789155 
" style="fill:none;stroke:#1f77b4;stroke-linecap:square;stroke-width:1.5;"/>
   </g>
   <g id="line2d_60">
    <path clip-path="url(#p238ce50a9a)" d="M 73.832727 269.262037 
L 78.985974 269.418585 
L 84.139221 269.581037 
L 89.292468 269.762928 
L 94.445714 269.961751 
L 99.598961 270.174658 
L 104.752208 270.414943 
L 109.905455 270.679605 
L 115.058701 270.956912 
L 120.211948 271.257352 
L 125.365195 271.579629 
L 130.518442 271.915843 
L 135.671688 272.276954 
L 140.824935 272.645118 
L 145.978182 273.040261 
L 151.131429 273.442253 
L 156.284675 273.837115 
L 161.437922 274.239259 
L 166.591169 274.634566 
L 171.744416 275.000846 
L 176.897662 275.354677 
L 182.050909 275.668404 
L 187.204156 275.955615 
L 192.357403 276.194373 
L 197.510649 276.398086 
L 202.663896 276.569343 
L 207.817143 276.702053 
L 212.97039 276.796203 
L 218.123636 276.840117 
L 223.276883 276.792085 
L 228.43013 276.584282 
L 233.583377 276.135624 
L 238.736623 275.361758 
L 243.88987 274.238333 
L 249.043117 272.832396 
L 254.196364 271.348099 
L 259.34961 270.116818 
L 264.502857 269.575102 
L 269.656104 270.148754 
L 274.809351 272.061854 
L 279.962597 275.258758 
L 285.115844 279.319132 
L 290.269091 283.605135 
L 295.422338 287.509785 
L 300.575584 290.635363 
L 305.728831 292.879696 
L 310.882078 294.328231 
L 316.035325 295.104484 
L 321.188571 295.232355 
L 326.341818 294.669622 
L 331.495065 293.313415 
L 336.648312 291.03877 
L 341.801558 288.042107 
L 346.954805 284.902173 
L 352.108052 282.533007 
L 357.261299 282.861 
L 362.414545 288.99318 
L 367.567792 257.056597 
L 372.721039 256.504791 
L 377.874286 258.805222 
L 383.027532 288.670843 
L 388.180779 267.271908 
L 393.334026 275.543182 
L 398.487273 282.547194 
" style="fill:none;stroke:#ff7f0e;stroke-linecap:square;stroke-width:1.5;"/>
   </g>
   <g id="line2d_61">
    <path clip-path="url(#p238ce50a9a)" d="M 73.832727 268.810464 
L 78.985974 269.124235 
L 84.139221 269.468958 
L 89.292468 269.847393 
L 94.445714 270.264418 
L 99.598961 270.712944 
L 104.752208 271.221554 
L 109.905455 271.773836 
L 115.058701 272.371751 
L 120.211948 273.025235 
L 125.365195 273.734402 
L 130.518442 274.463696 
L 135.671688 275.283273 
L 140.824935 276.132471 
L 145.978182 277.042592 
L 151.131429 278.004028 
L 156.284675 278.983238 
L 161.437922 279.998703 
L 166.591169 281.046574 
L 171.744416 282.103019 
L 176.897662 283.158425 
L 182.050909 284.212285 
L 187.204156 285.252283 
L 192.357403 286.26846 
L 197.510649 287.241227 
L 202.663896 288.173082 
L 207.817143 289.054133 
L 212.97039 289.869582 
L 218.123636 290.596349 
L 223.276883 291.214336 
L 228.43013 291.700096 
L 233.583377 292.046504 
L 238.736623 292.233421 
L 243.88987 292.287007 
L 249.043117 292.26235 
L 254.196364 292.246106 
L 259.34961 292.365498 
L 264.502857 292.738265 
L 269.656104 293.396162 
L 274.809351 264.728918 
L 279.962597 253.935187 
L 285.115844 256.362757 
L 290.269091 264.451475 
L 295.422338 273.878742 
L 300.575584 281.953604 
L 305.728831 287.789201 
L 310.882078 291.572993 
L 316.035325 293.666244 
L 321.188571 294.448399 
L 326.341818 293.900964 
L 331.495065 292.093833 
L 336.648312 289.752271 
L 341.801558 287.51212 
L 346.954805 285.223958 
L 352.108052 283.390332 
L 357.261299 284.002887 
L 362.414545 288.842947 
L 367.567792 253.4059 
L 372.721039 254.002197 
L 377.874286 259.429495 
L 383.027532 291.368053 
L 388.180779 265.115257 
L 393.334026 278.257486 
L 398.487273 53.568 
" style="fill:none;stroke:#2ca02c;stroke-linecap:square;stroke-width:1.5;"/>
   </g>
   <g id="line2d_62">
    <path clip-path="url(#p238ce50a9a)" d="M 73.832727 293.71508 
L 78.985974 293.74112 
L 84.139221 293.756223 
L 89.292468 293.760648 
L 94.445714 293.754749 
L 99.598961 293.735377 
L 104.752208 293.703752 
L 109.905455 293.658303 
L 115.058701 293.599316 
L 120.211948 293.525959 
L 125.365195 293.436466 
L 130.518442 293.331771 
L 135.671688 293.210267 
L 140.824935 293.070522 
L 145.978182 292.913957 
L 151.131429 292.737857 
L 156.284675 292.540343 
L 161.437922 292.316175 
L 166.591169 292.054197 
L 171.744416 291.73521 
L 176.897662 291.324166 
L 182.050909 290.773041 
L 187.204156 290.005259 
L 192.357403 288.915094 
L 197.510649 287.364966 
L 202.663896 285.17672 
L 207.817143 282.145825 
L 212.97039 278.100767 
L 218.123636 273.004351 
L 223.276883 267.108485 
L 228.43013 260.989315 
L 233.583377 255.394729 
L 238.736623 250.803117 
L 243.88987 246.890147 
L 249.043117 242.675895 
L 254.196364 237.652956 
L 259.34961 233.090125 
L 264.502857 231.872755 
L 269.656104 235.978629 
L 274.809351 244.199751 
L 279.962597 252.768494 
L 285.115844 258.218177 
L 290.269091 260.541207 
L 295.422338 266.304624 
L 300.575584 271.678303 
L 305.728831 276.92 
L 310.882078 281.31933 
L 316.035325 284.452517 
L 321.188571 285.895802 
L 326.341818 285.42416 
L 331.495065 283.404815 
L 336.648312 280.183063 
L 341.801558 276.721608 
L 346.954805 273.587638 
L 352.108052 271.518875 
L 357.261299 271.251173 
L 362.414545 276.473601 
L 367.567792 271.245101 
L 372.721039 270.832766 
L 377.874286 267.531641 
L 383.027532 275.558277 
L 388.180779 278.236047 
L 393.334026 274.284753 
L 398.487273 280.266219 
" style="fill:none;stroke:#d62728;stroke-linecap:square;stroke-width:1.5;"/>
   </g>
   <g id="line2d_63">
    <path clip-path="url(#p238ce50a9a)" d="M 73.832727 267.2758 
L 78.985974 267.478974 
L 84.139221 267.697403 
L 89.292468 267.936997 
L 94.445714 268.211946 
L 99.598961 268.501574 
L 104.752208 268.812323 
L 109.905455 269.152304 
L 115.058701 269.516478 
L 120.211948 269.896295 
L 125.365195 270.296353 
L 130.518442 270.721238 
L 135.671688 271.166134 
L 140.824935 271.629477 
L 145.978182 272.084133 
L 151.131429 272.543154 
L 156.284675 273.006348 
L 161.437922 273.43885 
L 166.591169 273.857344 
L 171.744416 274.238074 
L 176.897662 274.592792 
L 182.050909 274.89697 
L 187.204156 275.164691 
L 192.357403 275.397338 
L 197.510649 275.597343 
L 202.663896 275.757365 
L 207.817143 275.864957 
L 212.97039 275.883918 
L 218.123636 275.750009 
L 223.276883 275.363492 
L 228.43013 274.646508 
L 233.583377 273.558918 
L 238.736623 272.15179 
L 243.88987 270.651151 
L 249.043117 269.383118 
L 254.196364 268.797765 
L 259.34961 269.358919 
L 264.502857 271.319568 
L 269.656104 274.635743 
L 274.809351 278.866427 
L 279.962597 283.333473 
L 285.115844 287.399246 
L 290.269091 290.643336 
L 295.422338 292.958694 
L 300.575584 294.456483 
L 305.728831 295.268817 
L 310.882078 295.437728 
L 316.035325 294.920106 
L 321.188571 293.553627 
L 326.341818 291.137518 
L 331.495065 287.743115 
L 336.648312 283.482251 
L 341.801558 279.170267 
L 346.954805 275.477989 
L 352.108052 273.241003 
L 357.261299 273.366175 
L 362.414545 280.148372 
L 367.567792 274.565646 
L 372.721039 274.614235 
L 377.874286 270.794408 
L 383.027532 280.181127 
L 388.180779 286.602391 
L 393.334026 276.812828 
L 398.487273 291.972763 
" style="fill:none;stroke:#9467bd;stroke-linecap:square;stroke-width:1.5;"/>
   </g>
   <g id="line2d_64">
    <path clip-path="url(#p238ce50a9a)" d="M 73.832727 267.426113 
L 78.985974 267.836164 
L 84.139221 268.29068 
L 89.292468 268.783208 
L 94.445714 269.325185 
L 99.598961 269.943537 
L 104.752208 270.598066 
L 109.905455 271.318694 
L 115.058701 272.084372 
L 120.211948 272.894845 
L 125.365195 273.791811 
L 130.518442 274.732681 
L 135.671688 275.730595 
L 140.824935 276.79461 
L 145.978182 277.880923 
L 151.131429 279.008041 
L 156.284675 280.172783 
L 161.437922 281.350479 
L 166.591169 282.535639 
L 171.744416 283.722331 
L 176.897662 284.897534 
L 182.050909 286.053093 
L 187.204156 287.168472 
L 192.357403 288.244174 
L 197.510649 289.271283 
L 202.663896 290.229039 
L 207.817143 291.100969 
L 212.97039 291.861719 
L 218.123636 292.474169 
L 223.276883 292.935098 
L 228.43013 293.2186 
L 233.583377 293.332472 
L 238.736623 293.341584 
L 243.88987 293.322852 
L 249.043117 293.416145 
L 254.196364 293.737955 
L 259.34961 294.337494 
L 264.502857 265.280917 
L 269.656104 253.826268 
L 274.809351 256.284006 
L 279.962597 264.636653 
L 285.115844 274.290565 
L 290.269091 282.523958 
L 295.422338 288.365696 
L 300.575584 292.080742 
L 305.728831 294.112631 
L 310.882078 294.848457 
L 316.035325 294.303191 
L 321.188571 292.659152 
L 326.341818 290.644016 
L 331.495065 288.063912 
L 336.648312 284.091511 
L 341.801558 279.402536 
L 346.954805 275.050303 
L 352.108052 272.471724 
L 357.261299 273.200215 
L 362.414545 281.953751 
L 367.567792 270.768322 
L 372.721039 226.620864 
L 377.874286 268.914805 
L 383.027532 284.479874 
L 388.180779 219.110238 
L 393.334026 276.72829 
L 398.487273 134.505571 
" style="fill:none;stroke:#8c564b;stroke-linecap:square;stroke-width:1.5;"/>
   </g>
   <g id="line2d_65">
    <path clip-path="url(#p238ce50a9a)" d="M 73.832727 294.267589 
L 78.985974 294.277051 
L 84.139221 294.278913 
L 89.292468 294.270191 
L 94.445714 294.250194 
L 99.598961 294.2191 
L 104.752208 294.176609 
L 109.905455 294.1202 
L 115.058701 294.051927 
L 120.211948 293.969102 
L 125.365195 293.872096 
L 130.518442 293.758835 
L 135.671688 293.630493 
L 140.824935 293.485509 
L 145.978182 293.320927 
L 151.131429 293.135502 
L 156.284675 292.923008 
L 161.437922 292.671496 
L 166.591169 292.359863 
L 171.744416 291.957108 
L 176.897662 291.411495 
L 182.050909 290.648288 
L 187.204156 289.563841 
L 192.357403 288.018636 
L 197.510649 285.836814 
L 202.663896 282.81751 
L 207.817143 278.803218 
L 212.97039 273.787703 
L 218.123636 268.041242 
L 223.276883 262.161554 
L 228.43013 256.872329 
L 233.583377 252.522267 
L 238.736623 248.572896 
L 243.88987 243.985914 
L 249.043117 238.455468 
L 254.196364 233.692654 
L 259.34961 232.713142 
L 264.502857 237.305217 
L 269.656104 245.661607 
L 274.809351 253.802852 
L 279.962597 258.474228 
L 285.115844 261.401016 
L 290.269091 267.137059 
L 295.422338 272.679331 
L 300.575584 277.979369 
L 305.728831 282.317591 
L 310.882078 285.314035 
L 316.035325 286.406854 
L 321.188571 285.603531 
L 326.341818 283.217171 
L 331.495065 279.839279 
L 336.648312 276.267548 
L 341.801558 273.396776 
L 346.954805 271.692771 
L 352.108052 270.838812 
L 357.261299 270.239373 
L 362.414545 272.285804 
L 367.567792 278.252536 
L 372.721039 277.965539 
L 377.874286 276.049426 
L 383.027532 270.975949 
L 388.180779 273.544759 
L 393.334026 280.0042 
L 398.487273 252.828263 
" style="fill:none;stroke:#e377c2;stroke-linecap:square;stroke-width:1.5;"/>
   </g>
   <g id="line2d_66">
    <path clip-path="url(#p238ce50a9a)" d="M 73.832727 266.022547 
L 78.985974 266.265293 
L 84.139221 266.52644 
L 89.292468 266.816574 
L 94.445714 267.129556 
L 99.598961 267.476409 
L 104.752208 267.845571 
L 109.905455 268.234724 
L 115.058701 268.652696 
L 120.211948 269.087326 
L 125.365195 269.551491 
L 130.518442 270.033282 
L 135.671688 270.533175 
L 140.824935 271.02923 
L 145.978182 271.530361 
L 151.131429 272.032655 
L 156.284675 272.50728 
L 161.437922 272.968415 
L 166.591169 273.386839 
L 171.744416 273.779786 
L 176.897662 274.117406 
L 182.050909 274.423455 
L 187.204156 274.698186 
L 192.357403 274.932625 
L 197.510649 275.129862 
L 202.663896 275.274484 
L 207.817143 275.32358 
L 212.97039 275.195976 
L 218.123636 274.809649 
L 223.276883 274.067548 
L 228.43013 272.942084 
L 233.583377 271.506288 
L 238.736623 270.005147 
L 243.88987 268.791489 
L 249.043117 268.36229 
L 254.196364 269.135741 
L 259.34961 271.354562 
L 264.502857 274.922948 
L 269.656104 279.333532 
L 274.809351 283.876899 
L 279.962597 287.909667 
L 285.115844 291.061434 
L 290.269091 293.27195 
L 295.422338 294.677437 
L 300.575584 295.40208 
L 305.728831 295.488 
L 310.882078 294.883487 
L 316.035325 293.380853 
L 321.188571 290.833416 
L 326.341818 287.211085 
L 331.495065 282.848066 
L 336.648312 278.457562 
L 341.801558 275.002773 
L 346.954805 273.068326 
L 352.108052 272.325844 
L 357.261299 272.089778 
L 362.414545 275.271983 
L 367.567792 284.542669 
L 372.721039 284.637354 
L 377.874286 281.195647 
L 383.027532 275.399641 
L 388.180779 290.352424 
L 393.334026 283.227687 
L 398.487273 290.229016 
" style="fill:none;stroke:#7f7f7f;stroke-linecap:square;stroke-width:1.5;"/>
   </g>
   <g id="line2d_67">
    <path clip-path="url(#p238ce50a9a)" d="M 73.832727 266.730915 
L 78.985974 267.21304 
L 84.139221 267.729472 
L 89.292468 268.304426 
L 94.445714 268.945773 
L 99.598961 269.636385 
L 104.752208 270.388549 
L 109.905455 271.19412 
L 115.058701 272.049265 
L 120.211948 272.989927 
L 125.365195 273.968249 
L 130.518442 275.020969 
L 135.671688 276.132954 
L 140.824935 277.273776 
L 145.978182 278.450297 
L 151.131429 279.669315 
L 156.284675 280.904396 
L 161.437922 282.148194 
L 166.591169 283.388382 
L 171.744416 284.618175 
L 176.897662 285.831238 
L 182.050909 287.002431 
L 187.204156 288.133749 
L 192.357403 289.212481 
L 197.510649 290.222528 
L 202.663896 291.139448 
L 207.817143 291.933437 
L 212.97039 292.583137 
L 218.123636 293.056959 
L 223.276883 293.346814 
L 228.43013 293.470515 
L 233.583377 293.48679 
L 238.736623 293.478056 
L 243.88987 293.59844 
L 249.043117 293.947768 
L 254.196364 294.594816 
L 259.34961 260.984795 
L 264.502857 252.86847 
L 269.656104 256.769759 
L 274.809351 265.85669 
L 279.962597 275.65873 
L 285.115844 283.629405 
L 290.269091 289.192498 
L 295.422338 292.62129 
L 300.575584 294.433476 
L 305.728831 294.993499 
L 310.882078 294.327502 
L 316.035325 292.778211 
L 321.188571 290.909816 
L 326.341818 287.975197 
L 331.495065 283.619188 
L 336.648312 278.509386 
L 341.801558 274.07509 
L 346.954805 271.381302 
L 352.108052 270.422874 
L 357.261299 270.741118 
L 362.414545 276.264977 
L 367.567792 280.724647 
L 372.721039 273.083066 
L 377.874286 279.124341 
L 383.027532 278.804731 
L 388.180779 245.737212 
L 393.334026 276.549127 
L 398.487273 68.549994 
" style="fill:none;stroke:#bcbd22;stroke-linecap:square;stroke-width:1.5;"/>
   </g>
   <g id="patch_3">
    <path d="M 57.6 307.584 
L 57.6 41.472 
" style="fill:none;stroke:#000000;stroke-linecap:square;stroke-linejoin:miter;stroke-width:0.8;"/>
   </g>
   <g id="patch_4">
    <path d="M 414.72 307.584 
L 414.72 41.472 
" style="fill:none;stroke:#000000;stroke-linecap:square;stroke-linejoin:miter;stroke-width:0.8;"/>
   </g>
   <g id="patch_5">
    <path d="M 57.6 307.584 
L 414.72 307.584 
" style="fill:none;stroke:#000000;stroke-linecap:square;stroke-linejoin:miter;stroke-width:0.8;"/>
   </g>
   <g id="patch_6">
    <path d="M 57.6 41.472 
L 414.72 41.472 
" style="fill:none;stroke:#000000;stroke-linecap:square;stroke-linejoin:miter;stroke-width:0.8;"/>
   </g>
   <g id="legend_1">
    <g id="patch_7">
     <path d="M 64.6 184.07825 
L 274.848438 184.07825 
Q 276.848438 184.07825 276.848438 182.07825 
L 276.848438 48.472 
Q 276.848438 46.472 274.848438 46.472 
L 64.6 46.472 
Q 62.6 46.472 62.6 48.472 
L 62.6 182.07825 
Q 62.6 184.07825 64.6 184.07825 
z
" style="fill:#ffffff;opacity:0.8;stroke:#cccccc;stroke-linejoin:miter;"/>
    </g>
    <g id="line2d_68">
     <path d="M 66.6 54.570438 
L 86.6 54.570438 
" style="fill:none;stroke:#1f77b4;stroke-linecap:square;stroke-width:1.5;"/>
    </g>
    <g id="line2d_69"/>
    <g id="text_15">
     <!-- Mrk509_2016_EF_10_matern12.jld2 -->
     <g transform="translate(94.6 58.070438)scale(0.1 -0.1)">
      <defs>
       <path d="M 9.8125 72.90625 
L 24.515625 72.90625 
L 43.109375 23.296875 
L 61.8125 72.90625 
L 76.515625 72.90625 
L 76.515625 0 
L 66.890625 0 
L 66.890625 64.015625 
L 48.09375 14.015625 
L 38.1875 14.015625 
L 19.390625 64.015625 
L 19.390625 0 
L 9.8125 0 
z
" id="DejaVuSans-77"/>
       <path d="M 41.109375 46.296875 
Q 39.59375 47.171875 37.8125 47.578125 
Q 36.03125 48 33.890625 48 
Q 26.265625 48 22.1875 43.046875 
Q 18.109375 38.09375 18.109375 28.8125 
L 18.109375 0 
L 9.078125 0 
L 9.078125 54.6875 
L 18.109375 54.6875 
L 18.109375 46.1875 
Q 20.953125 51.171875 25.484375 53.578125 
Q 30.03125 56 36.53125 56 
Q 37.453125 56 38.578125 55.875 
Q 39.703125 55.765625 41.0625 55.515625 
z
" id="DejaVuSans-114"/>
       <path d="M 9.078125 75.984375 
L 18.109375 75.984375 
L 18.109375 31.109375 
L 44.921875 54.6875 
L 56.390625 54.6875 
L 27.390625 29.109375 
L 57.625 0 
L 45.90625 0 
L 18.109375 26.703125 
L 18.109375 0 
L 9.078125 0 
z
" id="DejaVuSans-107"/>
       <path d="M 50.984375 -16.609375 
L 50.984375 -23.578125 
L -0.984375 -23.578125 
L -0.984375 -16.609375 
z
" id="DejaVuSans-95"/>
       <path d="M 9.8125 72.90625 
L 55.90625 72.90625 
L 55.90625 64.59375 
L 19.671875 64.59375 
L 19.671875 43.015625 
L 54.390625 43.015625 
L 54.390625 34.71875 
L 19.671875 34.71875 
L 19.671875 8.296875 
L 56.78125 8.296875 
L 56.78125 0 
L 9.8125 0 
z
" id="DejaVuSans-69"/>
       <path d="M 9.8125 72.90625 
L 51.703125 72.90625 
L 51.703125 64.59375 
L 19.671875 64.59375 
L 19.671875 43.109375 
L 48.578125 43.109375 
L 48.578125 34.8125 
L 19.671875 34.8125 
L 19.671875 0 
L 9.8125 0 
z
" id="DejaVuSans-70"/>
       <path d="M 52 44.1875 
Q 55.375 50.25 60.0625 53.125 
Q 64.75 56 71.09375 56 
Q 79.640625 56 84.28125 50.015625 
Q 88.921875 44.046875 88.921875 33.015625 
L 88.921875 0 
L 79.890625 0 
L 79.890625 32.71875 
Q 79.890625 40.578125 77.09375 44.375 
Q 74.3125 48.1875 68.609375 48.1875 
Q 61.625 48.1875 57.5625 43.546875 
Q 53.515625 38.921875 53.515625 30.90625 
L 53.515625 0 
L 44.484375 0 
L 44.484375 32.71875 
Q 44.484375 40.625 41.703125 44.40625 
Q 38.921875 48.1875 33.109375 48.1875 
Q 26.21875 48.1875 22.15625 43.53125 
Q 18.109375 38.875 18.109375 30.90625 
L 18.109375 0 
L 9.078125 0 
L 9.078125 54.6875 
L 18.109375 54.6875 
L 18.109375 46.1875 
Q 21.1875 51.21875 25.484375 53.609375 
Q 29.78125 56 35.6875 56 
Q 41.65625 56 45.828125 52.96875 
Q 50 49.953125 52 44.1875 
z
" id="DejaVuSans-109"/>
       <path d="M 34.28125 27.484375 
Q 23.390625 27.484375 19.1875 25 
Q 14.984375 22.515625 14.984375 16.5 
Q 14.984375 11.71875 18.140625 8.90625 
Q 21.296875 6.109375 26.703125 6.109375 
Q 34.1875 6.109375 38.703125 11.40625 
Q 43.21875 16.703125 43.21875 25.484375 
L 43.21875 27.484375 
z
M 52.203125 31.203125 
L 52.203125 0 
L 43.21875 0 
L 43.21875 8.296875 
Q 40.140625 3.328125 35.546875 0.953125 
Q 30.953125 -1.421875 24.3125 -1.421875 
Q 15.921875 -1.421875 10.953125 3.296875 
Q 6 8.015625 6 15.921875 
Q 6 25.140625 12.171875 29.828125 
Q 18.359375 34.515625 30.609375 34.515625 
L 43.21875 34.515625 
L 43.21875 35.40625 
Q 43.21875 41.609375 39.140625 45 
Q 35.0625 48.390625 27.6875 48.390625 
Q 23 48.390625 18.546875 47.265625 
Q 14.109375 46.140625 10.015625 43.890625 
L 10.015625 52.203125 
Q 14.9375 54.109375 19.578125 55.046875 
Q 24.21875 56 28.609375 56 
Q 40.484375 56 46.34375 49.84375 
Q 52.203125 43.703125 52.203125 31.203125 
z
" id="DejaVuSans-97"/>
       <path d="M 18.3125 70.21875 
L 18.3125 54.6875 
L 36.8125 54.6875 
L 36.8125 47.703125 
L 18.3125 47.703125 
L 18.3125 18.015625 
Q 18.3125 11.328125 20.140625 9.421875 
Q 21.96875 7.515625 27.59375 7.515625 
L 36.8125 7.515625 
L 36.8125 0 
L 27.59375 0 
Q 17.1875 0 13.234375 3.875 
Q 9.28125 7.765625 9.28125 18.015625 
L 9.28125 47.703125 
L 2.6875 47.703125 
L 2.6875 54.6875 
L 9.28125 54.6875 
L 9.28125 70.21875 
z
" id="DejaVuSans-116"/>
       <path d="M 56.203125 29.59375 
L 56.203125 25.203125 
L 14.890625 25.203125 
Q 15.484375 15.921875 20.484375 11.0625 
Q 25.484375 6.203125 34.421875 6.203125 
Q 39.59375 6.203125 44.453125 7.46875 
Q 49.3125 8.734375 54.109375 11.28125 
L 54.109375 2.78125 
Q 49.265625 0.734375 44.1875 -0.34375 
Q 39.109375 -1.421875 33.890625 -1.421875 
Q 20.796875 -1.421875 13.15625 6.1875 
Q 5.515625 13.8125 5.515625 26.8125 
Q 5.515625 40.234375 12.765625 48.109375 
Q 20.015625 56 32.328125 56 
Q 43.359375 56 49.78125 48.890625 
Q 56.203125 41.796875 56.203125 29.59375 
z
M 47.21875 32.234375 
Q 47.125 39.59375 43.09375 43.984375 
Q 39.0625 48.390625 32.421875 48.390625 
Q 24.90625 48.390625 20.390625 44.140625 
Q 15.875 39.890625 15.1875 32.171875 
z
" id="DejaVuSans-101"/>
       <path d="M 54.890625 33.015625 
L 54.890625 0 
L 45.90625 0 
L 45.90625 32.71875 
Q 45.90625 40.484375 42.875 44.328125 
Q 39.84375 48.1875 33.796875 48.1875 
Q 26.515625 48.1875 22.3125 43.546875 
Q 18.109375 38.921875 18.109375 30.90625 
L 18.109375 0 
L 9.078125 0 
L 9.078125 54.6875 
L 18.109375 54.6875 
L 18.109375 46.1875 
Q 21.34375 51.125 25.703125 53.5625 
Q 30.078125 56 35.796875 56 
Q 45.21875 56 50.046875 50.171875 
Q 54.890625 44.34375 54.890625 33.015625 
z
" id="DejaVuSans-110"/>
       <path d="M 9.421875 54.6875 
L 18.40625 54.6875 
L 18.40625 -0.984375 
Q 18.40625 -11.421875 14.421875 -16.109375 
Q 10.453125 -20.796875 1.609375 -20.796875 
L -1.8125 -20.796875 
L -1.8125 -13.1875 
L 0.59375 -13.1875 
Q 5.71875 -13.1875 7.5625 -10.8125 
Q 9.421875 -8.453125 9.421875 -0.984375 
z
M 9.421875 75.984375 
L 18.40625 75.984375 
L 18.40625 64.59375 
L 9.421875 64.59375 
z
" id="DejaVuSans-106"/>
       <path d="M 9.421875 75.984375 
L 18.40625 75.984375 
L 18.40625 0 
L 9.421875 0 
z
" id="DejaVuSans-108"/>
       <path d="M 45.40625 46.390625 
L 45.40625 75.984375 
L 54.390625 75.984375 
L 54.390625 0 
L 45.40625 0 
L 45.40625 8.203125 
Q 42.578125 3.328125 38.25 0.953125 
Q 33.9375 -1.421875 27.875 -1.421875 
Q 17.96875 -1.421875 11.734375 6.484375 
Q 5.515625 14.40625 5.515625 27.296875 
Q 5.515625 40.1875 11.734375 48.09375 
Q 17.96875 56 27.875 56 
Q 33.9375 56 38.25 53.625 
Q 42.578125 51.265625 45.40625 46.390625 
z
M 14.796875 27.296875 
Q 14.796875 17.390625 18.875 11.75 
Q 22.953125 6.109375 30.078125 6.109375 
Q 37.203125 6.109375 41.296875 11.75 
Q 45.40625 17.390625 45.40625 27.296875 
Q 45.40625 37.203125 41.296875 42.84375 
Q 37.203125 48.484375 30.078125 48.484375 
Q 22.953125 48.484375 18.875 42.84375 
Q 14.796875 37.203125 14.796875 27.296875 
z
" id="DejaVuSans-100"/>
      </defs>
      <use xlink:href="#DejaVuSans-77"/>
      <use x="86.279297" xlink:href="#DejaVuSans-114"/>
      <use x="127.392578" xlink:href="#DejaVuSans-107"/>
      <use x="185.302734" xlink:href="#DejaVuSans-53"/>
      <use x="248.925781" xlink:href="#DejaVuSans-48"/>
      <use x="312.548828" xlink:href="#DejaVuSans-57"/>
      <use x="376.171875" xlink:href="#DejaVuSans-95"/>
      <use x="426.171875" xlink:href="#DejaVuSans-50"/>
      <use x="489.794922" xlink:href="#DejaVuSans-48"/>
      <use x="553.417969" xlink:href="#DejaVuSans-49"/>
      <use x="617.041016" xlink:href="#DejaVuSans-54"/>
      <use x="680.664062" xlink:href="#DejaVuSans-95"/>
      <use x="730.664062" xlink:href="#DejaVuSans-69"/>
      <use x="793.847656" xlink:href="#DejaVuSans-70"/>
      <use x="851.367188" xlink:href="#DejaVuSans-95"/>
      <use x="901.367188" xlink:href="#DejaVuSans-49"/>
      <use x="964.990234" xlink:href="#DejaVuSans-48"/>
      <use x="1028.613281" xlink:href="#DejaVuSans-95"/>
      <use x="1078.613281" xlink:href="#DejaVuSans-109"/>
      <use x="1176.025391" xlink:href="#DejaVuSans-97"/>
      <use x="1237.304688" xlink:href="#DejaVuSans-116"/>
      <use x="1276.513672" xlink:href="#DejaVuSans-101"/>
      <use x="1338.037109" xlink:href="#DejaVuSans-114"/>
      <use x="1377.400391" xlink:href="#DejaVuSans-110"/>
      <use x="1440.779297" xlink:href="#DejaVuSans-49"/>
      <use x="1504.402344" xlink:href="#DejaVuSans-50"/>
      <use x="1568.025391" xlink:href="#DejaVuSans-46"/>
      <use x="1599.8125" xlink:href="#DejaVuSans-106"/>
      <use x="1627.595703" xlink:href="#DejaVuSans-108"/>
      <use x="1655.378906" xlink:href="#DejaVuSans-100"/>
      <use x="1718.855469" xlink:href="#DejaVuSans-50"/>
     </g>
    </g>
    <g id="line2d_70">
     <path d="M 66.6 69.526688 
L 86.6 69.526688 
" style="fill:none;stroke:#ff7f0e;stroke-linecap:square;stroke-width:1.5;"/>
    </g>
    <g id="line2d_71"/>
    <g id="text_16">
     <!-- Mrk509_2016_EF_10_matern32.jld2 -->
     <g transform="translate(94.6 73.026688)scale(0.1 -0.1)">
      <defs>
       <path d="M 40.578125 39.3125 
Q 47.65625 37.796875 51.625 33 
Q 55.609375 28.21875 55.609375 21.1875 
Q 55.609375 10.40625 48.1875 4.484375 
Q 40.765625 -1.421875 27.09375 -1.421875 
Q 22.515625 -1.421875 17.65625 -0.515625 
Q 12.796875 0.390625 7.625 2.203125 
L 7.625 11.71875 
Q 11.71875 9.328125 16.59375 8.109375 
Q 21.484375 6.890625 26.8125 6.890625 
Q 36.078125 6.890625 40.9375 10.546875 
Q 45.796875 14.203125 45.796875 21.1875 
Q 45.796875 27.640625 41.28125 31.265625 
Q 36.765625 34.90625 28.71875 34.90625 
L 20.21875 34.90625 
L 20.21875 43.015625 
L 29.109375 43.015625 
Q 36.375 43.015625 40.234375 45.921875 
Q 44.09375 48.828125 44.09375 54.296875 
Q 44.09375 59.90625 40.109375 62.90625 
Q 36.140625 65.921875 28.71875 65.921875 
Q 24.65625 65.921875 20.015625 65.03125 
Q 15.375 64.15625 9.8125 62.3125 
L 9.8125 71.09375 
Q 15.4375 72.65625 20.34375 73.4375 
Q 25.25 74.21875 29.59375 74.21875 
Q 40.828125 74.21875 47.359375 69.109375 
Q 53.90625 64.015625 53.90625 55.328125 
Q 53.90625 49.265625 50.4375 45.09375 
Q 46.96875 40.921875 40.578125 39.3125 
z
" id="DejaVuSans-51"/>
      </defs>
      <use xlink:href="#DejaVuSans-77"/>
      <use x="86.279297" xlink:href="#DejaVuSans-114"/>
      <use x="127.392578" xlink:href="#DejaVuSans-107"/>
      <use x="185.302734" xlink:href="#DejaVuSans-53"/>
      <use x="248.925781" xlink:href="#DejaVuSans-48"/>
      <use x="312.548828" xlink:href="#DejaVuSans-57"/>
      <use x="376.171875" xlink:href="#DejaVuSans-95"/>
      <use x="426.171875" xlink:href="#DejaVuSans-50"/>
      <use x="489.794922" xlink:href="#DejaVuSans-48"/>
      <use x="553.417969" xlink:href="#DejaVuSans-49"/>
      <use x="617.041016" xlink:href="#DejaVuSans-54"/>
      <use x="680.664062" xlink:href="#DejaVuSans-95"/>
      <use x="730.664062" xlink:href="#DejaVuSans-69"/>
      <use x="793.847656" xlink:href="#DejaVuSans-70"/>
      <use x="851.367188" xlink:href="#DejaVuSans-95"/>
      <use x="901.367188" xlink:href="#DejaVuSans-49"/>
      <use x="964.990234" xlink:href="#DejaVuSans-48"/>
      <use x="1028.613281" xlink:href="#DejaVuSans-95"/>
      <use x="1078.613281" xlink:href="#DejaVuSans-109"/>
      <use x="1176.025391" xlink:href="#DejaVuSans-97"/>
      <use x="1237.304688" xlink:href="#DejaVuSans-116"/>
      <use x="1276.513672" xlink:href="#DejaVuSans-101"/>
      <use x="1338.037109" xlink:href="#DejaVuSans-114"/>
      <use x="1377.400391" xlink:href="#DejaVuSans-110"/>
      <use x="1440.779297" xlink:href="#DejaVuSans-51"/>
      <use x="1504.402344" xlink:href="#DejaVuSans-50"/>
      <use x="1568.025391" xlink:href="#DejaVuSans-46"/>
      <use x="1599.8125" xlink:href="#DejaVuSans-106"/>
      <use x="1627.595703" xlink:href="#DejaVuSans-108"/>
      <use x="1655.378906" xlink:href="#DejaVuSans-100"/>
      <use x="1718.855469" xlink:href="#DejaVuSans-50"/>
     </g>
    </g>
    <g id="line2d_72">
     <path d="M 66.6 84.482938 
L 86.6 84.482938 
" style="fill:none;stroke:#2ca02c;stroke-linecap:square;stroke-width:1.5;"/>
    </g>
    <g id="line2d_73"/>
    <g id="text_17">
     <!-- Mrk509_2016_EF_10_rbf.jld2 -->
     <g transform="translate(94.6 87.982938)scale(0.1 -0.1)">
      <defs>
       <path d="M 48.6875 27.296875 
Q 48.6875 37.203125 44.609375 42.84375 
Q 40.53125 48.484375 33.40625 48.484375 
Q 26.265625 48.484375 22.1875 42.84375 
Q 18.109375 37.203125 18.109375 27.296875 
Q 18.109375 17.390625 22.1875 11.75 
Q 26.265625 6.109375 33.40625 6.109375 
Q 40.53125 6.109375 44.609375 11.75 
Q 48.6875 17.390625 48.6875 27.296875 
z
M 18.109375 46.390625 
Q 20.953125 51.265625 25.265625 53.625 
Q 29.59375 56 35.59375 56 
Q 45.5625 56 51.78125 48.09375 
Q 58.015625 40.1875 58.015625 27.296875 
Q 58.015625 14.40625 51.78125 6.484375 
Q 45.5625 -1.421875 35.59375 -1.421875 
Q 29.59375 -1.421875 25.265625 0.953125 
Q 20.953125 3.328125 18.109375 8.203125 
L 18.109375 0 
L 9.078125 0 
L 9.078125 75.984375 
L 18.109375 75.984375 
z
" id="DejaVuSans-98"/>
       <path d="M 37.109375 75.984375 
L 37.109375 68.5 
L 28.515625 68.5 
Q 23.6875 68.5 21.796875 66.546875 
Q 19.921875 64.59375 19.921875 59.515625 
L 19.921875 54.6875 
L 34.71875 54.6875 
L 34.71875 47.703125 
L 19.921875 47.703125 
L 19.921875 0 
L 10.890625 0 
L 10.890625 47.703125 
L 2.296875 47.703125 
L 2.296875 54.6875 
L 10.890625 54.6875 
L 10.890625 58.5 
Q 10.890625 67.625 15.140625 71.796875 
Q 19.390625 75.984375 28.609375 75.984375 
z
" id="DejaVuSans-102"/>
      </defs>
      <use xlink:href="#DejaVuSans-77"/>
      <use x="86.279297" xlink:href="#DejaVuSans-114"/>
      <use x="127.392578" xlink:href="#DejaVuSans-107"/>
      <use x="185.302734" xlink:href="#DejaVuSans-53"/>
      <use x="248.925781" xlink:href="#DejaVuSans-48"/>
      <use x="312.548828" xlink:href="#DejaVuSans-57"/>
      <use x="376.171875" xlink:href="#DejaVuSans-95"/>
      <use x="426.171875" xlink:href="#DejaVuSans-50"/>
      <use x="489.794922" xlink:href="#DejaVuSans-48"/>
      <use x="553.417969" xlink:href="#DejaVuSans-49"/>
      <use x="617.041016" xlink:href="#DejaVuSans-54"/>
      <use x="680.664062" xlink:href="#DejaVuSans-95"/>
      <use x="730.664062" xlink:href="#DejaVuSans-69"/>
      <use x="793.847656" xlink:href="#DejaVuSans-70"/>
      <use x="851.367188" xlink:href="#DejaVuSans-95"/>
      <use x="901.367188" xlink:href="#DejaVuSans-49"/>
      <use x="964.990234" xlink:href="#DejaVuSans-48"/>
      <use x="1028.613281" xlink:href="#DejaVuSans-95"/>
      <use x="1078.613281" xlink:href="#DejaVuSans-114"/>
      <use x="1119.726562" xlink:href="#DejaVuSans-98"/>
      <use x="1183.203125" xlink:href="#DejaVuSans-102"/>
      <use x="1211.158203" xlink:href="#DejaVuSans-46"/>
      <use x="1242.945312" xlink:href="#DejaVuSans-106"/>
      <use x="1270.728516" xlink:href="#DejaVuSans-108"/>
      <use x="1298.511719" xlink:href="#DejaVuSans-100"/>
      <use x="1361.988281" xlink:href="#DejaVuSans-50"/>
     </g>
    </g>
    <g id="line2d_74">
     <path d="M 66.6 99.439188 
L 86.6 99.439188 
" style="fill:none;stroke:#d62728;stroke-linecap:square;stroke-width:1.5;"/>
    </g>
    <g id="line2d_75"/>
    <g id="text_18">
     <!-- Mrk509_2016_EF_20_matern12.jld2 -->
     <g transform="translate(94.6 102.939188)scale(0.1 -0.1)">
      <use xlink:href="#DejaVuSans-77"/>
      <use x="86.279297" xlink:href="#DejaVuSans-114"/>
      <use x="127.392578" xlink:href="#DejaVuSans-107"/>
      <use x="185.302734" xlink:href="#DejaVuSans-53"/>
      <use x="248.925781" xlink:href="#DejaVuSans-48"/>
      <use x="312.548828" xlink:href="#DejaVuSans-57"/>
      <use x="376.171875" xlink:href="#DejaVuSans-95"/>
      <use x="426.171875" xlink:href="#DejaVuSans-50"/>
      <use x="489.794922" xlink:href="#DejaVuSans-48"/>
      <use x="553.417969" xlink:href="#DejaVuSans-49"/>
      <use x="617.041016" xlink:href="#DejaVuSans-54"/>
      <use x="680.664062" xlink:href="#DejaVuSans-95"/>
      <use x="730.664062" xlink:href="#DejaVuSans-69"/>
      <use x="793.847656" xlink:href="#DejaVuSans-70"/>
      <use x="851.367188" xlink:href="#DejaVuSans-95"/>
      <use x="901.367188" xlink:href="#DejaVuSans-50"/>
      <use x="964.990234" xlink:href="#DejaVuSans-48"/>
      <use x="1028.613281" xlink:href="#DejaVuSans-95"/>
      <use x="1078.613281" xlink:href="#DejaVuSans-109"/>
      <use x="1176.025391" xlink:href="#DejaVuSans-97"/>
      <use x="1237.304688" xlink:href="#DejaVuSans-116"/>
      <use x="1276.513672" xlink:href="#DejaVuSans-101"/>
      <use x="1338.037109" xlink:href="#DejaVuSans-114"/>
      <use x="1377.400391" xlink:href="#DejaVuSans-110"/>
      <use x="1440.779297" xlink:href="#DejaVuSans-49"/>
      <use x="1504.402344" xlink:href="#DejaVuSans-50"/>
      <use x="1568.025391" xlink:href="#DejaVuSans-46"/>
      <use x="1599.8125" xlink:href="#DejaVuSans-106"/>
      <use x="1627.595703" xlink:href="#DejaVuSans-108"/>
      <use x="1655.378906" xlink:href="#DejaVuSans-100"/>
      <use x="1718.855469" xlink:href="#DejaVuSans-50"/>
     </g>
    </g>
    <g id="line2d_76">
     <path d="M 66.6 114.395438 
L 86.6 114.395438 
" style="fill:none;stroke:#9467bd;stroke-linecap:square;stroke-width:1.5;"/>
    </g>
    <g id="line2d_77"/>
    <g id="text_19">
     <!-- Mrk509_2016_EF_20_matern32.jld2 -->
     <g transform="translate(94.6 117.895438)scale(0.1 -0.1)">
      <use xlink:href="#DejaVuSans-77"/>
      <use x="86.279297" xlink:href="#DejaVuSans-114"/>
      <use x="127.392578" xlink:href="#DejaVuSans-107"/>
      <use x="185.302734" xlink:href="#DejaVuSans-53"/>
      <use x="248.925781" xlink:href="#DejaVuSans-48"/>
      <use x="312.548828" xlink:href="#DejaVuSans-57"/>
      <use x="376.171875" xlink:href="#DejaVuSans-95"/>
      <use x="426.171875" xlink:href="#DejaVuSans-50"/>
      <use x="489.794922" xlink:href="#DejaVuSans-48"/>
      <use x="553.417969" xlink:href="#DejaVuSans-49"/>
      <use x="617.041016" xlink:href="#DejaVuSans-54"/>
      <use x="680.664062" xlink:href="#DejaVuSans-95"/>
      <use x="730.664062" xlink:href="#DejaVuSans-69"/>
      <use x="793.847656" xlink:href="#DejaVuSans-70"/>
      <use x="851.367188" xlink:href="#DejaVuSans-95"/>
      <use x="901.367188" xlink:href="#DejaVuSans-50"/>
      <use x="964.990234" xlink:href="#DejaVuSans-48"/>
      <use x="1028.613281" xlink:href="#DejaVuSans-95"/>
      <use x="1078.613281" xlink:href="#DejaVuSans-109"/>
      <use x="1176.025391" xlink:href="#DejaVuSans-97"/>
      <use x="1237.304688" xlink:href="#DejaVuSans-116"/>
      <use x="1276.513672" xlink:href="#DejaVuSans-101"/>
      <use x="1338.037109" xlink:href="#DejaVuSans-114"/>
      <use x="1377.400391" xlink:href="#DejaVuSans-110"/>
      <use x="1440.779297" xlink:href="#DejaVuSans-51"/>
      <use x="1504.402344" xlink:href="#DejaVuSans-50"/>
      <use x="1568.025391" xlink:href="#DejaVuSans-46"/>
      <use x="1599.8125" xlink:href="#DejaVuSans-106"/>
      <use x="1627.595703" xlink:href="#DejaVuSans-108"/>
      <use x="1655.378906" xlink:href="#DejaVuSans-100"/>
      <use x="1718.855469" xlink:href="#DejaVuSans-50"/>
     </g>
    </g>
    <g id="line2d_78">
     <path d="M 66.6 129.351688 
L 86.6 129.351688 
" style="fill:none;stroke:#8c564b;stroke-linecap:square;stroke-width:1.5;"/>
    </g>
    <g id="line2d_79"/>
    <g id="text_20">
     <!-- Mrk509_2016_EF_20_rbf.jld2 -->
     <g transform="translate(94.6 132.851688)scale(0.1 -0.1)">
      <use xlink:href="#DejaVuSans-77"/>
      <use x="86.279297" xlink:href="#DejaVuSans-114"/>
      <use x="127.392578" xlink:href="#DejaVuSans-107"/>
      <use x="185.302734" xlink:href="#DejaVuSans-53"/>
      <use x="248.925781" xlink:href="#DejaVuSans-48"/>
      <use x="312.548828" xlink:href="#DejaVuSans-57"/>
      <use x="376.171875" xlink:href="#DejaVuSans-95"/>
      <use x="426.171875" xlink:href="#DejaVuSans-50"/>
      <use x="489.794922" xlink:href="#DejaVuSans-48"/>
      <use x="553.417969" xlink:href="#DejaVuSans-49"/>
      <use x="617.041016" xlink:href="#DejaVuSans-54"/>
      <use x="680.664062" xlink:href="#DejaVuSans-95"/>
      <use x="730.664062" xlink:href="#DejaVuSans-69"/>
      <use x="793.847656" xlink:href="#DejaVuSans-70"/>
      <use x="851.367188" xlink:href="#DejaVuSans-95"/>
      <use x="901.367188" xlink:href="#DejaVuSans-50"/>
      <use x="964.990234" xlink:href="#DejaVuSans-48"/>
      <use x="1028.613281" xlink:href="#DejaVuSans-95"/>
      <use x="1078.613281" xlink:href="#DejaVuSans-114"/>
      <use x="1119.726562" xlink:href="#DejaVuSans-98"/>
      <use x="1183.203125" xlink:href="#DejaVuSans-102"/>
      <use x="1211.158203" xlink:href="#DejaVuSans-46"/>
      <use x="1242.945312" xlink:href="#DejaVuSans-106"/>
      <use x="1270.728516" xlink:href="#DejaVuSans-108"/>
      <use x="1298.511719" xlink:href="#DejaVuSans-100"/>
      <use x="1361.988281" xlink:href="#DejaVuSans-50"/>
     </g>
    </g>
    <g id="line2d_80">
     <path d="M 66.6 144.307938 
L 86.6 144.307938 
" style="fill:none;stroke:#e377c2;stroke-linecap:square;stroke-width:1.5;"/>
    </g>
    <g id="line2d_81"/>
    <g id="text_21">
     <!-- Mrk509_2016_EF_30_matern12.jld2 -->
     <g transform="translate(94.6 147.807938)scale(0.1 -0.1)">
      <use xlink:href="#DejaVuSans-77"/>
      <use x="86.279297" xlink:href="#DejaVuSans-114"/>
      <use x="127.392578" xlink:href="#DejaVuSans-107"/>
      <use x="185.302734" xlink:href="#DejaVuSans-53"/>
      <use x="248.925781" xlink:href="#DejaVuSans-48"/>
      <use x="312.548828" xlink:href="#DejaVuSans-57"/>
      <use x="376.171875" xlink:href="#DejaVuSans-95"/>
      <use x="426.171875" xlink:href="#DejaVuSans-50"/>
      <use x="489.794922" xlink:href="#DejaVuSans-48"/>
      <use x="553.417969" xlink:href="#DejaVuSans-49"/>
      <use x="617.041016" xlink:href="#DejaVuSans-54"/>
      <use x="680.664062" xlink:href="#DejaVuSans-95"/>
      <use x="730.664062" xlink:href="#DejaVuSans-69"/>
      <use x="793.847656" xlink:href="#DejaVuSans-70"/>
      <use x="851.367188" xlink:href="#DejaVuSans-95"/>
      <use x="901.367188" xlink:href="#DejaVuSans-51"/>
      <use x="964.990234" xlink:href="#DejaVuSans-48"/>
      <use x="1028.613281" xlink:href="#DejaVuSans-95"/>
      <use x="1078.613281" xlink:href="#DejaVuSans-109"/>
      <use x="1176.025391" xlink:href="#DejaVuSans-97"/>
      <use x="1237.304688" xlink:href="#DejaVuSans-116"/>
      <use x="1276.513672" xlink:href="#DejaVuSans-101"/>
      <use x="1338.037109" xlink:href="#DejaVuSans-114"/>
      <use x="1377.400391" xlink:href="#DejaVuSans-110"/>
      <use x="1440.779297" xlink:href="#DejaVuSans-49"/>
      <use x="1504.402344" xlink:href="#DejaVuSans-50"/>
      <use x="1568.025391" xlink:href="#DejaVuSans-46"/>
      <use x="1599.8125" xlink:href="#DejaVuSans-106"/>
      <use x="1627.595703" xlink:href="#DejaVuSans-108"/>
      <use x="1655.378906" xlink:href="#DejaVuSans-100"/>
      <use x="1718.855469" xlink:href="#DejaVuSans-50"/>
     </g>
    </g>
    <g id="line2d_82">
     <path d="M 66.6 159.264188 
L 86.6 159.264188 
" style="fill:none;stroke:#7f7f7f;stroke-linecap:square;stroke-width:1.5;"/>
    </g>
    <g id="line2d_83"/>
    <g id="text_22">
     <!-- Mrk509_2016_EF_30_matern32.jld2 -->
     <g transform="translate(94.6 162.764188)scale(0.1 -0.1)">
      <use xlink:href="#DejaVuSans-77"/>
      <use x="86.279297" xlink:href="#DejaVuSans-114"/>
      <use x="127.392578" xlink:href="#DejaVuSans-107"/>
      <use x="185.302734" xlink:href="#DejaVuSans-53"/>
      <use x="248.925781" xlink:href="#DejaVuSans-48"/>
      <use x="312.548828" xlink:href="#DejaVuSans-57"/>
      <use x="376.171875" xlink:href="#DejaVuSans-95"/>
      <use x="426.171875" xlink:href="#DejaVuSans-50"/>
      <use x="489.794922" xlink:href="#DejaVuSans-48"/>
      <use x="553.417969" xlink:href="#DejaVuSans-49"/>
      <use x="617.041016" xlink:href="#DejaVuSans-54"/>
      <use x="680.664062" xlink:href="#DejaVuSans-95"/>
      <use x="730.664062" xlink:href="#DejaVuSans-69"/>
      <use x="793.847656" xlink:href="#DejaVuSans-70"/>
      <use x="851.367188" xlink:href="#DejaVuSans-95"/>
      <use x="901.367188" xlink:href="#DejaVuSans-51"/>
      <use x="964.990234" xlink:href="#DejaVuSans-48"/>
      <use x="1028.613281" xlink:href="#DejaVuSans-95"/>
      <use x="1078.613281" xlink:href="#DejaVuSans-109"/>
      <use x="1176.025391" xlink:href="#DejaVuSans-97"/>
      <use x="1237.304688" xlink:href="#DejaVuSans-116"/>
      <use x="1276.513672" xlink:href="#DejaVuSans-101"/>
      <use x="1338.037109" xlink:href="#DejaVuSans-114"/>
      <use x="1377.400391" xlink:href="#DejaVuSans-110"/>
      <use x="1440.779297" xlink:href="#DejaVuSans-51"/>
      <use x="1504.402344" xlink:href="#DejaVuSans-50"/>
      <use x="1568.025391" xlink:href="#DejaVuSans-46"/>
      <use x="1599.8125" xlink:href="#DejaVuSans-106"/>
      <use x="1627.595703" xlink:href="#DejaVuSans-108"/>
      <use x="1655.378906" xlink:href="#DejaVuSans-100"/>
      <use x="1718.855469" xlink:href="#DejaVuSans-50"/>
     </g>
    </g>
    <g id="line2d_84">
     <path d="M 66.6 174.220438 
L 86.6 174.220438 
" style="fill:none;stroke:#bcbd22;stroke-linecap:square;stroke-width:1.5;"/>
    </g>
    <g id="line2d_85"/>
    <g id="text_23">
     <!-- Mrk509_2016_EF_30_rbf.jld2 -->
     <g transform="translate(94.6 177.720438)scale(0.1 -0.1)">
      <use xlink:href="#DejaVuSans-77"/>
      <use x="86.279297" xlink:href="#DejaVuSans-114"/>
      <use x="127.392578" xlink:href="#DejaVuSans-107"/>
      <use x="185.302734" xlink:href="#DejaVuSans-53"/>
      <use x="248.925781" xlink:href="#DejaVuSans-48"/>
      <use x="312.548828" xlink:href="#DejaVuSans-57"/>
      <use x="376.171875" xlink:href="#DejaVuSans-95"/>
      <use x="426.171875" xlink:href="#DejaVuSans-50"/>
      <use x="489.794922" xlink:href="#DejaVuSans-48"/>
      <use x="553.417969" xlink:href="#DejaVuSans-49"/>
      <use x="617.041016" xlink:href="#DejaVuSans-54"/>
      <use x="680.664062" xlink:href="#DejaVuSans-95"/>
      <use x="730.664062" xlink:href="#DejaVuSans-69"/>
      <use x="793.847656" xlink:href="#DejaVuSans-70"/>
      <use x="851.367188" xlink:href="#DejaVuSans-95"/>
      <use x="901.367188" xlink:href="#DejaVuSans-51"/>
      <use x="964.990234" xlink:href="#DejaVuSans-48"/>
      <use x="1028.613281" xlink:href="#DejaVuSans-95"/>
      <use x="1078.613281" xlink:href="#DejaVuSans-114"/>
      <use x="1119.726562" xlink:href="#DejaVuSans-98"/>
      <use x="1183.203125" xlink:href="#DejaVuSans-102"/>
      <use x="1211.158203" xlink:href="#DejaVuSans-46"/>
      <use x="1242.945312" xlink:href="#DejaVuSans-106"/>
      <use x="1270.728516" xlink:href="#DejaVuSans-108"/>
      <use x="1298.511719" xlink:href="#DejaVuSans-100"/>
      <use x="1361.988281" xlink:href="#DejaVuSans-50"/>
     </g>
    </g>
   </g>
  </g>
 </g>
 <defs>
  <clipPath id="p238ce50a9a">
   <rect height="266.112" width="357.12" x="57.6" y="41.472"/>
  </clipPath>
 </defs>
</svg>
