<?xml version="1.0" encoding="utf-8" standalone="no"?>
<!DOCTYPE svg PUBLIC "-//W3C//DTD SVG 1.1//EN"
  "http://www.w3.org/Graphics/SVG/1.1/DTD/svg11.dtd">
<svg xmlns:xlink="http://www.w3.org/1999/xlink" width="460.8pt" height="345.6pt" viewBox="0 0 460.8 345.6" xmlns="http://www.w3.org/2000/svg" version="1.1">
 <metadata>
  <rdf:RDF xmlns:dc="http://purl.org/dc/elements/1.1/" xmlns:cc="http://creativecommons.org/ns#" xmlns:rdf="http://www.w3.org/1999/02/22-rdf-syntax-ns#">
   <cc:Work>
    <dc:type rdf:resource="http://purl.org/dc/dcmitype/StillImage"/>
    <dc:date>2022-02-02T16:43:59.911117</dc:date>
    <dc:format>image/svg+xml</dc:format>
    <dc:creator>
     <cc:Agent>
      <dc:title>Matplotlib v3.5.1, https://matplotlib.org/</dc:title>
     </cc:Agent>
    </dc:creator>
   </cc:Work>
  </rdf:RDF>
 </metadata>
 <defs>
  <style type="text/css">*{stroke-linejoin: round; stroke-linecap: butt}</style>
 </defs>
 <g id="figure_1">
  <g id="patch_1">
   <path d="M 0 345.6 
L 460.8 345.6 
L 460.8 0 
L 0 0 
z
" style="fill: #ffffff"/>
  </g>
  <g id="axes_1">
   <g id="patch_2">
    <path d="M 57.6 162.432 
L 414.72 162.432 
L 414.72 41.472 
L 57.6 41.472 
z
" style="fill: #ffffff"/>
   </g>
   <g id="matplotlib.axis_1">
    <g id="xtick_1">
     <g id="line2d_1">
      <defs>
       <path id="mdef7c5b553" d="M 0 0 
L 0 3.5 
" style="stroke: #000000; stroke-width: 0.8"/>
      </defs>
      <g>
       <use xlink:href="#mdef7c5b553" x="73.832727" y="162.432" style="stroke: #000000; stroke-width: 0.8"/>
      </g>
     </g>
     <g id="text_1">
      <!-- $\mathdefault{10^{5}}$ -->
      <g transform="translate(65.032727 177.030437)scale(0.1 -0.1)">
       <defs>
        <path id="DejaVuSans-31" d="M 794 531 
L 1825 531 
L 1825 4091 
L 703 3866 
L 703 4441 
L 1819 4666 
L 2450 4666 
L 2450 531 
L 3481 531 
L 3481 0 
L 794 0 
L 794 531 
z
" transform="scale(0.015625)"/>
        <path id="DejaVuSans-30" d="M 2034 4250 
Q 1547 4250 1301 3770 
Q 1056 3291 1056 2328 
Q 1056 1369 1301 889 
Q 1547 409 2034 409 
Q 2525 409 2770 889 
Q 3016 1369 3016 2328 
Q 3016 3291 2770 3770 
Q 2525 4250 2034 4250 
z
M 2034 4750 
Q 2819 4750 3233 4129 
Q 3647 3509 3647 2328 
Q 3647 1150 3233 529 
Q 2819 -91 2034 -91 
Q 1250 -91 836 529 
Q 422 1150 422 2328 
Q 422 3509 836 4129 
Q 1250 4750 2034 4750 
z
" transform="scale(0.015625)"/>
        <path id="DejaVuSans-35" d="M 691 4666 
L 3169 4666 
L 3169 4134 
L 1269 4134 
L 1269 2991 
Q 1406 3038 1543 3061 
Q 1681 3084 1819 3084 
Q 2600 3084 3056 2656 
Q 3513 2228 3513 1497 
Q 3513 744 3044 326 
Q 2575 -91 1722 -91 
Q 1428 -91 1123 -41 
Q 819 9 494 109 
L 494 744 
Q 775 591 1075 516 
Q 1375 441 1709 441 
Q 2250 441 2565 725 
Q 2881 1009 2881 1497 
Q 2881 1984 2565 2268 
Q 2250 2553 1709 2553 
Q 1456 2553 1204 2497 
Q 953 2441 691 2322 
L 691 4666 
z
" transform="scale(0.015625)"/>
       </defs>
       <use xlink:href="#DejaVuSans-31" transform="translate(0 0.684375)"/>
       <use xlink:href="#DejaVuSans-30" transform="translate(63.623047 0.684375)"/>
       <use xlink:href="#DejaVuSans-35" transform="translate(128.203125 38.965625)scale(0.7)"/>
      </g>
     </g>
    </g>
    <g id="xtick_2">
     <g id="line2d_2">
      <g>
       <use xlink:href="#mdef7c5b553" x="138.763636" y="162.432" style="stroke: #000000; stroke-width: 0.8"/>
      </g>
     </g>
     <g id="text_2">
      <!-- $\mathdefault{10^{6}}$ -->
      <g transform="translate(129.963636 177.030437)scale(0.1 -0.1)">
       <defs>
        <path id="DejaVuSans-36" d="M 2113 2584 
Q 1688 2584 1439 2293 
Q 1191 2003 1191 1497 
Q 1191 994 1439 701 
Q 1688 409 2113 409 
Q 2538 409 2786 701 
Q 3034 994 3034 1497 
Q 3034 2003 2786 2293 
Q 2538 2584 2113 2584 
z
M 3366 4563 
L 3366 3988 
Q 3128 4100 2886 4159 
Q 2644 4219 2406 4219 
Q 1781 4219 1451 3797 
Q 1122 3375 1075 2522 
Q 1259 2794 1537 2939 
Q 1816 3084 2150 3084 
Q 2853 3084 3261 2657 
Q 3669 2231 3669 1497 
Q 3669 778 3244 343 
Q 2819 -91 2113 -91 
Q 1303 -91 875 529 
Q 447 1150 447 2328 
Q 447 3434 972 4092 
Q 1497 4750 2381 4750 
Q 2619 4750 2861 4703 
Q 3103 4656 3366 4563 
z
" transform="scale(0.015625)"/>
       </defs>
       <use xlink:href="#DejaVuSans-31" transform="translate(0 0.765625)"/>
       <use xlink:href="#DejaVuSans-30" transform="translate(63.623047 0.765625)"/>
       <use xlink:href="#DejaVuSans-36" transform="translate(128.203125 39.046875)scale(0.7)"/>
      </g>
     </g>
    </g>
    <g id="xtick_3">
     <g id="line2d_3">
      <g>
       <use xlink:href="#mdef7c5b553" x="203.694545" y="162.432" style="stroke: #000000; stroke-width: 0.8"/>
      </g>
     </g>
     <g id="text_3">
      <!-- $\mathdefault{10^{7}}$ -->
      <g transform="translate(194.894545 177.030437)scale(0.1 -0.1)">
       <defs>
        <path id="DejaVuSans-37" d="M 525 4666 
L 3525 4666 
L 3525 4397 
L 1831 0 
L 1172 0 
L 2766 4134 
L 525 4134 
L 525 4666 
z
" transform="scale(0.015625)"/>
       </defs>
       <use xlink:href="#DejaVuSans-31" transform="translate(0 0.684375)"/>
       <use xlink:href="#DejaVuSans-30" transform="translate(63.623047 0.684375)"/>
       <use xlink:href="#DejaVuSans-37" transform="translate(128.203125 38.965625)scale(0.7)"/>
      </g>
     </g>
    </g>
    <g id="xtick_4">
     <g id="line2d_4">
      <g>
       <use xlink:href="#mdef7c5b553" x="268.625455" y="162.432" style="stroke: #000000; stroke-width: 0.8"/>
      </g>
     </g>
     <g id="text_4">
      <!-- $\mathdefault{10^{8}}$ -->
      <g transform="translate(259.825455 177.030437)scale(0.1 -0.1)">
       <defs>
        <path id="DejaVuSans-38" d="M 2034 2216 
Q 1584 2216 1326 1975 
Q 1069 1734 1069 1313 
Q 1069 891 1326 650 
Q 1584 409 2034 409 
Q 2484 409 2743 651 
Q 3003 894 3003 1313 
Q 3003 1734 2745 1975 
Q 2488 2216 2034 2216 
z
M 1403 2484 
Q 997 2584 770 2862 
Q 544 3141 544 3541 
Q 544 4100 942 4425 
Q 1341 4750 2034 4750 
Q 2731 4750 3128 4425 
Q 3525 4100 3525 3541 
Q 3525 3141 3298 2862 
Q 3072 2584 2669 2484 
Q 3125 2378 3379 2068 
Q 3634 1759 3634 1313 
Q 3634 634 3220 271 
Q 2806 -91 2034 -91 
Q 1263 -91 848 271 
Q 434 634 434 1313 
Q 434 1759 690 2068 
Q 947 2378 1403 2484 
z
M 1172 3481 
Q 1172 3119 1398 2916 
Q 1625 2713 2034 2713 
Q 2441 2713 2670 2916 
Q 2900 3119 2900 3481 
Q 2900 3844 2670 4047 
Q 2441 4250 2034 4250 
Q 1625 4250 1398 4047 
Q 1172 3844 1172 3481 
z
" transform="scale(0.015625)"/>
       </defs>
       <use xlink:href="#DejaVuSans-31" transform="translate(0 0.765625)"/>
       <use xlink:href="#DejaVuSans-30" transform="translate(63.623047 0.765625)"/>
       <use xlink:href="#DejaVuSans-38" transform="translate(128.203125 39.046875)scale(0.7)"/>
      </g>
     </g>
    </g>
    <g id="xtick_5">
     <g id="line2d_5">
      <g>
       <use xlink:href="#mdef7c5b553" x="333.556364" y="162.432" style="stroke: #000000; stroke-width: 0.8"/>
      </g>
     </g>
     <g id="text_5">
      <!-- $\mathdefault{10^{9}}$ -->
      <g transform="translate(324.756364 177.030437)scale(0.1 -0.1)">
       <defs>
        <path id="DejaVuSans-39" d="M 703 97 
L 703 672 
Q 941 559 1184 500 
Q 1428 441 1663 441 
Q 2288 441 2617 861 
Q 2947 1281 2994 2138 
Q 2813 1869 2534 1725 
Q 2256 1581 1919 1581 
Q 1219 1581 811 2004 
Q 403 2428 403 3163 
Q 403 3881 828 4315 
Q 1253 4750 1959 4750 
Q 2769 4750 3195 4129 
Q 3622 3509 3622 2328 
Q 3622 1225 3098 567 
Q 2575 -91 1691 -91 
Q 1453 -91 1209 -44 
Q 966 3 703 97 
z
M 1959 2075 
Q 2384 2075 2632 2365 
Q 2881 2656 2881 3163 
Q 2881 3666 2632 3958 
Q 2384 4250 1959 4250 
Q 1534 4250 1286 3958 
Q 1038 3666 1038 3163 
Q 1038 2656 1286 2365 
Q 1534 2075 1959 2075 
z
" transform="scale(0.015625)"/>
       </defs>
       <use xlink:href="#DejaVuSans-31" transform="translate(0 0.765625)"/>
       <use xlink:href="#DejaVuSans-30" transform="translate(63.623047 0.765625)"/>
       <use xlink:href="#DejaVuSans-39" transform="translate(128.203125 39.046875)scale(0.7)"/>
      </g>
     </g>
    </g>
    <g id="xtick_6">
     <g id="line2d_6">
      <g>
       <use xlink:href="#mdef7c5b553" x="398.487273" y="162.432" style="stroke: #000000; stroke-width: 0.8"/>
      </g>
     </g>
     <g id="text_6">
      <!-- $\mathdefault{10^{10}}$ -->
      <g transform="translate(387.437273 177.030437)scale(0.1 -0.1)">
       <use xlink:href="#DejaVuSans-31" transform="translate(0 0.765625)"/>
       <use xlink:href="#DejaVuSans-30" transform="translate(63.623047 0.765625)"/>
       <use xlink:href="#DejaVuSans-31" transform="translate(128.203125 39.046875)scale(0.7)"/>
       <use xlink:href="#DejaVuSans-30" transform="translate(172.739258 39.046875)scale(0.7)"/>
      </g>
     </g>
    </g>
    <g id="xtick_7">
     <g id="line2d_7">
      <defs>
       <path id="m3a98f40804" d="M 0 0 
L 0 2 
" style="stroke: #000000; stroke-width: 0.6"/>
      </defs>
      <g>
       <use xlink:href="#m3a98f40804" x="59.427886" y="162.432" style="stroke: #000000; stroke-width: 0.6"/>
      </g>
     </g>
    </g>
    <g id="xtick_8">
     <g id="line2d_8">
      <g>
       <use xlink:href="#m3a98f40804" x="63.774802" y="162.432" style="stroke: #000000; stroke-width: 0.6"/>
      </g>
     </g>
    </g>
    <g id="xtick_9">
     <g id="line2d_9">
      <g>
       <use xlink:href="#m3a98f40804" x="67.540272" y="162.432" style="stroke: #000000; stroke-width: 0.6"/>
      </g>
     </g>
    </g>
    <g id="xtick_10">
     <g id="line2d_10">
      <g>
       <use xlink:href="#m3a98f40804" x="70.861652" y="162.432" style="stroke: #000000; stroke-width: 0.6"/>
      </g>
     </g>
    </g>
    <g id="xtick_11">
     <g id="line2d_11">
      <g>
       <use xlink:href="#m3a98f40804" x="93.378879" y="162.432" style="stroke: #000000; stroke-width: 0.6"/>
      </g>
     </g>
    </g>
    <g id="xtick_12">
     <g id="line2d_12">
      <g>
       <use xlink:href="#m3a98f40804" x="104.812644" y="162.432" style="stroke: #000000; stroke-width: 0.6"/>
      </g>
     </g>
    </g>
    <g id="xtick_13">
     <g id="line2d_13">
      <g>
       <use xlink:href="#m3a98f40804" x="112.92503" y="162.432" style="stroke: #000000; stroke-width: 0.6"/>
      </g>
     </g>
    </g>
    <g id="xtick_14">
     <g id="line2d_14">
      <g>
       <use xlink:href="#m3a98f40804" x="119.217485" y="162.432" style="stroke: #000000; stroke-width: 0.6"/>
      </g>
     </g>
    </g>
    <g id="xtick_15">
     <g id="line2d_15">
      <g>
       <use xlink:href="#m3a98f40804" x="124.358795" y="162.432" style="stroke: #000000; stroke-width: 0.6"/>
      </g>
     </g>
    </g>
    <g id="xtick_16">
     <g id="line2d_16">
      <g>
       <use xlink:href="#m3a98f40804" x="128.705711" y="162.432" style="stroke: #000000; stroke-width: 0.6"/>
      </g>
     </g>
    </g>
    <g id="xtick_17">
     <g id="line2d_17">
      <g>
       <use xlink:href="#m3a98f40804" x="132.471181" y="162.432" style="stroke: #000000; stroke-width: 0.6"/>
      </g>
     </g>
    </g>
    <g id="xtick_18">
     <g id="line2d_18">
      <g>
       <use xlink:href="#m3a98f40804" x="135.792561" y="162.432" style="stroke: #000000; stroke-width: 0.6"/>
      </g>
     </g>
    </g>
    <g id="xtick_19">
     <g id="line2d_19">
      <g>
       <use xlink:href="#m3a98f40804" x="158.309788" y="162.432" style="stroke: #000000; stroke-width: 0.6"/>
      </g>
     </g>
    </g>
    <g id="xtick_20">
     <g id="line2d_20">
      <g>
       <use xlink:href="#m3a98f40804" x="169.743553" y="162.432" style="stroke: #000000; stroke-width: 0.6"/>
      </g>
     </g>
    </g>
    <g id="xtick_21">
     <g id="line2d_21">
      <g>
       <use xlink:href="#m3a98f40804" x="177.855939" y="162.432" style="stroke: #000000; stroke-width: 0.6"/>
      </g>
     </g>
    </g>
    <g id="xtick_22">
     <g id="line2d_22">
      <g>
       <use xlink:href="#m3a98f40804" x="184.148394" y="162.432" style="stroke: #000000; stroke-width: 0.6"/>
      </g>
     </g>
    </g>
    <g id="xtick_23">
     <g id="line2d_23">
      <g>
       <use xlink:href="#m3a98f40804" x="189.289704" y="162.432" style="stroke: #000000; stroke-width: 0.6"/>
      </g>
     </g>
    </g>
    <g id="xtick_24">
     <g id="line2d_24">
      <g>
       <use xlink:href="#m3a98f40804" x="193.63662" y="162.432" style="stroke: #000000; stroke-width: 0.6"/>
      </g>
     </g>
    </g>
    <g id="xtick_25">
     <g id="line2d_25">
      <g>
       <use xlink:href="#m3a98f40804" x="197.40209" y="162.432" style="stroke: #000000; stroke-width: 0.6"/>
      </g>
     </g>
    </g>
    <g id="xtick_26">
     <g id="line2d_26">
      <g>
       <use xlink:href="#m3a98f40804" x="200.72347" y="162.432" style="stroke: #000000; stroke-width: 0.6"/>
      </g>
     </g>
    </g>
    <g id="xtick_27">
     <g id="line2d_27">
      <g>
       <use xlink:href="#m3a98f40804" x="223.240697" y="162.432" style="stroke: #000000; stroke-width: 0.6"/>
      </g>
     </g>
    </g>
    <g id="xtick_28">
     <g id="line2d_28">
      <g>
       <use xlink:href="#m3a98f40804" x="234.674462" y="162.432" style="stroke: #000000; stroke-width: 0.6"/>
      </g>
     </g>
    </g>
    <g id="xtick_29">
     <g id="line2d_29">
      <g>
       <use xlink:href="#m3a98f40804" x="242.786848" y="162.432" style="stroke: #000000; stroke-width: 0.6"/>
      </g>
     </g>
    </g>
    <g id="xtick_30">
     <g id="line2d_30">
      <g>
       <use xlink:href="#m3a98f40804" x="249.079303" y="162.432" style="stroke: #000000; stroke-width: 0.6"/>
      </g>
     </g>
    </g>
    <g id="xtick_31">
     <g id="line2d_31">
      <g>
       <use xlink:href="#m3a98f40804" x="254.220614" y="162.432" style="stroke: #000000; stroke-width: 0.6"/>
      </g>
     </g>
    </g>
    <g id="xtick_32">
     <g id="line2d_32">
      <g>
       <use xlink:href="#m3a98f40804" x="258.567529" y="162.432" style="stroke: #000000; stroke-width: 0.6"/>
      </g>
     </g>
    </g>
    <g id="xtick_33">
     <g id="line2d_33">
      <g>
       <use xlink:href="#m3a98f40804" x="262.332999" y="162.432" style="stroke: #000000; stroke-width: 0.6"/>
      </g>
     </g>
    </g>
    <g id="xtick_34">
     <g id="line2d_34">
      <g>
       <use xlink:href="#m3a98f40804" x="265.654379" y="162.432" style="stroke: #000000; stroke-width: 0.6"/>
      </g>
     </g>
    </g>
    <g id="xtick_35">
     <g id="line2d_35">
      <g>
       <use xlink:href="#m3a98f40804" x="288.171606" y="162.432" style="stroke: #000000; stroke-width: 0.6"/>
      </g>
     </g>
    </g>
    <g id="xtick_36">
     <g id="line2d_36">
      <g>
       <use xlink:href="#m3a98f40804" x="299.605371" y="162.432" style="stroke: #000000; stroke-width: 0.6"/>
      </g>
     </g>
    </g>
    <g id="xtick_37">
     <g id="line2d_37">
      <g>
       <use xlink:href="#m3a98f40804" x="307.717757" y="162.432" style="stroke: #000000; stroke-width: 0.6"/>
      </g>
     </g>
    </g>
    <g id="xtick_38">
     <g id="line2d_38">
      <g>
       <use xlink:href="#m3a98f40804" x="314.010212" y="162.432" style="stroke: #000000; stroke-width: 0.6"/>
      </g>
     </g>
    </g>
    <g id="xtick_39">
     <g id="line2d_39">
      <g>
       <use xlink:href="#m3a98f40804" x="319.151523" y="162.432" style="stroke: #000000; stroke-width: 0.6"/>
      </g>
     </g>
    </g>
    <g id="xtick_40">
     <g id="line2d_40">
      <g>
       <use xlink:href="#m3a98f40804" x="323.498439" y="162.432" style="stroke: #000000; stroke-width: 0.6"/>
      </g>
     </g>
    </g>
    <g id="xtick_41">
     <g id="line2d_41">
      <g>
       <use xlink:href="#m3a98f40804" x="327.263908" y="162.432" style="stroke: #000000; stroke-width: 0.6"/>
      </g>
     </g>
    </g>
    <g id="xtick_42">
     <g id="line2d_42">
      <g>
       <use xlink:href="#m3a98f40804" x="330.585288" y="162.432" style="stroke: #000000; stroke-width: 0.6"/>
      </g>
     </g>
    </g>
    <g id="xtick_43">
     <g id="line2d_43">
      <g>
       <use xlink:href="#m3a98f40804" x="353.102515" y="162.432" style="stroke: #000000; stroke-width: 0.6"/>
      </g>
     </g>
    </g>
    <g id="xtick_44">
     <g id="line2d_44">
      <g>
       <use xlink:href="#m3a98f40804" x="364.53628" y="162.432" style="stroke: #000000; stroke-width: 0.6"/>
      </g>
     </g>
    </g>
    <g id="xtick_45">
     <g id="line2d_45">
      <g>
       <use xlink:href="#m3a98f40804" x="372.648666" y="162.432" style="stroke: #000000; stroke-width: 0.6"/>
      </g>
     </g>
    </g>
    <g id="xtick_46">
     <g id="line2d_46">
      <g>
       <use xlink:href="#m3a98f40804" x="378.941121" y="162.432" style="stroke: #000000; stroke-width: 0.6"/>
      </g>
     </g>
    </g>
    <g id="xtick_47">
     <g id="line2d_47">
      <g>
       <use xlink:href="#m3a98f40804" x="384.082432" y="162.432" style="stroke: #000000; stroke-width: 0.6"/>
      </g>
     </g>
    </g>
    <g id="xtick_48">
     <g id="line2d_48">
      <g>
       <use xlink:href="#m3a98f40804" x="388.429348" y="162.432" style="stroke: #000000; stroke-width: 0.6"/>
      </g>
     </g>
    </g>
    <g id="xtick_49">
     <g id="line2d_49">
      <g>
       <use xlink:href="#m3a98f40804" x="392.194817" y="162.432" style="stroke: #000000; stroke-width: 0.6"/>
      </g>
     </g>
    </g>
    <g id="xtick_50">
     <g id="line2d_50">
      <g>
       <use xlink:href="#m3a98f40804" x="395.516197" y="162.432" style="stroke: #000000; stroke-width: 0.6"/>
      </g>
     </g>
    </g>
   </g>
   <g id="matplotlib.axis_2">
    <g id="ytick_1">
     <g id="line2d_51">
      <defs>
       <path id="m54fb6594bf" d="M 0 0 
L -3.5 0 
" style="stroke: #000000; stroke-width: 0.8"/>
      </defs>
      <g>
       <use xlink:href="#m54fb6594bf" x="57.6" y="135.058913" style="stroke: #000000; stroke-width: 0.8"/>
      </g>
     </g>
     <g id="text_7">
      <!-- 0.02 -->
      <g transform="translate(28.334375 138.858132)scale(0.1 -0.1)">
       <defs>
        <path id="DejaVuSans-2e" d="M 684 794 
L 1344 794 
L 1344 0 
L 684 0 
L 684 794 
z
" transform="scale(0.015625)"/>
        <path id="DejaVuSans-32" d="M 1228 531 
L 3431 531 
L 3431 0 
L 469 0 
L 469 531 
Q 828 903 1448 1529 
Q 2069 2156 2228 2338 
Q 2531 2678 2651 2914 
Q 2772 3150 2772 3378 
Q 2772 3750 2511 3984 
Q 2250 4219 1831 4219 
Q 1534 4219 1204 4116 
Q 875 4013 500 3803 
L 500 4441 
Q 881 4594 1212 4672 
Q 1544 4750 1819 4750 
Q 2544 4750 2975 4387 
Q 3406 4025 3406 3419 
Q 3406 3131 3298 2873 
Q 3191 2616 2906 2266 
Q 2828 2175 2409 1742 
Q 1991 1309 1228 531 
z
" transform="scale(0.015625)"/>
       </defs>
       <use xlink:href="#DejaVuSans-30"/>
       <use xlink:href="#DejaVuSans-2e" x="63.623047"/>
       <use xlink:href="#DejaVuSans-30" x="95.410156"/>
       <use xlink:href="#DejaVuSans-32" x="159.033203"/>
      </g>
     </g>
    </g>
    <g id="ytick_2">
     <g id="line2d_52">
      <g>
       <use xlink:href="#m54fb6594bf" x="57.6" y="94.834327" style="stroke: #000000; stroke-width: 0.8"/>
      </g>
     </g>
     <g id="text_8">
      <!-- 0.03 -->
      <g transform="translate(28.334375 98.633546)scale(0.1 -0.1)">
       <defs>
        <path id="DejaVuSans-33" d="M 2597 2516 
Q 3050 2419 3304 2112 
Q 3559 1806 3559 1356 
Q 3559 666 3084 287 
Q 2609 -91 1734 -91 
Q 1441 -91 1130 -33 
Q 819 25 488 141 
L 488 750 
Q 750 597 1062 519 
Q 1375 441 1716 441 
Q 2309 441 2620 675 
Q 2931 909 2931 1356 
Q 2931 1769 2642 2001 
Q 2353 2234 1838 2234 
L 1294 2234 
L 1294 2753 
L 1863 2753 
Q 2328 2753 2575 2939 
Q 2822 3125 2822 3475 
Q 2822 3834 2567 4026 
Q 2313 4219 1838 4219 
Q 1578 4219 1281 4162 
Q 984 4106 628 3988 
L 628 4550 
Q 988 4650 1302 4700 
Q 1616 4750 1894 4750 
Q 2613 4750 3031 4423 
Q 3450 4097 3450 3541 
Q 3450 3153 3228 2886 
Q 3006 2619 2597 2516 
z
" transform="scale(0.015625)"/>
       </defs>
       <use xlink:href="#DejaVuSans-30"/>
       <use xlink:href="#DejaVuSans-2e" x="63.623047"/>
       <use xlink:href="#DejaVuSans-30" x="95.410156"/>
       <use xlink:href="#DejaVuSans-33" x="159.033203"/>
      </g>
     </g>
    </g>
    <g id="ytick_3">
     <g id="line2d_53">
      <g>
       <use xlink:href="#m54fb6594bf" x="57.6" y="54.609741" style="stroke: #000000; stroke-width: 0.8"/>
      </g>
     </g>
     <g id="text_9">
      <!-- 0.04 -->
      <g transform="translate(28.334375 58.40896)scale(0.1 -0.1)">
       <defs>
        <path id="DejaVuSans-34" d="M 2419 4116 
L 825 1625 
L 2419 1625 
L 2419 4116 
z
M 2253 4666 
L 3047 4666 
L 3047 1625 
L 3713 1625 
L 3713 1100 
L 3047 1100 
L 3047 0 
L 2419 0 
L 2419 1100 
L 313 1100 
L 313 1709 
L 2253 4666 
z
" transform="scale(0.015625)"/>
       </defs>
       <use xlink:href="#DejaVuSans-30"/>
       <use xlink:href="#DejaVuSans-2e" x="63.623047"/>
       <use xlink:href="#DejaVuSans-30" x="95.410156"/>
       <use xlink:href="#DejaVuSans-34" x="159.033203"/>
      </g>
     </g>
    </g>
   </g>
   <g id="line2d_54">
    <path d="M 73.832727 46.970182 
L 82.157203 53.028721 
L 90.481678 58.945453 
L 98.806154 64.66425 
L 107.130629 70.131241 
L 115.455105 75.327293 
L 123.77958 80.244483 
L 132.104056 84.930843 
L 140.428531 89.453668 
L 148.753007 93.904852 
L 157.077483 98.386325 
L 165.401958 102.978199 
L 173.726434 107.722818 
L 182.050909 112.622438 
L 190.375385 117.636548 
L 198.69986 122.691801 
L 207.024336 127.718336 
L 215.348811 132.630107 
L 223.673287 137.356619 
L 231.997762 141.793101 
L 240.322238 145.818354 
L 248.646713 149.241364 
L 256.971189 151.800394 
L 265.295664 153.149486 
L 273.62014 152.941346 
L 281.944615 150.831372 
L 290.269091 146.744518 
L 298.593566 140.898519 
L 306.918042 134.026617 
L 315.242517 127.122997 
L 323.566993 121.067122 
L 331.891469 116.483003 
L 340.215944 113.672037 
L 348.54042 113.354195 
L 356.864895 119.638759 
L 365.189371 102.095087 
L 373.513846 105.310299 
L 381.838322 145.526858 
L 390.162797 132.071381 
L 398.487273 156.933818 
" clip-path="url(#p4de8f4c338)" style="fill: none; stroke: #1f77b4; stroke-width: 1.5; stroke-linecap: square"/>
    <defs>
     <path id="m8b4ae0fdaa" d="M 0 3 
C 0.795609 3 1.55874 2.683901 2.12132 2.12132 
C 2.683901 1.55874 3 0.795609 3 0 
C 3 -0.795609 2.683901 -1.55874 2.12132 -2.12132 
C 1.55874 -2.683901 0.795609 -3 0 -3 
C -0.795609 -3 -1.55874 -2.683901 -2.12132 -2.12132 
C -2.683901 -1.55874 -3 -0.795609 -3 0 
C -3 0.795609 -2.683901 1.55874 -2.12132 2.12132 
C -1.55874 2.683901 -0.795609 3 0 3 
z
" style="stroke: #1f77b4"/>
    </defs>
    <g clip-path="url(#p4de8f4c338)">
     <use xlink:href="#m8b4ae0fdaa" x="73.832727" y="46.970182" style="fill: #1f77b4; stroke: #1f77b4"/>
     <use xlink:href="#m8b4ae0fdaa" x="82.157203" y="53.028721" style="fill: #1f77b4; stroke: #1f77b4"/>
     <use xlink:href="#m8b4ae0fdaa" x="90.481678" y="58.945453" style="fill: #1f77b4; stroke: #1f77b4"/>
     <use xlink:href="#m8b4ae0fdaa" x="98.806154" y="64.66425" style="fill: #1f77b4; stroke: #1f77b4"/>
     <use xlink:href="#m8b4ae0fdaa" x="107.130629" y="70.131241" style="fill: #1f77b4; stroke: #1f77b4"/>
     <use xlink:href="#m8b4ae0fdaa" x="115.455105" y="75.327293" style="fill: #1f77b4; stroke: #1f77b4"/>
     <use xlink:href="#m8b4ae0fdaa" x="123.77958" y="80.244483" style="fill: #1f77b4; stroke: #1f77b4"/>
     <use xlink:href="#m8b4ae0fdaa" x="132.104056" y="84.930843" style="fill: #1f77b4; stroke: #1f77b4"/>
     <use xlink:href="#m8b4ae0fdaa" x="140.428531" y="89.453668" style="fill: #1f77b4; stroke: #1f77b4"/>
     <use xlink:href="#m8b4ae0fdaa" x="148.753007" y="93.904852" style="fill: #1f77b4; stroke: #1f77b4"/>
     <use xlink:href="#m8b4ae0fdaa" x="157.077483" y="98.386325" style="fill: #1f77b4; stroke: #1f77b4"/>
     <use xlink:href="#m8b4ae0fdaa" x="165.401958" y="102.978199" style="fill: #1f77b4; stroke: #1f77b4"/>
     <use xlink:href="#m8b4ae0fdaa" x="173.726434" y="107.722818" style="fill: #1f77b4; stroke: #1f77b4"/>
     <use xlink:href="#m8b4ae0fdaa" x="182.050909" y="112.622438" style="fill: #1f77b4; stroke: #1f77b4"/>
     <use xlink:href="#m8b4ae0fdaa" x="190.375385" y="117.636548" style="fill: #1f77b4; stroke: #1f77b4"/>
     <use xlink:href="#m8b4ae0fdaa" x="198.69986" y="122.691801" style="fill: #1f77b4; stroke: #1f77b4"/>
     <use xlink:href="#m8b4ae0fdaa" x="207.024336" y="127.718336" style="fill: #1f77b4; stroke: #1f77b4"/>
     <use xlink:href="#m8b4ae0fdaa" x="215.348811" y="132.630107" style="fill: #1f77b4; stroke: #1f77b4"/>
     <use xlink:href="#m8b4ae0fdaa" x="223.673287" y="137.356619" style="fill: #1f77b4; stroke: #1f77b4"/>
     <use xlink:href="#m8b4ae0fdaa" x="231.997762" y="141.793101" style="fill: #1f77b4; stroke: #1f77b4"/>
     <use xlink:href="#m8b4ae0fdaa" x="240.322238" y="145.818354" style="fill: #1f77b4; stroke: #1f77b4"/>
     <use xlink:href="#m8b4ae0fdaa" x="248.646713" y="149.241364" style="fill: #1f77b4; stroke: #1f77b4"/>
     <use xlink:href="#m8b4ae0fdaa" x="256.971189" y="151.800394" style="fill: #1f77b4; stroke: #1f77b4"/>
     <use xlink:href="#m8b4ae0fdaa" x="265.295664" y="153.149486" style="fill: #1f77b4; stroke: #1f77b4"/>
     <use xlink:href="#m8b4ae0fdaa" x="273.62014" y="152.941346" style="fill: #1f77b4; stroke: #1f77b4"/>
     <use xlink:href="#m8b4ae0fdaa" x="281.944615" y="150.831372" style="fill: #1f77b4; stroke: #1f77b4"/>
     <use xlink:href="#m8b4ae0fdaa" x="290.269091" y="146.744518" style="fill: #1f77b4; stroke: #1f77b4"/>
     <use xlink:href="#m8b4ae0fdaa" x="298.593566" y="140.898519" style="fill: #1f77b4; stroke: #1f77b4"/>
     <use xlink:href="#m8b4ae0fdaa" x="306.918042" y="134.026617" style="fill: #1f77b4; stroke: #1f77b4"/>
     <use xlink:href="#m8b4ae0fdaa" x="315.242517" y="127.122997" style="fill: #1f77b4; stroke: #1f77b4"/>
     <use xlink:href="#m8b4ae0fdaa" x="323.566993" y="121.067122" style="fill: #1f77b4; stroke: #1f77b4"/>
     <use xlink:href="#m8b4ae0fdaa" x="331.891469" y="116.483003" style="fill: #1f77b4; stroke: #1f77b4"/>
     <use xlink:href="#m8b4ae0fdaa" x="340.215944" y="113.672037" style="fill: #1f77b4; stroke: #1f77b4"/>
     <use xlink:href="#m8b4ae0fdaa" x="348.54042" y="113.354195" style="fill: #1f77b4; stroke: #1f77b4"/>
     <use xlink:href="#m8b4ae0fdaa" x="356.864895" y="119.638759" style="fill: #1f77b4; stroke: #1f77b4"/>
     <use xlink:href="#m8b4ae0fdaa" x="365.189371" y="102.095087" style="fill: #1f77b4; stroke: #1f77b4"/>
     <use xlink:href="#m8b4ae0fdaa" x="373.513846" y="105.310299" style="fill: #1f77b4; stroke: #1f77b4"/>
     <use xlink:href="#m8b4ae0fdaa" x="381.838322" y="145.526858" style="fill: #1f77b4; stroke: #1f77b4"/>
     <use xlink:href="#m8b4ae0fdaa" x="390.162797" y="132.071381" style="fill: #1f77b4; stroke: #1f77b4"/>
     <use xlink:href="#m8b4ae0fdaa" x="398.487273" y="156.933818" style="fill: #1f77b4; stroke: #1f77b4"/>
    </g>
   </g>
   <g id="patch_3">
    <path d="M 57.6 162.432 
L 57.6 41.472 
" style="fill: none; stroke: #000000; stroke-width: 0.8; stroke-linejoin: miter; stroke-linecap: square"/>
   </g>
   <g id="patch_4">
    <path d="M 414.72 162.432 
L 414.72 41.472 
" style="fill: none; stroke: #000000; stroke-width: 0.8; stroke-linejoin: miter; stroke-linecap: square"/>
   </g>
   <g id="patch_5">
    <path d="M 57.6 162.432 
L 414.72 162.432 
" style="fill: none; stroke: #000000; stroke-width: 0.8; stroke-linejoin: miter; stroke-linecap: square"/>
   </g>
   <g id="patch_6">
    <path d="M 57.6 41.472 
L 414.72 41.472 
" style="fill: none; stroke: #000000; stroke-width: 0.8; stroke-linejoin: miter; stroke-linecap: square"/>
   </g>
  </g>
  <g id="axes_2">
   <g id="patch_7">
    <path d="M 57.6 307.584 
L 414.72 307.584 
L 414.72 186.624 
L 57.6 186.624 
z
" style="fill: #ffffff"/>
   </g>
   <g id="matplotlib.axis_3">
    <g id="xtick_51">
     <g id="line2d_55">
      <g>
       <use xlink:href="#mdef7c5b553" x="73.832727" y="307.584" style="stroke: #000000; stroke-width: 0.8"/>
      </g>
     </g>
     <g id="text_10">
      <!-- $\mathdefault{10^{-2}}$ -->
      <g transform="translate(62.082727 322.182437)scale(0.1 -0.1)">
       <defs>
        <path id="DejaVuSans-2212" d="M 678 2272 
L 4684 2272 
L 4684 1741 
L 678 1741 
L 678 2272 
z
" transform="scale(0.015625)"/>
       </defs>
       <use xlink:href="#DejaVuSans-31" transform="translate(0 0.765625)"/>
       <use xlink:href="#DejaVuSans-30" transform="translate(63.623047 0.765625)"/>
       <use xlink:href="#DejaVuSans-2212" transform="translate(128.203125 39.046875)scale(0.7)"/>
       <use xlink:href="#DejaVuSans-32" transform="translate(186.855469 39.046875)scale(0.7)"/>
      </g>
     </g>
    </g>
    <g id="xtick_52">
     <g id="line2d_56">
      <g>
       <use xlink:href="#mdef7c5b553" x="172.182196" y="307.584" style="stroke: #000000; stroke-width: 0.8"/>
      </g>
     </g>
     <g id="text_11">
      <!-- $\mathdefault{10^{-1}}$ -->
      <g transform="translate(160.432196 322.182437)scale(0.1 -0.1)">
       <use xlink:href="#DejaVuSans-31" transform="translate(0 0.684375)"/>
       <use xlink:href="#DejaVuSans-30" transform="translate(63.623047 0.684375)"/>
       <use xlink:href="#DejaVuSans-2212" transform="translate(128.203125 38.965625)scale(0.7)"/>
       <use xlink:href="#DejaVuSans-31" transform="translate(186.855469 38.965625)scale(0.7)"/>
      </g>
     </g>
    </g>
    <g id="xtick_53">
     <g id="line2d_57">
      <g>
       <use xlink:href="#mdef7c5b553" x="270.531664" y="307.584" style="stroke: #000000; stroke-width: 0.8"/>
      </g>
     </g>
     <g id="text_12">
      <!-- $\mathdefault{10^{0}}$ -->
      <g transform="translate(261.731664 322.182437)scale(0.1 -0.1)">
       <use xlink:href="#DejaVuSans-31" transform="translate(0 0.765625)"/>
       <use xlink:href="#DejaVuSans-30" transform="translate(63.623047 0.765625)"/>
       <use xlink:href="#DejaVuSans-30" transform="translate(128.203125 39.046875)scale(0.7)"/>
      </g>
     </g>
    </g>
    <g id="xtick_54">
     <g id="line2d_58">
      <g>
       <use xlink:href="#mdef7c5b553" x="368.881133" y="307.584" style="stroke: #000000; stroke-width: 0.8"/>
      </g>
     </g>
     <g id="text_13">
      <!-- $\mathdefault{10^{1}}$ -->
      <g transform="translate(360.081133 322.182437)scale(0.1 -0.1)">
       <use xlink:href="#DejaVuSans-31" transform="translate(0 0.684375)"/>
       <use xlink:href="#DejaVuSans-30" transform="translate(63.623047 0.684375)"/>
       <use xlink:href="#DejaVuSans-31" transform="translate(128.203125 38.965625)scale(0.7)"/>
      </g>
     </g>
    </g>
    <g id="xtick_55">
     <g id="line2d_59">
      <g>
       <use xlink:href="#m3a98f40804" x="58.598202" y="307.584" style="stroke: #000000; stroke-width: 0.6"/>
      </g>
     </g>
    </g>
    <g id="xtick_56">
     <g id="line2d_60">
      <g>
       <use xlink:href="#m3a98f40804" x="64.301679" y="307.584" style="stroke: #000000; stroke-width: 0.6"/>
      </g>
     </g>
    </g>
    <g id="xtick_57">
     <g id="line2d_61">
      <g>
       <use xlink:href="#m3a98f40804" x="69.332502" y="307.584" style="stroke: #000000; stroke-width: 0.6"/>
      </g>
     </g>
    </g>
    <g id="xtick_58">
     <g id="line2d_62">
      <g>
       <use xlink:href="#m3a98f40804" x="103.438867" y="307.584" style="stroke: #000000; stroke-width: 0.6"/>
      </g>
     </g>
    </g>
    <g id="xtick_59">
     <g id="line2d_63">
      <g>
       <use xlink:href="#m3a98f40804" x="120.757349" y="307.584" style="stroke: #000000; stroke-width: 0.6"/>
      </g>
     </g>
    </g>
    <g id="xtick_60">
     <g id="line2d_64">
      <g>
       <use xlink:href="#m3a98f40804" x="133.045007" y="307.584" style="stroke: #000000; stroke-width: 0.6"/>
      </g>
     </g>
    </g>
    <g id="xtick_61">
     <g id="line2d_65">
      <g>
       <use xlink:href="#m3a98f40804" x="142.576056" y="307.584" style="stroke: #000000; stroke-width: 0.6"/>
      </g>
     </g>
    </g>
    <g id="xtick_62">
     <g id="line2d_66">
      <g>
       <use xlink:href="#m3a98f40804" x="150.363489" y="307.584" style="stroke: #000000; stroke-width: 0.6"/>
      </g>
     </g>
    </g>
    <g id="xtick_63">
     <g id="line2d_67">
      <g>
       <use xlink:href="#m3a98f40804" x="156.94767" y="307.584" style="stroke: #000000; stroke-width: 0.6"/>
      </g>
     </g>
    </g>
    <g id="xtick_64">
     <g id="line2d_68">
      <g>
       <use xlink:href="#m3a98f40804" x="162.651147" y="307.584" style="stroke: #000000; stroke-width: 0.6"/>
      </g>
     </g>
    </g>
    <g id="xtick_65">
     <g id="line2d_69">
      <g>
       <use xlink:href="#m3a98f40804" x="167.681971" y="307.584" style="stroke: #000000; stroke-width: 0.6"/>
      </g>
     </g>
    </g>
    <g id="xtick_66">
     <g id="line2d_70">
      <g>
       <use xlink:href="#m3a98f40804" x="201.788336" y="307.584" style="stroke: #000000; stroke-width: 0.6"/>
      </g>
     </g>
    </g>
    <g id="xtick_67">
     <g id="line2d_71">
      <g>
       <use xlink:href="#m3a98f40804" x="219.106818" y="307.584" style="stroke: #000000; stroke-width: 0.6"/>
      </g>
     </g>
    </g>
    <g id="xtick_68">
     <g id="line2d_72">
      <g>
       <use xlink:href="#m3a98f40804" x="231.394476" y="307.584" style="stroke: #000000; stroke-width: 0.6"/>
      </g>
     </g>
    </g>
    <g id="xtick_69">
     <g id="line2d_73">
      <g>
       <use xlink:href="#m3a98f40804" x="240.925524" y="307.584" style="stroke: #000000; stroke-width: 0.6"/>
      </g>
     </g>
    </g>
    <g id="xtick_70">
     <g id="line2d_74">
      <g>
       <use xlink:href="#m3a98f40804" x="248.712958" y="307.584" style="stroke: #000000; stroke-width: 0.6"/>
      </g>
     </g>
    </g>
    <g id="xtick_71">
     <g id="line2d_75">
      <g>
       <use xlink:href="#m3a98f40804" x="255.297139" y="307.584" style="stroke: #000000; stroke-width: 0.6"/>
      </g>
     </g>
    </g>
    <g id="xtick_72">
     <g id="line2d_76">
      <g>
       <use xlink:href="#m3a98f40804" x="261.000616" y="307.584" style="stroke: #000000; stroke-width: 0.6"/>
      </g>
     </g>
    </g>
    <g id="xtick_73">
     <g id="line2d_77">
      <g>
       <use xlink:href="#m3a98f40804" x="266.031439" y="307.584" style="stroke: #000000; stroke-width: 0.6"/>
      </g>
     </g>
    </g>
    <g id="xtick_74">
     <g id="line2d_78">
      <g>
       <use xlink:href="#m3a98f40804" x="300.137804" y="307.584" style="stroke: #000000; stroke-width: 0.6"/>
      </g>
     </g>
    </g>
    <g id="xtick_75">
     <g id="line2d_79">
      <g>
       <use xlink:href="#m3a98f40804" x="317.456286" y="307.584" style="stroke: #000000; stroke-width: 0.6"/>
      </g>
     </g>
    </g>
    <g id="xtick_76">
     <g id="line2d_80">
      <g>
       <use xlink:href="#m3a98f40804" x="329.743944" y="307.584" style="stroke: #000000; stroke-width: 0.6"/>
      </g>
     </g>
    </g>
    <g id="xtick_77">
     <g id="line2d_81">
      <g>
       <use xlink:href="#m3a98f40804" x="339.274993" y="307.584" style="stroke: #000000; stroke-width: 0.6"/>
      </g>
     </g>
    </g>
    <g id="xtick_78">
     <g id="line2d_82">
      <g>
       <use xlink:href="#m3a98f40804" x="347.062426" y="307.584" style="stroke: #000000; stroke-width: 0.6"/>
      </g>
     </g>
    </g>
    <g id="xtick_79">
     <g id="line2d_83">
      <g>
       <use xlink:href="#m3a98f40804" x="353.646607" y="307.584" style="stroke: #000000; stroke-width: 0.6"/>
      </g>
     </g>
    </g>
    <g id="xtick_80">
     <g id="line2d_84">
      <g>
       <use xlink:href="#m3a98f40804" x="359.350084" y="307.584" style="stroke: #000000; stroke-width: 0.6"/>
      </g>
     </g>
    </g>
    <g id="xtick_81">
     <g id="line2d_85">
      <g>
       <use xlink:href="#m3a98f40804" x="364.380908" y="307.584" style="stroke: #000000; stroke-width: 0.6"/>
      </g>
     </g>
    </g>
    <g id="xtick_82">
     <g id="line2d_86">
      <g>
       <use xlink:href="#m3a98f40804" x="398.487273" y="307.584" style="stroke: #000000; stroke-width: 0.6"/>
      </g>
     </g>
    </g>
   </g>
   <g id="matplotlib.axis_4">
    <g id="ytick_4">
     <g id="line2d_87">
      <g>
       <use xlink:href="#m54fb6594bf" x="57.6" y="305.848488" style="stroke: #000000; stroke-width: 0.8"/>
      </g>
     </g>
     <g id="text_14">
      <!-- 0.015 -->
      <g transform="translate(21.971875 309.647707)scale(0.1 -0.1)">
       <use xlink:href="#DejaVuSans-30"/>
       <use xlink:href="#DejaVuSans-2e" x="63.623047"/>
       <use xlink:href="#DejaVuSans-30" x="95.410156"/>
       <use xlink:href="#DejaVuSans-31" x="159.033203"/>
       <use xlink:href="#DejaVuSans-35" x="222.65625"/>
      </g>
     </g>
    </g>
    <g id="ytick_5">
     <g id="line2d_88">
      <g>
       <use xlink:href="#m54fb6594bf" x="57.6" y="277.358999" style="stroke: #000000; stroke-width: 0.8"/>
      </g>
     </g>
     <g id="text_15">
      <!-- 0.020 -->
      <g transform="translate(21.971875 281.158218)scale(0.1 -0.1)">
       <use xlink:href="#DejaVuSans-30"/>
       <use xlink:href="#DejaVuSans-2e" x="63.623047"/>
       <use xlink:href="#DejaVuSans-30" x="95.410156"/>
       <use xlink:href="#DejaVuSans-32" x="159.033203"/>
       <use xlink:href="#DejaVuSans-30" x="222.65625"/>
      </g>
     </g>
    </g>
    <g id="ytick_6">
     <g id="line2d_89">
      <g>
       <use xlink:href="#m54fb6594bf" x="57.6" y="248.86951" style="stroke: #000000; stroke-width: 0.8"/>
      </g>
     </g>
     <g id="text_16">
      <!-- 0.025 -->
      <g transform="translate(21.971875 252.668728)scale(0.1 -0.1)">
       <use xlink:href="#DejaVuSans-30"/>
       <use xlink:href="#DejaVuSans-2e" x="63.623047"/>
       <use xlink:href="#DejaVuSans-30" x="95.410156"/>
       <use xlink:href="#DejaVuSans-32" x="159.033203"/>
       <use xlink:href="#DejaVuSans-35" x="222.65625"/>
      </g>
     </g>
    </g>
    <g id="ytick_7">
     <g id="line2d_90">
      <g>
       <use xlink:href="#m54fb6594bf" x="57.6" y="220.38002" style="stroke: #000000; stroke-width: 0.8"/>
      </g>
     </g>
     <g id="text_17">
      <!-- 0.030 -->
      <g transform="translate(21.971875 224.179239)scale(0.1 -0.1)">
       <use xlink:href="#DejaVuSans-30"/>
       <use xlink:href="#DejaVuSans-2e" x="63.623047"/>
       <use xlink:href="#DejaVuSans-30" x="95.410156"/>
       <use xlink:href="#DejaVuSans-33" x="159.033203"/>
       <use xlink:href="#DejaVuSans-30" x="222.65625"/>
      </g>
     </g>
    </g>
    <g id="ytick_8">
     <g id="line2d_91">
      <g>
       <use xlink:href="#m54fb6594bf" x="57.6" y="191.890531" style="stroke: #000000; stroke-width: 0.8"/>
      </g>
     </g>
     <g id="text_18">
      <!-- 0.035 -->
      <g transform="translate(21.971875 195.68975)scale(0.1 -0.1)">
       <use xlink:href="#DejaVuSans-30"/>
       <use xlink:href="#DejaVuSans-2e" x="63.623047"/>
       <use xlink:href="#DejaVuSans-30" x="95.410156"/>
       <use xlink:href="#DejaVuSans-33" x="159.033203"/>
       <use xlink:href="#DejaVuSans-35" x="222.65625"/>
      </g>
     </g>
    </g>
   </g>
   <g id="line2d_92">
    <path d="M 73.832727 192.122182 
L 82.157203 196.092366 
L 90.481678 199.94665 
L 98.806154 203.711308 
L 107.130629 207.455509 
L 115.455105 211.234806 
L 123.77958 215.121086 
L 132.104056 219.182448 
L 140.428531 223.456893 
L 148.753007 228.006225 
L 157.077483 232.820613 
L 165.401958 237.905254 
L 173.726434 243.219293 
L 182.050909 248.699659 
L 190.375385 254.290514 
L 198.69986 259.907061 
L 207.024336 265.461989 
L 215.348811 270.889734 
L 223.673287 276.11982 
L 231.997762 281.09421 
L 240.322238 285.765899 
L 248.646713 290.070142 
L 256.971189 293.931889 
L 265.295664 297.237934 
L 273.62014 299.835828 
L 281.944615 301.530633 
L 290.269091 302.085818 
L 298.593566 301.210691 
L 306.918042 298.519263 
L 315.242517 293.637785 
L 323.566993 286.302414 
L 331.891469 276.243973 
L 340.215944 263.585431 
L 348.54042 249.020589 
L 356.864895 233.664049 
L 365.189371 219.111175 
L 373.513846 207.061329 
L 381.838322 198.845411 
L 390.162797 194.976707 
L 398.487273 195.405806 
" clip-path="url(#p079f3cc565)" style="fill: none; stroke: #1f77b4; stroke-width: 1.5; stroke-linecap: square"/>
    <g clip-path="url(#p079f3cc565)">
     <use xlink:href="#m8b4ae0fdaa" x="73.832727" y="192.122182" style="fill: #1f77b4; stroke: #1f77b4"/>
     <use xlink:href="#m8b4ae0fdaa" x="82.157203" y="196.092366" style="fill: #1f77b4; stroke: #1f77b4"/>
     <use xlink:href="#m8b4ae0fdaa" x="90.481678" y="199.94665" style="fill: #1f77b4; stroke: #1f77b4"/>
     <use xlink:href="#m8b4ae0fdaa" x="98.806154" y="203.711308" style="fill: #1f77b4; stroke: #1f77b4"/>
     <use xlink:href="#m8b4ae0fdaa" x="107.130629" y="207.455509" style="fill: #1f77b4; stroke: #1f77b4"/>
     <use xlink:href="#m8b4ae0fdaa" x="115.455105" y="211.234806" style="fill: #1f77b4; stroke: #1f77b4"/>
     <use xlink:href="#m8b4ae0fdaa" x="123.77958" y="215.121086" style="fill: #1f77b4; stroke: #1f77b4"/>
     <use xlink:href="#m8b4ae0fdaa" x="132.104056" y="219.182448" style="fill: #1f77b4; stroke: #1f77b4"/>
     <use xlink:href="#m8b4ae0fdaa" x="140.428531" y="223.456893" style="fill: #1f77b4; stroke: #1f77b4"/>
     <use xlink:href="#m8b4ae0fdaa" x="148.753007" y="228.006225" style="fill: #1f77b4; stroke: #1f77b4"/>
     <use xlink:href="#m8b4ae0fdaa" x="157.077483" y="232.820613" style="fill: #1f77b4; stroke: #1f77b4"/>
     <use xlink:href="#m8b4ae0fdaa" x="165.401958" y="237.905254" style="fill: #1f77b4; stroke: #1f77b4"/>
     <use xlink:href="#m8b4ae0fdaa" x="173.726434" y="243.219293" style="fill: #1f77b4; stroke: #1f77b4"/>
     <use xlink:href="#m8b4ae0fdaa" x="182.050909" y="248.699659" style="fill: #1f77b4; stroke: #1f77b4"/>
     <use xlink:href="#m8b4ae0fdaa" x="190.375385" y="254.290514" style="fill: #1f77b4; stroke: #1f77b4"/>
     <use xlink:href="#m8b4ae0fdaa" x="198.69986" y="259.907061" style="fill: #1f77b4; stroke: #1f77b4"/>
     <use xlink:href="#m8b4ae0fdaa" x="207.024336" y="265.461989" style="fill: #1f77b4; stroke: #1f77b4"/>
     <use xlink:href="#m8b4ae0fdaa" x="215.348811" y="270.889734" style="fill: #1f77b4; stroke: #1f77b4"/>
     <use xlink:href="#m8b4ae0fdaa" x="223.673287" y="276.11982" style="fill: #1f77b4; stroke: #1f77b4"/>
     <use xlink:href="#m8b4ae0fdaa" x="231.997762" y="281.09421" style="fill: #1f77b4; stroke: #1f77b4"/>
     <use xlink:href="#m8b4ae0fdaa" x="240.322238" y="285.765899" style="fill: #1f77b4; stroke: #1f77b4"/>
     <use xlink:href="#m8b4ae0fdaa" x="248.646713" y="290.070142" style="fill: #1f77b4; stroke: #1f77b4"/>
     <use xlink:href="#m8b4ae0fdaa" x="256.971189" y="293.931889" style="fill: #1f77b4; stroke: #1f77b4"/>
     <use xlink:href="#m8b4ae0fdaa" x="265.295664" y="297.237934" style="fill: #1f77b4; stroke: #1f77b4"/>
     <use xlink:href="#m8b4ae0fdaa" x="273.62014" y="299.835828" style="fill: #1f77b4; stroke: #1f77b4"/>
     <use xlink:href="#m8b4ae0fdaa" x="281.944615" y="301.530633" style="fill: #1f77b4; stroke: #1f77b4"/>
     <use xlink:href="#m8b4ae0fdaa" x="290.269091" y="302.085818" style="fill: #1f77b4; stroke: #1f77b4"/>
     <use xlink:href="#m8b4ae0fdaa" x="298.593566" y="301.210691" style="fill: #1f77b4; stroke: #1f77b4"/>
     <use xlink:href="#m8b4ae0fdaa" x="306.918042" y="298.519263" style="fill: #1f77b4; stroke: #1f77b4"/>
     <use xlink:href="#m8b4ae0fdaa" x="315.242517" y="293.637785" style="fill: #1f77b4; stroke: #1f77b4"/>
     <use xlink:href="#m8b4ae0fdaa" x="323.566993" y="286.302414" style="fill: #1f77b4; stroke: #1f77b4"/>
     <use xlink:href="#m8b4ae0fdaa" x="331.891469" y="276.243973" style="fill: #1f77b4; stroke: #1f77b4"/>
     <use xlink:href="#m8b4ae0fdaa" x="340.215944" y="263.585431" style="fill: #1f77b4; stroke: #1f77b4"/>
     <use xlink:href="#m8b4ae0fdaa" x="348.54042" y="249.020589" style="fill: #1f77b4; stroke: #1f77b4"/>
     <use xlink:href="#m8b4ae0fdaa" x="356.864895" y="233.664049" style="fill: #1f77b4; stroke: #1f77b4"/>
     <use xlink:href="#m8b4ae0fdaa" x="365.189371" y="219.111175" style="fill: #1f77b4; stroke: #1f77b4"/>
     <use xlink:href="#m8b4ae0fdaa" x="373.513846" y="207.061329" style="fill: #1f77b4; stroke: #1f77b4"/>
     <use xlink:href="#m8b4ae0fdaa" x="381.838322" y="198.845411" style="fill: #1f77b4; stroke: #1f77b4"/>
     <use xlink:href="#m8b4ae0fdaa" x="390.162797" y="194.976707" style="fill: #1f77b4; stroke: #1f77b4"/>
     <use xlink:href="#m8b4ae0fdaa" x="398.487273" y="195.405806" style="fill: #1f77b4; stroke: #1f77b4"/>
    </g>
   </g>
   <g id="patch_8">
    <path d="M 57.6 307.584 
L 57.6 186.624 
" style="fill: none; stroke: #000000; stroke-width: 0.8; stroke-linejoin: miter; stroke-linecap: square"/>
   </g>
   <g id="patch_9">
    <path d="M 414.72 307.584 
L 414.72 186.624 
" style="fill: none; stroke: #000000; stroke-width: 0.8; stroke-linejoin: miter; stroke-linecap: square"/>
   </g>
   <g id="patch_10">
    <path d="M 57.6 307.584 
L 414.72 307.584 
" style="fill: none; stroke: #000000; stroke-width: 0.8; stroke-linejoin: miter; stroke-linecap: square"/>
   </g>
   <g id="patch_11">
    <path d="M 57.6 186.624 
L 414.72 186.624 
" style="fill: none; stroke: #000000; stroke-width: 0.8; stroke-linejoin: miter; stroke-linecap: square"/>
   </g>
  </g>
 </g>
 <defs>
  <clipPath id="p4de8f4c338">
   <rect x="57.6" y="41.472" width="357.12" height="120.96"/>
  </clipPath>
  <clipPath id="p079f3cc565">
   <rect x="57.6" y="186.624" width="357.12" height="120.96"/>
  </clipPath>
 </defs>
</svg>
