<?xml version="1.0" encoding="utf-8" standalone="no"?>
<!DOCTYPE svg PUBLIC "-//W3C//DTD SVG 1.1//EN"
  "http://www.w3.org/Graphics/SVG/1.1/DTD/svg11.dtd">
<!-- Created with matplotlib (https://matplotlib.org/) -->
<svg height="345.6pt" version="1.1" viewBox="0 0 460.8 345.6" width="460.8pt" xmlns="http://www.w3.org/2000/svg" xmlns:xlink="http://www.w3.org/1999/xlink">
 <metadata>
  <rdf:RDF xmlns:cc="http://creativecommons.org/ns#" xmlns:dc="http://purl.org/dc/elements/1.1/" xmlns:rdf="http://www.w3.org/1999/02/22-rdf-syntax-ns#">
   <cc:Work>
    <dc:type rdf:resource="http://purl.org/dc/dcmitype/StillImage"/>
    <dc:date>2022-01-31T20:03:40.687693</dc:date>
    <dc:format>image/svg+xml</dc:format>
    <dc:creator>
     <cc:Agent>
      <dc:title>Matplotlib v3.3.4, https://matplotlib.org/</dc:title>
     </cc:Agent>
    </dc:creator>
   </cc:Work>
  </rdf:RDF>
 </metadata>
 <defs>
  <style type="text/css">*{stroke-linecap:butt;stroke-linejoin:round;}</style>
 </defs>
 <g id="figure_1">
  <g id="patch_1">
   <path d="M 0 345.6 
L 460.8 345.6 
L 460.8 0 
L 0 0 
z
" style="fill:#ffffff;"/>
  </g>
  <g id="axes_1">
   <g id="patch_2">
    <path d="M 57.6 307.584 
L 414.72 307.584 
L 414.72 41.472 
L 57.6 41.472 
z
" style="fill:#ffffff;"/>
   </g>
   <g id="matplotlib.axis_1">
    <g id="xtick_1">
     <g id="line2d_1">
      <defs>
       <path d="M 0 0 
L 0 3.5 
" id="mfc257dce11" style="stroke:#000000;stroke-width:0.8;"/>
      </defs>
      <g>
       <use style="stroke:#000000;stroke-width:0.8;" x="73.832727" xlink:href="#mfc257dce11" y="307.584"/>
      </g>
     </g>
     <g id="text_1">
      <!-- $\mathdefault{10^{5}}$ -->
      <g transform="translate(65.032727 322.182437)scale(0.1 -0.1)">
       <defs>
        <path d="M 12.40625 8.296875 
L 28.515625 8.296875 
L 28.515625 63.921875 
L 10.984375 60.40625 
L 10.984375 69.390625 
L 28.421875 72.90625 
L 38.28125 72.90625 
L 38.28125 8.296875 
L 54.390625 8.296875 
L 54.390625 0 
L 12.40625 0 
z
" id="DejaVuSans-49"/>
        <path d="M 31.78125 66.40625 
Q 24.171875 66.40625 20.328125 58.90625 
Q 16.5 51.421875 16.5 36.375 
Q 16.5 21.390625 20.328125 13.890625 
Q 24.171875 6.390625 31.78125 6.390625 
Q 39.453125 6.390625 43.28125 13.890625 
Q 47.125 21.390625 47.125 36.375 
Q 47.125 51.421875 43.28125 58.90625 
Q 39.453125 66.40625 31.78125 66.40625 
z
M 31.78125 74.21875 
Q 44.046875 74.21875 50.515625 64.515625 
Q 56.984375 54.828125 56.984375 36.375 
Q 56.984375 17.96875 50.515625 8.265625 
Q 44.046875 -1.421875 31.78125 -1.421875 
Q 19.53125 -1.421875 13.0625 8.265625 
Q 6.59375 17.96875 6.59375 36.375 
Q 6.59375 54.828125 13.0625 64.515625 
Q 19.53125 74.21875 31.78125 74.21875 
z
" id="DejaVuSans-48"/>
        <path d="M 10.796875 72.90625 
L 49.515625 72.90625 
L 49.515625 64.59375 
L 19.828125 64.59375 
L 19.828125 46.734375 
Q 21.96875 47.46875 24.109375 47.828125 
Q 26.265625 48.1875 28.421875 48.1875 
Q 40.625 48.1875 47.75 41.5 
Q 54.890625 34.8125 54.890625 23.390625 
Q 54.890625 11.625 47.5625 5.09375 
Q 40.234375 -1.421875 26.90625 -1.421875 
Q 22.3125 -1.421875 17.546875 -0.640625 
Q 12.796875 0.140625 7.71875 1.703125 
L 7.71875 11.625 
Q 12.109375 9.234375 16.796875 8.0625 
Q 21.484375 6.890625 26.703125 6.890625 
Q 35.15625 6.890625 40.078125 11.328125 
Q 45.015625 15.765625 45.015625 23.390625 
Q 45.015625 31 40.078125 35.4375 
Q 35.15625 39.890625 26.703125 39.890625 
Q 22.75 39.890625 18.8125 39.015625 
Q 14.890625 38.140625 10.796875 36.28125 
z
" id="DejaVuSans-53"/>
       </defs>
       <use transform="translate(0 0.684375)" xlink:href="#DejaVuSans-49"/>
       <use transform="translate(63.623047 0.684375)" xlink:href="#DejaVuSans-48"/>
       <use transform="translate(128.203125 38.965625)scale(0.7)" xlink:href="#DejaVuSans-53"/>
      </g>
     </g>
    </g>
    <g id="xtick_2">
     <g id="line2d_2">
      <g>
       <use style="stroke:#000000;stroke-width:0.8;" x="138.763636" xlink:href="#mfc257dce11" y="307.584"/>
      </g>
     </g>
     <g id="text_2">
      <!-- $\mathdefault{10^{6}}$ -->
      <g transform="translate(129.963636 322.182437)scale(0.1 -0.1)">
       <defs>
        <path d="M 33.015625 40.375 
Q 26.375 40.375 22.484375 35.828125 
Q 18.609375 31.296875 18.609375 23.390625 
Q 18.609375 15.53125 22.484375 10.953125 
Q 26.375 6.390625 33.015625 6.390625 
Q 39.65625 6.390625 43.53125 10.953125 
Q 47.40625 15.53125 47.40625 23.390625 
Q 47.40625 31.296875 43.53125 35.828125 
Q 39.65625 40.375 33.015625 40.375 
z
M 52.59375 71.296875 
L 52.59375 62.3125 
Q 48.875 64.0625 45.09375 64.984375 
Q 41.3125 65.921875 37.59375 65.921875 
Q 27.828125 65.921875 22.671875 59.328125 
Q 17.53125 52.734375 16.796875 39.40625 
Q 19.671875 43.65625 24.015625 45.921875 
Q 28.375 48.1875 33.59375 48.1875 
Q 44.578125 48.1875 50.953125 41.515625 
Q 57.328125 34.859375 57.328125 23.390625 
Q 57.328125 12.15625 50.6875 5.359375 
Q 44.046875 -1.421875 33.015625 -1.421875 
Q 20.359375 -1.421875 13.671875 8.265625 
Q 6.984375 17.96875 6.984375 36.375 
Q 6.984375 53.65625 15.1875 63.9375 
Q 23.390625 74.21875 37.203125 74.21875 
Q 40.921875 74.21875 44.703125 73.484375 
Q 48.484375 72.75 52.59375 71.296875 
z
" id="DejaVuSans-54"/>
       </defs>
       <use transform="translate(0 0.765625)" xlink:href="#DejaVuSans-49"/>
       <use transform="translate(63.623047 0.765625)" xlink:href="#DejaVuSans-48"/>
       <use transform="translate(128.203125 39.046875)scale(0.7)" xlink:href="#DejaVuSans-54"/>
      </g>
     </g>
    </g>
    <g id="xtick_3">
     <g id="line2d_3">
      <g>
       <use style="stroke:#000000;stroke-width:0.8;" x="203.694545" xlink:href="#mfc257dce11" y="307.584"/>
      </g>
     </g>
     <g id="text_3">
      <!-- $\mathdefault{10^{7}}$ -->
      <g transform="translate(194.894545 322.182437)scale(0.1 -0.1)">
       <defs>
        <path d="M 8.203125 72.90625 
L 55.078125 72.90625 
L 55.078125 68.703125 
L 28.609375 0 
L 18.3125 0 
L 43.21875 64.59375 
L 8.203125 64.59375 
z
" id="DejaVuSans-55"/>
       </defs>
       <use transform="translate(0 0.684375)" xlink:href="#DejaVuSans-49"/>
       <use transform="translate(63.623047 0.684375)" xlink:href="#DejaVuSans-48"/>
       <use transform="translate(128.203125 38.965625)scale(0.7)" xlink:href="#DejaVuSans-55"/>
      </g>
     </g>
    </g>
    <g id="xtick_4">
     <g id="line2d_4">
      <g>
       <use style="stroke:#000000;stroke-width:0.8;" x="268.625455" xlink:href="#mfc257dce11" y="307.584"/>
      </g>
     </g>
     <g id="text_4">
      <!-- $\mathdefault{10^{8}}$ -->
      <g transform="translate(259.825455 322.182437)scale(0.1 -0.1)">
       <defs>
        <path d="M 31.78125 34.625 
Q 24.75 34.625 20.71875 30.859375 
Q 16.703125 27.09375 16.703125 20.515625 
Q 16.703125 13.921875 20.71875 10.15625 
Q 24.75 6.390625 31.78125 6.390625 
Q 38.8125 6.390625 42.859375 10.171875 
Q 46.921875 13.96875 46.921875 20.515625 
Q 46.921875 27.09375 42.890625 30.859375 
Q 38.875 34.625 31.78125 34.625 
z
M 21.921875 38.8125 
Q 15.578125 40.375 12.03125 44.71875 
Q 8.5 49.078125 8.5 55.328125 
Q 8.5 64.0625 14.71875 69.140625 
Q 20.953125 74.21875 31.78125 74.21875 
Q 42.671875 74.21875 48.875 69.140625 
Q 55.078125 64.0625 55.078125 55.328125 
Q 55.078125 49.078125 51.53125 44.71875 
Q 48 40.375 41.703125 38.8125 
Q 48.828125 37.15625 52.796875 32.3125 
Q 56.78125 27.484375 56.78125 20.515625 
Q 56.78125 9.90625 50.3125 4.234375 
Q 43.84375 -1.421875 31.78125 -1.421875 
Q 19.734375 -1.421875 13.25 4.234375 
Q 6.78125 9.90625 6.78125 20.515625 
Q 6.78125 27.484375 10.78125 32.3125 
Q 14.796875 37.15625 21.921875 38.8125 
z
M 18.3125 54.390625 
Q 18.3125 48.734375 21.84375 45.5625 
Q 25.390625 42.390625 31.78125 42.390625 
Q 38.140625 42.390625 41.71875 45.5625 
Q 45.3125 48.734375 45.3125 54.390625 
Q 45.3125 60.0625 41.71875 63.234375 
Q 38.140625 66.40625 31.78125 66.40625 
Q 25.390625 66.40625 21.84375 63.234375 
Q 18.3125 60.0625 18.3125 54.390625 
z
" id="DejaVuSans-56"/>
       </defs>
       <use transform="translate(0 0.765625)" xlink:href="#DejaVuSans-49"/>
       <use transform="translate(63.623047 0.765625)" xlink:href="#DejaVuSans-48"/>
       <use transform="translate(128.203125 39.046875)scale(0.7)" xlink:href="#DejaVuSans-56"/>
      </g>
     </g>
    </g>
    <g id="xtick_5">
     <g id="line2d_5">
      <g>
       <use style="stroke:#000000;stroke-width:0.8;" x="333.556364" xlink:href="#mfc257dce11" y="307.584"/>
      </g>
     </g>
     <g id="text_5">
      <!-- $\mathdefault{10^{9}}$ -->
      <g transform="translate(324.756364 322.182437)scale(0.1 -0.1)">
       <defs>
        <path d="M 10.984375 1.515625 
L 10.984375 10.5 
Q 14.703125 8.734375 18.5 7.8125 
Q 22.3125 6.890625 25.984375 6.890625 
Q 35.75 6.890625 40.890625 13.453125 
Q 46.046875 20.015625 46.78125 33.40625 
Q 43.953125 29.203125 39.59375 26.953125 
Q 35.25 24.703125 29.984375 24.703125 
Q 19.046875 24.703125 12.671875 31.3125 
Q 6.296875 37.9375 6.296875 49.421875 
Q 6.296875 60.640625 12.9375 67.421875 
Q 19.578125 74.21875 30.609375 74.21875 
Q 43.265625 74.21875 49.921875 64.515625 
Q 56.59375 54.828125 56.59375 36.375 
Q 56.59375 19.140625 48.40625 8.859375 
Q 40.234375 -1.421875 26.421875 -1.421875 
Q 22.703125 -1.421875 18.890625 -0.6875 
Q 15.09375 0.046875 10.984375 1.515625 
z
M 30.609375 32.421875 
Q 37.25 32.421875 41.125 36.953125 
Q 45.015625 41.5 45.015625 49.421875 
Q 45.015625 57.28125 41.125 61.84375 
Q 37.25 66.40625 30.609375 66.40625 
Q 23.96875 66.40625 20.09375 61.84375 
Q 16.21875 57.28125 16.21875 49.421875 
Q 16.21875 41.5 20.09375 36.953125 
Q 23.96875 32.421875 30.609375 32.421875 
z
" id="DejaVuSans-57"/>
       </defs>
       <use transform="translate(0 0.765625)" xlink:href="#DejaVuSans-49"/>
       <use transform="translate(63.623047 0.765625)" xlink:href="#DejaVuSans-48"/>
       <use transform="translate(128.203125 39.046875)scale(0.7)" xlink:href="#DejaVuSans-57"/>
      </g>
     </g>
    </g>
    <g id="xtick_6">
     <g id="line2d_6">
      <g>
       <use style="stroke:#000000;stroke-width:0.8;" x="398.487273" xlink:href="#mfc257dce11" y="307.584"/>
      </g>
     </g>
     <g id="text_6">
      <!-- $\mathdefault{10^{10}}$ -->
      <g transform="translate(387.437273 322.182437)scale(0.1 -0.1)">
       <use transform="translate(0 0.765625)" xlink:href="#DejaVuSans-49"/>
       <use transform="translate(63.623047 0.765625)" xlink:href="#DejaVuSans-48"/>
       <use transform="translate(128.203125 39.046875)scale(0.7)" xlink:href="#DejaVuSans-49"/>
       <use transform="translate(172.739258 39.046875)scale(0.7)" xlink:href="#DejaVuSans-48"/>
      </g>
     </g>
    </g>
    <g id="xtick_7">
     <g id="line2d_7">
      <defs>
       <path d="M 0 0 
L 0 2 
" id="mae6d8246a4" style="stroke:#000000;stroke-width:0.6;"/>
      </defs>
      <g>
       <use style="stroke:#000000;stroke-width:0.6;" x="59.427886" xlink:href="#mae6d8246a4" y="307.584"/>
      </g>
     </g>
    </g>
    <g id="xtick_8">
     <g id="line2d_8">
      <g>
       <use style="stroke:#000000;stroke-width:0.6;" x="63.774802" xlink:href="#mae6d8246a4" y="307.584"/>
      </g>
     </g>
    </g>
    <g id="xtick_9">
     <g id="line2d_9">
      <g>
       <use style="stroke:#000000;stroke-width:0.6;" x="67.540272" xlink:href="#mae6d8246a4" y="307.584"/>
      </g>
     </g>
    </g>
    <g id="xtick_10">
     <g id="line2d_10">
      <g>
       <use style="stroke:#000000;stroke-width:0.6;" x="70.861652" xlink:href="#mae6d8246a4" y="307.584"/>
      </g>
     </g>
    </g>
    <g id="xtick_11">
     <g id="line2d_11">
      <g>
       <use style="stroke:#000000;stroke-width:0.6;" x="93.378879" xlink:href="#mae6d8246a4" y="307.584"/>
      </g>
     </g>
    </g>
    <g id="xtick_12">
     <g id="line2d_12">
      <g>
       <use style="stroke:#000000;stroke-width:0.6;" x="104.812644" xlink:href="#mae6d8246a4" y="307.584"/>
      </g>
     </g>
    </g>
    <g id="xtick_13">
     <g id="line2d_13">
      <g>
       <use style="stroke:#000000;stroke-width:0.6;" x="112.92503" xlink:href="#mae6d8246a4" y="307.584"/>
      </g>
     </g>
    </g>
    <g id="xtick_14">
     <g id="line2d_14">
      <g>
       <use style="stroke:#000000;stroke-width:0.6;" x="119.217485" xlink:href="#mae6d8246a4" y="307.584"/>
      </g>
     </g>
    </g>
    <g id="xtick_15">
     <g id="line2d_15">
      <g>
       <use style="stroke:#000000;stroke-width:0.6;" x="124.358795" xlink:href="#mae6d8246a4" y="307.584"/>
      </g>
     </g>
    </g>
    <g id="xtick_16">
     <g id="line2d_16">
      <g>
       <use style="stroke:#000000;stroke-width:0.6;" x="128.705711" xlink:href="#mae6d8246a4" y="307.584"/>
      </g>
     </g>
    </g>
    <g id="xtick_17">
     <g id="line2d_17">
      <g>
       <use style="stroke:#000000;stroke-width:0.6;" x="132.471181" xlink:href="#mae6d8246a4" y="307.584"/>
      </g>
     </g>
    </g>
    <g id="xtick_18">
     <g id="line2d_18">
      <g>
       <use style="stroke:#000000;stroke-width:0.6;" x="135.792561" xlink:href="#mae6d8246a4" y="307.584"/>
      </g>
     </g>
    </g>
    <g id="xtick_19">
     <g id="line2d_19">
      <g>
       <use style="stroke:#000000;stroke-width:0.6;" x="158.309788" xlink:href="#mae6d8246a4" y="307.584"/>
      </g>
     </g>
    </g>
    <g id="xtick_20">
     <g id="line2d_20">
      <g>
       <use style="stroke:#000000;stroke-width:0.6;" x="169.743553" xlink:href="#mae6d8246a4" y="307.584"/>
      </g>
     </g>
    </g>
    <g id="xtick_21">
     <g id="line2d_21">
      <g>
       <use style="stroke:#000000;stroke-width:0.6;" x="177.855939" xlink:href="#mae6d8246a4" y="307.584"/>
      </g>
     </g>
    </g>
    <g id="xtick_22">
     <g id="line2d_22">
      <g>
       <use style="stroke:#000000;stroke-width:0.6;" x="184.148394" xlink:href="#mae6d8246a4" y="307.584"/>
      </g>
     </g>
    </g>
    <g id="xtick_23">
     <g id="line2d_23">
      <g>
       <use style="stroke:#000000;stroke-width:0.6;" x="189.289704" xlink:href="#mae6d8246a4" y="307.584"/>
      </g>
     </g>
    </g>
    <g id="xtick_24">
     <g id="line2d_24">
      <g>
       <use style="stroke:#000000;stroke-width:0.6;" x="193.63662" xlink:href="#mae6d8246a4" y="307.584"/>
      </g>
     </g>
    </g>
    <g id="xtick_25">
     <g id="line2d_25">
      <g>
       <use style="stroke:#000000;stroke-width:0.6;" x="197.40209" xlink:href="#mae6d8246a4" y="307.584"/>
      </g>
     </g>
    </g>
    <g id="xtick_26">
     <g id="line2d_26">
      <g>
       <use style="stroke:#000000;stroke-width:0.6;" x="200.72347" xlink:href="#mae6d8246a4" y="307.584"/>
      </g>
     </g>
    </g>
    <g id="xtick_27">
     <g id="line2d_27">
      <g>
       <use style="stroke:#000000;stroke-width:0.6;" x="223.240697" xlink:href="#mae6d8246a4" y="307.584"/>
      </g>
     </g>
    </g>
    <g id="xtick_28">
     <g id="line2d_28">
      <g>
       <use style="stroke:#000000;stroke-width:0.6;" x="234.674462" xlink:href="#mae6d8246a4" y="307.584"/>
      </g>
     </g>
    </g>
    <g id="xtick_29">
     <g id="line2d_29">
      <g>
       <use style="stroke:#000000;stroke-width:0.6;" x="242.786848" xlink:href="#mae6d8246a4" y="307.584"/>
      </g>
     </g>
    </g>
    <g id="xtick_30">
     <g id="line2d_30">
      <g>
       <use style="stroke:#000000;stroke-width:0.6;" x="249.079303" xlink:href="#mae6d8246a4" y="307.584"/>
      </g>
     </g>
    </g>
    <g id="xtick_31">
     <g id="line2d_31">
      <g>
       <use style="stroke:#000000;stroke-width:0.6;" x="254.220614" xlink:href="#mae6d8246a4" y="307.584"/>
      </g>
     </g>
    </g>
    <g id="xtick_32">
     <g id="line2d_32">
      <g>
       <use style="stroke:#000000;stroke-width:0.6;" x="258.567529" xlink:href="#mae6d8246a4" y="307.584"/>
      </g>
     </g>
    </g>
    <g id="xtick_33">
     <g id="line2d_33">
      <g>
       <use style="stroke:#000000;stroke-width:0.6;" x="262.332999" xlink:href="#mae6d8246a4" y="307.584"/>
      </g>
     </g>
    </g>
    <g id="xtick_34">
     <g id="line2d_34">
      <g>
       <use style="stroke:#000000;stroke-width:0.6;" x="265.654379" xlink:href="#mae6d8246a4" y="307.584"/>
      </g>
     </g>
    </g>
    <g id="xtick_35">
     <g id="line2d_35">
      <g>
       <use style="stroke:#000000;stroke-width:0.6;" x="288.171606" xlink:href="#mae6d8246a4" y="307.584"/>
      </g>
     </g>
    </g>
    <g id="xtick_36">
     <g id="line2d_36">
      <g>
       <use style="stroke:#000000;stroke-width:0.6;" x="299.605371" xlink:href="#mae6d8246a4" y="307.584"/>
      </g>
     </g>
    </g>
    <g id="xtick_37">
     <g id="line2d_37">
      <g>
       <use style="stroke:#000000;stroke-width:0.6;" x="307.717757" xlink:href="#mae6d8246a4" y="307.584"/>
      </g>
     </g>
    </g>
    <g id="xtick_38">
     <g id="line2d_38">
      <g>
       <use style="stroke:#000000;stroke-width:0.6;" x="314.010212" xlink:href="#mae6d8246a4" y="307.584"/>
      </g>
     </g>
    </g>
    <g id="xtick_39">
     <g id="line2d_39">
      <g>
       <use style="stroke:#000000;stroke-width:0.6;" x="319.151523" xlink:href="#mae6d8246a4" y="307.584"/>
      </g>
     </g>
    </g>
    <g id="xtick_40">
     <g id="line2d_40">
      <g>
       <use style="stroke:#000000;stroke-width:0.6;" x="323.498439" xlink:href="#mae6d8246a4" y="307.584"/>
      </g>
     </g>
    </g>
    <g id="xtick_41">
     <g id="line2d_41">
      <g>
       <use style="stroke:#000000;stroke-width:0.6;" x="327.263908" xlink:href="#mae6d8246a4" y="307.584"/>
      </g>
     </g>
    </g>
    <g id="xtick_42">
     <g id="line2d_42">
      <g>
       <use style="stroke:#000000;stroke-width:0.6;" x="330.585288" xlink:href="#mae6d8246a4" y="307.584"/>
      </g>
     </g>
    </g>
    <g id="xtick_43">
     <g id="line2d_43">
      <g>
       <use style="stroke:#000000;stroke-width:0.6;" x="353.102515" xlink:href="#mae6d8246a4" y="307.584"/>
      </g>
     </g>
    </g>
    <g id="xtick_44">
     <g id="line2d_44">
      <g>
       <use style="stroke:#000000;stroke-width:0.6;" x="364.53628" xlink:href="#mae6d8246a4" y="307.584"/>
      </g>
     </g>
    </g>
    <g id="xtick_45">
     <g id="line2d_45">
      <g>
       <use style="stroke:#000000;stroke-width:0.6;" x="372.648666" xlink:href="#mae6d8246a4" y="307.584"/>
      </g>
     </g>
    </g>
    <g id="xtick_46">
     <g id="line2d_46">
      <g>
       <use style="stroke:#000000;stroke-width:0.6;" x="378.941121" xlink:href="#mae6d8246a4" y="307.584"/>
      </g>
     </g>
    </g>
    <g id="xtick_47">
     <g id="line2d_47">
      <g>
       <use style="stroke:#000000;stroke-width:0.6;" x="384.082432" xlink:href="#mae6d8246a4" y="307.584"/>
      </g>
     </g>
    </g>
    <g id="xtick_48">
     <g id="line2d_48">
      <g>
       <use style="stroke:#000000;stroke-width:0.6;" x="388.429348" xlink:href="#mae6d8246a4" y="307.584"/>
      </g>
     </g>
    </g>
    <g id="xtick_49">
     <g id="line2d_49">
      <g>
       <use style="stroke:#000000;stroke-width:0.6;" x="392.194817" xlink:href="#mae6d8246a4" y="307.584"/>
      </g>
     </g>
    </g>
    <g id="xtick_50">
     <g id="line2d_50">
      <g>
       <use style="stroke:#000000;stroke-width:0.6;" x="395.516197" xlink:href="#mae6d8246a4" y="307.584"/>
      </g>
     </g>
    </g>
   </g>
   <g id="matplotlib.axis_2">
    <g id="ytick_1">
     <g id="line2d_51">
      <defs>
       <path d="M 0 0 
L -3.5 0 
" id="m8f2022258f" style="stroke:#000000;stroke-width:0.8;"/>
      </defs>
      <g>
       <use style="stroke:#000000;stroke-width:0.8;" x="57.6" xlink:href="#m8f2022258f" y="295.489758"/>
      </g>
     </g>
     <g id="text_7">
      <!-- 0.00 -->
      <g transform="translate(28.334375 299.288977)scale(0.1 -0.1)">
       <defs>
        <path d="M 10.6875 12.40625 
L 21 12.40625 
L 21 0 
L 10.6875 0 
z
" id="DejaVuSans-46"/>
       </defs>
       <use xlink:href="#DejaVuSans-48"/>
       <use x="63.623047" xlink:href="#DejaVuSans-46"/>
       <use x="95.410156" xlink:href="#DejaVuSans-48"/>
       <use x="159.033203" xlink:href="#DejaVuSans-48"/>
      </g>
     </g>
    </g>
    <g id="ytick_2">
     <g id="line2d_52">
      <g>
       <use style="stroke:#000000;stroke-width:0.8;" x="57.6" xlink:href="#m8f2022258f" y="248.234125"/>
      </g>
     </g>
     <g id="text_8">
      <!-- 0.02 -->
      <g transform="translate(28.334375 252.033344)scale(0.1 -0.1)">
       <defs>
        <path d="M 19.1875 8.296875 
L 53.609375 8.296875 
L 53.609375 0 
L 7.328125 0 
L 7.328125 8.296875 
Q 12.9375 14.109375 22.625 23.890625 
Q 32.328125 33.6875 34.8125 36.53125 
Q 39.546875 41.84375 41.421875 45.53125 
Q 43.3125 49.21875 43.3125 52.78125 
Q 43.3125 58.59375 39.234375 62.25 
Q 35.15625 65.921875 28.609375 65.921875 
Q 23.96875 65.921875 18.8125 64.3125 
Q 13.671875 62.703125 7.8125 59.421875 
L 7.8125 69.390625 
Q 13.765625 71.78125 18.9375 73 
Q 24.125 74.21875 28.421875 74.21875 
Q 39.75 74.21875 46.484375 68.546875 
Q 53.21875 62.890625 53.21875 53.421875 
Q 53.21875 48.921875 51.53125 44.890625 
Q 49.859375 40.875 45.40625 35.40625 
Q 44.1875 33.984375 37.640625 27.21875 
Q 31.109375 20.453125 19.1875 8.296875 
z
" id="DejaVuSans-50"/>
       </defs>
       <use xlink:href="#DejaVuSans-48"/>
       <use x="63.623047" xlink:href="#DejaVuSans-46"/>
       <use x="95.410156" xlink:href="#DejaVuSans-48"/>
       <use x="159.033203" xlink:href="#DejaVuSans-50"/>
      </g>
     </g>
    </g>
    <g id="ytick_3">
     <g id="line2d_53">
      <g>
       <use style="stroke:#000000;stroke-width:0.8;" x="57.6" xlink:href="#m8f2022258f" y="200.978493"/>
      </g>
     </g>
     <g id="text_9">
      <!-- 0.04 -->
      <g transform="translate(28.334375 204.777712)scale(0.1 -0.1)">
       <defs>
        <path d="M 37.796875 64.3125 
L 12.890625 25.390625 
L 37.796875 25.390625 
z
M 35.203125 72.90625 
L 47.609375 72.90625 
L 47.609375 25.390625 
L 58.015625 25.390625 
L 58.015625 17.1875 
L 47.609375 17.1875 
L 47.609375 0 
L 37.796875 0 
L 37.796875 17.1875 
L 4.890625 17.1875 
L 4.890625 26.703125 
z
" id="DejaVuSans-52"/>
       </defs>
       <use xlink:href="#DejaVuSans-48"/>
       <use x="63.623047" xlink:href="#DejaVuSans-46"/>
       <use x="95.410156" xlink:href="#DejaVuSans-48"/>
       <use x="159.033203" xlink:href="#DejaVuSans-52"/>
      </g>
     </g>
    </g>
    <g id="ytick_4">
     <g id="line2d_54">
      <g>
       <use style="stroke:#000000;stroke-width:0.8;" x="57.6" xlink:href="#m8f2022258f" y="153.72286"/>
      </g>
     </g>
     <g id="text_10">
      <!-- 0.06 -->
      <g transform="translate(28.334375 157.522079)scale(0.1 -0.1)">
       <use xlink:href="#DejaVuSans-48"/>
       <use x="63.623047" xlink:href="#DejaVuSans-46"/>
       <use x="95.410156" xlink:href="#DejaVuSans-48"/>
       <use x="159.033203" xlink:href="#DejaVuSans-54"/>
      </g>
     </g>
    </g>
    <g id="ytick_5">
     <g id="line2d_55">
      <g>
       <use style="stroke:#000000;stroke-width:0.8;" x="57.6" xlink:href="#m8f2022258f" y="106.467228"/>
      </g>
     </g>
     <g id="text_11">
      <!-- 0.08 -->
      <g transform="translate(28.334375 110.266447)scale(0.1 -0.1)">
       <use xlink:href="#DejaVuSans-48"/>
       <use x="63.623047" xlink:href="#DejaVuSans-46"/>
       <use x="95.410156" xlink:href="#DejaVuSans-48"/>
       <use x="159.033203" xlink:href="#DejaVuSans-56"/>
      </g>
     </g>
    </g>
    <g id="ytick_6">
     <g id="line2d_56">
      <g>
       <use style="stroke:#000000;stroke-width:0.8;" x="57.6" xlink:href="#m8f2022258f" y="59.211595"/>
      </g>
     </g>
     <g id="text_12">
      <!-- 0.10 -->
      <g transform="translate(28.334375 63.010814)scale(0.1 -0.1)">
       <use xlink:href="#DejaVuSans-48"/>
       <use x="63.623047" xlink:href="#DejaVuSans-46"/>
       <use x="95.410156" xlink:href="#DejaVuSans-49"/>
       <use x="159.033203" xlink:href="#DejaVuSans-48"/>
      </g>
     </g>
    </g>
   </g>
   <g id="line2d_57">
    <path clip-path="url(#p0831f47cbb)" d="M 73.832727 295.370515 
L 78.985974 295.367758 
L 84.139221 295.364382 
L 89.292468 295.360265 
L 94.445714 295.355272 
L 99.598961 295.349264 
L 104.752208 295.342042 
L 109.905455 295.333368 
L 115.058701 295.32296 
L 120.211948 295.31045 
L 125.365195 295.295372 
L 130.518442 295.277142 
L 135.671688 295.254994 
L 140.824935 295.227982 
L 145.978182 295.19483 
L 151.131429 295.153885 
L 156.284675 295.102991 
L 161.437922 295.039232 
L 166.591169 294.958617 
L 171.744416 294.855681 
L 176.897662 294.722603 
L 182.050909 294.548113 
L 187.204156 294.31585 
L 192.357403 294.002083 
L 197.510649 293.571563 
L 202.663896 292.972643 
L 207.817143 292.128273 
L 212.97039 290.921852 
L 218.123636 289.171976 
L 223.276883 286.582576 
L 228.43013 282.644881 
L 233.583377 276.487533 
L 238.736623 266.652944 
L 243.88987 250.949366 
L 249.043117 226.784179 
L 254.196364 192.639641 
L 259.34961 150.779177 
L 264.502857 109.112847 
L 269.656104 77.969561 
L 274.809351 62.306382 
L 279.962597 58.515238 
L 285.115844 64.507128 
L 290.269091 80.748034 
L 295.422338 108.509644 
L 300.575584 146.750611 
L 305.728831 188.268884 
L 310.882078 226.424666 
L 316.035325 256.60315 
L 321.188571 276.52009 
L 326.341818 287.352993 
L 331.495065 292.302678 
L 336.648312 294.277787 
L 341.801558 295.002863 
L 346.954805 295.261057 
L 352.108052 295.34608 
L 357.261299 295.334107 
L 362.414545 294.834773 
L 367.567792 295.486551 
L 372.721039 295.486718 
L 377.874286 295.484941 
L 383.027532 294.987558 
L 388.180779 295.48797 
L 393.334026 295.4806 
L 398.487273 295.487711 
" style="fill:none;stroke:#1f77b4;stroke-linecap:square;stroke-width:1.5;"/>
   </g>
   <g id="line2d_58">
    <path clip-path="url(#p0831f47cbb)" d="M 73.832727 294.454545 
L 78.985974 294.439374 
L 84.139221 294.42201 
L 89.292468 294.402141 
L 94.445714 294.37925 
L 99.598961 294.352906 
L 104.752208 294.322518 
L 109.905455 294.28729 
L 115.058701 294.246314 
L 120.211948 294.198715 
L 125.365195 294.142956 
L 130.518442 294.077459 
L 135.671688 294.000353 
L 140.824935 293.908925 
L 145.978182 293.800035 
L 151.131429 293.669745 
L 156.284675 293.512835 
L 161.437922 293.322627 
L 166.591169 293.090388 
L 171.744416 292.804796 
L 176.897662 292.450744 
L 182.050909 292.007639 
L 187.204156 291.446701 
L 192.357403 290.728003 
L 197.510649 289.791608 
L 202.663896 288.549364 
L 207.817143 286.864261 
L 212.97039 284.523501 
L 218.123636 281.193083 
L 223.276883 276.359755 
L 228.43013 269.26279 
L 233.583377 258.874087 
L 238.736623 244.006345 
L 243.88987 223.762608 
L 249.043117 198.351452 
L 254.196364 170.194009 
L 259.34961 144.110811 
L 264.502857 125.504703 
L 269.656104 116.167819 
L 274.809351 112.480829 
L 279.962597 109.796889 
L 285.115844 109.60085 
L 290.269091 117.619349 
L 295.422338 134.604219 
L 300.575584 156.368742 
L 305.728831 181.374817 
L 310.882078 210.631225 
L 316.035325 240.996025 
L 321.188571 265.776049 
L 326.341818 281.503817 
L 331.495065 289.568195 
L 336.648312 293.086152 
L 341.801558 294.474075 
L 346.954805 294.995868 
L 352.108052 295.173571 
L 357.261299 295.146736 
L 362.414545 294.122607 
L 367.567792 295.483416 
L 372.721039 295.483755 
L 377.874286 295.479555 
L 383.027532 294.369245 
L 388.180779 295.486781 
L 393.334026 295.469031 
L 398.487273 295.486614 
" style="fill:none;stroke:#ff7f0e;stroke-linecap:square;stroke-width:1.5;"/>
   </g>
   <g id="line2d_59">
    <path clip-path="url(#p0831f47cbb)" d="M 73.832727 294.628796 
L 78.985974 294.618737 
L 84.139221 294.607397 
L 89.292468 294.59444 
L 94.445714 294.579553 
L 99.598961 294.56237 
L 104.752208 294.542582 
L 109.905455 294.519567 
L 115.058701 294.492855 
L 120.211948 294.461988 
L 125.365195 294.425741 
L 130.518442 294.383022 
L 135.671688 294.332588 
L 140.824935 294.272909 
L 145.978182 294.201104 
L 151.131429 294.114687 
L 156.284675 294.00957 
L 161.437922 293.879977 
L 166.591169 293.71925 
L 171.744416 293.516944 
L 176.897662 293.257866 
L 182.050909 292.922291 
L 187.204156 292.478727 
L 192.357403 291.881033 
L 197.510649 291.059792 
L 202.663896 289.910653 
L 207.817143 288.282447 
L 212.97039 285.964439 
L 218.123636 282.652381 
L 223.276883 277.874556 
L 228.43013 270.912151 
L 233.583377 260.76289 
L 238.736623 246.219712 
L 243.88987 226.275491 
L 249.043117 200.9339 
L 254.196364 172.331581 
L 259.34961 145.145648 
L 264.502857 124.682504 
L 269.656104 113.041075 
L 274.809351 107.678673 
L 279.962597 106.031358 
L 285.115844 111.03025 
L 290.269091 126.62992 
L 295.422338 148.072967 
L 300.575584 166.5019 
L 305.728831 181.467242 
L 310.882078 200.783031 
L 316.035325 227.15965 
L 321.188571 253.920916 
L 326.341818 273.820963 
L 331.495065 285.408874 
L 336.648312 291.029581 
L 341.801558 293.459315 
L 346.954805 294.442809 
L 352.108052 294.794697 
L 357.261299 294.733655 
L 362.414545 292.725025 
L 367.567792 295.47412 
L 372.721039 295.478128 
L 377.874286 295.468093 
L 383.027532 292.989985 
L 388.180779 295.486682 
L 393.334026 295.435323 
L 398.487273 295.486506 
" style="fill:none;stroke:#2ca02c;stroke-linecap:square;stroke-width:1.5;"/>
   </g>
   <g id="line2d_60">
    <path clip-path="url(#p0831f47cbb)" d="M 73.832727 295.363187 
L 78.985974 295.359096 
L 84.139221 295.35414 
L 89.292468 295.348173 
L 94.445714 295.340984 
L 99.598961 295.332369 
L 104.752208 295.322006 
L 109.905455 295.309565 
L 115.058701 295.294573 
L 120.211948 295.276449 
L 125.365195 295.254439 
L 130.518442 295.227607 
L 135.671688 295.19468 
L 140.824935 295.154046 
L 145.978182 295.103571 
L 151.131429 295.040355 
L 156.284675 294.96043 
L 161.437922 294.858524 
L 166.591169 294.726808 
L 171.744416 294.554321 
L 176.897662 294.324874 
L 182.050909 294.015129 
L 187.204156 293.590415 
L 192.357403 292.999593 
L 197.510649 292.167045 
L 202.663896 290.97803 
L 207.817143 289.253816 
L 212.97039 286.702697 
L 218.123636 282.827003 
L 223.276883 276.769088 
L 228.43013 267.07697 
L 233.583377 251.552044 
L 238.736623 227.527296 
L 243.88987 193.291824 
L 249.043117 150.896644 
L 254.196364 108.237476 
L 259.34961 75.926738 
L 264.502857 59.387485 
L 269.656104 55.036575 
L 274.809351 60.780688 
L 279.962597 77.302509 
L 285.115844 106.188408 
L 290.269091 146.203011 
L 295.422338 189.571708 
L 300.575584 229.232844 
L 305.728831 259.974539 
L 310.882078 279.42433 
L 316.035325 289.300929 
L 321.188571 293.39595 
L 326.341818 294.830963 
L 331.495065 295.28179 
L 336.648312 295.418411 
L 341.801558 295.46087 
L 346.954805 295.474999 
L 352.108052 295.47965 
L 357.261299 295.479022 
L 362.414545 295.451245 
L 367.567792 295.487979 
L 372.721039 295.487985 
L 377.874286 295.488 
L 383.027532 295.459378 
L 388.180779 295.485786 
L 393.334026 295.487652 
L 398.487273 295.478162 
" style="fill:none;stroke:#d62728;stroke-linecap:square;stroke-width:1.5;"/>
   </g>
   <g id="line2d_61">
    <path clip-path="url(#p0831f47cbb)" d="M 73.832727 294.408705 
L 78.985974 294.388749 
L 84.139221 294.365932 
L 89.292468 294.339631 
L 94.445714 294.309136 
L 99.598961 294.273968 
L 104.752208 294.233109 
L 109.905455 294.185473 
L 115.058701 294.129815 
L 120.211948 294.064513 
L 125.365195 293.987544 
L 130.518442 293.89634 
L 135.671688 293.787851 
L 140.824935 293.657893 
L 145.978182 293.501527 
L 151.131429 293.31206 
L 156.284675 293.080991 
L 161.437922 292.796985 
L 166.591169 292.444913 
L 171.744416 292.004676 
L 176.897662 291.447863 
L 182.050909 290.734842 
L 187.204156 289.807446 
L 192.357403 288.578081 
L 197.510649 286.913352 
L 202.663896 284.603807 
L 207.817143 281.322337 
L 212.97039 276.559124 
L 218.123636 269.560185 
L 223.276883 259.291698 
L 228.43013 244.537989 
L 233.583377 224.332803 
L 238.736623 198.793011 
L 243.88987 170.212648 
L 249.043117 143.473859 
L 254.196364 124.117485 
L 259.34961 114.229182 
L 264.502857 110.111905 
L 269.656104 106.994838 
L 274.809351 106.372287 
L 279.962597 114.326308 
L 285.115844 131.539217 
L 290.269091 153.845757 
L 295.422338 180.227501 
L 300.575584 211.812273 
L 305.728831 244.199158 
L 310.882078 269.503535 
L 316.035325 284.472156 
L 321.188571 291.443087 
L 326.341818 294.126024 
L 331.495065 295.036516 
L 336.648312 295.32976 
L 341.801558 295.424698 
L 346.954805 295.456935 
L 352.108052 295.467582 
L 357.261299 295.465991 
L 362.414545 295.40136 
L 367.567792 295.486716 
L 372.721039 295.486775 
L 377.874286 295.486833 
L 383.027532 295.417463 
L 388.180779 295.483933 
L 393.334026 295.485971 
L 398.487273 295.472774 
" style="fill:none;stroke:#9467bd;stroke-linecap:square;stroke-width:1.5;"/>
   </g>
   <g id="line2d_62">
    <path clip-path="url(#p0831f47cbb)" d="M 73.832727 294.597071 
L 78.985974 294.584095 
L 84.139221 294.569392 
L 89.292468 294.552126 
L 94.445714 294.532573 
L 99.598961 294.509584 
L 104.752208 294.482858 
L 109.905455 294.452049 
L 115.058701 294.416012 
L 120.211948 294.373358 
L 125.365195 294.323108 
L 130.518442 294.263749 
L 135.671688 294.192444 
L 140.824935 294.106363 
L 145.978182 294.002014 
L 151.131429 293.873635 
L 156.284675 293.713666 
L 161.437922 293.513451 
L 166.591169 293.257125 
L 171.744416 292.925092 
L 176.897662 292.486979 
L 182.050909 291.897223 
L 187.204156 291.087909 
L 192.357403 289.956297 
L 197.510649 288.352497 
L 202.663896 286.067793 
L 207.817143 282.801676 
L 212.97039 278.087809 
L 218.123636 271.214819 
L 223.276883 261.180182 
L 228.43013 246.735949 
L 233.583377 226.831315 
L 238.736623 201.364653 
L 243.88987 172.378668 
L 249.043117 144.506104 
L 254.196364 123.299545 
L 259.34961 111.105094 
L 264.502857 105.308735 
L 269.656104 103.290483 
L 274.809351 108.069581 
L 279.962597 123.680711 
L 285.115844 144.929743 
L 290.269091 162.759688 
L 295.422338 177.95717 
L 300.575584 199.543824 
L 305.728831 229.146301 
L 310.882078 257.813273 
L 316.035325 277.702862 
L 321.188571 288.256039 
L 326.341818 292.806547 
L 331.495065 294.517964 
L 336.648312 295.12164 
L 341.801558 295.332654 
L 346.954805 295.408369 
L 352.108052 295.434136 
L 357.261299 295.429845 
L 362.414545 295.273955 
L 367.567792 295.486979 
L 372.721039 295.487038 
L 377.874286 295.485623 
L 383.027532 295.298191 
L 388.180779 295.48659 
L 393.334026 295.483564 
L 398.487273 295.457089 
" style="fill:none;stroke:#8c564b;stroke-linecap:square;stroke-width:1.5;"/>
   </g>
   <g id="line2d_63">
    <path clip-path="url(#p0831f47cbb)" d="M 73.832727 295.357905 
L 78.985974 295.352819 
L 84.139221 295.346679 
L 89.292468 295.339308 
L 94.445714 295.330463 
L 99.598961 295.319841 
L 104.752208 295.307063 
L 109.905455 295.29169 
L 115.058701 295.273054 
L 120.211948 295.250425 
L 125.365195 295.222832 
L 130.518442 295.188954 
L 135.671688 295.147091 
L 140.824935 295.095022 
L 145.978182 295.02974 
L 151.131429 294.947186 
L 156.284675 294.841637 
L 161.437922 294.705057 
L 166.591169 294.525862 
L 171.744416 294.287087 
L 176.897662 293.963815 
L 182.050909 293.519769 
L 187.204156 292.90085 
L 192.357403 292.026732 
L 197.510649 290.775587 
L 202.663896 288.95707 
L 207.817143 286.256577 
L 212.97039 282.134962 
L 218.123636 275.662268 
L 223.276883 265.284057 
L 228.43013 248.67018 
L 233.583377 223.133625 
L 238.736623 187.258452 
L 243.88987 143.866819 
L 249.043117 101.683702 
L 254.196364 71.280015 
L 259.34961 56.734944 
L 264.502857 53.568 
L 269.656104 61.077443 
L 274.809351 79.657398 
L 279.962597 111.316902 
L 285.115844 153.251253 
L 290.269091 197.222241 
L 295.422338 236.298002 
L 300.575584 265.326407 
L 305.728831 282.661263 
L 310.882078 290.887588 
L 316.035325 294.047643 
L 321.188571 295.070002 
L 326.341818 295.366919 
L 331.495065 295.450337 
L 336.648312 295.474708 
L 341.801558 295.482556 
L 346.954805 295.48536 
L 352.108052 295.486349 
L 357.261299 295.486234 
L 362.414545 295.480824 
L 367.567792 295.487023 
L 372.721039 295.486955 
L 377.874286 295.487667 
L 383.027532 295.482316 
L 388.180779 295.471635 
L 393.334026 295.487877 
L 398.487273 295.292833 
" style="fill:none;stroke:#e377c2;stroke-linecap:square;stroke-width:1.5;"/>
   </g>
   <g id="line2d_64">
    <path clip-path="url(#p0831f47cbb)" d="M 73.832727 294.379408 
L 78.985974 294.356009 
L 84.139221 294.329134 
L 89.292468 294.297992 
L 94.445714 294.261945 
L 99.598961 294.220169 
L 104.752208 294.171416 
L 109.905455 294.114428 
L 115.058701 294.047373 
L 120.211948 293.968478 
L 125.365195 293.874965 
L 130.518442 293.763468 
L 135.671688 293.630049 
L 140.824935 293.469138 
L 145.978182 293.27425 
L 151.131429 293.036183 
L 156.284675 292.743121 
L 161.437922 292.379953 
L 166.591169 291.924727 
L 171.744416 291.348489 
L 176.897662 290.608766 
L 182.050909 289.64457 
L 187.204156 288.363013 
L 192.357403 286.622728 
L 197.510649 284.200404 
L 202.663896 280.74617 
L 207.817143 275.719934 
L 212.97039 268.32488 
L 218.123636 257.481652 
L 223.276883 241.964278 
L 228.43013 220.859127 
L 233.583377 194.535309 
L 238.736623 165.651648 
L 243.88987 139.434525 
L 249.043117 121.260897 
L 254.196364 112.421653 
L 259.34961 108.521724 
L 264.502857 105.30108 
L 269.656104 105.547816 
L 274.809351 115.244298 
L 279.962597 133.761629 
L 285.115844 157.035924 
L 290.269091 184.965924 
L 295.422338 218.177665 
L 300.575584 250.555425 
L 305.728831 274.133252 
L 310.882078 287.0706 
L 316.035325 292.628429 
L 321.188571 294.599584 
L 326.341818 295.217259 
L 331.495065 295.40095 
L 336.648312 295.456377 
L 341.801558 295.474415 
L 346.954805 295.480829 
L 352.108052 295.483058 
L 357.261299 295.482744 
L 362.414545 295.470007 
L 367.567792 295.485738 
L 372.721039 295.485625 
L 377.874286 295.486595 
L 383.027532 295.473115 
L 388.180779 295.463791 
L 393.334026 295.486781 
L 398.487273 295.241994 
" style="fill:none;stroke:#7f7f7f;stroke-linecap:square;stroke-width:1.5;"/>
   </g>
   <g id="line2d_65">
    <path clip-path="url(#p0831f47cbb)" d="M 73.832727 294.577207 
L 78.985974 294.562015 
L 84.139221 294.544568 
L 89.292468 294.524272 
L 94.445714 294.500995 
L 99.598961 294.473583 
L 104.752208 294.442214 
L 109.905455 294.40512 
L 115.058701 294.361589 
L 120.211948 294.310104 
L 125.365195 294.248993 
L 130.518442 294.175888 
L 135.671688 294.087382 
L 140.824935 293.980076 
L 145.978182 293.847651 
L 151.131429 293.682738 
L 156.284675 293.475742 
L 161.437922 293.210215 
L 166.591169 292.865498 
L 171.744416 292.409597 
L 176.897662 291.79396 
L 182.050909 290.947601 
L 187.204156 289.76089 
L 192.357403 288.077014 
L 197.510649 285.676762 
L 202.663896 282.238732 
L 207.817143 277.270317 
L 212.97039 270.009396 
L 218.123636 259.405811 
L 223.276883 244.216917 
L 228.43013 223.404837 
L 233.583377 197.086069 
L 238.736623 167.698863 
L 243.88987 140.255887 
L 249.043117 120.107701 
L 254.196364 108.969565 
L 259.34961 103.643124 
L 264.502857 102.208671 
L 269.656104 108.57981 
L 274.809351 125.853918 
L 279.962597 147.066075 
L 285.115844 163.989842 
L 290.269091 179.97838 
L 295.422338 204.213498 
L 300.575584 235.594326 
L 305.728831 263.573219 
L 310.882078 281.456267 
L 316.035325 290.197635 
L 321.188571 293.673482 
L 326.341818 294.883507 
L 331.495065 295.278538 
L 336.648312 295.407217 
L 341.801558 295.456798 
L 346.954805 295.471542 
L 352.108052 295.473277 
L 357.261299 295.472359 
L 362.414545 295.439332 
L 367.567792 295.486743 
L 372.721039 295.486616 
L 377.874286 295.486518 
L 383.027532 295.451809 
L 388.180779 295.435018 
L 393.334026 295.486231 
L 398.487273 295.213353 
" style="fill:none;stroke:#bcbd22;stroke-linecap:square;stroke-width:1.5;"/>
   </g>
   <g id="patch_3">
    <path d="M 57.6 307.584 
L 57.6 41.472 
" style="fill:none;stroke:#000000;stroke-linecap:square;stroke-linejoin:miter;stroke-width:0.8;"/>
   </g>
   <g id="patch_4">
    <path d="M 414.72 307.584 
L 414.72 41.472 
" style="fill:none;stroke:#000000;stroke-linecap:square;stroke-linejoin:miter;stroke-width:0.8;"/>
   </g>
   <g id="patch_5">
    <path d="M 57.6 307.584 
L 414.72 307.584 
" style="fill:none;stroke:#000000;stroke-linecap:square;stroke-linejoin:miter;stroke-width:0.8;"/>
   </g>
   <g id="patch_6">
    <path d="M 57.6 41.472 
L 414.72 41.472 
" style="fill:none;stroke:#000000;stroke-linecap:square;stroke-linejoin:miter;stroke-width:0.8;"/>
   </g>
   <g id="legend_1">
    <g id="patch_7">
     <path d="M 64.6 184.07825 
L 274.848438 184.07825 
Q 276.848438 184.07825 276.848438 182.07825 
L 276.848438 48.472 
Q 276.848438 46.472 274.848438 46.472 
L 64.6 46.472 
Q 62.6 46.472 62.6 48.472 
L 62.6 182.07825 
Q 62.6 184.07825 64.6 184.07825 
z
" style="fill:#ffffff;opacity:0.8;stroke:#cccccc;stroke-linejoin:miter;"/>
    </g>
    <g id="line2d_66">
     <path d="M 66.6 54.570438 
L 86.6 54.570438 
" style="fill:none;stroke:#1f77b4;stroke-linecap:square;stroke-width:1.5;"/>
    </g>
    <g id="line2d_67"/>
    <g id="text_13">
     <!-- Mrk279_2017_EF_10_matern12.jld2 -->
     <g transform="translate(94.6 58.070438)scale(0.1 -0.1)">
      <defs>
       <path d="M 9.8125 72.90625 
L 24.515625 72.90625 
L 43.109375 23.296875 
L 61.8125 72.90625 
L 76.515625 72.90625 
L 76.515625 0 
L 66.890625 0 
L 66.890625 64.015625 
L 48.09375 14.015625 
L 38.1875 14.015625 
L 19.390625 64.015625 
L 19.390625 0 
L 9.8125 0 
z
" id="DejaVuSans-77"/>
       <path d="M 41.109375 46.296875 
Q 39.59375 47.171875 37.8125 47.578125 
Q 36.03125 48 33.890625 48 
Q 26.265625 48 22.1875 43.046875 
Q 18.109375 38.09375 18.109375 28.8125 
L 18.109375 0 
L 9.078125 0 
L 9.078125 54.6875 
L 18.109375 54.6875 
L 18.109375 46.1875 
Q 20.953125 51.171875 25.484375 53.578125 
Q 30.03125 56 36.53125 56 
Q 37.453125 56 38.578125 55.875 
Q 39.703125 55.765625 41.0625 55.515625 
z
" id="DejaVuSans-114"/>
       <path d="M 9.078125 75.984375 
L 18.109375 75.984375 
L 18.109375 31.109375 
L 44.921875 54.6875 
L 56.390625 54.6875 
L 27.390625 29.109375 
L 57.625 0 
L 45.90625 0 
L 18.109375 26.703125 
L 18.109375 0 
L 9.078125 0 
z
" id="DejaVuSans-107"/>
       <path d="M 50.984375 -16.609375 
L 50.984375 -23.578125 
L -0.984375 -23.578125 
L -0.984375 -16.609375 
z
" id="DejaVuSans-95"/>
       <path d="M 9.8125 72.90625 
L 55.90625 72.90625 
L 55.90625 64.59375 
L 19.671875 64.59375 
L 19.671875 43.015625 
L 54.390625 43.015625 
L 54.390625 34.71875 
L 19.671875 34.71875 
L 19.671875 8.296875 
L 56.78125 8.296875 
L 56.78125 0 
L 9.8125 0 
z
" id="DejaVuSans-69"/>
       <path d="M 9.8125 72.90625 
L 51.703125 72.90625 
L 51.703125 64.59375 
L 19.671875 64.59375 
L 19.671875 43.109375 
L 48.578125 43.109375 
L 48.578125 34.8125 
L 19.671875 34.8125 
L 19.671875 0 
L 9.8125 0 
z
" id="DejaVuSans-70"/>
       <path d="M 52 44.1875 
Q 55.375 50.25 60.0625 53.125 
Q 64.75 56 71.09375 56 
Q 79.640625 56 84.28125 50.015625 
Q 88.921875 44.046875 88.921875 33.015625 
L 88.921875 0 
L 79.890625 0 
L 79.890625 32.71875 
Q 79.890625 40.578125 77.09375 44.375 
Q 74.3125 48.1875 68.609375 48.1875 
Q 61.625 48.1875 57.5625 43.546875 
Q 53.515625 38.921875 53.515625 30.90625 
L 53.515625 0 
L 44.484375 0 
L 44.484375 32.71875 
Q 44.484375 40.625 41.703125 44.40625 
Q 38.921875 48.1875 33.109375 48.1875 
Q 26.21875 48.1875 22.15625 43.53125 
Q 18.109375 38.875 18.109375 30.90625 
L 18.109375 0 
L 9.078125 0 
L 9.078125 54.6875 
L 18.109375 54.6875 
L 18.109375 46.1875 
Q 21.1875 51.21875 25.484375 53.609375 
Q 29.78125 56 35.6875 56 
Q 41.65625 56 45.828125 52.96875 
Q 50 49.953125 52 44.1875 
z
" id="DejaVuSans-109"/>
       <path d="M 34.28125 27.484375 
Q 23.390625 27.484375 19.1875 25 
Q 14.984375 22.515625 14.984375 16.5 
Q 14.984375 11.71875 18.140625 8.90625 
Q 21.296875 6.109375 26.703125 6.109375 
Q 34.1875 6.109375 38.703125 11.40625 
Q 43.21875 16.703125 43.21875 25.484375 
L 43.21875 27.484375 
z
M 52.203125 31.203125 
L 52.203125 0 
L 43.21875 0 
L 43.21875 8.296875 
Q 40.140625 3.328125 35.546875 0.953125 
Q 30.953125 -1.421875 24.3125 -1.421875 
Q 15.921875 -1.421875 10.953125 3.296875 
Q 6 8.015625 6 15.921875 
Q 6 25.140625 12.171875 29.828125 
Q 18.359375 34.515625 30.609375 34.515625 
L 43.21875 34.515625 
L 43.21875 35.40625 
Q 43.21875 41.609375 39.140625 45 
Q 35.0625 48.390625 27.6875 48.390625 
Q 23 48.390625 18.546875 47.265625 
Q 14.109375 46.140625 10.015625 43.890625 
L 10.015625 52.203125 
Q 14.9375 54.109375 19.578125 55.046875 
Q 24.21875 56 28.609375 56 
Q 40.484375 56 46.34375 49.84375 
Q 52.203125 43.703125 52.203125 31.203125 
z
" id="DejaVuSans-97"/>
       <path d="M 18.3125 70.21875 
L 18.3125 54.6875 
L 36.8125 54.6875 
L 36.8125 47.703125 
L 18.3125 47.703125 
L 18.3125 18.015625 
Q 18.3125 11.328125 20.140625 9.421875 
Q 21.96875 7.515625 27.59375 7.515625 
L 36.8125 7.515625 
L 36.8125 0 
L 27.59375 0 
Q 17.1875 0 13.234375 3.875 
Q 9.28125 7.765625 9.28125 18.015625 
L 9.28125 47.703125 
L 2.6875 47.703125 
L 2.6875 54.6875 
L 9.28125 54.6875 
L 9.28125 70.21875 
z
" id="DejaVuSans-116"/>
       <path d="M 56.203125 29.59375 
L 56.203125 25.203125 
L 14.890625 25.203125 
Q 15.484375 15.921875 20.484375 11.0625 
Q 25.484375 6.203125 34.421875 6.203125 
Q 39.59375 6.203125 44.453125 7.46875 
Q 49.3125 8.734375 54.109375 11.28125 
L 54.109375 2.78125 
Q 49.265625 0.734375 44.1875 -0.34375 
Q 39.109375 -1.421875 33.890625 -1.421875 
Q 20.796875 -1.421875 13.15625 6.1875 
Q 5.515625 13.8125 5.515625 26.8125 
Q 5.515625 40.234375 12.765625 48.109375 
Q 20.015625 56 32.328125 56 
Q 43.359375 56 49.78125 48.890625 
Q 56.203125 41.796875 56.203125 29.59375 
z
M 47.21875 32.234375 
Q 47.125 39.59375 43.09375 43.984375 
Q 39.0625 48.390625 32.421875 48.390625 
Q 24.90625 48.390625 20.390625 44.140625 
Q 15.875 39.890625 15.1875 32.171875 
z
" id="DejaVuSans-101"/>
       <path d="M 54.890625 33.015625 
L 54.890625 0 
L 45.90625 0 
L 45.90625 32.71875 
Q 45.90625 40.484375 42.875 44.328125 
Q 39.84375 48.1875 33.796875 48.1875 
Q 26.515625 48.1875 22.3125 43.546875 
Q 18.109375 38.921875 18.109375 30.90625 
L 18.109375 0 
L 9.078125 0 
L 9.078125 54.6875 
L 18.109375 54.6875 
L 18.109375 46.1875 
Q 21.34375 51.125 25.703125 53.5625 
Q 30.078125 56 35.796875 56 
Q 45.21875 56 50.046875 50.171875 
Q 54.890625 44.34375 54.890625 33.015625 
z
" id="DejaVuSans-110"/>
       <path d="M 9.421875 54.6875 
L 18.40625 54.6875 
L 18.40625 -0.984375 
Q 18.40625 -11.421875 14.421875 -16.109375 
Q 10.453125 -20.796875 1.609375 -20.796875 
L -1.8125 -20.796875 
L -1.8125 -13.1875 
L 0.59375 -13.1875 
Q 5.71875 -13.1875 7.5625 -10.8125 
Q 9.421875 -8.453125 9.421875 -0.984375 
z
M 9.421875 75.984375 
L 18.40625 75.984375 
L 18.40625 64.59375 
L 9.421875 64.59375 
z
" id="DejaVuSans-106"/>
       <path d="M 9.421875 75.984375 
L 18.40625 75.984375 
L 18.40625 0 
L 9.421875 0 
z
" id="DejaVuSans-108"/>
       <path d="M 45.40625 46.390625 
L 45.40625 75.984375 
L 54.390625 75.984375 
L 54.390625 0 
L 45.40625 0 
L 45.40625 8.203125 
Q 42.578125 3.328125 38.25 0.953125 
Q 33.9375 -1.421875 27.875 -1.421875 
Q 17.96875 -1.421875 11.734375 6.484375 
Q 5.515625 14.40625 5.515625 27.296875 
Q 5.515625 40.1875 11.734375 48.09375 
Q 17.96875 56 27.875 56 
Q 33.9375 56 38.25 53.625 
Q 42.578125 51.265625 45.40625 46.390625 
z
M 14.796875 27.296875 
Q 14.796875 17.390625 18.875 11.75 
Q 22.953125 6.109375 30.078125 6.109375 
Q 37.203125 6.109375 41.296875 11.75 
Q 45.40625 17.390625 45.40625 27.296875 
Q 45.40625 37.203125 41.296875 42.84375 
Q 37.203125 48.484375 30.078125 48.484375 
Q 22.953125 48.484375 18.875 42.84375 
Q 14.796875 37.203125 14.796875 27.296875 
z
" id="DejaVuSans-100"/>
      </defs>
      <use xlink:href="#DejaVuSans-77"/>
      <use x="86.279297" xlink:href="#DejaVuSans-114"/>
      <use x="127.392578" xlink:href="#DejaVuSans-107"/>
      <use x="185.302734" xlink:href="#DejaVuSans-50"/>
      <use x="248.925781" xlink:href="#DejaVuSans-55"/>
      <use x="312.548828" xlink:href="#DejaVuSans-57"/>
      <use x="376.171875" xlink:href="#DejaVuSans-95"/>
      <use x="426.171875" xlink:href="#DejaVuSans-50"/>
      <use x="489.794922" xlink:href="#DejaVuSans-48"/>
      <use x="553.417969" xlink:href="#DejaVuSans-49"/>
      <use x="617.041016" xlink:href="#DejaVuSans-55"/>
      <use x="680.664062" xlink:href="#DejaVuSans-95"/>
      <use x="730.664062" xlink:href="#DejaVuSans-69"/>
      <use x="793.847656" xlink:href="#DejaVuSans-70"/>
      <use x="851.367188" xlink:href="#DejaVuSans-95"/>
      <use x="901.367188" xlink:href="#DejaVuSans-49"/>
      <use x="964.990234" xlink:href="#DejaVuSans-48"/>
      <use x="1028.613281" xlink:href="#DejaVuSans-95"/>
      <use x="1078.613281" xlink:href="#DejaVuSans-109"/>
      <use x="1176.025391" xlink:href="#DejaVuSans-97"/>
      <use x="1237.304688" xlink:href="#DejaVuSans-116"/>
      <use x="1276.513672" xlink:href="#DejaVuSans-101"/>
      <use x="1338.037109" xlink:href="#DejaVuSans-114"/>
      <use x="1377.400391" xlink:href="#DejaVuSans-110"/>
      <use x="1440.779297" xlink:href="#DejaVuSans-49"/>
      <use x="1504.402344" xlink:href="#DejaVuSans-50"/>
      <use x="1568.025391" xlink:href="#DejaVuSans-46"/>
      <use x="1599.8125" xlink:href="#DejaVuSans-106"/>
      <use x="1627.595703" xlink:href="#DejaVuSans-108"/>
      <use x="1655.378906" xlink:href="#DejaVuSans-100"/>
      <use x="1718.855469" xlink:href="#DejaVuSans-50"/>
     </g>
    </g>
    <g id="line2d_68">
     <path d="M 66.6 69.526688 
L 86.6 69.526688 
" style="fill:none;stroke:#ff7f0e;stroke-linecap:square;stroke-width:1.5;"/>
    </g>
    <g id="line2d_69"/>
    <g id="text_14">
     <!-- Mrk279_2017_EF_10_matern32.jld2 -->
     <g transform="translate(94.6 73.026688)scale(0.1 -0.1)">
      <defs>
       <path d="M 40.578125 39.3125 
Q 47.65625 37.796875 51.625 33 
Q 55.609375 28.21875 55.609375 21.1875 
Q 55.609375 10.40625 48.1875 4.484375 
Q 40.765625 -1.421875 27.09375 -1.421875 
Q 22.515625 -1.421875 17.65625 -0.515625 
Q 12.796875 0.390625 7.625 2.203125 
L 7.625 11.71875 
Q 11.71875 9.328125 16.59375 8.109375 
Q 21.484375 6.890625 26.8125 6.890625 
Q 36.078125 6.890625 40.9375 10.546875 
Q 45.796875 14.203125 45.796875 21.1875 
Q 45.796875 27.640625 41.28125 31.265625 
Q 36.765625 34.90625 28.71875 34.90625 
L 20.21875 34.90625 
L 20.21875 43.015625 
L 29.109375 43.015625 
Q 36.375 43.015625 40.234375 45.921875 
Q 44.09375 48.828125 44.09375 54.296875 
Q 44.09375 59.90625 40.109375 62.90625 
Q 36.140625 65.921875 28.71875 65.921875 
Q 24.65625 65.921875 20.015625 65.03125 
Q 15.375 64.15625 9.8125 62.3125 
L 9.8125 71.09375 
Q 15.4375 72.65625 20.34375 73.4375 
Q 25.25 74.21875 29.59375 74.21875 
Q 40.828125 74.21875 47.359375 69.109375 
Q 53.90625 64.015625 53.90625 55.328125 
Q 53.90625 49.265625 50.4375 45.09375 
Q 46.96875 40.921875 40.578125 39.3125 
z
" id="DejaVuSans-51"/>
      </defs>
      <use xlink:href="#DejaVuSans-77"/>
      <use x="86.279297" xlink:href="#DejaVuSans-114"/>
      <use x="127.392578" xlink:href="#DejaVuSans-107"/>
      <use x="185.302734" xlink:href="#DejaVuSans-50"/>
      <use x="248.925781" xlink:href="#DejaVuSans-55"/>
      <use x="312.548828" xlink:href="#DejaVuSans-57"/>
      <use x="376.171875" xlink:href="#DejaVuSans-95"/>
      <use x="426.171875" xlink:href="#DejaVuSans-50"/>
      <use x="489.794922" xlink:href="#DejaVuSans-48"/>
      <use x="553.417969" xlink:href="#DejaVuSans-49"/>
      <use x="617.041016" xlink:href="#DejaVuSans-55"/>
      <use x="680.664062" xlink:href="#DejaVuSans-95"/>
      <use x="730.664062" xlink:href="#DejaVuSans-69"/>
      <use x="793.847656" xlink:href="#DejaVuSans-70"/>
      <use x="851.367188" xlink:href="#DejaVuSans-95"/>
      <use x="901.367188" xlink:href="#DejaVuSans-49"/>
      <use x="964.990234" xlink:href="#DejaVuSans-48"/>
      <use x="1028.613281" xlink:href="#DejaVuSans-95"/>
      <use x="1078.613281" xlink:href="#DejaVuSans-109"/>
      <use x="1176.025391" xlink:href="#DejaVuSans-97"/>
      <use x="1237.304688" xlink:href="#DejaVuSans-116"/>
      <use x="1276.513672" xlink:href="#DejaVuSans-101"/>
      <use x="1338.037109" xlink:href="#DejaVuSans-114"/>
      <use x="1377.400391" xlink:href="#DejaVuSans-110"/>
      <use x="1440.779297" xlink:href="#DejaVuSans-51"/>
      <use x="1504.402344" xlink:href="#DejaVuSans-50"/>
      <use x="1568.025391" xlink:href="#DejaVuSans-46"/>
      <use x="1599.8125" xlink:href="#DejaVuSans-106"/>
      <use x="1627.595703" xlink:href="#DejaVuSans-108"/>
      <use x="1655.378906" xlink:href="#DejaVuSans-100"/>
      <use x="1718.855469" xlink:href="#DejaVuSans-50"/>
     </g>
    </g>
    <g id="line2d_70">
     <path d="M 66.6 84.482938 
L 86.6 84.482938 
" style="fill:none;stroke:#2ca02c;stroke-linecap:square;stroke-width:1.5;"/>
    </g>
    <g id="line2d_71"/>
    <g id="text_15">
     <!-- Mrk279_2017_EF_10_rbf.jld2 -->
     <g transform="translate(94.6 87.982938)scale(0.1 -0.1)">
      <defs>
       <path d="M 48.6875 27.296875 
Q 48.6875 37.203125 44.609375 42.84375 
Q 40.53125 48.484375 33.40625 48.484375 
Q 26.265625 48.484375 22.1875 42.84375 
Q 18.109375 37.203125 18.109375 27.296875 
Q 18.109375 17.390625 22.1875 11.75 
Q 26.265625 6.109375 33.40625 6.109375 
Q 40.53125 6.109375 44.609375 11.75 
Q 48.6875 17.390625 48.6875 27.296875 
z
M 18.109375 46.390625 
Q 20.953125 51.265625 25.265625 53.625 
Q 29.59375 56 35.59375 56 
Q 45.5625 56 51.78125 48.09375 
Q 58.015625 40.1875 58.015625 27.296875 
Q 58.015625 14.40625 51.78125 6.484375 
Q 45.5625 -1.421875 35.59375 -1.421875 
Q 29.59375 -1.421875 25.265625 0.953125 
Q 20.953125 3.328125 18.109375 8.203125 
L 18.109375 0 
L 9.078125 0 
L 9.078125 75.984375 
L 18.109375 75.984375 
z
" id="DejaVuSans-98"/>
       <path d="M 37.109375 75.984375 
L 37.109375 68.5 
L 28.515625 68.5 
Q 23.6875 68.5 21.796875 66.546875 
Q 19.921875 64.59375 19.921875 59.515625 
L 19.921875 54.6875 
L 34.71875 54.6875 
L 34.71875 47.703125 
L 19.921875 47.703125 
L 19.921875 0 
L 10.890625 0 
L 10.890625 47.703125 
L 2.296875 47.703125 
L 2.296875 54.6875 
L 10.890625 54.6875 
L 10.890625 58.5 
Q 10.890625 67.625 15.140625 71.796875 
Q 19.390625 75.984375 28.609375 75.984375 
z
" id="DejaVuSans-102"/>
      </defs>
      <use xlink:href="#DejaVuSans-77"/>
      <use x="86.279297" xlink:href="#DejaVuSans-114"/>
      <use x="127.392578" xlink:href="#DejaVuSans-107"/>
      <use x="185.302734" xlink:href="#DejaVuSans-50"/>
      <use x="248.925781" xlink:href="#DejaVuSans-55"/>
      <use x="312.548828" xlink:href="#DejaVuSans-57"/>
      <use x="376.171875" xlink:href="#DejaVuSans-95"/>
      <use x="426.171875" xlink:href="#DejaVuSans-50"/>
      <use x="489.794922" xlink:href="#DejaVuSans-48"/>
      <use x="553.417969" xlink:href="#DejaVuSans-49"/>
      <use x="617.041016" xlink:href="#DejaVuSans-55"/>
      <use x="680.664062" xlink:href="#DejaVuSans-95"/>
      <use x="730.664062" xlink:href="#DejaVuSans-69"/>
      <use x="793.847656" xlink:href="#DejaVuSans-70"/>
      <use x="851.367188" xlink:href="#DejaVuSans-95"/>
      <use x="901.367188" xlink:href="#DejaVuSans-49"/>
      <use x="964.990234" xlink:href="#DejaVuSans-48"/>
      <use x="1028.613281" xlink:href="#DejaVuSans-95"/>
      <use x="1078.613281" xlink:href="#DejaVuSans-114"/>
      <use x="1119.726562" xlink:href="#DejaVuSans-98"/>
      <use x="1183.203125" xlink:href="#DejaVuSans-102"/>
      <use x="1211.158203" xlink:href="#DejaVuSans-46"/>
      <use x="1242.945312" xlink:href="#DejaVuSans-106"/>
      <use x="1270.728516" xlink:href="#DejaVuSans-108"/>
      <use x="1298.511719" xlink:href="#DejaVuSans-100"/>
      <use x="1361.988281" xlink:href="#DejaVuSans-50"/>
     </g>
    </g>
    <g id="line2d_72">
     <path d="M 66.6 99.439188 
L 86.6 99.439188 
" style="fill:none;stroke:#d62728;stroke-linecap:square;stroke-width:1.5;"/>
    </g>
    <g id="line2d_73"/>
    <g id="text_16">
     <!-- Mrk279_2017_EF_20_matern12.jld2 -->
     <g transform="translate(94.6 102.939188)scale(0.1 -0.1)">
      <use xlink:href="#DejaVuSans-77"/>
      <use x="86.279297" xlink:href="#DejaVuSans-114"/>
      <use x="127.392578" xlink:href="#DejaVuSans-107"/>
      <use x="185.302734" xlink:href="#DejaVuSans-50"/>
      <use x="248.925781" xlink:href="#DejaVuSans-55"/>
      <use x="312.548828" xlink:href="#DejaVuSans-57"/>
      <use x="376.171875" xlink:href="#DejaVuSans-95"/>
      <use x="426.171875" xlink:href="#DejaVuSans-50"/>
      <use x="489.794922" xlink:href="#DejaVuSans-48"/>
      <use x="553.417969" xlink:href="#DejaVuSans-49"/>
      <use x="617.041016" xlink:href="#DejaVuSans-55"/>
      <use x="680.664062" xlink:href="#DejaVuSans-95"/>
      <use x="730.664062" xlink:href="#DejaVuSans-69"/>
      <use x="793.847656" xlink:href="#DejaVuSans-70"/>
      <use x="851.367188" xlink:href="#DejaVuSans-95"/>
      <use x="901.367188" xlink:href="#DejaVuSans-50"/>
      <use x="964.990234" xlink:href="#DejaVuSans-48"/>
      <use x="1028.613281" xlink:href="#DejaVuSans-95"/>
      <use x="1078.613281" xlink:href="#DejaVuSans-109"/>
      <use x="1176.025391" xlink:href="#DejaVuSans-97"/>
      <use x="1237.304688" xlink:href="#DejaVuSans-116"/>
      <use x="1276.513672" xlink:href="#DejaVuSans-101"/>
      <use x="1338.037109" xlink:href="#DejaVuSans-114"/>
      <use x="1377.400391" xlink:href="#DejaVuSans-110"/>
      <use x="1440.779297" xlink:href="#DejaVuSans-49"/>
      <use x="1504.402344" xlink:href="#DejaVuSans-50"/>
      <use x="1568.025391" xlink:href="#DejaVuSans-46"/>
      <use x="1599.8125" xlink:href="#DejaVuSans-106"/>
      <use x="1627.595703" xlink:href="#DejaVuSans-108"/>
      <use x="1655.378906" xlink:href="#DejaVuSans-100"/>
      <use x="1718.855469" xlink:href="#DejaVuSans-50"/>
     </g>
    </g>
    <g id="line2d_74">
     <path d="M 66.6 114.395438 
L 86.6 114.395438 
" style="fill:none;stroke:#9467bd;stroke-linecap:square;stroke-width:1.5;"/>
    </g>
    <g id="line2d_75"/>
    <g id="text_17">
     <!-- Mrk279_2017_EF_20_matern32.jld2 -->
     <g transform="translate(94.6 117.895438)scale(0.1 -0.1)">
      <use xlink:href="#DejaVuSans-77"/>
      <use x="86.279297" xlink:href="#DejaVuSans-114"/>
      <use x="127.392578" xlink:href="#DejaVuSans-107"/>
      <use x="185.302734" xlink:href="#DejaVuSans-50"/>
      <use x="248.925781" xlink:href="#DejaVuSans-55"/>
      <use x="312.548828" xlink:href="#DejaVuSans-57"/>
      <use x="376.171875" xlink:href="#DejaVuSans-95"/>
      <use x="426.171875" xlink:href="#DejaVuSans-50"/>
      <use x="489.794922" xlink:href="#DejaVuSans-48"/>
      <use x="553.417969" xlink:href="#DejaVuSans-49"/>
      <use x="617.041016" xlink:href="#DejaVuSans-55"/>
      <use x="680.664062" xlink:href="#DejaVuSans-95"/>
      <use x="730.664062" xlink:href="#DejaVuSans-69"/>
      <use x="793.847656" xlink:href="#DejaVuSans-70"/>
      <use x="851.367188" xlink:href="#DejaVuSans-95"/>
      <use x="901.367188" xlink:href="#DejaVuSans-50"/>
      <use x="964.990234" xlink:href="#DejaVuSans-48"/>
      <use x="1028.613281" xlink:href="#DejaVuSans-95"/>
      <use x="1078.613281" xlink:href="#DejaVuSans-109"/>
      <use x="1176.025391" xlink:href="#DejaVuSans-97"/>
      <use x="1237.304688" xlink:href="#DejaVuSans-116"/>
      <use x="1276.513672" xlink:href="#DejaVuSans-101"/>
      <use x="1338.037109" xlink:href="#DejaVuSans-114"/>
      <use x="1377.400391" xlink:href="#DejaVuSans-110"/>
      <use x="1440.779297" xlink:href="#DejaVuSans-51"/>
      <use x="1504.402344" xlink:href="#DejaVuSans-50"/>
      <use x="1568.025391" xlink:href="#DejaVuSans-46"/>
      <use x="1599.8125" xlink:href="#DejaVuSans-106"/>
      <use x="1627.595703" xlink:href="#DejaVuSans-108"/>
      <use x="1655.378906" xlink:href="#DejaVuSans-100"/>
      <use x="1718.855469" xlink:href="#DejaVuSans-50"/>
     </g>
    </g>
    <g id="line2d_76">
     <path d="M 66.6 129.351688 
L 86.6 129.351688 
" style="fill:none;stroke:#8c564b;stroke-linecap:square;stroke-width:1.5;"/>
    </g>
    <g id="line2d_77"/>
    <g id="text_18">
     <!-- Mrk279_2017_EF_20_rbf.jld2 -->
     <g transform="translate(94.6 132.851688)scale(0.1 -0.1)">
      <use xlink:href="#DejaVuSans-77"/>
      <use x="86.279297" xlink:href="#DejaVuSans-114"/>
      <use x="127.392578" xlink:href="#DejaVuSans-107"/>
      <use x="185.302734" xlink:href="#DejaVuSans-50"/>
      <use x="248.925781" xlink:href="#DejaVuSans-55"/>
      <use x="312.548828" xlink:href="#DejaVuSans-57"/>
      <use x="376.171875" xlink:href="#DejaVuSans-95"/>
      <use x="426.171875" xlink:href="#DejaVuSans-50"/>
      <use x="489.794922" xlink:href="#DejaVuSans-48"/>
      <use x="553.417969" xlink:href="#DejaVuSans-49"/>
      <use x="617.041016" xlink:href="#DejaVuSans-55"/>
      <use x="680.664062" xlink:href="#DejaVuSans-95"/>
      <use x="730.664062" xlink:href="#DejaVuSans-69"/>
      <use x="793.847656" xlink:href="#DejaVuSans-70"/>
      <use x="851.367188" xlink:href="#DejaVuSans-95"/>
      <use x="901.367188" xlink:href="#DejaVuSans-50"/>
      <use x="964.990234" xlink:href="#DejaVuSans-48"/>
      <use x="1028.613281" xlink:href="#DejaVuSans-95"/>
      <use x="1078.613281" xlink:href="#DejaVuSans-114"/>
      <use x="1119.726562" xlink:href="#DejaVuSans-98"/>
      <use x="1183.203125" xlink:href="#DejaVuSans-102"/>
      <use x="1211.158203" xlink:href="#DejaVuSans-46"/>
      <use x="1242.945312" xlink:href="#DejaVuSans-106"/>
      <use x="1270.728516" xlink:href="#DejaVuSans-108"/>
      <use x="1298.511719" xlink:href="#DejaVuSans-100"/>
      <use x="1361.988281" xlink:href="#DejaVuSans-50"/>
     </g>
    </g>
    <g id="line2d_78">
     <path d="M 66.6 144.307938 
L 86.6 144.307938 
" style="fill:none;stroke:#e377c2;stroke-linecap:square;stroke-width:1.5;"/>
    </g>
    <g id="line2d_79"/>
    <g id="text_19">
     <!-- Mrk279_2017_EF_30_matern12.jld2 -->
     <g transform="translate(94.6 147.807938)scale(0.1 -0.1)">
      <use xlink:href="#DejaVuSans-77"/>
      <use x="86.279297" xlink:href="#DejaVuSans-114"/>
      <use x="127.392578" xlink:href="#DejaVuSans-107"/>
      <use x="185.302734" xlink:href="#DejaVuSans-50"/>
      <use x="248.925781" xlink:href="#DejaVuSans-55"/>
      <use x="312.548828" xlink:href="#DejaVuSans-57"/>
      <use x="376.171875" xlink:href="#DejaVuSans-95"/>
      <use x="426.171875" xlink:href="#DejaVuSans-50"/>
      <use x="489.794922" xlink:href="#DejaVuSans-48"/>
      <use x="553.417969" xlink:href="#DejaVuSans-49"/>
      <use x="617.041016" xlink:href="#DejaVuSans-55"/>
      <use x="680.664062" xlink:href="#DejaVuSans-95"/>
      <use x="730.664062" xlink:href="#DejaVuSans-69"/>
      <use x="793.847656" xlink:href="#DejaVuSans-70"/>
      <use x="851.367188" xlink:href="#DejaVuSans-95"/>
      <use x="901.367188" xlink:href="#DejaVuSans-51"/>
      <use x="964.990234" xlink:href="#DejaVuSans-48"/>
      <use x="1028.613281" xlink:href="#DejaVuSans-95"/>
      <use x="1078.613281" xlink:href="#DejaVuSans-109"/>
      <use x="1176.025391" xlink:href="#DejaVuSans-97"/>
      <use x="1237.304688" xlink:href="#DejaVuSans-116"/>
      <use x="1276.513672" xlink:href="#DejaVuSans-101"/>
      <use x="1338.037109" xlink:href="#DejaVuSans-114"/>
      <use x="1377.400391" xlink:href="#DejaVuSans-110"/>
      <use x="1440.779297" xlink:href="#DejaVuSans-49"/>
      <use x="1504.402344" xlink:href="#DejaVuSans-50"/>
      <use x="1568.025391" xlink:href="#DejaVuSans-46"/>
      <use x="1599.8125" xlink:href="#DejaVuSans-106"/>
      <use x="1627.595703" xlink:href="#DejaVuSans-108"/>
      <use x="1655.378906" xlink:href="#DejaVuSans-100"/>
      <use x="1718.855469" xlink:href="#DejaVuSans-50"/>
     </g>
    </g>
    <g id="line2d_80">
     <path d="M 66.6 159.264188 
L 86.6 159.264188 
" style="fill:none;stroke:#7f7f7f;stroke-linecap:square;stroke-width:1.5;"/>
    </g>
    <g id="line2d_81"/>
    <g id="text_20">
     <!-- Mrk279_2017_EF_30_matern32.jld2 -->
     <g transform="translate(94.6 162.764188)scale(0.1 -0.1)">
      <use xlink:href="#DejaVuSans-77"/>
      <use x="86.279297" xlink:href="#DejaVuSans-114"/>
      <use x="127.392578" xlink:href="#DejaVuSans-107"/>
      <use x="185.302734" xlink:href="#DejaVuSans-50"/>
      <use x="248.925781" xlink:href="#DejaVuSans-55"/>
      <use x="312.548828" xlink:href="#DejaVuSans-57"/>
      <use x="376.171875" xlink:href="#DejaVuSans-95"/>
      <use x="426.171875" xlink:href="#DejaVuSans-50"/>
      <use x="489.794922" xlink:href="#DejaVuSans-48"/>
      <use x="553.417969" xlink:href="#DejaVuSans-49"/>
      <use x="617.041016" xlink:href="#DejaVuSans-55"/>
      <use x="680.664062" xlink:href="#DejaVuSans-95"/>
      <use x="730.664062" xlink:href="#DejaVuSans-69"/>
      <use x="793.847656" xlink:href="#DejaVuSans-70"/>
      <use x="851.367188" xlink:href="#DejaVuSans-95"/>
      <use x="901.367188" xlink:href="#DejaVuSans-51"/>
      <use x="964.990234" xlink:href="#DejaVuSans-48"/>
      <use x="1028.613281" xlink:href="#DejaVuSans-95"/>
      <use x="1078.613281" xlink:href="#DejaVuSans-109"/>
      <use x="1176.025391" xlink:href="#DejaVuSans-97"/>
      <use x="1237.304688" xlink:href="#DejaVuSans-116"/>
      <use x="1276.513672" xlink:href="#DejaVuSans-101"/>
      <use x="1338.037109" xlink:href="#DejaVuSans-114"/>
      <use x="1377.400391" xlink:href="#DejaVuSans-110"/>
      <use x="1440.779297" xlink:href="#DejaVuSans-51"/>
      <use x="1504.402344" xlink:href="#DejaVuSans-50"/>
      <use x="1568.025391" xlink:href="#DejaVuSans-46"/>
      <use x="1599.8125" xlink:href="#DejaVuSans-106"/>
      <use x="1627.595703" xlink:href="#DejaVuSans-108"/>
      <use x="1655.378906" xlink:href="#DejaVuSans-100"/>
      <use x="1718.855469" xlink:href="#DejaVuSans-50"/>
     </g>
    </g>
    <g id="line2d_82">
     <path d="M 66.6 174.220438 
L 86.6 174.220438 
" style="fill:none;stroke:#bcbd22;stroke-linecap:square;stroke-width:1.5;"/>
    </g>
    <g id="line2d_83"/>
    <g id="text_21">
     <!-- Mrk279_2017_EF_30_rbf.jld2 -->
     <g transform="translate(94.6 177.720438)scale(0.1 -0.1)">
      <use xlink:href="#DejaVuSans-77"/>
      <use x="86.279297" xlink:href="#DejaVuSans-114"/>
      <use x="127.392578" xlink:href="#DejaVuSans-107"/>
      <use x="185.302734" xlink:href="#DejaVuSans-50"/>
      <use x="248.925781" xlink:href="#DejaVuSans-55"/>
      <use x="312.548828" xlink:href="#DejaVuSans-57"/>
      <use x="376.171875" xlink:href="#DejaVuSans-95"/>
      <use x="426.171875" xlink:href="#DejaVuSans-50"/>
      <use x="489.794922" xlink:href="#DejaVuSans-48"/>
      <use x="553.417969" xlink:href="#DejaVuSans-49"/>
      <use x="617.041016" xlink:href="#DejaVuSans-55"/>
      <use x="680.664062" xlink:href="#DejaVuSans-95"/>
      <use x="730.664062" xlink:href="#DejaVuSans-69"/>
      <use x="793.847656" xlink:href="#DejaVuSans-70"/>
      <use x="851.367188" xlink:href="#DejaVuSans-95"/>
      <use x="901.367188" xlink:href="#DejaVuSans-51"/>
      <use x="964.990234" xlink:href="#DejaVuSans-48"/>
      <use x="1028.613281" xlink:href="#DejaVuSans-95"/>
      <use x="1078.613281" xlink:href="#DejaVuSans-114"/>
      <use x="1119.726562" xlink:href="#DejaVuSans-98"/>
      <use x="1183.203125" xlink:href="#DejaVuSans-102"/>
      <use x="1211.158203" xlink:href="#DejaVuSans-46"/>
      <use x="1242.945312" xlink:href="#DejaVuSans-106"/>
      <use x="1270.728516" xlink:href="#DejaVuSans-108"/>
      <use x="1298.511719" xlink:href="#DejaVuSans-100"/>
      <use x="1361.988281" xlink:href="#DejaVuSans-50"/>
     </g>
    </g>
   </g>
  </g>
 </g>
 <defs>
  <clipPath id="p0831f47cbb">
   <rect height="266.112" width="357.12" x="57.6" y="41.472"/>
  </clipPath>
 </defs>
</svg>
