<?xml version="1.0" encoding="utf-8" standalone="no"?>
<!DOCTYPE svg PUBLIC "-//W3C//DTD SVG 1.1//EN"
  "http://www.w3.org/Graphics/SVG/1.1/DTD/svg11.dtd">
<!-- Created with matplotlib (https://matplotlib.org/) -->
<svg height="345.6pt" version="1.1" viewBox="0 0 460.8 345.6" width="460.8pt" xmlns="http://www.w3.org/2000/svg" xmlns:xlink="http://www.w3.org/1999/xlink">
 <metadata>
  <rdf:RDF xmlns:cc="http://creativecommons.org/ns#" xmlns:dc="http://purl.org/dc/elements/1.1/" xmlns:rdf="http://www.w3.org/1999/02/22-rdf-syntax-ns#">
   <cc:Work>
    <dc:type rdf:resource="http://purl.org/dc/dcmitype/StillImage"/>
    <dc:date>2022-01-31T21:17:44.480314</dc:date>
    <dc:format>image/svg+xml</dc:format>
    <dc:creator>
     <cc:Agent>
      <dc:title>Matplotlib v3.3.4, https://matplotlib.org/</dc:title>
     </cc:Agent>
    </dc:creator>
   </cc:Work>
  </rdf:RDF>
 </metadata>
 <defs>
  <style type="text/css">*{stroke-linecap:butt;stroke-linejoin:round;}</style>
 </defs>
 <g id="figure_1">
  <g id="patch_1">
   <path d="M 0 345.6 
L 460.8 345.6 
L 460.8 0 
L 0 0 
z
" style="fill:#ffffff;"/>
  </g>
  <g id="axes_1">
   <g id="patch_2">
    <path d="M 57.6 307.584 
L 414.72 307.584 
L 414.72 41.472 
L 57.6 41.472 
z
" style="fill:#ffffff;"/>
   </g>
   <g id="matplotlib.axis_1">
    <g id="xtick_1">
     <g id="line2d_1">
      <defs>
       <path d="M 0 0 
L 0 3.5 
" id="mf41b18a7c6" style="stroke:#000000;stroke-width:0.8;"/>
      </defs>
      <g>
       <use style="stroke:#000000;stroke-width:0.8;" x="73.832727" xlink:href="#mf41b18a7c6" y="307.584"/>
      </g>
     </g>
     <g id="text_1">
      <!-- $\mathdefault{10^{5}}$ -->
      <g transform="translate(65.032727 322.182437)scale(0.1 -0.1)">
       <defs>
        <path d="M 12.40625 8.296875 
L 28.515625 8.296875 
L 28.515625 63.921875 
L 10.984375 60.40625 
L 10.984375 69.390625 
L 28.421875 72.90625 
L 38.28125 72.90625 
L 38.28125 8.296875 
L 54.390625 8.296875 
L 54.390625 0 
L 12.40625 0 
z
" id="DejaVuSans-49"/>
        <path d="M 31.78125 66.40625 
Q 24.171875 66.40625 20.328125 58.90625 
Q 16.5 51.421875 16.5 36.375 
Q 16.5 21.390625 20.328125 13.890625 
Q 24.171875 6.390625 31.78125 6.390625 
Q 39.453125 6.390625 43.28125 13.890625 
Q 47.125 21.390625 47.125 36.375 
Q 47.125 51.421875 43.28125 58.90625 
Q 39.453125 66.40625 31.78125 66.40625 
z
M 31.78125 74.21875 
Q 44.046875 74.21875 50.515625 64.515625 
Q 56.984375 54.828125 56.984375 36.375 
Q 56.984375 17.96875 50.515625 8.265625 
Q 44.046875 -1.421875 31.78125 -1.421875 
Q 19.53125 -1.421875 13.0625 8.265625 
Q 6.59375 17.96875 6.59375 36.375 
Q 6.59375 54.828125 13.0625 64.515625 
Q 19.53125 74.21875 31.78125 74.21875 
z
" id="DejaVuSans-48"/>
        <path d="M 10.796875 72.90625 
L 49.515625 72.90625 
L 49.515625 64.59375 
L 19.828125 64.59375 
L 19.828125 46.734375 
Q 21.96875 47.46875 24.109375 47.828125 
Q 26.265625 48.1875 28.421875 48.1875 
Q 40.625 48.1875 47.75 41.5 
Q 54.890625 34.8125 54.890625 23.390625 
Q 54.890625 11.625 47.5625 5.09375 
Q 40.234375 -1.421875 26.90625 -1.421875 
Q 22.3125 -1.421875 17.546875 -0.640625 
Q 12.796875 0.140625 7.71875 1.703125 
L 7.71875 11.625 
Q 12.109375 9.234375 16.796875 8.0625 
Q 21.484375 6.890625 26.703125 6.890625 
Q 35.15625 6.890625 40.078125 11.328125 
Q 45.015625 15.765625 45.015625 23.390625 
Q 45.015625 31 40.078125 35.4375 
Q 35.15625 39.890625 26.703125 39.890625 
Q 22.75 39.890625 18.8125 39.015625 
Q 14.890625 38.140625 10.796875 36.28125 
z
" id="DejaVuSans-53"/>
       </defs>
       <use transform="translate(0 0.684375)" xlink:href="#DejaVuSans-49"/>
       <use transform="translate(63.623047 0.684375)" xlink:href="#DejaVuSans-48"/>
       <use transform="translate(128.203125 38.965625)scale(0.7)" xlink:href="#DejaVuSans-53"/>
      </g>
     </g>
    </g>
    <g id="xtick_2">
     <g id="line2d_2">
      <g>
       <use style="stroke:#000000;stroke-width:0.8;" x="138.763636" xlink:href="#mf41b18a7c6" y="307.584"/>
      </g>
     </g>
     <g id="text_2">
      <!-- $\mathdefault{10^{6}}$ -->
      <g transform="translate(129.963636 322.182437)scale(0.1 -0.1)">
       <defs>
        <path d="M 33.015625 40.375 
Q 26.375 40.375 22.484375 35.828125 
Q 18.609375 31.296875 18.609375 23.390625 
Q 18.609375 15.53125 22.484375 10.953125 
Q 26.375 6.390625 33.015625 6.390625 
Q 39.65625 6.390625 43.53125 10.953125 
Q 47.40625 15.53125 47.40625 23.390625 
Q 47.40625 31.296875 43.53125 35.828125 
Q 39.65625 40.375 33.015625 40.375 
z
M 52.59375 71.296875 
L 52.59375 62.3125 
Q 48.875 64.0625 45.09375 64.984375 
Q 41.3125 65.921875 37.59375 65.921875 
Q 27.828125 65.921875 22.671875 59.328125 
Q 17.53125 52.734375 16.796875 39.40625 
Q 19.671875 43.65625 24.015625 45.921875 
Q 28.375 48.1875 33.59375 48.1875 
Q 44.578125 48.1875 50.953125 41.515625 
Q 57.328125 34.859375 57.328125 23.390625 
Q 57.328125 12.15625 50.6875 5.359375 
Q 44.046875 -1.421875 33.015625 -1.421875 
Q 20.359375 -1.421875 13.671875 8.265625 
Q 6.984375 17.96875 6.984375 36.375 
Q 6.984375 53.65625 15.1875 63.9375 
Q 23.390625 74.21875 37.203125 74.21875 
Q 40.921875 74.21875 44.703125 73.484375 
Q 48.484375 72.75 52.59375 71.296875 
z
" id="DejaVuSans-54"/>
       </defs>
       <use transform="translate(0 0.765625)" xlink:href="#DejaVuSans-49"/>
       <use transform="translate(63.623047 0.765625)" xlink:href="#DejaVuSans-48"/>
       <use transform="translate(128.203125 39.046875)scale(0.7)" xlink:href="#DejaVuSans-54"/>
      </g>
     </g>
    </g>
    <g id="xtick_3">
     <g id="line2d_3">
      <g>
       <use style="stroke:#000000;stroke-width:0.8;" x="203.694545" xlink:href="#mf41b18a7c6" y="307.584"/>
      </g>
     </g>
     <g id="text_3">
      <!-- $\mathdefault{10^{7}}$ -->
      <g transform="translate(194.894545 322.182437)scale(0.1 -0.1)">
       <defs>
        <path d="M 8.203125 72.90625 
L 55.078125 72.90625 
L 55.078125 68.703125 
L 28.609375 0 
L 18.3125 0 
L 43.21875 64.59375 
L 8.203125 64.59375 
z
" id="DejaVuSans-55"/>
       </defs>
       <use transform="translate(0 0.684375)" xlink:href="#DejaVuSans-49"/>
       <use transform="translate(63.623047 0.684375)" xlink:href="#DejaVuSans-48"/>
       <use transform="translate(128.203125 38.965625)scale(0.7)" xlink:href="#DejaVuSans-55"/>
      </g>
     </g>
    </g>
    <g id="xtick_4">
     <g id="line2d_4">
      <g>
       <use style="stroke:#000000;stroke-width:0.8;" x="268.625455" xlink:href="#mf41b18a7c6" y="307.584"/>
      </g>
     </g>
     <g id="text_4">
      <!-- $\mathdefault{10^{8}}$ -->
      <g transform="translate(259.825455 322.182437)scale(0.1 -0.1)">
       <defs>
        <path d="M 31.78125 34.625 
Q 24.75 34.625 20.71875 30.859375 
Q 16.703125 27.09375 16.703125 20.515625 
Q 16.703125 13.921875 20.71875 10.15625 
Q 24.75 6.390625 31.78125 6.390625 
Q 38.8125 6.390625 42.859375 10.171875 
Q 46.921875 13.96875 46.921875 20.515625 
Q 46.921875 27.09375 42.890625 30.859375 
Q 38.875 34.625 31.78125 34.625 
z
M 21.921875 38.8125 
Q 15.578125 40.375 12.03125 44.71875 
Q 8.5 49.078125 8.5 55.328125 
Q 8.5 64.0625 14.71875 69.140625 
Q 20.953125 74.21875 31.78125 74.21875 
Q 42.671875 74.21875 48.875 69.140625 
Q 55.078125 64.0625 55.078125 55.328125 
Q 55.078125 49.078125 51.53125 44.71875 
Q 48 40.375 41.703125 38.8125 
Q 48.828125 37.15625 52.796875 32.3125 
Q 56.78125 27.484375 56.78125 20.515625 
Q 56.78125 9.90625 50.3125 4.234375 
Q 43.84375 -1.421875 31.78125 -1.421875 
Q 19.734375 -1.421875 13.25 4.234375 
Q 6.78125 9.90625 6.78125 20.515625 
Q 6.78125 27.484375 10.78125 32.3125 
Q 14.796875 37.15625 21.921875 38.8125 
z
M 18.3125 54.390625 
Q 18.3125 48.734375 21.84375 45.5625 
Q 25.390625 42.390625 31.78125 42.390625 
Q 38.140625 42.390625 41.71875 45.5625 
Q 45.3125 48.734375 45.3125 54.390625 
Q 45.3125 60.0625 41.71875 63.234375 
Q 38.140625 66.40625 31.78125 66.40625 
Q 25.390625 66.40625 21.84375 63.234375 
Q 18.3125 60.0625 18.3125 54.390625 
z
" id="DejaVuSans-56"/>
       </defs>
       <use transform="translate(0 0.765625)" xlink:href="#DejaVuSans-49"/>
       <use transform="translate(63.623047 0.765625)" xlink:href="#DejaVuSans-48"/>
       <use transform="translate(128.203125 39.046875)scale(0.7)" xlink:href="#DejaVuSans-56"/>
      </g>
     </g>
    </g>
    <g id="xtick_5">
     <g id="line2d_5">
      <g>
       <use style="stroke:#000000;stroke-width:0.8;" x="333.556364" xlink:href="#mf41b18a7c6" y="307.584"/>
      </g>
     </g>
     <g id="text_5">
      <!-- $\mathdefault{10^{9}}$ -->
      <g transform="translate(324.756364 322.182437)scale(0.1 -0.1)">
       <defs>
        <path d="M 10.984375 1.515625 
L 10.984375 10.5 
Q 14.703125 8.734375 18.5 7.8125 
Q 22.3125 6.890625 25.984375 6.890625 
Q 35.75 6.890625 40.890625 13.453125 
Q 46.046875 20.015625 46.78125 33.40625 
Q 43.953125 29.203125 39.59375 26.953125 
Q 35.25 24.703125 29.984375 24.703125 
Q 19.046875 24.703125 12.671875 31.3125 
Q 6.296875 37.9375 6.296875 49.421875 
Q 6.296875 60.640625 12.9375 67.421875 
Q 19.578125 74.21875 30.609375 74.21875 
Q 43.265625 74.21875 49.921875 64.515625 
Q 56.59375 54.828125 56.59375 36.375 
Q 56.59375 19.140625 48.40625 8.859375 
Q 40.234375 -1.421875 26.421875 -1.421875 
Q 22.703125 -1.421875 18.890625 -0.6875 
Q 15.09375 0.046875 10.984375 1.515625 
z
M 30.609375 32.421875 
Q 37.25 32.421875 41.125 36.953125 
Q 45.015625 41.5 45.015625 49.421875 
Q 45.015625 57.28125 41.125 61.84375 
Q 37.25 66.40625 30.609375 66.40625 
Q 23.96875 66.40625 20.09375 61.84375 
Q 16.21875 57.28125 16.21875 49.421875 
Q 16.21875 41.5 20.09375 36.953125 
Q 23.96875 32.421875 30.609375 32.421875 
z
" id="DejaVuSans-57"/>
       </defs>
       <use transform="translate(0 0.765625)" xlink:href="#DejaVuSans-49"/>
       <use transform="translate(63.623047 0.765625)" xlink:href="#DejaVuSans-48"/>
       <use transform="translate(128.203125 39.046875)scale(0.7)" xlink:href="#DejaVuSans-57"/>
      </g>
     </g>
    </g>
    <g id="xtick_6">
     <g id="line2d_6">
      <g>
       <use style="stroke:#000000;stroke-width:0.8;" x="398.487273" xlink:href="#mf41b18a7c6" y="307.584"/>
      </g>
     </g>
     <g id="text_6">
      <!-- $\mathdefault{10^{10}}$ -->
      <g transform="translate(387.437273 322.182437)scale(0.1 -0.1)">
       <use transform="translate(0 0.765625)" xlink:href="#DejaVuSans-49"/>
       <use transform="translate(63.623047 0.765625)" xlink:href="#DejaVuSans-48"/>
       <use transform="translate(128.203125 39.046875)scale(0.7)" xlink:href="#DejaVuSans-49"/>
       <use transform="translate(172.739258 39.046875)scale(0.7)" xlink:href="#DejaVuSans-48"/>
      </g>
     </g>
    </g>
    <g id="xtick_7">
     <g id="line2d_7">
      <defs>
       <path d="M 0 0 
L 0 2 
" id="mec6c42c0ea" style="stroke:#000000;stroke-width:0.6;"/>
      </defs>
      <g>
       <use style="stroke:#000000;stroke-width:0.6;" x="59.427886" xlink:href="#mec6c42c0ea" y="307.584"/>
      </g>
     </g>
    </g>
    <g id="xtick_8">
     <g id="line2d_8">
      <g>
       <use style="stroke:#000000;stroke-width:0.6;" x="63.774802" xlink:href="#mec6c42c0ea" y="307.584"/>
      </g>
     </g>
    </g>
    <g id="xtick_9">
     <g id="line2d_9">
      <g>
       <use style="stroke:#000000;stroke-width:0.6;" x="67.540272" xlink:href="#mec6c42c0ea" y="307.584"/>
      </g>
     </g>
    </g>
    <g id="xtick_10">
     <g id="line2d_10">
      <g>
       <use style="stroke:#000000;stroke-width:0.6;" x="70.861652" xlink:href="#mec6c42c0ea" y="307.584"/>
      </g>
     </g>
    </g>
    <g id="xtick_11">
     <g id="line2d_11">
      <g>
       <use style="stroke:#000000;stroke-width:0.6;" x="93.378879" xlink:href="#mec6c42c0ea" y="307.584"/>
      </g>
     </g>
    </g>
    <g id="xtick_12">
     <g id="line2d_12">
      <g>
       <use style="stroke:#000000;stroke-width:0.6;" x="104.812644" xlink:href="#mec6c42c0ea" y="307.584"/>
      </g>
     </g>
    </g>
    <g id="xtick_13">
     <g id="line2d_13">
      <g>
       <use style="stroke:#000000;stroke-width:0.6;" x="112.92503" xlink:href="#mec6c42c0ea" y="307.584"/>
      </g>
     </g>
    </g>
    <g id="xtick_14">
     <g id="line2d_14">
      <g>
       <use style="stroke:#000000;stroke-width:0.6;" x="119.217485" xlink:href="#mec6c42c0ea" y="307.584"/>
      </g>
     </g>
    </g>
    <g id="xtick_15">
     <g id="line2d_15">
      <g>
       <use style="stroke:#000000;stroke-width:0.6;" x="124.358795" xlink:href="#mec6c42c0ea" y="307.584"/>
      </g>
     </g>
    </g>
    <g id="xtick_16">
     <g id="line2d_16">
      <g>
       <use style="stroke:#000000;stroke-width:0.6;" x="128.705711" xlink:href="#mec6c42c0ea" y="307.584"/>
      </g>
     </g>
    </g>
    <g id="xtick_17">
     <g id="line2d_17">
      <g>
       <use style="stroke:#000000;stroke-width:0.6;" x="132.471181" xlink:href="#mec6c42c0ea" y="307.584"/>
      </g>
     </g>
    </g>
    <g id="xtick_18">
     <g id="line2d_18">
      <g>
       <use style="stroke:#000000;stroke-width:0.6;" x="135.792561" xlink:href="#mec6c42c0ea" y="307.584"/>
      </g>
     </g>
    </g>
    <g id="xtick_19">
     <g id="line2d_19">
      <g>
       <use style="stroke:#000000;stroke-width:0.6;" x="158.309788" xlink:href="#mec6c42c0ea" y="307.584"/>
      </g>
     </g>
    </g>
    <g id="xtick_20">
     <g id="line2d_20">
      <g>
       <use style="stroke:#000000;stroke-width:0.6;" x="169.743553" xlink:href="#mec6c42c0ea" y="307.584"/>
      </g>
     </g>
    </g>
    <g id="xtick_21">
     <g id="line2d_21">
      <g>
       <use style="stroke:#000000;stroke-width:0.6;" x="177.855939" xlink:href="#mec6c42c0ea" y="307.584"/>
      </g>
     </g>
    </g>
    <g id="xtick_22">
     <g id="line2d_22">
      <g>
       <use style="stroke:#000000;stroke-width:0.6;" x="184.148394" xlink:href="#mec6c42c0ea" y="307.584"/>
      </g>
     </g>
    </g>
    <g id="xtick_23">
     <g id="line2d_23">
      <g>
       <use style="stroke:#000000;stroke-width:0.6;" x="189.289704" xlink:href="#mec6c42c0ea" y="307.584"/>
      </g>
     </g>
    </g>
    <g id="xtick_24">
     <g id="line2d_24">
      <g>
       <use style="stroke:#000000;stroke-width:0.6;" x="193.63662" xlink:href="#mec6c42c0ea" y="307.584"/>
      </g>
     </g>
    </g>
    <g id="xtick_25">
     <g id="line2d_25">
      <g>
       <use style="stroke:#000000;stroke-width:0.6;" x="197.40209" xlink:href="#mec6c42c0ea" y="307.584"/>
      </g>
     </g>
    </g>
    <g id="xtick_26">
     <g id="line2d_26">
      <g>
       <use style="stroke:#000000;stroke-width:0.6;" x="200.72347" xlink:href="#mec6c42c0ea" y="307.584"/>
      </g>
     </g>
    </g>
    <g id="xtick_27">
     <g id="line2d_27">
      <g>
       <use style="stroke:#000000;stroke-width:0.6;" x="223.240697" xlink:href="#mec6c42c0ea" y="307.584"/>
      </g>
     </g>
    </g>
    <g id="xtick_28">
     <g id="line2d_28">
      <g>
       <use style="stroke:#000000;stroke-width:0.6;" x="234.674462" xlink:href="#mec6c42c0ea" y="307.584"/>
      </g>
     </g>
    </g>
    <g id="xtick_29">
     <g id="line2d_29">
      <g>
       <use style="stroke:#000000;stroke-width:0.6;" x="242.786848" xlink:href="#mec6c42c0ea" y="307.584"/>
      </g>
     </g>
    </g>
    <g id="xtick_30">
     <g id="line2d_30">
      <g>
       <use style="stroke:#000000;stroke-width:0.6;" x="249.079303" xlink:href="#mec6c42c0ea" y="307.584"/>
      </g>
     </g>
    </g>
    <g id="xtick_31">
     <g id="line2d_31">
      <g>
       <use style="stroke:#000000;stroke-width:0.6;" x="254.220614" xlink:href="#mec6c42c0ea" y="307.584"/>
      </g>
     </g>
    </g>
    <g id="xtick_32">
     <g id="line2d_32">
      <g>
       <use style="stroke:#000000;stroke-width:0.6;" x="258.567529" xlink:href="#mec6c42c0ea" y="307.584"/>
      </g>
     </g>
    </g>
    <g id="xtick_33">
     <g id="line2d_33">
      <g>
       <use style="stroke:#000000;stroke-width:0.6;" x="262.332999" xlink:href="#mec6c42c0ea" y="307.584"/>
      </g>
     </g>
    </g>
    <g id="xtick_34">
     <g id="line2d_34">
      <g>
       <use style="stroke:#000000;stroke-width:0.6;" x="265.654379" xlink:href="#mec6c42c0ea" y="307.584"/>
      </g>
     </g>
    </g>
    <g id="xtick_35">
     <g id="line2d_35">
      <g>
       <use style="stroke:#000000;stroke-width:0.6;" x="288.171606" xlink:href="#mec6c42c0ea" y="307.584"/>
      </g>
     </g>
    </g>
    <g id="xtick_36">
     <g id="line2d_36">
      <g>
       <use style="stroke:#000000;stroke-width:0.6;" x="299.605371" xlink:href="#mec6c42c0ea" y="307.584"/>
      </g>
     </g>
    </g>
    <g id="xtick_37">
     <g id="line2d_37">
      <g>
       <use style="stroke:#000000;stroke-width:0.6;" x="307.717757" xlink:href="#mec6c42c0ea" y="307.584"/>
      </g>
     </g>
    </g>
    <g id="xtick_38">
     <g id="line2d_38">
      <g>
       <use style="stroke:#000000;stroke-width:0.6;" x="314.010212" xlink:href="#mec6c42c0ea" y="307.584"/>
      </g>
     </g>
    </g>
    <g id="xtick_39">
     <g id="line2d_39">
      <g>
       <use style="stroke:#000000;stroke-width:0.6;" x="319.151523" xlink:href="#mec6c42c0ea" y="307.584"/>
      </g>
     </g>
    </g>
    <g id="xtick_40">
     <g id="line2d_40">
      <g>
       <use style="stroke:#000000;stroke-width:0.6;" x="323.498439" xlink:href="#mec6c42c0ea" y="307.584"/>
      </g>
     </g>
    </g>
    <g id="xtick_41">
     <g id="line2d_41">
      <g>
       <use style="stroke:#000000;stroke-width:0.6;" x="327.263908" xlink:href="#mec6c42c0ea" y="307.584"/>
      </g>
     </g>
    </g>
    <g id="xtick_42">
     <g id="line2d_42">
      <g>
       <use style="stroke:#000000;stroke-width:0.6;" x="330.585288" xlink:href="#mec6c42c0ea" y="307.584"/>
      </g>
     </g>
    </g>
    <g id="xtick_43">
     <g id="line2d_43">
      <g>
       <use style="stroke:#000000;stroke-width:0.6;" x="353.102515" xlink:href="#mec6c42c0ea" y="307.584"/>
      </g>
     </g>
    </g>
    <g id="xtick_44">
     <g id="line2d_44">
      <g>
       <use style="stroke:#000000;stroke-width:0.6;" x="364.53628" xlink:href="#mec6c42c0ea" y="307.584"/>
      </g>
     </g>
    </g>
    <g id="xtick_45">
     <g id="line2d_45">
      <g>
       <use style="stroke:#000000;stroke-width:0.6;" x="372.648666" xlink:href="#mec6c42c0ea" y="307.584"/>
      </g>
     </g>
    </g>
    <g id="xtick_46">
     <g id="line2d_46">
      <g>
       <use style="stroke:#000000;stroke-width:0.6;" x="378.941121" xlink:href="#mec6c42c0ea" y="307.584"/>
      </g>
     </g>
    </g>
    <g id="xtick_47">
     <g id="line2d_47">
      <g>
       <use style="stroke:#000000;stroke-width:0.6;" x="384.082432" xlink:href="#mec6c42c0ea" y="307.584"/>
      </g>
     </g>
    </g>
    <g id="xtick_48">
     <g id="line2d_48">
      <g>
       <use style="stroke:#000000;stroke-width:0.6;" x="388.429348" xlink:href="#mec6c42c0ea" y="307.584"/>
      </g>
     </g>
    </g>
    <g id="xtick_49">
     <g id="line2d_49">
      <g>
       <use style="stroke:#000000;stroke-width:0.6;" x="392.194817" xlink:href="#mec6c42c0ea" y="307.584"/>
      </g>
     </g>
    </g>
    <g id="xtick_50">
     <g id="line2d_50">
      <g>
       <use style="stroke:#000000;stroke-width:0.6;" x="395.516197" xlink:href="#mec6c42c0ea" y="307.584"/>
      </g>
     </g>
    </g>
   </g>
   <g id="matplotlib.axis_2">
    <g id="ytick_1">
     <g id="line2d_51">
      <defs>
       <path d="M 0 0 
L -3.5 0 
" id="m50077c7422" style="stroke:#000000;stroke-width:0.8;"/>
      </defs>
      <g>
       <use style="stroke:#000000;stroke-width:0.8;" x="57.6" xlink:href="#m50077c7422" y="296.84703"/>
      </g>
     </g>
     <g id="text_7">
      <!-- 0.00 -->
      <g transform="translate(28.334375 300.646249)scale(0.1 -0.1)">
       <defs>
        <path d="M 10.6875 12.40625 
L 21 12.40625 
L 21 0 
L 10.6875 0 
z
" id="DejaVuSans-46"/>
       </defs>
       <use xlink:href="#DejaVuSans-48"/>
       <use x="63.623047" xlink:href="#DejaVuSans-46"/>
       <use x="95.410156" xlink:href="#DejaVuSans-48"/>
       <use x="159.033203" xlink:href="#DejaVuSans-48"/>
      </g>
     </g>
    </g>
    <g id="ytick_2">
     <g id="line2d_52">
      <g>
       <use style="stroke:#000000;stroke-width:0.8;" x="57.6" xlink:href="#m50077c7422" y="242.678615"/>
      </g>
     </g>
     <g id="text_8">
      <!-- 0.01 -->
      <g transform="translate(28.334375 246.477834)scale(0.1 -0.1)">
       <use xlink:href="#DejaVuSans-48"/>
       <use x="63.623047" xlink:href="#DejaVuSans-46"/>
       <use x="95.410156" xlink:href="#DejaVuSans-48"/>
       <use x="159.033203" xlink:href="#DejaVuSans-49"/>
      </g>
     </g>
    </g>
    <g id="ytick_3">
     <g id="line2d_53">
      <g>
       <use style="stroke:#000000;stroke-width:0.8;" x="57.6" xlink:href="#m50077c7422" y="188.5102"/>
      </g>
     </g>
     <g id="text_9">
      <!-- 0.02 -->
      <g transform="translate(28.334375 192.309419)scale(0.1 -0.1)">
       <defs>
        <path d="M 19.1875 8.296875 
L 53.609375 8.296875 
L 53.609375 0 
L 7.328125 0 
L 7.328125 8.296875 
Q 12.9375 14.109375 22.625 23.890625 
Q 32.328125 33.6875 34.8125 36.53125 
Q 39.546875 41.84375 41.421875 45.53125 
Q 43.3125 49.21875 43.3125 52.78125 
Q 43.3125 58.59375 39.234375 62.25 
Q 35.15625 65.921875 28.609375 65.921875 
Q 23.96875 65.921875 18.8125 64.3125 
Q 13.671875 62.703125 7.8125 59.421875 
L 7.8125 69.390625 
Q 13.765625 71.78125 18.9375 73 
Q 24.125 74.21875 28.421875 74.21875 
Q 39.75 74.21875 46.484375 68.546875 
Q 53.21875 62.890625 53.21875 53.421875 
Q 53.21875 48.921875 51.53125 44.890625 
Q 49.859375 40.875 45.40625 35.40625 
Q 44.1875 33.984375 37.640625 27.21875 
Q 31.109375 20.453125 19.1875 8.296875 
z
" id="DejaVuSans-50"/>
       </defs>
       <use xlink:href="#DejaVuSans-48"/>
       <use x="63.623047" xlink:href="#DejaVuSans-46"/>
       <use x="95.410156" xlink:href="#DejaVuSans-48"/>
       <use x="159.033203" xlink:href="#DejaVuSans-50"/>
      </g>
     </g>
    </g>
    <g id="ytick_4">
     <g id="line2d_54">
      <g>
       <use style="stroke:#000000;stroke-width:0.8;" x="57.6" xlink:href="#m50077c7422" y="134.341785"/>
      </g>
     </g>
     <g id="text_10">
      <!-- 0.03 -->
      <g transform="translate(28.334375 138.141004)scale(0.1 -0.1)">
       <defs>
        <path d="M 40.578125 39.3125 
Q 47.65625 37.796875 51.625 33 
Q 55.609375 28.21875 55.609375 21.1875 
Q 55.609375 10.40625 48.1875 4.484375 
Q 40.765625 -1.421875 27.09375 -1.421875 
Q 22.515625 -1.421875 17.65625 -0.515625 
Q 12.796875 0.390625 7.625 2.203125 
L 7.625 11.71875 
Q 11.71875 9.328125 16.59375 8.109375 
Q 21.484375 6.890625 26.8125 6.890625 
Q 36.078125 6.890625 40.9375 10.546875 
Q 45.796875 14.203125 45.796875 21.1875 
Q 45.796875 27.640625 41.28125 31.265625 
Q 36.765625 34.90625 28.71875 34.90625 
L 20.21875 34.90625 
L 20.21875 43.015625 
L 29.109375 43.015625 
Q 36.375 43.015625 40.234375 45.921875 
Q 44.09375 48.828125 44.09375 54.296875 
Q 44.09375 59.90625 40.109375 62.90625 
Q 36.140625 65.921875 28.71875 65.921875 
Q 24.65625 65.921875 20.015625 65.03125 
Q 15.375 64.15625 9.8125 62.3125 
L 9.8125 71.09375 
Q 15.4375 72.65625 20.34375 73.4375 
Q 25.25 74.21875 29.59375 74.21875 
Q 40.828125 74.21875 47.359375 69.109375 
Q 53.90625 64.015625 53.90625 55.328125 
Q 53.90625 49.265625 50.4375 45.09375 
Q 46.96875 40.921875 40.578125 39.3125 
z
" id="DejaVuSans-51"/>
       </defs>
       <use xlink:href="#DejaVuSans-48"/>
       <use x="63.623047" xlink:href="#DejaVuSans-46"/>
       <use x="95.410156" xlink:href="#DejaVuSans-48"/>
       <use x="159.033203" xlink:href="#DejaVuSans-51"/>
      </g>
     </g>
    </g>
    <g id="ytick_5">
     <g id="line2d_55">
      <g>
       <use style="stroke:#000000;stroke-width:0.8;" x="57.6" xlink:href="#m50077c7422" y="80.17337"/>
      </g>
     </g>
     <g id="text_11">
      <!-- 0.04 -->
      <g transform="translate(28.334375 83.972589)scale(0.1 -0.1)">
       <defs>
        <path d="M 37.796875 64.3125 
L 12.890625 25.390625 
L 37.796875 25.390625 
z
M 35.203125 72.90625 
L 47.609375 72.90625 
L 47.609375 25.390625 
L 58.015625 25.390625 
L 58.015625 17.1875 
L 47.609375 17.1875 
L 47.609375 0 
L 37.796875 0 
L 37.796875 17.1875 
L 4.890625 17.1875 
L 4.890625 26.703125 
z
" id="DejaVuSans-52"/>
       </defs>
       <use xlink:href="#DejaVuSans-48"/>
       <use x="63.623047" xlink:href="#DejaVuSans-46"/>
       <use x="95.410156" xlink:href="#DejaVuSans-48"/>
       <use x="159.033203" xlink:href="#DejaVuSans-52"/>
      </g>
     </g>
    </g>
   </g>
   <g id="line2d_56">
    <path clip-path="url(#p28613d149c)" d="M 73.832727 295.488 
L 78.985974 295.451613 
L 84.139221 295.408318 
L 89.292468 295.357102 
L 94.445714 295.296378 
L 99.598961 295.224543 
L 104.752208 295.139577 
L 109.905455 295.038798 
L 115.058701 294.919566 
L 120.211948 294.777739 
L 125.365195 294.607729 
L 130.518442 294.403002 
L 135.671688 294.154975 
L 140.824935 293.852381 
L 145.978182 293.479398 
L 151.131429 293.01425 
L 156.284675 292.429783 
L 161.437922 291.687473 
L 166.591169 290.736554 
L 171.744416 289.505466 
L 176.897662 287.901141 
L 182.050909 285.795931 
L 187.204156 283.029334 
L 192.357403 279.400381 
L 197.510649 274.665946 
L 202.663896 268.571524 
L 207.817143 260.889365 
L 212.97039 251.490303 
L 218.123636 240.405032 
L 223.276883 227.904757 
L 228.43013 214.403861 
L 233.583377 200.417014 
L 238.736623 186.19657 
L 243.88987 171.51458 
L 249.043117 155.587051 
L 254.196364 137.67703 
L 259.34961 117.58636 
L 264.502857 96.495611 
L 269.656104 76.739977 
L 274.809351 61.813793 
L 279.962597 54.689471 
L 285.115844 56.495264 
L 290.269091 66.326912 
L 295.422338 80.756104 
L 300.575584 96.485261 
L 305.728831 111.177262 
L 310.882078 124.211628 
L 316.035325 135.47068 
L 321.188571 145.484759 
L 326.341818 154.577896 
L 331.495065 162.655657 
L 336.648312 169.714307 
L 341.801558 175.526545 
L 346.954805 179.70655 
L 352.108052 181.727404 
L 357.261299 180.000454 
L 362.414545 168.865689 
L 367.567792 197.613247 
L 372.721039 196.25919 
L 377.874286 193.93539 
L 383.027532 167.040421 
L 388.180779 210.459019 
L 393.334026 196.694974 
L 398.487273 217.036119 
" style="fill:none;stroke:#1f77b4;stroke-linecap:square;stroke-width:1.5;"/>
   </g>
   <g id="line2d_57">
    <path clip-path="url(#p28613d149c)" d="M 73.832727 217.847716 
L 78.985974 217.813227 
L 84.139221 217.780363 
L 89.292468 217.737985 
L 94.445714 217.684607 
L 99.598961 217.627429 
L 104.752208 217.557363 
L 109.905455 217.475309 
L 115.058701 217.377855 
L 120.211948 217.270661 
L 125.365195 217.142235 
L 130.518442 216.99731 
L 135.671688 216.835257 
L 140.824935 216.653062 
L 145.978182 216.445013 
L 151.131429 216.222997 
L 156.284675 215.968641 
L 161.437922 215.711044 
L 166.591169 215.396664 
L 171.744416 215.069127 
L 176.897662 214.712837 
L 182.050909 214.30706 
L 187.204156 213.850911 
L 192.357403 213.310129 
L 197.510649 212.642565 
L 202.663896 211.799344 
L 207.817143 210.705651 
L 212.97039 209.260292 
L 218.123636 207.372234 
L 223.276883 204.95886 
L 228.43013 201.970245 
L 233.583377 198.461113 
L 238.736623 194.542681 
L 243.88987 190.429243 
L 249.043117 186.390659 
L 254.196364 182.831291 
L 259.34961 180.189107 
L 264.502857 178.89872 
L 269.656104 179.180257 
L 274.809351 181.174601 
L 279.962597 184.618861 
L 285.115844 188.888928 
L 290.269091 193.420709 
L 295.422338 197.566148 
L 300.575584 201.150441 
L 305.728831 204.195588 
L 310.882078 207.032513 
L 316.035325 209.846486 
L 321.188571 212.907522 
L 326.341818 216.319254 
L 331.495065 219.828135 
L 336.648312 223.255497 
L 341.801558 226.311388 
L 346.954805 228.655083 
L 352.108052 229.947891 
L 357.261299 229.251344 
L 362.414545 223.671696 
L 367.567792 239.354351 
L 372.721039 238.3195 
L 377.874286 236.120322 
L 383.027532 219.281138 
L 388.180779 243.993393 
L 393.334026 234.609419 
L 398.487273 247.221135 
" style="fill:none;stroke:#ff7f0e;stroke-linecap:square;stroke-width:1.5;"/>
   </g>
   <g id="line2d_58">
    <path clip-path="url(#p28613d149c)" d="M 73.832727 250.129321 
L 78.985974 250.110053 
L 84.139221 250.098886 
L 89.292468 250.072941 
L 94.445714 250.043824 
L 99.598961 250.014218 
L 104.752208 249.980083 
L 109.905455 249.93671 
L 115.058701 249.888244 
L 120.211948 249.837043 
L 125.365195 249.774551 
L 130.518442 249.694107 
L 135.671688 249.611018 
L 140.824935 249.514843 
L 145.978182 249.39516 
L 151.131429 249.259854 
L 156.284675 249.099187 
L 161.437922 248.909289 
L 166.591169 248.682248 
L 171.744416 248.416886 
L 176.897662 248.101937 
L 182.050909 247.730508 
L 187.204156 247.288235 
L 192.357403 246.770709 
L 197.510649 246.161851 
L 202.663896 245.438617 
L 207.817143 244.597048 
L 212.97039 243.621223 
L 218.123636 242.478452 
L 223.276883 241.149845 
L 228.43013 239.608165 
L 233.583377 237.805038 
L 238.736623 235.703772 
L 243.88987 233.191873 
L 249.043117 230.146951 
L 254.196364 226.43528 
L 259.34961 221.9416 
L 264.502857 216.634079 
L 269.656104 210.745411 
L 274.809351 204.796562 
L 279.962597 199.357851 
L 285.115844 194.227109 
L 290.269091 188.7028 
L 295.422338 181.790288 
L 300.575584 173.255147 
L 305.728831 163.624448 
L 310.882078 154.343005 
L 316.035325 146.746685 
L 321.188571 141.917303 
L 326.341818 140.324443 
L 331.495065 141.197758 
L 336.648312 143.837883 
L 341.801558 147.272262 
L 346.954805 150.455455 
L 352.108052 152.346493 
L 357.261299 151.208478 
L 362.414545 143.024464 
L 367.567792 171.141313 
L 372.721039 169.508583 
L 377.874286 164.915961 
L 383.027532 132.960368 
L 388.180779 180.926913 
L 393.334026 159.877527 
L 398.487273 185.590248 
" style="fill:none;stroke:#2ca02c;stroke-linecap:square;stroke-width:1.5;"/>
   </g>
   <g id="line2d_59">
    <path clip-path="url(#p28613d149c)" d="M 73.832727 295.451362 
L 78.985974 295.401969 
L 84.139221 295.343803 
L 89.292468 295.274975 
L 94.445714 295.193694 
L 99.598961 295.097392 
L 104.752208 294.982937 
L 109.905455 294.846768 
L 115.058701 294.684184 
L 120.211948 294.488507 
L 125.365195 294.251291 
L 130.518442 293.962106 
L 135.671688 293.605223 
L 140.824935 293.161666 
L 145.978182 292.604058 
L 151.131429 291.896936 
L 156.284675 290.990066 
L 161.437922 289.816405 
L 166.591169 288.287642 
L 171.744416 286.283541 
L 176.897662 283.646915 
L 182.050909 280.179692 
L 187.204156 275.650854 
L 192.357403 269.806356 
L 197.510649 262.41626 
L 202.663896 253.333229 
L 207.817143 242.572227 
L 212.97039 230.342887 
L 218.123636 217.054241 
L 223.276883 203.18398 
L 228.43013 188.951837 
L 233.583377 174.146045 
L 238.736623 158.023051 
L 243.88987 139.75983 
L 249.043117 119.164551 
L 254.196364 97.435751 
L 259.34961 76.958853 
L 264.502857 61.436784 
L 269.656104 54.011951 
L 274.809351 55.937104 
L 279.962597 66.251224 
L 285.115844 81.368702 
L 290.269091 97.776237 
L 295.422338 113.047774 
L 300.575584 126.594176 
L 305.728831 138.395791 
L 310.882078 149.048028 
L 316.035325 158.738269 
L 321.188571 167.668402 
L 326.341818 175.644234 
L 331.495065 182.6032 
L 336.648312 188.357898 
L 341.801558 192.879284 
L 346.954805 195.985603 
L 352.108052 197.305242 
L 357.261299 195.744461 
L 362.414545 186.756082 
L 367.567792 207.40547 
L 372.721039 206.147277 
L 377.874286 204.812919 
L 383.027532 186.256885 
L 388.180779 218.857193 
L 393.334026 208.520959 
L 398.487273 225.566176 
" style="fill:none;stroke:#d62728;stroke-linecap:square;stroke-width:1.5;"/>
   </g>
   <g id="line2d_60">
    <path clip-path="url(#p28613d149c)" d="M 73.832727 215.862106 
L 78.985974 215.816188 
L 84.139221 215.767833 
L 89.292468 215.710265 
L 94.445714 215.637187 
L 99.598961 215.553854 
L 104.752208 215.461351 
L 109.905455 215.349501 
L 115.058701 215.226534 
L 120.211948 215.078861 
L 125.365195 214.91455 
L 130.518442 214.729516 
L 135.671688 214.526987 
L 140.824935 214.302955 
L 145.978182 214.053593 
L 151.131429 213.783503 
L 156.284675 213.479058 
L 161.437922 213.153393 
L 166.591169 212.798456 
L 171.744416 212.405309 
L 176.897662 211.952206 
L 182.050909 211.425965 
L 187.204156 210.774218 
L 192.357403 209.947608 
L 197.510649 208.866096 
L 202.663896 207.445961 
L 207.817143 205.576865 
L 212.97039 203.162495 
L 218.123636 200.162321 
L 223.276883 196.617504 
L 228.43013 192.630627 
L 233.583377 188.430362 
L 238.736623 184.270012 
L 243.88987 180.585313 
L 249.043117 177.817605 
L 254.196364 176.42149 
L 259.34961 176.665695 
L 264.502857 178.687013 
L 269.656104 182.216272 
L 274.809351 186.616067 
L 279.962597 191.281927 
L 285.115844 195.521129 
L 290.269091 199.192964 
L 295.422338 202.309334 
L 300.575584 205.244842 
L 305.728831 208.259376 
L 310.882078 211.667145 
L 316.035325 215.453046 
L 321.188571 219.544715 
L 326.341818 223.609604 
L 331.495065 227.442314 
L 336.648312 230.808664 
L 341.801558 233.585184 
L 346.954805 235.610156 
L 352.108052 236.63096 
L 357.261299 236.001105 
L 362.414545 231.060417 
L 367.567792 243.417267 
L 372.721039 242.507679 
L 377.874286 240.974986 
L 383.027532 228.357791 
L 388.180779 247.714856 
L 393.334026 240.341345 
L 398.487273 250.948909 
" style="fill:none;stroke:#9467bd;stroke-linecap:square;stroke-width:1.5;"/>
   </g>
   <g id="line2d_61">
    <path clip-path="url(#p28613d149c)" d="M 73.832727 248.961304 
L 78.985974 248.941399 
L 84.139221 248.91021 
L 89.292468 248.881198 
L 94.445714 248.843966 
L 99.598961 248.796896 
L 104.752208 248.753832 
L 109.905455 248.695296 
L 115.058701 248.634107 
L 120.211948 248.555749 
L 125.365195 248.470877 
L 130.518442 248.369373 
L 135.671688 248.248784 
L 140.824935 248.107626 
L 145.978182 247.946797 
L 151.131429 247.752252 
L 156.284675 247.525448 
L 161.437922 247.257902 
L 166.591169 246.935972 
L 171.744416 246.565426 
L 176.897662 246.11815 
L 182.050909 245.595832 
L 187.204156 244.981648 
L 192.357403 244.249369 
L 197.510649 243.407985 
L 202.663896 242.423876 
L 207.817143 241.280736 
L 212.97039 239.953272 
L 218.123636 238.407683 
L 223.276883 236.616869 
L 228.43013 234.52992 
L 233.583377 232.042506 
L 238.736623 229.024769 
L 243.88987 225.365126 
L 249.043117 220.926452 
L 254.196364 215.679181 
L 259.34961 209.841568 
L 264.502857 203.957982 
L 269.656104 198.609011 
L 274.809351 193.622758 
L 279.962597 188.287307 
L 285.115844 181.578024 
L 290.269091 173.264539 
L 295.422338 163.950557 
L 300.575584 155.176333 
L 305.728831 148.374418 
L 310.882078 144.610246 
L 316.035325 144.13578 
L 321.188571 146.489572 
L 326.341818 150.65854 
L 331.495065 155.756343 
L 336.648312 160.912568 
L 341.801558 165.593524 
L 346.954805 169.2119 
L 352.108052 171.162777 
L 357.261299 170.112349 
L 362.414545 161.270779 
L 367.567792 186.364197 
L 372.721039 184.876439 
L 377.874286 181.460347 
L 383.027532 155.591824 
L 388.180779 194.142382 
L 393.334026 177.81903 
L 398.487273 198.779529 
" style="fill:none;stroke:#8c564b;stroke-linecap:square;stroke-width:1.5;"/>
   </g>
   <g id="line2d_62">
    <path clip-path="url(#p28613d149c)" d="M 73.832727 295.414442 
L 78.985974 295.355791 
L 84.139221 295.286504 
L 89.292468 295.204593 
L 94.445714 295.10768 
L 99.598961 294.992538 
L 104.752208 294.855421 
L 109.905455 294.691366 
L 115.058701 294.494138 
L 120.211948 294.254573 
L 125.365195 293.962049 
L 130.518442 293.600775 
L 135.671688 293.151124 
L 140.824935 292.585637 
L 145.978182 291.866787 
L 151.131429 290.944303 
L 156.284675 289.749897 
L 161.437922 288.190309 
L 166.591169 286.143523 
L 171.744416 283.451275 
L 176.897662 279.911513 
L 182.050909 275.290018 
L 187.204156 269.33262 
L 192.357403 261.821389 
L 197.510649 252.613039 
L 202.663896 241.742685 
L 207.817143 229.453133 
L 212.97039 216.138969 
L 218.123636 202.255216 
L 223.276883 187.968158 
L 228.43013 172.982037 
L 233.583377 156.464933 
L 238.736623 137.682512 
L 243.88987 116.577856 
L 249.043117 94.563809 
L 254.196364 74.349474 
L 259.34961 59.640857 
L 264.502857 53.568 
L 269.656104 57.050563 
L 274.809351 68.617353 
L 279.962597 84.483779 
L 285.115844 101.021399 
L 290.269091 116.331796 
L 295.422338 129.721736 
L 300.575584 141.533688 
L 305.728831 152.279684 
L 310.882078 162.130369 
L 316.035325 171.192298 
L 321.188571 179.363025 
L 326.341818 186.486393 
L 331.495065 192.474475 
L 336.648312 197.297365 
L 341.801558 200.97663 
L 346.954805 203.410305 
L 352.108052 204.344217 
L 357.261299 202.886733 
L 362.414545 195.291559 
L 367.567792 212.190715 
L 372.721039 211.016334 
L 377.874286 209.860746 
L 383.027532 195.221585 
L 388.180779 224.429029 
L 393.334026 213.750539 
L 398.487273 232.347149 
" style="fill:none;stroke:#e377c2;stroke-linecap:square;stroke-width:1.5;"/>
   </g>
   <g id="line2d_63">
    <path clip-path="url(#p28613d149c)" d="M 73.832727 214.576952 
L 78.985974 214.521851 
L 84.139221 214.461429 
L 89.292468 214.391704 
L 94.445714 214.306609 
L 99.598961 214.216673 
L 104.752208 214.097649 
L 109.905455 213.9643 
L 115.058701 213.817086 
L 120.211948 213.647647 
L 125.365195 213.46673 
L 130.518442 213.261714 
L 135.671688 213.030847 
L 140.824935 212.777667 
L 145.978182 212.508241 
L 151.131429 212.204231 
L 156.284675 211.882282 
L 161.437922 211.520576 
L 166.591169 211.126991 
L 171.744416 210.670351 
L 176.897662 210.137871 
L 182.050909 209.470061 
L 187.204156 208.631085 
L 192.357403 207.516668 
L 197.510649 206.041766 
L 202.663896 204.110886 
L 207.817143 201.617875 
L 212.97039 198.520255 
L 218.123636 194.873566 
L 223.276883 190.807525 
L 228.43013 186.546332 
L 233.583377 182.381683 
L 238.736623 178.737804 
L 243.88987 176.099945 
L 249.043117 174.919745 
L 254.196364 175.425422 
L 259.34961 177.71351 
L 264.502857 181.482791 
L 269.656104 186.021659 
L 274.809351 190.705134 
L 279.962597 194.918586 
L 285.115844 198.474668 
L 290.269091 201.60183 
L 295.422338 204.545036 
L 300.575584 207.712564 
L 305.728831 211.367653 
L 310.882078 215.420435 
L 316.035325 219.738546 
L 321.188571 224.058166 
L 326.341818 228.107398 
L 331.495065 231.704167 
L 336.648312 234.738836 
L 341.801558 237.148994 
L 346.954805 238.862863 
L 352.108052 239.698265 
L 357.261299 239.120372 
L 362.414545 234.820838 
L 367.567792 245.340493 
L 372.721039 244.502864 
L 377.874286 243.121573 
L 383.027532 232.748794 
L 388.180779 250.349131 
L 393.334026 242.744716 
L 398.487273 254.308508 
" style="fill:none;stroke:#7f7f7f;stroke-linecap:square;stroke-width:1.5;"/>
   </g>
   <g id="line2d_64">
    <path clip-path="url(#p28613d149c)" d="M 73.832727 248.220546 
L 78.985974 248.190577 
L 84.139221 248.156929 
L 89.292468 248.116266 
L 94.445714 248.076964 
L 99.598961 248.02538 
L 104.752208 247.967182 
L 109.905455 247.903477 
L 115.058701 247.820172 
L 120.211948 247.733515 
L 125.365195 247.627645 
L 130.518442 247.504271 
L 135.671688 247.359103 
L 140.824935 247.188125 
L 145.978182 246.992426 
L 151.131429 246.751883 
L 156.284675 246.47565 
L 161.437922 246.142374 
L 166.591169 245.756439 
L 171.744416 245.293939 
L 176.897662 244.750058 
L 182.050909 244.122917 
L 187.204156 243.367714 
L 192.357403 242.499438 
L 197.510649 241.490395 
L 202.663896 240.310348 
L 207.817143 238.94822 
L 212.97039 237.364597 
L 218.123636 235.531011 
L 223.276883 233.387561 
L 228.43013 230.849386 
L 233.583377 227.755959 
L 238.736623 223.997244 
L 243.88987 219.452306 
L 249.043117 214.118918 
L 254.196364 208.248502 
L 259.34961 202.47725 
L 264.502857 197.277102 
L 269.656104 192.348271 
L 274.809351 186.911339 
L 279.962597 180.02279 
L 285.115844 171.564826 
L 290.269091 162.401767 
L 295.422338 154.040495 
L 300.575584 148.063167 
L 305.728831 145.417461 
L 310.882078 145.983442 
L 316.035325 149.227819 
L 321.188571 154.210247 
L 326.341818 159.998946 
L 331.495065 165.757979 
L 336.648312 171.027982 
L 341.801558 175.437397 
L 346.954805 178.697087 
L 352.108052 180.39197 
L 357.261299 179.43324 
L 362.414545 171.434782 
L 367.567792 193.288139 
L 372.721039 191.886765 
L 377.874286 188.762151 
L 383.027532 167.062313 
L 388.180779 201.650014 
L 393.334026 185.55912 
L 398.487273 207.53711 
" style="fill:none;stroke:#bcbd22;stroke-linecap:square;stroke-width:1.5;"/>
   </g>
   <g id="patch_3">
    <path d="M 57.6 307.584 
L 57.6 41.472 
" style="fill:none;stroke:#000000;stroke-linecap:square;stroke-linejoin:miter;stroke-width:0.8;"/>
   </g>
   <g id="patch_4">
    <path d="M 414.72 307.584 
L 414.72 41.472 
" style="fill:none;stroke:#000000;stroke-linecap:square;stroke-linejoin:miter;stroke-width:0.8;"/>
   </g>
   <g id="patch_5">
    <path d="M 57.6 307.584 
L 414.72 307.584 
" style="fill:none;stroke:#000000;stroke-linecap:square;stroke-linejoin:miter;stroke-width:0.8;"/>
   </g>
   <g id="patch_6">
    <path d="M 57.6 41.472 
L 414.72 41.472 
" style="fill:none;stroke:#000000;stroke-linecap:square;stroke-linejoin:miter;stroke-width:0.8;"/>
   </g>
   <g id="legend_1">
    <g id="patch_7">
     <path d="M 64.6 184.07825 
L 305.296875 184.07825 
Q 307.296875 184.07825 307.296875 182.07825 
L 307.296875 48.472 
Q 307.296875 46.472 305.296875 46.472 
L 64.6 46.472 
Q 62.6 46.472 62.6 48.472 
L 62.6 182.07825 
Q 62.6 184.07825 64.6 184.07825 
z
" style="fill:#ffffff;opacity:0.8;stroke:#cccccc;stroke-linejoin:miter;"/>
    </g>
    <g id="line2d_65">
     <path d="M 66.6 54.570438 
L 86.6 54.570438 
" style="fill:none;stroke:#1f77b4;stroke-linecap:square;stroke-width:1.5;"/>
    </g>
    <g id="line2d_66"/>
    <g id="text_12">
     <!-- NON_OVERLAPPING_EF_10_matern12.jld2 -->
     <g transform="translate(94.6 58.070438)scale(0.1 -0.1)">
      <defs>
       <path d="M 9.8125 72.90625 
L 23.09375 72.90625 
L 55.421875 11.921875 
L 55.421875 72.90625 
L 64.984375 72.90625 
L 64.984375 0 
L 51.703125 0 
L 19.390625 60.984375 
L 19.390625 0 
L 9.8125 0 
z
" id="DejaVuSans-78"/>
       <path d="M 39.40625 66.21875 
Q 28.65625 66.21875 22.328125 58.203125 
Q 16.015625 50.203125 16.015625 36.375 
Q 16.015625 22.609375 22.328125 14.59375 
Q 28.65625 6.59375 39.40625 6.59375 
Q 50.140625 6.59375 56.421875 14.59375 
Q 62.703125 22.609375 62.703125 36.375 
Q 62.703125 50.203125 56.421875 58.203125 
Q 50.140625 66.21875 39.40625 66.21875 
z
M 39.40625 74.21875 
Q 54.734375 74.21875 63.90625 63.9375 
Q 73.09375 53.65625 73.09375 36.375 
Q 73.09375 19.140625 63.90625 8.859375 
Q 54.734375 -1.421875 39.40625 -1.421875 
Q 24.03125 -1.421875 14.8125 8.828125 
Q 5.609375 19.09375 5.609375 36.375 
Q 5.609375 53.65625 14.8125 63.9375 
Q 24.03125 74.21875 39.40625 74.21875 
z
" id="DejaVuSans-79"/>
       <path d="M 50.984375 -16.609375 
L 50.984375 -23.578125 
L -0.984375 -23.578125 
L -0.984375 -16.609375 
z
" id="DejaVuSans-95"/>
       <path d="M 28.609375 0 
L 0.78125 72.90625 
L 11.078125 72.90625 
L 34.1875 11.53125 
L 57.328125 72.90625 
L 67.578125 72.90625 
L 39.796875 0 
z
" id="DejaVuSans-86"/>
       <path d="M 9.8125 72.90625 
L 55.90625 72.90625 
L 55.90625 64.59375 
L 19.671875 64.59375 
L 19.671875 43.015625 
L 54.390625 43.015625 
L 54.390625 34.71875 
L 19.671875 34.71875 
L 19.671875 8.296875 
L 56.78125 8.296875 
L 56.78125 0 
L 9.8125 0 
z
" id="DejaVuSans-69"/>
       <path d="M 44.390625 34.1875 
Q 47.5625 33.109375 50.5625 29.59375 
Q 53.5625 26.078125 56.59375 19.921875 
L 66.609375 0 
L 56 0 
L 46.6875 18.703125 
Q 43.0625 26.03125 39.671875 28.421875 
Q 36.28125 30.8125 30.421875 30.8125 
L 19.671875 30.8125 
L 19.671875 0 
L 9.8125 0 
L 9.8125 72.90625 
L 32.078125 72.90625 
Q 44.578125 72.90625 50.734375 67.671875 
Q 56.890625 62.453125 56.890625 51.90625 
Q 56.890625 45.015625 53.6875 40.46875 
Q 50.484375 35.9375 44.390625 34.1875 
z
M 19.671875 64.796875 
L 19.671875 38.921875 
L 32.078125 38.921875 
Q 39.203125 38.921875 42.84375 42.21875 
Q 46.484375 45.515625 46.484375 51.90625 
Q 46.484375 58.296875 42.84375 61.546875 
Q 39.203125 64.796875 32.078125 64.796875 
z
" id="DejaVuSans-82"/>
       <path d="M 9.8125 72.90625 
L 19.671875 72.90625 
L 19.671875 8.296875 
L 55.171875 8.296875 
L 55.171875 0 
L 9.8125 0 
z
" id="DejaVuSans-76"/>
       <path d="M 34.1875 63.1875 
L 20.796875 26.90625 
L 47.609375 26.90625 
z
M 28.609375 72.90625 
L 39.796875 72.90625 
L 67.578125 0 
L 57.328125 0 
L 50.6875 18.703125 
L 17.828125 18.703125 
L 11.1875 0 
L 0.78125 0 
z
" id="DejaVuSans-65"/>
       <path d="M 19.671875 64.796875 
L 19.671875 37.40625 
L 32.078125 37.40625 
Q 38.96875 37.40625 42.71875 40.96875 
Q 46.484375 44.53125 46.484375 51.125 
Q 46.484375 57.671875 42.71875 61.234375 
Q 38.96875 64.796875 32.078125 64.796875 
z
M 9.8125 72.90625 
L 32.078125 72.90625 
Q 44.34375 72.90625 50.609375 67.359375 
Q 56.890625 61.8125 56.890625 51.125 
Q 56.890625 40.328125 50.609375 34.8125 
Q 44.34375 29.296875 32.078125 29.296875 
L 19.671875 29.296875 
L 19.671875 0 
L 9.8125 0 
z
" id="DejaVuSans-80"/>
       <path d="M 9.8125 72.90625 
L 19.671875 72.90625 
L 19.671875 0 
L 9.8125 0 
z
" id="DejaVuSans-73"/>
       <path d="M 59.515625 10.40625 
L 59.515625 29.984375 
L 43.40625 29.984375 
L 43.40625 38.09375 
L 69.28125 38.09375 
L 69.28125 6.78125 
Q 63.578125 2.734375 56.6875 0.65625 
Q 49.8125 -1.421875 42 -1.421875 
Q 24.90625 -1.421875 15.25 8.5625 
Q 5.609375 18.5625 5.609375 36.375 
Q 5.609375 54.25 15.25 64.234375 
Q 24.90625 74.21875 42 74.21875 
Q 49.125 74.21875 55.546875 72.453125 
Q 61.96875 70.703125 67.390625 67.28125 
L 67.390625 56.78125 
Q 61.921875 61.421875 55.765625 63.765625 
Q 49.609375 66.109375 42.828125 66.109375 
Q 29.4375 66.109375 22.71875 58.640625 
Q 16.015625 51.171875 16.015625 36.375 
Q 16.015625 21.625 22.71875 14.15625 
Q 29.4375 6.6875 42.828125 6.6875 
Q 48.046875 6.6875 52.140625 7.59375 
Q 56.25 8.5 59.515625 10.40625 
z
" id="DejaVuSans-71"/>
       <path d="M 9.8125 72.90625 
L 51.703125 72.90625 
L 51.703125 64.59375 
L 19.671875 64.59375 
L 19.671875 43.109375 
L 48.578125 43.109375 
L 48.578125 34.8125 
L 19.671875 34.8125 
L 19.671875 0 
L 9.8125 0 
z
" id="DejaVuSans-70"/>
       <path d="M 52 44.1875 
Q 55.375 50.25 60.0625 53.125 
Q 64.75 56 71.09375 56 
Q 79.640625 56 84.28125 50.015625 
Q 88.921875 44.046875 88.921875 33.015625 
L 88.921875 0 
L 79.890625 0 
L 79.890625 32.71875 
Q 79.890625 40.578125 77.09375 44.375 
Q 74.3125 48.1875 68.609375 48.1875 
Q 61.625 48.1875 57.5625 43.546875 
Q 53.515625 38.921875 53.515625 30.90625 
L 53.515625 0 
L 44.484375 0 
L 44.484375 32.71875 
Q 44.484375 40.625 41.703125 44.40625 
Q 38.921875 48.1875 33.109375 48.1875 
Q 26.21875 48.1875 22.15625 43.53125 
Q 18.109375 38.875 18.109375 30.90625 
L 18.109375 0 
L 9.078125 0 
L 9.078125 54.6875 
L 18.109375 54.6875 
L 18.109375 46.1875 
Q 21.1875 51.21875 25.484375 53.609375 
Q 29.78125 56 35.6875 56 
Q 41.65625 56 45.828125 52.96875 
Q 50 49.953125 52 44.1875 
z
" id="DejaVuSans-109"/>
       <path d="M 34.28125 27.484375 
Q 23.390625 27.484375 19.1875 25 
Q 14.984375 22.515625 14.984375 16.5 
Q 14.984375 11.71875 18.140625 8.90625 
Q 21.296875 6.109375 26.703125 6.109375 
Q 34.1875 6.109375 38.703125 11.40625 
Q 43.21875 16.703125 43.21875 25.484375 
L 43.21875 27.484375 
z
M 52.203125 31.203125 
L 52.203125 0 
L 43.21875 0 
L 43.21875 8.296875 
Q 40.140625 3.328125 35.546875 0.953125 
Q 30.953125 -1.421875 24.3125 -1.421875 
Q 15.921875 -1.421875 10.953125 3.296875 
Q 6 8.015625 6 15.921875 
Q 6 25.140625 12.171875 29.828125 
Q 18.359375 34.515625 30.609375 34.515625 
L 43.21875 34.515625 
L 43.21875 35.40625 
Q 43.21875 41.609375 39.140625 45 
Q 35.0625 48.390625 27.6875 48.390625 
Q 23 48.390625 18.546875 47.265625 
Q 14.109375 46.140625 10.015625 43.890625 
L 10.015625 52.203125 
Q 14.9375 54.109375 19.578125 55.046875 
Q 24.21875 56 28.609375 56 
Q 40.484375 56 46.34375 49.84375 
Q 52.203125 43.703125 52.203125 31.203125 
z
" id="DejaVuSans-97"/>
       <path d="M 18.3125 70.21875 
L 18.3125 54.6875 
L 36.8125 54.6875 
L 36.8125 47.703125 
L 18.3125 47.703125 
L 18.3125 18.015625 
Q 18.3125 11.328125 20.140625 9.421875 
Q 21.96875 7.515625 27.59375 7.515625 
L 36.8125 7.515625 
L 36.8125 0 
L 27.59375 0 
Q 17.1875 0 13.234375 3.875 
Q 9.28125 7.765625 9.28125 18.015625 
L 9.28125 47.703125 
L 2.6875 47.703125 
L 2.6875 54.6875 
L 9.28125 54.6875 
L 9.28125 70.21875 
z
" id="DejaVuSans-116"/>
       <path d="M 56.203125 29.59375 
L 56.203125 25.203125 
L 14.890625 25.203125 
Q 15.484375 15.921875 20.484375 11.0625 
Q 25.484375 6.203125 34.421875 6.203125 
Q 39.59375 6.203125 44.453125 7.46875 
Q 49.3125 8.734375 54.109375 11.28125 
L 54.109375 2.78125 
Q 49.265625 0.734375 44.1875 -0.34375 
Q 39.109375 -1.421875 33.890625 -1.421875 
Q 20.796875 -1.421875 13.15625 6.1875 
Q 5.515625 13.8125 5.515625 26.8125 
Q 5.515625 40.234375 12.765625 48.109375 
Q 20.015625 56 32.328125 56 
Q 43.359375 56 49.78125 48.890625 
Q 56.203125 41.796875 56.203125 29.59375 
z
M 47.21875 32.234375 
Q 47.125 39.59375 43.09375 43.984375 
Q 39.0625 48.390625 32.421875 48.390625 
Q 24.90625 48.390625 20.390625 44.140625 
Q 15.875 39.890625 15.1875 32.171875 
z
" id="DejaVuSans-101"/>
       <path d="M 41.109375 46.296875 
Q 39.59375 47.171875 37.8125 47.578125 
Q 36.03125 48 33.890625 48 
Q 26.265625 48 22.1875 43.046875 
Q 18.109375 38.09375 18.109375 28.8125 
L 18.109375 0 
L 9.078125 0 
L 9.078125 54.6875 
L 18.109375 54.6875 
L 18.109375 46.1875 
Q 20.953125 51.171875 25.484375 53.578125 
Q 30.03125 56 36.53125 56 
Q 37.453125 56 38.578125 55.875 
Q 39.703125 55.765625 41.0625 55.515625 
z
" id="DejaVuSans-114"/>
       <path d="M 54.890625 33.015625 
L 54.890625 0 
L 45.90625 0 
L 45.90625 32.71875 
Q 45.90625 40.484375 42.875 44.328125 
Q 39.84375 48.1875 33.796875 48.1875 
Q 26.515625 48.1875 22.3125 43.546875 
Q 18.109375 38.921875 18.109375 30.90625 
L 18.109375 0 
L 9.078125 0 
L 9.078125 54.6875 
L 18.109375 54.6875 
L 18.109375 46.1875 
Q 21.34375 51.125 25.703125 53.5625 
Q 30.078125 56 35.796875 56 
Q 45.21875 56 50.046875 50.171875 
Q 54.890625 44.34375 54.890625 33.015625 
z
" id="DejaVuSans-110"/>
       <path d="M 9.421875 54.6875 
L 18.40625 54.6875 
L 18.40625 -0.984375 
Q 18.40625 -11.421875 14.421875 -16.109375 
Q 10.453125 -20.796875 1.609375 -20.796875 
L -1.8125 -20.796875 
L -1.8125 -13.1875 
L 0.59375 -13.1875 
Q 5.71875 -13.1875 7.5625 -10.8125 
Q 9.421875 -8.453125 9.421875 -0.984375 
z
M 9.421875 75.984375 
L 18.40625 75.984375 
L 18.40625 64.59375 
L 9.421875 64.59375 
z
" id="DejaVuSans-106"/>
       <path d="M 9.421875 75.984375 
L 18.40625 75.984375 
L 18.40625 0 
L 9.421875 0 
z
" id="DejaVuSans-108"/>
       <path d="M 45.40625 46.390625 
L 45.40625 75.984375 
L 54.390625 75.984375 
L 54.390625 0 
L 45.40625 0 
L 45.40625 8.203125 
Q 42.578125 3.328125 38.25 0.953125 
Q 33.9375 -1.421875 27.875 -1.421875 
Q 17.96875 -1.421875 11.734375 6.484375 
Q 5.515625 14.40625 5.515625 27.296875 
Q 5.515625 40.1875 11.734375 48.09375 
Q 17.96875 56 27.875 56 
Q 33.9375 56 38.25 53.625 
Q 42.578125 51.265625 45.40625 46.390625 
z
M 14.796875 27.296875 
Q 14.796875 17.390625 18.875 11.75 
Q 22.953125 6.109375 30.078125 6.109375 
Q 37.203125 6.109375 41.296875 11.75 
Q 45.40625 17.390625 45.40625 27.296875 
Q 45.40625 37.203125 41.296875 42.84375 
Q 37.203125 48.484375 30.078125 48.484375 
Q 22.953125 48.484375 18.875 42.84375 
Q 14.796875 37.203125 14.796875 27.296875 
z
" id="DejaVuSans-100"/>
      </defs>
      <use xlink:href="#DejaVuSans-78"/>
      <use x="74.804688" xlink:href="#DejaVuSans-79"/>
      <use x="153.515625" xlink:href="#DejaVuSans-78"/>
      <use x="228.320312" xlink:href="#DejaVuSans-95"/>
      <use x="278.320312" xlink:href="#DejaVuSans-79"/>
      <use x="355.28125" xlink:href="#DejaVuSans-86"/>
      <use x="423.689453" xlink:href="#DejaVuSans-69"/>
      <use x="486.873047" xlink:href="#DejaVuSans-82"/>
      <use x="556.355469" xlink:href="#DejaVuSans-76"/>
      <use x="614.318359" xlink:href="#DejaVuSans-65"/>
      <use x="682.726562" xlink:href="#DejaVuSans-80"/>
      <use x="743.029297" xlink:href="#DejaVuSans-80"/>
      <use x="803.332031" xlink:href="#DejaVuSans-73"/>
      <use x="832.824219" xlink:href="#DejaVuSans-78"/>
      <use x="907.628906" xlink:href="#DejaVuSans-71"/>
      <use x="985.119141" xlink:href="#DejaVuSans-95"/>
      <use x="1035.119141" xlink:href="#DejaVuSans-69"/>
      <use x="1098.302734" xlink:href="#DejaVuSans-70"/>
      <use x="1155.822266" xlink:href="#DejaVuSans-95"/>
      <use x="1205.822266" xlink:href="#DejaVuSans-49"/>
      <use x="1269.445312" xlink:href="#DejaVuSans-48"/>
      <use x="1333.068359" xlink:href="#DejaVuSans-95"/>
      <use x="1383.068359" xlink:href="#DejaVuSans-109"/>
      <use x="1480.480469" xlink:href="#DejaVuSans-97"/>
      <use x="1541.759766" xlink:href="#DejaVuSans-116"/>
      <use x="1580.96875" xlink:href="#DejaVuSans-101"/>
      <use x="1642.492188" xlink:href="#DejaVuSans-114"/>
      <use x="1681.855469" xlink:href="#DejaVuSans-110"/>
      <use x="1745.234375" xlink:href="#DejaVuSans-49"/>
      <use x="1808.857422" xlink:href="#DejaVuSans-50"/>
      <use x="1872.480469" xlink:href="#DejaVuSans-46"/>
      <use x="1904.267578" xlink:href="#DejaVuSans-106"/>
      <use x="1932.050781" xlink:href="#DejaVuSans-108"/>
      <use x="1959.833984" xlink:href="#DejaVuSans-100"/>
      <use x="2023.310547" xlink:href="#DejaVuSans-50"/>
     </g>
    </g>
    <g id="line2d_67">
     <path d="M 66.6 69.526688 
L 86.6 69.526688 
" style="fill:none;stroke:#ff7f0e;stroke-linecap:square;stroke-width:1.5;"/>
    </g>
    <g id="line2d_68"/>
    <g id="text_13">
     <!-- NON_OVERLAPPING_EF_10_matern32.jld2 -->
     <g transform="translate(94.6 73.026688)scale(0.1 -0.1)">
      <use xlink:href="#DejaVuSans-78"/>
      <use x="74.804688" xlink:href="#DejaVuSans-79"/>
      <use x="153.515625" xlink:href="#DejaVuSans-78"/>
      <use x="228.320312" xlink:href="#DejaVuSans-95"/>
      <use x="278.320312" xlink:href="#DejaVuSans-79"/>
      <use x="355.28125" xlink:href="#DejaVuSans-86"/>
      <use x="423.689453" xlink:href="#DejaVuSans-69"/>
      <use x="486.873047" xlink:href="#DejaVuSans-82"/>
      <use x="556.355469" xlink:href="#DejaVuSans-76"/>
      <use x="614.318359" xlink:href="#DejaVuSans-65"/>
      <use x="682.726562" xlink:href="#DejaVuSans-80"/>
      <use x="743.029297" xlink:href="#DejaVuSans-80"/>
      <use x="803.332031" xlink:href="#DejaVuSans-73"/>
      <use x="832.824219" xlink:href="#DejaVuSans-78"/>
      <use x="907.628906" xlink:href="#DejaVuSans-71"/>
      <use x="985.119141" xlink:href="#DejaVuSans-95"/>
      <use x="1035.119141" xlink:href="#DejaVuSans-69"/>
      <use x="1098.302734" xlink:href="#DejaVuSans-70"/>
      <use x="1155.822266" xlink:href="#DejaVuSans-95"/>
      <use x="1205.822266" xlink:href="#DejaVuSans-49"/>
      <use x="1269.445312" xlink:href="#DejaVuSans-48"/>
      <use x="1333.068359" xlink:href="#DejaVuSans-95"/>
      <use x="1383.068359" xlink:href="#DejaVuSans-109"/>
      <use x="1480.480469" xlink:href="#DejaVuSans-97"/>
      <use x="1541.759766" xlink:href="#DejaVuSans-116"/>
      <use x="1580.96875" xlink:href="#DejaVuSans-101"/>
      <use x="1642.492188" xlink:href="#DejaVuSans-114"/>
      <use x="1681.855469" xlink:href="#DejaVuSans-110"/>
      <use x="1745.234375" xlink:href="#DejaVuSans-51"/>
      <use x="1808.857422" xlink:href="#DejaVuSans-50"/>
      <use x="1872.480469" xlink:href="#DejaVuSans-46"/>
      <use x="1904.267578" xlink:href="#DejaVuSans-106"/>
      <use x="1932.050781" xlink:href="#DejaVuSans-108"/>
      <use x="1959.833984" xlink:href="#DejaVuSans-100"/>
      <use x="2023.310547" xlink:href="#DejaVuSans-50"/>
     </g>
    </g>
    <g id="line2d_69">
     <path d="M 66.6 84.482938 
L 86.6 84.482938 
" style="fill:none;stroke:#2ca02c;stroke-linecap:square;stroke-width:1.5;"/>
    </g>
    <g id="line2d_70"/>
    <g id="text_14">
     <!-- NON_OVERLAPPING_EF_10_rbf.jld2 -->
     <g transform="translate(94.6 87.982938)scale(0.1 -0.1)">
      <defs>
       <path d="M 48.6875 27.296875 
Q 48.6875 37.203125 44.609375 42.84375 
Q 40.53125 48.484375 33.40625 48.484375 
Q 26.265625 48.484375 22.1875 42.84375 
Q 18.109375 37.203125 18.109375 27.296875 
Q 18.109375 17.390625 22.1875 11.75 
Q 26.265625 6.109375 33.40625 6.109375 
Q 40.53125 6.109375 44.609375 11.75 
Q 48.6875 17.390625 48.6875 27.296875 
z
M 18.109375 46.390625 
Q 20.953125 51.265625 25.265625 53.625 
Q 29.59375 56 35.59375 56 
Q 45.5625 56 51.78125 48.09375 
Q 58.015625 40.1875 58.015625 27.296875 
Q 58.015625 14.40625 51.78125 6.484375 
Q 45.5625 -1.421875 35.59375 -1.421875 
Q 29.59375 -1.421875 25.265625 0.953125 
Q 20.953125 3.328125 18.109375 8.203125 
L 18.109375 0 
L 9.078125 0 
L 9.078125 75.984375 
L 18.109375 75.984375 
z
" id="DejaVuSans-98"/>
       <path d="M 37.109375 75.984375 
L 37.109375 68.5 
L 28.515625 68.5 
Q 23.6875 68.5 21.796875 66.546875 
Q 19.921875 64.59375 19.921875 59.515625 
L 19.921875 54.6875 
L 34.71875 54.6875 
L 34.71875 47.703125 
L 19.921875 47.703125 
L 19.921875 0 
L 10.890625 0 
L 10.890625 47.703125 
L 2.296875 47.703125 
L 2.296875 54.6875 
L 10.890625 54.6875 
L 10.890625 58.5 
Q 10.890625 67.625 15.140625 71.796875 
Q 19.390625 75.984375 28.609375 75.984375 
z
" id="DejaVuSans-102"/>
      </defs>
      <use xlink:href="#DejaVuSans-78"/>
      <use x="74.804688" xlink:href="#DejaVuSans-79"/>
      <use x="153.515625" xlink:href="#DejaVuSans-78"/>
      <use x="228.320312" xlink:href="#DejaVuSans-95"/>
      <use x="278.320312" xlink:href="#DejaVuSans-79"/>
      <use x="355.28125" xlink:href="#DejaVuSans-86"/>
      <use x="423.689453" xlink:href="#DejaVuSans-69"/>
      <use x="486.873047" xlink:href="#DejaVuSans-82"/>
      <use x="556.355469" xlink:href="#DejaVuSans-76"/>
      <use x="614.318359" xlink:href="#DejaVuSans-65"/>
      <use x="682.726562" xlink:href="#DejaVuSans-80"/>
      <use x="743.029297" xlink:href="#DejaVuSans-80"/>
      <use x="803.332031" xlink:href="#DejaVuSans-73"/>
      <use x="832.824219" xlink:href="#DejaVuSans-78"/>
      <use x="907.628906" xlink:href="#DejaVuSans-71"/>
      <use x="985.119141" xlink:href="#DejaVuSans-95"/>
      <use x="1035.119141" xlink:href="#DejaVuSans-69"/>
      <use x="1098.302734" xlink:href="#DejaVuSans-70"/>
      <use x="1155.822266" xlink:href="#DejaVuSans-95"/>
      <use x="1205.822266" xlink:href="#DejaVuSans-49"/>
      <use x="1269.445312" xlink:href="#DejaVuSans-48"/>
      <use x="1333.068359" xlink:href="#DejaVuSans-95"/>
      <use x="1383.068359" xlink:href="#DejaVuSans-114"/>
      <use x="1424.181641" xlink:href="#DejaVuSans-98"/>
      <use x="1487.658203" xlink:href="#DejaVuSans-102"/>
      <use x="1515.613281" xlink:href="#DejaVuSans-46"/>
      <use x="1547.400391" xlink:href="#DejaVuSans-106"/>
      <use x="1575.183594" xlink:href="#DejaVuSans-108"/>
      <use x="1602.966797" xlink:href="#DejaVuSans-100"/>
      <use x="1666.443359" xlink:href="#DejaVuSans-50"/>
     </g>
    </g>
    <g id="line2d_71">
     <path d="M 66.6 99.439188 
L 86.6 99.439188 
" style="fill:none;stroke:#d62728;stroke-linecap:square;stroke-width:1.5;"/>
    </g>
    <g id="line2d_72"/>
    <g id="text_15">
     <!-- NON_OVERLAPPING_EF_20_matern12.jld2 -->
     <g transform="translate(94.6 102.939188)scale(0.1 -0.1)">
      <use xlink:href="#DejaVuSans-78"/>
      <use x="74.804688" xlink:href="#DejaVuSans-79"/>
      <use x="153.515625" xlink:href="#DejaVuSans-78"/>
      <use x="228.320312" xlink:href="#DejaVuSans-95"/>
      <use x="278.320312" xlink:href="#DejaVuSans-79"/>
      <use x="355.28125" xlink:href="#DejaVuSans-86"/>
      <use x="423.689453" xlink:href="#DejaVuSans-69"/>
      <use x="486.873047" xlink:href="#DejaVuSans-82"/>
      <use x="556.355469" xlink:href="#DejaVuSans-76"/>
      <use x="614.318359" xlink:href="#DejaVuSans-65"/>
      <use x="682.726562" xlink:href="#DejaVuSans-80"/>
      <use x="743.029297" xlink:href="#DejaVuSans-80"/>
      <use x="803.332031" xlink:href="#DejaVuSans-73"/>
      <use x="832.824219" xlink:href="#DejaVuSans-78"/>
      <use x="907.628906" xlink:href="#DejaVuSans-71"/>
      <use x="985.119141" xlink:href="#DejaVuSans-95"/>
      <use x="1035.119141" xlink:href="#DejaVuSans-69"/>
      <use x="1098.302734" xlink:href="#DejaVuSans-70"/>
      <use x="1155.822266" xlink:href="#DejaVuSans-95"/>
      <use x="1205.822266" xlink:href="#DejaVuSans-50"/>
      <use x="1269.445312" xlink:href="#DejaVuSans-48"/>
      <use x="1333.068359" xlink:href="#DejaVuSans-95"/>
      <use x="1383.068359" xlink:href="#DejaVuSans-109"/>
      <use x="1480.480469" xlink:href="#DejaVuSans-97"/>
      <use x="1541.759766" xlink:href="#DejaVuSans-116"/>
      <use x="1580.96875" xlink:href="#DejaVuSans-101"/>
      <use x="1642.492188" xlink:href="#DejaVuSans-114"/>
      <use x="1681.855469" xlink:href="#DejaVuSans-110"/>
      <use x="1745.234375" xlink:href="#DejaVuSans-49"/>
      <use x="1808.857422" xlink:href="#DejaVuSans-50"/>
      <use x="1872.480469" xlink:href="#DejaVuSans-46"/>
      <use x="1904.267578" xlink:href="#DejaVuSans-106"/>
      <use x="1932.050781" xlink:href="#DejaVuSans-108"/>
      <use x="1959.833984" xlink:href="#DejaVuSans-100"/>
      <use x="2023.310547" xlink:href="#DejaVuSans-50"/>
     </g>
    </g>
    <g id="line2d_73">
     <path d="M 66.6 114.395438 
L 86.6 114.395438 
" style="fill:none;stroke:#9467bd;stroke-linecap:square;stroke-width:1.5;"/>
    </g>
    <g id="line2d_74"/>
    <g id="text_16">
     <!-- NON_OVERLAPPING_EF_20_matern32.jld2 -->
     <g transform="translate(94.6 117.895438)scale(0.1 -0.1)">
      <use xlink:href="#DejaVuSans-78"/>
      <use x="74.804688" xlink:href="#DejaVuSans-79"/>
      <use x="153.515625" xlink:href="#DejaVuSans-78"/>
      <use x="228.320312" xlink:href="#DejaVuSans-95"/>
      <use x="278.320312" xlink:href="#DejaVuSans-79"/>
      <use x="355.28125" xlink:href="#DejaVuSans-86"/>
      <use x="423.689453" xlink:href="#DejaVuSans-69"/>
      <use x="486.873047" xlink:href="#DejaVuSans-82"/>
      <use x="556.355469" xlink:href="#DejaVuSans-76"/>
      <use x="614.318359" xlink:href="#DejaVuSans-65"/>
      <use x="682.726562" xlink:href="#DejaVuSans-80"/>
      <use x="743.029297" xlink:href="#DejaVuSans-80"/>
      <use x="803.332031" xlink:href="#DejaVuSans-73"/>
      <use x="832.824219" xlink:href="#DejaVuSans-78"/>
      <use x="907.628906" xlink:href="#DejaVuSans-71"/>
      <use x="985.119141" xlink:href="#DejaVuSans-95"/>
      <use x="1035.119141" xlink:href="#DejaVuSans-69"/>
      <use x="1098.302734" xlink:href="#DejaVuSans-70"/>
      <use x="1155.822266" xlink:href="#DejaVuSans-95"/>
      <use x="1205.822266" xlink:href="#DejaVuSans-50"/>
      <use x="1269.445312" xlink:href="#DejaVuSans-48"/>
      <use x="1333.068359" xlink:href="#DejaVuSans-95"/>
      <use x="1383.068359" xlink:href="#DejaVuSans-109"/>
      <use x="1480.480469" xlink:href="#DejaVuSans-97"/>
      <use x="1541.759766" xlink:href="#DejaVuSans-116"/>
      <use x="1580.96875" xlink:href="#DejaVuSans-101"/>
      <use x="1642.492188" xlink:href="#DejaVuSans-114"/>
      <use x="1681.855469" xlink:href="#DejaVuSans-110"/>
      <use x="1745.234375" xlink:href="#DejaVuSans-51"/>
      <use x="1808.857422" xlink:href="#DejaVuSans-50"/>
      <use x="1872.480469" xlink:href="#DejaVuSans-46"/>
      <use x="1904.267578" xlink:href="#DejaVuSans-106"/>
      <use x="1932.050781" xlink:href="#DejaVuSans-108"/>
      <use x="1959.833984" xlink:href="#DejaVuSans-100"/>
      <use x="2023.310547" xlink:href="#DejaVuSans-50"/>
     </g>
    </g>
    <g id="line2d_75">
     <path d="M 66.6 129.351688 
L 86.6 129.351688 
" style="fill:none;stroke:#8c564b;stroke-linecap:square;stroke-width:1.5;"/>
    </g>
    <g id="line2d_76"/>
    <g id="text_17">
     <!-- NON_OVERLAPPING_EF_20_rbf.jld2 -->
     <g transform="translate(94.6 132.851688)scale(0.1 -0.1)">
      <use xlink:href="#DejaVuSans-78"/>
      <use x="74.804688" xlink:href="#DejaVuSans-79"/>
      <use x="153.515625" xlink:href="#DejaVuSans-78"/>
      <use x="228.320312" xlink:href="#DejaVuSans-95"/>
      <use x="278.320312" xlink:href="#DejaVuSans-79"/>
      <use x="355.28125" xlink:href="#DejaVuSans-86"/>
      <use x="423.689453" xlink:href="#DejaVuSans-69"/>
      <use x="486.873047" xlink:href="#DejaVuSans-82"/>
      <use x="556.355469" xlink:href="#DejaVuSans-76"/>
      <use x="614.318359" xlink:href="#DejaVuSans-65"/>
      <use x="682.726562" xlink:href="#DejaVuSans-80"/>
      <use x="743.029297" xlink:href="#DejaVuSans-80"/>
      <use x="803.332031" xlink:href="#DejaVuSans-73"/>
      <use x="832.824219" xlink:href="#DejaVuSans-78"/>
      <use x="907.628906" xlink:href="#DejaVuSans-71"/>
      <use x="985.119141" xlink:href="#DejaVuSans-95"/>
      <use x="1035.119141" xlink:href="#DejaVuSans-69"/>
      <use x="1098.302734" xlink:href="#DejaVuSans-70"/>
      <use x="1155.822266" xlink:href="#DejaVuSans-95"/>
      <use x="1205.822266" xlink:href="#DejaVuSans-50"/>
      <use x="1269.445312" xlink:href="#DejaVuSans-48"/>
      <use x="1333.068359" xlink:href="#DejaVuSans-95"/>
      <use x="1383.068359" xlink:href="#DejaVuSans-114"/>
      <use x="1424.181641" xlink:href="#DejaVuSans-98"/>
      <use x="1487.658203" xlink:href="#DejaVuSans-102"/>
      <use x="1515.613281" xlink:href="#DejaVuSans-46"/>
      <use x="1547.400391" xlink:href="#DejaVuSans-106"/>
      <use x="1575.183594" xlink:href="#DejaVuSans-108"/>
      <use x="1602.966797" xlink:href="#DejaVuSans-100"/>
      <use x="1666.443359" xlink:href="#DejaVuSans-50"/>
     </g>
    </g>
    <g id="line2d_77">
     <path d="M 66.6 144.307938 
L 86.6 144.307938 
" style="fill:none;stroke:#e377c2;stroke-linecap:square;stroke-width:1.5;"/>
    </g>
    <g id="line2d_78"/>
    <g id="text_18">
     <!-- NON_OVERLAPPING_EF_30_matern12.jld2 -->
     <g transform="translate(94.6 147.807938)scale(0.1 -0.1)">
      <use xlink:href="#DejaVuSans-78"/>
      <use x="74.804688" xlink:href="#DejaVuSans-79"/>
      <use x="153.515625" xlink:href="#DejaVuSans-78"/>
      <use x="228.320312" xlink:href="#DejaVuSans-95"/>
      <use x="278.320312" xlink:href="#DejaVuSans-79"/>
      <use x="355.28125" xlink:href="#DejaVuSans-86"/>
      <use x="423.689453" xlink:href="#DejaVuSans-69"/>
      <use x="486.873047" xlink:href="#DejaVuSans-82"/>
      <use x="556.355469" xlink:href="#DejaVuSans-76"/>
      <use x="614.318359" xlink:href="#DejaVuSans-65"/>
      <use x="682.726562" xlink:href="#DejaVuSans-80"/>
      <use x="743.029297" xlink:href="#DejaVuSans-80"/>
      <use x="803.332031" xlink:href="#DejaVuSans-73"/>
      <use x="832.824219" xlink:href="#DejaVuSans-78"/>
      <use x="907.628906" xlink:href="#DejaVuSans-71"/>
      <use x="985.119141" xlink:href="#DejaVuSans-95"/>
      <use x="1035.119141" xlink:href="#DejaVuSans-69"/>
      <use x="1098.302734" xlink:href="#DejaVuSans-70"/>
      <use x="1155.822266" xlink:href="#DejaVuSans-95"/>
      <use x="1205.822266" xlink:href="#DejaVuSans-51"/>
      <use x="1269.445312" xlink:href="#DejaVuSans-48"/>
      <use x="1333.068359" xlink:href="#DejaVuSans-95"/>
      <use x="1383.068359" xlink:href="#DejaVuSans-109"/>
      <use x="1480.480469" xlink:href="#DejaVuSans-97"/>
      <use x="1541.759766" xlink:href="#DejaVuSans-116"/>
      <use x="1580.96875" xlink:href="#DejaVuSans-101"/>
      <use x="1642.492188" xlink:href="#DejaVuSans-114"/>
      <use x="1681.855469" xlink:href="#DejaVuSans-110"/>
      <use x="1745.234375" xlink:href="#DejaVuSans-49"/>
      <use x="1808.857422" xlink:href="#DejaVuSans-50"/>
      <use x="1872.480469" xlink:href="#DejaVuSans-46"/>
      <use x="1904.267578" xlink:href="#DejaVuSans-106"/>
      <use x="1932.050781" xlink:href="#DejaVuSans-108"/>
      <use x="1959.833984" xlink:href="#DejaVuSans-100"/>
      <use x="2023.310547" xlink:href="#DejaVuSans-50"/>
     </g>
    </g>
    <g id="line2d_79">
     <path d="M 66.6 159.264188 
L 86.6 159.264188 
" style="fill:none;stroke:#7f7f7f;stroke-linecap:square;stroke-width:1.5;"/>
    </g>
    <g id="line2d_80"/>
    <g id="text_19">
     <!-- NON_OVERLAPPING_EF_30_matern32.jld2 -->
     <g transform="translate(94.6 162.764188)scale(0.1 -0.1)">
      <use xlink:href="#DejaVuSans-78"/>
      <use x="74.804688" xlink:href="#DejaVuSans-79"/>
      <use x="153.515625" xlink:href="#DejaVuSans-78"/>
      <use x="228.320312" xlink:href="#DejaVuSans-95"/>
      <use x="278.320312" xlink:href="#DejaVuSans-79"/>
      <use x="355.28125" xlink:href="#DejaVuSans-86"/>
      <use x="423.689453" xlink:href="#DejaVuSans-69"/>
      <use x="486.873047" xlink:href="#DejaVuSans-82"/>
      <use x="556.355469" xlink:href="#DejaVuSans-76"/>
      <use x="614.318359" xlink:href="#DejaVuSans-65"/>
      <use x="682.726562" xlink:href="#DejaVuSans-80"/>
      <use x="743.029297" xlink:href="#DejaVuSans-80"/>
      <use x="803.332031" xlink:href="#DejaVuSans-73"/>
      <use x="832.824219" xlink:href="#DejaVuSans-78"/>
      <use x="907.628906" xlink:href="#DejaVuSans-71"/>
      <use x="985.119141" xlink:href="#DejaVuSans-95"/>
      <use x="1035.119141" xlink:href="#DejaVuSans-69"/>
      <use x="1098.302734" xlink:href="#DejaVuSans-70"/>
      <use x="1155.822266" xlink:href="#DejaVuSans-95"/>
      <use x="1205.822266" xlink:href="#DejaVuSans-51"/>
      <use x="1269.445312" xlink:href="#DejaVuSans-48"/>
      <use x="1333.068359" xlink:href="#DejaVuSans-95"/>
      <use x="1383.068359" xlink:href="#DejaVuSans-109"/>
      <use x="1480.480469" xlink:href="#DejaVuSans-97"/>
      <use x="1541.759766" xlink:href="#DejaVuSans-116"/>
      <use x="1580.96875" xlink:href="#DejaVuSans-101"/>
      <use x="1642.492188" xlink:href="#DejaVuSans-114"/>
      <use x="1681.855469" xlink:href="#DejaVuSans-110"/>
      <use x="1745.234375" xlink:href="#DejaVuSans-51"/>
      <use x="1808.857422" xlink:href="#DejaVuSans-50"/>
      <use x="1872.480469" xlink:href="#DejaVuSans-46"/>
      <use x="1904.267578" xlink:href="#DejaVuSans-106"/>
      <use x="1932.050781" xlink:href="#DejaVuSans-108"/>
      <use x="1959.833984" xlink:href="#DejaVuSans-100"/>
      <use x="2023.310547" xlink:href="#DejaVuSans-50"/>
     </g>
    </g>
    <g id="line2d_81">
     <path d="M 66.6 174.220438 
L 86.6 174.220438 
" style="fill:none;stroke:#bcbd22;stroke-linecap:square;stroke-width:1.5;"/>
    </g>
    <g id="line2d_82"/>
    <g id="text_20">
     <!-- NON_OVERLAPPING_EF_30_rbf.jld2 -->
     <g transform="translate(94.6 177.720438)scale(0.1 -0.1)">
      <use xlink:href="#DejaVuSans-78"/>
      <use x="74.804688" xlink:href="#DejaVuSans-79"/>
      <use x="153.515625" xlink:href="#DejaVuSans-78"/>
      <use x="228.320312" xlink:href="#DejaVuSans-95"/>
      <use x="278.320312" xlink:href="#DejaVuSans-79"/>
      <use x="355.28125" xlink:href="#DejaVuSans-86"/>
      <use x="423.689453" xlink:href="#DejaVuSans-69"/>
      <use x="486.873047" xlink:href="#DejaVuSans-82"/>
      <use x="556.355469" xlink:href="#DejaVuSans-76"/>
      <use x="614.318359" xlink:href="#DejaVuSans-65"/>
      <use x="682.726562" xlink:href="#DejaVuSans-80"/>
      <use x="743.029297" xlink:href="#DejaVuSans-80"/>
      <use x="803.332031" xlink:href="#DejaVuSans-73"/>
      <use x="832.824219" xlink:href="#DejaVuSans-78"/>
      <use x="907.628906" xlink:href="#DejaVuSans-71"/>
      <use x="985.119141" xlink:href="#DejaVuSans-95"/>
      <use x="1035.119141" xlink:href="#DejaVuSans-69"/>
      <use x="1098.302734" xlink:href="#DejaVuSans-70"/>
      <use x="1155.822266" xlink:href="#DejaVuSans-95"/>
      <use x="1205.822266" xlink:href="#DejaVuSans-51"/>
      <use x="1269.445312" xlink:href="#DejaVuSans-48"/>
      <use x="1333.068359" xlink:href="#DejaVuSans-95"/>
      <use x="1383.068359" xlink:href="#DejaVuSans-114"/>
      <use x="1424.181641" xlink:href="#DejaVuSans-98"/>
      <use x="1487.658203" xlink:href="#DejaVuSans-102"/>
      <use x="1515.613281" xlink:href="#DejaVuSans-46"/>
      <use x="1547.400391" xlink:href="#DejaVuSans-106"/>
      <use x="1575.183594" xlink:href="#DejaVuSans-108"/>
      <use x="1602.966797" xlink:href="#DejaVuSans-100"/>
      <use x="1666.443359" xlink:href="#DejaVuSans-50"/>
     </g>
    </g>
   </g>
  </g>
 </g>
 <defs>
  <clipPath id="p28613d149c">
   <rect height="266.112" width="357.12" x="57.6" y="41.472"/>
  </clipPath>
 </defs>
</svg>
