<?xml version="1.0" encoding="utf-8" standalone="no"?>
<!DOCTYPE svg PUBLIC "-//W3C//DTD SVG 1.1//EN"
  "http://www.w3.org/Graphics/SVG/1.1/DTD/svg11.dtd">
<!-- Created with matplotlib (https://matplotlib.org/) -->
<svg height="345.6pt" version="1.1" viewBox="0 0 460.8 345.6" width="460.8pt" xmlns="http://www.w3.org/2000/svg" xmlns:xlink="http://www.w3.org/1999/xlink">
 <metadata>
  <rdf:RDF xmlns:cc="http://creativecommons.org/ns#" xmlns:dc="http://purl.org/dc/elements/1.1/" xmlns:rdf="http://www.w3.org/1999/02/22-rdf-syntax-ns#">
   <cc:Work>
    <dc:type rdf:resource="http://purl.org/dc/dcmitype/StillImage"/>
    <dc:date>2022-01-28T12:28:50.013851</dc:date>
    <dc:format>image/svg+xml</dc:format>
    <dc:creator>
     <cc:Agent>
      <dc:title>Matplotlib v3.3.4, https://matplotlib.org/</dc:title>
     </cc:Agent>
    </dc:creator>
   </cc:Work>
  </rdf:RDF>
 </metadata>
 <defs>
  <style type="text/css">*{stroke-linecap:butt;stroke-linejoin:round;}</style>
 </defs>
 <g id="figure_1">
  <g id="patch_1">
   <path d="M 0 345.6 
L 460.8 345.6 
L 460.8 0 
L 0 0 
z
" style="fill:#ffffff;"/>
  </g>
  <g id="axes_1">
   <g id="patch_2">
    <path d="M 57.6 307.584 
L 414.72 307.584 
L 414.72 41.472 
L 57.6 41.472 
z
" style="fill:#ffffff;"/>
   </g>
   <g id="matplotlib.axis_1">
    <g id="xtick_1">
     <g id="line2d_1">
      <defs>
       <path d="M 0 0 
L 0 3.5 
" id="mf116639f05" style="stroke:#000000;stroke-width:0.8;"/>
      </defs>
      <g>
       <use style="stroke:#000000;stroke-width:0.8;" x="68.726975" xlink:href="#mf116639f05" y="307.584"/>
      </g>
     </g>
     <g id="text_1">
      <!-- 0 -->
      <g transform="translate(65.545725 322.182437)scale(0.1 -0.1)">
       <defs>
        <path d="M 31.78125 66.40625 
Q 24.171875 66.40625 20.328125 58.90625 
Q 16.5 51.421875 16.5 36.375 
Q 16.5 21.390625 20.328125 13.890625 
Q 24.171875 6.390625 31.78125 6.390625 
Q 39.453125 6.390625 43.28125 13.890625 
Q 47.125 21.390625 47.125 36.375 
Q 47.125 51.421875 43.28125 58.90625 
Q 39.453125 66.40625 31.78125 66.40625 
z
M 31.78125 74.21875 
Q 44.046875 74.21875 50.515625 64.515625 
Q 56.984375 54.828125 56.984375 36.375 
Q 56.984375 17.96875 50.515625 8.265625 
Q 44.046875 -1.421875 31.78125 -1.421875 
Q 19.53125 -1.421875 13.0625 8.265625 
Q 6.59375 17.96875 6.59375 36.375 
Q 6.59375 54.828125 13.0625 64.515625 
Q 19.53125 74.21875 31.78125 74.21875 
z
" id="DejaVuSans-48"/>
       </defs>
       <use xlink:href="#DejaVuSans-48"/>
      </g>
     </g>
    </g>
    <g id="xtick_2">
     <g id="line2d_2">
      <g>
       <use style="stroke:#000000;stroke-width:0.8;" x="134.71002" xlink:href="#mf116639f05" y="307.584"/>
      </g>
     </g>
     <g id="text_2">
      <!-- 20 -->
      <g transform="translate(128.34752 322.182437)scale(0.1 -0.1)">
       <defs>
        <path d="M 19.1875 8.296875 
L 53.609375 8.296875 
L 53.609375 0 
L 7.328125 0 
L 7.328125 8.296875 
Q 12.9375 14.109375 22.625 23.890625 
Q 32.328125 33.6875 34.8125 36.53125 
Q 39.546875 41.84375 41.421875 45.53125 
Q 43.3125 49.21875 43.3125 52.78125 
Q 43.3125 58.59375 39.234375 62.25 
Q 35.15625 65.921875 28.609375 65.921875 
Q 23.96875 65.921875 18.8125 64.3125 
Q 13.671875 62.703125 7.8125 59.421875 
L 7.8125 69.390625 
Q 13.765625 71.78125 18.9375 73 
Q 24.125 74.21875 28.421875 74.21875 
Q 39.75 74.21875 46.484375 68.546875 
Q 53.21875 62.890625 53.21875 53.421875 
Q 53.21875 48.921875 51.53125 44.890625 
Q 49.859375 40.875 45.40625 35.40625 
Q 44.1875 33.984375 37.640625 27.21875 
Q 31.109375 20.453125 19.1875 8.296875 
z
" id="DejaVuSans-50"/>
       </defs>
       <use xlink:href="#DejaVuSans-50"/>
       <use x="63.623047" xlink:href="#DejaVuSans-48"/>
      </g>
     </g>
    </g>
    <g id="xtick_3">
     <g id="line2d_3">
      <g>
       <use style="stroke:#000000;stroke-width:0.8;" x="200.693065" xlink:href="#mf116639f05" y="307.584"/>
      </g>
     </g>
     <g id="text_3">
      <!-- 40 -->
      <g transform="translate(194.330565 322.182437)scale(0.1 -0.1)">
       <defs>
        <path d="M 37.796875 64.3125 
L 12.890625 25.390625 
L 37.796875 25.390625 
z
M 35.203125 72.90625 
L 47.609375 72.90625 
L 47.609375 25.390625 
L 58.015625 25.390625 
L 58.015625 17.1875 
L 47.609375 17.1875 
L 47.609375 0 
L 37.796875 0 
L 37.796875 17.1875 
L 4.890625 17.1875 
L 4.890625 26.703125 
z
" id="DejaVuSans-52"/>
       </defs>
       <use xlink:href="#DejaVuSans-52"/>
       <use x="63.623047" xlink:href="#DejaVuSans-48"/>
      </g>
     </g>
    </g>
    <g id="xtick_4">
     <g id="line2d_4">
      <g>
       <use style="stroke:#000000;stroke-width:0.8;" x="266.676111" xlink:href="#mf116639f05" y="307.584"/>
      </g>
     </g>
     <g id="text_4">
      <!-- 60 -->
      <g transform="translate(260.313611 322.182437)scale(0.1 -0.1)">
       <defs>
        <path d="M 33.015625 40.375 
Q 26.375 40.375 22.484375 35.828125 
Q 18.609375 31.296875 18.609375 23.390625 
Q 18.609375 15.53125 22.484375 10.953125 
Q 26.375 6.390625 33.015625 6.390625 
Q 39.65625 6.390625 43.53125 10.953125 
Q 47.40625 15.53125 47.40625 23.390625 
Q 47.40625 31.296875 43.53125 35.828125 
Q 39.65625 40.375 33.015625 40.375 
z
M 52.59375 71.296875 
L 52.59375 62.3125 
Q 48.875 64.0625 45.09375 64.984375 
Q 41.3125 65.921875 37.59375 65.921875 
Q 27.828125 65.921875 22.671875 59.328125 
Q 17.53125 52.734375 16.796875 39.40625 
Q 19.671875 43.65625 24.015625 45.921875 
Q 28.375 48.1875 33.59375 48.1875 
Q 44.578125 48.1875 50.953125 41.515625 
Q 57.328125 34.859375 57.328125 23.390625 
Q 57.328125 12.15625 50.6875 5.359375 
Q 44.046875 -1.421875 33.015625 -1.421875 
Q 20.359375 -1.421875 13.671875 8.265625 
Q 6.984375 17.96875 6.984375 36.375 
Q 6.984375 53.65625 15.1875 63.9375 
Q 23.390625 74.21875 37.203125 74.21875 
Q 40.921875 74.21875 44.703125 73.484375 
Q 48.484375 72.75 52.59375 71.296875 
z
" id="DejaVuSans-54"/>
       </defs>
       <use xlink:href="#DejaVuSans-54"/>
       <use x="63.623047" xlink:href="#DejaVuSans-48"/>
      </g>
     </g>
    </g>
    <g id="xtick_5">
     <g id="line2d_5">
      <g>
       <use style="stroke:#000000;stroke-width:0.8;" x="332.659156" xlink:href="#mf116639f05" y="307.584"/>
      </g>
     </g>
     <g id="text_5">
      <!-- 80 -->
      <g transform="translate(326.296656 322.182437)scale(0.1 -0.1)">
       <defs>
        <path d="M 31.78125 34.625 
Q 24.75 34.625 20.71875 30.859375 
Q 16.703125 27.09375 16.703125 20.515625 
Q 16.703125 13.921875 20.71875 10.15625 
Q 24.75 6.390625 31.78125 6.390625 
Q 38.8125 6.390625 42.859375 10.171875 
Q 46.921875 13.96875 46.921875 20.515625 
Q 46.921875 27.09375 42.890625 30.859375 
Q 38.875 34.625 31.78125 34.625 
z
M 21.921875 38.8125 
Q 15.578125 40.375 12.03125 44.71875 
Q 8.5 49.078125 8.5 55.328125 
Q 8.5 64.0625 14.71875 69.140625 
Q 20.953125 74.21875 31.78125 74.21875 
Q 42.671875 74.21875 48.875 69.140625 
Q 55.078125 64.0625 55.078125 55.328125 
Q 55.078125 49.078125 51.53125 44.71875 
Q 48 40.375 41.703125 38.8125 
Q 48.828125 37.15625 52.796875 32.3125 
Q 56.78125 27.484375 56.78125 20.515625 
Q 56.78125 9.90625 50.3125 4.234375 
Q 43.84375 -1.421875 31.78125 -1.421875 
Q 19.734375 -1.421875 13.25 4.234375 
Q 6.78125 9.90625 6.78125 20.515625 
Q 6.78125 27.484375 10.78125 32.3125 
Q 14.796875 37.15625 21.921875 38.8125 
z
M 18.3125 54.390625 
Q 18.3125 48.734375 21.84375 45.5625 
Q 25.390625 42.390625 31.78125 42.390625 
Q 38.140625 42.390625 41.71875 45.5625 
Q 45.3125 48.734375 45.3125 54.390625 
Q 45.3125 60.0625 41.71875 63.234375 
Q 38.140625 66.40625 31.78125 66.40625 
Q 25.390625 66.40625 21.84375 63.234375 
Q 18.3125 60.0625 18.3125 54.390625 
z
" id="DejaVuSans-56"/>
       </defs>
       <use xlink:href="#DejaVuSans-56"/>
       <use x="63.623047" xlink:href="#DejaVuSans-48"/>
      </g>
     </g>
    </g>
    <g id="xtick_6">
     <g id="line2d_6">
      <g>
       <use style="stroke:#000000;stroke-width:0.8;" x="398.642201" xlink:href="#mf116639f05" y="307.584"/>
      </g>
     </g>
     <g id="text_6">
      <!-- 100 -->
      <g transform="translate(389.098451 322.182437)scale(0.1 -0.1)">
       <defs>
        <path d="M 12.40625 8.296875 
L 28.515625 8.296875 
L 28.515625 63.921875 
L 10.984375 60.40625 
L 10.984375 69.390625 
L 28.421875 72.90625 
L 38.28125 72.90625 
L 38.28125 8.296875 
L 54.390625 8.296875 
L 54.390625 0 
L 12.40625 0 
z
" id="DejaVuSans-49"/>
       </defs>
       <use xlink:href="#DejaVuSans-49"/>
       <use x="63.623047" xlink:href="#DejaVuSans-48"/>
       <use x="127.246094" xlink:href="#DejaVuSans-48"/>
      </g>
     </g>
    </g>
   </g>
   <g id="matplotlib.axis_2">
    <g id="ytick_1">
     <g id="line2d_7">
      <defs>
       <path d="M 0 0 
L -3.5 0 
" id="m5945a42d30" style="stroke:#000000;stroke-width:0.8;"/>
      </defs>
      <g>
       <use style="stroke:#000000;stroke-width:0.8;" x="57.6" xlink:href="#m5945a42d30" y="256.989234"/>
      </g>
     </g>
     <g id="text_7">
      <!-- 4 -->
      <g transform="translate(44.2375 260.788453)scale(0.1 -0.1)">
       <use xlink:href="#DejaVuSans-52"/>
      </g>
     </g>
    </g>
    <g id="ytick_2">
     <g id="line2d_8">
      <g>
       <use style="stroke:#000000;stroke-width:0.8;" x="57.6" xlink:href="#m5945a42d30" y="201.325235"/>
      </g>
     </g>
     <g id="text_8">
      <!-- 6 -->
      <g transform="translate(44.2375 205.124454)scale(0.1 -0.1)">
       <use xlink:href="#DejaVuSans-54"/>
      </g>
     </g>
    </g>
    <g id="ytick_3">
     <g id="line2d_9">
      <g>
       <use style="stroke:#000000;stroke-width:0.8;" x="57.6" xlink:href="#m5945a42d30" y="145.661236"/>
      </g>
     </g>
     <g id="text_9">
      <!-- 8 -->
      <g transform="translate(44.2375 149.460455)scale(0.1 -0.1)">
       <use xlink:href="#DejaVuSans-56"/>
      </g>
     </g>
    </g>
    <g id="ytick_4">
     <g id="line2d_10">
      <g>
       <use style="stroke:#000000;stroke-width:0.8;" x="57.6" xlink:href="#m5945a42d30" y="89.997237"/>
      </g>
     </g>
     <g id="text_10">
      <!-- 10 -->
      <g transform="translate(37.875 93.796456)scale(0.1 -0.1)">
       <use xlink:href="#DejaVuSans-49"/>
       <use x="63.623047" xlink:href="#DejaVuSans-48"/>
      </g>
     </g>
    </g>
   </g>
   <g id="line2d_11">
    <defs>
     <path d="M 0 3 
C 0.795609 3 1.55874 2.683901 2.12132 2.12132 
C 2.683901 1.55874 3 0.795609 3 0 
C 3 -0.795609 2.683901 -1.55874 2.12132 -2.12132 
C 1.55874 -2.683901 0.795609 -3 0 -3 
C -0.795609 -3 -1.55874 -2.683901 -2.12132 -2.12132 
C -2.683901 -1.55874 -3 -0.795609 -3 0 
C -3 0.795609 -2.683901 1.55874 -2.12132 2.12132 
C -1.55874 2.683901 -0.795609 3 0 3 
z
" id="mfe1881c979" style="stroke:#1f77b4;"/>
    </defs>
    <g clip-path="url(#p742940a2f8)">
     <use style="fill:#1f77b4;stroke:#1f77b4;" x="77.87635" xlink:href="#mfe1881c979" y="221.771411"/>
     <use style="fill:#1f77b4;stroke:#1f77b4;" x="82.751373" xlink:href="#mfe1881c979" y="218.297679"/>
     <use style="fill:#1f77b4;stroke:#1f77b4;" x="89.585905" xlink:href="#mfe1881c979" y="228.535835"/>
     <use style="fill:#1f77b4;stroke:#1f77b4;" x="90.401532" xlink:href="#mfe1881c979" y="231.258941"/>
     <use style="fill:#1f77b4;stroke:#1f77b4;" x="100.267692" xlink:href="#mfe1881c979" y="244.232632"/>
     <use style="fill:#1f77b4;stroke:#1f77b4;" x="107.342026" xlink:href="#mfe1881c979" y="245.317938"/>
     <use style="fill:#1f77b4;stroke:#1f77b4;" x="117.903692" xlink:href="#mfe1881c979" y="190.707372"/>
     <use style="fill:#1f77b4;stroke:#1f77b4;" x="126.898915" xlink:href="#mfe1881c979" y="207.2416"/>
     <use style="fill:#1f77b4;stroke:#1f77b4;" x="134.620667" xlink:href="#mfe1881c979" y="223.705694"/>
     <use style="fill:#1f77b4;stroke:#1f77b4;" x="137.22541" xlink:href="#mfe1881c979" y="230.706064"/>
     <use style="fill:#1f77b4;stroke:#1f77b4;" x="141.357787" xlink:href="#mfe1881c979" y="252.02501"/>
     <use style="fill:#1f77b4;stroke:#1f77b4;" x="147.404716" xlink:href="#mfe1881c979" y="241.981547"/>
     <use style="fill:#1f77b4;stroke:#1f77b4;" x="148.296912" xlink:href="#mfe1881c979" y="240.881991"/>
     <use style="fill:#1f77b4;stroke:#1f77b4;" x="159.801242" xlink:href="#mfe1881c979" y="213.310408"/>
     <use style="fill:#1f77b4;stroke:#1f77b4;" x="162.217515" xlink:href="#mfe1881c979" y="200.083827"/>
     <use style="fill:#1f77b4;stroke:#1f77b4;" x="166.723729" xlink:href="#mfe1881c979" y="207.868865"/>
     <use style="fill:#1f77b4;stroke:#1f77b4;" x="174.836659" xlink:href="#mfe1881c979" y="216.139792"/>
     <use style="fill:#1f77b4;stroke:#1f77b4;" x="178.900704" xlink:href="#mfe1881c979" y="220.008735"/>
     <use style="fill:#1f77b4;stroke:#1f77b4;" x="179.031" xlink:href="#mfe1881c979" y="219.881329"/>
     <use style="fill:#1f77b4;stroke:#1f77b4;" x="217.782654" xlink:href="#mfe1881c979" y="267.522401"/>
     <use style="fill:#1f77b4;stroke:#1f77b4;" x="222.016229" xlink:href="#mfe1881c979" y="265.995472"/>
     <use style="fill:#1f77b4;stroke:#1f77b4;" x="222.346387" xlink:href="#mfe1881c979" y="259.702551"/>
     <use style="fill:#1f77b4;stroke:#1f77b4;" x="227.649768" xlink:href="#mfe1881c979" y="265.344673"/>
     <use style="fill:#1f77b4;stroke:#1f77b4;" x="232.303824" xlink:href="#mfe1881c979" y="264.885626"/>
     <use style="fill:#1f77b4;stroke:#1f77b4;" x="240.394858" xlink:href="#mfe1881c979" y="229.944167"/>
     <use style="fill:#1f77b4;stroke:#1f77b4;" x="251.264471" xlink:href="#mfe1881c979" y="215.596125"/>
     <use style="fill:#1f77b4;stroke:#1f77b4;" x="255.456761" xlink:href="#mfe1881c979" y="216.930559"/>
     <use style="fill:#1f77b4;stroke:#1f77b4;" x="264.431107" xlink:href="#mfe1881c979" y="204.567179"/>
     <use style="fill:#1f77b4;stroke:#1f77b4;" x="273.693208" xlink:href="#mfe1881c979" y="209.929765"/>
     <use style="fill:#1f77b4;stroke:#1f77b4;" x="284.656149" xlink:href="#mfe1881c979" y="236.685579"/>
     <use style="fill:#1f77b4;stroke:#1f77b4;" x="286.386414" xlink:href="#mfe1881c979" y="249.363683"/>
     <use style="fill:#1f77b4;stroke:#1f77b4;" x="305.548289" xlink:href="#mfe1881c979" y="235.273477"/>
     <use style="fill:#1f77b4;stroke:#1f77b4;" x="320.483164" xlink:href="#mfe1881c979" y="236.040795"/>
     <use style="fill:#1f77b4;stroke:#1f77b4;" x="322.96634" xlink:href="#mfe1881c979" y="244.166465"/>
     <use style="fill:#1f77b4;stroke:#1f77b4;" x="324.778665" xlink:href="#mfe1881c979" y="256.359979"/>
     <use style="fill:#1f77b4;stroke:#1f77b4;" x="326.446058" xlink:href="#mfe1881c979" y="256.182819"/>
     <use style="fill:#1f77b4;stroke:#1f77b4;" x="327.280272" xlink:href="#mfe1881c979" y="259.201391"/>
     <use style="fill:#1f77b4;stroke:#1f77b4;" x="327.496977" xlink:href="#mfe1881c979" y="260.641389"/>
     <use style="fill:#1f77b4;stroke:#1f77b4;" x="334.752416" xlink:href="#mfe1881c979" y="232.25623"/>
     <use style="fill:#1f77b4;stroke:#1f77b4;" x="347.828144" xlink:href="#mfe1881c979" y="237.91327"/>
     <use style="fill:#1f77b4;stroke:#1f77b4;" x="364.674211" xlink:href="#mfe1881c979" y="243.092945"/>
     <use style="fill:#1f77b4;stroke:#1f77b4;" x="367.130659" xlink:href="#mfe1881c979" y="258.665555"/>
     <use style="fill:#1f77b4;stroke:#1f77b4;" x="371.135717" xlink:href="#mfe1881c979" y="272.429206"/>
     <use style="fill:#1f77b4;stroke:#1f77b4;" x="374.320533" xlink:href="#mfe1881c979" y="279.972167"/>
     <use style="fill:#1f77b4;stroke:#1f77b4;" x="375.977335" xlink:href="#mfe1881c979" y="282.009255"/>
     <use style="fill:#1f77b4;stroke:#1f77b4;" x="376.591704" xlink:href="#mfe1881c979" y="276.236325"/>
     <use style="fill:#1f77b4;stroke:#1f77b4;" x="386.391034" xlink:href="#mfe1881c979" y="220.514649"/>
     <use style="fill:#1f77b4;stroke:#1f77b4;" x="386.434604" xlink:href="#mfe1881c979" y="222.302787"/>
     <use style="fill:#1f77b4;stroke:#1f77b4;" x="393.882203" xlink:href="#mfe1881c979" y="193.846816"/>
     <use style="fill:#1f77b4;stroke:#1f77b4;" x="397.421529" xlink:href="#mfe1881c979" y="212.133229"/>
    </g>
   </g>
   <g id="line2d_12">
    <defs>
     <path d="M 0 3 
C 0.795609 3 1.55874 2.683901 2.12132 2.12132 
C 2.683901 1.55874 3 0.795609 3 0 
C 3 -0.795609 2.683901 -1.55874 2.12132 -2.12132 
C 1.55874 -2.683901 0.795609 -3 0 -3 
C -0.795609 -3 -1.55874 -2.683901 -2.12132 -2.12132 
C -2.683901 -1.55874 -3 -0.795609 -3 0 
C -3 0.795609 -2.683901 1.55874 -2.12132 2.12132 
C -1.55874 2.683901 -0.795609 3 0 3 
z
" id="m1469c3e760" style="stroke:#ff7f0e;"/>
    </defs>
    <g clip-path="url(#p742940a2f8)">
     <use style="fill:#ff7f0e;stroke:#ff7f0e;" x="84.703502" xlink:href="#m1469c3e760" y="189.544706"/>
     <use style="fill:#ff7f0e;stroke:#ff7f0e;" x="94.737781" xlink:href="#m1469c3e760" y="204.652853"/>
     <use style="fill:#ff7f0e;stroke:#ff7f0e;" x="98.170711" xlink:href="#m1469c3e760" y="219.154057"/>
     <use style="fill:#ff7f0e;stroke:#ff7f0e;" x="101.102265" xlink:href="#m1469c3e760" y="227.330898"/>
     <use style="fill:#ff7f0e;stroke:#ff7f0e;" x="101.786339" xlink:href="#m1469c3e760" y="233.953273"/>
     <use style="fill:#ff7f0e;stroke:#ff7f0e;" x="105.512918" xlink:href="#m1469c3e760" y="228.006009"/>
     <use style="fill:#ff7f0e;stroke:#ff7f0e;" x="105.919382" xlink:href="#m1469c3e760" y="228.813102"/>
     <use style="fill:#ff7f0e;stroke:#ff7f0e;" x="110.327903" xlink:href="#m1469c3e760" y="224.424489"/>
     <use style="fill:#ff7f0e;stroke:#ff7f0e;" x="115.849448" xlink:href="#m1469c3e760" y="166.943795"/>
     <use style="fill:#ff7f0e;stroke:#ff7f0e;" x="126.992099" xlink:href="#m1469c3e760" y="150.638273"/>
     <use style="fill:#ff7f0e;stroke:#ff7f0e;" x="135.48106" xlink:href="#m1469c3e760" y="174.456654"/>
     <use style="fill:#ff7f0e;stroke:#ff7f0e;" x="135.679947" xlink:href="#m1469c3e760" y="177.598279"/>
     <use style="fill:#ff7f0e;stroke:#ff7f0e;" x="137.355695" xlink:href="#m1469c3e760" y="195.482248"/>
     <use style="fill:#ff7f0e;stroke:#ff7f0e;" x="145.86129" xlink:href="#m1469c3e760" y="223.10302"/>
     <use style="fill:#ff7f0e;stroke:#ff7f0e;" x="148.043645" xlink:href="#m1469c3e760" y="220.17437"/>
     <use style="fill:#ff7f0e;stroke:#ff7f0e;" x="148.640023" xlink:href="#m1469c3e760" y="210.204037"/>
     <use style="fill:#ff7f0e;stroke:#ff7f0e;" x="177.049871" xlink:href="#m1469c3e760" y="183.271014"/>
     <use style="fill:#ff7f0e;stroke:#ff7f0e;" x="187.191842" xlink:href="#m1469c3e760" y="208.791077"/>
     <use style="fill:#ff7f0e;stroke:#ff7f0e;" x="189.498166" xlink:href="#m1469c3e760" y="231.674786"/>
     <use style="fill:#ff7f0e;stroke:#ff7f0e;" x="205.132064" xlink:href="#m1469c3e760" y="246.946206"/>
     <use style="fill:#ff7f0e;stroke:#ff7f0e;" x="210.326009" xlink:href="#m1469c3e760" y="276.091418"/>
     <use style="fill:#ff7f0e;stroke:#ff7f0e;" x="221.415556" xlink:href="#m1469c3e760" y="272.35648"/>
     <use style="fill:#ff7f0e;stroke:#ff7f0e;" x="230.546943" xlink:href="#m1469c3e760" y="275.071001"/>
     <use style="fill:#ff7f0e;stroke:#ff7f0e;" x="230.710884" xlink:href="#m1469c3e760" y="269.366869"/>
     <use style="fill:#ff7f0e;stroke:#ff7f0e;" x="232.024735" xlink:href="#m1469c3e760" y="265.9903"/>
     <use style="fill:#ff7f0e;stroke:#ff7f0e;" x="253.10845" xlink:href="#m1469c3e760" y="178.637714"/>
     <use style="fill:#ff7f0e;stroke:#ff7f0e;" x="256.218777" xlink:href="#m1469c3e760" y="177.66301"/>
     <use style="fill:#ff7f0e;stroke:#ff7f0e;" x="258.083811" xlink:href="#m1469c3e760" y="182.525268"/>
     <use style="fill:#ff7f0e;stroke:#ff7f0e;" x="263.428688" xlink:href="#m1469c3e760" y="158.231087"/>
     <use style="fill:#ff7f0e;stroke:#ff7f0e;" x="279.127655" xlink:href="#m1469c3e760" y="169.199911"/>
     <use style="fill:#ff7f0e;stroke:#ff7f0e;" x="298.097337" xlink:href="#m1469c3e760" y="218.362494"/>
     <use style="fill:#ff7f0e;stroke:#ff7f0e;" x="300.476024" xlink:href="#m1469c3e760" y="215.915166"/>
     <use style="fill:#ff7f0e;stroke:#ff7f0e;" x="304.984813" xlink:href="#m1469c3e760" y="214.456625"/>
     <use style="fill:#ff7f0e;stroke:#ff7f0e;" x="309.798745" xlink:href="#m1469c3e760" y="239.605022"/>
     <use style="fill:#ff7f0e;stroke:#ff7f0e;" x="314.353215" xlink:href="#m1469c3e760" y="210.722422"/>
     <use style="fill:#ff7f0e;stroke:#ff7f0e;" x="326.299523" xlink:href="#m1469c3e760" y="245.89955"/>
     <use style="fill:#ff7f0e;stroke:#ff7f0e;" x="338.532092" xlink:href="#m1469c3e760" y="203.503703"/>
     <use style="fill:#ff7f0e;stroke:#ff7f0e;" x="339.943499" xlink:href="#m1469c3e760" y="201.821896"/>
     <use style="fill:#ff7f0e;stroke:#ff7f0e;" x="340.860941" xlink:href="#m1469c3e760" y="199.675951"/>
     <use style="fill:#ff7f0e;stroke:#ff7f0e;" x="355.48798" xlink:href="#m1469c3e760" y="224.700635"/>
     <use style="fill:#ff7f0e;stroke:#ff7f0e;" x="361.260601" xlink:href="#m1469c3e760" y="222.030223"/>
     <use style="fill:#ff7f0e;stroke:#ff7f0e;" x="361.944745" xlink:href="#m1469c3e760" y="223.931462"/>
     <use style="fill:#ff7f0e;stroke:#ff7f0e;" x="375.405477" xlink:href="#m1469c3e760" y="284.97645"/>
     <use style="fill:#ff7f0e;stroke:#ff7f0e;" x="384.145303" xlink:href="#m1469c3e760" y="235.634459"/>
     <use style="fill:#ff7f0e;stroke:#ff7f0e;" x="386.237983" xlink:href="#m1469c3e760" y="215.67567"/>
     <use style="fill:#ff7f0e;stroke:#ff7f0e;" x="387.916972" xlink:href="#m1469c3e760" y="192.837972"/>
     <use style="fill:#ff7f0e;stroke:#ff7f0e;" x="391.277704" xlink:href="#m1469c3e760" y="168.328792"/>
     <use style="fill:#ff7f0e;stroke:#ff7f0e;" x="391.59445" xlink:href="#m1469c3e760" y="153.192919"/>
     <use style="fill:#ff7f0e;stroke:#ff7f0e;" x="394.425807" xlink:href="#m1469c3e760" y="145.398007"/>
     <use style="fill:#ff7f0e;stroke:#ff7f0e;" x="398.487273" xlink:href="#m1469c3e760" y="155.105955"/>
    </g>
   </g>
   <g id="line2d_13">
    <defs>
     <path d="M 0 3 
C 0.795609 3 1.55874 2.683901 2.12132 2.12132 
C 2.683901 1.55874 3 0.795609 3 0 
C 3 -0.795609 2.683901 -1.55874 2.12132 -2.12132 
C 1.55874 -2.683901 0.795609 -3 0 -3 
C -0.795609 -3 -1.55874 -2.683901 -2.12132 -2.12132 
C -2.683901 -1.55874 -3 -0.795609 -3 0 
C -3 0.795609 -2.683901 1.55874 -2.12132 2.12132 
C -1.55874 2.683901 -0.795609 3 0 3 
z
" id="m755e80be95" style="stroke:#2ca02c;"/>
    </defs>
    <g clip-path="url(#p742940a2f8)">
     <use style="fill:#2ca02c;stroke:#2ca02c;" x="76.82752" xlink:href="#m755e80be95" y="176.604691"/>
     <use style="fill:#2ca02c;stroke:#2ca02c;" x="89.442799" xlink:href="#m755e80be95" y="161.613136"/>
     <use style="fill:#2ca02c;stroke:#2ca02c;" x="94.298738" xlink:href="#m755e80be95" y="173.721374"/>
     <use style="fill:#2ca02c;stroke:#2ca02c;" x="106.807961" xlink:href="#m755e80be95" y="198.768803"/>
     <use style="fill:#2ca02c;stroke:#2ca02c;" x="107.789857" xlink:href="#m755e80be95" y="209.676849"/>
     <use style="fill:#2ca02c;stroke:#2ca02c;" x="110.951899" xlink:href="#m755e80be95" y="181.500298"/>
     <use style="fill:#2ca02c;stroke:#2ca02c;" x="116.111878" xlink:href="#m755e80be95" y="124.959904"/>
     <use style="fill:#2ca02c;stroke:#2ca02c;" x="126.779021" xlink:href="#m755e80be95" y="102.48886"/>
     <use style="fill:#2ca02c;stroke:#2ca02c;" x="131.981214" xlink:href="#m755e80be95" y="112.352449"/>
     <use style="fill:#2ca02c;stroke:#2ca02c;" x="147.832571" xlink:href="#m755e80be95" y="196.751442"/>
     <use style="fill:#2ca02c;stroke:#2ca02c;" x="151.260975" xlink:href="#m755e80be95" y="176.674586"/>
     <use style="fill:#2ca02c;stroke:#2ca02c;" x="160.595503" xlink:href="#m755e80be95" y="124.387735"/>
     <use style="fill:#2ca02c;stroke:#2ca02c;" x="161.967592" xlink:href="#m755e80be95" y="122.934055"/>
     <use style="fill:#2ca02c;stroke:#2ca02c;" x="170.263845" xlink:href="#m755e80be95" y="144.263108"/>
     <use style="fill:#2ca02c;stroke:#2ca02c;" x="171.588684" xlink:href="#m755e80be95" y="137.590645"/>
     <use style="fill:#2ca02c;stroke:#2ca02c;" x="175.774401" xlink:href="#m755e80be95" y="133.004918"/>
     <use style="fill:#2ca02c;stroke:#2ca02c;" x="179.42169" xlink:href="#m755e80be95" y="142.591236"/>
     <use style="fill:#2ca02c;stroke:#2ca02c;" x="192.415291" xlink:href="#m755e80be95" y="229.959017"/>
     <use style="fill:#2ca02c;stroke:#2ca02c;" x="213.850815" xlink:href="#m755e80be95" y="281.716907"/>
     <use style="fill:#2ca02c;stroke:#2ca02c;" x="220.292076" xlink:href="#m755e80be95" y="283.029641"/>
     <use style="fill:#2ca02c;stroke:#2ca02c;" x="222.435845" xlink:href="#m755e80be95" y="274.534309"/>
     <use style="fill:#2ca02c;stroke:#2ca02c;" x="226.763442" xlink:href="#m755e80be95" y="283.157767"/>
     <use style="fill:#2ca02c;stroke:#2ca02c;" x="232.686683" xlink:href="#m755e80be95" y="284.419628"/>
     <use style="fill:#2ca02c;stroke:#2ca02c;" x="244.065919" xlink:href="#m755e80be95" y="193.536721"/>
     <use style="fill:#2ca02c;stroke:#2ca02c;" x="247.934893" xlink:href="#m755e80be95" y="178.647709"/>
     <use style="fill:#2ca02c;stroke:#2ca02c;" x="253.591284" xlink:href="#m755e80be95" y="152.686854"/>
     <use style="fill:#2ca02c;stroke:#2ca02c;" x="253.971052" xlink:href="#m755e80be95" y="147.682105"/>
     <use style="fill:#2ca02c;stroke:#2ca02c;" x="259.259025" xlink:href="#m755e80be95" y="134.323982"/>
     <use style="fill:#2ca02c;stroke:#2ca02c;" x="261.223391" xlink:href="#m755e80be95" y="121.87295"/>
     <use style="fill:#2ca02c;stroke:#2ca02c;" x="271.389183" xlink:href="#m755e80be95" y="120.404842"/>
     <use style="fill:#2ca02c;stroke:#2ca02c;" x="272.86192" xlink:href="#m755e80be95" y="116.84011"/>
     <use style="fill:#2ca02c;stroke:#2ca02c;" x="273.920624" xlink:href="#m755e80be95" y="126.596505"/>
     <use style="fill:#2ca02c;stroke:#2ca02c;" x="285.132917" xlink:href="#m755e80be95" y="174.345732"/>
     <use style="fill:#2ca02c;stroke:#2ca02c;" x="295.47232" xlink:href="#m755e80be95" y="219.04379"/>
     <use style="fill:#2ca02c;stroke:#2ca02c;" x="317.311559" xlink:href="#m755e80be95" y="179.154639"/>
     <use style="fill:#2ca02c;stroke:#2ca02c;" x="320.51823" xlink:href="#m755e80be95" y="189.824447"/>
     <use style="fill:#2ca02c;stroke:#2ca02c;" x="324.956316" xlink:href="#m755e80be95" y="228.706261"/>
     <use style="fill:#2ca02c;stroke:#2ca02c;" x="327.573474" xlink:href="#m755e80be95" y="232.116559"/>
     <use style="fill:#2ca02c;stroke:#2ca02c;" x="333.882621" xlink:href="#m755e80be95" y="207.348413"/>
     <use style="fill:#2ca02c;stroke:#2ca02c;" x="336.094883" xlink:href="#m755e80be95" y="192.899087"/>
     <use style="fill:#2ca02c;stroke:#2ca02c;" x="337.589034" xlink:href="#m755e80be95" y="188.192861"/>
     <use style="fill:#2ca02c;stroke:#2ca02c;" x="347.860492" xlink:href="#m755e80be95" y="181.607661"/>
     <use style="fill:#2ca02c;stroke:#2ca02c;" x="356.534264" xlink:href="#m755e80be95" y="200.677055"/>
     <use style="fill:#2ca02c;stroke:#2ca02c;" x="357.681665" xlink:href="#m755e80be95" y="206.752734"/>
     <use style="fill:#2ca02c;stroke:#2ca02c;" x="358.829836" xlink:href="#m755e80be95" y="200.991046"/>
     <use style="fill:#2ca02c;stroke:#2ca02c;" x="363.559265" xlink:href="#m755e80be95" y="212.421421"/>
     <use style="fill:#2ca02c;stroke:#2ca02c;" x="368.090779" xlink:href="#m755e80be95" y="242.286886"/>
     <use style="fill:#2ca02c;stroke:#2ca02c;" x="371.389958" xlink:href="#m755e80be95" y="280.257742"/>
     <use style="fill:#2ca02c;stroke:#2ca02c;" x="378.984149" xlink:href="#m755e80be95" y="295.488"/>
     <use style="fill:#2ca02c;stroke:#2ca02c;" x="397.727194" xlink:href="#m755e80be95" y="120.04068"/>
    </g>
   </g>
   <g id="line2d_14">
    <defs>
     <path d="M 0 3 
C 0.795609 3 1.55874 2.683901 2.12132 2.12132 
C 2.683901 1.55874 3 0.795609 3 0 
C 3 -0.795609 2.683901 -1.55874 2.12132 -2.12132 
C 1.55874 -2.683901 0.795609 -3 0 -3 
C -0.795609 -3 -1.55874 -2.683901 -2.12132 -2.12132 
C -2.683901 -1.55874 -3 -0.795609 -3 0 
C -3 0.795609 -2.683901 1.55874 -2.12132 2.12132 
C -1.55874 2.683901 -0.795609 3 0 3 
z
" id="m264fba7bde" style="stroke:#d62728;"/>
    </defs>
    <g clip-path="url(#p742940a2f8)">
     <use style="fill:#d62728;stroke:#d62728;" x="73.832727" xlink:href="#m264fba7bde" y="177.850094"/>
     <use style="fill:#d62728;stroke:#d62728;" x="74.736765" xlink:href="#m264fba7bde" y="168.06376"/>
     <use style="fill:#d62728;stroke:#d62728;" x="76.201021" xlink:href="#m264fba7bde" y="163.687566"/>
     <use style="fill:#d62728;stroke:#d62728;" x="80.144649" xlink:href="#m264fba7bde" y="144.420978"/>
     <use style="fill:#d62728;stroke:#d62728;" x="81.195291" xlink:href="#m264fba7bde" y="140.06625"/>
     <use style="fill:#d62728;stroke:#d62728;" x="83.227987" xlink:href="#m264fba7bde" y="123.691121"/>
     <use style="fill:#d62728;stroke:#d62728;" x="87.182049" xlink:href="#m264fba7bde" y="133.108449"/>
     <use style="fill:#d62728;stroke:#d62728;" x="108.231716" xlink:href="#m264fba7bde" y="176.143633"/>
     <use style="fill:#d62728;stroke:#d62728;" x="112.911099" xlink:href="#m264fba7bde" y="140.653494"/>
     <use style="fill:#d62728;stroke:#d62728;" x="118.402861" xlink:href="#m264fba7bde" y="59.461176"/>
     <use style="fill:#d62728;stroke:#d62728;" x="127.68397" xlink:href="#m264fba7bde" y="53.568"/>
     <use style="fill:#d62728;stroke:#d62728;" x="137.731302" xlink:href="#m264fba7bde" y="118.624202"/>
     <use style="fill:#d62728;stroke:#d62728;" x="140.369681" xlink:href="#m264fba7bde" y="146.109583"/>
     <use style="fill:#d62728;stroke:#d62728;" x="152.380881" xlink:href="#m264fba7bde" y="150.529056"/>
     <use style="fill:#d62728;stroke:#d62728;" x="155.089724" xlink:href="#m264fba7bde" y="139.202899"/>
     <use style="fill:#d62728;stroke:#d62728;" x="161.617719" xlink:href="#m264fba7bde" y="83.960987"/>
     <use style="fill:#d62728;stroke:#d62728;" x="163.998999" xlink:href="#m264fba7bde" y="73.626751"/>
     <use style="fill:#d62728;stroke:#d62728;" x="172.793288" xlink:href="#m264fba7bde" y="90.635133"/>
     <use style="fill:#d62728;stroke:#d62728;" x="178.348681" xlink:href="#m264fba7bde" y="102.254789"/>
     <use style="fill:#d62728;stroke:#d62728;" x="179.841733" xlink:href="#m264fba7bde" y="107.274257"/>
     <use style="fill:#d62728;stroke:#d62728;" x="188.577748" xlink:href="#m264fba7bde" y="157.110612"/>
     <use style="fill:#d62728;stroke:#d62728;" x="197.850026" xlink:href="#m264fba7bde" y="226.340368"/>
     <use style="fill:#d62728;stroke:#d62728;" x="215.291334" xlink:href="#m264fba7bde" y="294.27524"/>
     <use style="fill:#d62728;stroke:#d62728;" x="221.925524" xlink:href="#m264fba7bde" y="288.810859"/>
     <use style="fill:#d62728;stroke:#d62728;" x="223.597268" xlink:href="#m264fba7bde" y="294.638912"/>
     <use style="fill:#d62728;stroke:#d62728;" x="230.678611" xlink:href="#m264fba7bde" y="290.687808"/>
     <use style="fill:#d62728;stroke:#d62728;" x="235.510248" xlink:href="#m264fba7bde" y="273.285696"/>
     <use style="fill:#d62728;stroke:#d62728;" x="245.108572" xlink:href="#m264fba7bde" y="179.524735"/>
     <use style="fill:#d62728;stroke:#d62728;" x="251.816913" xlink:href="#m264fba7bde" y="117.939779"/>
     <use style="fill:#d62728;stroke:#d62728;" x="267.058801" xlink:href="#m264fba7bde" y="73.863537"/>
     <use style="fill:#d62728;stroke:#d62728;" x="281.064106" xlink:href="#m264fba7bde" y="115.205632"/>
     <use style="fill:#d62728;stroke:#d62728;" x="283.211989" xlink:href="#m264fba7bde" y="113.057845"/>
     <use style="fill:#d62728;stroke:#d62728;" x="285.322631" xlink:href="#m264fba7bde" y="147.577596"/>
     <use style="fill:#d62728;stroke:#d62728;" x="293.366053" xlink:href="#m264fba7bde" y="193.153425"/>
     <use style="fill:#d62728;stroke:#d62728;" x="294.387021" xlink:href="#m264fba7bde" y="197.147428"/>
     <use style="fill:#d62728;stroke:#d62728;" x="297.96501" xlink:href="#m264fba7bde" y="187.51661"/>
     <use style="fill:#d62728;stroke:#d62728;" x="305.345095" xlink:href="#m264fba7bde" y="166.765824"/>
     <use style="fill:#d62728;stroke:#d62728;" x="306.455185" xlink:href="#m264fba7bde" y="185.645248"/>
     <use style="fill:#d62728;stroke:#d62728;" x="321.745643" xlink:href="#m264fba7bde" y="178.689634"/>
     <use style="fill:#d62728;stroke:#d62728;" x="325.06032" xlink:href="#m264fba7bde" y="208.895849"/>
     <use style="fill:#d62728;stroke:#d62728;" x="326.180929" xlink:href="#m264fba7bde" y="210.654845"/>
     <use style="fill:#d62728;stroke:#d62728;" x="328.976046" xlink:href="#m264fba7bde" y="219.037832"/>
     <use style="fill:#d62728;stroke:#d62728;" x="335.183126" xlink:href="#m264fba7bde" y="177.896627"/>
     <use style="fill:#d62728;stroke:#d62728;" x="344.41944" xlink:href="#m264fba7bde" y="147.9224"/>
     <use style="fill:#d62728;stroke:#d62728;" x="351.618347" xlink:href="#m264fba7bde" y="175.545597"/>
     <use style="fill:#d62728;stroke:#d62728;" x="356.529768" xlink:href="#m264fba7bde" y="186.85905"/>
     <use style="fill:#d62728;stroke:#d62728;" x="360.144128" xlink:href="#m264fba7bde" y="191.385023"/>
     <use style="fill:#d62728;stroke:#d62728;" x="369.307896" xlink:href="#m264fba7bde" y="242.162143"/>
     <use style="fill:#d62728;stroke:#d62728;" x="381.66935" xlink:href="#m264fba7bde" y="280.68886"/>
     <use style="fill:#d62728;stroke:#d62728;" x="392.191822" xlink:href="#m264fba7bde" y="101.055"/>
    </g>
   </g>
   <g id="patch_3">
    <path d="M 57.6 307.584 
L 57.6 41.472 
" style="fill:none;stroke:#000000;stroke-linecap:square;stroke-linejoin:miter;stroke-width:0.8;"/>
   </g>
   <g id="patch_4">
    <path d="M 414.72 307.584 
L 414.72 41.472 
" style="fill:none;stroke:#000000;stroke-linecap:square;stroke-linejoin:miter;stroke-width:0.8;"/>
   </g>
   <g id="patch_5">
    <path d="M 57.6 307.584 
L 414.72 307.584 
" style="fill:none;stroke:#000000;stroke-linecap:square;stroke-linejoin:miter;stroke-width:0.8;"/>
   </g>
   <g id="patch_6">
    <path d="M 57.6 41.472 
L 414.72 41.472 
" style="fill:none;stroke:#000000;stroke-linecap:square;stroke-linejoin:miter;stroke-width:0.8;"/>
   </g>
   <g id="legend_1">
    <g id="patch_7">
     <path d="M 207.435 108.1845 
L 264.885 108.1845 
Q 266.885 108.1845 266.885 106.1845 
L 266.885 48.472 
Q 266.885 46.472 264.885 46.472 
L 207.435 46.472 
Q 205.435 46.472 205.435 48.472 
L 205.435 106.1845 
Q 205.435 108.1845 207.435 108.1845 
z
" style="fill:#ffffff;opacity:0.8;stroke:#cccccc;stroke-linejoin:miter;"/>
    </g>
    <g id="line2d_15"/>
    <g id="line2d_16">
     <g>
      <use style="fill:#1f77b4;stroke:#1f77b4;" x="219.435" xlink:href="#mfe1881c979" y="54.570438"/>
     </g>
    </g>
    <g id="text_11">
     <!-- 4300 -->
     <g transform="translate(237.435 58.070438)scale(0.1 -0.1)">
      <defs>
       <path d="M 40.578125 39.3125 
Q 47.65625 37.796875 51.625 33 
Q 55.609375 28.21875 55.609375 21.1875 
Q 55.609375 10.40625 48.1875 4.484375 
Q 40.765625 -1.421875 27.09375 -1.421875 
Q 22.515625 -1.421875 17.65625 -0.515625 
Q 12.796875 0.390625 7.625 2.203125 
L 7.625 11.71875 
Q 11.71875 9.328125 16.59375 8.109375 
Q 21.484375 6.890625 26.8125 6.890625 
Q 36.078125 6.890625 40.9375 10.546875 
Q 45.796875 14.203125 45.796875 21.1875 
Q 45.796875 27.640625 41.28125 31.265625 
Q 36.765625 34.90625 28.71875 34.90625 
L 20.21875 34.90625 
L 20.21875 43.015625 
L 29.109375 43.015625 
Q 36.375 43.015625 40.234375 45.921875 
Q 44.09375 48.828125 44.09375 54.296875 
Q 44.09375 59.90625 40.109375 62.90625 
Q 36.140625 65.921875 28.71875 65.921875 
Q 24.65625 65.921875 20.015625 65.03125 
Q 15.375 64.15625 9.8125 62.3125 
L 9.8125 71.09375 
Q 15.4375 72.65625 20.34375 73.4375 
Q 25.25 74.21875 29.59375 74.21875 
Q 40.828125 74.21875 47.359375 69.109375 
Q 53.90625 64.015625 53.90625 55.328125 
Q 53.90625 49.265625 50.4375 45.09375 
Q 46.96875 40.921875 40.578125 39.3125 
z
" id="DejaVuSans-51"/>
      </defs>
      <use xlink:href="#DejaVuSans-52"/>
      <use x="63.623047" xlink:href="#DejaVuSans-51"/>
      <use x="127.246094" xlink:href="#DejaVuSans-48"/>
      <use x="190.869141" xlink:href="#DejaVuSans-48"/>
     </g>
    </g>
    <g id="line2d_17"/>
    <g id="line2d_18">
     <g>
      <use style="fill:#ff7f0e;stroke:#ff7f0e;" x="219.435" xlink:href="#m1469c3e760" y="69.248563"/>
     </g>
    </g>
    <g id="text_12">
     <!-- 5700 -->
     <g transform="translate(237.435 72.748563)scale(0.1 -0.1)">
      <defs>
       <path d="M 10.796875 72.90625 
L 49.515625 72.90625 
L 49.515625 64.59375 
L 19.828125 64.59375 
L 19.828125 46.734375 
Q 21.96875 47.46875 24.109375 47.828125 
Q 26.265625 48.1875 28.421875 48.1875 
Q 40.625 48.1875 47.75 41.5 
Q 54.890625 34.8125 54.890625 23.390625 
Q 54.890625 11.625 47.5625 5.09375 
Q 40.234375 -1.421875 26.90625 -1.421875 
Q 22.3125 -1.421875 17.546875 -0.640625 
Q 12.796875 0.140625 7.71875 1.703125 
L 7.71875 11.625 
Q 12.109375 9.234375 16.796875 8.0625 
Q 21.484375 6.890625 26.703125 6.890625 
Q 35.15625 6.890625 40.078125 11.328125 
Q 45.015625 15.765625 45.015625 23.390625 
Q 45.015625 31 40.078125 35.4375 
Q 35.15625 39.890625 26.703125 39.890625 
Q 22.75 39.890625 18.8125 39.015625 
Q 14.890625 38.140625 10.796875 36.28125 
z
" id="DejaVuSans-53"/>
       <path d="M 8.203125 72.90625 
L 55.078125 72.90625 
L 55.078125 68.703125 
L 28.609375 0 
L 18.3125 0 
L 43.21875 64.59375 
L 8.203125 64.59375 
z
" id="DejaVuSans-55"/>
      </defs>
      <use xlink:href="#DejaVuSans-53"/>
      <use x="63.623047" xlink:href="#DejaVuSans-55"/>
      <use x="127.246094" xlink:href="#DejaVuSans-48"/>
      <use x="190.869141" xlink:href="#DejaVuSans-48"/>
     </g>
    </g>
    <g id="line2d_19"/>
    <g id="line2d_20">
     <g>
      <use style="fill:#2ca02c;stroke:#2ca02c;" x="219.435" xlink:href="#m755e80be95" y="83.926688"/>
     </g>
    </g>
    <g id="text_13">
     <!-- 6200 -->
     <g transform="translate(237.435 87.426688)scale(0.1 -0.1)">
      <use xlink:href="#DejaVuSans-54"/>
      <use x="63.623047" xlink:href="#DejaVuSans-50"/>
      <use x="127.246094" xlink:href="#DejaVuSans-48"/>
      <use x="190.869141" xlink:href="#DejaVuSans-48"/>
     </g>
    </g>
    <g id="line2d_21"/>
    <g id="line2d_22">
     <g>
      <use style="fill:#d62728;stroke:#d62728;" x="219.435" xlink:href="#m264fba7bde" y="98.604813"/>
     </g>
    </g>
    <g id="text_14">
     <!-- 7000 -->
     <g transform="translate(237.435 102.104813)scale(0.1 -0.1)">
      <use xlink:href="#DejaVuSans-55"/>
      <use x="63.623047" xlink:href="#DejaVuSans-48"/>
      <use x="127.246094" xlink:href="#DejaVuSans-48"/>
      <use x="190.869141" xlink:href="#DejaVuSans-48"/>
     </g>
    </g>
   </g>
  </g>
 </g>
 <defs>
  <clipPath id="p742940a2f8">
   <rect height="266.112" width="357.12" x="57.6" y="41.472"/>
  </clipPath>
 </defs>
</svg>
