<?xml version="1.0" encoding="utf-8" standalone="no"?>
<!DOCTYPE svg PUBLIC "-//W3C//DTD SVG 1.1//EN"
  "http://www.w3.org/Graphics/SVG/1.1/DTD/svg11.dtd">
<svg xmlns:xlink="http://www.w3.org/1999/xlink" width="460.8pt" height="345.6pt" viewBox="0 0 460.8 345.6" xmlns="http://www.w3.org/2000/svg" version="1.1">
 <metadata>
  <rdf:RDF xmlns:dc="http://purl.org/dc/elements/1.1/" xmlns:cc="http://creativecommons.org/ns#" xmlns:rdf="http://www.w3.org/1999/02/22-rdf-syntax-ns#">
   <cc:Work>
    <dc:type rdf:resource="http://purl.org/dc/dcmitype/StillImage"/>
    <dc:date>2022-01-28T09:47:25.925933</dc:date>
    <dc:format>image/svg+xml</dc:format>
    <dc:creator>
     <cc:Agent>
      <dc:title>Matplotlib v3.5.1, https://matplotlib.org/</dc:title>
     </cc:Agent>
    </dc:creator>
   </cc:Work>
  </rdf:RDF>
 </metadata>
 <defs>
  <style type="text/css">*{stroke-linejoin: round; stroke-linecap: butt}</style>
 </defs>
 <g id="figure_1">
  <g id="patch_1">
   <path d="M 0 345.6 
L 460.8 345.6 
L 460.8 0 
L 0 0 
z
" style="fill: #ffffff"/>
  </g>
  <g id="axes_1">
   <g id="patch_2">
    <path d="M 57.6 307.584 
L 414.72 307.584 
L 414.72 41.472 
L 57.6 41.472 
z
" style="fill: #ffffff"/>
   </g>
   <g id="matplotlib.axis_1">
    <g id="xtick_1">
     <g id="line2d_1">
      <defs>
       <path id="m043bc7755e" d="M 0 0 
L 0 3.5 
" style="stroke: #000000; stroke-width: 0.8"/>
      </defs>
      <g>
       <use xlink:href="#m043bc7755e" x="72.776062" y="307.584" style="stroke: #000000; stroke-width: 0.8"/>
      </g>
     </g>
     <g id="text_1">
      <!-- 0 -->
      <g transform="translate(69.594812 322.182437)scale(0.1 -0.1)">
       <defs>
        <path id="DejaVuSans-30" d="M 2034 4250 
Q 1547 4250 1301 3770 
Q 1056 3291 1056 2328 
Q 1056 1369 1301 889 
Q 1547 409 2034 409 
Q 2525 409 2770 889 
Q 3016 1369 3016 2328 
Q 3016 3291 2770 3770 
Q 2525 4250 2034 4250 
z
M 2034 4750 
Q 2819 4750 3233 4129 
Q 3647 3509 3647 2328 
Q 3647 1150 3233 529 
Q 2819 -91 2034 -91 
Q 1250 -91 836 529 
Q 422 1150 422 2328 
Q 422 3509 836 4129 
Q 1250 4750 2034 4750 
z
" transform="scale(0.015625)"/>
       </defs>
       <use xlink:href="#DejaVuSans-30"/>
      </g>
     </g>
    </g>
    <g id="xtick_2">
     <g id="line2d_2">
      <g>
       <use xlink:href="#m043bc7755e" x="119.343934" y="307.584" style="stroke: #000000; stroke-width: 0.8"/>
      </g>
     </g>
     <g id="text_2">
      <!-- 50 -->
      <g transform="translate(112.981434 322.182437)scale(0.1 -0.1)">
       <defs>
        <path id="DejaVuSans-35" d="M 691 4666 
L 3169 4666 
L 3169 4134 
L 1269 4134 
L 1269 2991 
Q 1406 3038 1543 3061 
Q 1681 3084 1819 3084 
Q 2600 3084 3056 2656 
Q 3513 2228 3513 1497 
Q 3513 744 3044 326 
Q 2575 -91 1722 -91 
Q 1428 -91 1123 -41 
Q 819 9 494 109 
L 494 744 
Q 775 591 1075 516 
Q 1375 441 1709 441 
Q 2250 441 2565 725 
Q 2881 1009 2881 1497 
Q 2881 1984 2565 2268 
Q 2250 2553 1709 2553 
Q 1456 2553 1204 2497 
Q 953 2441 691 2322 
L 691 4666 
z
" transform="scale(0.015625)"/>
       </defs>
       <use xlink:href="#DejaVuSans-35"/>
       <use xlink:href="#DejaVuSans-30" x="63.623047"/>
      </g>
     </g>
    </g>
    <g id="xtick_3">
     <g id="line2d_3">
      <g>
       <use xlink:href="#m043bc7755e" x="165.911805" y="307.584" style="stroke: #000000; stroke-width: 0.8"/>
      </g>
     </g>
     <g id="text_3">
      <!-- 100 -->
      <g transform="translate(156.368055 322.182437)scale(0.1 -0.1)">
       <defs>
        <path id="DejaVuSans-31" d="M 794 531 
L 1825 531 
L 1825 4091 
L 703 3866 
L 703 4441 
L 1819 4666 
L 2450 4666 
L 2450 531 
L 3481 531 
L 3481 0 
L 794 0 
L 794 531 
z
" transform="scale(0.015625)"/>
       </defs>
       <use xlink:href="#DejaVuSans-31"/>
       <use xlink:href="#DejaVuSans-30" x="63.623047"/>
       <use xlink:href="#DejaVuSans-30" x="127.246094"/>
      </g>
     </g>
    </g>
    <g id="xtick_4">
     <g id="line2d_4">
      <g>
       <use xlink:href="#m043bc7755e" x="212.479676" y="307.584" style="stroke: #000000; stroke-width: 0.8"/>
      </g>
     </g>
     <g id="text_4">
      <!-- 150 -->
      <g transform="translate(202.935926 322.182437)scale(0.1 -0.1)">
       <use xlink:href="#DejaVuSans-31"/>
       <use xlink:href="#DejaVuSans-35" x="63.623047"/>
       <use xlink:href="#DejaVuSans-30" x="127.246094"/>
      </g>
     </g>
    </g>
    <g id="xtick_5">
     <g id="line2d_5">
      <g>
       <use xlink:href="#m043bc7755e" x="259.047548" y="307.584" style="stroke: #000000; stroke-width: 0.8"/>
      </g>
     </g>
     <g id="text_5">
      <!-- 200 -->
      <g transform="translate(249.503798 322.182437)scale(0.1 -0.1)">
       <defs>
        <path id="DejaVuSans-32" d="M 1228 531 
L 3431 531 
L 3431 0 
L 469 0 
L 469 531 
Q 828 903 1448 1529 
Q 2069 2156 2228 2338 
Q 2531 2678 2651 2914 
Q 2772 3150 2772 3378 
Q 2772 3750 2511 3984 
Q 2250 4219 1831 4219 
Q 1534 4219 1204 4116 
Q 875 4013 500 3803 
L 500 4441 
Q 881 4594 1212 4672 
Q 1544 4750 1819 4750 
Q 2544 4750 2975 4387 
Q 3406 4025 3406 3419 
Q 3406 3131 3298 2873 
Q 3191 2616 2906 2266 
Q 2828 2175 2409 1742 
Q 1991 1309 1228 531 
z
" transform="scale(0.015625)"/>
       </defs>
       <use xlink:href="#DejaVuSans-32"/>
       <use xlink:href="#DejaVuSans-30" x="63.623047"/>
       <use xlink:href="#DejaVuSans-30" x="127.246094"/>
      </g>
     </g>
    </g>
    <g id="xtick_6">
     <g id="line2d_6">
      <g>
       <use xlink:href="#m043bc7755e" x="305.615419" y="307.584" style="stroke: #000000; stroke-width: 0.8"/>
      </g>
     </g>
     <g id="text_6">
      <!-- 250 -->
      <g transform="translate(296.071669 322.182437)scale(0.1 -0.1)">
       <use xlink:href="#DejaVuSans-32"/>
       <use xlink:href="#DejaVuSans-35" x="63.623047"/>
       <use xlink:href="#DejaVuSans-30" x="127.246094"/>
      </g>
     </g>
    </g>
    <g id="xtick_7">
     <g id="line2d_7">
      <g>
       <use xlink:href="#m043bc7755e" x="352.18329" y="307.584" style="stroke: #000000; stroke-width: 0.8"/>
      </g>
     </g>
     <g id="text_7">
      <!-- 300 -->
      <g transform="translate(342.63954 322.182437)scale(0.1 -0.1)">
       <defs>
        <path id="DejaVuSans-33" d="M 2597 2516 
Q 3050 2419 3304 2112 
Q 3559 1806 3559 1356 
Q 3559 666 3084 287 
Q 2609 -91 1734 -91 
Q 1441 -91 1130 -33 
Q 819 25 488 141 
L 488 750 
Q 750 597 1062 519 
Q 1375 441 1716 441 
Q 2309 441 2620 675 
Q 2931 909 2931 1356 
Q 2931 1769 2642 2001 
Q 2353 2234 1838 2234 
L 1294 2234 
L 1294 2753 
L 1863 2753 
Q 2328 2753 2575 2939 
Q 2822 3125 2822 3475 
Q 2822 3834 2567 4026 
Q 2313 4219 1838 4219 
Q 1578 4219 1281 4162 
Q 984 4106 628 3988 
L 628 4550 
Q 988 4650 1302 4700 
Q 1616 4750 1894 4750 
Q 2613 4750 3031 4423 
Q 3450 4097 3450 3541 
Q 3450 3153 3228 2886 
Q 3006 2619 2597 2516 
z
" transform="scale(0.015625)"/>
       </defs>
       <use xlink:href="#DejaVuSans-33"/>
       <use xlink:href="#DejaVuSans-30" x="63.623047"/>
       <use xlink:href="#DejaVuSans-30" x="127.246094"/>
      </g>
     </g>
    </g>
    <g id="xtick_8">
     <g id="line2d_8">
      <g>
       <use xlink:href="#m043bc7755e" x="398.751161" y="307.584" style="stroke: #000000; stroke-width: 0.8"/>
      </g>
     </g>
     <g id="text_8">
      <!-- 350 -->
      <g transform="translate(389.207411 322.182437)scale(0.1 -0.1)">
       <use xlink:href="#DejaVuSans-33"/>
       <use xlink:href="#DejaVuSans-35" x="63.623047"/>
       <use xlink:href="#DejaVuSans-30" x="127.246094"/>
      </g>
     </g>
    </g>
   </g>
   <g id="matplotlib.axis_2">
    <g id="ytick_1">
     <g id="line2d_9">
      <defs>
       <path id="m574c2fd6d6" d="M 0 0 
L -3.5 0 
" style="stroke: #000000; stroke-width: 0.8"/>
      </defs>
      <g>
       <use xlink:href="#m574c2fd6d6" x="57.6" y="305.491494" style="stroke: #000000; stroke-width: 0.8"/>
      </g>
     </g>
     <g id="text_9">
      <!-- 2 -->
      <g transform="translate(44.2375 309.290713)scale(0.1 -0.1)">
       <use xlink:href="#DejaVuSans-32"/>
      </g>
     </g>
    </g>
    <g id="ytick_2">
     <g id="line2d_10">
      <g>
       <use xlink:href="#m574c2fd6d6" x="57.6" y="259.298723" style="stroke: #000000; stroke-width: 0.8"/>
      </g>
     </g>
     <g id="text_10">
      <!-- 4 -->
      <g transform="translate(44.2375 263.097942)scale(0.1 -0.1)">
       <defs>
        <path id="DejaVuSans-34" d="M 2419 4116 
L 825 1625 
L 2419 1625 
L 2419 4116 
z
M 2253 4666 
L 3047 4666 
L 3047 1625 
L 3713 1625 
L 3713 1100 
L 3047 1100 
L 3047 0 
L 2419 0 
L 2419 1100 
L 313 1100 
L 313 1709 
L 2253 4666 
z
" transform="scale(0.015625)"/>
       </defs>
       <use xlink:href="#DejaVuSans-34"/>
      </g>
     </g>
    </g>
    <g id="ytick_3">
     <g id="line2d_11">
      <g>
       <use xlink:href="#m574c2fd6d6" x="57.6" y="213.105953" style="stroke: #000000; stroke-width: 0.8"/>
      </g>
     </g>
     <g id="text_11">
      <!-- 6 -->
      <g transform="translate(44.2375 216.905172)scale(0.1 -0.1)">
       <defs>
        <path id="DejaVuSans-36" d="M 2113 2584 
Q 1688 2584 1439 2293 
Q 1191 2003 1191 1497 
Q 1191 994 1439 701 
Q 1688 409 2113 409 
Q 2538 409 2786 701 
Q 3034 994 3034 1497 
Q 3034 2003 2786 2293 
Q 2538 2584 2113 2584 
z
M 3366 4563 
L 3366 3988 
Q 3128 4100 2886 4159 
Q 2644 4219 2406 4219 
Q 1781 4219 1451 3797 
Q 1122 3375 1075 2522 
Q 1259 2794 1537 2939 
Q 1816 3084 2150 3084 
Q 2853 3084 3261 2657 
Q 3669 2231 3669 1497 
Q 3669 778 3244 343 
Q 2819 -91 2113 -91 
Q 1303 -91 875 529 
Q 447 1150 447 2328 
Q 447 3434 972 4092 
Q 1497 4750 2381 4750 
Q 2619 4750 2861 4703 
Q 3103 4656 3366 4563 
z
" transform="scale(0.015625)"/>
       </defs>
       <use xlink:href="#DejaVuSans-36"/>
      </g>
     </g>
    </g>
    <g id="ytick_4">
     <g id="line2d_12">
      <g>
       <use xlink:href="#m574c2fd6d6" x="57.6" y="166.913182" style="stroke: #000000; stroke-width: 0.8"/>
      </g>
     </g>
     <g id="text_12">
      <!-- 8 -->
      <g transform="translate(44.2375 170.712401)scale(0.1 -0.1)">
       <defs>
        <path id="DejaVuSans-38" d="M 2034 2216 
Q 1584 2216 1326 1975 
Q 1069 1734 1069 1313 
Q 1069 891 1326 650 
Q 1584 409 2034 409 
Q 2484 409 2743 651 
Q 3003 894 3003 1313 
Q 3003 1734 2745 1975 
Q 2488 2216 2034 2216 
z
M 1403 2484 
Q 997 2584 770 2862 
Q 544 3141 544 3541 
Q 544 4100 942 4425 
Q 1341 4750 2034 4750 
Q 2731 4750 3128 4425 
Q 3525 4100 3525 3541 
Q 3525 3141 3298 2862 
Q 3072 2584 2669 2484 
Q 3125 2378 3379 2068 
Q 3634 1759 3634 1313 
Q 3634 634 3220 271 
Q 2806 -91 2034 -91 
Q 1263 -91 848 271 
Q 434 634 434 1313 
Q 434 1759 690 2068 
Q 947 2378 1403 2484 
z
M 1172 3481 
Q 1172 3119 1398 2916 
Q 1625 2713 2034 2713 
Q 2441 2713 2670 2916 
Q 2900 3119 2900 3481 
Q 2900 3844 2670 4047 
Q 2441 4250 2034 4250 
Q 1625 4250 1398 4047 
Q 1172 3844 1172 3481 
z
" transform="scale(0.015625)"/>
       </defs>
       <use xlink:href="#DejaVuSans-38"/>
      </g>
     </g>
    </g>
    <g id="ytick_5">
     <g id="line2d_13">
      <g>
       <use xlink:href="#m574c2fd6d6" x="57.6" y="120.720412" style="stroke: #000000; stroke-width: 0.8"/>
      </g>
     </g>
     <g id="text_13">
      <!-- 10 -->
      <g transform="translate(37.875 124.51963)scale(0.1 -0.1)">
       <use xlink:href="#DejaVuSans-31"/>
       <use xlink:href="#DejaVuSans-30" x="63.623047"/>
      </g>
     </g>
    </g>
    <g id="ytick_6">
     <g id="line2d_14">
      <g>
       <use xlink:href="#m574c2fd6d6" x="57.6" y="74.527641" style="stroke: #000000; stroke-width: 0.8"/>
      </g>
     </g>
     <g id="text_14">
      <!-- 12 -->
      <g transform="translate(37.875 78.32686)scale(0.1 -0.1)">
       <use xlink:href="#DejaVuSans-31"/>
       <use xlink:href="#DejaVuSans-32" x="63.623047"/>
      </g>
     </g>
    </g>
   </g>
   <g id="line2d_15">
    <defs>
     <path id="m5a6d5adff5" d="M 0 3 
C 0.795609 3 1.55874 2.683901 2.12132 2.12132 
C 2.683901 1.55874 3 0.795609 3 0 
C 3 -0.795609 2.683901 -1.55874 2.12132 -2.12132 
C 1.55874 -2.683901 0.795609 -3 0 -3 
C -0.795609 -3 -1.55874 -2.683901 -2.12132 -2.12132 
C -2.683901 -1.55874 -3 -0.795609 -3 0 
C -3 0.795609 -2.683901 1.55874 -2.12132 2.12132 
C -1.55874 2.683901 -0.795609 3 0 3 
z
" style="stroke: #1f77b4"/>
    </defs>
    <g clip-path="url(#p96b0e9f2b3)">
     <use xlink:href="#m5a6d5adff5" x="89.856991" y="252.02472" style="fill: #1f77b4; stroke: #1f77b4"/>
     <use xlink:href="#m5a6d5adff5" x="97.171973" y="218.555339" style="fill: #1f77b4; stroke: #1f77b4"/>
     <use xlink:href="#m5a6d5adff5" x="82.567257" y="239.691181" style="fill: #1f77b4; stroke: #1f77b4"/>
     <use xlink:href="#m5a6d5adff5" x="110.930895" y="243.450586" style="fill: #1f77b4; stroke: #1f77b4"/>
     <use xlink:href="#m5a6d5adff5" x="96.12385" y="223.97507" style="fill: #1f77b4; stroke: #1f77b4"/>
     <use xlink:href="#m5a6d5adff5" x="98.824048" y="221.347695" style="fill: #1f77b4; stroke: #1f77b4"/>
     <use xlink:href="#m5a6d5adff5" x="97.1571" y="219.629998" style="fill: #1f77b4; stroke: #1f77b4"/>
     <use xlink:href="#m5a6d5adff5" x="92.142223" y="247.189062" style="fill: #1f77b4; stroke: #1f77b4"/>
     <use xlink:href="#m5a6d5adff5" x="97.929769" y="218.363563" style="fill: #1f77b4; stroke: #1f77b4"/>
     <use xlink:href="#m5a6d5adff5" x="104.887709" y="233.107167" style="fill: #1f77b4; stroke: #1f77b4"/>
     <use xlink:href="#m5a6d5adff5" x="79.474181" y="248.328873" style="fill: #1f77b4; stroke: #1f77b4"/>
     <use xlink:href="#m5a6d5adff5" x="104.681451" y="229.013267" style="fill: #1f77b4; stroke: #1f77b4"/>
     <use xlink:href="#m5a6d5adff5" x="74.039809" y="239.561968" style="fill: #1f77b4; stroke: #1f77b4"/>
     <use xlink:href="#m5a6d5adff5" x="109.349681" y="230.299609" style="fill: #1f77b4; stroke: #1f77b4"/>
     <use xlink:href="#m5a6d5adff5" x="104.874283" y="226.063911" style="fill: #1f77b4; stroke: #1f77b4"/>
     <use xlink:href="#m5a6d5adff5" x="84.057504" y="223.025953" style="fill: #1f77b4; stroke: #1f77b4"/>
     <use xlink:href="#m5a6d5adff5" x="105.900862" y="223.274556" style="fill: #1f77b4; stroke: #1f77b4"/>
     <use xlink:href="#m5a6d5adff5" x="91.56428" y="253.407504" style="fill: #1f77b4; stroke: #1f77b4"/>
     <use xlink:href="#m5a6d5adff5" x="107.785763" y="223.957887" style="fill: #1f77b4; stroke: #1f77b4"/>
     <use xlink:href="#m5a6d5adff5" x="79.838646" y="257.508894" style="fill: #1f77b4; stroke: #1f77b4"/>
     <use xlink:href="#m5a6d5adff5" x="79.222477" y="249.964589" style="fill: #1f77b4; stroke: #1f77b4"/>
     <use xlink:href="#m5a6d5adff5" x="82.867122" y="242.768822" style="fill: #1f77b4; stroke: #1f77b4"/>
     <use xlink:href="#m5a6d5adff5" x="115.681348" y="195.584293" style="fill: #1f77b4; stroke: #1f77b4"/>
     <use xlink:href="#m5a6d5adff5" x="73.832727" y="236.946584" style="fill: #1f77b4; stroke: #1f77b4"/>
     <use xlink:href="#m5a6d5adff5" x="77.146874" y="237.449568" style="fill: #1f77b4; stroke: #1f77b4"/>
     <use xlink:href="#m5a6d5adff5" x="114.664848" y="206.653661" style="fill: #1f77b4; stroke: #1f77b4"/>
     <use xlink:href="#m5a6d5adff5" x="75.632428" y="231.713128" style="fill: #1f77b4; stroke: #1f77b4"/>
     <use xlink:href="#m5a6d5adff5" x="81.133253" y="260.709554" style="fill: #1f77b4; stroke: #1f77b4"/>
     <use xlink:href="#m5a6d5adff5" x="118.011373" y="201.197367" style="fill: #1f77b4; stroke: #1f77b4"/>
     <use xlink:href="#m5a6d5adff5" x="83.06104" y="235.82851" style="fill: #1f77b4; stroke: #1f77b4"/>
     <use xlink:href="#m5a6d5adff5" x="91.06096" y="253.525232" style="fill: #1f77b4; stroke: #1f77b4"/>
     <use xlink:href="#m5a6d5adff5" x="102.39165" y="215.891573" style="fill: #1f77b4; stroke: #1f77b4"/>
     <use xlink:href="#m5a6d5adff5" x="116.123512" y="195.718966" style="fill: #1f77b4; stroke: #1f77b4"/>
     <use xlink:href="#m5a6d5adff5" x="90.141777" y="255.670984" style="fill: #1f77b4; stroke: #1f77b4"/>
     <use xlink:href="#m5a6d5adff5" x="95.08811" y="237.206986" style="fill: #1f77b4; stroke: #1f77b4"/>
     <use xlink:href="#m5a6d5adff5" x="73.956437" y="243.846192" style="fill: #1f77b4; stroke: #1f77b4"/>
     <use xlink:href="#m5a6d5adff5" x="78.219018" y="243.014426" style="fill: #1f77b4; stroke: #1f77b4"/>
     <use xlink:href="#m5a6d5adff5" x="99.771357" y="218.172585" style="fill: #1f77b4; stroke: #1f77b4"/>
     <use xlink:href="#m5a6d5adff5" x="92.686828" y="243.124891" style="fill: #1f77b4; stroke: #1f77b4"/>
     <use xlink:href="#m5a6d5adff5" x="73.959244" y="241.240622" style="fill: #1f77b4; stroke: #1f77b4"/>
     <use xlink:href="#m5a6d5adff5" x="75.178224" y="239.657452" style="fill: #1f77b4; stroke: #1f77b4"/>
     <use xlink:href="#m5a6d5adff5" x="116.581417" y="198.954061" style="fill: #1f77b4; stroke: #1f77b4"/>
     <use xlink:href="#m5a6d5adff5" x="76.425911" y="233.528492" style="fill: #1f77b4; stroke: #1f77b4"/>
     <use xlink:href="#m5a6d5adff5" x="92.285157" y="243.4133" style="fill: #1f77b4; stroke: #1f77b4"/>
     <use xlink:href="#m5a6d5adff5" x="117.048523" y="195.065091" style="fill: #1f77b4; stroke: #1f77b4"/>
     <use xlink:href="#m5a6d5adff5" x="77.633896" y="235.516194" style="fill: #1f77b4; stroke: #1f77b4"/>
     <use xlink:href="#m5a6d5adff5" x="103.73313" y="220.838303" style="fill: #1f77b4; stroke: #1f77b4"/>
     <use xlink:href="#m5a6d5adff5" x="113.603765" y="217.517078" style="fill: #1f77b4; stroke: #1f77b4"/>
     <use xlink:href="#m5a6d5adff5" x="112.390243" y="238.477907" style="fill: #1f77b4; stroke: #1f77b4"/>
     <use xlink:href="#m5a6d5adff5" x="103.025819" y="223.267924" style="fill: #1f77b4; stroke: #1f77b4"/>
    </g>
   </g>
   <g id="line2d_16">
    <defs>
     <path id="mc584383d33" d="M 0 3 
C 0.795609 3 1.55874 2.683901 2.12132 2.12132 
C 2.683901 1.55874 3 0.795609 3 0 
C 3 -0.795609 2.683901 -1.55874 2.12132 -2.12132 
C 1.55874 -2.683901 0.795609 -3 0 -3 
C -0.795609 -3 -1.55874 -2.683901 -2.12132 -2.12132 
C -2.683901 -1.55874 -3 -0.795609 -3 0 
C -3 0.795609 -2.683901 1.55874 -2.12132 2.12132 
C -1.55874 2.683901 -0.795609 3 0 3 
z
" style="stroke: #ff7f0e"/>
    </defs>
    <g clip-path="url(#p96b0e9f2b3)">
     <use xlink:href="#mc584383d33" x="193.445934" y="224.855484" style="fill: #ff7f0e; stroke: #ff7f0e"/>
     <use xlink:href="#mc584383d33" x="184.263056" y="191.699125" style="fill: #ff7f0e; stroke: #ff7f0e"/>
     <use xlink:href="#mc584383d33" x="170.148074" y="216.828752" style="fill: #ff7f0e; stroke: #ff7f0e"/>
     <use xlink:href="#mc584383d33" x="202.875787" y="241.795372" style="fill: #ff7f0e; stroke: #ff7f0e"/>
     <use xlink:href="#mc584383d33" x="175.763338" y="228.122667" style="fill: #ff7f0e; stroke: #ff7f0e"/>
     <use xlink:href="#mc584383d33" x="202.113759" y="239.020803" style="fill: #ff7f0e; stroke: #ff7f0e"/>
     <use xlink:href="#mc584383d33" x="168.032424" y="232.848289" style="fill: #ff7f0e; stroke: #ff7f0e"/>
     <use xlink:href="#mc584383d33" x="182.395063" y="219.206623" style="fill: #ff7f0e; stroke: #ff7f0e"/>
     <use xlink:href="#mc584383d33" x="200.044336" y="228.733972" style="fill: #ff7f0e; stroke: #ff7f0e"/>
     <use xlink:href="#mc584383d33" x="167.489406" y="233.502258" style="fill: #ff7f0e; stroke: #ff7f0e"/>
     <use xlink:href="#mc584383d33" x="205.626938" y="243.777347" style="fill: #ff7f0e; stroke: #ff7f0e"/>
     <use xlink:href="#mc584383d33" x="174.096789" y="221.654752" style="fill: #ff7f0e; stroke: #ff7f0e"/>
     <use xlink:href="#mc584383d33" x="166.38148" y="235.390219" style="fill: #ff7f0e; stroke: #ff7f0e"/>
     <use xlink:href="#mc584383d33" x="182.330728" y="213.667906" style="fill: #ff7f0e; stroke: #ff7f0e"/>
     <use xlink:href="#mc584383d33" x="203.167221" y="243.444064" style="fill: #ff7f0e; stroke: #ff7f0e"/>
     <use xlink:href="#mc584383d33" x="194.579112" y="225.219979" style="fill: #ff7f0e; stroke: #ff7f0e"/>
     <use xlink:href="#mc584383d33" x="184.545312" y="194.740557" style="fill: #ff7f0e; stroke: #ff7f0e"/>
     <use xlink:href="#mc584383d33" x="179.219005" y="211.11949" style="fill: #ff7f0e; stroke: #ff7f0e"/>
     <use xlink:href="#mc584383d33" x="203.548087" y="245.33802" style="fill: #ff7f0e; stroke: #ff7f0e"/>
     <use xlink:href="#mc584383d33" x="203.307299" y="245.147832" style="fill: #ff7f0e; stroke: #ff7f0e"/>
     <use xlink:href="#mc584383d33" x="177.922969" y="203.611755" style="fill: #ff7f0e; stroke: #ff7f0e"/>
     <use xlink:href="#mc584383d33" x="198.542681" y="217.626521" style="fill: #ff7f0e; stroke: #ff7f0e"/>
     <use xlink:href="#mc584383d33" x="182.506878" y="212.946223" style="fill: #ff7f0e; stroke: #ff7f0e"/>
     <use xlink:href="#mc584383d33" x="190.907434" y="167.431356" style="fill: #ff7f0e; stroke: #ff7f0e"/>
     <use xlink:href="#mc584383d33" x="196.645118" y="205.469519" style="fill: #ff7f0e; stroke: #ff7f0e"/>
     <use xlink:href="#mc584383d33" x="212.050762" y="225.737395" style="fill: #ff7f0e; stroke: #ff7f0e"/>
     <use xlink:href="#mc584383d33" x="207.243467" y="227.715686" style="fill: #ff7f0e; stroke: #ff7f0e"/>
     <use xlink:href="#mc584383d33" x="185.251905" y="191.283589" style="fill: #ff7f0e; stroke: #ff7f0e"/>
     <use xlink:href="#mc584383d33" x="189.082413" y="151.237017" style="fill: #ff7f0e; stroke: #ff7f0e"/>
     <use xlink:href="#mc584383d33" x="175.03387" y="228.625839" style="fill: #ff7f0e; stroke: #ff7f0e"/>
     <use xlink:href="#mc584383d33" x="204.264165" y="244.3503" style="fill: #ff7f0e; stroke: #ff7f0e"/>
     <use xlink:href="#mc584383d33" x="173.295361" y="221.855241" style="fill: #ff7f0e; stroke: #ff7f0e"/>
     <use xlink:href="#mc584383d33" x="171.908174" y="224.145894" style="fill: #ff7f0e; stroke: #ff7f0e"/>
     <use xlink:href="#mc584383d33" x="209.8706" y="219.548868" style="fill: #ff7f0e; stroke: #ff7f0e"/>
     <use xlink:href="#mc584383d33" x="182.918341" y="206.352828" style="fill: #ff7f0e; stroke: #ff7f0e"/>
     <use xlink:href="#mc584383d33" x="201.973634" y="241.319717" style="fill: #ff7f0e; stroke: #ff7f0e"/>
     <use xlink:href="#mc584383d33" x="211.958372" y="221.071371" style="fill: #ff7f0e; stroke: #ff7f0e"/>
     <use xlink:href="#mc584383d33" x="195.824041" y="223.106533" style="fill: #ff7f0e; stroke: #ff7f0e"/>
     <use xlink:href="#mc584383d33" x="196.738103" y="207.94939" style="fill: #ff7f0e; stroke: #ff7f0e"/>
     <use xlink:href="#mc584383d33" x="188.597519" y="155.660167" style="fill: #ff7f0e; stroke: #ff7f0e"/>
     <use xlink:href="#mc584383d33" x="168.550245" y="227.876579" style="fill: #ff7f0e; stroke: #ff7f0e"/>
     <use xlink:href="#mc584383d33" x="168.461343" y="233.415574" style="fill: #ff7f0e; stroke: #ff7f0e"/>
     <use xlink:href="#mc584383d33" x="199.274091" y="221.642021" style="fill: #ff7f0e; stroke: #ff7f0e"/>
     <use xlink:href="#mc584383d33" x="192.014999" y="197.125989" style="fill: #ff7f0e; stroke: #ff7f0e"/>
     <use xlink:href="#mc584383d33" x="209.177032" y="222.535021" style="fill: #ff7f0e; stroke: #ff7f0e"/>
     <use xlink:href="#mc584383d33" x="175.941307" y="219.746292" style="fill: #ff7f0e; stroke: #ff7f0e"/>
     <use xlink:href="#mc584383d33" x="188.994013" y="146.890881" style="fill: #ff7f0e; stroke: #ff7f0e"/>
     <use xlink:href="#mc584383d33" x="172.477644" y="224.381668" style="fill: #ff7f0e; stroke: #ff7f0e"/>
     <use xlink:href="#mc584383d33" x="178.343287" y="202.340018" style="fill: #ff7f0e; stroke: #ff7f0e"/>
     <use xlink:href="#mc584383d33" x="186.710101" y="190.389403" style="fill: #ff7f0e; stroke: #ff7f0e"/>
    </g>
   </g>
   <g id="line2d_17">
    <defs>
     <path id="m803aa3d524" d="M 0 3 
C 0.795609 3 1.55874 2.683901 2.12132 2.12132 
C 2.683901 1.55874 3 0.795609 3 0 
C 3 -0.795609 2.683901 -1.55874 2.12132 -2.12132 
C 1.55874 -2.683901 0.795609 -3 0 -3 
C -0.795609 -3 -1.55874 -2.683901 -2.12132 -2.12132 
C -2.683901 -1.55874 -3 -0.795609 -3 0 
C -3 0.795609 -2.683901 1.55874 -2.12132 2.12132 
C -1.55874 2.683901 -0.795609 3 0 3 
z
" style="stroke: #2ca02c"/>
    </defs>
    <g clip-path="url(#p96b0e9f2b3)">
     <use xlink:href="#m803aa3d524" x="275.38842" y="168.825366" style="fill: #2ca02c; stroke: #2ca02c"/>
     <use xlink:href="#m803aa3d524" x="298.83659" y="168.427264" style="fill: #2ca02c; stroke: #2ca02c"/>
     <use xlink:href="#m803aa3d524" x="261.457124" y="276.730102" style="fill: #2ca02c; stroke: #2ca02c"/>
     <use xlink:href="#m803aa3d524" x="264.746458" y="213.38183" style="fill: #2ca02c; stroke: #2ca02c"/>
     <use xlink:href="#m803aa3d524" x="260.615744" y="295.488" style="fill: #2ca02c; stroke: #2ca02c"/>
     <use xlink:href="#m803aa3d524" x="296.147615" y="125.309721" style="fill: #2ca02c; stroke: #2ca02c"/>
     <use xlink:href="#m803aa3d524" x="282.396294" y="233.692192" style="fill: #2ca02c; stroke: #2ca02c"/>
     <use xlink:href="#m803aa3d524" x="276.82722" y="153.081363" style="fill: #2ca02c; stroke: #2ca02c"/>
     <use xlink:href="#m803aa3d524" x="300.952079" y="164.171099" style="fill: #2ca02c; stroke: #2ca02c"/>
     <use xlink:href="#m803aa3d524" x="262.181533" y="255.647743" style="fill: #2ca02c; stroke: #2ca02c"/>
     <use xlink:href="#m803aa3d524" x="274.581045" y="165.040771" style="fill: #2ca02c; stroke: #2ca02c"/>
     <use xlink:href="#m803aa3d524" x="292.842808" y="55.278251" style="fill: #2ca02c; stroke: #2ca02c"/>
     <use xlink:href="#m803aa3d524" x="263.991506" y="222.476129" style="fill: #2ca02c; stroke: #2ca02c"/>
     <use xlink:href="#m803aa3d524" x="271.954544" y="174.241965" style="fill: #2ca02c; stroke: #2ca02c"/>
     <use xlink:href="#m803aa3d524" x="293.725818" y="64.484722" style="fill: #2ca02c; stroke: #2ca02c"/>
     <use xlink:href="#m803aa3d524" x="267.804695" y="192.835992" style="fill: #2ca02c; stroke: #2ca02c"/>
     <use xlink:href="#m803aa3d524" x="259.158994" y="275.198949" style="fill: #2ca02c; stroke: #2ca02c"/>
     <use xlink:href="#m803aa3d524" x="299.584301" y="163.196643" style="fill: #2ca02c; stroke: #2ca02c"/>
     <use xlink:href="#m803aa3d524" x="304.482537" y="195.40971" style="fill: #2ca02c; stroke: #2ca02c"/>
     <use xlink:href="#m803aa3d524" x="295.312206" y="105.557309" style="fill: #2ca02c; stroke: #2ca02c"/>
     <use xlink:href="#m803aa3d524" x="269.686878" y="183.951358" style="fill: #2ca02c; stroke: #2ca02c"/>
     <use xlink:href="#m803aa3d524" x="284.710625" y="210.13743" style="fill: #2ca02c; stroke: #2ca02c"/>
     <use xlink:href="#m803aa3d524" x="270.990691" y="185.326004" style="fill: #2ca02c; stroke: #2ca02c"/>
     <use xlink:href="#m803aa3d524" x="265.922841" y="204.396686" style="fill: #2ca02c; stroke: #2ca02c"/>
     <use xlink:href="#m803aa3d524" x="297.44913" y="155.157394" style="fill: #2ca02c; stroke: #2ca02c"/>
     <use xlink:href="#m803aa3d524" x="261.481038" y="278.172351" style="fill: #2ca02c; stroke: #2ca02c"/>
     <use xlink:href="#m803aa3d524" x="291.156078" y="78.523574" style="fill: #2ca02c; stroke: #2ca02c"/>
     <use xlink:href="#m803aa3d524" x="284.865734" y="210.12907" style="fill: #2ca02c; stroke: #2ca02c"/>
     <use xlink:href="#m803aa3d524" x="259.613823" y="282.737625" style="fill: #2ca02c; stroke: #2ca02c"/>
     <use xlink:href="#m803aa3d524" x="293.564132" y="54.329931" style="fill: #2ca02c; stroke: #2ca02c"/>
     <use xlink:href="#m803aa3d524" x="305.350473" y="208.821316" style="fill: #2ca02c; stroke: #2ca02c"/>
     <use xlink:href="#m803aa3d524" x="285.093959" y="213.303009" style="fill: #2ca02c; stroke: #2ca02c"/>
     <use xlink:href="#m803aa3d524" x="286.049406" y="212.270474" style="fill: #2ca02c; stroke: #2ca02c"/>
     <use xlink:href="#m803aa3d524" x="289.089488" y="174.269534" style="fill: #2ca02c; stroke: #2ca02c"/>
     <use xlink:href="#m803aa3d524" x="292.602542" y="53.568" style="fill: #2ca02c; stroke: #2ca02c"/>
     <use xlink:href="#m803aa3d524" x="275.468951" y="165.686643" style="fill: #2ca02c; stroke: #2ca02c"/>
     <use xlink:href="#m803aa3d524" x="278.009231" y="156.76226" style="fill: #2ca02c; stroke: #2ca02c"/>
     <use xlink:href="#m803aa3d524" x="304.156656" y="197.832126" style="fill: #2ca02c; stroke: #2ca02c"/>
     <use xlink:href="#m803aa3d524" x="279.952628" y="191.17616" style="fill: #2ca02c; stroke: #2ca02c"/>
     <use xlink:href="#m803aa3d524" x="289.285997" y="159.73237" style="fill: #2ca02c; stroke: #2ca02c"/>
     <use xlink:href="#m803aa3d524" x="274.141777" y="163.796321" style="fill: #2ca02c; stroke: #2ca02c"/>
     <use xlink:href="#m803aa3d524" x="300.658117" y="168.707525" style="fill: #2ca02c; stroke: #2ca02c"/>
     <use xlink:href="#m803aa3d524" x="295.33466" y="104.646455" style="fill: #2ca02c; stroke: #2ca02c"/>
     <use xlink:href="#m803aa3d524" x="263.406917" y="225.410759" style="fill: #2ca02c; stroke: #2ca02c"/>
     <use xlink:href="#m803aa3d524" x="263.57562" y="219.922547" style="fill: #2ca02c; stroke: #2ca02c"/>
     <use xlink:href="#m803aa3d524" x="279.877133" y="189.366438" style="fill: #2ca02c; stroke: #2ca02c"/>
     <use xlink:href="#m803aa3d524" x="293.912701" y="59.571254" style="fill: #2ca02c; stroke: #2ca02c"/>
     <use xlink:href="#m803aa3d524" x="286.305004" y="217.055731" style="fill: #2ca02c; stroke: #2ca02c"/>
     <use xlink:href="#m803aa3d524" x="284.028191" y="209.46458" style="fill: #2ca02c; stroke: #2ca02c"/>
     <use xlink:href="#m803aa3d524" x="280.229698" y="207.235392" style="fill: #2ca02c; stroke: #2ca02c"/>
    </g>
   </g>
   <g id="line2d_18">
    <defs>
     <path id="m821017ce84" d="M 0 3 
C 0.795609 3 1.55874 2.683901 2.12132 2.12132 
C 2.683901 1.55874 3 0.795609 3 0 
C 3 -0.795609 2.683901 -1.55874 2.12132 -2.12132 
C 1.55874 -2.683901 0.795609 -3 0 -3 
C -0.795609 -3 -1.55874 -2.683901 -2.12132 -2.12132 
C -2.683901 -1.55874 -3 -0.795609 -3 0 
C -3 0.795609 -2.683901 1.55874 -2.12132 2.12132 
C -1.55874 2.683901 -0.795609 3 0 3 
z
" style="stroke: #d62728"/>
    </defs>
    <g clip-path="url(#p96b0e9f2b3)">
     <use xlink:href="#m821017ce84" x="360.376808" y="181.364408" style="fill: #d62728; stroke: #d62728"/>
     <use xlink:href="#m821017ce84" x="385.539449" y="86.391896" style="fill: #d62728; stroke: #d62728"/>
     <use xlink:href="#m821017ce84" x="395.637097" y="110.04122" style="fill: #d62728; stroke: #d62728"/>
     <use xlink:href="#m821017ce84" x="379.898702" y="92.885276" style="fill: #d62728; stroke: #d62728"/>
     <use xlink:href="#m821017ce84" x="352.685816" y="76.475261" style="fill: #d62728; stroke: #d62728"/>
     <use xlink:href="#m821017ce84" x="396.006552" y="115.80232" style="fill: #d62728; stroke: #d62728"/>
     <use xlink:href="#m821017ce84" x="391.426849" y="124.831351" style="fill: #d62728; stroke: #d62728"/>
     <use xlink:href="#m821017ce84" x="370.859969" y="133.080017" style="fill: #d62728; stroke: #d62728"/>
     <use xlink:href="#m821017ce84" x="361.71197" y="193.885085" style="fill: #d62728; stroke: #d62728"/>
     <use xlink:href="#m821017ce84" x="394.539236" y="101.873746" style="fill: #d62728; stroke: #d62728"/>
     <use xlink:href="#m821017ce84" x="377.965402" y="98.19438" style="fill: #d62728; stroke: #d62728"/>
     <use xlink:href="#m821017ce84" x="392.840319" y="128.145873" style="fill: #d62728; stroke: #d62728"/>
     <use xlink:href="#m821017ce84" x="363.733135" y="190.193946" style="fill: #d62728; stroke: #d62728"/>
     <use xlink:href="#m821017ce84" x="362.539631" y="198.140856" style="fill: #d62728; stroke: #d62728"/>
     <use xlink:href="#m821017ce84" x="366.99103" y="140.888295" style="fill: #d62728; stroke: #d62728"/>
     <use xlink:href="#m821017ce84" x="393.809852" y="115.763902" style="fill: #d62728; stroke: #d62728"/>
     <use xlink:href="#m821017ce84" x="367.905047" y="136.589792" style="fill: #d62728; stroke: #d62728"/>
     <use xlink:href="#m821017ce84" x="359.268549" y="166.637338" style="fill: #d62728; stroke: #d62728"/>
     <use xlink:href="#m821017ce84" x="366.601179" y="145.588945" style="fill: #d62728; stroke: #d62728"/>
     <use xlink:href="#m821017ce84" x="354.150263" y="81.354806" style="fill: #d62728; stroke: #d62728"/>
     <use xlink:href="#m821017ce84" x="373.797012" y="94.751633" style="fill: #d62728; stroke: #d62728"/>
     <use xlink:href="#m821017ce84" x="356.84676" y="147.047128" style="fill: #d62728; stroke: #d62728"/>
     <use xlink:href="#m821017ce84" x="397.305785" y="105.525594" style="fill: #d62728; stroke: #d62728"/>
     <use xlink:href="#m821017ce84" x="352.3433" y="96.019974" style="fill: #d62728; stroke: #d62728"/>
     <use xlink:href="#m821017ce84" x="386.861856" y="61.617749" style="fill: #d62728; stroke: #d62728"/>
     <use xlink:href="#m821017ce84" x="395.559124" y="104.308943" style="fill: #d62728; stroke: #d62728"/>
     <use xlink:href="#m821017ce84" x="394.079838" y="110.034607" style="fill: #d62728; stroke: #d62728"/>
     <use xlink:href="#m821017ce84" x="363.294712" y="199.395849" style="fill: #d62728; stroke: #d62728"/>
     <use xlink:href="#m821017ce84" x="395.988037" y="102.973105" style="fill: #d62728; stroke: #d62728"/>
     <use xlink:href="#m821017ce84" x="359.943434" y="172.597616" style="fill: #d62728; stroke: #d62728"/>
     <use xlink:href="#m821017ce84" x="398.487273" y="84.22098" style="fill: #d62728; stroke: #d62728"/>
     <use xlink:href="#m821017ce84" x="391.518502" y="127.003392" style="fill: #d62728; stroke: #d62728"/>
     <use xlink:href="#m821017ce84" x="383.70341" y="94.118981" style="fill: #d62728; stroke: #d62728"/>
     <use xlink:href="#m821017ce84" x="359.776769" y="167.752655" style="fill: #d62728; stroke: #d62728"/>
     <use xlink:href="#m821017ce84" x="379.279249" y="98.539547" style="fill: #d62728; stroke: #d62728"/>
     <use xlink:href="#m821017ce84" x="368.395276" y="147.983306" style="fill: #d62728; stroke: #d62728"/>
     <use xlink:href="#m821017ce84" x="389.180376" y="110.767934" style="fill: #d62728; stroke: #d62728"/>
     <use xlink:href="#m821017ce84" x="358.735963" y="156.579894" style="fill: #d62728; stroke: #d62728"/>
     <use xlink:href="#m821017ce84" x="396.339975" y="103.372772" style="fill: #d62728; stroke: #d62728"/>
     <use xlink:href="#m821017ce84" x="381.381062" y="83.745111" style="fill: #d62728; stroke: #d62728"/>
     <use xlink:href="#m821017ce84" x="386.362595" y="72.439253" style="fill: #d62728; stroke: #d62728"/>
     <use xlink:href="#m821017ce84" x="394.787255" y="109.854492" style="fill: #d62728; stroke: #d62728"/>
     <use xlink:href="#m821017ce84" x="394.387244" y="117.267736" style="fill: #d62728; stroke: #d62728"/>
     <use xlink:href="#m821017ce84" x="386.96847" y="86.10183" style="fill: #d62728; stroke: #d62728"/>
     <use xlink:href="#m821017ce84" x="370.122213" y="138.277571" style="fill: #d62728; stroke: #d62728"/>
     <use xlink:href="#m821017ce84" x="378.668641" y="107.814234" style="fill: #d62728; stroke: #d62728"/>
     <use xlink:href="#m821017ce84" x="396.995041" y="97.958411" style="fill: #d62728; stroke: #d62728"/>
     <use xlink:href="#m821017ce84" x="373.562785" y="96.888071" style="fill: #d62728; stroke: #d62728"/>
     <use xlink:href="#m821017ce84" x="392.079608" y="128.222554" style="fill: #d62728; stroke: #d62728"/>
     <use xlink:href="#m821017ce84" x="354.459307" y="82.39813" style="fill: #d62728; stroke: #d62728"/>
    </g>
   </g>
   <g id="patch_3">
    <path d="M 57.6 307.584 
L 57.6 41.472 
" style="fill: none; stroke: #000000; stroke-width: 0.8; stroke-linejoin: miter; stroke-linecap: square"/>
   </g>
   <g id="patch_4">
    <path d="M 414.72 307.584 
L 414.72 41.472 
" style="fill: none; stroke: #000000; stroke-width: 0.8; stroke-linejoin: miter; stroke-linecap: square"/>
   </g>
   <g id="patch_5">
    <path d="M 57.6 307.584 
L 414.72 307.584 
" style="fill: none; stroke: #000000; stroke-width: 0.8; stroke-linejoin: miter; stroke-linecap: square"/>
   </g>
   <g id="patch_6">
    <path d="M 57.6 41.472 
L 414.72 41.472 
" style="fill: none; stroke: #000000; stroke-width: 0.8; stroke-linejoin: miter; stroke-linecap: square"/>
   </g>
   <g id="legend_1">
    <g id="patch_7">
     <path d="M 64.6 108.1845 
L 122.05 108.1845 
Q 124.05 108.1845 124.05 106.1845 
L 124.05 48.472 
Q 124.05 46.472 122.05 46.472 
L 64.6 46.472 
Q 62.6 46.472 62.6 48.472 
L 62.6 106.1845 
Q 62.6 108.1845 64.6 108.1845 
z
" style="fill: #ffffff; opacity: 0.8; stroke: #cccccc; stroke-linejoin: miter"/>
    </g>
    <g id="line2d_19">
     <g>
      <use xlink:href="#m5a6d5adff5" x="76.6" y="54.570438" style="fill: #1f77b4; stroke: #1f77b4"/>
     </g>
    </g>
    <g id="text_15">
     <!-- 4300 -->
     <g transform="translate(94.6 58.070438)scale(0.1 -0.1)">
      <use xlink:href="#DejaVuSans-34"/>
      <use xlink:href="#DejaVuSans-33" x="63.623047"/>
      <use xlink:href="#DejaVuSans-30" x="127.246094"/>
      <use xlink:href="#DejaVuSans-30" x="190.869141"/>
     </g>
    </g>
    <g id="line2d_20">
     <g>
      <use xlink:href="#mc584383d33" x="76.6" y="69.248563" style="fill: #ff7f0e; stroke: #ff7f0e"/>
     </g>
    </g>
    <g id="text_16">
     <!-- 5700 -->
     <g transform="translate(94.6 72.748563)scale(0.1 -0.1)">
      <defs>
       <path id="DejaVuSans-37" d="M 525 4666 
L 3525 4666 
L 3525 4397 
L 1831 0 
L 1172 0 
L 2766 4134 
L 525 4134 
L 525 4666 
z
" transform="scale(0.015625)"/>
      </defs>
      <use xlink:href="#DejaVuSans-35"/>
      <use xlink:href="#DejaVuSans-37" x="63.623047"/>
      <use xlink:href="#DejaVuSans-30" x="127.246094"/>
      <use xlink:href="#DejaVuSans-30" x="190.869141"/>
     </g>
    </g>
    <g id="line2d_21">
     <g>
      <use xlink:href="#m803aa3d524" x="76.6" y="83.926688" style="fill: #2ca02c; stroke: #2ca02c"/>
     </g>
    </g>
    <g id="text_17">
     <!-- 6200 -->
     <g transform="translate(94.6 87.426688)scale(0.1 -0.1)">
      <use xlink:href="#DejaVuSans-36"/>
      <use xlink:href="#DejaVuSans-32" x="63.623047"/>
      <use xlink:href="#DejaVuSans-30" x="127.246094"/>
      <use xlink:href="#DejaVuSans-30" x="190.869141"/>
     </g>
    </g>
    <g id="line2d_22">
     <g>
      <use xlink:href="#m821017ce84" x="76.6" y="98.604813" style="fill: #d62728; stroke: #d62728"/>
     </g>
    </g>
    <g id="text_18">
     <!-- 7800 -->
     <g transform="translate(94.6 102.104813)scale(0.1 -0.1)">
      <use xlink:href="#DejaVuSans-37"/>
      <use xlink:href="#DejaVuSans-38" x="63.623047"/>
      <use xlink:href="#DejaVuSans-30" x="127.246094"/>
      <use xlink:href="#DejaVuSans-30" x="190.869141"/>
     </g>
    </g>
   </g>
  </g>
 </g>
 <defs>
  <clipPath id="p96b0e9f2b3">
   <rect x="57.6" y="41.472" width="357.12" height="266.112"/>
  </clipPath>
 </defs>
</svg>
