<?xml version="1.0" encoding="utf-8" standalone="no"?>
<!DOCTYPE svg PUBLIC "-//W3C//DTD SVG 1.1//EN"
  "http://www.w3.org/Graphics/SVG/1.1/DTD/svg11.dtd">
<svg xmlns:xlink="http://www.w3.org/1999/xlink" width="460.8pt" height="345.6pt" viewBox="0 0 460.8 345.6" xmlns="http://www.w3.org/2000/svg" version="1.1">
 <metadata>
  <rdf:RDF xmlns:dc="http://purl.org/dc/elements/1.1/" xmlns:cc="http://creativecommons.org/ns#" xmlns:rdf="http://www.w3.org/1999/02/22-rdf-syntax-ns#">
   <cc:Work>
    <dc:type rdf:resource="http://purl.org/dc/dcmitype/StillImage"/>
    <dc:date>2022-01-27T15:10:35.815052</dc:date>
    <dc:format>image/svg+xml</dc:format>
    <dc:creator>
     <cc:Agent>
      <dc:title>Matplotlib v3.5.1, https://matplotlib.org/</dc:title>
     </cc:Agent>
    </dc:creator>
   </cc:Work>
  </rdf:RDF>
 </metadata>
 <defs>
  <style type="text/css">*{stroke-linejoin: round; stroke-linecap: butt}</style>
 </defs>
 <g id="figure_1">
  <g id="patch_1">
   <path d="M 0 345.6 
L 460.8 345.6 
L 460.8 0 
L 0 0 
z
" style="fill: #ffffff"/>
  </g>
  <g id="axes_1">
   <g id="patch_2">
    <path d="M 57.6 307.584 
L 414.72 307.584 
L 414.72 41.472 
L 57.6 41.472 
z
" style="fill: #ffffff"/>
   </g>
   <g id="matplotlib.axis_1">
    <g id="xtick_1">
     <g id="line2d_1">
      <defs>
       <path id="me396d81c70" d="M 0 0 
L 0 3.5 
" style="stroke: #000000; stroke-width: 0.8"/>
      </defs>
      <g>
       <use xlink:href="#me396d81c70" x="73.624297" y="307.584" style="stroke: #000000; stroke-width: 0.8"/>
      </g>
     </g>
     <g id="text_1">
      <!-- 0 -->
      <g transform="translate(70.443047 322.182437)scale(0.1 -0.1)">
       <defs>
        <path id="DejaVuSans-30" d="M 2034 4250 
Q 1547 4250 1301 3770 
Q 1056 3291 1056 2328 
Q 1056 1369 1301 889 
Q 1547 409 2034 409 
Q 2525 409 2770 889 
Q 3016 1369 3016 2328 
Q 3016 3291 2770 3770 
Q 2525 4250 2034 4250 
z
M 2034 4750 
Q 2819 4750 3233 4129 
Q 3647 3509 3647 2328 
Q 3647 1150 3233 529 
Q 2819 -91 2034 -91 
Q 1250 -91 836 529 
Q 422 1150 422 2328 
Q 422 3509 836 4129 
Q 1250 4750 2034 4750 
z
" transform="scale(0.015625)"/>
       </defs>
       <use xlink:href="#DejaVuSans-30"/>
      </g>
     </g>
    </g>
    <g id="xtick_2">
     <g id="line2d_2">
      <g>
       <use xlink:href="#me396d81c70" x="120.346831" y="307.584" style="stroke: #000000; stroke-width: 0.8"/>
      </g>
     </g>
     <g id="text_2">
      <!-- 50 -->
      <g transform="translate(113.984331 322.182437)scale(0.1 -0.1)">
       <defs>
        <path id="DejaVuSans-35" d="M 691 4666 
L 3169 4666 
L 3169 4134 
L 1269 4134 
L 1269 2991 
Q 1406 3038 1543 3061 
Q 1681 3084 1819 3084 
Q 2600 3084 3056 2656 
Q 3513 2228 3513 1497 
Q 3513 744 3044 326 
Q 2575 -91 1722 -91 
Q 1428 -91 1123 -41 
Q 819 9 494 109 
L 494 744 
Q 775 591 1075 516 
Q 1375 441 1709 441 
Q 2250 441 2565 725 
Q 2881 1009 2881 1497 
Q 2881 1984 2565 2268 
Q 2250 2553 1709 2553 
Q 1456 2553 1204 2497 
Q 953 2441 691 2322 
L 691 4666 
z
" transform="scale(0.015625)"/>
       </defs>
       <use xlink:href="#DejaVuSans-35"/>
       <use xlink:href="#DejaVuSans-30" x="63.623047"/>
      </g>
     </g>
    </g>
    <g id="xtick_3">
     <g id="line2d_3">
      <g>
       <use xlink:href="#me396d81c70" x="167.069366" y="307.584" style="stroke: #000000; stroke-width: 0.8"/>
      </g>
     </g>
     <g id="text_3">
      <!-- 100 -->
      <g transform="translate(157.525616 322.182437)scale(0.1 -0.1)">
       <defs>
        <path id="DejaVuSans-31" d="M 794 531 
L 1825 531 
L 1825 4091 
L 703 3866 
L 703 4441 
L 1819 4666 
L 2450 4666 
L 2450 531 
L 3481 531 
L 3481 0 
L 794 0 
L 794 531 
z
" transform="scale(0.015625)"/>
       </defs>
       <use xlink:href="#DejaVuSans-31"/>
       <use xlink:href="#DejaVuSans-30" x="63.623047"/>
       <use xlink:href="#DejaVuSans-30" x="127.246094"/>
      </g>
     </g>
    </g>
    <g id="xtick_4">
     <g id="line2d_4">
      <g>
       <use xlink:href="#me396d81c70" x="213.791901" y="307.584" style="stroke: #000000; stroke-width: 0.8"/>
      </g>
     </g>
     <g id="text_4">
      <!-- 150 -->
      <g transform="translate(204.248151 322.182437)scale(0.1 -0.1)">
       <use xlink:href="#DejaVuSans-31"/>
       <use xlink:href="#DejaVuSans-35" x="63.623047"/>
       <use xlink:href="#DejaVuSans-30" x="127.246094"/>
      </g>
     </g>
    </g>
    <g id="xtick_5">
     <g id="line2d_5">
      <g>
       <use xlink:href="#me396d81c70" x="260.514436" y="307.584" style="stroke: #000000; stroke-width: 0.8"/>
      </g>
     </g>
     <g id="text_5">
      <!-- 200 -->
      <g transform="translate(250.970686 322.182437)scale(0.1 -0.1)">
       <defs>
        <path id="DejaVuSans-32" d="M 1228 531 
L 3431 531 
L 3431 0 
L 469 0 
L 469 531 
Q 828 903 1448 1529 
Q 2069 2156 2228 2338 
Q 2531 2678 2651 2914 
Q 2772 3150 2772 3378 
Q 2772 3750 2511 3984 
Q 2250 4219 1831 4219 
Q 1534 4219 1204 4116 
Q 875 4013 500 3803 
L 500 4441 
Q 881 4594 1212 4672 
Q 1544 4750 1819 4750 
Q 2544 4750 2975 4387 
Q 3406 4025 3406 3419 
Q 3406 3131 3298 2873 
Q 3191 2616 2906 2266 
Q 2828 2175 2409 1742 
Q 1991 1309 1228 531 
z
" transform="scale(0.015625)"/>
       </defs>
       <use xlink:href="#DejaVuSans-32"/>
       <use xlink:href="#DejaVuSans-30" x="63.623047"/>
       <use xlink:href="#DejaVuSans-30" x="127.246094"/>
      </g>
     </g>
    </g>
    <g id="xtick_6">
     <g id="line2d_6">
      <g>
       <use xlink:href="#me396d81c70" x="307.236971" y="307.584" style="stroke: #000000; stroke-width: 0.8"/>
      </g>
     </g>
     <g id="text_6">
      <!-- 250 -->
      <g transform="translate(297.693221 322.182437)scale(0.1 -0.1)">
       <use xlink:href="#DejaVuSans-32"/>
       <use xlink:href="#DejaVuSans-35" x="63.623047"/>
       <use xlink:href="#DejaVuSans-30" x="127.246094"/>
      </g>
     </g>
    </g>
    <g id="xtick_7">
     <g id="line2d_7">
      <g>
       <use xlink:href="#me396d81c70" x="353.959506" y="307.584" style="stroke: #000000; stroke-width: 0.8"/>
      </g>
     </g>
     <g id="text_7">
      <!-- 300 -->
      <g transform="translate(344.415756 322.182437)scale(0.1 -0.1)">
       <defs>
        <path id="DejaVuSans-33" d="M 2597 2516 
Q 3050 2419 3304 2112 
Q 3559 1806 3559 1356 
Q 3559 666 3084 287 
Q 2609 -91 1734 -91 
Q 1441 -91 1130 -33 
Q 819 25 488 141 
L 488 750 
Q 750 597 1062 519 
Q 1375 441 1716 441 
Q 2309 441 2620 675 
Q 2931 909 2931 1356 
Q 2931 1769 2642 2001 
Q 2353 2234 1838 2234 
L 1294 2234 
L 1294 2753 
L 1863 2753 
Q 2328 2753 2575 2939 
Q 2822 3125 2822 3475 
Q 2822 3834 2567 4026 
Q 2313 4219 1838 4219 
Q 1578 4219 1281 4162 
Q 984 4106 628 3988 
L 628 4550 
Q 988 4650 1302 4700 
Q 1616 4750 1894 4750 
Q 2613 4750 3031 4423 
Q 3450 4097 3450 3541 
Q 3450 3153 3228 2886 
Q 3006 2619 2597 2516 
z
" transform="scale(0.015625)"/>
       </defs>
       <use xlink:href="#DejaVuSans-33"/>
       <use xlink:href="#DejaVuSans-30" x="63.623047"/>
       <use xlink:href="#DejaVuSans-30" x="127.246094"/>
      </g>
     </g>
    </g>
    <g id="xtick_8">
     <g id="line2d_8">
      <g>
       <use xlink:href="#me396d81c70" x="400.682041" y="307.584" style="stroke: #000000; stroke-width: 0.8"/>
      </g>
     </g>
     <g id="text_8">
      <!-- 350 -->
      <g transform="translate(391.138291 322.182437)scale(0.1 -0.1)">
       <use xlink:href="#DejaVuSans-33"/>
       <use xlink:href="#DejaVuSans-35" x="63.623047"/>
       <use xlink:href="#DejaVuSans-30" x="127.246094"/>
      </g>
     </g>
    </g>
   </g>
   <g id="matplotlib.axis_2">
    <g id="ytick_1">
     <g id="line2d_9">
      <defs>
       <path id="m49969a442d" d="M 0 0 
L -3.5 0 
" style="stroke: #000000; stroke-width: 0.8"/>
      </defs>
      <g>
       <use xlink:href="#m49969a442d" x="57.6" y="296.825392" style="stroke: #000000; stroke-width: 0.8"/>
      </g>
     </g>
     <g id="text_9">
      <!-- 2 -->
      <g transform="translate(44.2375 300.624611)scale(0.1 -0.1)">
       <use xlink:href="#DejaVuSans-32"/>
      </g>
     </g>
    </g>
    <g id="ytick_2">
     <g id="line2d_10">
      <g>
       <use xlink:href="#m49969a442d" x="57.6" y="255.910886" style="stroke: #000000; stroke-width: 0.8"/>
      </g>
     </g>
     <g id="text_10">
      <!-- 4 -->
      <g transform="translate(44.2375 259.710105)scale(0.1 -0.1)">
       <defs>
        <path id="DejaVuSans-34" d="M 2419 4116 
L 825 1625 
L 2419 1625 
L 2419 4116 
z
M 2253 4666 
L 3047 4666 
L 3047 1625 
L 3713 1625 
L 3713 1100 
L 3047 1100 
L 3047 0 
L 2419 0 
L 2419 1100 
L 313 1100 
L 313 1709 
L 2253 4666 
z
" transform="scale(0.015625)"/>
       </defs>
       <use xlink:href="#DejaVuSans-34"/>
      </g>
     </g>
    </g>
    <g id="ytick_3">
     <g id="line2d_11">
      <g>
       <use xlink:href="#m49969a442d" x="57.6" y="214.996381" style="stroke: #000000; stroke-width: 0.8"/>
      </g>
     </g>
     <g id="text_11">
      <!-- 6 -->
      <g transform="translate(44.2375 218.7956)scale(0.1 -0.1)">
       <defs>
        <path id="DejaVuSans-36" d="M 2113 2584 
Q 1688 2584 1439 2293 
Q 1191 2003 1191 1497 
Q 1191 994 1439 701 
Q 1688 409 2113 409 
Q 2538 409 2786 701 
Q 3034 994 3034 1497 
Q 3034 2003 2786 2293 
Q 2538 2584 2113 2584 
z
M 3366 4563 
L 3366 3988 
Q 3128 4100 2886 4159 
Q 2644 4219 2406 4219 
Q 1781 4219 1451 3797 
Q 1122 3375 1075 2522 
Q 1259 2794 1537 2939 
Q 1816 3084 2150 3084 
Q 2853 3084 3261 2657 
Q 3669 2231 3669 1497 
Q 3669 778 3244 343 
Q 2819 -91 2113 -91 
Q 1303 -91 875 529 
Q 447 1150 447 2328 
Q 447 3434 972 4092 
Q 1497 4750 2381 4750 
Q 2619 4750 2861 4703 
Q 3103 4656 3366 4563 
z
" transform="scale(0.015625)"/>
       </defs>
       <use xlink:href="#DejaVuSans-36"/>
      </g>
     </g>
    </g>
    <g id="ytick_4">
     <g id="line2d_12">
      <g>
       <use xlink:href="#m49969a442d" x="57.6" y="174.081875" style="stroke: #000000; stroke-width: 0.8"/>
      </g>
     </g>
     <g id="text_12">
      <!-- 8 -->
      <g transform="translate(44.2375 177.881094)scale(0.1 -0.1)">
       <defs>
        <path id="DejaVuSans-38" d="M 2034 2216 
Q 1584 2216 1326 1975 
Q 1069 1734 1069 1313 
Q 1069 891 1326 650 
Q 1584 409 2034 409 
Q 2484 409 2743 651 
Q 3003 894 3003 1313 
Q 3003 1734 2745 1975 
Q 2488 2216 2034 2216 
z
M 1403 2484 
Q 997 2584 770 2862 
Q 544 3141 544 3541 
Q 544 4100 942 4425 
Q 1341 4750 2034 4750 
Q 2731 4750 3128 4425 
Q 3525 4100 3525 3541 
Q 3525 3141 3298 2862 
Q 3072 2584 2669 2484 
Q 3125 2378 3379 2068 
Q 3634 1759 3634 1313 
Q 3634 634 3220 271 
Q 2806 -91 2034 -91 
Q 1263 -91 848 271 
Q 434 634 434 1313 
Q 434 1759 690 2068 
Q 947 2378 1403 2484 
z
M 1172 3481 
Q 1172 3119 1398 2916 
Q 1625 2713 2034 2713 
Q 2441 2713 2670 2916 
Q 2900 3119 2900 3481 
Q 2900 3844 2670 4047 
Q 2441 4250 2034 4250 
Q 1625 4250 1398 4047 
Q 1172 3844 1172 3481 
z
" transform="scale(0.015625)"/>
       </defs>
       <use xlink:href="#DejaVuSans-38"/>
      </g>
     </g>
    </g>
    <g id="ytick_5">
     <g id="line2d_13">
      <g>
       <use xlink:href="#m49969a442d" x="57.6" y="133.16737" style="stroke: #000000; stroke-width: 0.8"/>
      </g>
     </g>
     <g id="text_13">
      <!-- 10 -->
      <g transform="translate(37.875 136.966588)scale(0.1 -0.1)">
       <use xlink:href="#DejaVuSans-31"/>
       <use xlink:href="#DejaVuSans-30" x="63.623047"/>
      </g>
     </g>
    </g>
    <g id="ytick_6">
     <g id="line2d_14">
      <g>
       <use xlink:href="#m49969a442d" x="57.6" y="92.252864" style="stroke: #000000; stroke-width: 0.8"/>
      </g>
     </g>
     <g id="text_14">
      <!-- 12 -->
      <g transform="translate(37.875 96.052083)scale(0.1 -0.1)">
       <use xlink:href="#DejaVuSans-31"/>
       <use xlink:href="#DejaVuSans-32" x="63.623047"/>
      </g>
     </g>
    </g>
    <g id="ytick_7">
     <g id="line2d_15">
      <g>
       <use xlink:href="#m49969a442d" x="57.6" y="51.338359" style="stroke: #000000; stroke-width: 0.8"/>
      </g>
     </g>
     <g id="text_15">
      <!-- 14 -->
      <g transform="translate(37.875 55.137577)scale(0.1 -0.1)">
       <use xlink:href="#DejaVuSans-31"/>
       <use xlink:href="#DejaVuSans-34" x="63.623047"/>
      </g>
     </g>
    </g>
   </g>
   <g id="line2d_16">
    <defs>
     <path id="md6f7432532" d="M 0 3 
C 0.795609 3 1.55874 2.683901 2.12132 2.12132 
C 2.683901 1.55874 3 0.795609 3 0 
C 3 -0.795609 2.683901 -1.55874 2.12132 -2.12132 
C 1.55874 -2.683901 0.795609 -3 0 -3 
C -0.795609 -3 -1.55874 -2.683901 -2.12132 -2.12132 
C -2.683901 -1.55874 -3 -0.795609 -3 0 
C -3 0.795609 -2.683901 1.55874 -2.12132 2.12132 
C -1.55874 2.683901 -0.795609 3 0 3 
z
" style="stroke: #1f77b4"/>
    </defs>
    <g clip-path="url(#p11dc1ef964)">
     <use xlink:href="#md6f7432532" x="90.992425" y="222.153876" style="fill: #1f77b4; stroke: #1f77b4"/>
     <use xlink:href="#md6f7432532" x="108.453295" y="247.787324" style="fill: #1f77b4; stroke: #1f77b4"/>
     <use xlink:href="#md6f7432532" x="88.049079" y="239.466557" style="fill: #1f77b4; stroke: #1f77b4"/>
     <use xlink:href="#md6f7432532" x="76.911326" y="264.181059" style="fill: #1f77b4; stroke: #1f77b4"/>
     <use xlink:href="#md6f7432532" x="78.316926" y="264.131703" style="fill: #1f77b4; stroke: #1f77b4"/>
     <use xlink:href="#md6f7432532" x="74.890934" y="247.739724" style="fill: #1f77b4; stroke: #1f77b4"/>
     <use xlink:href="#md6f7432532" x="99.145665" y="250.963646" style="fill: #1f77b4; stroke: #1f77b4"/>
     <use xlink:href="#md6f7432532" x="115.522192" y="227.832648" style="fill: #1f77b4; stroke: #1f77b4"/>
     <use xlink:href="#md6f7432532" x="100.179962" y="239.321362" style="fill: #1f77b4; stroke: #1f77b4"/>
     <use xlink:href="#md6f7432532" x="83.163696" y="224.850397" style="fill: #1f77b4; stroke: #1f77b4"/>
     <use xlink:href="#md6f7432532" x="99.020836" y="250.325928" style="fill: #1f77b4; stroke: #1f77b4"/>
     <use xlink:href="#md6f7432532" x="97.32049" y="263.286872" style="fill: #1f77b4; stroke: #1f77b4"/>
     <use xlink:href="#md6f7432532" x="100.482243" y="239.363329" style="fill: #1f77b4; stroke: #1f77b4"/>
     <use xlink:href="#md6f7432532" x="117.559323" y="224.380396" style="fill: #1f77b4; stroke: #1f77b4"/>
     <use xlink:href="#md6f7432532" x="112.513963" y="246.674806" style="fill: #1f77b4; stroke: #1f77b4"/>
     <use xlink:href="#md6f7432532" x="87.637735" y="240.187999" style="fill: #1f77b4; stroke: #1f77b4"/>
     <use xlink:href="#md6f7432532" x="82.400525" y="222.537962" style="fill: #1f77b4; stroke: #1f77b4"/>
     <use xlink:href="#md6f7432532" x="73.832727" y="239.990995" style="fill: #1f77b4; stroke: #1f77b4"/>
     <use xlink:href="#md6f7432532" x="110.234626" y="241.328095" style="fill: #1f77b4; stroke: #1f77b4"/>
     <use xlink:href="#md6f7432532" x="89.794234" y="225.552791" style="fill: #1f77b4; stroke: #1f77b4"/>
     <use xlink:href="#md6f7432532" x="85.702614" y="234.705885" style="fill: #1f77b4; stroke: #1f77b4"/>
     <use xlink:href="#md6f7432532" x="111.450582" y="243.677204" style="fill: #1f77b4; stroke: #1f77b4"/>
     <use xlink:href="#md6f7432532" x="106.115924" y="227.45123" style="fill: #1f77b4; stroke: #1f77b4"/>
     <use xlink:href="#md6f7432532" x="114.036038" y="238.375872" style="fill: #1f77b4; stroke: #1f77b4"/>
     <use xlink:href="#md6f7432532" x="82.280139" y="226.893879" style="fill: #1f77b4; stroke: #1f77b4"/>
     <use xlink:href="#md6f7432532" x="101.499421" y="226.19149" style="fill: #1f77b4; stroke: #1f77b4"/>
     <use xlink:href="#md6f7432532" x="101.627359" y="225.861439" style="fill: #1f77b4; stroke: #1f77b4"/>
     <use xlink:href="#md6f7432532" x="107.119739" y="239.41261" style="fill: #1f77b4; stroke: #1f77b4"/>
     <use xlink:href="#md6f7432532" x="107.667783" y="247.260488" style="fill: #1f77b4; stroke: #1f77b4"/>
     <use xlink:href="#md6f7432532" x="96.634547" y="261.497523" style="fill: #1f77b4; stroke: #1f77b4"/>
     <use xlink:href="#md6f7432532" x="94.379331" y="253.736941" style="fill: #1f77b4; stroke: #1f77b4"/>
     <use xlink:href="#md6f7432532" x="81.588836" y="233.532881" style="fill: #1f77b4; stroke: #1f77b4"/>
     <use xlink:href="#md6f7432532" x="101.928475" y="222.291564" style="fill: #1f77b4; stroke: #1f77b4"/>
     <use xlink:href="#md6f7432532" x="120.111772" y="220.407749" style="fill: #1f77b4; stroke: #1f77b4"/>
     <use xlink:href="#md6f7432532" x="111.699972" y="244.121192" style="fill: #1f77b4; stroke: #1f77b4"/>
     <use xlink:href="#md6f7432532" x="93.483235" y="243.655" style="fill: #1f77b4; stroke: #1f77b4"/>
     <use xlink:href="#md6f7432532" x="90.125279" y="228.312384" style="fill: #1f77b4; stroke: #1f77b4"/>
     <use xlink:href="#md6f7432532" x="84.556414" y="233.297778" style="fill: #1f77b4; stroke: #1f77b4"/>
     <use xlink:href="#md6f7432532" x="93.688784" y="248.104191" style="fill: #1f77b4; stroke: #1f77b4"/>
     <use xlink:href="#md6f7432532" x="97.014962" y="260.753957" style="fill: #1f77b4; stroke: #1f77b4"/>
     <use xlink:href="#md6f7432532" x="93.431625" y="242.666361" style="fill: #1f77b4; stroke: #1f77b4"/>
     <use xlink:href="#md6f7432532" x="80.222158" y="239.242146" style="fill: #1f77b4; stroke: #1f77b4"/>
     <use xlink:href="#md6f7432532" x="87.670377" y="236.974945" style="fill: #1f77b4; stroke: #1f77b4"/>
     <use xlink:href="#md6f7432532" x="91.223034" y="223.297239" style="fill: #1f77b4; stroke: #1f77b4"/>
     <use xlink:href="#md6f7432532" x="84.067553" y="225.339121" style="fill: #1f77b4; stroke: #1f77b4"/>
     <use xlink:href="#md6f7432532" x="97.76557" y="258.706728" style="fill: #1f77b4; stroke: #1f77b4"/>
     <use xlink:href="#md6f7432532" x="80.536128" y="235.823304" style="fill: #1f77b4; stroke: #1f77b4"/>
     <use xlink:href="#md6f7432532" x="98.887281" y="247.828391" style="fill: #1f77b4; stroke: #1f77b4"/>
     <use xlink:href="#md6f7432532" x="80.847107" y="235.921559" style="fill: #1f77b4; stroke: #1f77b4"/>
     <use xlink:href="#md6f7432532" x="90.195778" y="223.373103" style="fill: #1f77b4; stroke: #1f77b4"/>
    </g>
   </g>
   <g id="line2d_17">
    <defs>
     <path id="m164b1ec8db" d="M 0 3 
C 0.795609 3 1.55874 2.683901 2.12132 2.12132 
C 2.683901 1.55874 3 0.795609 3 0 
C 3 -0.795609 2.683901 -1.55874 2.12132 -2.12132 
C 1.55874 -2.683901 0.795609 -3 0 -3 
C -0.795609 -3 -1.55874 -2.683901 -2.12132 -2.12132 
C -2.683901 -1.55874 -3 -0.795609 -3 0 
C -3 0.795609 -2.683901 1.55874 -2.12132 2.12132 
C -1.55874 2.683901 -0.795609 3 0 3 
z
" style="stroke: #ff7f0e"/>
    </defs>
    <g clip-path="url(#p11dc1ef964)">
     <use xlink:href="#m164b1ec8db" x="195.412748" y="189.928944" style="fill: #ff7f0e; stroke: #ff7f0e"/>
     <use xlink:href="#m164b1ec8db" x="193.894984" y="193.922862" style="fill: #ff7f0e; stroke: #ff7f0e"/>
     <use xlink:href="#m164b1ec8db" x="201.735459" y="202.112501" style="fill: #ff7f0e; stroke: #ff7f0e"/>
     <use xlink:href="#m164b1ec8db" x="171.484667" y="229.619047" style="fill: #ff7f0e; stroke: #ff7f0e"/>
     <use xlink:href="#m164b1ec8db" x="176.529363" y="225.488297" style="fill: #ff7f0e; stroke: #ff7f0e"/>
     <use xlink:href="#m164b1ec8db" x="211.707893" y="167.313556" style="fill: #ff7f0e; stroke: #ff7f0e"/>
     <use xlink:href="#m164b1ec8db" x="211.710463" y="161.315616" style="fill: #ff7f0e; stroke: #ff7f0e"/>
     <use xlink:href="#m164b1ec8db" x="193.317331" y="189.791718" style="fill: #ff7f0e; stroke: #ff7f0e"/>
     <use xlink:href="#m164b1ec8db" x="208.622212" y="196.844094" style="fill: #ff7f0e; stroke: #ff7f0e"/>
     <use xlink:href="#m164b1ec8db" x="177.303804" y="224.950265" style="fill: #ff7f0e; stroke: #ff7f0e"/>
     <use xlink:href="#m164b1ec8db" x="208.557291" y="195.202887" style="fill: #ff7f0e; stroke: #ff7f0e"/>
     <use xlink:href="#m164b1ec8db" x="180.709704" y="223.995555" style="fill: #ff7f0e; stroke: #ff7f0e"/>
     <use xlink:href="#m164b1ec8db" x="185.856971" y="218.422703" style="fill: #ff7f0e; stroke: #ff7f0e"/>
     <use xlink:href="#m164b1ec8db" x="189.430544" y="225.132643" style="fill: #ff7f0e; stroke: #ff7f0e"/>
     <use xlink:href="#m164b1ec8db" x="198.451466" y="229.057071" style="fill: #ff7f0e; stroke: #ff7f0e"/>
     <use xlink:href="#m164b1ec8db" x="169.179231" y="242.024693" style="fill: #ff7f0e; stroke: #ff7f0e"/>
     <use xlink:href="#m164b1ec8db" x="213.592495" y="180.13139" style="fill: #ff7f0e; stroke: #ff7f0e"/>
     <use xlink:href="#m164b1ec8db" x="209.947557" y="174.096618" style="fill: #ff7f0e; stroke: #ff7f0e"/>
     <use xlink:href="#m164b1ec8db" x="172.607489" y="235.700718" style="fill: #ff7f0e; stroke: #ff7f0e"/>
     <use xlink:href="#m164b1ec8db" x="202.417842" y="208.709393" style="fill: #ff7f0e; stroke: #ff7f0e"/>
     <use xlink:href="#m164b1ec8db" x="180.908653" y="223.103873" style="fill: #ff7f0e; stroke: #ff7f0e"/>
     <use xlink:href="#m164b1ec8db" x="177.498666" y="228.53522" style="fill: #ff7f0e; stroke: #ff7f0e"/>
     <use xlink:href="#m164b1ec8db" x="184.095811" y="211.912376" style="fill: #ff7f0e; stroke: #ff7f0e"/>
     <use xlink:href="#m164b1ec8db" x="177.903339" y="226.863182" style="fill: #ff7f0e; stroke: #ff7f0e"/>
     <use xlink:href="#m164b1ec8db" x="171.267441" y="225.387464" style="fill: #ff7f0e; stroke: #ff7f0e"/>
     <use xlink:href="#m164b1ec8db" x="194.235576" y="188.714466" style="fill: #ff7f0e; stroke: #ff7f0e"/>
     <use xlink:href="#m164b1ec8db" x="202.418645" y="214.266327" style="fill: #ff7f0e; stroke: #ff7f0e"/>
     <use xlink:href="#m164b1ec8db" x="193.570967" y="188.432246" style="fill: #ff7f0e; stroke: #ff7f0e"/>
     <use xlink:href="#m164b1ec8db" x="167.617083" y="261.056468" style="fill: #ff7f0e; stroke: #ff7f0e"/>
     <use xlink:href="#m164b1ec8db" x="198.59145" y="231.911466" style="fill: #ff7f0e; stroke: #ff7f0e"/>
     <use xlink:href="#m164b1ec8db" x="168.181691" y="255.953526" style="fill: #ff7f0e; stroke: #ff7f0e"/>
     <use xlink:href="#m164b1ec8db" x="188.827821" y="229.308124" style="fill: #ff7f0e; stroke: #ff7f0e"/>
     <use xlink:href="#m164b1ec8db" x="201.230649" y="209.84224" style="fill: #ff7f0e; stroke: #ff7f0e"/>
     <use xlink:href="#m164b1ec8db" x="179.950156" y="224.538601" style="fill: #ff7f0e; stroke: #ff7f0e"/>
     <use xlink:href="#m164b1ec8db" x="195.829325" y="196.626688" style="fill: #ff7f0e; stroke: #ff7f0e"/>
     <use xlink:href="#m164b1ec8db" x="197.322201" y="217.275058" style="fill: #ff7f0e; stroke: #ff7f0e"/>
     <use xlink:href="#m164b1ec8db" x="174.89964" y="222.904642" style="fill: #ff7f0e; stroke: #ff7f0e"/>
     <use xlink:href="#m164b1ec8db" x="201.990359" y="204.972563" style="fill: #ff7f0e; stroke: #ff7f0e"/>
     <use xlink:href="#m164b1ec8db" x="178.038781" y="227.823686" style="fill: #ff7f0e; stroke: #ff7f0e"/>
     <use xlink:href="#m164b1ec8db" x="196.032667" y="195.340618" style="fill: #ff7f0e; stroke: #ff7f0e"/>
     <use xlink:href="#m164b1ec8db" x="182.886651" y="210.267784" style="fill: #ff7f0e; stroke: #ff7f0e"/>
     <use xlink:href="#m164b1ec8db" x="190.233134" y="222.726606" style="fill: #ff7f0e; stroke: #ff7f0e"/>
     <use xlink:href="#m164b1ec8db" x="169.720934" y="235.572977" style="fill: #ff7f0e; stroke: #ff7f0e"/>
     <use xlink:href="#m164b1ec8db" x="177.501394" y="223.651652" style="fill: #ff7f0e; stroke: #ff7f0e"/>
     <use xlink:href="#m164b1ec8db" x="198.921344" y="228.40117" style="fill: #ff7f0e; stroke: #ff7f0e"/>
     <use xlink:href="#m164b1ec8db" x="193.266003" y="195.09993" style="fill: #ff7f0e; stroke: #ff7f0e"/>
     <use xlink:href="#m164b1ec8db" x="189.460116" y="227.35525" style="fill: #ff7f0e; stroke: #ff7f0e"/>
     <use xlink:href="#m164b1ec8db" x="192.842204" y="196.550546" style="fill: #ff7f0e; stroke: #ff7f0e"/>
     <use xlink:href="#m164b1ec8db" x="175.748083" y="228.090515" style="fill: #ff7f0e; stroke: #ff7f0e"/>
     <use xlink:href="#m164b1ec8db" x="205.972709" y="248.407509" style="fill: #ff7f0e; stroke: #ff7f0e"/>
    </g>
   </g>
   <g id="line2d_18">
    <defs>
     <path id="m22712b2f8d" d="M 0 3 
C 0.795609 3 1.55874 2.683901 2.12132 2.12132 
C 2.683901 1.55874 3 0.795609 3 0 
C 3 -0.795609 2.683901 -1.55874 2.12132 -2.12132 
C 1.55874 -2.683901 0.795609 -3 0 -3 
C -0.795609 -3 -1.55874 -2.683901 -2.12132 -2.12132 
C -2.683901 -1.55874 -3 -0.795609 -3 0 
C -3 0.795609 -2.683901 1.55874 -2.12132 2.12132 
C -1.55874 2.683901 -0.795609 3 0 3 
z
" style="stroke: #2ca02c"/>
    </defs>
    <g clip-path="url(#p11dc1ef964)">
     <use xlink:href="#m22712b2f8d" x="287.373104" y="213.51121" style="fill: #2ca02c; stroke: #2ca02c"/>
     <use xlink:href="#m22712b2f8d" x="301.440599" y="247.65262" style="fill: #2ca02c; stroke: #2ca02c"/>
     <use xlink:href="#m22712b2f8d" x="283.768325" y="205.902158" style="fill: #2ca02c; stroke: #2ca02c"/>
     <use xlink:href="#m22712b2f8d" x="278.532748" y="198.097408" style="fill: #2ca02c; stroke: #2ca02c"/>
     <use xlink:href="#m22712b2f8d" x="285.023862" y="212.923406" style="fill: #2ca02c; stroke: #2ca02c"/>
     <use xlink:href="#m22712b2f8d" x="290.123424" y="264.116014" style="fill: #2ca02c; stroke: #2ca02c"/>
     <use xlink:href="#m22712b2f8d" x="287.31135" y="216.149466" style="fill: #2ca02c; stroke: #2ca02c"/>
     <use xlink:href="#m22712b2f8d" x="300.267757" y="242.361051" style="fill: #2ca02c; stroke: #2ca02c"/>
     <use xlink:href="#m22712b2f8d" x="290.673207" y="274.733886" style="fill: #2ca02c; stroke: #2ca02c"/>
     <use xlink:href="#m22712b2f8d" x="277.589214" y="203.76511" style="fill: #2ca02c; stroke: #2ca02c"/>
     <use xlink:href="#m22712b2f8d" x="278.007258" y="210.474987" style="fill: #2ca02c; stroke: #2ca02c"/>
     <use xlink:href="#m22712b2f8d" x="278.125321" y="203.288258" style="fill: #2ca02c; stroke: #2ca02c"/>
     <use xlink:href="#m22712b2f8d" x="277.465395" y="200.578383" style="fill: #2ca02c; stroke: #2ca02c"/>
     <use xlink:href="#m22712b2f8d" x="285.339392" y="211.573434" style="fill: #2ca02c; stroke: #2ca02c"/>
     <use xlink:href="#m22712b2f8d" x="263.588232" y="220.356937" style="fill: #2ca02c; stroke: #2ca02c"/>
     <use xlink:href="#m22712b2f8d" x="292.560431" y="295.488" style="fill: #2ca02c; stroke: #2ca02c"/>
     <use xlink:href="#m22712b2f8d" x="303.405355" y="253.277992" style="fill: #2ca02c; stroke: #2ca02c"/>
     <use xlink:href="#m22712b2f8d" x="292.077894" y="285.487578" style="fill: #2ca02c; stroke: #2ca02c"/>
     <use xlink:href="#m22712b2f8d" x="298.076213" y="258.285473" style="fill: #2ca02c; stroke: #2ca02c"/>
     <use xlink:href="#m22712b2f8d" x="280.733065" y="211.572499" style="fill: #2ca02c; stroke: #2ca02c"/>
     <use xlink:href="#m22712b2f8d" x="276.164558" y="201.083592" style="fill: #2ca02c; stroke: #2ca02c"/>
     <use xlink:href="#m22712b2f8d" x="296.401998" y="290.866125" style="fill: #2ca02c; stroke: #2ca02c"/>
     <use xlink:href="#m22712b2f8d" x="283.395618" y="214.528805" style="fill: #2ca02c; stroke: #2ca02c"/>
     <use xlink:href="#m22712b2f8d" x="280.346418" y="207.436168" style="fill: #2ca02c; stroke: #2ca02c"/>
     <use xlink:href="#m22712b2f8d" x="306.633375" y="166.329768" style="fill: #2ca02c; stroke: #2ca02c"/>
     <use xlink:href="#m22712b2f8d" x="262.099601" y="210.889963" style="fill: #2ca02c; stroke: #2ca02c"/>
     <use xlink:href="#m22712b2f8d" x="277.533356" y="200.460128" style="fill: #2ca02c; stroke: #2ca02c"/>
     <use xlink:href="#m22712b2f8d" x="280.338184" y="211.996179" style="fill: #2ca02c; stroke: #2ca02c"/>
     <use xlink:href="#m22712b2f8d" x="262.244228" y="216.813924" style="fill: #2ca02c; stroke: #2ca02c"/>
     <use xlink:href="#m22712b2f8d" x="294.41565" y="285.872812" style="fill: #2ca02c; stroke: #2ca02c"/>
     <use xlink:href="#m22712b2f8d" x="271.164309" y="292.711122" style="fill: #2ca02c; stroke: #2ca02c"/>
     <use xlink:href="#m22712b2f8d" x="304.53746" y="215.208068" style="fill: #2ca02c; stroke: #2ca02c"/>
     <use xlink:href="#m22712b2f8d" x="271.644686" y="294.478888" style="fill: #2ca02c; stroke: #2ca02c"/>
     <use xlink:href="#m22712b2f8d" x="261.737939" y="210.582733" style="fill: #2ca02c; stroke: #2ca02c"/>
     <use xlink:href="#m22712b2f8d" x="286.078453" y="216.279759" style="fill: #2ca02c; stroke: #2ca02c"/>
     <use xlink:href="#m22712b2f8d" x="272.728649" y="287.93642" style="fill: #2ca02c; stroke: #2ca02c"/>
     <use xlink:href="#m22712b2f8d" x="275.588146" y="201.237277" style="fill: #2ca02c; stroke: #2ca02c"/>
     <use xlink:href="#m22712b2f8d" x="292.455967" y="281.643113" style="fill: #2ca02c; stroke: #2ca02c"/>
     <use xlink:href="#m22712b2f8d" x="300.912857" y="248.547659" style="fill: #2ca02c; stroke: #2ca02c"/>
     <use xlink:href="#m22712b2f8d" x="267.182098" y="235.943583" style="fill: #2ca02c; stroke: #2ca02c"/>
     <use xlink:href="#m22712b2f8d" x="301.883699" y="257.236073" style="fill: #2ca02c; stroke: #2ca02c"/>
     <use xlink:href="#m22712b2f8d" x="285.617364" y="212.113072" style="fill: #2ca02c; stroke: #2ca02c"/>
     <use xlink:href="#m22712b2f8d" x="278.533565" y="208.16512" style="fill: #2ca02c; stroke: #2ca02c"/>
     <use xlink:href="#m22712b2f8d" x="298.640833" y="251.270899" style="fill: #2ca02c; stroke: #2ca02c"/>
     <use xlink:href="#m22712b2f8d" x="295.261827" y="294.386422" style="fill: #2ca02c; stroke: #2ca02c"/>
     <use xlink:href="#m22712b2f8d" x="291.131619" y="282.503724" style="fill: #2ca02c; stroke: #2ca02c"/>
     <use xlink:href="#m22712b2f8d" x="290.253834" y="262.179084" style="fill: #2ca02c; stroke: #2ca02c"/>
     <use xlink:href="#m22712b2f8d" x="269.909625" y="287.405312" style="fill: #2ca02c; stroke: #2ca02c"/>
     <use xlink:href="#m22712b2f8d" x="261.603964" y="205.735058" style="fill: #2ca02c; stroke: #2ca02c"/>
     <use xlink:href="#m22712b2f8d" x="295.552591" y="295.479463" style="fill: #2ca02c; stroke: #2ca02c"/>
    </g>
   </g>
   <g id="line2d_19">
    <defs>
     <path id="m88732520e4" d="M 0 3 
C 0.795609 3 1.55874 2.683901 2.12132 2.12132 
C 2.683901 1.55874 3 0.795609 3 0 
C 3 -0.795609 2.683901 -1.55874 2.12132 -2.12132 
C 1.55874 -2.683901 0.795609 -3 0 -3 
C -0.795609 -3 -1.55874 -2.683901 -2.12132 -2.12132 
C -2.683901 -1.55874 -3 -0.795609 -3 0 
C -3 0.795609 -2.683901 1.55874 -2.12132 2.12132 
C -1.55874 2.683901 -0.795609 3 0 3 
z
" style="stroke: #d62728"/>
    </defs>
    <g clip-path="url(#p11dc1ef964)">
     <use xlink:href="#m88732520e4" x="367.410235" y="208.851975" style="fill: #d62728; stroke: #d62728"/>
     <use xlink:href="#m88732520e4" x="369.11161" y="188.523823" style="fill: #d62728; stroke: #d62728"/>
     <use xlink:href="#m88732520e4" x="365.413386" y="229.168782" style="fill: #d62728; stroke: #d62728"/>
     <use xlink:href="#m88732520e4" x="364.086326" y="226.154462" style="fill: #d62728; stroke: #d62728"/>
     <use xlink:href="#m88732520e4" x="372.74457" y="168.823665" style="fill: #d62728; stroke: #d62728"/>
     <use xlink:href="#m88732520e4" x="398.487273" y="154.12083" style="fill: #d62728; stroke: #d62728"/>
     <use xlink:href="#m88732520e4" x="387.269012" y="131.44523" style="fill: #d62728; stroke: #d62728"/>
     <use xlink:href="#m88732520e4" x="363.448999" y="220.687079" style="fill: #d62728; stroke: #d62728"/>
     <use xlink:href="#m88732520e4" x="364.088664" y="235.524719" style="fill: #d62728; stroke: #d62728"/>
     <use xlink:href="#m88732520e4" x="380.388447" y="134.397188" style="fill: #d62728; stroke: #d62728"/>
     <use xlink:href="#m88732520e4" x="370.16545" y="187.731965" style="fill: #d62728; stroke: #d62728"/>
     <use xlink:href="#m88732520e4" x="372.421804" y="166.645316" style="fill: #d62728; stroke: #d62728"/>
     <use xlink:href="#m88732520e4" x="385.412428" y="132.876754" style="fill: #d62728; stroke: #d62728"/>
     <use xlink:href="#m88732520e4" x="395.471323" y="125.476724" style="fill: #d62728; stroke: #d62728"/>
     <use xlink:href="#m88732520e4" x="396.196465" y="148.809164" style="fill: #d62728; stroke: #d62728"/>
     <use xlink:href="#m88732520e4" x="392.672598" y="53.568" style="fill: #d62728; stroke: #d62728"/>
     <use xlink:href="#m88732520e4" x="370.247368" y="185.503426" style="fill: #d62728; stroke: #d62728"/>
     <use xlink:href="#m88732520e4" x="398.065288" y="157.972723" style="fill: #d62728; stroke: #d62728"/>
     <use xlink:href="#m88732520e4" x="368.775603" y="198.675754" style="fill: #d62728; stroke: #d62728"/>
     <use xlink:href="#m88732520e4" x="367.235801" y="218.699216" style="fill: #d62728; stroke: #d62728"/>
     <use xlink:href="#m88732520e4" x="382.795301" y="158.699459" style="fill: #d62728; stroke: #d62728"/>
     <use xlink:href="#m88732520e4" x="390.343808" y="92.698194" style="fill: #d62728; stroke: #d62728"/>
     <use xlink:href="#m88732520e4" x="386.16528" y="121.33186" style="fill: #d62728; stroke: #d62728"/>
     <use xlink:href="#m88732520e4" x="372.999961" y="172.688152" style="fill: #d62728; stroke: #d62728"/>
     <use xlink:href="#m88732520e4" x="386.094543" y="133.736353" style="fill: #d62728; stroke: #d62728"/>
     <use xlink:href="#m88732520e4" x="361.727802" y="205.038134" style="fill: #d62728; stroke: #d62728"/>
     <use xlink:href="#m88732520e4" x="395.47961" y="130.965437" style="fill: #d62728; stroke: #d62728"/>
     <use xlink:href="#m88732520e4" x="389.536186" y="117.905665" style="fill: #d62728; stroke: #d62728"/>
     <use xlink:href="#m88732520e4" x="371.695857" y="175.538236" style="fill: #d62728; stroke: #d62728"/>
     <use xlink:href="#m88732520e4" x="377.622562" y="124.498023" style="fill: #d62728; stroke: #d62728"/>
     <use xlink:href="#m88732520e4" x="373.319368" y="163.654966" style="fill: #d62728; stroke: #d62728"/>
     <use xlink:href="#m88732520e4" x="359.474286" y="202.565595" style="fill: #d62728; stroke: #d62728"/>
     <use xlink:href="#m88732520e4" x="396.263329" y="154.797863" style="fill: #d62728; stroke: #d62728"/>
     <use xlink:href="#m88732520e4" x="356.805792" y="165.901159" style="fill: #d62728; stroke: #d62728"/>
     <use xlink:href="#m88732520e4" x="357.851883" y="194.604609" style="fill: #d62728; stroke: #d62728"/>
     <use xlink:href="#m88732520e4" x="392.427724" y="59.659908" style="fill: #d62728; stroke: #d62728"/>
     <use xlink:href="#m88732520e4" x="383.243362" y="147.622902" style="fill: #d62728; stroke: #d62728"/>
     <use xlink:href="#m88732520e4" x="394.077262" y="77.898269" style="fill: #d62728; stroke: #d62728"/>
     <use xlink:href="#m88732520e4" x="365.222644" y="225.427537" style="fill: #d62728; stroke: #d62728"/>
     <use xlink:href="#m88732520e4" x="367.519345" y="214.118427" style="fill: #d62728; stroke: #d62728"/>
     <use xlink:href="#m88732520e4" x="380.221217" y="144.51655" style="fill: #d62728; stroke: #d62728"/>
     <use xlink:href="#m88732520e4" x="397.654274" y="164.364423" style="fill: #d62728; stroke: #d62728"/>
     <use xlink:href="#m88732520e4" x="357.966299" y="184.971965" style="fill: #d62728; stroke: #d62728"/>
     <use xlink:href="#m88732520e4" x="378.337009" y="122.235904" style="fill: #d62728; stroke: #d62728"/>
     <use xlink:href="#m88732520e4" x="365.452153" y="225.108303" style="fill: #d62728; stroke: #d62728"/>
     <use xlink:href="#m88732520e4" x="394.509405" y="95.886169" style="fill: #d62728; stroke: #d62728"/>
     <use xlink:href="#m88732520e4" x="376.643576" y="135.320242" style="fill: #d62728; stroke: #d62728"/>
     <use xlink:href="#m88732520e4" x="370.544904" y="180.147004" style="fill: #d62728; stroke: #d62728"/>
     <use xlink:href="#m88732520e4" x="362.0303" y="226.371572" style="fill: #d62728; stroke: #d62728"/>
     <use xlink:href="#m88732520e4" x="377.168672" y="132.340035" style="fill: #d62728; stroke: #d62728"/>
    </g>
   </g>
   <g id="patch_3">
    <path d="M 57.6 307.584 
L 57.6 41.472 
" style="fill: none; stroke: #000000; stroke-width: 0.8; stroke-linejoin: miter; stroke-linecap: square"/>
   </g>
   <g id="patch_4">
    <path d="M 414.72 307.584 
L 414.72 41.472 
" style="fill: none; stroke: #000000; stroke-width: 0.8; stroke-linejoin: miter; stroke-linecap: square"/>
   </g>
   <g id="patch_5">
    <path d="M 57.6 307.584 
L 414.72 307.584 
" style="fill: none; stroke: #000000; stroke-width: 0.8; stroke-linejoin: miter; stroke-linecap: square"/>
   </g>
   <g id="patch_6">
    <path d="M 57.6 41.472 
L 414.72 41.472 
" style="fill: none; stroke: #000000; stroke-width: 0.8; stroke-linejoin: miter; stroke-linecap: square"/>
   </g>
   <g id="legend_1">
    <g id="patch_7">
     <path d="M 64.6 108.1845 
L 122.05 108.1845 
Q 124.05 108.1845 124.05 106.1845 
L 124.05 48.472 
Q 124.05 46.472 122.05 46.472 
L 64.6 46.472 
Q 62.6 46.472 62.6 48.472 
L 62.6 106.1845 
Q 62.6 108.1845 64.6 108.1845 
z
" style="fill: #ffffff; opacity: 0.8; stroke: #cccccc; stroke-linejoin: miter"/>
    </g>
    <g id="line2d_20">
     <g>
      <use xlink:href="#md6f7432532" x="76.6" y="54.570438" style="fill: #1f77b4; stroke: #1f77b4"/>
     </g>
    </g>
    <g id="text_16">
     <!-- 4300 -->
     <g transform="translate(94.6 58.070438)scale(0.1 -0.1)">
      <use xlink:href="#DejaVuSans-34"/>
      <use xlink:href="#DejaVuSans-33" x="63.623047"/>
      <use xlink:href="#DejaVuSans-30" x="127.246094"/>
      <use xlink:href="#DejaVuSans-30" x="190.869141"/>
     </g>
    </g>
    <g id="line2d_21">
     <g>
      <use xlink:href="#m164b1ec8db" x="76.6" y="69.248563" style="fill: #ff7f0e; stroke: #ff7f0e"/>
     </g>
    </g>
    <g id="text_17">
     <!-- 5700 -->
     <g transform="translate(94.6 72.748563)scale(0.1 -0.1)">
      <defs>
       <path id="DejaVuSans-37" d="M 525 4666 
L 3525 4666 
L 3525 4397 
L 1831 0 
L 1172 0 
L 2766 4134 
L 525 4134 
L 525 4666 
z
" transform="scale(0.015625)"/>
      </defs>
      <use xlink:href="#DejaVuSans-35"/>
      <use xlink:href="#DejaVuSans-37" x="63.623047"/>
      <use xlink:href="#DejaVuSans-30" x="127.246094"/>
      <use xlink:href="#DejaVuSans-30" x="190.869141"/>
     </g>
    </g>
    <g id="line2d_22">
     <g>
      <use xlink:href="#m22712b2f8d" x="76.6" y="83.926688" style="fill: #2ca02c; stroke: #2ca02c"/>
     </g>
    </g>
    <g id="text_18">
     <!-- 6200 -->
     <g transform="translate(94.6 87.426688)scale(0.1 -0.1)">
      <use xlink:href="#DejaVuSans-36"/>
      <use xlink:href="#DejaVuSans-32" x="63.623047"/>
      <use xlink:href="#DejaVuSans-30" x="127.246094"/>
      <use xlink:href="#DejaVuSans-30" x="190.869141"/>
     </g>
    </g>
    <g id="line2d_23">
     <g>
      <use xlink:href="#m88732520e4" x="76.6" y="98.604813" style="fill: #d62728; stroke: #d62728"/>
     </g>
    </g>
    <g id="text_19">
     <!-- 7800 -->
     <g transform="translate(94.6 102.104813)scale(0.1 -0.1)">
      <use xlink:href="#DejaVuSans-37"/>
      <use xlink:href="#DejaVuSans-38" x="63.623047"/>
      <use xlink:href="#DejaVuSans-30" x="127.246094"/>
      <use xlink:href="#DejaVuSans-30" x="190.869141"/>
     </g>
    </g>
   </g>
  </g>
 </g>
 <defs>
  <clipPath id="p11dc1ef964">
   <rect x="57.6" y="41.472" width="357.12" height="266.112"/>
  </clipPath>
 </defs>
</svg>
