<?xml version="1.0" encoding="utf-8" standalone="no"?>
<!DOCTYPE svg PUBLIC "-//W3C//DTD SVG 1.1//EN"
  "http://www.w3.org/Graphics/SVG/1.1/DTD/svg11.dtd">
<svg xmlns:xlink="http://www.w3.org/1999/xlink" width="460.8pt" height="345.6pt" viewBox="0 0 460.8 345.6" xmlns="http://www.w3.org/2000/svg" version="1.1">
 <metadata>
  <rdf:RDF xmlns:dc="http://purl.org/dc/elements/1.1/" xmlns:cc="http://creativecommons.org/ns#" xmlns:rdf="http://www.w3.org/1999/02/22-rdf-syntax-ns#">
   <cc:Work>
    <dc:type rdf:resource="http://purl.org/dc/dcmitype/StillImage"/>
    <dc:date>2022-02-02T13:38:52.786450</dc:date>
    <dc:format>image/svg+xml</dc:format>
    <dc:creator>
     <cc:Agent>
      <dc:title>Matplotlib v3.5.1, https://matplotlib.org/</dc:title>
     </cc:Agent>
    </dc:creator>
   </cc:Work>
  </rdf:RDF>
 </metadata>
 <defs>
  <style type="text/css">*{stroke-linejoin: round; stroke-linecap: butt}</style>
 </defs>
 <g id="figure_1">
  <g id="patch_1">
   <path d="M 0 345.6 
L 460.8 345.6 
L 460.8 0 
L 0 0 
z
" style="fill: #ffffff"/>
  </g>
  <g id="axes_1">
   <g id="patch_2">
    <path d="M 57.6 162.432 
L 414.72 162.432 
L 414.72 41.472 
L 57.6 41.472 
z
" style="fill: #ffffff"/>
   </g>
   <g id="matplotlib.axis_1">
    <g id="xtick_1">
     <g id="line2d_1">
      <defs>
       <path id="m6fb1b1a2ae" d="M 0 0 
L 0 3.5 
" style="stroke: #000000; stroke-width: 0.8"/>
      </defs>
      <g>
       <use xlink:href="#m6fb1b1a2ae" x="73.832727" y="162.432" style="stroke: #000000; stroke-width: 0.8"/>
      </g>
     </g>
     <g id="text_1">
      <!-- $\mathdefault{10^{6}}$ -->
      <g transform="translate(65.032727 177.030437)scale(0.1 -0.1)">
       <defs>
        <path id="DejaVuSans-31" d="M 794 531 
L 1825 531 
L 1825 4091 
L 703 3866 
L 703 4441 
L 1819 4666 
L 2450 4666 
L 2450 531 
L 3481 531 
L 3481 0 
L 794 0 
L 794 531 
z
" transform="scale(0.015625)"/>
        <path id="DejaVuSans-30" d="M 2034 4250 
Q 1547 4250 1301 3770 
Q 1056 3291 1056 2328 
Q 1056 1369 1301 889 
Q 1547 409 2034 409 
Q 2525 409 2770 889 
Q 3016 1369 3016 2328 
Q 3016 3291 2770 3770 
Q 2525 4250 2034 4250 
z
M 2034 4750 
Q 2819 4750 3233 4129 
Q 3647 3509 3647 2328 
Q 3647 1150 3233 529 
Q 2819 -91 2034 -91 
Q 1250 -91 836 529 
Q 422 1150 422 2328 
Q 422 3509 836 4129 
Q 1250 4750 2034 4750 
z
" transform="scale(0.015625)"/>
        <path id="DejaVuSans-36" d="M 2113 2584 
Q 1688 2584 1439 2293 
Q 1191 2003 1191 1497 
Q 1191 994 1439 701 
Q 1688 409 2113 409 
Q 2538 409 2786 701 
Q 3034 994 3034 1497 
Q 3034 2003 2786 2293 
Q 2538 2584 2113 2584 
z
M 3366 4563 
L 3366 3988 
Q 3128 4100 2886 4159 
Q 2644 4219 2406 4219 
Q 1781 4219 1451 3797 
Q 1122 3375 1075 2522 
Q 1259 2794 1537 2939 
Q 1816 3084 2150 3084 
Q 2853 3084 3261 2657 
Q 3669 2231 3669 1497 
Q 3669 778 3244 343 
Q 2819 -91 2113 -91 
Q 1303 -91 875 529 
Q 447 1150 447 2328 
Q 447 3434 972 4092 
Q 1497 4750 2381 4750 
Q 2619 4750 2861 4703 
Q 3103 4656 3366 4563 
z
" transform="scale(0.015625)"/>
       </defs>
       <use xlink:href="#DejaVuSans-31" transform="translate(0 0.765625)"/>
       <use xlink:href="#DejaVuSans-30" transform="translate(63.623047 0.765625)"/>
       <use xlink:href="#DejaVuSans-36" transform="translate(128.203125 39.046875)scale(0.7)"/>
      </g>
     </g>
    </g>
    <g id="xtick_2">
     <g id="line2d_2">
      <g>
       <use xlink:href="#m6fb1b1a2ae" x="154.996364" y="162.432" style="stroke: #000000; stroke-width: 0.8"/>
      </g>
     </g>
     <g id="text_2">
      <!-- $\mathdefault{10^{7}}$ -->
      <g transform="translate(146.196364 177.030437)scale(0.1 -0.1)">
       <defs>
        <path id="DejaVuSans-37" d="M 525 4666 
L 3525 4666 
L 3525 4397 
L 1831 0 
L 1172 0 
L 2766 4134 
L 525 4134 
L 525 4666 
z
" transform="scale(0.015625)"/>
       </defs>
       <use xlink:href="#DejaVuSans-31" transform="translate(0 0.684375)"/>
       <use xlink:href="#DejaVuSans-30" transform="translate(63.623047 0.684375)"/>
       <use xlink:href="#DejaVuSans-37" transform="translate(128.203125 38.965625)scale(0.7)"/>
      </g>
     </g>
    </g>
    <g id="xtick_3">
     <g id="line2d_3">
      <g>
       <use xlink:href="#m6fb1b1a2ae" x="236.16" y="162.432" style="stroke: #000000; stroke-width: 0.8"/>
      </g>
     </g>
     <g id="text_3">
      <!-- $\mathdefault{10^{8}}$ -->
      <g transform="translate(227.36 177.030437)scale(0.1 -0.1)">
       <defs>
        <path id="DejaVuSans-38" d="M 2034 2216 
Q 1584 2216 1326 1975 
Q 1069 1734 1069 1313 
Q 1069 891 1326 650 
Q 1584 409 2034 409 
Q 2484 409 2743 651 
Q 3003 894 3003 1313 
Q 3003 1734 2745 1975 
Q 2488 2216 2034 2216 
z
M 1403 2484 
Q 997 2584 770 2862 
Q 544 3141 544 3541 
Q 544 4100 942 4425 
Q 1341 4750 2034 4750 
Q 2731 4750 3128 4425 
Q 3525 4100 3525 3541 
Q 3525 3141 3298 2862 
Q 3072 2584 2669 2484 
Q 3125 2378 3379 2068 
Q 3634 1759 3634 1313 
Q 3634 634 3220 271 
Q 2806 -91 2034 -91 
Q 1263 -91 848 271 
Q 434 634 434 1313 
Q 434 1759 690 2068 
Q 947 2378 1403 2484 
z
M 1172 3481 
Q 1172 3119 1398 2916 
Q 1625 2713 2034 2713 
Q 2441 2713 2670 2916 
Q 2900 3119 2900 3481 
Q 2900 3844 2670 4047 
Q 2441 4250 2034 4250 
Q 1625 4250 1398 4047 
Q 1172 3844 1172 3481 
z
" transform="scale(0.015625)"/>
       </defs>
       <use xlink:href="#DejaVuSans-31" transform="translate(0 0.765625)"/>
       <use xlink:href="#DejaVuSans-30" transform="translate(63.623047 0.765625)"/>
       <use xlink:href="#DejaVuSans-38" transform="translate(128.203125 39.046875)scale(0.7)"/>
      </g>
     </g>
    </g>
    <g id="xtick_4">
     <g id="line2d_4">
      <g>
       <use xlink:href="#m6fb1b1a2ae" x="317.323636" y="162.432" style="stroke: #000000; stroke-width: 0.8"/>
      </g>
     </g>
     <g id="text_4">
      <!-- $\mathdefault{10^{9}}$ -->
      <g transform="translate(308.523636 177.030437)scale(0.1 -0.1)">
       <defs>
        <path id="DejaVuSans-39" d="M 703 97 
L 703 672 
Q 941 559 1184 500 
Q 1428 441 1663 441 
Q 2288 441 2617 861 
Q 2947 1281 2994 2138 
Q 2813 1869 2534 1725 
Q 2256 1581 1919 1581 
Q 1219 1581 811 2004 
Q 403 2428 403 3163 
Q 403 3881 828 4315 
Q 1253 4750 1959 4750 
Q 2769 4750 3195 4129 
Q 3622 3509 3622 2328 
Q 3622 1225 3098 567 
Q 2575 -91 1691 -91 
Q 1453 -91 1209 -44 
Q 966 3 703 97 
z
M 1959 2075 
Q 2384 2075 2632 2365 
Q 2881 2656 2881 3163 
Q 2881 3666 2632 3958 
Q 2384 4250 1959 4250 
Q 1534 4250 1286 3958 
Q 1038 3666 1038 3163 
Q 1038 2656 1286 2365 
Q 1534 2075 1959 2075 
z
" transform="scale(0.015625)"/>
       </defs>
       <use xlink:href="#DejaVuSans-31" transform="translate(0 0.765625)"/>
       <use xlink:href="#DejaVuSans-30" transform="translate(63.623047 0.765625)"/>
       <use xlink:href="#DejaVuSans-39" transform="translate(128.203125 39.046875)scale(0.7)"/>
      </g>
     </g>
    </g>
    <g id="xtick_5">
     <g id="line2d_5">
      <g>
       <use xlink:href="#m6fb1b1a2ae" x="398.487273" y="162.432" style="stroke: #000000; stroke-width: 0.8"/>
      </g>
     </g>
     <g id="text_5">
      <!-- $\mathdefault{10^{10}}$ -->
      <g transform="translate(387.437273 177.030437)scale(0.1 -0.1)">
       <use xlink:href="#DejaVuSans-31" transform="translate(0 0.765625)"/>
       <use xlink:href="#DejaVuSans-30" transform="translate(63.623047 0.765625)"/>
       <use xlink:href="#DejaVuSans-31" transform="translate(128.203125 39.046875)scale(0.7)"/>
       <use xlink:href="#DejaVuSans-30" transform="translate(172.739258 39.046875)scale(0.7)"/>
      </g>
     </g>
    </g>
    <g id="xtick_6">
     <g id="line2d_6">
      <defs>
       <path id="mb325c44a11" d="M 0 0 
L 0 2 
" style="stroke: #000000; stroke-width: 0.6"/>
      </defs>
      <g>
       <use xlink:href="#mb325c44a11" x="61.260321" y="162.432" style="stroke: #000000; stroke-width: 0.6"/>
      </g>
     </g>
    </g>
    <g id="xtick_7">
     <g id="line2d_7">
      <g>
       <use xlink:href="#mb325c44a11" x="65.967158" y="162.432" style="stroke: #000000; stroke-width: 0.6"/>
      </g>
     </g>
    </g>
    <g id="xtick_8">
     <g id="line2d_8">
      <g>
       <use xlink:href="#mb325c44a11" x="70.118883" y="162.432" style="stroke: #000000; stroke-width: 0.6"/>
      </g>
     </g>
    </g>
    <g id="xtick_9">
     <g id="line2d_9">
      <g>
       <use xlink:href="#mb325c44a11" x="98.265416" y="162.432" style="stroke: #000000; stroke-width: 0.6"/>
      </g>
     </g>
    </g>
    <g id="xtick_10">
     <g id="line2d_10">
      <g>
       <use xlink:href="#mb325c44a11" x="112.557623" y="162.432" style="stroke: #000000; stroke-width: 0.6"/>
      </g>
     </g>
    </g>
    <g id="xtick_11">
     <g id="line2d_11">
      <g>
       <use xlink:href="#mb325c44a11" x="122.698105" y="162.432" style="stroke: #000000; stroke-width: 0.6"/>
      </g>
     </g>
    </g>
    <g id="xtick_12">
     <g id="line2d_12">
      <g>
       <use xlink:href="#mb325c44a11" x="130.563675" y="162.432" style="stroke: #000000; stroke-width: 0.6"/>
      </g>
     </g>
    </g>
    <g id="xtick_13">
     <g id="line2d_13">
      <g>
       <use xlink:href="#mb325c44a11" x="136.990312" y="162.432" style="stroke: #000000; stroke-width: 0.6"/>
      </g>
     </g>
    </g>
    <g id="xtick_14">
     <g id="line2d_14">
      <g>
       <use xlink:href="#mb325c44a11" x="142.423957" y="162.432" style="stroke: #000000; stroke-width: 0.6"/>
      </g>
     </g>
    </g>
    <g id="xtick_15">
     <g id="line2d_15">
      <g>
       <use xlink:href="#mb325c44a11" x="147.130795" y="162.432" style="stroke: #000000; stroke-width: 0.6"/>
      </g>
     </g>
    </g>
    <g id="xtick_16">
     <g id="line2d_16">
      <g>
       <use xlink:href="#mb325c44a11" x="151.282519" y="162.432" style="stroke: #000000; stroke-width: 0.6"/>
      </g>
     </g>
    </g>
    <g id="xtick_17">
     <g id="line2d_17">
      <g>
       <use xlink:href="#mb325c44a11" x="179.429053" y="162.432" style="stroke: #000000; stroke-width: 0.6"/>
      </g>
     </g>
    </g>
    <g id="xtick_18">
     <g id="line2d_18">
      <g>
       <use xlink:href="#mb325c44a11" x="193.72126" y="162.432" style="stroke: #000000; stroke-width: 0.6"/>
      </g>
     </g>
    </g>
    <g id="xtick_19">
     <g id="line2d_19">
      <g>
       <use xlink:href="#mb325c44a11" x="203.861742" y="162.432" style="stroke: #000000; stroke-width: 0.6"/>
      </g>
     </g>
    </g>
    <g id="xtick_20">
     <g id="line2d_20">
      <g>
       <use xlink:href="#mb325c44a11" x="211.727311" y="162.432" style="stroke: #000000; stroke-width: 0.6"/>
      </g>
     </g>
    </g>
    <g id="xtick_21">
     <g id="line2d_21">
      <g>
       <use xlink:href="#mb325c44a11" x="218.153949" y="162.432" style="stroke: #000000; stroke-width: 0.6"/>
      </g>
     </g>
    </g>
    <g id="xtick_22">
     <g id="line2d_22">
      <g>
       <use xlink:href="#mb325c44a11" x="223.587594" y="162.432" style="stroke: #000000; stroke-width: 0.6"/>
      </g>
     </g>
    </g>
    <g id="xtick_23">
     <g id="line2d_23">
      <g>
       <use xlink:href="#mb325c44a11" x="228.294431" y="162.432" style="stroke: #000000; stroke-width: 0.6"/>
      </g>
     </g>
    </g>
    <g id="xtick_24">
     <g id="line2d_24">
      <g>
       <use xlink:href="#mb325c44a11" x="232.446156" y="162.432" style="stroke: #000000; stroke-width: 0.6"/>
      </g>
     </g>
    </g>
    <g id="xtick_25">
     <g id="line2d_25">
      <g>
       <use xlink:href="#mb325c44a11" x="260.592689" y="162.432" style="stroke: #000000; stroke-width: 0.6"/>
      </g>
     </g>
    </g>
    <g id="xtick_26">
     <g id="line2d_26">
      <g>
       <use xlink:href="#mb325c44a11" x="274.884896" y="162.432" style="stroke: #000000; stroke-width: 0.6"/>
      </g>
     </g>
    </g>
    <g id="xtick_27">
     <g id="line2d_27">
      <g>
       <use xlink:href="#mb325c44a11" x="285.025378" y="162.432" style="stroke: #000000; stroke-width: 0.6"/>
      </g>
     </g>
    </g>
    <g id="xtick_28">
     <g id="line2d_28">
      <g>
       <use xlink:href="#mb325c44a11" x="292.890947" y="162.432" style="stroke: #000000; stroke-width: 0.6"/>
      </g>
     </g>
    </g>
    <g id="xtick_29">
     <g id="line2d_29">
      <g>
       <use xlink:href="#mb325c44a11" x="299.317585" y="162.432" style="stroke: #000000; stroke-width: 0.6"/>
      </g>
     </g>
    </g>
    <g id="xtick_30">
     <g id="line2d_30">
      <g>
       <use xlink:href="#mb325c44a11" x="304.75123" y="162.432" style="stroke: #000000; stroke-width: 0.6"/>
      </g>
     </g>
    </g>
    <g id="xtick_31">
     <g id="line2d_31">
      <g>
       <use xlink:href="#mb325c44a11" x="309.458067" y="162.432" style="stroke: #000000; stroke-width: 0.6"/>
      </g>
     </g>
    </g>
    <g id="xtick_32">
     <g id="line2d_32">
      <g>
       <use xlink:href="#mb325c44a11" x="313.609792" y="162.432" style="stroke: #000000; stroke-width: 0.6"/>
      </g>
     </g>
    </g>
    <g id="xtick_33">
     <g id="line2d_33">
      <g>
       <use xlink:href="#mb325c44a11" x="341.756325" y="162.432" style="stroke: #000000; stroke-width: 0.6"/>
      </g>
     </g>
    </g>
    <g id="xtick_34">
     <g id="line2d_34">
      <g>
       <use xlink:href="#mb325c44a11" x="356.048532" y="162.432" style="stroke: #000000; stroke-width: 0.6"/>
      </g>
     </g>
    </g>
    <g id="xtick_35">
     <g id="line2d_35">
      <g>
       <use xlink:href="#mb325c44a11" x="366.189015" y="162.432" style="stroke: #000000; stroke-width: 0.6"/>
      </g>
     </g>
    </g>
    <g id="xtick_36">
     <g id="line2d_36">
      <g>
       <use xlink:href="#mb325c44a11" x="374.054584" y="162.432" style="stroke: #000000; stroke-width: 0.6"/>
      </g>
     </g>
    </g>
    <g id="xtick_37">
     <g id="line2d_37">
      <g>
       <use xlink:href="#mb325c44a11" x="380.481221" y="162.432" style="stroke: #000000; stroke-width: 0.6"/>
      </g>
     </g>
    </g>
    <g id="xtick_38">
     <g id="line2d_38">
      <g>
       <use xlink:href="#mb325c44a11" x="385.914866" y="162.432" style="stroke: #000000; stroke-width: 0.6"/>
      </g>
     </g>
    </g>
    <g id="xtick_39">
     <g id="line2d_39">
      <g>
       <use xlink:href="#mb325c44a11" x="390.621704" y="162.432" style="stroke: #000000; stroke-width: 0.6"/>
      </g>
     </g>
    </g>
    <g id="xtick_40">
     <g id="line2d_40">
      <g>
       <use xlink:href="#mb325c44a11" x="394.773428" y="162.432" style="stroke: #000000; stroke-width: 0.6"/>
      </g>
     </g>
    </g>
   </g>
   <g id="matplotlib.axis_2">
    <g id="ytick_1">
     <g id="line2d_41">
      <defs>
       <path id="m54bfd7892a" d="M 0 0 
L -3.5 0 
" style="stroke: #000000; stroke-width: 0.8"/>
      </defs>
      <g>
       <use xlink:href="#m54bfd7892a" x="57.6" y="146.442076" style="stroke: #000000; stroke-width: 0.8"/>
      </g>
     </g>
     <g id="text_6">
      <!-- 0.01 -->
      <g transform="translate(28.334375 150.241295)scale(0.1 -0.1)">
       <defs>
        <path id="DejaVuSans-2e" d="M 684 794 
L 1344 794 
L 1344 0 
L 684 0 
L 684 794 
z
" transform="scale(0.015625)"/>
       </defs>
       <use xlink:href="#DejaVuSans-30"/>
       <use xlink:href="#DejaVuSans-2e" x="63.623047"/>
       <use xlink:href="#DejaVuSans-30" x="95.410156"/>
       <use xlink:href="#DejaVuSans-31" x="159.033203"/>
      </g>
     </g>
    </g>
    <g id="ytick_2">
     <g id="line2d_42">
      <g>
       <use xlink:href="#m54bfd7892a" x="57.6" y="112.795226" style="stroke: #000000; stroke-width: 0.8"/>
      </g>
     </g>
     <g id="text_7">
      <!-- 0.02 -->
      <g transform="translate(28.334375 116.594445)scale(0.1 -0.1)">
       <defs>
        <path id="DejaVuSans-32" d="M 1228 531 
L 3431 531 
L 3431 0 
L 469 0 
L 469 531 
Q 828 903 1448 1529 
Q 2069 2156 2228 2338 
Q 2531 2678 2651 2914 
Q 2772 3150 2772 3378 
Q 2772 3750 2511 3984 
Q 2250 4219 1831 4219 
Q 1534 4219 1204 4116 
Q 875 4013 500 3803 
L 500 4441 
Q 881 4594 1212 4672 
Q 1544 4750 1819 4750 
Q 2544 4750 2975 4387 
Q 3406 4025 3406 3419 
Q 3406 3131 3298 2873 
Q 3191 2616 2906 2266 
Q 2828 2175 2409 1742 
Q 1991 1309 1228 531 
z
" transform="scale(0.015625)"/>
       </defs>
       <use xlink:href="#DejaVuSans-30"/>
       <use xlink:href="#DejaVuSans-2e" x="63.623047"/>
       <use xlink:href="#DejaVuSans-30" x="95.410156"/>
       <use xlink:href="#DejaVuSans-32" x="159.033203"/>
      </g>
     </g>
    </g>
    <g id="ytick_3">
     <g id="line2d_43">
      <g>
       <use xlink:href="#m54bfd7892a" x="57.6" y="79.148376" style="stroke: #000000; stroke-width: 0.8"/>
      </g>
     </g>
     <g id="text_8">
      <!-- 0.03 -->
      <g transform="translate(28.334375 82.947594)scale(0.1 -0.1)">
       <defs>
        <path id="DejaVuSans-33" d="M 2597 2516 
Q 3050 2419 3304 2112 
Q 3559 1806 3559 1356 
Q 3559 666 3084 287 
Q 2609 -91 1734 -91 
Q 1441 -91 1130 -33 
Q 819 25 488 141 
L 488 750 
Q 750 597 1062 519 
Q 1375 441 1716 441 
Q 2309 441 2620 675 
Q 2931 909 2931 1356 
Q 2931 1769 2642 2001 
Q 2353 2234 1838 2234 
L 1294 2234 
L 1294 2753 
L 1863 2753 
Q 2328 2753 2575 2939 
Q 2822 3125 2822 3475 
Q 2822 3834 2567 4026 
Q 2313 4219 1838 4219 
Q 1578 4219 1281 4162 
Q 984 4106 628 3988 
L 628 4550 
Q 988 4650 1302 4700 
Q 1616 4750 1894 4750 
Q 2613 4750 3031 4423 
Q 3450 4097 3450 3541 
Q 3450 3153 3228 2886 
Q 3006 2619 2597 2516 
z
" transform="scale(0.015625)"/>
       </defs>
       <use xlink:href="#DejaVuSans-30"/>
       <use xlink:href="#DejaVuSans-2e" x="63.623047"/>
       <use xlink:href="#DejaVuSans-30" x="95.410156"/>
       <use xlink:href="#DejaVuSans-33" x="159.033203"/>
      </g>
     </g>
    </g>
    <g id="ytick_4">
     <g id="line2d_44">
      <g>
       <use xlink:href="#m54bfd7892a" x="57.6" y="45.501526" style="stroke: #000000; stroke-width: 0.8"/>
      </g>
     </g>
     <g id="text_9">
      <!-- 0.04 -->
      <g transform="translate(28.334375 49.300744)scale(0.1 -0.1)">
       <defs>
        <path id="DejaVuSans-34" d="M 2419 4116 
L 825 1625 
L 2419 1625 
L 2419 4116 
z
M 2253 4666 
L 3047 4666 
L 3047 1625 
L 3713 1625 
L 3713 1100 
L 3047 1100 
L 3047 0 
L 2419 0 
L 2419 1100 
L 313 1100 
L 313 1709 
L 2253 4666 
z
" transform="scale(0.015625)"/>
       </defs>
       <use xlink:href="#DejaVuSans-30"/>
       <use xlink:href="#DejaVuSans-2e" x="63.623047"/>
       <use xlink:href="#DejaVuSans-30" x="95.410156"/>
       <use xlink:href="#DejaVuSans-34" x="159.033203"/>
      </g>
     </g>
    </g>
   </g>
   <g id="line2d_45">
    <path d="M 73.832727 46.970182 
L 78.985974 53.600405 
L 84.139221 60.186438 
L 89.292468 66.569931 
L 94.445714 72.84861 
L 99.598961 78.963341 
L 104.752208 84.937908 
L 109.905455 90.735212 
L 115.058701 96.311785 
L 120.211948 101.664753 
L 125.365195 106.786377 
L 130.518442 111.603203 
L 135.671688 116.106913 
L 140.824935 120.267691 
L 145.978182 124.075871 
L 151.131429 127.484518 
L 156.284675 130.504045 
L 161.437922 133.112173 
L 166.591169 135.331176 
L 171.744416 137.161746 
L 176.897662 138.613442 
L 182.050909 139.727729 
L 187.204156 140.538607 
L 192.357403 141.09818 
L 197.510649 141.453993 
L 202.663896 141.658445 
L 207.817143 141.77022 
L 212.97039 141.831126 
L 218.123636 141.903464 
L 223.276883 142.021468 
L 228.43013 142.238248 
L 233.583377 142.55107 
L 238.736623 142.972876 
L 243.88987 143.522406 
L 249.043117 144.181314 
L 254.196364 144.903647 
L 259.34961 145.640138 
L 264.502857 146.364928 
L 269.656104 146.999736 
L 274.809351 147.472183 
L 279.962597 147.742091 
L 285.115844 147.733615 
L 290.269091 147.380642 
L 295.422338 146.646901 
L 300.575584 145.475722 
L 305.728831 143.911887 
L 310.882078 141.975514 
L 316.035325 139.949379 
L 321.188571 137.988013 
L 326.341818 136.552966 
L 331.495065 136.214189 
L 336.648312 137.492699 
L 341.801558 140.700653 
L 346.954805 145.293229 
L 352.108052 148.901639 
L 357.261299 92.5375 
L 362.414545 105.479873 
L 367.567792 123.803871 
L 372.721039 142.973018 
L 377.874286 152.274304 
L 383.027532 106.488091 
L 388.180779 144.453376 
L 393.334026 156.933818 
L 398.487273 139.417765 
" clip-path="url(#pd71967b72f)" style="fill: none; stroke: #1f77b4; stroke-width: 1.5; stroke-linecap: square"/>
    <defs>
     <path id="maa7a035033" d="M 0 3 
C 0.795609 3 1.55874 2.683901 2.12132 2.12132 
C 2.683901 1.55874 3 0.795609 3 0 
C 3 -0.795609 2.683901 -1.55874 2.12132 -2.12132 
C 1.55874 -2.683901 0.795609 -3 0 -3 
C -0.795609 -3 -1.55874 -2.683901 -2.12132 -2.12132 
C -2.683901 -1.55874 -3 -0.795609 -3 0 
C -3 0.795609 -2.683901 1.55874 -2.12132 2.12132 
C -1.55874 2.683901 -0.795609 3 0 3 
z
" style="stroke: #1f77b4"/>
    </defs>
    <g clip-path="url(#pd71967b72f)">
     <use xlink:href="#maa7a035033" x="73.832727" y="46.970182" style="fill: #1f77b4; stroke: #1f77b4"/>
     <use xlink:href="#maa7a035033" x="78.985974" y="53.600405" style="fill: #1f77b4; stroke: #1f77b4"/>
     <use xlink:href="#maa7a035033" x="84.139221" y="60.186438" style="fill: #1f77b4; stroke: #1f77b4"/>
     <use xlink:href="#maa7a035033" x="89.292468" y="66.569931" style="fill: #1f77b4; stroke: #1f77b4"/>
     <use xlink:href="#maa7a035033" x="94.445714" y="72.84861" style="fill: #1f77b4; stroke: #1f77b4"/>
     <use xlink:href="#maa7a035033" x="99.598961" y="78.963341" style="fill: #1f77b4; stroke: #1f77b4"/>
     <use xlink:href="#maa7a035033" x="104.752208" y="84.937908" style="fill: #1f77b4; stroke: #1f77b4"/>
     <use xlink:href="#maa7a035033" x="109.905455" y="90.735212" style="fill: #1f77b4; stroke: #1f77b4"/>
     <use xlink:href="#maa7a035033" x="115.058701" y="96.311785" style="fill: #1f77b4; stroke: #1f77b4"/>
     <use xlink:href="#maa7a035033" x="120.211948" y="101.664753" style="fill: #1f77b4; stroke: #1f77b4"/>
     <use xlink:href="#maa7a035033" x="125.365195" y="106.786377" style="fill: #1f77b4; stroke: #1f77b4"/>
     <use xlink:href="#maa7a035033" x="130.518442" y="111.603203" style="fill: #1f77b4; stroke: #1f77b4"/>
     <use xlink:href="#maa7a035033" x="135.671688" y="116.106913" style="fill: #1f77b4; stroke: #1f77b4"/>
     <use xlink:href="#maa7a035033" x="140.824935" y="120.267691" style="fill: #1f77b4; stroke: #1f77b4"/>
     <use xlink:href="#maa7a035033" x="145.978182" y="124.075871" style="fill: #1f77b4; stroke: #1f77b4"/>
     <use xlink:href="#maa7a035033" x="151.131429" y="127.484518" style="fill: #1f77b4; stroke: #1f77b4"/>
     <use xlink:href="#maa7a035033" x="156.284675" y="130.504045" style="fill: #1f77b4; stroke: #1f77b4"/>
     <use xlink:href="#maa7a035033" x="161.437922" y="133.112173" style="fill: #1f77b4; stroke: #1f77b4"/>
     <use xlink:href="#maa7a035033" x="166.591169" y="135.331176" style="fill: #1f77b4; stroke: #1f77b4"/>
     <use xlink:href="#maa7a035033" x="171.744416" y="137.161746" style="fill: #1f77b4; stroke: #1f77b4"/>
     <use xlink:href="#maa7a035033" x="176.897662" y="138.613442" style="fill: #1f77b4; stroke: #1f77b4"/>
     <use xlink:href="#maa7a035033" x="182.050909" y="139.727729" style="fill: #1f77b4; stroke: #1f77b4"/>
     <use xlink:href="#maa7a035033" x="187.204156" y="140.538607" style="fill: #1f77b4; stroke: #1f77b4"/>
     <use xlink:href="#maa7a035033" x="192.357403" y="141.09818" style="fill: #1f77b4; stroke: #1f77b4"/>
     <use xlink:href="#maa7a035033" x="197.510649" y="141.453993" style="fill: #1f77b4; stroke: #1f77b4"/>
     <use xlink:href="#maa7a035033" x="202.663896" y="141.658445" style="fill: #1f77b4; stroke: #1f77b4"/>
     <use xlink:href="#maa7a035033" x="207.817143" y="141.77022" style="fill: #1f77b4; stroke: #1f77b4"/>
     <use xlink:href="#maa7a035033" x="212.97039" y="141.831126" style="fill: #1f77b4; stroke: #1f77b4"/>
     <use xlink:href="#maa7a035033" x="218.123636" y="141.903464" style="fill: #1f77b4; stroke: #1f77b4"/>
     <use xlink:href="#maa7a035033" x="223.276883" y="142.021468" style="fill: #1f77b4; stroke: #1f77b4"/>
     <use xlink:href="#maa7a035033" x="228.43013" y="142.238248" style="fill: #1f77b4; stroke: #1f77b4"/>
     <use xlink:href="#maa7a035033" x="233.583377" y="142.55107" style="fill: #1f77b4; stroke: #1f77b4"/>
     <use xlink:href="#maa7a035033" x="238.736623" y="142.972876" style="fill: #1f77b4; stroke: #1f77b4"/>
     <use xlink:href="#maa7a035033" x="243.88987" y="143.522406" style="fill: #1f77b4; stroke: #1f77b4"/>
     <use xlink:href="#maa7a035033" x="249.043117" y="144.181314" style="fill: #1f77b4; stroke: #1f77b4"/>
     <use xlink:href="#maa7a035033" x="254.196364" y="144.903647" style="fill: #1f77b4; stroke: #1f77b4"/>
     <use xlink:href="#maa7a035033" x="259.34961" y="145.640138" style="fill: #1f77b4; stroke: #1f77b4"/>
     <use xlink:href="#maa7a035033" x="264.502857" y="146.364928" style="fill: #1f77b4; stroke: #1f77b4"/>
     <use xlink:href="#maa7a035033" x="269.656104" y="146.999736" style="fill: #1f77b4; stroke: #1f77b4"/>
     <use xlink:href="#maa7a035033" x="274.809351" y="147.472183" style="fill: #1f77b4; stroke: #1f77b4"/>
     <use xlink:href="#maa7a035033" x="279.962597" y="147.742091" style="fill: #1f77b4; stroke: #1f77b4"/>
     <use xlink:href="#maa7a035033" x="285.115844" y="147.733615" style="fill: #1f77b4; stroke: #1f77b4"/>
     <use xlink:href="#maa7a035033" x="290.269091" y="147.380642" style="fill: #1f77b4; stroke: #1f77b4"/>
     <use xlink:href="#maa7a035033" x="295.422338" y="146.646901" style="fill: #1f77b4; stroke: #1f77b4"/>
     <use xlink:href="#maa7a035033" x="300.575584" y="145.475722" style="fill: #1f77b4; stroke: #1f77b4"/>
     <use xlink:href="#maa7a035033" x="305.728831" y="143.911887" style="fill: #1f77b4; stroke: #1f77b4"/>
     <use xlink:href="#maa7a035033" x="310.882078" y="141.975514" style="fill: #1f77b4; stroke: #1f77b4"/>
     <use xlink:href="#maa7a035033" x="316.035325" y="139.949379" style="fill: #1f77b4; stroke: #1f77b4"/>
     <use xlink:href="#maa7a035033" x="321.188571" y="137.988013" style="fill: #1f77b4; stroke: #1f77b4"/>
     <use xlink:href="#maa7a035033" x="326.341818" y="136.552966" style="fill: #1f77b4; stroke: #1f77b4"/>
     <use xlink:href="#maa7a035033" x="331.495065" y="136.214189" style="fill: #1f77b4; stroke: #1f77b4"/>
     <use xlink:href="#maa7a035033" x="336.648312" y="137.492699" style="fill: #1f77b4; stroke: #1f77b4"/>
     <use xlink:href="#maa7a035033" x="341.801558" y="140.700653" style="fill: #1f77b4; stroke: #1f77b4"/>
     <use xlink:href="#maa7a035033" x="346.954805" y="145.293229" style="fill: #1f77b4; stroke: #1f77b4"/>
     <use xlink:href="#maa7a035033" x="352.108052" y="148.901639" style="fill: #1f77b4; stroke: #1f77b4"/>
     <use xlink:href="#maa7a035033" x="357.261299" y="92.5375" style="fill: #1f77b4; stroke: #1f77b4"/>
     <use xlink:href="#maa7a035033" x="362.414545" y="105.479873" style="fill: #1f77b4; stroke: #1f77b4"/>
     <use xlink:href="#maa7a035033" x="367.567792" y="123.803871" style="fill: #1f77b4; stroke: #1f77b4"/>
     <use xlink:href="#maa7a035033" x="372.721039" y="142.973018" style="fill: #1f77b4; stroke: #1f77b4"/>
     <use xlink:href="#maa7a035033" x="377.874286" y="152.274304" style="fill: #1f77b4; stroke: #1f77b4"/>
     <use xlink:href="#maa7a035033" x="383.027532" y="106.488091" style="fill: #1f77b4; stroke: #1f77b4"/>
     <use xlink:href="#maa7a035033" x="388.180779" y="144.453376" style="fill: #1f77b4; stroke: #1f77b4"/>
     <use xlink:href="#maa7a035033" x="393.334026" y="156.933818" style="fill: #1f77b4; stroke: #1f77b4"/>
     <use xlink:href="#maa7a035033" x="398.487273" y="139.417765" style="fill: #1f77b4; stroke: #1f77b4"/>
    </g>
   </g>
   <g id="patch_3">
    <path d="M 57.6 162.432 
L 57.6 41.472 
" style="fill: none; stroke: #000000; stroke-width: 0.8; stroke-linejoin: miter; stroke-linecap: square"/>
   </g>
   <g id="patch_4">
    <path d="M 414.72 162.432 
L 414.72 41.472 
" style="fill: none; stroke: #000000; stroke-width: 0.8; stroke-linejoin: miter; stroke-linecap: square"/>
   </g>
   <g id="patch_5">
    <path d="M 57.6 162.432 
L 414.72 162.432 
" style="fill: none; stroke: #000000; stroke-width: 0.8; stroke-linejoin: miter; stroke-linecap: square"/>
   </g>
   <g id="patch_6">
    <path d="M 57.6 41.472 
L 414.72 41.472 
" style="fill: none; stroke: #000000; stroke-width: 0.8; stroke-linejoin: miter; stroke-linecap: square"/>
   </g>
  </g>
  <g id="axes_2">
   <g id="patch_7">
    <path d="M 57.6 307.584 
L 414.72 307.584 
L 414.72 186.624 
L 57.6 186.624 
z
" style="fill: #ffffff"/>
   </g>
   <g id="matplotlib.axis_3">
    <g id="xtick_41">
     <g id="line2d_46">
      <g>
       <use xlink:href="#m6fb1b1a2ae" x="73.832727" y="307.584" style="stroke: #000000; stroke-width: 0.8"/>
      </g>
     </g>
     <g id="text_10">
      <!-- $\mathdefault{10^{-1}}$ -->
      <g transform="translate(62.082727 322.182437)scale(0.1 -0.1)">
       <defs>
        <path id="DejaVuSans-2212" d="M 678 2272 
L 4684 2272 
L 4684 1741 
L 678 1741 
L 678 2272 
z
" transform="scale(0.015625)"/>
       </defs>
       <use xlink:href="#DejaVuSans-31" transform="translate(0 0.684375)"/>
       <use xlink:href="#DejaVuSans-30" transform="translate(63.623047 0.684375)"/>
       <use xlink:href="#DejaVuSans-2212" transform="translate(128.203125 38.965625)scale(0.7)"/>
       <use xlink:href="#DejaVuSans-31" transform="translate(186.855469 38.965625)scale(0.7)"/>
      </g>
     </g>
    </g>
    <g id="xtick_42">
     <g id="line2d_47">
      <g>
       <use xlink:href="#m6fb1b1a2ae" x="398.487273" y="307.584" style="stroke: #000000; stroke-width: 0.8"/>
      </g>
     </g>
     <g id="text_11">
      <!-- $\mathdefault{10^{0}}$ -->
      <g transform="translate(389.687273 322.182437)scale(0.1 -0.1)">
       <use xlink:href="#DejaVuSans-31" transform="translate(0 0.765625)"/>
       <use xlink:href="#DejaVuSans-30" transform="translate(63.623047 0.765625)"/>
       <use xlink:href="#DejaVuSans-30" transform="translate(128.203125 39.046875)scale(0.7)"/>
      </g>
     </g>
    </g>
    <g id="xtick_43">
     <g id="line2d_48">
      <g>
       <use xlink:href="#mb325c44a11" x="58.97735" y="307.584" style="stroke: #000000; stroke-width: 0.6"/>
      </g>
     </g>
    </g>
    <g id="xtick_44">
     <g id="line2d_49">
      <g>
       <use xlink:href="#mb325c44a11" x="171.563484" y="307.584" style="stroke: #000000; stroke-width: 0.6"/>
      </g>
     </g>
    </g>
    <g id="xtick_45">
     <g id="line2d_50">
      <g>
       <use xlink:href="#mb325c44a11" x="228.732311" y="307.584" style="stroke: #000000; stroke-width: 0.6"/>
      </g>
     </g>
    </g>
    <g id="xtick_46">
     <g id="line2d_51">
      <g>
       <use xlink:href="#mb325c44a11" x="269.29424" y="307.584" style="stroke: #000000; stroke-width: 0.6"/>
      </g>
     </g>
    </g>
    <g id="xtick_47">
     <g id="line2d_52">
      <g>
       <use xlink:href="#mb325c44a11" x="300.756516" y="307.584" style="stroke: #000000; stroke-width: 0.6"/>
      </g>
     </g>
    </g>
    <g id="xtick_48">
     <g id="line2d_53">
      <g>
       <use xlink:href="#mb325c44a11" x="326.463068" y="307.584" style="stroke: #000000; stroke-width: 0.6"/>
      </g>
     </g>
    </g>
    <g id="xtick_49">
     <g id="line2d_54">
      <g>
       <use xlink:href="#mb325c44a11" x="348.197647" y="307.584" style="stroke: #000000; stroke-width: 0.6"/>
      </g>
     </g>
    </g>
    <g id="xtick_50">
     <g id="line2d_55">
      <g>
       <use xlink:href="#mb325c44a11" x="367.024997" y="307.584" style="stroke: #000000; stroke-width: 0.6"/>
      </g>
     </g>
    </g>
    <g id="xtick_51">
     <g id="line2d_56">
      <g>
       <use xlink:href="#mb325c44a11" x="383.631895" y="307.584" style="stroke: #000000; stroke-width: 0.6"/>
      </g>
     </g>
    </g>
   </g>
   <g id="matplotlib.axis_4">
    <g id="ytick_5">
     <g id="line2d_57">
      <g>
       <use xlink:href="#m54bfd7892a" x="57.6" y="291.089455" style="stroke: #000000; stroke-width: 0.8"/>
      </g>
     </g>
     <g id="text_12">
      <!-- 0.96 -->
      <g transform="translate(28.334375 294.888673)scale(0.1 -0.1)">
       <use xlink:href="#DejaVuSans-30"/>
       <use xlink:href="#DejaVuSans-2e" x="63.623047"/>
       <use xlink:href="#DejaVuSans-39" x="95.410156"/>
       <use xlink:href="#DejaVuSans-36" x="159.033203"/>
      </g>
     </g>
    </g>
    <g id="ytick_6">
     <g id="line2d_58">
      <g>
       <use xlink:href="#m54bfd7892a" x="57.6" y="269.096727" style="stroke: #000000; stroke-width: 0.8"/>
      </g>
     </g>
     <g id="text_13">
      <!-- 0.98 -->
      <g transform="translate(28.334375 272.895946)scale(0.1 -0.1)">
       <use xlink:href="#DejaVuSans-30"/>
       <use xlink:href="#DejaVuSans-2e" x="63.623047"/>
       <use xlink:href="#DejaVuSans-39" x="95.410156"/>
       <use xlink:href="#DejaVuSans-38" x="159.033203"/>
      </g>
     </g>
    </g>
    <g id="ytick_7">
     <g id="line2d_59">
      <g>
       <use xlink:href="#m54bfd7892a" x="57.6" y="247.104" style="stroke: #000000; stroke-width: 0.8"/>
      </g>
     </g>
     <g id="text_14">
      <!-- 1.00 -->
      <g transform="translate(28.334375 250.903219)scale(0.1 -0.1)">
       <use xlink:href="#DejaVuSans-31"/>
       <use xlink:href="#DejaVuSans-2e" x="63.623047"/>
       <use xlink:href="#DejaVuSans-30" x="95.410156"/>
       <use xlink:href="#DejaVuSans-30" x="159.033203"/>
      </g>
     </g>
    </g>
    <g id="ytick_8">
     <g id="line2d_60">
      <g>
       <use xlink:href="#m54bfd7892a" x="57.6" y="225.111273" style="stroke: #000000; stroke-width: 0.8"/>
      </g>
     </g>
     <g id="text_15">
      <!-- 1.02 -->
      <g transform="translate(28.334375 228.910491)scale(0.1 -0.1)">
       <use xlink:href="#DejaVuSans-31"/>
       <use xlink:href="#DejaVuSans-2e" x="63.623047"/>
       <use xlink:href="#DejaVuSans-30" x="95.410156"/>
       <use xlink:href="#DejaVuSans-32" x="159.033203"/>
      </g>
     </g>
    </g>
    <g id="ytick_9">
     <g id="line2d_61">
      <g>
       <use xlink:href="#m54bfd7892a" x="57.6" y="203.118545" style="stroke: #000000; stroke-width: 0.8"/>
      </g>
     </g>
     <g id="text_16">
      <!-- 1.04 -->
      <g transform="translate(28.334375 206.917764)scale(0.1 -0.1)">
       <use xlink:href="#DejaVuSans-31"/>
       <use xlink:href="#DejaVuSans-2e" x="63.623047"/>
       <use xlink:href="#DejaVuSans-30" x="95.410156"/>
       <use xlink:href="#DejaVuSans-34" x="159.033203"/>
      </g>
     </g>
    </g>
   </g>
   <g id="line2d_62">
    <path d="M 228.732311 247.104 
" clip-path="url(#p7cc3d85ab3)" style="fill: none; stroke: #1f77b4; stroke-width: 1.5; stroke-linecap: square"/>
    <g clip-path="url(#p7cc3d85ab3)">
     <use xlink:href="#maa7a035033" x="228.732311" y="247.104" style="fill: #1f77b4; stroke: #1f77b4"/>
    </g>
   </g>
   <g id="patch_8">
    <path d="M 57.6 307.584 
L 57.6 186.624 
" style="fill: none; stroke: #000000; stroke-width: 0.8; stroke-linejoin: miter; stroke-linecap: square"/>
   </g>
   <g id="patch_9">
    <path d="M 414.72 307.584 
L 414.72 186.624 
" style="fill: none; stroke: #000000; stroke-width: 0.8; stroke-linejoin: miter; stroke-linecap: square"/>
   </g>
   <g id="patch_10">
    <path d="M 57.6 307.584 
L 414.72 307.584 
" style="fill: none; stroke: #000000; stroke-width: 0.8; stroke-linejoin: miter; stroke-linecap: square"/>
   </g>
   <g id="patch_11">
    <path d="M 57.6 186.624 
L 414.72 186.624 
" style="fill: none; stroke: #000000; stroke-width: 0.8; stroke-linejoin: miter; stroke-linecap: square"/>
   </g>
  </g>
 </g>
 <defs>
  <clipPath id="pd71967b72f">
   <rect x="57.6" y="41.472" width="357.12" height="120.96"/>
  </clipPath>
  <clipPath id="p7cc3d85ab3">
   <rect x="57.6" y="186.624" width="357.12" height="120.96"/>
  </clipPath>
 </defs>
</svg>
